<?xml version="1.0" encoding="UTF-8"?>
<svg id="Camada_2" data-name="Camada 2" xmlns="http://www.w3.org/2000/svg" viewBox="0 0 542.54 504.53">
  <g id="Logo_vertical" data-name="Logo vertical">
    <g id="Verde_cópia" data-name="Verde cópia">
      <g>
        <path d="M220.18,288.26l-94.67,216h-30.54L0,288.26h33.3l77.73,177.43,78.32-177.43h30.82Z" style="fill: #21594f; stroke-width: 0px;"/>
        <path d="M466.79,143.29c15.21-5.35,26.93-13.88,35.16-25.59,8.23-11.71,12.34-25.88,12.34-42.51,0-23.42-8.02-41.8-24.06-55.15C474.19,6.68,452.19,0,424.24,0h-84.21v215.69h30.85V26.8h52.43c19.53,0,34.44,4.16,44.71,12.48,10.27,8.32,15.41,20.29,15.41,35.91s-5.14,27.63-15.41,36.06c-10.27,8.41-25.18,12.61-44.71,12.61h-12.1v26.21h13.03c3.29,0,7.8-.21,13.55-.62l46.57,66.24h33.61l-51.19-72.4Z" style="fill: #21594f; stroke-width: 0px;"/>
        <path d="M192.41,122.81c-7.18-9.15-17.06-15.47-29.6-18.96,8.84-4.32,15.88-10.59,21.12-18.81,5.25-8.22,7.87-17.98,7.87-29.27,0-17.46-6.74-31.11-20.21-40.96C158.12,4.94,139.06,0,114.38,0H17.54v215.68h103c26.94,0,47.44-5.03,61.52-15.09,14.1-10.07,21.15-24.46,21.15-43.16,0-13.96-3.6-25.5-10.8-34.64ZM158.78,182.11c-8.83,5.74-21.98,8.61-39.44,8.61H48.39V24.94h63.23c15.83,0,28.01,2.93,36.53,8.79,8.53,5.85,12.8,14.42,12.8,25.72s-4.27,19.88-12.8,25.74c-8.52,5.85-20.7,8.77-36.53,8.77h-22.21v24.97h29.93c35.14,0,52.71,12.02,52.71,36.06,0,12.31-4.42,21.35-13.27,27.11Z" style="fill: #21594f; stroke-width: 0px;"/>
        <polygon points="444.49 288.51 413.95 288.51 316.19 504.53 347.94 504.53 371.2 451.63 382.49 425.84 382.48 425.84 429.05 319.98 475.63 425.84 475.62 425.84 486.91 451.63 510.17 504.53 542.54 504.53 444.49 288.51" style="fill: #21594f; stroke-width: 0px;"/>
      </g>
    </g>
  </g>
</svg>