<svg width="11" height="9" viewBox="0 0 11 9" fill="none" xmlns="http://www.w3.org/2000/svg">
<path d="M6.00714 0.403497C5.94019 0.46549 5.88706 0.539244 5.85079 0.620507C5.81453 0.701769 5.79586 0.78893 5.79586 0.876963C5.79586 0.964996 5.81453 1.05216 5.85079 1.13342C5.88706 1.21468 5.94019 1.28844 6.00714 1.35043L8.35714 3.54438L1.21429 3.54438C1.02485 3.54438 0.843164 3.61464 0.70921 3.7397C0.575255 3.86476 0.5 4.03437 0.5 4.21124C0.5 4.3881 0.575255 4.55771 0.70921 4.68277C0.843164 4.80783 1.02485 4.87809 1.21429 4.87809H8.35714L6.00714 7.07204C5.94019 7.13403 5.88706 7.20779 5.85079 7.28905C5.81453 7.37031 5.79586 7.45748 5.79586 7.54551C5.79586 7.63354 5.81453 7.7207 5.85079 7.80196C5.88706 7.88323 5.94019 7.95698 6.00714 8.01897C6.14097 8.14318 6.32201 8.21289 6.51071 8.21289C6.69942 8.21289 6.88046 8.14318 7.01429 8.01897L10.0786 5.1515C10.3468 4.90253 10.4984 4.56439 10.5 4.21124C10.4965 3.8604 10.3451 3.52497 10.0786 3.27764L7.01429 0.410165C6.8814 0.285072 6.70089 0.214157 6.51219 0.212907C6.32348 0.211658 6.14191 0.280177 6.00714 0.403497Z" fill="white"/>
</svg>
