<svg width="24" height="24" viewBox="0 0 24 24" fill="none" xmlns="http://www.w3.org/2000/svg">
<path d="M12.1415 0.469727C5.80384 0.469727 0.646362 5.6272 0.646362 11.9648C0.646362 18.3025 5.80384 23.46 12.1415 23.46C18.4791 23.46 23.6366 18.3025 23.6366 11.9648C23.6366 5.6272 18.4791 0.469727 12.1415 0.469727ZM12.1415 1.79588C17.4436 1.79588 22.1591 6.66272 22.1591 11.9648C22.1614 14.2581 21.1115 16.8907 19.6146 18.628C18.1177 20.3653 15.8353 21.7254 13.5669 22.0621V14.7582H16.295L16.7232 11.9869H13.5669V10.4734C13.5669 9.32384 13.9453 8.30173 15.021 8.30173H16.7501V5.88393C16.4464 5.84274 15.8036 5.75365 14.589 5.75365C12.0524 5.75365 10.5657 7.09283 10.5657 10.1448V11.9869H7.95822V14.7582H10.5657V22.0382C8.32869 21.67 5.97055 20.1554 4.5044 18.4262C3.03825 16.697 2.02789 14.2319 2.03049 11.9648C2.03049 6.66272 6.83936 1.79588 12.1415 1.79588Z" fill="#FFF2CC"/>
</svg>
