<svg width="335" height="300" viewBox="0 0 335 300" fill="none" xmlns="http://www.w3.org/2000/svg">
<rect x="46" y="0.246826" width="129" height="129" rx="64.5" fill="#4D8C84"/>
<rect y="72.2468" width="129" height="129" rx="64.5" fill="#257870"/>
<rect x="161" y="0.246826" width="129" height="129" rx="64.5" fill="#016C64"/>
<rect x="206" y="72.2468" width="129" height="129" rx="64.5" fill="#257870"/>
<rect x="161" y="170.247" width="129" height="129" rx="64.5" fill="#378077"/>
<rect x="46" y="170.247" width="129" height="129" rx="64.5" fill="#4D8C84"/>
<path d="M193.444 53.2468V44.9788H190.246V44.1468H197.604V44.9788H194.406V53.2468H193.444ZM204.202 49.8278C204.202 49.9058 204.189 50.0098 204.189 50.1138H198.469C198.573 51.5438 199.665 52.4928 201.16 52.4928C201.992 52.4928 202.733 52.1938 203.253 51.5958L203.773 52.1938C203.162 52.9218 202.213 53.3118 201.134 53.3118C199.002 53.3118 197.546 51.8558 197.546 49.8278C197.546 47.7998 198.963 46.3568 200.887 46.3568C202.811 46.3568 204.202 47.7738 204.202 49.8278ZM200.887 47.1498C199.561 47.1498 198.586 48.0858 198.469 49.4248H203.318C203.201 48.0858 202.226 47.1498 200.887 47.1498ZM208.915 53.3118C206.874 53.3118 205.392 51.8688 205.392 49.8278C205.392 47.7868 206.874 46.3568 208.915 46.3568C210.072 46.3568 211.047 46.8118 211.593 47.7088L210.904 48.1768C210.436 47.4878 209.708 47.1628 208.915 47.1628C207.42 47.1628 206.328 48.2288 206.328 49.8278C206.328 51.4398 207.42 52.4928 208.915 52.4928C209.708 52.4928 210.436 52.1808 210.904 51.4918L211.593 51.9598C211.047 52.8438 210.072 53.3118 208.915 53.3118ZM216.89 46.3568C218.554 46.3568 219.698 47.3188 219.698 49.2818V53.2468H218.775V49.3728C218.775 47.9298 218.021 47.1888 216.721 47.1888C215.252 47.1888 214.329 48.0988 214.329 49.6588V53.2468H213.406V46.4088H214.29V47.6698C214.784 46.8378 215.707 46.3568 216.89 46.3568ZM225.024 53.3118C223.022 53.3118 221.54 51.8558 221.54 49.8278C221.54 47.7998 223.022 46.3568 225.024 46.3568C227.026 46.3568 228.495 47.7998 228.495 49.8278C228.495 51.8558 227.026 53.3118 225.024 53.3118ZM225.024 52.4928C226.48 52.4928 227.559 51.4268 227.559 49.8278C227.559 48.2288 226.48 47.1628 225.024 47.1628C223.568 47.1628 222.476 48.2288 222.476 49.8278C222.476 51.4268 223.568 52.4928 225.024 52.4928ZM230.38 53.2468V43.6008H231.303V53.2468H230.38ZM236.666 53.3118C234.664 53.3118 233.182 51.8558 233.182 49.8278C233.182 47.7998 234.664 46.3568 236.666 46.3568C238.668 46.3568 240.137 47.7998 240.137 49.8278C240.137 51.8558 238.668 53.3118 236.666 53.3118ZM236.666 52.4928C238.122 52.4928 239.201 51.4268 239.201 49.8278C239.201 48.2288 238.122 47.1628 236.666 47.1628C235.21 47.1628 234.118 48.2288 234.118 49.8278C234.118 51.4268 235.21 52.4928 236.666 52.4928ZM247.468 46.4088H248.352V52.4148C248.352 54.7678 247.195 55.8338 244.933 55.8338C243.685 55.8338 242.463 55.4568 241.748 54.7808L242.216 54.0788C242.866 54.6638 243.854 55.0148 244.907 55.0148C246.636 55.0148 247.429 54.2218 247.429 52.5318V51.6608C246.857 52.5318 245.882 52.9868 244.764 52.9868C242.814 52.9868 241.332 51.6218 241.332 49.6588C241.332 47.6958 242.814 46.3568 244.764 46.3568C245.908 46.3568 246.896 46.8248 247.468 47.7218V46.4088ZM244.855 52.1678C246.363 52.1678 247.455 51.1408 247.455 49.6588C247.455 48.1768 246.363 47.1628 244.855 47.1628C243.347 47.1628 242.268 48.1768 242.268 49.6588C242.268 51.1408 243.347 52.1678 244.855 52.1678ZM251.401 44.9138C251.024 44.9138 250.725 44.6148 250.725 44.2508C250.725 43.8998 251.024 43.6008 251.401 43.6008C251.778 43.6008 252.077 43.8868 252.077 44.2378C252.077 44.6148 251.791 44.9138 251.401 44.9138ZM250.933 53.2468V46.4088H251.856V53.2468H250.933ZM256.817 46.3568C258.585 46.3568 259.586 47.2408 259.586 49.0088V53.2468H258.702V52.1808C258.286 52.8828 257.48 53.3118 256.349 53.3118C254.802 53.3118 253.853 52.5058 253.853 51.3228C253.853 50.2698 254.529 49.3858 256.492 49.3858H258.663V48.9698C258.663 47.7998 258 47.1628 256.726 47.1628C255.842 47.1628 255.01 47.4748 254.451 47.9688L254.035 47.2798C254.724 46.6948 255.738 46.3568 256.817 46.3568ZM256.492 52.5838C257.532 52.5838 258.299 52.0898 258.663 51.1928V50.0748H256.518C255.192 50.0748 254.763 50.5948 254.763 51.2968C254.763 52.0898 255.4 52.5838 256.492 52.5838Z" fill="white"/>
<path d="M240.325 118.247L239.233 115.816H234.163L233.071 118.247H232.07L236.23 109.147H237.179L241.339 118.247H240.325ZM234.514 115.036H238.882L236.698 110.148L234.514 115.036ZM245.862 117.168L246.187 117.831C245.823 118.156 245.277 118.312 244.744 118.312C243.457 118.312 242.742 117.584 242.742 116.323V112.189H241.52V111.409H242.742V109.914H243.665V111.409H245.745V112.189H243.665V116.271C243.665 117.077 244.081 117.519 244.848 117.519C245.225 117.519 245.602 117.402 245.862 117.168ZM253.593 114.828C253.593 114.906 253.58 115.01 253.58 115.114H247.86C247.964 116.544 249.056 117.493 250.551 117.493C251.383 117.493 252.124 117.194 252.644 116.596L253.164 117.194C252.553 117.922 251.604 118.312 250.525 118.312C248.393 118.312 246.937 116.856 246.937 114.828C246.937 112.8 248.354 111.357 250.278 111.357C252.202 111.357 253.593 112.774 253.593 114.828ZM250.278 112.15C248.952 112.15 247.977 113.086 247.86 114.425H252.709C252.592 113.086 251.617 112.15 250.278 112.15ZM258.956 111.357C260.62 111.357 261.764 112.319 261.764 114.282V118.247H260.841V114.373C260.841 112.93 260.087 112.189 258.787 112.189C257.318 112.189 256.395 113.099 256.395 114.659V118.247H255.472V111.409H256.356V112.67C256.85 111.838 257.773 111.357 258.956 111.357ZM269.612 108.601H270.535V118.247H269.651V116.895C269.092 117.818 268.143 118.312 267.012 118.312C265.062 118.312 263.606 116.895 263.606 114.828C263.606 112.761 265.062 111.357 267.012 111.357C268.104 111.357 269.04 111.825 269.612 112.709V108.601ZM267.09 117.493C268.533 117.493 269.625 116.427 269.625 114.828C269.625 113.229 268.533 112.163 267.09 112.163C265.634 112.163 264.542 113.229 264.542 114.828C264.542 116.427 265.634 117.493 267.09 117.493ZM273.573 109.914C273.196 109.914 272.897 109.615 272.897 109.251C272.897 108.9 273.196 108.601 273.573 108.601C273.95 108.601 274.249 108.887 274.249 109.238C274.249 109.615 273.963 109.914 273.573 109.914ZM273.105 118.247V111.409H274.028V118.247H273.105ZM285.125 111.357C286.789 111.357 287.881 112.319 287.881 114.282V118.247H286.958V114.373C286.958 112.93 286.23 112.189 284.995 112.189C283.591 112.189 282.707 113.099 282.707 114.659V118.247H281.784V114.373C281.784 112.93 281.056 112.189 279.808 112.189C278.417 112.189 277.52 113.099 277.52 114.659V118.247H276.597V111.409H277.481V112.657C277.962 111.838 278.846 111.357 279.99 111.357C281.121 111.357 282.005 111.838 282.421 112.8C282.915 111.916 283.89 111.357 285.125 111.357ZM296.376 114.828C296.376 114.906 296.363 115.01 296.363 115.114H290.643C290.747 116.544 291.839 117.493 293.334 117.493C294.166 117.493 294.907 117.194 295.427 116.596L295.947 117.194C295.336 117.922 294.387 118.312 293.308 118.312C291.176 118.312 289.72 116.856 289.72 114.828C289.72 112.8 291.137 111.357 293.061 111.357C294.985 111.357 296.376 112.774 296.376 114.828ZM293.061 112.15C291.735 112.15 290.76 113.086 290.643 114.425H295.492C295.375 113.086 294.4 112.15 293.061 112.15ZM301.739 111.357C303.403 111.357 304.547 112.319 304.547 114.282V118.247H303.624V114.373C303.624 112.93 302.87 112.189 301.57 112.189C300.101 112.189 299.178 113.099 299.178 114.659V118.247H298.255V111.409H299.139V112.67C299.633 111.838 300.556 111.357 301.739 111.357ZM310.329 117.168L310.654 117.831C310.29 118.156 309.744 118.312 309.211 118.312C307.924 118.312 307.209 117.584 307.209 116.323V112.189H305.987V111.409H307.209V109.914H308.132V111.409H310.212V112.189H308.132V116.271C308.132 117.077 308.548 117.519 309.315 117.519C309.692 117.519 310.069 117.402 310.329 117.168ZM314.888 118.312C312.886 118.312 311.404 116.856 311.404 114.828C311.404 112.8 312.886 111.357 314.888 111.357C316.89 111.357 318.359 112.8 318.359 114.828C318.359 116.856 316.89 118.312 314.888 118.312ZM314.888 117.493C316.344 117.493 317.423 116.427 317.423 114.828C317.423 113.229 316.344 112.163 314.888 112.163C313.432 112.163 312.34 113.229 312.34 114.828C312.34 116.427 313.432 117.493 314.888 117.493ZM247.455 130.828C247.455 130.906 247.442 131.01 247.442 131.114H241.722C241.826 132.544 242.918 133.493 244.413 133.493C245.245 133.493 245.986 133.194 246.506 132.596L247.026 133.194C246.415 133.922 245.466 134.312 244.387 134.312C242.255 134.312 240.799 132.856 240.799 130.828C240.799 128.8 242.216 127.357 244.14 127.357C246.064 127.357 247.455 128.774 247.455 130.828ZM244.14 128.15C242.814 128.15 241.839 129.086 241.722 130.425H246.571C246.454 129.086 245.479 128.15 244.14 128.15ZM260.198 134.247H259.145L257.065 131.322C256.831 131.348 256.597 131.361 256.337 131.361H253.893V134.247H252.931V125.147H256.337C258.651 125.147 260.055 126.317 260.055 128.267C260.055 129.697 259.301 130.698 257.975 131.127L260.198 134.247ZM256.311 130.542C258.131 130.542 259.093 129.697 259.093 128.267C259.093 126.811 258.131 125.979 256.311 125.979H253.893V130.542H256.311ZM268.097 130.828C268.097 130.906 268.084 131.01 268.084 131.114H262.364C262.468 132.544 263.56 133.493 265.055 133.493C265.887 133.493 266.628 133.194 267.148 132.596L267.668 133.194C267.057 133.922 266.108 134.312 265.029 134.312C262.897 134.312 261.441 132.856 261.441 130.828C261.441 128.8 262.858 127.357 264.782 127.357C266.706 127.357 268.097 128.774 268.097 130.828ZM264.782 128.15C263.456 128.15 262.481 129.086 262.364 130.425H267.213C267.096 129.086 266.121 128.15 264.782 128.15ZM272.81 134.312C270.769 134.312 269.287 132.869 269.287 130.828C269.287 128.787 270.769 127.357 272.81 127.357C273.967 127.357 274.942 127.812 275.488 128.709L274.799 129.177C274.331 128.488 273.603 128.163 272.81 128.163C271.315 128.163 270.223 129.229 270.223 130.828C270.223 132.44 271.315 133.493 272.81 133.493C273.603 133.493 274.331 133.181 274.799 132.492L275.488 132.96C274.942 133.844 273.967 134.312 272.81 134.312ZM282.54 127.409H283.463V134.247H282.579V132.999C282.098 133.831 281.214 134.312 280.122 134.312C278.38 134.312 277.236 133.337 277.236 131.374V127.409H278.159V131.283C278.159 132.739 278.913 133.48 280.213 133.48C281.643 133.48 282.54 132.557 282.54 130.997V127.409ZM286.932 128.748C287.361 127.838 288.232 127.357 289.493 127.357V128.254C289.415 128.254 289.337 128.241 289.272 128.241C287.842 128.241 286.971 129.151 286.971 130.763V134.247H286.048V127.409H286.932V128.748ZM293.048 134.312C291.917 134.312 290.825 133.948 290.266 133.467L290.682 132.739C291.228 133.168 292.151 133.506 293.113 133.506C294.413 133.506 294.946 133.064 294.946 132.388C294.946 130.607 290.513 132.011 290.513 129.307C290.513 128.189 291.475 127.357 293.217 127.357C294.101 127.357 295.063 127.604 295.635 127.994L295.232 128.735C294.634 128.319 293.919 128.15 293.217 128.15C291.982 128.15 291.436 128.631 291.436 129.281C291.436 131.127 295.869 129.736 295.869 132.362C295.869 133.545 294.829 134.312 293.048 134.312ZM300.371 134.312C298.369 134.312 296.887 132.856 296.887 130.828C296.887 128.8 298.369 127.357 300.371 127.357C302.373 127.357 303.842 128.8 303.842 130.828C303.842 132.856 302.373 134.312 300.371 134.312ZM300.371 133.493C301.827 133.493 302.906 132.427 302.906 130.828C302.906 129.229 301.827 128.163 300.371 128.163C298.915 128.163 297.823 129.229 297.823 130.828C297.823 132.427 298.915 133.493 300.371 133.493ZM307.559 134.312C306.428 134.312 305.336 133.948 304.777 133.467L305.193 132.739C305.739 133.168 306.662 133.506 307.624 133.506C308.924 133.506 309.457 133.064 309.457 132.388C309.457 130.607 305.024 132.011 305.024 129.307C305.024 128.189 305.986 127.357 307.728 127.357C308.612 127.357 309.574 127.604 310.146 127.994L309.743 128.735C309.145 128.319 308.43 128.15 307.728 128.15C306.493 128.15 305.947 128.631 305.947 129.281C305.947 131.127 310.38 129.736 310.38 132.362C310.38 133.545 309.34 134.312 307.559 134.312ZM251.582 141.147H252.531V150.247H251.582V146.048H245.888V150.247H244.926V141.147H245.888V145.203H251.582V141.147ZM260.546 143.409H261.469V150.247H260.585V148.999C260.104 149.831 259.22 150.312 258.128 150.312C256.386 150.312 255.242 149.337 255.242 147.374V143.409H256.165V147.283C256.165 148.739 256.919 149.48 258.219 149.48C259.649 149.48 260.546 148.557 260.546 146.997V143.409ZM272.582 143.357C274.246 143.357 275.338 144.319 275.338 146.282V150.247H274.415V146.373C274.415 144.93 273.687 144.189 272.452 144.189C271.048 144.189 270.164 145.099 270.164 146.659V150.247H269.241V146.373C269.241 144.93 268.513 144.189 267.265 144.189C265.874 144.189 264.977 145.099 264.977 146.659V150.247H264.054V143.409H264.938V144.657C265.419 143.838 266.303 143.357 267.447 143.357C268.578 143.357 269.462 143.838 269.878 144.8C270.372 143.916 271.347 143.357 272.582 143.357ZM280.233 143.357C282.001 143.357 283.002 144.241 283.002 146.009V150.247H282.118V149.181C281.702 149.883 280.896 150.312 279.765 150.312C278.218 150.312 277.269 149.506 277.269 148.323C277.269 147.27 277.945 146.386 279.908 146.386H282.079V145.97C282.079 144.8 281.416 144.163 280.142 144.163C279.258 144.163 278.426 144.475 277.867 144.969L277.451 144.28C278.14 143.695 279.154 143.357 280.233 143.357ZM279.908 149.584C280.948 149.584 281.715 149.09 282.079 148.193V147.075H279.934C278.608 147.075 278.179 147.595 278.179 148.297C278.179 149.09 278.816 149.584 279.908 149.584ZM288.993 143.357C290.657 143.357 291.801 144.319 291.801 146.282V150.247H290.878V146.373C290.878 144.93 290.124 144.189 288.824 144.189C287.355 144.189 286.432 145.099 286.432 146.659V150.247H285.509V143.409H286.393V144.67C286.887 143.838 287.81 143.357 288.993 143.357ZM297.127 150.312C295.125 150.312 293.643 148.856 293.643 146.828C293.643 144.8 295.125 143.357 297.127 143.357C299.129 143.357 300.598 144.8 300.598 146.828C300.598 148.856 299.129 150.312 297.127 150.312ZM297.127 149.493C298.583 149.493 299.662 148.427 299.662 146.828C299.662 145.229 298.583 144.163 297.127 144.163C295.671 144.163 294.579 145.229 294.579 146.828C294.579 148.427 295.671 149.493 297.127 149.493ZM304.315 150.312C303.184 150.312 302.092 149.948 301.533 149.467L301.949 148.739C302.495 149.168 303.418 149.506 304.38 149.506C305.68 149.506 306.213 149.064 306.213 148.388C306.213 146.607 301.78 148.011 301.78 145.307C301.78 144.189 302.742 143.357 304.484 143.357C305.368 143.357 306.33 143.604 306.902 143.994L306.499 144.735C305.901 144.319 305.186 144.15 304.484 144.15C303.249 144.15 302.703 144.631 302.703 145.281C302.703 147.127 307.136 145.736 307.136 148.362C307.136 149.545 306.096 150.312 304.315 150.312Z" fill="white"/>
<path d="M197.741 243.247V234.147H198.703V242.415H203.799V243.247H197.741ZM207.895 243.312C205.893 243.312 204.411 241.856 204.411 239.828C204.411 237.8 205.893 236.357 207.895 236.357C209.897 236.357 211.366 237.8 211.366 239.828C211.366 241.856 209.897 243.312 207.895 243.312ZM207.895 242.493C209.351 242.493 210.43 241.427 210.43 239.828C210.43 238.229 209.351 237.163 207.895 237.163C206.439 237.163 205.347 238.229 205.347 239.828C205.347 241.427 206.439 242.493 207.895 242.493ZM218.697 236.409H219.581V242.415C219.581 244.768 218.424 245.834 216.162 245.834C214.914 245.834 213.692 245.457 212.977 244.781L213.445 244.079C214.095 244.664 215.083 245.015 216.136 245.015C217.865 245.015 218.658 244.222 218.658 242.532V241.661C218.086 242.532 217.111 242.987 215.993 242.987C214.043 242.987 212.561 241.622 212.561 239.659C212.561 237.696 214.043 236.357 215.993 236.357C217.137 236.357 218.125 236.825 218.697 237.722V236.409ZM216.084 242.168C217.592 242.168 218.684 241.141 218.684 239.659C218.684 238.177 217.592 237.163 216.084 237.163C214.576 237.163 213.497 238.177 213.497 239.659C213.497 241.141 214.576 242.168 216.084 242.168ZM221.785 235.356L223.566 233.744H224.801L222.695 235.356H221.785ZM222.162 243.247V236.409H223.085V243.247H222.162ZM227.487 243.312C226.356 243.312 225.264 242.948 224.705 242.467L225.121 241.739C225.667 242.168 226.59 242.506 227.552 242.506C228.852 242.506 229.385 242.064 229.385 241.388C229.385 239.607 224.952 241.011 224.952 238.307C224.952 237.189 225.914 236.357 227.656 236.357C228.54 236.357 229.502 236.604 230.074 236.994L229.671 237.735C229.073 237.319 228.358 237.15 227.656 237.15C226.421 237.15 225.875 237.631 225.875 238.281C225.875 240.127 230.308 238.736 230.308 241.362C230.308 242.545 229.268 243.312 227.487 243.312ZM235.29 242.168L235.615 242.831C235.251 243.156 234.705 243.312 234.172 243.312C232.885 243.312 232.17 242.584 232.17 241.323V237.189H230.948V236.409H232.17V234.914H233.093V236.409H235.173V237.189H233.093V241.271C233.093 242.077 233.509 242.519 234.276 242.519C234.653 242.519 235.03 242.402 235.29 242.168ZM237.763 234.914C237.386 234.914 237.087 234.615 237.087 234.251C237.087 233.9 237.386 233.601 237.763 233.601C238.14 233.601 238.439 233.887 238.439 234.238C238.439 234.615 238.153 234.914 237.763 234.914ZM237.295 243.247V236.409H238.218V243.247H237.295ZM243.621 243.312C241.58 243.312 240.098 241.869 240.098 239.828C240.098 237.787 241.58 236.357 243.621 236.357C244.778 236.357 245.753 236.812 246.299 237.709L245.61 238.177C245.142 237.488 244.414 237.163 243.621 237.163C242.126 237.163 241.034 238.229 241.034 239.828C241.034 241.44 242.126 242.493 243.621 242.493C244.414 242.493 245.142 242.181 245.61 241.492L246.299 241.96C245.753 242.844 244.778 243.312 243.621 243.312ZM250.504 236.357C252.272 236.357 253.273 237.241 253.273 239.009V243.247H252.389V242.181C251.973 242.883 251.167 243.312 250.036 243.312C248.489 243.312 247.54 242.506 247.54 241.323C247.54 240.27 248.216 239.386 250.179 239.386H252.35V238.97C252.35 237.8 251.687 237.163 250.413 237.163C249.529 237.163 248.697 237.475 248.138 237.969L247.722 237.28C248.411 236.695 249.425 236.357 250.504 236.357ZM250.179 242.584C251.219 242.584 251.986 242.09 252.35 241.193V240.075H250.205C248.879 240.075 248.45 240.595 248.45 241.297C248.45 242.09 249.087 242.584 250.179 242.584ZM265.149 239.828C265.149 239.906 265.136 240.01 265.136 240.114H259.416C259.52 241.544 260.612 242.493 262.107 242.493C262.939 242.493 263.68 242.194 264.2 241.596L264.72 242.194C264.109 242.922 263.16 243.312 262.081 243.312C259.949 243.312 258.493 241.856 258.493 239.828C258.493 237.8 259.91 236.357 261.834 236.357C263.758 236.357 265.149 237.774 265.149 239.828ZM261.834 237.15C260.508 237.15 259.533 238.086 259.416 239.425H264.265C264.148 238.086 263.173 237.15 261.834 237.15ZM203.489 258.415H208.962V259.247H202.527V250.147H208.767V250.979H203.489V254.216H208.195V255.035H203.489V258.415ZM212.76 259.312C211.629 259.312 210.537 258.948 209.978 258.467L210.394 257.739C210.94 258.168 211.863 258.506 212.825 258.506C214.125 258.506 214.658 258.064 214.658 257.388C214.658 255.607 210.225 257.011 210.225 254.307C210.225 253.189 211.187 252.357 212.929 252.357C213.813 252.357 214.775 252.604 215.347 252.994L214.944 253.735C214.346 253.319 213.631 253.15 212.929 253.15C211.694 253.15 211.148 253.631 211.148 254.281C211.148 256.127 215.581 254.736 215.581 257.362C215.581 258.545 214.541 259.312 212.76 259.312ZM220.563 258.168L220.888 258.831C220.524 259.156 219.978 259.312 219.445 259.312C218.158 259.312 217.443 258.584 217.443 257.323V253.189H216.221V252.409H217.443V250.914H218.366V252.409H220.446V253.189H218.366V257.271C218.366 258.077 218.782 258.519 219.549 258.519C219.926 258.519 220.303 258.402 220.563 258.168ZM225.123 259.312C223.121 259.312 221.639 257.856 221.639 255.828C221.639 253.8 223.121 252.357 225.123 252.357C227.125 252.357 228.594 253.8 228.594 255.828C228.594 257.856 227.125 259.312 225.123 259.312ZM225.123 258.493C226.579 258.493 227.658 257.427 227.658 255.828C227.658 254.229 226.579 253.163 225.123 253.163C223.667 253.163 222.575 254.229 222.575 255.828C222.575 257.427 223.667 258.493 225.123 258.493ZM235.834 252.409H236.718V261.769H235.795V257.96C235.223 258.844 234.287 259.312 233.195 259.312C231.245 259.312 229.789 257.908 229.789 255.828C229.789 253.761 231.245 252.357 233.195 252.357C234.326 252.357 235.275 252.851 235.834 253.761V252.409ZM233.273 258.493C234.716 258.493 235.808 257.427 235.808 255.828C235.808 254.242 234.716 253.163 233.273 253.163C231.817 253.163 230.725 254.242 230.725 255.828C230.725 257.427 231.817 258.493 233.273 258.493ZM244.527 252.409H245.45V259.247H244.566V257.999C244.085 258.831 243.201 259.312 242.109 259.312C240.367 259.312 239.223 258.337 239.223 256.374V252.409H240.146V256.283C240.146 257.739 240.9 258.48 242.2 258.48C243.63 258.48 244.527 257.557 244.527 255.997V252.409ZM254.003 255.828C254.003 255.906 253.99 256.01 253.99 256.114H248.27C248.374 257.544 249.466 258.493 250.961 258.493C251.793 258.493 252.534 258.194 253.054 257.596L253.574 258.194C252.963 258.922 252.014 259.312 250.935 259.312C248.803 259.312 247.347 257.856 247.347 255.828C247.347 253.8 248.764 252.357 250.688 252.357C252.612 252.357 254.003 253.774 254.003 255.828ZM250.688 253.15C249.362 253.15 248.387 254.086 248.27 255.425H253.119C253.002 254.086 252.027 253.15 250.688 253.15ZM257.714 259.312C256.583 259.312 255.491 258.948 254.932 258.467L255.348 257.739C255.894 258.168 256.817 258.506 257.779 258.506C259.079 258.506 259.612 258.064 259.612 257.388C259.612 255.607 255.179 257.011 255.179 254.307C255.179 253.189 256.141 252.357 257.883 252.357C258.767 252.357 259.729 252.604 260.301 252.994L259.898 253.735C259.3 253.319 258.585 253.15 257.883 253.15C256.648 253.15 256.102 253.631 256.102 254.281C256.102 256.127 260.535 254.736 260.535 257.362C260.535 258.545 259.495 259.312 257.714 259.312Z" fill="white"/>
<path d="M77.872 243.325C75.142 243.325 73.114 241.362 73.114 238.697C73.114 236.032 75.142 234.069 77.885 234.069C79.211 234.069 80.407 234.511 81.213 235.395L80.602 236.006C79.861 235.252 78.951 234.927 77.911 234.927C75.714 234.927 74.063 236.539 74.063 238.697C74.063 240.855 75.714 242.467 77.911 242.467C78.951 242.467 79.861 242.142 80.602 241.375L81.213 241.986C80.407 242.87 79.211 243.325 77.872 243.325ZM85.5591 243.312C83.5571 243.312 82.0751 241.856 82.0751 239.828C82.0751 237.8 83.5571 236.357 85.5591 236.357C87.5611 236.357 89.0301 237.8 89.0301 239.828C89.0301 241.856 87.5611 243.312 85.5591 243.312ZM85.5591 242.493C87.0151 242.493 88.0941 241.427 88.0941 239.828C88.0941 238.229 87.0151 237.163 85.5591 237.163C84.1031 237.163 83.0111 238.229 83.0111 239.828C83.0111 241.427 84.1031 242.493 85.5591 242.493ZM99.4424 236.357C101.106 236.357 102.198 237.319 102.198 239.282V243.247H101.275V239.373C101.275 237.93 100.547 237.189 99.3124 237.189C97.9084 237.189 97.0244 238.099 97.0244 239.659V243.247H96.1014V239.373C96.1014 237.93 95.3734 237.189 94.1254 237.189C92.7344 237.189 91.8374 238.099 91.8374 239.659V243.247H90.9144V236.409H91.7984V237.657C92.2794 236.838 93.1634 236.357 94.3074 236.357C95.4384 236.357 96.3224 236.838 96.7384 237.8C97.2324 236.916 98.2074 236.357 99.4424 236.357ZM110.694 239.828C110.694 239.906 110.681 240.01 110.681 240.114H104.961C105.065 241.544 106.157 242.493 107.652 242.493C108.484 242.493 109.225 242.194 109.745 241.596L110.265 242.194C109.654 242.922 108.705 243.312 107.626 243.312C105.494 243.312 104.038 241.856 104.038 239.828C104.038 237.8 105.455 236.357 107.379 236.357C109.303 236.357 110.694 237.774 110.694 239.828ZM107.379 237.15C106.053 237.15 105.078 238.086 104.961 239.425H109.81C109.693 238.086 108.718 237.15 107.379 237.15ZM113.457 237.748C113.886 236.838 114.757 236.357 116.018 236.357V237.254C115.94 237.254 115.862 237.241 115.797 237.241C114.367 237.241 113.496 238.151 113.496 239.763V243.247H112.573V236.409H113.457V237.748ZM120.459 243.312C118.418 243.312 116.936 241.869 116.936 239.828C116.936 237.787 118.418 236.357 120.459 236.357C121.616 236.357 122.591 236.812 123.137 237.709L122.448 238.177C121.98 237.488 121.252 237.163 120.459 237.163C118.964 237.163 117.872 238.229 117.872 239.828C117.872 241.44 118.964 242.493 120.459 242.493C121.252 242.493 121.98 242.181 122.448 241.492L123.137 241.96C122.591 242.844 121.616 243.312 120.459 243.312ZM125.419 234.914C125.042 234.914 124.743 234.615 124.743 234.251C124.743 233.9 125.042 233.601 125.419 233.601C125.796 233.601 126.095 233.887 126.095 234.238C126.095 234.615 125.809 234.914 125.419 234.914ZM124.951 243.247V236.409H125.874V243.247H124.951ZM130.834 236.357C132.602 236.357 133.603 237.241 133.603 239.009V243.247H132.719V242.181C132.303 242.883 131.497 243.312 130.366 243.312C128.819 243.312 127.87 242.506 127.87 241.323C127.87 240.27 128.546 239.386 130.509 239.386H132.68V238.97C132.68 237.8 132.017 237.163 130.743 237.163C129.859 237.163 129.027 237.475 128.468 237.969L128.052 237.28C128.741 236.695 129.755 236.357 130.834 236.357ZM130.509 242.584C131.549 242.584 132.316 242.09 132.68 241.193V240.075H130.535C129.209 240.075 128.78 240.595 128.78 241.297C128.78 242.09 129.417 242.584 130.509 242.584ZM136.11 243.247V233.601H137.033V243.247H136.11ZM148.97 239.828C148.97 239.906 148.957 240.01 148.957 240.114H143.237C143.341 241.544 144.433 242.493 145.928 242.493C146.76 242.493 147.501 242.194 148.021 241.596L148.541 242.194C147.93 242.922 146.981 243.312 145.902 243.312C143.77 243.312 142.314 241.856 142.314 239.828C142.314 237.8 143.731 236.357 145.655 236.357C147.579 236.357 148.97 237.774 148.97 239.828ZM145.655 237.15C144.329 237.15 143.354 238.086 143.237 239.425H148.086C147.969 238.086 146.994 237.15 145.655 237.15ZM89.3992 250.147C91.7132 250.147 93.1172 251.317 93.1172 253.267C93.1172 255.204 91.7132 256.374 89.3992 256.374H86.9552V259.247H85.9932V250.147H89.3992ZM89.3732 255.529C91.1932 255.529 92.1552 254.697 92.1552 253.267C92.1552 251.811 91.1932 250.979 89.3732 250.979H86.9552V255.529H89.3732ZM95.7086 253.748C96.1376 252.838 97.0086 252.357 98.2696 252.357V253.254C98.1916 253.254 98.1136 253.241 98.0486 253.241C96.6186 253.241 95.7476 254.151 95.7476 255.763V259.247H94.8246V252.409H95.7086V253.748ZM102.672 259.312C100.67 259.312 99.1883 257.856 99.1883 255.828C99.1883 253.8 100.67 252.357 102.672 252.357C104.674 252.357 106.143 253.8 106.143 255.828C106.143 257.856 104.674 259.312 102.672 259.312ZM102.672 258.493C104.128 258.493 105.207 257.427 105.207 255.828C105.207 254.229 104.128 253.163 102.672 253.163C101.216 253.163 100.124 254.229 100.124 255.828C100.124 257.427 101.216 258.493 102.672 258.493ZM113.345 249.601H114.268V259.247H113.384V257.895C112.825 258.818 111.876 259.312 110.745 259.312C108.795 259.312 107.339 257.895 107.339 255.828C107.339 253.761 108.795 252.357 110.745 252.357C111.837 252.357 112.773 252.825 113.345 253.709V249.601ZM110.823 258.493C112.266 258.493 113.358 257.427 113.358 255.828C113.358 254.229 112.266 253.163 110.823 253.163C109.367 253.163 108.275 254.229 108.275 255.828C108.275 257.427 109.367 258.493 110.823 258.493ZM122.077 252.409H123V259.247H122.116V257.999C121.635 258.831 120.751 259.312 119.659 259.312C117.917 259.312 116.773 258.337 116.773 256.374V252.409H117.696V256.283C117.696 257.739 118.45 258.48 119.75 258.48C121.18 258.48 122.077 257.557 122.077 255.997V252.409ZM128.861 258.168L129.186 258.831C128.822 259.156 128.276 259.312 127.743 259.312C126.456 259.312 125.741 258.584 125.741 257.323V253.189H124.519V252.409H125.741V250.914H126.664V252.409H128.744V253.189H126.664V257.271C126.664 258.077 127.08 258.519 127.847 258.519C128.224 258.519 128.601 258.402 128.861 258.168ZM133.42 259.312C131.418 259.312 129.936 257.856 129.936 255.828C129.936 253.8 131.418 252.357 133.42 252.357C135.422 252.357 136.891 253.8 136.891 255.828C136.891 257.856 135.422 259.312 133.42 259.312ZM133.42 258.493C134.876 258.493 135.955 257.427 135.955 255.828C135.955 254.229 134.876 253.163 133.42 253.163C131.964 253.163 130.872 254.229 130.872 255.828C130.872 257.427 131.964 258.493 133.42 258.493Z" fill="white"/>
<path d="M87.599 44.1468H88.392V53.2468H87.469V45.9668L83.894 52.0898H83.439L79.864 46.0058V53.2468H78.941V44.1468H79.734L83.686 50.8938L87.599 44.1468ZM93.554 46.3568C95.322 46.3568 96.323 47.2408 96.323 49.0088V53.2468H95.439V52.1808C95.023 52.8828 94.217 53.3118 93.086 53.3118C91.539 53.3118 90.59 52.5058 90.59 51.3228C90.59 50.2698 91.266 49.3858 93.229 49.3858H95.4V48.9698C95.4 47.7998 94.737 47.1628 93.463 47.1628C92.579 47.1628 91.747 47.4748 91.188 47.9688L90.772 47.2798C91.461 46.6948 92.475 46.3568 93.554 46.3568ZM93.229 52.5838C94.269 52.5838 95.036 52.0898 95.4 51.1928V50.0748H93.255C91.929 50.0748 91.5 50.5948 91.5 51.2968C91.5 52.0898 92.137 52.5838 93.229 52.5838ZM99.714 47.7478C100.143 46.8378 101.014 46.3568 102.275 46.3568V47.2538C102.197 47.2538 102.119 47.2408 102.054 47.2408C100.624 47.2408 99.753 48.1508 99.753 49.7628V53.2468H98.83V46.4088H99.714V47.7478ZM109.237 53.2468L106.481 49.8148L104.869 51.2968V53.2468H103.946V43.6008H104.869V50.1398L108.951 46.4088H110.095L107.17 49.2038L110.368 53.2468H109.237ZM117.442 49.8278C117.442 49.9058 117.429 50.0098 117.429 50.1138H111.709C111.812 51.5438 112.905 52.4928 114.4 52.4928C115.232 52.4928 115.973 52.1938 116.493 51.5958L117.013 52.1938C116.402 52.9218 115.453 53.3118 114.374 53.3118C112.242 53.3118 110.786 51.8558 110.786 49.8278C110.786 47.7998 112.203 46.3568 114.127 46.3568C116.051 46.3568 117.442 47.7738 117.442 49.8278ZM114.127 47.1498C112.801 47.1498 111.826 48.0858 111.709 49.4248H116.558C116.441 48.0858 115.466 47.1498 114.127 47.1498ZM122.596 52.1678L122.921 52.8308C122.557 53.1558 122.011 53.3118 121.478 53.3118C120.191 53.3118 119.476 52.5838 119.476 51.3228V47.1888H118.254V46.4088H119.476V44.9138H120.399V46.4088H122.479V47.1888H120.399V51.2708C120.399 52.0768 120.815 52.5188 121.582 52.5188C121.959 52.5188 122.336 52.4018 122.596 52.1678ZM125.069 44.9138C124.692 44.9138 124.393 44.6148 124.393 44.2508C124.393 43.8998 124.692 43.6008 125.069 43.6008C125.446 43.6008 125.745 43.8868 125.745 44.2378C125.745 44.6148 125.459 44.9138 125.069 44.9138ZM124.601 53.2468V46.4088H125.524V53.2468H124.601ZM131.577 46.3568C133.241 46.3568 134.385 47.3188 134.385 49.2818V53.2468H133.462V49.3728C133.462 47.9298 132.708 47.1888 131.408 47.1888C129.939 47.1888 129.016 48.0988 129.016 49.6588V53.2468H128.093V46.4088H128.977V47.6698C129.471 46.8378 130.394 46.3568 131.577 46.3568ZM142.363 46.4088H143.247V52.4148C143.247 54.7678 142.09 55.8338 139.828 55.8338C138.58 55.8338 137.358 55.4568 136.643 54.7808L137.111 54.0788C137.761 54.6638 138.749 55.0148 139.802 55.0148C141.531 55.0148 142.324 54.2218 142.324 52.5318V51.6608C141.752 52.5318 140.777 52.9868 139.659 52.9868C137.709 52.9868 136.227 51.6218 136.227 49.6588C136.227 47.6958 137.709 46.3568 139.659 46.3568C140.803 46.3568 141.791 46.8248 142.363 47.7218V46.4088ZM139.75 52.1678C141.258 52.1678 142.35 51.1408 142.35 49.6588C142.35 48.1768 141.258 47.1628 139.75 47.1628C138.242 47.1628 137.163 48.1768 137.163 49.6588C137.163 51.1408 138.242 52.1678 139.75 52.1678Z" fill="white"/>
<path d="M28.9066 124.979H23.6286V128.554H28.3346V129.386H23.6286V133.247H22.6666V124.147H28.9066V124.979ZM31.0392 124.914C30.6622 124.914 30.3632 124.615 30.3632 124.251C30.3632 123.9 30.6622 123.601 31.0392 123.601C31.4162 123.601 31.7152 123.887 31.7152 124.238C31.7152 124.615 31.4292 124.914 31.0392 124.914ZM30.5712 133.247V126.409H31.4942V133.247H30.5712ZM37.5464 126.357C39.2104 126.357 40.3544 127.319 40.3544 129.282V133.247H39.4314V129.373C39.4314 127.93 38.6774 127.189 37.3774 127.189C35.9084 127.189 34.9854 128.099 34.9854 129.659V133.247H34.0624V126.409H34.9464V127.67C35.4404 126.838 36.3634 126.357 37.5464 126.357ZM45.2522 126.357C47.0202 126.357 48.0212 127.241 48.0212 129.009V133.247H47.1372V132.181C46.7212 132.883 45.9152 133.312 44.7842 133.312C43.2372 133.312 42.2882 132.506 42.2882 131.323C42.2882 130.27 42.9642 129.386 44.9272 129.386H47.0982V128.97C47.0982 127.8 46.4352 127.163 45.1612 127.163C44.2772 127.163 43.4452 127.475 42.8862 127.969L42.4702 127.28C43.1592 126.695 44.1732 126.357 45.2522 126.357ZM44.9272 132.584C45.9672 132.584 46.7342 132.09 47.0982 131.193V130.075H44.9532C43.6272 130.075 43.1982 130.595 43.1982 131.297C43.1982 132.09 43.8352 132.584 44.9272 132.584ZM54.0122 126.357C55.6762 126.357 56.8202 127.319 56.8202 129.282V133.247H55.8972V129.373C55.8972 127.93 55.1432 127.189 53.8432 127.189C52.3742 127.189 51.4512 128.099 51.4512 129.659V133.247H50.5282V126.409H51.4122V127.67C51.9062 126.838 52.8292 126.357 54.0122 126.357ZM62.1855 133.312C60.1445 133.312 58.6625 131.869 58.6625 129.828C58.6625 127.787 60.1445 126.357 62.1855 126.357C63.3425 126.357 64.3175 126.812 64.8635 127.709L64.1745 128.177C63.7065 127.488 62.9785 127.163 62.1855 127.163C60.6905 127.163 59.5985 128.229 59.5985 129.828C59.5985 131.44 60.6905 132.493 62.1855 132.493C62.9785 132.493 63.7065 132.181 64.1745 131.492L64.8635 131.96C64.3175 132.844 63.3425 133.312 62.1855 133.312ZM72.5294 129.828C72.5294 129.906 72.5164 130.01 72.5164 130.114H66.7964C66.9004 131.544 67.9924 132.493 69.4874 132.493C70.3194 132.493 71.0604 132.194 71.5804 131.596L72.1004 132.194C71.4894 132.922 70.5404 133.312 69.4614 133.312C67.3294 133.312 65.8734 131.856 65.8734 129.828C65.8734 127.8 67.2904 126.357 69.2144 126.357C71.1384 126.357 72.5294 127.774 72.5294 129.828ZM69.2144 127.15C67.8884 127.15 66.9134 128.086 66.7964 129.425H71.6454C71.5284 128.086 70.5534 127.15 69.2144 127.15ZM74.8761 124.914C74.4991 124.914 74.2001 124.615 74.2001 124.251C74.2001 123.9 74.4991 123.601 74.8761 123.601C75.2531 123.601 75.5521 123.887 75.5521 124.238C75.5521 124.615 75.2661 124.914 74.8761 124.914ZM74.4081 133.247V126.409H75.3311V133.247H74.4081ZM78.7833 127.748C79.2123 126.838 80.0833 126.357 81.3443 126.357V127.254C81.2663 127.254 81.1883 127.241 81.1233 127.241C79.6933 127.241 78.8223 128.151 78.8223 129.763V133.247H77.8993V126.409H78.7833V127.748ZM85.747 133.312C83.745 133.312 82.263 131.856 82.263 129.828C82.263 127.8 83.745 126.357 85.747 126.357C87.749 126.357 89.218 127.8 89.218 129.828C89.218 131.856 87.749 133.312 85.747 133.312ZM85.747 132.493C87.203 132.493 88.282 131.427 88.282 129.828C88.282 128.229 87.203 127.163 85.747 127.163C84.291 127.163 83.199 128.229 83.199 129.828C83.199 131.427 84.291 132.493 85.747 132.493ZM31.3648 145.828C31.3648 145.906 31.3518 146.01 31.3518 146.114H25.6318C25.7358 147.544 26.8278 148.493 28.3228 148.493C29.1548 148.493 29.8958 148.194 30.4158 147.596L30.9358 148.194C30.3248 148.922 29.3758 149.312 28.2968 149.312C26.1648 149.312 24.7088 147.856 24.7088 145.828C24.7088 143.8 26.1258 142.357 28.0498 142.357C29.9738 142.357 31.3648 143.774 31.3648 145.828ZM28.0498 143.15C26.7238 143.15 25.7488 144.086 25.6318 145.425H30.4808C30.3638 144.086 29.3888 143.15 28.0498 143.15ZM37.8159 149.325C36.7889 149.325 35.8529 148.857 35.2939 148.025L35.8659 147.375C36.3599 148.103 37.0229 148.493 37.8289 148.493C38.9469 148.493 39.5189 147.83 39.5189 146.491V140.979H36.1909V140.147H40.4679V146.452C40.4679 148.376 39.5579 149.325 37.8159 149.325ZM48.3976 142.409H49.3206V149.247H48.4366V147.999C47.9556 148.831 47.0716 149.312 45.9796 149.312C44.2376 149.312 43.0936 148.337 43.0936 146.374V142.409H44.0166V146.283C44.0166 147.739 44.7706 148.48 46.0706 148.48C47.5006 148.48 48.3976 147.557 48.3976 145.997V142.409ZM52.7897 143.748C53.2187 142.838 54.0897 142.357 55.3507 142.357V143.254C55.2727 143.254 55.1947 143.241 55.1297 143.241C53.6997 143.241 52.8287 144.151 52.8287 145.763V149.247H51.9057V142.409H52.7897V143.748ZM56.6449 141.356L58.4259 139.744H59.6609L57.5549 141.356H56.6449ZM57.0219 149.247V142.409H57.9449V149.247H57.0219ZM65.8301 139.601H66.7531V149.247H65.8691V147.895C65.3101 148.818 64.3611 149.312 63.2301 149.312C61.2801 149.312 59.8241 147.895 59.8241 145.828C59.8241 143.761 61.2801 142.357 63.2301 142.357C64.3221 142.357 65.2581 142.825 65.8301 143.709V139.601ZM63.3081 148.493C64.7511 148.493 65.8431 147.427 65.8431 145.828C65.8431 144.229 64.7511 143.163 63.3081 143.163C61.8521 143.163 60.7601 144.229 60.7601 145.828C60.7601 147.427 61.8521 148.493 63.3081 148.493ZM69.7916 140.914C69.4146 140.914 69.1156 140.615 69.1156 140.251C69.1156 139.9 69.4146 139.601 69.7916 139.601C70.1686 139.601 70.4676 139.887 70.4676 140.238C70.4676 140.615 70.1816 140.914 69.7916 140.914ZM69.3236 149.247V142.409H70.2466V149.247H69.3236ZM75.6488 149.312C73.6078 149.312 72.1258 147.869 72.1258 145.828C72.1258 143.787 73.6078 142.357 75.6488 142.357C76.8058 142.357 77.7808 142.812 78.3268 143.709L77.6378 144.177C77.1698 143.488 76.4418 143.163 75.6488 143.163C74.1538 143.163 73.0618 144.229 73.0618 145.828C73.0618 147.44 74.1538 148.493 75.6488 148.493C76.4418 148.493 77.1698 148.181 77.6378 147.492L78.3268 147.96C77.7808 148.844 76.8058 149.312 75.6488 149.312ZM82.8208 149.312C80.8188 149.312 79.3368 147.856 79.3368 145.828C79.3368 143.8 80.8188 142.357 82.8208 142.357C84.8228 142.357 86.2918 143.8 86.2918 145.828C86.2918 147.856 84.8228 149.312 82.8208 149.312ZM82.8208 148.493C84.2768 148.493 85.3558 147.427 85.3558 145.828C85.3558 144.229 84.2768 143.163 82.8208 143.163C81.3648 143.163 80.2728 144.229 80.2728 145.828C80.2728 147.427 81.3648 148.493 82.8208 148.493Z" fill="white"/>
<rect x="103" y="89.2468" width="129" height="129" rx="64.5" fill="white"/>
<path d="M147.263 146.247L146.087 143.629H140.627L139.451 146.247H138.373L142.853 136.447H143.875L148.355 146.247H147.263ZM141.005 142.789H145.709L143.357 137.525L141.005 142.789ZM153.226 145.085L153.576 145.799C153.184 146.149 152.596 146.317 152.022 146.317C150.636 146.317 149.866 145.533 149.866 144.175V139.723H148.55V138.883H149.866V137.273H150.86V138.883H153.1V139.723H150.86V144.119C150.86 144.987 151.308 145.463 152.134 145.463C152.54 145.463 152.946 145.337 153.226 145.085ZM161.027 138.883H162.021V146.247H161.069V144.903C160.551 145.799 159.599 146.317 158.423 146.317C156.547 146.317 155.315 145.267 155.315 143.153V138.883H156.309V143.055C156.309 144.623 157.121 145.421 158.521 145.421C160.061 145.421 161.027 144.427 161.027 142.747V138.883ZM167.381 138.827C169.285 138.827 170.363 139.779 170.363 141.683V146.247H169.411V145.099C168.963 145.855 168.095 146.317 166.877 146.317C165.211 146.317 164.189 145.449 164.189 144.175C164.189 143.041 164.917 142.089 167.031 142.089H169.369V141.641C169.369 140.381 168.655 139.695 167.283 139.695C166.331 139.695 165.435 140.031 164.833 140.563L164.385 139.821C165.127 139.191 166.219 138.827 167.381 138.827ZM167.031 145.533C168.151 145.533 168.977 145.001 169.369 144.035V142.831H167.059C165.631 142.831 165.169 143.391 165.169 144.147C165.169 145.001 165.855 145.533 167.031 145.533ZM176.142 145.435C176.996 145.435 177.78 145.099 178.284 144.357L179.026 144.861C178.438 145.813 177.388 146.317 176.142 146.317H176.114L175.946 146.975C176.716 147.045 177.136 147.493 177.136 148.109C177.136 148.865 176.492 149.327 175.554 149.327C175.092 149.327 174.714 149.229 174.378 149.005L174.616 148.473C174.896 148.655 175.204 148.739 175.54 148.739C176.1 148.739 176.408 148.501 176.408 148.081C176.408 147.703 176.128 147.437 175.54 147.437H175.218L175.526 146.275C173.65 146.009 172.348 144.553 172.348 142.565C172.348 140.367 173.944 138.827 176.142 138.827C177.388 138.827 178.438 139.317 179.026 140.283L178.284 140.787C177.78 140.045 176.996 139.695 176.142 139.695C174.532 139.695 173.356 140.843 173.356 142.565C173.356 144.301 174.532 145.435 176.142 145.435ZM182.701 136.713C182.281 136.713 182.001 137.049 181.973 137.609H181.371C181.399 136.671 181.889 136.069 182.631 136.069C183.499 136.069 183.919 137.021 184.465 137.021C184.885 137.021 185.165 136.685 185.193 136.153H185.795C185.767 137.063 185.277 137.665 184.535 137.665C183.667 137.665 183.261 136.713 182.701 136.713ZM183.555 138.827C185.459 138.827 186.537 139.779 186.537 141.683V146.247H185.585V145.099C185.137 145.855 184.269 146.317 183.051 146.317C181.385 146.317 180.363 145.449 180.363 144.175C180.363 143.041 181.091 142.089 183.205 142.089H185.543V141.641C185.543 140.381 184.829 139.695 183.457 139.695C182.505 139.695 181.609 140.031 181.007 140.563L180.559 139.821C181.301 139.191 182.393 138.827 183.555 138.827ZM183.205 145.533C184.325 145.533 185.151 145.001 185.543 144.035V142.831H183.233C181.805 142.831 181.343 143.391 181.343 144.147C181.343 145.001 182.029 145.533 183.205 145.533ZM192.274 146.317C190.118 146.317 188.522 144.749 188.522 142.565C188.522 140.381 190.118 138.827 192.274 138.827C194.43 138.827 196.012 140.381 196.012 142.565C196.012 144.749 194.43 146.317 192.274 146.317ZM192.274 145.435C193.842 145.435 195.004 144.287 195.004 142.565C195.004 140.843 193.842 139.695 192.274 139.695C190.706 139.695 189.53 140.843 189.53 142.565C189.53 144.287 190.706 145.435 192.274 145.435ZM155.755 164.647C157.855 164.759 158.905 165.865 158.905 167.433C158.905 169.071 157.715 170.331 155.349 170.331C153.935 170.331 152.577 169.841 151.821 169.071L152.311 168.273C152.941 168.931 154.075 169.407 155.349 169.407C156.973 169.407 157.869 168.651 157.869 167.433C157.869 166.257 157.043 165.487 155.223 165.487H154.523V164.745L157.239 161.343H152.227V160.447H158.527V161.161L155.755 164.647ZM164.386 164.381C166.332 164.381 167.69 165.529 167.69 167.321C167.69 169.155 166.248 170.331 164.344 170.331C161.74 170.331 160.326 168.525 160.326 165.431C160.326 162.099 162.146 160.363 164.806 160.363C165.688 160.363 166.514 160.517 167.13 160.895L166.724 161.707C166.22 161.371 165.548 161.245 164.82 161.245C162.706 161.245 161.348 162.603 161.348 165.263C161.348 165.487 161.362 165.767 161.39 166.061C161.88 164.983 163.028 164.381 164.386 164.381ZM164.302 169.477C165.716 169.477 166.696 168.651 166.696 167.349C166.696 166.061 165.744 165.235 164.232 165.235C162.734 165.235 161.712 166.159 161.712 167.377C161.712 168.455 162.608 169.477 164.302 169.477ZM172.763 170.331C170.495 170.331 168.857 168.469 168.857 165.347C168.857 162.225 170.495 160.363 172.763 160.363C175.031 160.363 176.683 162.225 176.683 165.347C176.683 168.469 175.031 170.331 172.763 170.331ZM172.763 169.407C174.471 169.407 175.647 167.965 175.647 165.347C175.647 162.729 174.471 161.287 172.763 161.287C171.055 161.287 169.879 162.729 169.879 165.347C169.879 167.965 171.055 169.407 172.763 169.407ZM180.406 164.269C179.006 164.269 177.984 163.331 177.984 162.029C177.984 160.727 179.006 159.803 180.406 159.803C181.806 159.803 182.828 160.727 182.828 162.029C182.828 163.331 181.806 164.269 180.406 164.269ZM180.406 163.639C181.4 163.639 182.1 162.995 182.1 162.029C182.1 161.077 181.4 160.419 180.406 160.419C179.412 160.419 178.712 161.077 178.712 162.029C178.712 162.995 179.412 163.639 180.406 163.639Z" fill="#353A42"/>
</svg>
