<svg width="710" height="633" viewBox="0 0 710 633" fill="none" xmlns="http://www.w3.org/2000/svg">
<rect x="97" width="273.1" height="273.1" rx="136.55" fill="#4D8C84"/>
<rect x="0.0117188" y="152" width="273.1" height="273.1" rx="136.55" fill="#257870"/>
<rect x="341" width="273.1" height="273.1" rx="136.55" fill="#016C64"/>
<rect x="436.888" y="152" width="273.1" height="273.1" rx="136.55" fill="#257870"/>
<rect x="341" y="359.9" width="273.1" height="273.1" rx="136.55" fill="#378077"/>
<rect x="97" y="359.9" width="273.1" height="273.1" rx="136.55" fill="#4D8C84"/>
<path d="M432.771 102V90.552H428.343V89.4H438.531V90.552H434.103V102H432.771ZM447.666 97.266C447.666 97.374 447.648 97.518 447.648 97.662H439.728C439.872 99.642 441.384 100.956 443.454 100.956C444.606 100.956 445.632 100.542 446.352 99.714L447.072 100.542C446.226 101.55 444.912 102.09 443.418 102.09C440.466 102.09 438.45 100.074 438.45 97.266C438.45 94.458 440.412 92.46 443.076 92.46C445.74 92.46 447.666 94.422 447.666 97.266ZM443.076 93.558C441.24 93.558 439.89 94.854 439.728 96.708H446.442C446.28 94.854 444.93 93.558 443.076 93.558ZM454.192 102.09C451.366 102.09 449.314 100.092 449.314 97.266C449.314 94.44 451.366 92.46 454.192 92.46C455.794 92.46 457.144 93.09 457.9 94.332L456.946 94.98C456.298 94.026 455.29 93.576 454.192 93.576C452.122 93.576 450.61 95.052 450.61 97.266C450.61 99.498 452.122 100.956 454.192 100.956C455.29 100.956 456.298 100.524 456.946 99.57L457.9 100.218C457.144 101.442 455.794 102.09 454.192 102.09ZM465.234 92.46C467.538 92.46 469.122 93.792 469.122 96.51V102H467.844V96.636C467.844 94.638 466.8 93.612 465 93.612C462.966 93.612 461.688 94.872 461.688 97.032V102H460.41V92.532H461.634V94.278C462.318 93.126 463.596 92.46 465.234 92.46ZM476.497 102.09C473.725 102.09 471.673 100.074 471.673 97.266C471.673 94.458 473.725 92.46 476.497 92.46C479.269 92.46 481.303 94.458 481.303 97.266C481.303 100.074 479.269 102.09 476.497 102.09ZM476.497 100.956C478.513 100.956 480.007 99.48 480.007 97.266C480.007 95.052 478.513 93.576 476.497 93.576C474.481 93.576 472.969 95.052 472.969 97.266C472.969 99.48 474.481 100.956 476.497 100.956ZM483.912 102V88.644H485.19V102H483.912ZM492.616 102.09C489.844 102.09 487.792 100.074 487.792 97.266C487.792 94.458 489.844 92.46 492.616 92.46C495.388 92.46 497.422 94.458 497.422 97.266C497.422 100.074 495.388 102.09 492.616 102.09ZM492.616 100.956C494.632 100.956 496.126 99.48 496.126 97.266C496.126 95.052 494.632 93.576 492.616 93.576C490.6 93.576 489.088 95.052 489.088 97.266C489.088 99.48 490.6 100.956 492.616 100.956ZM507.573 92.532H508.797V100.848C508.797 104.106 507.195 105.582 504.063 105.582C502.335 105.582 500.643 105.06 499.653 104.124L500.301 103.152C501.201 103.962 502.569 104.448 504.027 104.448C506.421 104.448 507.519 103.35 507.519 101.01V99.804C506.727 101.01 505.377 101.64 503.829 101.64C501.129 101.64 499.077 99.75 499.077 97.032C499.077 94.314 501.129 92.46 503.829 92.46C505.413 92.46 506.781 93.108 507.573 94.35V92.532ZM503.955 100.506C506.043 100.506 507.555 99.084 507.555 97.032C507.555 94.98 506.043 93.576 503.955 93.576C501.867 93.576 500.373 94.98 500.373 97.032C500.373 99.084 501.867 100.506 503.955 100.506ZM513.019 90.462C512.497 90.462 512.083 90.048 512.083 89.544C512.083 89.058 512.497 88.644 513.019 88.644C513.541 88.644 513.955 89.04 513.955 89.526C513.955 90.048 513.559 90.462 513.019 90.462ZM512.371 102V92.532H513.649V102H512.371ZM520.517 92.46C522.965 92.46 524.351 93.684 524.351 96.132V102H523.127V100.524C522.551 101.496 521.435 102.09 519.869 102.09C517.727 102.09 516.413 100.974 516.413 99.336C516.413 97.878 517.349 96.654 520.067 96.654H523.073V96.078C523.073 94.458 522.155 93.576 520.391 93.576C519.167 93.576 518.015 94.008 517.241 94.692L516.665 93.738C517.619 92.928 519.023 92.46 520.517 92.46ZM520.067 101.082C521.507 101.082 522.569 100.398 523.073 99.156V97.608H520.103C518.267 97.608 517.673 98.328 517.673 99.3C517.673 100.398 518.555 101.082 520.067 101.082Z" fill="white"/>
<path d="M541.308 274L539.796 270.634H532.776L531.264 274H529.878L535.638 261.4H536.952L542.712 274H541.308ZM533.262 269.554H539.31L536.286 262.786L533.262 269.554ZM548.974 272.506L549.424 273.424C548.92 273.874 548.164 274.09 547.426 274.09C545.644 274.09 544.654 273.082 544.654 271.336V265.612H542.962V264.532H544.654V262.462H545.932V264.532H548.812V265.612H545.932V271.264C545.932 272.38 546.508 272.992 547.57 272.992C548.092 272.992 548.614 272.83 548.974 272.506ZM559.679 269.266C559.679 269.374 559.661 269.518 559.661 269.662H551.741C551.885 271.642 553.397 272.956 555.467 272.956C556.619 272.956 557.645 272.542 558.365 271.714L559.085 272.542C558.239 273.55 556.925 274.09 555.431 274.09C552.479 274.09 550.463 272.074 550.463 269.266C550.463 266.458 552.425 264.46 555.089 264.46C557.753 264.46 559.679 266.422 559.679 269.266ZM555.089 265.558C553.253 265.558 551.903 266.854 551.741 268.708H558.455C558.293 266.854 556.943 265.558 555.089 265.558ZM567.104 264.46C569.408 264.46 570.992 265.792 570.992 268.51V274H569.714V268.636C569.714 266.638 568.67 265.612 566.87 265.612C564.836 265.612 563.558 266.872 563.558 269.032V274H562.28V264.532H563.504V266.278C564.188 265.126 565.466 264.46 567.104 264.46ZM581.859 260.644H583.137V274H581.913V272.128C581.139 273.406 579.825 274.09 578.259 274.09C575.559 274.09 573.543 272.128 573.543 269.266C573.543 266.404 575.559 264.46 578.259 264.46C579.771 264.46 581.067 265.108 581.859 266.332V260.644ZM578.367 272.956C580.365 272.956 581.877 271.48 581.877 269.266C581.877 267.052 580.365 265.576 578.367 265.576C576.351 265.576 574.839 267.052 574.839 269.266C574.839 271.48 576.351 272.956 578.367 272.956ZM587.344 262.462C586.822 262.462 586.408 262.048 586.408 261.544C586.408 261.058 586.822 260.644 587.344 260.644C587.866 260.644 588.28 261.04 588.28 261.526C588.28 262.048 587.884 262.462 587.344 262.462ZM586.696 274V264.532H587.974V274H586.696ZM603.338 264.46C605.642 264.46 607.154 265.792 607.154 268.51V274H605.876V268.636C605.876 266.638 604.868 265.612 603.158 265.612C601.214 265.612 599.99 266.872 599.99 269.032V274H598.712V268.636C598.712 266.638 597.704 265.612 595.976 265.612C594.05 265.612 592.808 266.872 592.808 269.032V274H591.53V264.532H592.754V266.26C593.42 265.126 594.644 264.46 596.228 264.46C597.794 264.46 599.018 265.126 599.594 266.458C600.278 265.234 601.628 264.46 603.338 264.46ZM618.917 269.266C618.917 269.374 618.899 269.518 618.899 269.662H610.979C611.123 271.642 612.635 272.956 614.705 272.956C615.857 272.956 616.883 272.542 617.603 271.714L618.323 272.542C617.477 273.55 616.163 274.09 614.669 274.09C611.717 274.09 609.701 272.074 609.701 269.266C609.701 266.458 611.663 264.46 614.327 264.46C616.991 264.46 618.917 266.422 618.917 269.266ZM614.327 265.558C612.491 265.558 611.141 266.854 610.979 268.708H617.693C617.531 266.854 616.181 265.558 614.327 265.558ZM626.342 264.46C628.646 264.46 630.23 265.792 630.23 268.51V274H628.952V268.636C628.952 266.638 627.908 265.612 626.108 265.612C624.074 265.612 622.796 266.872 622.796 269.032V274H621.518V264.532H622.742V266.278C623.426 265.126 624.704 264.46 626.342 264.46ZM638.236 272.506L638.686 273.424C638.182 273.874 637.426 274.09 636.688 274.09C634.906 274.09 633.916 273.082 633.916 271.336V265.612H632.224V264.532H633.916V262.462H635.194V264.532H638.074V265.612H635.194V271.264C635.194 272.38 635.77 272.992 636.832 272.992C637.354 272.992 637.876 272.83 638.236 272.506ZM644.548 274.09C641.776 274.09 639.724 272.074 639.724 269.266C639.724 266.458 641.776 264.46 644.548 264.46C647.32 264.46 649.354 266.458 649.354 269.266C649.354 272.074 647.32 274.09 644.548 274.09ZM644.548 272.956C646.564 272.956 648.058 271.48 648.058 269.266C648.058 267.052 646.564 265.576 644.548 265.576C642.532 265.576 641.02 267.052 641.02 269.266C641.02 271.48 642.532 272.956 644.548 272.956ZM551.18 291.266C551.18 291.374 551.162 291.518 551.162 291.662H543.242C543.386 293.642 544.898 294.956 546.968 294.956C548.12 294.956 549.146 294.542 549.866 293.714L550.586 294.542C549.74 295.55 548.426 296.09 546.932 296.09C543.98 296.09 541.964 294.074 541.964 291.266C541.964 288.458 543.926 286.46 546.59 286.46C549.254 286.46 551.18 288.422 551.18 291.266ZM546.59 287.558C544.754 287.558 543.404 288.854 543.242 290.708H549.956C549.794 288.854 548.444 287.558 546.59 287.558ZM568.824 296H567.366L564.486 291.95C564.162 291.986 563.838 292.004 563.478 292.004H560.094V296H558.762V283.4H563.478C566.682 283.4 568.626 285.02 568.626 287.72C568.626 289.7 567.582 291.086 565.746 291.68L568.824 296ZM563.442 290.87C565.962 290.87 567.294 289.7 567.294 287.72C567.294 285.704 565.962 284.552 563.442 284.552H560.094V290.87H563.442ZM579.762 291.266C579.762 291.374 579.744 291.518 579.744 291.662H571.824C571.968 293.642 573.48 294.956 575.55 294.956C576.702 294.956 577.728 294.542 578.448 293.714L579.168 294.542C578.322 295.55 577.008 296.09 575.514 296.09C572.562 296.09 570.546 294.074 570.546 291.266C570.546 288.458 572.508 286.46 575.172 286.46C577.836 286.46 579.762 288.422 579.762 291.266ZM575.172 287.558C573.336 287.558 571.986 288.854 571.824 290.708H578.538C578.376 288.854 577.026 287.558 575.172 287.558ZM586.287 296.09C583.461 296.09 581.409 294.092 581.409 291.266C581.409 288.44 583.461 286.46 586.287 286.46C587.889 286.46 589.239 287.09 589.995 288.332L589.041 288.98C588.393 288.026 587.385 287.576 586.287 287.576C584.217 287.576 582.705 289.052 582.705 291.266C582.705 293.498 584.217 294.956 586.287 294.956C587.385 294.956 588.393 294.524 589.041 293.57L589.995 294.218C589.239 295.442 587.889 296.09 586.287 296.09ZM599.76 286.532H601.038V296H599.814V294.272C599.148 295.424 597.924 296.09 596.412 296.09C594 296.09 592.416 294.74 592.416 292.022V286.532H593.694V291.896C593.694 293.912 594.738 294.938 596.538 294.938C598.518 294.938 599.76 293.66 599.76 291.5V286.532ZM605.841 288.386C606.435 287.126 607.641 286.46 609.387 286.46V287.702C609.279 287.702 609.171 287.684 609.081 287.684C607.101 287.684 605.895 288.944 605.895 291.176V296H604.617V286.532H605.841V288.386ZM614.309 296.09C612.743 296.09 611.231 295.586 610.457 294.92L611.033 293.912C611.789 294.506 613.067 294.974 614.399 294.974C616.199 294.974 616.937 294.362 616.937 293.426C616.937 290.96 610.799 292.904 610.799 289.16C610.799 287.612 612.131 286.46 614.543 286.46C615.767 286.46 617.099 286.802 617.891 287.342L617.333 288.368C616.505 287.792 615.515 287.558 614.543 287.558C612.833 287.558 612.077 288.224 612.077 289.124C612.077 291.68 618.215 289.754 618.215 293.39C618.215 295.028 616.775 296.09 614.309 296.09ZM624.448 296.09C621.676 296.09 619.624 294.074 619.624 291.266C619.624 288.458 621.676 286.46 624.448 286.46C627.22 286.46 629.254 288.458 629.254 291.266C629.254 294.074 627.22 296.09 624.448 296.09ZM624.448 294.956C626.464 294.956 627.958 293.48 627.958 291.266C627.958 289.052 626.464 287.576 624.448 287.576C622.432 287.576 620.92 289.052 620.92 291.266C620.92 293.48 622.432 294.956 624.448 294.956ZM634.401 296.09C632.835 296.09 631.323 295.586 630.549 294.92L631.125 293.912C631.881 294.506 633.159 294.974 634.491 294.974C636.291 294.974 637.029 294.362 637.029 293.426C637.029 290.96 630.891 292.904 630.891 289.16C630.891 287.612 632.223 286.46 634.635 286.46C635.859 286.46 637.191 286.802 637.983 287.342L637.425 288.368C636.597 287.792 635.607 287.558 634.635 287.558C632.925 287.558 632.169 288.224 632.169 289.124C632.169 291.68 638.307 289.754 638.307 293.39C638.307 295.028 636.867 296.09 634.401 296.09ZM556.895 305.4H558.209V318H556.895V312.186H549.011V318H547.679V305.4H549.011V311.016H556.895V305.4ZM569.306 308.532H570.584V318H569.36V316.272C568.694 317.424 567.47 318.09 565.958 318.09C563.546 318.09 561.962 316.74 561.962 314.022V308.532H563.24V313.896C563.24 315.912 564.284 316.938 566.084 316.938C568.064 316.938 569.306 315.66 569.306 313.5V308.532ZM585.971 308.46C588.275 308.46 589.787 309.792 589.787 312.51V318H588.509V312.636C588.509 310.638 587.501 309.612 585.791 309.612C583.847 309.612 582.623 310.872 582.623 313.032V318H581.345V312.636C581.345 310.638 580.337 309.612 578.609 309.612C576.683 309.612 575.441 310.872 575.441 313.032V318H574.163V308.532H575.387V310.26C576.053 309.126 577.277 308.46 578.861 308.46C580.427 308.46 581.651 309.126 582.227 310.458C582.911 309.234 584.261 308.46 585.971 308.46ZM596.565 308.46C599.013 308.46 600.399 309.684 600.399 312.132V318H599.175V316.524C598.599 317.496 597.483 318.09 595.917 318.09C593.775 318.09 592.461 316.974 592.461 315.336C592.461 313.878 593.397 312.654 596.115 312.654H599.121V312.078C599.121 310.458 598.203 309.576 596.439 309.576C595.215 309.576 594.063 310.008 593.289 310.692L592.713 309.738C593.667 308.928 595.071 308.46 596.565 308.46ZM596.115 317.082C597.555 317.082 598.617 316.398 599.121 315.156V313.608H596.151C594.315 313.608 593.721 314.328 593.721 315.3C593.721 316.398 594.603 317.082 596.115 317.082ZM608.694 308.46C610.998 308.46 612.582 309.792 612.582 312.51V318H611.304V312.636C611.304 310.638 610.26 309.612 608.46 309.612C606.426 309.612 605.148 310.872 605.148 313.032V318H603.87V308.532H605.094V310.278C605.778 309.126 607.056 308.46 608.694 308.46ZM619.957 318.09C617.185 318.09 615.133 316.074 615.133 313.266C615.133 310.458 617.185 308.46 619.957 308.46C622.729 308.46 624.763 310.458 624.763 313.266C624.763 316.074 622.729 318.09 619.957 318.09ZM619.957 316.956C621.973 316.956 623.467 315.48 623.467 313.266C623.467 311.052 621.973 309.576 619.957 309.576C617.941 309.576 616.429 311.052 616.429 313.266C616.429 315.48 617.941 316.956 619.957 316.956ZM629.91 318.09C628.344 318.09 626.832 317.586 626.058 316.92L626.634 315.912C627.39 316.506 628.668 316.974 630 316.974C631.8 316.974 632.538 316.362 632.538 315.426C632.538 312.96 626.4 314.904 626.4 311.16C626.4 309.612 627.732 308.46 630.144 308.46C631.368 308.46 632.7 308.802 633.492 309.342L632.934 310.368C632.106 309.792 631.116 309.558 630.144 309.558C628.434 309.558 627.678 310.224 627.678 311.124C627.678 313.68 633.816 311.754 633.816 315.39C633.816 317.028 632.376 318.09 629.91 318.09Z" fill="white"/>
<path d="M437.046 502V489.4H438.378V500.848H445.434V502H437.046ZM451.105 502.09C448.333 502.09 446.281 500.074 446.281 497.266C446.281 494.458 448.333 492.46 451.105 492.46C453.877 492.46 455.911 494.458 455.911 497.266C455.911 500.074 453.877 502.09 451.105 502.09ZM451.105 500.956C453.121 500.956 454.615 499.48 454.615 497.266C454.615 495.052 453.121 493.576 451.105 493.576C449.089 493.576 447.577 495.052 447.577 497.266C447.577 499.48 449.089 500.956 451.105 500.956ZM466.062 492.532H467.286V500.848C467.286 504.106 465.684 505.582 462.552 505.582C460.824 505.582 459.132 505.06 458.142 504.124L458.79 503.152C459.69 503.962 461.058 504.448 462.516 504.448C464.91 504.448 466.008 503.35 466.008 501.01V499.804C465.216 501.01 463.866 501.64 462.318 501.64C459.618 501.64 457.566 499.75 457.566 497.032C457.566 494.314 459.618 492.46 462.318 492.46C463.902 492.46 465.27 493.108 466.062 494.35V492.532ZM462.444 500.506C464.532 500.506 466.044 499.084 466.044 497.032C466.044 494.98 464.532 493.576 462.444 493.576C460.356 493.576 458.862 494.98 458.862 497.032C458.862 499.084 460.356 500.506 462.444 500.506ZM470.338 491.074L472.804 488.842H474.514L471.598 491.074H470.338ZM470.86 502V492.532H472.138V502H470.86ZM478.232 502.09C476.666 502.09 475.154 501.586 474.38 500.92L474.956 499.912C475.712 500.506 476.99 500.974 478.322 500.974C480.122 500.974 480.86 500.362 480.86 499.426C480.86 496.96 474.722 498.904 474.722 495.16C474.722 493.612 476.054 492.46 478.466 492.46C479.69 492.46 481.022 492.802 481.814 493.342L481.256 494.368C480.428 493.792 479.438 493.558 478.466 493.558C476.756 493.558 476 494.224 476 495.124C476 497.68 482.138 495.754 482.138 499.39C482.138 501.028 480.698 502.09 478.232 502.09ZM489.037 500.506L489.487 501.424C488.983 501.874 488.227 502.09 487.489 502.09C485.707 502.09 484.717 501.082 484.717 499.336V493.612H483.025V492.532H484.717V490.462H485.995V492.532H488.875V493.612H485.995V499.264C485.995 500.38 486.571 500.992 487.633 500.992C488.155 500.992 488.677 500.83 489.037 500.506ZM492.461 490.462C491.939 490.462 491.525 490.048 491.525 489.544C491.525 489.058 491.939 488.644 492.461 488.644C492.983 488.644 493.397 489.04 493.397 489.526C493.397 490.048 493.001 490.462 492.461 490.462ZM491.813 502V492.532H493.091V502H491.813ZM500.571 502.09C497.745 502.09 495.693 500.092 495.693 497.266C495.693 494.44 497.745 492.46 500.571 492.46C502.173 492.46 503.523 493.09 504.279 494.332L503.325 494.98C502.677 494.026 501.669 493.576 500.571 493.576C498.501 493.576 496.989 495.052 496.989 497.266C496.989 499.498 498.501 500.956 500.571 500.956C501.669 500.956 502.677 500.524 503.325 499.57L504.279 500.218C503.523 501.442 502.173 502.09 500.571 502.09ZM510.102 492.46C512.55 492.46 513.936 493.684 513.936 496.132V502H512.712V500.524C512.136 501.496 511.02 502.09 509.454 502.09C507.312 502.09 505.998 500.974 505.998 499.336C505.998 497.878 506.934 496.654 509.652 496.654H512.658V496.078C512.658 494.458 511.74 493.576 509.976 493.576C508.752 493.576 507.6 494.008 506.826 494.692L506.25 493.738C507.204 492.928 508.608 492.46 510.102 492.46ZM509.652 501.082C511.092 501.082 512.154 500.398 512.658 499.156V497.608H509.688C507.852 497.608 507.258 498.328 507.258 499.3C507.258 500.398 508.14 501.082 509.652 501.082ZM530.38 497.266C530.38 497.374 530.362 497.518 530.362 497.662H522.442C522.586 499.642 524.098 500.956 526.168 500.956C527.32 500.956 528.346 500.542 529.066 499.714L529.786 500.542C528.94 501.55 527.626 502.09 526.132 502.09C523.18 502.09 521.164 500.074 521.164 497.266C521.164 494.458 523.126 492.46 525.79 492.46C528.454 492.46 530.38 494.422 530.38 497.266ZM525.79 493.558C523.954 493.558 522.604 494.854 522.442 496.708H529.156C528.994 494.854 527.644 493.558 525.79 493.558ZM445.005 522.848H452.583V524H443.673V511.4H452.313V512.552H445.005V517.034H451.521V518.168H445.005V522.848ZM457.842 524.09C456.276 524.09 454.764 523.586 453.99 522.92L454.566 521.912C455.322 522.506 456.6 522.974 457.932 522.974C459.732 522.974 460.47 522.362 460.47 521.426C460.47 518.96 454.332 520.904 454.332 517.16C454.332 515.612 455.664 514.46 458.076 514.46C459.3 514.46 460.632 514.802 461.424 515.342L460.866 516.368C460.038 515.792 459.048 515.558 458.076 515.558C456.366 515.558 455.61 516.224 455.61 517.124C455.61 519.68 461.748 517.754 461.748 521.39C461.748 523.028 460.308 524.09 457.842 524.09ZM468.646 522.506L469.096 523.424C468.592 523.874 467.836 524.09 467.098 524.09C465.316 524.09 464.326 523.082 464.326 521.336V515.612H462.634V514.532H464.326V512.462H465.604V514.532H468.484V515.612H465.604V521.264C465.604 522.38 466.18 522.992 467.242 522.992C467.764 522.992 468.286 522.83 468.646 522.506ZM474.959 524.09C472.187 524.09 470.135 522.074 470.135 519.266C470.135 516.458 472.187 514.46 474.959 514.46C477.731 514.46 479.765 516.458 479.765 519.266C479.765 522.074 477.731 524.09 474.959 524.09ZM474.959 522.956C476.975 522.956 478.469 521.48 478.469 519.266C478.469 517.052 476.975 515.576 474.959 515.576C472.943 515.576 471.431 517.052 471.431 519.266C471.431 521.48 472.943 522.956 474.959 522.956ZM489.79 514.532H491.014V527.492H489.736V522.218C488.944 523.442 487.648 524.09 486.136 524.09C483.436 524.09 481.42 522.146 481.42 519.266C481.42 516.404 483.436 514.46 486.136 514.46C487.702 514.46 489.016 515.144 489.79 516.404V514.532ZM486.244 522.956C488.242 522.956 489.754 521.48 489.754 519.266C489.754 517.07 488.242 515.576 486.244 515.576C484.228 515.576 482.716 517.07 482.716 519.266C482.716 521.48 484.228 522.956 486.244 522.956ZM501.827 514.532H503.105V524H501.881V522.272C501.215 523.424 499.991 524.09 498.479 524.09C496.067 524.09 494.483 522.74 494.483 520.022V514.532H495.761V519.896C495.761 521.912 496.805 522.938 498.605 522.938C500.585 522.938 501.827 521.66 501.827 519.5V514.532ZM514.946 519.266C514.946 519.374 514.928 519.518 514.928 519.662H507.008C507.152 521.642 508.664 522.956 510.734 522.956C511.886 522.956 512.912 522.542 513.632 521.714L514.352 522.542C513.506 523.55 512.192 524.09 510.698 524.09C507.746 524.09 505.73 522.074 505.73 519.266C505.73 516.458 507.692 514.46 510.356 514.46C513.02 514.46 514.946 516.422 514.946 519.266ZM510.356 515.558C508.52 515.558 507.17 516.854 507.008 518.708H513.722C513.56 516.854 512.21 515.558 510.356 515.558ZM520.086 524.09C518.52 524.09 517.008 523.586 516.234 522.92L516.81 521.912C517.566 522.506 518.844 522.974 520.176 522.974C521.976 522.974 522.714 522.362 522.714 521.426C522.714 518.96 516.576 520.904 516.576 517.16C516.576 515.612 517.908 514.46 520.32 514.46C521.544 514.46 522.876 514.802 523.668 515.342L523.11 516.368C522.282 515.792 521.292 515.558 520.32 515.558C518.61 515.558 517.854 516.224 517.854 517.124C517.854 519.68 523.992 517.754 523.992 521.39C523.992 523.028 522.552 524.09 520.086 524.09Z" fill="white"/>
<path d="M178.696 502.108C174.916 502.108 172.108 499.39 172.108 495.7C172.108 492.01 174.916 489.292 178.714 489.292C180.55 489.292 182.206 489.904 183.322 491.128L182.476 491.974C181.45 490.93 180.19 490.48 178.75 490.48C175.708 490.48 173.422 492.712 173.422 495.7C173.422 498.688 175.708 500.92 178.75 500.92C180.19 500.92 181.45 500.47 182.476 499.408L183.322 500.254C182.206 501.478 180.55 502.108 178.696 502.108ZM189.339 502.09C186.567 502.09 184.515 500.074 184.515 497.266C184.515 494.458 186.567 492.46 189.339 492.46C192.111 492.46 194.145 494.458 194.145 497.266C194.145 500.074 192.111 502.09 189.339 502.09ZM189.339 500.956C191.355 500.956 192.849 499.48 192.849 497.266C192.849 495.052 191.355 493.576 189.339 493.576C187.323 493.576 185.811 495.052 185.811 497.266C185.811 499.48 187.323 500.956 189.339 500.956ZM208.562 492.46C210.866 492.46 212.378 493.792 212.378 496.51V502H211.1V496.636C211.1 494.638 210.092 493.612 208.382 493.612C206.438 493.612 205.214 494.872 205.214 497.032V502H203.936V496.636C203.936 494.638 202.928 493.612 201.2 493.612C199.274 493.612 198.032 494.872 198.032 497.032V502H196.754V492.532H197.978V494.26C198.644 493.126 199.868 492.46 201.452 492.46C203.018 492.46 204.242 493.126 204.818 494.458C205.502 493.234 206.852 492.46 208.562 492.46ZM224.141 497.266C224.141 497.374 224.123 497.518 224.123 497.662H216.203C216.347 499.642 217.859 500.956 219.929 500.956C221.081 500.956 222.107 500.542 222.827 499.714L223.547 500.542C222.701 501.55 221.387 502.09 219.893 502.09C216.941 502.09 214.925 500.074 214.925 497.266C214.925 494.458 216.887 492.46 219.551 492.46C222.215 492.46 224.141 494.422 224.141 497.266ZM219.551 493.558C217.715 493.558 216.365 494.854 216.203 496.708H222.917C222.755 494.854 221.405 493.558 219.551 493.558ZM227.967 494.386C228.561 493.126 229.767 492.46 231.513 492.46V493.702C231.405 493.702 231.297 493.684 231.207 493.684C229.227 493.684 228.021 494.944 228.021 497.176V502H226.743V492.532H227.967V494.386ZM237.663 502.09C234.837 502.09 232.785 500.092 232.785 497.266C232.785 494.44 234.837 492.46 237.663 492.46C239.265 492.46 240.615 493.09 241.371 494.332L240.417 494.98C239.769 494.026 238.761 493.576 237.663 493.576C235.593 493.576 234.081 495.052 234.081 497.266C234.081 499.498 235.593 500.956 237.663 500.956C238.761 500.956 239.769 500.524 240.417 499.57L241.371 500.218C240.615 501.442 239.265 502.09 237.663 502.09ZM244.529 490.462C244.007 490.462 243.593 490.048 243.593 489.544C243.593 489.058 244.007 488.644 244.529 488.644C245.051 488.644 245.465 489.04 245.465 489.526C245.465 490.048 245.069 490.462 244.529 490.462ZM243.881 502V492.532H245.159V502H243.881ZM252.027 492.46C254.475 492.46 255.861 493.684 255.861 496.132V502H254.637V500.524C254.061 501.496 252.945 502.09 251.379 502.09C249.237 502.09 247.923 500.974 247.923 499.336C247.923 497.878 248.859 496.654 251.577 496.654H254.583V496.078C254.583 494.458 253.665 493.576 251.901 493.576C250.677 493.576 249.525 494.008 248.751 494.692L248.175 493.738C249.129 492.928 250.533 492.46 252.027 492.46ZM251.577 501.082C253.017 501.082 254.079 500.398 254.583 499.156V497.608H251.613C249.777 497.608 249.183 498.328 249.183 499.3C249.183 500.398 250.065 501.082 251.577 501.082ZM259.333 502V488.644H260.611V502H259.333ZM277.139 497.266C277.139 497.374 277.121 497.518 277.121 497.662H269.201C269.345 499.642 270.857 500.956 272.927 500.956C274.079 500.956 275.105 500.542 275.825 499.714L276.545 500.542C275.699 501.55 274.385 502.09 272.891 502.09C269.939 502.09 267.923 500.074 267.923 497.266C267.923 494.458 269.885 492.46 272.549 492.46C275.213 492.46 277.139 494.422 277.139 497.266ZM272.549 493.558C270.713 493.558 269.363 494.854 269.201 496.708H275.915C275.753 494.854 274.403 493.558 272.549 493.558ZM194.656 511.4C197.86 511.4 199.804 513.02 199.804 515.72C199.804 518.402 197.86 520.022 194.656 520.022H191.272V524H189.94V511.4H194.656ZM194.62 518.852C197.14 518.852 198.472 517.7 198.472 515.72C198.472 513.704 197.14 512.552 194.62 512.552H191.272V518.852H194.62ZM203.393 516.386C203.987 515.126 205.193 514.46 206.939 514.46V515.702C206.831 515.702 206.723 515.684 206.633 515.684C204.653 515.684 203.447 516.944 203.447 519.176V524H202.169V514.532H203.393V516.386ZM213.035 524.09C210.263 524.09 208.211 522.074 208.211 519.266C208.211 516.458 210.263 514.46 213.035 514.46C215.807 514.46 217.841 516.458 217.841 519.266C217.841 522.074 215.807 524.09 213.035 524.09ZM213.035 522.956C215.051 522.956 216.545 521.48 216.545 519.266C216.545 517.052 215.051 515.576 213.035 515.576C211.019 515.576 209.507 517.052 209.507 519.266C209.507 521.48 211.019 522.956 213.035 522.956ZM227.812 510.644H229.09V524H227.866V522.128C227.092 523.406 225.778 524.09 224.212 524.09C221.512 524.09 219.496 522.128 219.496 519.266C219.496 516.404 221.512 514.46 224.212 514.46C225.724 514.46 227.02 515.108 227.812 516.332V510.644ZM224.32 522.956C226.318 522.956 227.83 521.48 227.83 519.266C227.83 517.052 226.318 515.576 224.32 515.576C222.304 515.576 220.792 517.052 220.792 519.266C220.792 521.48 222.304 522.956 224.32 522.956ZM239.903 514.532H241.181V524H239.957V522.272C239.291 523.424 238.067 524.09 236.555 524.09C234.143 524.09 232.559 522.74 232.559 520.022V514.532H233.837V519.896C233.837 521.912 234.881 522.938 236.681 522.938C238.661 522.938 239.903 521.66 239.903 519.5V514.532ZM249.296 522.506L249.746 523.424C249.242 523.874 248.486 524.09 247.748 524.09C245.966 524.09 244.976 523.082 244.976 521.336V515.612H243.284V514.532H244.976V512.462H246.254V514.532H249.134V515.612H246.254V521.264C246.254 522.38 246.83 522.992 247.892 522.992C248.414 522.992 248.936 522.83 249.296 522.506ZM255.609 524.09C252.837 524.09 250.785 522.074 250.785 519.266C250.785 516.458 252.837 514.46 255.609 514.46C258.381 514.46 260.415 516.458 260.415 519.266C260.415 522.074 258.381 524.09 255.609 524.09ZM255.609 522.956C257.625 522.956 259.119 521.48 259.119 519.266C259.119 517.052 257.625 515.576 255.609 515.576C253.593 515.576 252.081 517.052 252.081 519.266C252.081 521.48 253.593 522.956 255.609 522.956Z" fill="white"/>
<path d="M201.599 89.4H202.697V102H201.419V91.92L196.469 100.398H195.839L190.889 91.974V102H189.611V89.4H190.709L196.181 98.742L201.599 89.4ZM209.844 92.46C212.292 92.46 213.678 93.684 213.678 96.132V102H212.454V100.524C211.878 101.496 210.762 102.09 209.196 102.09C207.054 102.09 205.74 100.974 205.74 99.336C205.74 97.878 206.676 96.654 209.394 96.654H212.4V96.078C212.4 94.458 211.482 93.576 209.718 93.576C208.494 93.576 207.342 94.008 206.568 94.692L205.992 93.738C206.946 92.928 208.35 92.46 209.844 92.46ZM209.394 101.082C210.834 101.082 211.896 100.398 212.4 99.156V97.608H209.43C207.594 97.608 207 98.328 207 99.3C207 100.398 207.882 101.082 209.394 101.082ZM218.373 94.386C218.967 93.126 220.173 92.46 221.919 92.46V93.702C221.811 93.702 221.703 93.684 221.613 93.684C219.633 93.684 218.427 94.944 218.427 97.176V102H217.149V92.532H218.373V94.386ZM231.559 102L227.743 97.248L225.511 99.3V102H224.233V88.644H225.511V97.698L231.163 92.532H232.747L228.697 96.402L233.125 102H231.559ZM242.919 97.266C242.919 97.374 242.901 97.518 242.901 97.662H234.981C235.125 99.642 236.637 100.956 238.707 100.956C239.859 100.956 240.885 100.542 241.605 99.714L242.325 100.542C241.479 101.55 240.165 102.09 238.671 102.09C235.719 102.09 233.703 100.074 233.703 97.266C233.703 94.458 235.665 92.46 238.329 92.46C240.993 92.46 242.919 94.422 242.919 97.266ZM238.329 93.558C236.493 93.558 235.143 94.854 234.981 96.708H241.695C241.533 94.854 240.183 93.558 238.329 93.558ZM250.056 100.506L250.506 101.424C250.002 101.874 249.246 102.09 248.508 102.09C246.726 102.09 245.736 101.082 245.736 99.336V93.612H244.044V92.532H245.736V90.462H247.014V92.532H249.894V93.612H247.014V99.264C247.014 100.38 247.59 100.992 248.652 100.992C249.174 100.992 249.696 100.83 250.056 100.506ZM253.481 90.462C252.959 90.462 252.545 90.048 252.545 89.544C252.545 89.058 252.959 88.644 253.481 88.644C254.003 88.644 254.417 89.04 254.417 89.526C254.417 90.048 254.021 90.462 253.481 90.462ZM252.833 102V92.532H254.111V102H252.833ZM262.491 92.46C264.795 92.46 266.379 93.792 266.379 96.51V102H265.101V96.636C265.101 94.638 264.057 93.612 262.257 93.612C260.223 93.612 258.945 94.872 258.945 97.032V102H257.667V92.532H258.891V94.278C259.575 93.126 260.853 92.46 262.491 92.46ZM277.426 92.532H278.65V100.848C278.65 104.106 277.048 105.582 273.916 105.582C272.188 105.582 270.496 105.06 269.506 104.124L270.154 103.152C271.054 103.962 272.422 104.448 273.88 104.448C276.274 104.448 277.372 103.35 277.372 101.01V99.804C276.58 101.01 275.23 101.64 273.682 101.64C270.982 101.64 268.93 99.75 268.93 97.032C268.93 94.314 270.982 92.46 273.682 92.46C275.266 92.46 276.634 93.108 277.426 94.35V92.532ZM273.808 100.506C275.896 100.506 277.408 99.084 277.408 97.032C277.408 94.98 275.896 93.576 273.808 93.576C271.72 93.576 270.226 94.98 270.226 97.032C270.226 99.084 271.72 100.506 273.808 100.506Z" fill="white"/>
<path d="M71.6783 273.552H64.3703V278.502H70.8863V279.654H64.3703V285H63.0383V272.4H71.6783V273.552ZM74.6312 273.462C74.1092 273.462 73.6952 273.048 73.6952 272.544C73.6952 272.058 74.1092 271.644 74.6312 271.644C75.1532 271.644 75.5672 272.04 75.5672 272.526C75.5672 273.048 75.1712 273.462 74.6312 273.462ZM73.9832 285V275.532H75.2612V285H73.9832ZM83.6412 275.46C85.9452 275.46 87.5292 276.792 87.5292 279.51V285H86.2512V279.636C86.2512 277.638 85.2072 276.612 83.4072 276.612C81.3732 276.612 80.0952 277.872 80.0952 280.032V285H78.8172V275.532H80.0412V277.278C80.7252 276.126 82.0032 275.46 83.6412 275.46ZM94.3108 275.46C96.7588 275.46 98.1448 276.684 98.1448 279.132V285H96.9208V283.524C96.3448 284.496 95.2288 285.09 93.6628 285.09C91.5208 285.09 90.2068 283.974 90.2068 282.336C90.2068 280.878 91.1428 279.654 93.8608 279.654H96.8668V279.078C96.8668 277.458 95.9488 276.576 94.1848 276.576C92.9608 276.576 91.8088 277.008 91.0348 277.692L90.4588 276.738C91.4128 275.928 92.8168 275.46 94.3108 275.46ZM93.8608 284.082C95.3008 284.082 96.3628 283.398 96.8668 282.156V280.608H93.8968C92.0608 280.608 91.4668 281.328 91.4668 282.3C91.4668 283.398 92.3488 284.082 93.8608 284.082ZM106.44 275.46C108.744 275.46 110.328 276.792 110.328 279.51V285H109.05V279.636C109.05 277.638 108.006 276.612 106.206 276.612C104.172 276.612 102.894 277.872 102.894 280.032V285H101.616V275.532H102.84V277.278C103.524 276.126 104.802 275.46 106.44 275.46ZM117.757 285.09C114.931 285.09 112.879 283.092 112.879 280.266C112.879 277.44 114.931 275.46 117.757 275.46C119.359 275.46 120.709 276.09 121.465 277.332L120.511 277.98C119.863 277.026 118.855 276.576 117.757 276.576C115.687 276.576 114.175 278.052 114.175 280.266C114.175 282.498 115.687 283.956 117.757 283.956C118.855 283.956 119.863 283.524 120.511 282.57L121.465 283.218C120.709 284.442 119.359 285.09 117.757 285.09ZM132.079 280.266C132.079 280.374 132.061 280.518 132.061 280.662H124.141C124.285 282.642 125.797 283.956 127.867 283.956C129.019 283.956 130.045 283.542 130.765 282.714L131.485 283.542C130.639 284.55 129.325 285.09 127.831 285.09C124.879 285.09 122.863 283.074 122.863 280.266C122.863 277.458 124.825 275.46 127.489 275.46C130.153 275.46 132.079 277.422 132.079 280.266ZM127.489 276.558C125.653 276.558 124.303 277.854 124.141 279.708H130.855C130.693 277.854 129.343 276.558 127.489 276.558ZM135.328 273.462C134.806 273.462 134.392 273.048 134.392 272.544C134.392 272.058 134.806 271.644 135.328 271.644C135.85 271.644 136.264 272.04 136.264 272.526C136.264 273.048 135.868 273.462 135.328 273.462ZM134.68 285V275.532H135.958V285H134.68ZM140.738 277.386C141.332 276.126 142.538 275.46 144.284 275.46V276.702C144.176 276.702 144.068 276.684 143.978 276.684C141.998 276.684 140.792 277.944 140.792 280.176V285H139.514V275.532H140.738V277.386ZM150.381 285.09C147.609 285.09 145.557 283.074 145.557 280.266C145.557 277.458 147.609 275.46 150.381 275.46C153.153 275.46 155.187 277.458 155.187 280.266C155.187 283.074 153.153 285.09 150.381 285.09ZM150.381 283.956C152.397 283.956 153.891 282.48 153.891 280.266C153.891 278.052 152.397 276.576 150.381 276.576C148.365 276.576 146.853 278.052 146.853 280.266C146.853 282.48 148.365 283.956 150.381 283.956ZM75.0821 302.266C75.0821 302.374 75.0641 302.518 75.0641 302.662H67.1441C67.2881 304.642 68.8001 305.956 70.8701 305.956C72.0221 305.956 73.0481 305.542 73.7681 304.714L74.4881 305.542C73.6421 306.55 72.3281 307.09 70.8341 307.09C67.8821 307.09 65.8661 305.074 65.8661 302.266C65.8661 299.458 67.8281 297.46 70.4921 297.46C73.1561 297.46 75.0821 299.422 75.0821 302.266ZM70.4921 298.558C68.6561 298.558 67.3061 299.854 67.1441 301.708H73.8581C73.6961 299.854 72.3461 298.558 70.4921 298.558ZM84.0143 307.108C82.5923 307.108 81.2963 306.46 80.5223 305.308L81.3143 304.408C81.9983 305.416 82.9163 305.956 84.0323 305.956C85.5803 305.956 86.3723 305.038 86.3723 303.184V295.552H81.7643V294.4H87.6863V303.13C87.6863 305.794 86.4263 307.108 84.0143 307.108ZM98.6659 297.532H99.9439V307H98.7199V305.272C98.0539 306.424 96.8299 307.09 95.3179 307.09C92.9059 307.09 91.3219 305.74 91.3219 303.022V297.532H92.5999V302.896C92.5999 304.912 93.6439 305.938 95.4439 305.938C97.4239 305.938 98.6659 304.66 98.6659 302.5V297.532ZM104.747 299.386C105.341 298.126 106.547 297.46 108.293 297.46V298.702C108.185 298.702 108.077 298.684 107.987 298.684C106.007 298.684 104.801 299.944 104.801 302.176V307H103.523V297.532H104.747V299.386ZM110.085 296.074L112.551 293.842H114.261L111.345 296.074H110.085ZM110.607 307V297.532H111.885V307H110.607ZM122.803 293.644H124.081V307H122.857V305.128C122.083 306.406 120.769 307.09 119.203 307.09C116.503 307.09 114.487 305.128 114.487 302.266C114.487 299.404 116.503 297.46 119.203 297.46C120.715 297.46 122.011 298.108 122.803 299.332V293.644ZM119.311 305.956C121.309 305.956 122.821 304.48 122.821 302.266C122.821 300.052 121.309 298.576 119.311 298.576C117.295 298.576 115.783 300.052 115.783 302.266C115.783 304.48 117.295 305.956 119.311 305.956ZM128.288 295.462C127.766 295.462 127.352 295.048 127.352 294.544C127.352 294.058 127.766 293.644 128.288 293.644C128.81 293.644 129.224 294.04 129.224 294.526C129.224 295.048 128.828 295.462 128.288 295.462ZM127.64 307V297.532H128.918V307H127.64ZM136.398 307.09C133.572 307.09 131.52 305.092 131.52 302.266C131.52 299.44 133.572 297.46 136.398 297.46C138 297.46 139.35 298.09 140.106 299.332L139.152 299.98C138.504 299.026 137.496 298.576 136.398 298.576C134.328 298.576 132.816 300.052 132.816 302.266C132.816 304.498 134.328 305.956 136.398 305.956C137.496 305.956 138.504 305.524 139.152 304.57L140.106 305.218C139.35 306.442 138 307.09 136.398 307.09ZM146.329 307.09C143.557 307.09 141.505 305.074 141.505 302.266C141.505 299.458 143.557 297.46 146.329 297.46C149.101 297.46 151.135 299.458 151.135 302.266C151.135 305.074 149.101 307.09 146.329 307.09ZM146.329 305.956C148.345 305.956 149.839 304.48 149.839 302.266C149.839 300.052 148.345 298.576 146.329 298.576C144.313 298.576 142.801 300.052 142.801 302.266C142.801 304.48 144.313 305.956 146.329 305.956Z" fill="white"/>
<rect x="218.092" y="188.418" width="273.1" height="273.1" rx="136.55" fill="white"/>
<path d="M325.731 314L324.051 310.26H316.251L314.571 314H313.031L319.431 300H320.891L327.291 314H325.731ZM316.791 309.06H323.511L320.151 301.54L316.791 309.06ZM334.249 312.34L334.749 313.36C334.189 313.86 333.349 314.1 332.529 314.1C330.549 314.1 329.449 312.98 329.449 311.04V304.68H327.569V303.48H329.449V301.18H330.869V303.48H334.069V304.68H330.869V310.96C330.869 312.2 331.509 312.88 332.689 312.88C333.269 312.88 333.849 312.7 334.249 312.34ZM345.394 303.48H346.814V314H345.454V312.08C344.714 313.36 343.354 314.1 341.674 314.1C338.994 314.1 337.234 312.6 337.234 309.58V303.48H338.654V309.44C338.654 311.68 339.814 312.82 341.814 312.82C344.014 312.82 345.394 311.4 345.394 309V303.48ZM354.472 303.4C357.192 303.4 358.732 304.76 358.732 307.48V314H357.372V312.36C356.732 313.44 355.492 314.1 353.752 314.1C351.372 314.1 349.912 312.86 349.912 311.04C349.912 309.42 350.952 308.06 353.972 308.06H357.312V307.42C357.312 305.62 356.292 304.64 354.332 304.64C352.972 304.64 351.692 305.12 350.832 305.88L350.192 304.82C351.252 303.92 352.812 303.4 354.472 303.4ZM353.972 312.98C355.572 312.98 356.752 312.22 357.312 310.84V309.12H354.012C351.972 309.12 351.312 309.92 351.312 311C351.312 312.22 352.292 312.98 353.972 312.98ZM366.987 312.84C368.207 312.84 369.327 312.36 370.047 311.3L371.107 312.02C370.267 313.38 368.767 314.1 366.987 314.1H366.947L366.707 315.04C367.807 315.14 368.407 315.78 368.407 316.66C368.407 317.74 367.487 318.4 366.147 318.4C365.487 318.4 364.947 318.26 364.467 317.94L364.807 317.18C365.207 317.44 365.647 317.56 366.127 317.56C366.927 317.56 367.367 317.22 367.367 316.62C367.367 316.08 366.967 315.7 366.127 315.7H365.667L366.107 314.04C363.427 313.66 361.567 311.58 361.567 308.74C361.567 305.6 363.847 303.4 366.987 303.4C368.767 303.4 370.267 304.1 371.107 305.48L370.047 306.2C369.327 305.14 368.207 304.64 366.987 304.64C364.687 304.64 363.007 306.28 363.007 308.74C363.007 311.22 364.687 312.84 366.987 312.84ZM376.357 300.38C375.757 300.38 375.357 300.86 375.317 301.66H374.457C374.497 300.32 375.197 299.46 376.257 299.46C377.497 299.46 378.097 300.82 378.877 300.82C379.477 300.82 379.877 300.34 379.917 299.58H380.777C380.737 300.88 380.037 301.74 378.977 301.74C377.737 301.74 377.157 300.38 376.357 300.38ZM377.577 303.4C380.297 303.4 381.837 304.76 381.837 307.48V314H380.477V312.36C379.837 313.44 378.597 314.1 376.857 314.1C374.477 314.1 373.017 312.86 373.017 311.04C373.017 309.42 374.057 308.06 377.077 308.06H380.417V307.42C380.417 305.62 379.397 304.64 377.437 304.64C376.077 304.64 374.797 305.12 373.937 305.88L373.297 304.82C374.357 303.92 375.917 303.4 377.577 303.4ZM377.077 312.98C378.677 312.98 379.857 312.22 380.417 310.84V309.12H377.117C375.077 309.12 374.417 309.92 374.417 311C374.417 312.22 375.397 312.98 377.077 312.98ZM390.033 314.1C386.953 314.1 384.673 311.86 384.673 308.74C384.673 305.62 386.953 303.4 390.033 303.4C393.113 303.4 395.373 305.62 395.373 308.74C395.373 311.86 393.113 314.1 390.033 314.1ZM390.033 312.84C392.273 312.84 393.933 311.2 393.933 308.74C393.933 306.28 392.273 304.64 390.033 304.64C387.793 304.64 386.113 306.28 386.113 308.74C386.113 311.2 387.793 312.84 390.033 312.84ZM337.863 330C340.863 330.16 342.363 331.74 342.363 333.98C342.363 336.32 340.663 338.12 337.283 338.12C335.263 338.12 333.323 337.42 332.243 336.32L332.943 335.18C333.843 336.12 335.463 336.8 337.283 336.8C339.603 336.8 340.883 335.72 340.883 333.98C340.883 332.3 339.703 331.2 337.103 331.2H336.103V330.14L339.983 325.28H332.823V324H341.823V325.02L337.863 330ZM350.193 329.62C352.973 329.62 354.913 331.26 354.913 333.82C354.913 336.44 352.853 338.12 350.133 338.12C346.413 338.12 344.393 335.54 344.393 331.12C344.393 326.36 346.993 323.88 350.793 323.88C352.053 323.88 353.233 324.1 354.113 324.64L353.533 325.8C352.813 325.32 351.853 325.14 350.813 325.14C347.793 325.14 345.853 327.08 345.853 330.88C345.853 331.2 345.873 331.6 345.913 332.02C346.613 330.48 348.253 329.62 350.193 329.62ZM350.073 336.9C352.093 336.9 353.493 335.72 353.493 333.86C353.493 332.02 352.133 330.84 349.973 330.84C347.833 330.84 346.373 332.16 346.373 333.9C346.373 335.44 347.653 336.9 350.073 336.9ZM362.16 338.12C358.92 338.12 356.58 335.46 356.58 331C356.58 326.54 358.92 323.88 362.16 323.88C365.4 323.88 367.76 326.54 367.76 331C367.76 335.46 365.4 338.12 362.16 338.12ZM362.16 336.8C364.6 336.8 366.28 334.74 366.28 331C366.28 327.26 364.6 325.2 362.16 325.2C359.72 325.2 358.04 327.26 358.04 331C358.04 334.74 359.72 336.8 362.16 336.8ZM373.078 329.46C371.078 329.46 369.618 328.12 369.618 326.26C369.618 324.4 371.078 323.08 373.078 323.08C375.078 323.08 376.538 324.4 376.538 326.26C376.538 328.12 375.078 329.46 373.078 329.46ZM373.078 328.56C374.498 328.56 375.498 327.64 375.498 326.26C375.498 324.9 374.498 323.96 373.078 323.96C371.658 323.96 370.658 324.9 370.658 326.26C370.658 327.64 371.658 328.56 373.078 328.56Z" fill="#353A42"/>
</svg>
