<svg xmlns="http://www.w3.org/2000/svg" width="8" height="9" viewBox="0 0 8 9" fill="none">
  <path d="M0.888889 8.5C0.644444 8.5 0.435111 8.41304 0.260889 8.23911C0.0869629 8.06489 0 7.85556 0 7.61111V1.38889C0 1.14444 0.0869629 0.935111 0.260889 0.760889C0.435111 0.586963 0.644444 0.5 0.888889 0.5H3.55556C3.68148 0.5 3.78711 0.542518 3.87244 0.627556C3.95748 0.712889 4 0.818519 4 0.944444C4 1.07037 3.95748 1.17585 3.87244 1.26089C3.78711 1.34622 3.68148 1.38889 3.55556 1.38889H0.888889V7.61111H7.11111V4.94444C7.11111 4.81852 7.15378 4.71289 7.23911 4.62756C7.32415 4.54252 7.42963 4.5 7.55556 4.5C7.68148 4.5 7.78696 4.54252 7.872 4.62756C7.95733 4.71289 8 4.81852 8 4.94444V7.61111C8 7.85556 7.91304 8.06489 7.73911 8.23911C7.56489 8.41304 7.35556 8.5 7.11111 8.5H0.888889ZM2.66667 5.83333C2.58519 5.75185 2.54444 5.64815 2.54444 5.52222C2.54444 5.3963 2.58519 5.29259 2.66667 5.21111L6.48889 1.38889H5.33333C5.20741 1.38889 5.10193 1.34622 5.01689 1.26089C4.93156 1.17585 4.88889 1.07037 4.88889 0.944444C4.88889 0.818519 4.93156 0.712889 5.01689 0.627556C5.10193 0.542518 5.20741 0.5 5.33333 0.5H7.55556C7.68148 0.5 7.78696 0.542518 7.872 0.627556C7.95733 0.712889 8 0.818519 8 0.944444V3.16667C8 3.29259 7.95733 3.39807 7.872 3.48311C7.78696 3.56844 7.68148 3.61111 7.55556 3.61111C7.42963 3.61111 7.32415 3.56844 7.23911 3.48311C7.15378 3.39807 7.11111 3.29259 7.11111 3.16667V2.01111L3.27778 5.84444C3.1963 5.92593 3.0963 5.96667 2.97778 5.96667C2.85926 5.96667 2.75556 5.92222 2.66667 5.83333Z" fill="white"/>
</svg>