<svg width="24" height="24" viewBox="0 0 24 24" fill="none" xmlns="http://www.w3.org/2000/svg">
<path d="M16.8145 1.17676H6.83182C3.61069 1.17676 1 3.78791 1 7.00858V16.9913C1 20.2124 3.61115 22.8231 6.83228 22.8231H16.8141C20.0352 22.8231 22.6464 20.212 22.6464 16.9908V7.00858C22.6464 3.78745 20.0352 1.17676 16.8141 1.17676H16.8145Z" stroke="white" stroke-width="1.5" stroke-miterlimit="10"/>
<path d="M11.8232 17.2251C14.709 17.2251 17.0483 14.8857 17.0483 12C17.0483 9.11425 14.709 6.7749 11.8232 6.7749C8.93749 6.7749 6.59814 9.11425 6.59814 12C6.59814 14.8857 8.93749 17.2251 11.8232 17.2251Z" stroke="white" stroke-width="1.5" stroke-miterlimit="10"/>
<path d="M17.7621 5.96398C18.1565 5.96398 18.4762 5.64429 18.4762 5.24993C18.4762 4.85558 18.1565 4.53589 17.7621 4.53589C17.3678 4.53589 17.0481 4.85558 17.0481 5.24993C17.0481 5.64429 17.3678 5.96398 17.7621 5.96398Z" fill="white"/>
</svg>
