<svg width="24" height="24" viewBox="0 0 24 24" fill="none" xmlns="http://www.w3.org/2000/svg">
<path d="M16.8145 1.1416H6.83182C3.61069 1.1416 1 3.75275 1 6.97342V16.9561C1 20.1773 3.61115 22.788 6.83228 22.788H16.8141C20.0352 22.788 22.6464 20.1768 22.6464 16.9557V6.97342C22.6464 3.75229 20.0352 1.1416 16.8141 1.1416H16.8145Z" stroke="#FFF2CC" stroke-width="1.5" stroke-miterlimit="10"/>
<path d="M11.8233 17.1899C14.7091 17.1899 17.0484 14.8506 17.0484 11.9648C17.0484 9.07909 14.7091 6.73975 11.8233 6.73975C8.9376 6.73975 6.59825 9.07909 6.59825 11.9648C6.59825 14.8506 8.9376 17.1899 11.8233 17.1899Z" stroke="#FFF2CC" stroke-width="1.5" stroke-miterlimit="10"/>
<path d="M17.7621 5.92882C18.1564 5.92882 18.4761 5.60913 18.4761 5.21478C18.4761 4.82042 18.1564 4.50073 17.7621 4.50073C17.3677 4.50073 17.048 4.82042 17.048 5.21478C17.048 5.60913 17.3677 5.92882 17.7621 5.92882Z" fill="#FFF2CC"/>
</svg>
