<svg width="25" height="25" viewBox="0 0 25 25" fill="none" xmlns="http://www.w3.org/2000/svg">
<g clip-path="url(#clip0_717_925)">
<path d="M5.04187 10.3623H8.38246V20.4125H5.04187V10.3623Z" fill="#FFF2CC"/>
<path d="M6.68975 8.99072H6.71179C7.87719 8.99072 8.60187 8.21869 8.60187 7.25374C8.57983 6.26753 7.87719 5.51733 6.73363 5.51733C5.59027 5.51733 4.84278 6.26753 4.84278 7.25374C4.84278 8.21869 5.5692 8.99072 6.68975 8.99072Z" fill="#FFF2CC"/>
<path d="M13.5713 20.4127V14.7997C13.5713 14.4985 13.5943 14.2 13.6823 13.9853C13.9241 13.3841 14.4729 12.7634 15.3964 12.7634C16.6057 12.7634 17.0886 13.6853 17.0886 15.0357V20.4125H20.43V14.6493C20.43 11.5625 18.7817 10.1265 16.5829 10.1265C14.8078 10.1265 14.0153 11.1034 13.5713 11.7865V11.8194H13.5495C13.5553 11.8086 13.5647 11.7975 13.5713 11.7865V10.3625H10.2294C10.2742 11.3052 10.2294 20.4125 10.2294 20.4125H13.5713V20.4127Z" fill="#FFF2CC"/>
<path d="M23.6057 5.07648C23.4749 4.38116 23.2188 3.74718 22.863 3.23802C22.5071 2.72885 22.064 2.36236 21.5781 2.17522C20.2501 1.44108 7.38416 1.0814 3.65145 2.19575C3.16544 2.38296 2.72232 2.74958 2.36647 3.25889C2.01062 3.76821 1.75453 4.40236 1.62383 5.09783C1.02409 8.86134 0.978754 16.9977 1.63875 20.8458C1.76953 21.5411 2.02567 22.175 2.38151 22.6842C2.73736 23.1934 3.18043 23.5599 3.66637 23.747C6.2966 24.6134 18.8009 24.7349 21.593 23.747C22.079 23.5599 22.522 23.1934 22.8779 22.6842C23.2337 22.175 23.4899 21.5411 23.6206 20.8458C24.26 16.7456 24.3053 9.11344 23.6057 5.07648V5.07648Z" stroke="#FFF2CC" stroke-width="1.2" stroke-linecap="round" stroke-linejoin="round"/>
</g>
<defs>
<clipPath id="clip0_717_925">
<rect width="24" height="24" fill="white" transform="translate(0.636597 0.964844)"/>
</clipPath>
</defs>
</svg>
