<svg xmlns="http://www.w3.org/2000/svg" width="127" height="28" viewBox="0 0 127 28" fill="none">
  <path d="M58.8164 27.8565C57.5564 27.8565 56.3643 27.5779 55.2403 27.0198C54.1153 26.4627 53.1216 25.6967 52.2565 24.7246C51.3913 23.7516 50.7189 22.6306 50.2365 21.3596C49.7551 20.0897 49.5139 18.7278 49.5139 17.275C49.5139 15.3299 49.9218 13.5792 50.7366 12.023C51.5524 10.4667 52.6644 9.23542 54.0725 8.32719C55.4806 7.41993 57.0498 6.96533 58.7791 6.96533C60.3847 6.96533 61.83 7.36093 63.1152 8.15212C64.3994 8.94331 65.3633 10.0518 66.0059 11.4784L65.2646 11.7502C64.6462 10.5054 63.7447 9.52655 62.5592 8.81371C61.3728 8.10086 60.0764 7.74395 58.6674 7.74395C57.1103 7.74395 55.6957 8.16566 54.4236 9.00812C53.1514 9.85154 52.1382 10.9929 51.3848 12.4321C50.6305 13.8713 50.2542 15.4866 50.2542 17.276C50.2542 19.0654 50.637 20.6671 51.4025 22.1586C52.168 23.65 53.1933 24.8436 54.4785 25.7383C55.7627 26.633 57.1708 27.0808 58.7037 27.0808C59.7169 27.0808 60.705 26.8806 61.6689 26.4772C62.6328 26.0758 63.4663 25.5506 64.1703 24.9016C64.8744 24.2536 65.3251 23.5659 65.5235 22.8395L66.2648 23.0726C65.9928 23.9808 65.4741 24.7981 64.7077 25.5235C63.9422 26.2499 63.0463 26.8206 62.0209 27.2355C60.9956 27.6505 59.9265 27.8575 58.8145 27.8575L58.8164 27.8565Z" fill="#5D5D5D"/>
  <path d="M77.112 27.856C75.8362 27.856 74.6348 27.5842 73.5089 27.0387C72.383 26.4941 71.394 25.7358 70.5437 24.7628C69.6925 23.7907 69.0295 22.6755 68.5545 21.4172C68.0786 20.1588 67.8421 18.8298 67.8421 17.4293C67.8421 16.0287 68.0861 14.6611 68.5741 13.4027C69.0621 12.1443 69.7316 11.0291 70.5819 10.0571C71.4322 9.085 72.4212 8.32572 73.5471 7.78117C74.673 7.23663 75.8613 6.96387 77.113 6.96387C78.3646 6.96387 79.552 7.23663 80.6779 7.78117C81.8038 8.32572 82.7919 9.085 83.6431 10.0571C84.4933 11.0301 85.1629 12.1453 85.6509 13.4027C86.1389 14.6611 86.3829 16.0036 86.3829 17.4293C86.3829 18.855 86.1445 20.1598 85.6705 21.4172C85.1946 22.6755 84.5259 23.7907 83.6626 24.7628C82.7993 25.7358 81.8112 26.4941 80.6974 27.0387C79.5836 27.5832 78.3897 27.856 77.1139 27.856H77.112ZM68.5927 17.5076C68.5927 19.2457 68.9736 20.8407 69.7372 22.2925C70.4999 23.7453 71.5262 24.906 72.8151 25.7745C74.104 26.6441 75.5233 27.0783 77.0748 27.0783C78.6263 27.0783 80.0521 26.6373 81.3531 25.7552C82.6541 24.874 83.6924 23.693 84.4682 22.2151C85.243 20.7372 85.6314 19.1287 85.6314 17.3906C85.6314 15.6525 85.243 14.0517 84.4682 12.5864C83.6924 11.121 82.6606 9.94777 81.3717 9.06565C80.0828 8.18451 78.6635 7.74249 77.112 7.74249C75.5605 7.74249 74.172 8.19031 72.871 9.085C71.569 9.97968 70.5307 11.1665 69.7559 12.6444C68.9801 14.1223 68.5927 15.7444 68.5927 17.5076Z" fill="#5D5D5D"/>
  <path d="M88.0728 17.4527C88.0728 15.5898 88.4686 13.8681 89.2602 12.2896C90.0518 10.7111 91.1312 9.43628 92.5001 8.46615C93.8691 7.49602 95.4206 7.01047 97.1528 7.01047C98.885 7.01047 100.518 7.50956 101.9 8.50484C103.282 9.50205 104.362 10.6734 105.14 12.0178V0H105.894V26.3018C105.894 26.5349 105.951 26.7226 106.063 26.8648C106.176 27.0069 106.227 27.0785 106.403 27.0785V27.8552C106.177 27.8552 106.106 27.8301 106.006 27.7778C105.73 27.6492 105.517 27.448 105.366 27.1762C105.215 26.9044 105.139 26.6133 105.139 26.3028V23.2764C104.311 24.6218 103.2 25.7225 101.805 26.5756C100.411 27.4296 98.9735 27.8562 97.4918 27.8562C96.1349 27.8562 94.8786 27.5583 93.7238 26.9634C92.5681 26.3686 91.5698 25.5725 90.7289 24.5753C89.887 23.5801 89.2342 22.4668 88.7694 21.2374C88.3047 20.0081 88.0728 18.7468 88.0728 17.4527ZM105.14 20.9076V13.6486C104.764 12.5614 104.148 11.5787 103.294 10.6985C102.44 9.8193 101.466 9.11323 100.374 8.58222C99.2817 8.05218 98.2079 7.78619 97.1528 7.78619C95.8723 7.78619 94.7231 8.05798 93.7052 8.60156C92.6883 9.14514 91.8147 9.88314 91.0865 10.8146C90.3582 11.746 89.7994 12.7819 89.4102 13.9204C89.02 15.0597 88.8263 16.2369 88.8263 17.4527C88.8263 18.6685 89.046 19.9307 89.4856 21.0827C89.9252 22.2346 90.5463 23.2628 91.3509 24.1691C92.1546 25.0754 93.0775 25.7873 94.1206 26.3047C95.1627 26.8222 96.2867 27.0814 97.4927 27.0814C98.2461 27.0814 99.0563 26.9199 99.9224 26.5959C100.789 26.2728 101.612 25.8192 102.39 25.2369C103.169 24.6546 103.809 23.995 104.312 23.257C104.814 22.519 105.091 21.7365 105.141 20.9086L105.14 20.9076Z" fill="#5D5D5D"/>
  <path d="M117.4 27.856C116.134 27.856 114.937 27.5774 113.807 27.0193C112.677 26.4622 111.685 25.6962 110.83 24.7241C109.974 23.7511 109.303 22.6233 108.819 21.3388C108.336 20.0553 108.094 18.6876 108.094 17.2339C108.094 15.341 108.503 13.6155 109.322 12.0592C110.141 10.5029 111.239 9.26489 112.616 8.34409C113.993 7.42426 115.525 6.96289 117.214 6.96289C118.902 6.96289 120.482 7.43006 121.885 8.36344C123.286 9.29681 124.41 10.5484 125.253 12.1182C126.097 13.6871 126.519 15.4445 126.519 17.3896V17.8181H108.838C108.961 19.5562 109.421 21.125 110.215 22.5256C111.009 23.9261 112.039 25.0356 113.305 25.8519C114.571 26.6692 115.948 27.0774 117.437 27.0774C118.926 27.0774 120.316 26.6818 121.606 25.8906C122.896 25.1004 123.814 24.0819 124.361 22.8361L125.068 23.0305C124.721 23.9387 124.156 24.7618 123.375 25.5008C122.593 26.2397 121.681 26.8172 120.639 27.2321C119.597 27.6471 118.517 27.8541 117.401 27.8541L117.4 27.856ZM108.839 17.0404H125.738C125.639 15.225 125.205 13.6232 124.436 12.2362C123.666 10.8482 122.662 9.75238 121.421 8.94861C120.18 8.14484 118.79 7.74248 117.252 7.74248C115.713 7.74248 114.36 8.14484 113.12 8.94861C111.878 9.75238 110.88 10.855 110.123 12.2556C109.366 13.6561 108.938 15.2511 108.839 17.0404Z" fill="#5D5D5D"/>
  <path d="M9.15633 6.42847H11.3541C11.8123 6.42847 12.3152 6.81342 12.4726 7.26125L14.6919 13.5753L16.9418 7.24674C17.0973 6.80762 17.4075 6.42943 17.8573 6.42943H20.0691L16.722 15.7729L19.7105 23.4169L25.6726 7.16646C25.8355 6.72347 26.2444 6.4304 26.7016 6.4304H29.4116L21.2052 27.2248H19.1974C18.7569 27.2248 18.3592 26.9502 18.1897 26.5284L14.7198 17.9114L11.2228 26.5304C11.0524 26.9511 10.6548 27.2248 10.2152 27.2248H8.17756L0 6.42847H2.69233C3.14307 6.42847 3.54724 6.7167 3.70835 7.15486L9.70113 23.4159L12.6905 15.7719L9.15633 6.42847Z" fill="#5D5D5D"/>
  <path d="M30.9708 6.96387H47.7338V7.07413C47.7338 8.45437 46.6544 9.57538 45.3255 9.57538H33.38C32.051 9.57538 30.9717 8.45437 30.9717 7.07413V6.96387H30.9708Z" fill="#5D5D5D"/>
  <path d="M33.2692 16.104H47.7338V16.3284C47.7338 17.6458 46.7038 18.7155 45.4354 18.7155H30.9708V18.4911C30.9708 17.1738 32.0008 16.104 33.2692 16.104Z" fill="#5D5D5D"/>
  <path d="M33.38 25.2446H45.3256C46.6545 25.2446 47.7338 26.3656 47.7338 27.7459V27.8561H30.9708V27.7459C30.9708 26.3656 32.0502 25.2446 33.3791 25.2446H33.38Z" fill="#5D5D5D"/>
</svg>