<svg width="148" height="20" viewBox="0 0 148 20" fill="none" xmlns="http://www.w3.org/2000/svg">
<g id="Branco Sem Refer&#195;&#170;ncia 1" clip-path="url(#clip0_220_2550)">
<g id="Sem Subt&#195;&#173;tulo">
<g id="Logo Branco">
<g id="Logo Branco_2">
<path id="Vector" d="M115.276 0L106.505 20H103.676L94.8763 0H97.9615L105.163 16.4295L112.42 0H115.276Z" fill="#5D5D5D"/>
<path id="Vector_2" d="M44.9028 13.2864C46.3123 12.7905 47.3986 11.9994 48.1607 10.9141C48.9229 9.82779 49.3039 8.51478 49.3039 6.97217C49.3039 4.80054 48.5611 3.09585 47.0744 1.85809C45.5887 0.619362 43.5502 0 40.9609 0H33.159V20H36.0175V2.48517H40.875C42.6849 2.48517 44.0654 2.87106 45.0176 3.64285C45.9698 4.41464 46.4454 5.52409 46.4454 6.97217C46.4454 8.42024 45.9698 9.53451 45.0176 10.316C44.0654 11.0955 42.6849 11.4852 40.875 11.4852H39.754V13.9154H40.9618C41.2667 13.9154 41.6854 13.8961 42.2179 13.8575L46.5322 20H49.6464L44.9038 13.2864H44.9028Z" fill="#5D5D5D"/>
<path id="Vector_3" d="M16.2018 11.3868C15.5362 10.5388 14.6216 9.95224 13.4591 9.62906C14.2781 9.22869 14.9303 8.64695 15.4156 7.88481C15.9018 7.12267 16.1449 6.21774 16.1449 5.171C16.1449 3.55217 15.5207 2.28643 14.2723 1.37282C13.0249 0.457286 11.2585 0 8.97207 0H0V19.999H9.5432C12.039 19.999 13.9385 19.5331 15.2429 18.6002C16.5491 17.6663 17.2023 16.3321 17.2023 14.5984C17.2023 13.3037 16.8685 12.2339 16.2018 11.3868ZM13.0857 16.8858C12.2676 17.4184 11.0492 17.6846 9.43129 17.6846H2.85852V2.31248H8.71642C10.1828 2.31248 11.3116 2.58454 12.1007 3.12768C12.8908 3.66987 13.2864 4.46481 13.2864 5.51252C13.2864 6.56022 12.8908 7.35613 12.1007 7.89928C11.3116 8.44146 10.1828 8.71256 8.71642 8.71256H6.65863V11.0279H9.43129C12.6873 11.0279 14.3148 12.1422 14.3148 14.3717C14.3148 15.513 13.9057 16.3514 13.0857 16.8858Z" fill="#5D5D5D"/>
<path id="Vector_4" d="M74.3196 0H71.4901L62.4321 20H65.3746L67.5288 15.102L68.5746 12.7143L72.8889 2.91351L77.2042 12.7143H77.2032L78.249 15.102L80.4042 20H83.4036L74.3196 0Z" fill="#5D5D5D"/>
<path id="Vector_5" d="M138.637 0H135.807L126.749 20H129.691L131.846 15.102L132.892 12.7143L137.206 2.91351L141.521 12.7143H141.519L142.52 14.9988H142.521L144.721 20H147.721L138.637 0Z" fill="#5D5D5D"/>
</g>
</g>
</g>
</g>
<defs>
<clipPath id="clip0_220_2550">
<rect width="147.721" height="20" fill="white"/>
</clipPath>
</defs>
</svg>
