                    <svg
                      xmlns="http://www.w3.org/2000/svg"
                      width="151"
                      height="23"
                      viewBox="0 0 151 23"
                      fill="none"
                    >
                      <path
                        d="M1.25897 10.3171C0.310056 10.9092 -0.313453 12.029 0.767447 13.3874C0.767447 13.3874 6.20608 20.1033 6.90923 21.007C7.61466 21.9106 8.40201 22.5 9.67179 22.5C10.9416 22.5 18.8014 22.4663 20.6606 22.4663C22.5197 22.4663 23.4322 22.1801 25.057 21.2146C26.7159 20.2268 37.0015 14.1002 38.6877 13.0955C40.3557 12.102 40.8063 10.2694 39.1451 8.35534C37.4816 6.44413 35.2288 3.90707 33.8771 2.37754C32.5254 0.848004 31.3967 0.5 30.1019 0.5H18.4942C17.3382 0.5 16.7466 0.533678 15.6201 1.22968C14.4937 1.92569 2.44455 9.57335 1.26352 10.3115L1.25897 10.3171Z"
                        fill="#353A42"
                      />
                      <path
                        d="M21.1361 8.49841L29.7446 3.06787H17.295L3.33428 11.8802L2.76538 12.2394L8.96633 19.9376H23.6302L19.5546 14.9196H29.4579L31.2898 11.2347L32.6528 8.49841H21.1361Z"
                        fill="#F5F5F7"
                      />
                      <path
                        d="M74.5825 4.48804H64.058L54.4209 10.5669L57.4497 4.48804H51.6197C48.9094 4.48804 47.3916 5.93618 46.4427 7.84739C45.4801 9.78948 41.0132 18.7365 41.0132 18.7365H50.3499L53.3377 12.7419L58.2006 18.7506H68.6387L63.0112 11.7905L74.5802 4.49084L74.5825 4.48804Z"
                        fill="#353A42"
                      />
                      <path
                        d="M123.565 4.21313H113.042L103.405 10.4098L106.434 4.21313H100.604C97.8937 4.21313 96.3759 5.68934 95.4293 7.63704C94.4667 9.61561 89.9998 18.7367 89.9998 18.7367H99.3365L102.324 12.627L107.187 18.7507H117.625L111.998 11.6587L123.567 4.21875L123.565 4.21313Z"
                        fill="#353A42"
                      />
                      <path
                        d="M89.5422 14.5016L92.241 9.07663H82.5084L89.7834 4.48804H79.2588L66.9775 12.2367L72.2205 18.745H84.6156L81.1703 14.5016H89.5422Z"
                        fill="#353A42"
                      />
                      <path
                        d="M146.71 3.84277C142.181 3.84277 131.076 3.83716 131.076 3.83716C126.832 3.83716 124.017 4.87275 121.325 10.2415C118.633 15.6075 120.502 19.1213 123.353 19.1213H140.675C145.235 19.1213 147.656 16.8676 149.827 12.5597C152.137 7.97672 151.015 3.84558 146.712 3.84558L146.71 3.84277ZM141.041 11.8918C140.213 13.5364 139.291 14.3951 137.55 14.3951H130.683C129.597 14.3951 128.928 13.0733 129.954 11.0246C130.981 8.97863 132.009 8.56608 133.63 8.56608C133.63 8.56608 138.128 8.56608 139.853 8.56608C141.578 8.56608 141.924 10.1433 141.043 11.8918H141.041Z"
                        fill="#353A42"
                      />
                    </svg>