                    <svg
                      xmlns="http://www.w3.org/2000/svg"
                      width="190"
                      height="9"
                      viewBox="0 0 190 9"
                      fill="none"
                    >
                      <g clip-path="url(#clip0_1727_12386)">
                        <path
                          fill-rule="evenodd"
                          clip-rule="evenodd"
                          d="M184.455 3.92329H189.7V5.20241H184.455V8.46304H183.171V2.57764C183.171 1.34288 183.935 0.5 185.199 0.5H189.7V1.94178H185.289C184.647 1.94178 184.455 2.45194 184.455 3.04344V3.92329Z"
                          fill="#353A42"
                        />
                        <path
                          fill-rule="evenodd"
                          clip-rule="evenodd"
                          d="M171.569 3.92329H176.815V5.20241H171.569V8.46304H170.285V2.57764C170.285 1.34288 171.049 0.5 172.314 0.5H176.815V1.94178H172.404C171.762 1.94178 171.569 2.45194 171.569 3.04344V3.92329Z"
                          fill="#353A42"
                        />
                        <path
                          fill-rule="evenodd"
                          clip-rule="evenodd"
                          d="M140.508 0.5H141.792V3.85675H147.095V0.5H148.308V8.46304H147.095V5.10629H141.792V8.46304H140.508V0.5Z"
                          fill="#353A42"
                        />
                        <path
                          fill-rule="evenodd"
                          clip-rule="evenodd"
                          d="M133.131 2.41496V2.58502H131.821C131.654 1.94916 131.089 2.02309 131.089 2.02309H127.199C127.199 2.02309 126.422 1.91958 126.422 2.98428V6.04527C126.422 6.04527 126.364 7.05082 127.173 7.05082H131.115C131.609 7.05082 131.783 6.66634 131.84 6.37799H133.131C133.131 6.59241 133.054 8.46302 131.648 8.46302H126.672C125.176 8.46302 125.189 6.35581 125.189 6.35581V2.41496C125.234 0.426051 127.256 0.499988 127.256 0.499988H131.057C131.057 0.499988 133.079 0.426051 133.131 2.41496Z"
                          fill="#353A42"
                        />
                        <path
                          fill-rule="evenodd"
                          clip-rule="evenodd"
                          d="M114.14 5.23198H112.072C111.142 5.23198 110.243 4.3817 110.243 3.08041C110.243 1.77911 111.109 0.5 112.239 0.5H116.143C117.388 0.5 118.056 1.35767 118.191 2.48152H117.042C117.042 2.48152 117.016 1.89741 116.181 1.90481H112.111C112.111 1.90481 111.475 1.96396 111.475 2.91774C111.475 2.91774 111.437 3.85675 112.13 3.84196H116.361C117.292 3.84196 118.191 4.69224 118.191 6.00092C118.191 7.30961 117.324 8.47042 116.194 8.47042H112.291C111.045 8.47042 110.378 7.61275 110.243 6.48891H111.392C111.392 6.48891 111.418 7.07301 112.252 7.06562H116.323C116.323 7.06562 116.958 7.11737 116.958 6.16359C116.958 6.16359 116.997 5.22458 116.303 5.23937H114.14V5.23198Z"
                          fill="#353A42"
                        />
                        <path
                          fill-rule="evenodd"
                          clip-rule="evenodd"
                          d="M101.35 0.5H102.57V8.46304H101.35V0.5Z"
                          fill="#353A42"
                        />
                        <path
                          fill-rule="evenodd"
                          clip-rule="evenodd"
                          d="M66.7324 8.46302H65.2365C63.7406 8.46302 63.7534 6.35581 63.7534 6.35581V2.41496C63.8048 0.426051 65.8272 0.499988 65.8272 0.499988H69.9169V2.02309H65.7694C65.7694 2.02309 64.9925 1.91958 64.9925 2.98428V3.7754H69.9169V5.195H64.9925V5.89001C64.9925 5.89001 64.9348 6.89555 65.7437 6.89555H69.9169V8.46302H66.7324Z"
                          fill="#353A42"
                        />
                        <path
                          fill-rule="evenodd"
                          clip-rule="evenodd"
                          d="M50.4763 8.46302H48.9804C47.4845 8.46302 47.4973 6.35581 47.4973 6.35581V2.41496C47.5487 0.426051 49.5711 0.499988 49.5711 0.499988H53.3719C53.3719 0.499988 55.3943 0.426051 55.4456 2.41496V2.62938H54.1487C54.0011 1.94176 53.4104 2.02309 53.4104 2.02309H49.5197C49.5197 2.02309 48.7429 1.91958 48.7429 2.98428V6.04527C48.7429 6.04527 48.6851 7.05082 49.494 7.05082H53.4361C54.245 7.05082 54.1872 6.04527 54.1872 6.04527V5.52032H52.3831V4.24121H55.452V6.35581C55.452 6.35581 55.4585 8.46302 53.969 8.46302H50.4827H50.4763Z"
                          fill="#353A42"
                        />
                        <path
                          fill-rule="evenodd"
                          clip-rule="evenodd"
                          d="M0.699951 6.24493H1.91338C1.91338 6.24493 1.94548 7.05084 2.96631 7.05084H5.89395C5.89395 7.05084 6.5745 7.08781 6.5745 5.93439V0.5H7.82004V5.98615C7.82004 5.98615 7.87782 8.45565 5.91963 8.45565H2.89569C1.32914 8.46304 0.725632 7.47228 0.699951 6.24493Z"
                          fill="#353A42"
                        />
                        <path
                          fill-rule="evenodd"
                          clip-rule="evenodd"
                          d="M18.054 8.46302H16.558C15.0621 8.46302 15.075 6.35581 15.075 6.35581V2.41496C15.1263 0.426051 17.1487 0.499988 17.1487 0.499988H20.9495C20.9495 0.499988 22.9719 0.426051 23.0233 2.41496V6.35581C23.0233 6.35581 23.0297 8.46302 21.5402 8.46302H18.054ZM19.261 7.05082H21.0201C21.8291 7.05082 21.7713 6.04527 21.7713 6.04527V2.86598C21.7713 1.80128 20.9944 1.90479 20.9944 1.90479H18.9656H19.139H17.1102C17.1102 1.90479 16.3333 1.80128 16.3333 2.86598V6.04527C16.3333 6.04527 16.2755 7.05082 17.0845 7.05082H19.261Z"
                          fill="#353A42"
                        />
                        <path
                          fill-rule="evenodd"
                          clip-rule="evenodd"
                          d="M31.3953 0.5H37.0002C39.305 0.5 40.1268 4.20425 37.4432 5.28374L39.6004 8.46304H37.8541L35.7675 5.28374H32.6601V8.46304H31.3953V0.5ZM32.6601 1.89002V3.93069H36.8525C37.9696 3.93069 38.0852 1.89002 36.8525 1.89002H32.6601Z"
                          fill="#353A42"
                        />
                        <path
                          fill-rule="evenodd"
                          clip-rule="evenodd"
                          d="M85.7427 4.5V0.5H90.9945C93.4213 0.5 93.9093 2.69593 92.8628 4.5C93.9093 6.31146 93.4149 8.5 90.9945 8.5H85.7427V4.5ZM86.9625 5.18022V7.15434H90.988C92.362 7.15434 92.4005 5.18022 90.988 5.18022H86.9625ZM86.9625 1.85305V3.82717H90.988C92.362 3.82717 92.4005 1.85305 90.988 1.85305H86.9625Z"
                          fill="#353A42"
                        />
                        <path
                          fill-rule="evenodd"
                          clip-rule="evenodd"
                          d="M157.9 8.46302H156.404C154.908 8.46302 154.921 6.35581 154.921 6.35581V2.41496C154.966 0.426051 156.995 0.499988 156.995 0.499988H160.796C160.796 0.499988 162.818 0.426051 162.869 2.41496V6.35581C162.869 6.35581 162.876 8.46302 161.386 8.46302H157.9ZM159.101 7.05082H160.86C161.669 7.05082 161.611 6.04527 161.611 6.04527V2.86598C161.611 1.80128 160.834 1.90479 160.834 1.90479H158.805H158.979H156.95C156.95 1.90479 156.173 1.80128 156.173 2.86598V6.04527C156.173 6.04527 156.115 7.05082 156.924 7.05082H159.101Z"
                          fill="#353A42"
                        />
                      </g>
                      <defs>
                        <clipPath id="clip0_1727_12386">
                          <rect
                            width="189"
                            height="8"
                            fill="white"
                            transform="translate(0.699951 0.5)"
                          />
                        </clipPath>
                      </defs>
                    </svg>