                    <svg
                      width="58"
                      height="14"
                      viewBox="0 0 58 14"
                      fill="none"
                      xmlns="http://www.w3.org/2000/svg"
                    >
                      <path
                        d="M0.330078 13.9943V0.196289H2.08919V13.9943H0.330078Z"
                        fill="#353A42"
                      />
                      <path
                        d="M9.5791 13.9943V0.196289H11.3369V13.9943H9.5791Z"
                        fill="#353A42"
                      />
                      <path
                        d="M18.8242 13.9943V0.196289H20.5834V13.9943H18.8242Z"
                        fill="#353A42"
                      />
                      <path
                        d="M28.0723 13.9943V0.196289H29.8301V13.9943H28.0723Z"
                        fill="#353A42"
                      />
                      <path
                        d="M37.3203 13.9943V0.196289H39.0792V13.9943H37.3203Z"
                        fill="#353A42"
                      />
                      <path
                        d="M46.5674 13.9943V0.196289H48.3253V13.9943H46.5674Z"
                        fill="#353A42"
                      />
                      <path
                        d="M55.8135 13.9943V0.196289H57.5727V13.9943H55.8135Z"
                        fill="#353A42"
                      />
                      <path
                        d="M8.80973 13.9943L2.08887 0.196289H2.85564L9.57912 13.9943H8.80973Z"
                        fill="#353A42"
                      />
                      <path
                        d="M45.8 13.9943L39.0791 0.196289H39.8459L46.568 13.9995L45.8 13.9943Z"
                        fill="#353A42"
                      />
                    </svg>