<svg xmlns="http://www.w3.org/2000/svg" width="129" height="64" viewBox="0 0 129 64" fill="none">
<path fill-rule="evenodd" clip-rule="evenodd" d="M116.836 9.98026C103.644 3.83951 85.0289 0 64.4449 0H64.4408C43.8609 0 25.2458 3.83951 12.0537 9.98026H11.3235C5.38787 9.98026 0.535156 13.9428 0.535156 18.7873V45.2127C0.535156 50.0572 5.38787 54.0197 11.3235 54.0197H12.0578C25.2499 60.1605 43.865 64 64.4449 64C85.0248 64 103.644 60.1605 116.832 54.0197H117.677C123.613 54.0197 128.465 50.0572 128.465 45.2127V18.7873C128.465 13.9428 123.609 9.98026 117.677 9.98026H116.836ZM86.6123 40.6515H84.4054H84.4013C83.8229 40.6187 83.6629 40.594 83.6629 39.4291V22.3071C83.6629 21.3883 83.7081 21.0847 84.4013 21.0847H86.8543C87.5928 21.0158 87.5928 21.4365 87.5927 22.2793V22.3071V39.4291C87.5911 39.5276 87.5907 39.6187 87.5904 39.7028C87.5873 40.487 87.5866 40.6663 86.6123 40.6515ZM79.8663 22.4586C79.4971 22.3642 79.0705 22.2822 78.5741 22.2207C78.0778 22.1591 77.5076 22.1222 76.8636 22.1222C73.3358 22.1222 69.0574 24.7844 69.0574 31.4626C69.0574 32.9024 69.2666 34.2191 69.6522 35.38C70.0378 36.5409 70.6039 37.55 71.3176 38.3745C72.0314 39.2031 72.8928 39.8471 73.8732 40.2901C74.8536 40.7291 75.9529 40.9629 77.1384 40.9629C77.6922 40.9629 78.1967 40.9383 78.6521 40.8932C79.1074 40.8521 79.5176 40.7906 79.8786 40.7209C81.0599 40.5035 81.4989 40.2614 81.4455 39.3508L81.4086 38.3991L81.4017 38.2297L81.3959 38.0792C81.3403 36.6398 81.3387 36.6005 80.1534 37.0454C79.8581 37.1562 79.5135 37.2587 79.1197 37.3326C78.7259 37.4105 78.2788 37.4597 77.7824 37.4597C75.1981 37.4597 73.2333 35.0601 73.2333 31.5118C73.2333 30.5929 73.3399 29.7561 73.5491 29.0219C73.7542 28.2876 74.0578 27.6518 74.4475 27.1308C74.8372 26.6099 75.3089 26.2079 75.8586 25.9289C76.4082 25.6541 77.0276 25.5064 77.7127 25.5064C78.1803 25.5064 78.5946 25.5474 78.9638 25.6172C79.333 25.6869 79.6571 25.7812 79.9442 25.892C81.2857 26.365 81.2896 26.281 81.3484 25.0095C81.3518 24.9358 81.3554 24.8581 81.3594 24.7762C81.3615 24.6286 81.3686 24.4809 81.3758 24.3332C81.383 24.1855 81.3902 24.0379 81.3922 23.8902C81.4863 22.8511 81.0586 22.7449 80.1345 22.5157L80.0137 22.4856C79.9684 22.4743 79.9219 22.4626 79.8745 22.4504L79.8663 22.4586ZM46.1405 29.9533H45.0739L45.0698 29.9492C43.9979 29.9492 43.998 29.8915 43.9991 28.6311L43.9992 28.5011C43.9992 27.1147 44.0361 27.0531 45.1191 27.0531H46.2389V25.6584L46.2389 25.5588C46.2381 24.4395 46.2379 24.2149 47.1947 23.9438C47.3546 23.8905 47.5135 23.8372 47.6724 23.7839L47.675 23.783C47.8331 23.7299 47.9913 23.6769 48.1505 23.6238L48.2888 23.5793C49.2015 23.2857 49.6467 23.1425 49.8634 23.3046C50.0698 23.4591 50.0687 23.8909 50.0666 24.7339C50.0663 24.824 50.0661 24.9188 50.0661 25.0185V27.0531H51.3336L51.4556 27.0531C52.0571 27.0525 52.347 27.0522 52.4851 27.1969C52.6135 27.3315 52.6103 27.5916 52.6043 28.0939C52.6028 28.215 52.6012 28.3502 52.6012 28.5011C52.6012 28.6521 52.6028 28.7873 52.6043 28.9084C52.6103 29.4107 52.6135 29.6708 52.4851 29.8054C52.347 29.9501 52.0571 29.9498 51.4556 29.9492L51.3336 29.9492H50.0661V36.1843C50.0661 37.5133 50.6363 37.8784 51.3829 37.8784C51.5182 37.8784 51.6454 37.8702 51.7603 37.8579C51.903 37.841 52.0234 37.8209 52.1247 37.804C52.3411 37.7679 52.4713 37.7462 52.55 37.7999C52.6687 37.881 52.6701 38.1341 52.6733 38.7695L52.6741 38.9047L52.675 39.0393V39.7653C52.675 40.3806 52.4945 40.6022 51.6331 40.7334C51.3952 40.7703 51.1285 40.7991 50.8455 40.8237C50.5583 40.8483 50.2548 40.8606 49.9389 40.8606C49.4303 40.8606 48.938 40.795 48.4868 40.6514C48.0356 40.5078 47.6254 40.2822 47.2767 39.9663C46.928 39.6505 46.645 39.2403 46.4481 38.7234C46.2512 38.2066 46.1405 37.5831 46.1405 36.8406V29.9533ZM40.8289 40.6511H42.7938C43.7812 40.6243 43.779 39.964 43.7747 38.694L43.7747 38.6922C43.7745 38.6068 43.7742 38.5187 43.7742 38.4278V31.7538C43.7742 29.3787 43.0522 27.4057 40.9561 26.9462C39.8608 26.7083 38.5236 26.8355 37.5965 27.5287C37.4741 27.6208 37.3174 27.8096 37.1541 28.0062L37.1541 28.0062C36.7208 28.5282 36.2417 29.1052 36.2387 28.0743C36.1927 27.0896 36.179 27.0891 35.4419 27.0632L35.4416 27.0632L35.3645 27.0605L35.2747 27.057H33.4863C32.7192 27.0857 32.633 27.176 32.6699 28.2548C32.7546 30.7823 32.7325 33.3214 32.7105 35.8575C32.7005 37.0093 32.6905 38.1606 32.6905 39.3098L32.6916 39.3216C32.8053 40.5491 32.8122 40.6225 33.6708 40.6553H35.6357C36.6186 40.6277 36.618 40.1819 36.6163 38.9205L36.6161 38.7519V33.0378C36.6161 31.2903 37.0632 30.1417 38.3308 30.1417C39.5121 30.1417 39.8485 31.2042 39.8485 32.283V38.5673V38.619C39.8484 40.0069 39.8483 40.6594 40.8289 40.6594V40.6511ZM16.1244 22.311C16.4443 22.3643 16.7561 22.434 17.0843 22.5079L17.0925 22.5038L17.1519 22.5199C17.5662 22.6316 18.1206 22.7811 18.0893 23.5908C18.0811 23.7323 18.0739 23.8739 18.0667 24.0154C18.0595 24.1569 18.0523 24.2984 18.0441 24.4399C17.954 26.0017 17.9399 25.997 17.05 25.7024C16.846 25.6349 16.596 25.5522 16.2885 25.4695C15.9849 25.3875 15.6855 25.3137 15.386 25.2685C15.0907 25.2234 14.7994 25.1947 14.5246 25.1947C14.1923 25.1947 13.8847 25.2316 13.6057 25.3137C13.3268 25.3957 13.0766 25.5147 12.8715 25.6788C12.6664 25.8428 12.5023 26.0479 12.3874 26.2982C12.2726 26.5484 12.211 26.8396 12.211 27.1801C12.211 28.5628 13.4004 29.101 14.7868 29.7283C16.7237 30.6046 19.045 31.655 19.045 35.4252C19.045 38.8709 16.432 40.9629 12.9781 40.9629C12.449 40.9629 11.9403 40.9301 11.4604 40.8768C10.9804 40.8235 10.5333 40.7496 10.1272 40.6717C9.7211 40.5938 9.36011 40.5035 9.05246 40.4215C8.37973 40.241 8.30179 40.0359 8.35922 39.318C8.37973 39.0227 8.40024 38.7273 8.41665 38.432C8.54072 36.7351 8.60311 36.7588 9.81382 37.2179L9.81422 37.218C9.96438 37.275 10.1322 37.3386 10.32 37.4065C10.6235 37.5172 10.9394 37.6116 11.2717 37.6772C11.6039 37.7429 11.9567 37.7839 12.3341 37.7839C12.654 37.7839 12.974 37.7387 13.2735 37.6526C13.5729 37.5624 13.8518 37.4311 14.0857 37.2547C14.3236 37.0783 14.5205 36.8527 14.6558 36.582C14.7912 36.3112 14.8692 35.9913 14.8692 35.618C14.8692 34.1236 13.64 33.5729 12.2242 32.9385C10.3017 32.0771 8.03516 31.0616 8.03516 27.3196C8.03516 26.7699 8.23206 22.1264 14.0487 22.1264C14.4466 22.1264 14.8076 22.1428 15.1481 22.1756C15.4886 22.2084 15.8085 22.2535 16.1244 22.311ZM110.101 27.9393V28.4685V28.9976V29.5268C110.101 29.5856 110.1 29.6444 110.1 29.7032C110.098 29.8208 110.096 29.9384 110.101 30.056C110.119 30.6637 109.57 30.5004 108.955 30.3175C108.586 30.2079 108.194 30.0913 107.886 30.1298C106.619 30.1298 106.172 31.2784 106.172 33.0258V38.74L106.172 38.9086C106.174 40.17 106.174 40.6158 105.191 40.6433H103.226C102.365 40.6146 102.357 40.5408 102.246 39.2978C102.246 38.1486 102.256 36.9977 102.266 35.8463C102.288 33.3111 102.31 30.7731 102.226 28.2428C102.189 27.164 102.275 27.0738 103.042 27.045H104.83L104.925 27.0487L104.997 27.0513C105.735 27.0771 105.748 27.0776 105.794 28.0624C105.794 29.0963 106.275 28.5178 106.709 27.9949C106.873 27.7979 107.03 27.6088 107.152 27.5168C107.255 27.4388 107.361 27.3732 107.472 27.3076C107.583 27.2461 107.698 27.1886 107.817 27.1394C107.936 27.0902 108.059 27.0451 108.182 27.0081C108.305 26.9712 108.432 26.9384 108.559 26.9138C108.686 26.8892 108.817 26.8687 108.945 26.8523C109.042 26.8401 109.139 26.8347 109.234 26.8294C109.268 26.8275 109.301 26.8257 109.334 26.8235C110.124 26.7802 110.121 26.9559 110.109 27.6214C110.107 27.7125 110.106 27.8127 110.106 27.9229L110.101 27.9393ZM27.0862 35.9791C27.1395 35.6591 27.1723 35.2981 27.1723 34.8838H27.1641V34.7854C27.1641 33.9469 26.8453 34.001 26.3061 34.0926L26.306 34.0926L26.3059 34.0926L26.3058 34.0926C26.1751 34.1148 26.0314 34.1392 25.8761 34.1536C25.6505 34.1783 25.4249 34.2111 25.2034 34.2562C24.986 34.3054 24.7685 34.3629 24.5675 34.4408C24.3624 34.5187 24.1738 34.6172 24.0015 34.732C23.8292 34.8469 23.6774 34.9864 23.5502 35.1504C23.4231 35.3145 23.3205 35.5032 23.2508 35.7247C23.1811 35.9462 23.1441 36.1965 23.1441 36.4795C23.1441 36.701 23.1688 36.8979 23.2057 37.0661C23.2426 37.2343 23.3 37.382 23.3657 37.505C23.4313 37.6322 23.5092 37.7347 23.5954 37.8209C23.6815 37.907 23.7759 37.9767 23.8702 38.0342C23.9687 38.0875 24.0671 38.1285 24.1614 38.1613C24.2558 38.1901 24.3501 38.2147 24.4363 38.227L24.4506 38.229C24.5315 38.2406 24.6081 38.2516 24.6701 38.2516H24.8342C24.8793 38.2516 24.949 38.2516 25.0352 38.2434C25.1213 38.2393 25.228 38.2229 25.3469 38.1942C25.4659 38.1654 25.5931 38.1244 25.7284 38.0629C25.8597 38.0014 25.9992 37.9193 26.1345 37.8127C26.2699 37.706 26.4012 37.5706 26.5242 37.4066C26.6473 37.2384 26.7621 37.0415 26.8565 36.8077C26.9508 36.5697 27.0329 36.299 27.0862 35.9791ZM23.9974 29.6127C23.7307 29.6496 23.4559 29.707 23.1647 29.7973L23.1688 29.8014C22.7314 29.9346 22.3863 30.0852 22.1134 30.2043C21.319 30.5511 21.1367 30.6306 21.0726 29.2353C21.0644 29.1082 21.0572 28.981 21.0501 28.8539C21.0429 28.7267 21.0357 28.5995 21.0275 28.4723C20.9894 27.8062 21.1845 27.7229 21.7339 27.4882L21.7343 27.488C21.7768 27.4698 21.8215 27.4507 21.8684 27.4304C22.1966 27.3361 22.5534 27.2376 22.9226 27.1515C23.2918 27.0653 23.6733 26.9874 24.0507 26.9341C24.4281 26.8807 24.8055 26.8479 25.1582 26.8479C26.2945 26.8479 27.2134 26.971 27.9517 27.2048C28.6901 27.4386 29.248 27.7791 29.6623 28.218C30.0766 28.6528 30.3514 29.1861 30.5196 29.7973C30.6878 30.4085 30.7534 31.0976 30.7534 31.8565V36.8159C30.7534 37.083 30.7546 37.3315 30.7557 37.5632C30.7566 37.7654 30.7575 37.9548 30.7575 38.1326C30.7616 38.5141 30.7657 38.8464 30.7739 39.1417C30.8101 40.6479 30.7676 40.6479 29.1678 40.6472L29.0634 40.6472H28.1691C27.2829 40.6472 27.2698 40.4174 27.2428 39.9473C27.2386 39.8735 27.234 39.7936 27.2257 39.7078C27.0831 39.1708 26.8461 39.3733 26.4207 39.7368C26.0629 40.0425 25.5718 40.462 24.8916 40.6513C24.4814 40.7661 24.0425 40.8605 23.5749 40.8605C21.1629 40.8605 19.5713 39.2115 19.5713 36.7338C19.5713 32.1929 24.6168 32.1683 25.9828 32.1683C26.1165 32.1683 26.2475 32.1792 26.3705 32.1895C26.8814 32.2323 27.2554 32.2637 27.1231 31.4504C27.0903 31.2371 27.037 31.0484 26.9754 30.8802C26.7293 30.2198 26.2904 29.8875 25.8556 29.7234C25.4208 29.5594 24.9942 29.5594 24.7645 29.5594C24.5142 29.5594 24.2599 29.5758 23.9974 29.6127ZM61.0612 34.8838C61.0612 35.2981 61.0284 35.6591 60.9751 35.9791C60.9218 36.299 60.8397 36.5697 60.7454 36.8077C60.651 37.0415 60.5362 37.2384 60.4131 37.4066C60.2901 37.5706 60.1588 37.706 60.0234 37.8127C59.8881 37.9193 59.7486 38.0014 59.6173 38.0629C59.482 38.1244 59.3548 38.1654 59.2358 38.1942C59.1169 38.2229 59.0102 38.2393 58.9241 38.2434C58.8379 38.2516 58.7682 38.2516 58.7231 38.2516H58.559C58.4959 38.2516 58.4262 38.2415 58.3497 38.2305H58.3497L58.3252 38.227C58.239 38.2147 58.1447 38.1901 58.0503 38.1613C57.956 38.1285 57.8575 38.0875 57.7591 38.0342C57.6647 37.9767 57.5704 37.907 57.4843 37.8209C57.3981 37.7347 57.3202 37.6322 57.2545 37.505C57.1889 37.382 57.1315 37.2343 57.0946 37.0661C57.0576 36.8979 57.0371 36.701 57.0371 36.4795C57.0371 36.1965 57.0741 35.9462 57.1438 35.7247C57.2135 35.5032 57.3161 35.3145 57.4432 35.1504C57.5704 34.9864 57.7222 34.8469 57.8945 34.732C58.0667 34.6172 58.2554 34.5187 58.4605 34.4408C58.6615 34.3629 58.8789 34.3054 59.1005 34.2562C59.322 34.2111 59.5476 34.1783 59.7732 34.1536C59.9282 34.1393 60.0719 34.1149 60.2028 34.0927L60.2029 34.0927C60.7436 34.0011 61.0653 33.9465 61.0653 34.7854V34.8838H61.0612ZM57.0535 29.7973C57.3448 29.707 57.6196 29.6496 57.8863 29.6127C58.1488 29.5758 58.4031 29.5594 58.6533 29.5594C58.8831 29.5594 59.3097 29.5594 59.7445 29.7234C60.1793 29.8875 60.6182 30.2198 60.8643 30.8802C60.9259 31.0484 60.9792 31.2371 61.012 31.4504C61.1442 32.2637 60.7703 32.2323 60.2594 32.1895C60.1364 32.1792 60.0054 32.1683 59.8716 32.1683C58.5057 32.1683 53.4602 32.1929 53.4602 36.7338C53.4602 39.2115 55.0518 40.8605 57.4637 40.8605C57.9314 40.8605 58.3703 40.7661 58.7805 40.6513C59.4599 40.4622 59.9506 40.0434 60.3087 39.7379C60.7353 39.3737 60.9737 39.1703 61.1187 39.7078C61.127 39.7936 61.1316 39.8734 61.1358 39.9473V39.9473C61.1628 40.4174 61.1759 40.6472 62.0621 40.6472H62.9564L63.0608 40.6472C64.6606 40.6479 64.7031 40.6479 64.6669 39.1417C64.6587 38.8464 64.6546 38.5141 64.6505 38.1326C64.6505 37.9548 64.6496 37.7654 64.6487 37.5632C64.6476 37.3315 64.6464 37.083 64.6464 36.8159V31.8565C64.6464 31.0976 64.5808 30.4085 64.4126 29.7973C64.2444 29.1861 63.9696 28.6528 63.5553 28.218C63.141 27.7791 62.5831 27.4386 61.8447 27.2048C61.1064 26.971 60.1875 26.8479 59.0512 26.8479C58.6985 26.8479 58.3211 26.8807 57.9437 26.9341C57.5663 26.9874 57.1848 27.0653 56.8156 27.1515C56.4464 27.2376 56.0896 27.3361 55.7614 27.4304C55.7144 27.4508 55.6696 27.4699 55.6269 27.4882C55.0775 27.7229 54.8824 27.8062 54.9205 28.4723C54.9287 28.5996 54.9359 28.7268 54.943 28.854C54.9502 28.9811 54.9574 29.1082 54.9656 29.2353C55.0297 30.6298 55.2095 30.5511 56.0015 30.205C56.2742 30.0858 56.6195 29.9348 57.0576 29.8014L57.0535 29.7973ZM96.7403 35.9791C96.7936 35.6591 96.8264 35.2981 96.8264 34.8838V34.7854C96.8264 33.9465 96.5047 34.001 95.964 34.0927C95.8331 34.1149 95.6894 34.1393 95.5343 34.1536C95.3087 34.1783 95.0831 34.2111 94.8616 34.2562C94.6442 34.3054 94.4268 34.3629 94.2258 34.4408C94.0207 34.5187 93.832 34.6172 93.6597 34.732C93.4874 34.8469 93.3356 34.9864 93.2085 35.1504C93.0813 35.3145 92.9787 35.5032 92.909 35.7247C92.8352 35.9462 92.7982 36.1965 92.7982 36.4795C92.7982 36.701 92.8229 36.8979 92.8598 37.0661C92.8967 37.2343 92.9541 37.382 93.0198 37.505C93.0854 37.6322 93.1633 37.7347 93.2495 37.8209C93.3356 37.907 93.43 37.9767 93.5243 38.0342C93.6227 38.0875 93.7171 38.1285 93.8156 38.1613C93.9099 38.1901 94.0042 38.2147 94.0904 38.227L94.1149 38.2305C94.1914 38.2415 94.2612 38.2516 94.3242 38.2516H94.4883C94.5334 38.2516 94.6031 38.2516 94.6893 38.2434C94.7754 38.2393 94.8821 38.2229 95.001 38.1942C95.12 38.1654 95.2472 38.1244 95.3825 38.0629C95.5138 38.0014 95.6533 37.9193 95.7886 37.8127C95.924 37.706 96.0553 37.5706 96.1783 37.4066C96.3014 37.2384 96.4163 37.0415 96.5106 36.8077C96.6049 36.5697 96.687 36.299 96.7403 35.9791ZM93.6474 29.6127C93.3848 29.6496 93.11 29.707 92.8188 29.7973V29.8014C92.3806 29.9348 92.0353 30.0858 91.7626 30.205C90.9706 30.5511 90.7908 30.6298 90.7267 29.2353C90.7185 29.108 90.7113 28.9807 90.7041 28.8535C90.697 28.7264 90.6898 28.5994 90.6816 28.4723C90.6435 27.8062 90.8386 27.7229 91.388 27.4882C91.4307 27.4699 91.4755 27.4508 91.5225 27.4304C91.8507 27.3361 92.2076 27.2376 92.5767 27.1515C92.9459 27.0653 93.3274 26.9874 93.7048 26.9341C94.0822 26.8807 94.4596 26.8479 94.8123 26.8479C95.9486 26.8479 96.8675 26.971 97.6058 27.2048C98.3442 27.4386 98.9021 27.7791 99.3164 28.218C99.7307 28.6528 100.006 29.1861 100.174 29.7973C100.342 30.4085 100.408 31.0976 100.408 31.8565V36.8159C100.408 37.083 100.409 37.3315 100.41 37.5632L100.41 37.5679C100.411 37.7684 100.412 37.9562 100.412 38.1326C100.416 38.5141 100.42 38.8464 100.428 39.1417C100.464 40.6479 100.422 40.6479 98.8219 40.6472L98.7175 40.6472H97.8232C96.937 40.6472 96.9239 40.4174 96.8969 39.9473C96.8927 39.8735 96.8881 39.7936 96.8798 39.7078C96.7348 39.1703 96.4965 39.3737 96.0698 39.7379C95.7117 40.0434 95.2211 40.4622 94.5416 40.6513C94.1314 40.7661 93.6925 40.8605 93.2249 40.8605C90.8129 40.8605 89.2213 39.2115 89.2213 36.7338C89.2213 32.1929 94.2668 32.1683 95.6328 32.1683C95.7665 32.1683 95.8975 32.1792 96.0205 32.1895C96.5314 32.2323 96.9054 32.2637 96.7731 31.4504C96.7403 31.2371 96.687 31.0484 96.6255 30.8802C96.3793 30.2198 95.9404 29.8875 95.5056 29.7234C95.0708 29.5594 94.6401 29.5594 94.4145 29.5594C94.1642 29.5594 93.9099 29.5758 93.6474 29.6127ZM117.908 34.8838C117.908 35.2981 117.876 35.6591 117.822 35.9791C117.769 36.299 117.687 36.5697 117.592 36.8077C117.498 37.0415 117.383 37.2384 117.26 37.4066C117.137 37.5706 117.006 37.706 116.87 37.8127C116.735 37.9193 116.596 38.0014 116.464 38.0629C116.329 38.1244 116.202 38.1654 116.083 38.1942C115.964 38.2229 115.857 38.2393 115.771 38.2434C115.685 38.2516 115.615 38.2516 115.57 38.2516H115.406C115.343 38.2516 115.273 38.2415 115.197 38.2305L115.172 38.227C115.086 38.2147 114.992 38.1901 114.897 38.1613C114.799 38.1285 114.705 38.0875 114.606 38.0342C114.512 37.9767 114.417 37.907 114.331 37.8209C114.245 37.7347 114.167 37.6322 114.102 37.505C114.036 37.382 113.979 37.2343 113.942 37.0661C113.905 36.8979 113.88 36.701 113.88 36.4795C113.88 36.1965 113.917 35.9462 113.991 35.7247C114.061 35.5032 114.163 35.3145 114.29 35.1504C114.417 34.9864 114.569 34.8469 114.742 34.732C114.914 34.6172 115.103 34.5187 115.308 34.4408C115.509 34.3629 115.726 34.3054 115.943 34.2562C116.165 34.2111 116.391 34.1783 116.616 34.1536C116.771 34.1393 116.915 34.1149 117.046 34.0927L117.046 34.0927C117.587 34.0011 117.908 33.9465 117.908 34.7854V34.8838ZM113.897 29.7973C114.188 29.707 114.463 29.6496 114.725 29.6127C114.988 29.5758 115.242 29.5594 115.492 29.5594C115.722 29.5594 116.149 29.5594 116.583 29.7234C117.018 29.8875 117.457 30.2198 117.703 30.8802C117.765 31.0484 117.818 31.2371 117.851 31.4504C117.983 32.2637 117.609 32.2323 117.098 32.1895C116.975 32.1792 116.844 32.1683 116.711 32.1683C115.345 32.1683 110.299 32.1929 110.299 36.7338C110.299 39.2115 111.891 40.8605 114.303 40.8605C114.77 40.8605 115.209 40.7661 115.619 40.6513C116.299 40.4622 116.79 40.0434 117.148 39.7379C117.574 39.3737 117.813 39.1703 117.958 39.7078C117.966 39.7934 117.97 39.873 117.975 39.9467V39.9468L117.975 39.9471L117.975 39.9473C118.002 40.4174 118.015 40.6472 118.901 40.6472H119.795L119.9 40.6472C121.499 40.6479 121.542 40.6479 121.506 39.1417C121.498 38.8464 121.493 38.5141 121.489 38.1326C121.489 37.9548 121.489 37.7654 121.488 37.5632C121.486 37.3315 121.485 37.083 121.485 36.8159V31.8565C121.485 31.0976 121.42 30.4085 121.251 29.7973C121.083 29.1861 120.808 28.6528 120.394 28.218C119.98 27.7791 119.422 27.4386 118.684 27.2048C117.945 26.971 117.026 26.8479 115.89 26.8479C115.537 26.8479 115.16 26.8807 114.783 26.9341C114.405 26.9874 114.024 27.0653 113.655 27.1515C113.285 27.2376 112.928 27.3361 112.6 27.4304C112.553 27.4507 112.509 27.4698 112.466 27.488L112.466 27.4882C111.916 27.7229 111.721 27.8062 111.759 28.4723C111.768 28.5984 111.775 28.7245 111.782 28.8506L111.782 28.8535C111.789 28.9807 111.796 29.108 111.804 29.2353C111.869 30.6306 112.051 30.5511 112.845 30.2043C113.118 30.0852 113.463 29.9346 113.901 29.8014L113.897 29.7973ZM71.119 16.0471C71.119 12.2336 68.1554 9.12109 64.5229 9.11875C60.8904 9.12109 57.9268 12.2336 57.9268 16.0471C57.9268 16.687 58.0089 17.3023 58.1647 17.8889L59.5676 14.9477L61.1387 11.6456L62.7098 14.9477L64.2809 18.2499H61.7212V20.4527H60.548V18.2499H58.2673C59.1451 20.99 61.6228 22.9754 64.5229 22.9754C67.423 22.9754 69.9007 20.99 70.7785 18.2499H68.4978V20.4527H67.3246V18.2499H64.7649L66.336 14.9477L67.9071 11.6456L69.4782 14.9477L70.8811 17.8889C71.0369 17.3023 71.119 16.6829 71.119 16.0471ZM63.0715 51.5133H64.6836C64.6631 51.1933 64.5811 50.9554 64.4375 50.7954C64.2939 50.6355 64.1093 50.5575 63.8755 50.5575C63.6417 50.5575 63.4694 50.6396 63.33 50.7995C63.1864 50.9595 63.1003 51.1974 63.0715 51.5133ZM64.8108 52.0466H63.0674C63.0674 52.2599 63.1126 52.4486 63.1905 52.6085C63.2684 52.7726 63.3751 52.8916 63.5064 52.9736C63.6376 53.0557 63.7853 53.0967 63.9412 53.0967C64.0478 53.0967 64.1463 53.0844 64.2324 53.0557C64.3186 53.0311 64.4047 52.99 64.4867 52.9326C64.5688 52.8752 64.6467 52.8178 64.7165 52.7521C64.7862 52.6865 64.8764 52.6003 64.9872 52.4896C65.0323 52.4486 65.0979 52.4281 65.1841 52.4281C65.2743 52.4281 65.3482 52.4568 65.4056 52.506C65.463 52.5593 65.4917 52.6332 65.4917 52.7275C65.4917 52.8095 65.4589 52.9121 65.3974 53.0229C65.3359 53.1336 65.2374 53.2444 65.1102 53.3469C64.9831 53.4495 64.8231 53.5356 64.6303 53.6053C64.4375 53.6751 64.216 53.7079 63.9658 53.7079C63.3915 53.7079 62.9485 53.5356 62.6285 53.1951C62.3086 52.8506 62.1527 52.387 62.1527 51.8004C62.1527 51.5256 62.1937 51.2672 62.2716 51.0293C62.3496 50.7913 62.4644 50.5903 62.6121 50.4222C62.7639 50.254 62.9485 50.1227 63.17 50.0325C63.3915 49.9422 63.6335 49.8971 63.9002 49.8971C64.2488 49.8971 64.5483 49.975 64.7944 50.1268C65.0446 50.2827 65.2292 50.4796 65.3564 50.7257C65.4794 50.9718 65.541 51.218 65.541 51.4723C65.541 51.7061 65.4753 51.862 65.3482 51.9317C65.221 52.0014 65.0364 52.0343 64.8067 52.0343L64.8108 52.0466ZM58.8341 51.8087C58.8341 52.063 58.871 52.2804 58.9449 52.4568C59.0187 52.6332 59.1213 52.7685 59.2525 52.8588C59.3838 52.949 59.5274 52.9941 59.6792 52.9941C59.8309 52.9941 59.9786 52.9531 60.1099 52.867C60.2411 52.7808 60.3437 52.6496 60.4216 52.4732C60.4996 52.2968 60.5365 52.0753 60.5365 51.8087C60.5365 51.5625 60.4996 51.3451 60.4216 51.1646C60.3437 50.9841 60.2411 50.8488 60.1099 50.7544C59.9786 50.6601 59.835 50.6109 59.6792 50.6109C59.5151 50.6109 59.3674 50.6601 59.2402 50.7544C59.1131 50.8529 59.0146 50.9923 58.9408 51.1728C58.871 51.3533 58.8341 51.5666 58.8341 51.8045V51.8087ZM60.5857 53.1828V53.0926C60.4667 53.2362 60.3478 53.3551 60.2329 53.4454C60.1181 53.5356 59.9909 53.6053 59.8555 53.6505C59.7202 53.6956 59.5725 53.7202 59.4084 53.7202C59.1951 53.7202 58.9982 53.671 58.8177 53.5766C58.6372 53.4823 58.4773 53.3469 58.346 53.1705C58.2147 52.9941 58.1122 52.789 58.0424 52.5511C57.9727 52.3132 57.9399 52.0548 57.9399 51.7799C57.9399 51.1933 58.0753 50.738 58.346 50.414C58.6167 50.0858 58.9777 49.9217 59.4207 49.9217C59.6792 49.9217 59.8925 49.9668 60.0688 50.0612C60.2452 50.1555 60.4175 50.295 60.5857 50.4878V49.1054C60.5857 48.9126 60.6226 48.769 60.6965 48.6706C60.7703 48.5721 60.8728 48.5229 61.0082 48.5229C61.1436 48.5229 61.2461 48.568 61.32 48.6583C61.3938 48.7485 61.4307 48.8798 61.4307 49.0562V53.1828C61.4307 53.3592 61.3897 53.4946 61.3118 53.5848C61.2338 53.6751 61.1313 53.7161 61.0082 53.7161C60.8852 53.7161 60.7867 53.671 60.7047 53.5766C60.6267 53.4864 60.5857 53.3551 60.5857 53.1828ZM57.3902 52.4937C57.3902 52.7521 57.3287 52.9736 57.2097 53.1582C57.0908 53.3428 56.9144 53.4823 56.6806 53.5766C56.4468 53.671 56.1596 53.7202 55.8273 53.7202C55.4951 53.7202 55.2325 53.6669 55.0028 53.5643C54.7731 53.4618 54.6049 53.3346 54.4983 53.1787C54.3916 53.027 54.3342 52.8711 54.3342 52.7152C54.3342 52.6126 54.367 52.5265 54.4408 52.4527C54.5106 52.3788 54.5967 52.3419 54.7034 52.3419C54.7977 52.3419 54.8675 52.3665 54.9167 52.4158C54.9659 52.465 55.0151 52.5306 55.0603 52.6168C55.1505 52.7849 55.2613 52.908 55.3884 52.99C55.5156 53.0721 55.692 53.1131 55.9094 53.1131C56.0858 53.1131 56.2334 53.0721 56.3483 52.99C56.4632 52.908 56.5206 52.8095 56.5206 52.7029C56.5206 52.5388 56.4632 52.4158 56.3442 52.3419C56.2252 52.2681 56.0283 52.1942 55.7576 52.1245C55.45 52.0466 55.1997 51.9604 55.0069 51.8743C54.8141 51.7881 54.6583 51.6692 54.5434 51.5256C54.4285 51.382 54.3711 51.2057 54.3711 50.9964C54.3711 50.8078 54.4244 50.6314 54.5311 50.4673C54.6377 50.2991 54.7936 50.1678 55.0028 50.0694C55.212 49.9709 55.4623 49.9217 55.7535 49.9217C55.9832 49.9217 56.1924 49.9463 56.377 49.9956C56.5616 50.0448 56.7134 50.1145 56.8364 50.1965C56.9595 50.2827 57.0538 50.377 57.1154 50.4796C57.181 50.5821 57.2138 50.6847 57.2138 50.7831C57.2138 50.8898 57.181 50.98 57.1113 51.0457C57.0415 51.1154 56.9472 51.1482 56.82 51.1482C56.7298 51.1482 56.6518 51.1195 56.5862 51.0662C56.5206 51.0129 56.4467 50.9308 56.3647 50.8201C56.2991 50.7298 56.217 50.656 56.1268 50.5986C56.0365 50.5452 55.9135 50.5165 55.7535 50.5165C55.5935 50.5165 55.4581 50.5534 55.3515 50.6232C55.2448 50.697 55.1915 50.7872 55.1915 50.8939C55.1915 50.9923 55.2325 51.0744 55.3105 51.1359C55.3884 51.1974 55.4951 51.2508 55.6263 51.2918C55.7576 51.3328 55.9422 51.382 56.176 51.4436C56.4508 51.5133 56.6806 51.5994 56.8528 51.6979C57.0292 51.7963 57.1605 51.9112 57.2507 52.0466C57.341 52.1819 57.3861 52.3337 57.3861 52.506L57.3902 52.4937ZM52.9067 51.5133C52.8862 51.1933 52.8041 50.9554 52.6606 50.7954C52.517 50.6355 52.3324 50.5575 52.0986 50.5575C51.8648 50.5575 51.6925 50.6396 51.5489 50.7995C51.4053 50.9595 51.3192 51.1974 51.2905 51.5133H52.9067ZM53.0338 52.0466H51.2905C51.2905 52.2599 51.3356 52.4486 51.4136 52.6085C51.4915 52.7726 51.5981 52.8916 51.7294 52.9736C51.8607 53.0557 52.0083 53.0967 52.1642 53.0967C52.2709 53.0967 52.3693 53.0844 52.4555 53.0557C52.5416 53.0311 52.6277 52.99 52.7098 52.9326C52.7918 52.8752 52.8698 52.8178 52.9395 52.7521C53.0092 52.6865 53.0995 52.6003 53.2102 52.4896C53.2554 52.4486 53.321 52.4281 53.4071 52.4281C53.4974 52.4281 53.5753 52.4568 53.6286 52.506C53.6861 52.5593 53.7148 52.6332 53.7148 52.7275C53.7148 52.8095 53.682 52.9121 53.6204 53.0229C53.5589 53.1336 53.4605 53.2444 53.3333 53.3469C53.2061 53.4495 53.0462 53.5356 52.8534 53.6053C52.6606 53.6751 52.4391 53.7079 52.1888 53.7079C51.6145 53.7079 51.1715 53.5356 50.8516 53.1951C50.5357 52.8506 50.3757 52.387 50.3757 51.8004C50.3757 51.5256 50.4168 51.2672 50.4947 51.0293C50.5726 50.7913 50.6875 50.5903 50.8352 50.4222C50.9869 50.254 51.1715 50.1227 51.393 50.0325C51.6145 49.9422 51.8566 49.8971 52.1232 49.8971C52.4719 49.8971 52.7713 49.975 53.0174 50.1268C53.2677 50.2827 53.4523 50.4796 53.5794 50.7257C53.7025 50.9718 53.764 51.218 53.764 51.4723C53.764 51.7061 53.6984 51.862 53.5712 51.9317C53.444 52.0014 53.2595 52.0343 53.0298 52.0343L53.0338 52.0466ZM47.0531 51.8087C47.0531 52.063 47.09 52.2804 47.1638 52.4568C47.2377 52.6332 47.3402 52.7685 47.4715 52.8588C47.6027 52.949 47.7463 52.9941 47.8981 52.9941C48.0499 52.9941 48.1975 52.9531 48.3288 52.867C48.4601 52.7808 48.5626 52.6496 48.6406 52.4732C48.7185 52.2968 48.7554 52.0753 48.7554 51.8087C48.7554 51.5625 48.7144 51.3451 48.6406 51.1646C48.5626 50.9841 48.4601 50.8488 48.3288 50.7544C48.1975 50.6601 48.054 50.6109 47.8981 50.6109C47.734 50.6109 47.5863 50.6601 47.4592 50.7544C47.332 50.8529 47.2336 50.9923 47.1597 51.1728C47.09 51.3533 47.0531 51.5666 47.0531 51.8045V51.8087ZM48.8088 53.1828V53.0926C48.6898 53.2362 48.5708 53.3551 48.456 53.4454C48.3411 53.5356 48.214 53.6053 48.0786 53.6505C47.9432 53.6956 47.7955 53.7202 47.6315 53.7202C47.4182 53.7202 47.2213 53.671 47.0408 53.5766C46.8603 53.4823 46.7003 53.3469 46.569 53.1705C46.4378 52.9941 46.3352 52.789 46.2655 52.5511C46.1958 52.3132 46.1629 52.0548 46.1629 51.7799C46.1629 51.1933 46.2983 50.738 46.569 50.414C46.8398 50.0858 47.2007 49.9217 47.6438 49.9217C47.9022 49.9217 48.1155 49.9668 48.2919 50.0612C48.4683 50.1555 48.6406 50.295 48.8088 50.4878V49.1054C48.8088 48.9126 48.8457 48.769 48.9195 48.6706C48.9933 48.5721 49.0959 48.5229 49.2313 48.5229C49.3666 48.5229 49.4692 48.568 49.543 48.6583C49.6169 48.7485 49.6538 48.8798 49.6538 49.0562V53.1828C49.6538 53.3592 49.6169 53.4946 49.5389 53.5848C49.461 53.6751 49.3584 53.7161 49.2354 53.7161C49.1123 53.7161 49.0139 53.671 48.9318 53.5766C48.8539 53.4864 48.8129 53.3551 48.8129 53.1828H48.8088ZM79.5093 52.8258H79.496L79.5042 52.834L79.5093 52.8258ZM81.2025 52.8258H79.5093C79.561 52.7431 79.6126 52.672 79.6642 52.6124C79.7832 52.4566 80.0088 52.2351 80.3369 51.9561C80.6651 51.6772 80.8989 51.468 81.0384 51.3367C81.1779 51.2054 81.3132 51.025 81.4486 50.7911C81.5799 50.5614 81.6496 50.303 81.6496 50.02C81.6496 49.8395 81.6168 49.6672 81.5552 49.499C81.4896 49.3308 81.3994 49.1831 81.2845 49.056C81.1697 48.9247 81.0343 48.8263 80.8825 48.7524C80.6446 48.6417 80.3615 48.5883 80.0293 48.5883C79.7544 48.5883 79.5124 48.6294 79.3073 48.7155C79.1022 48.8017 78.934 48.9124 78.7987 49.0519C78.6633 49.1913 78.5608 49.3472 78.4951 49.5195C78.4254 49.6877 78.3926 49.8518 78.3926 50.0118C78.3926 50.1389 78.4254 50.2415 78.4992 50.3194C78.569 50.3932 78.6592 50.4302 78.77 50.4302C78.893 50.4302 78.9874 50.3891 79.053 50.3071C79.1186 50.2251 79.1761 50.1061 79.2253 49.9543C79.2786 49.8026 79.3155 49.7082 79.336 49.6754C79.5001 49.4129 79.7257 49.2816 80.0088 49.2816C80.1441 49.2816 80.2672 49.3103 80.3821 49.3759C80.4969 49.4375 80.5872 49.5277 80.6528 49.6426C80.7184 49.7615 80.7513 49.8887 80.7513 50.0364C80.7513 50.1717 80.7184 50.3112 80.6569 50.4507C80.5954 50.5901 80.5051 50.7296 80.3862 50.8609C80.2672 50.9921 80.1195 51.1275 79.939 51.2588C79.8406 51.3285 79.6724 51.4762 79.4386 51.7018C79.2048 51.9233 78.9463 52.194 78.6551 52.5099C78.5854 52.5878 78.5197 52.6945 78.4623 52.8299C78.4049 52.9652 78.3762 53.076 78.3762 53.158C78.3762 53.2852 78.4213 53.3959 78.5115 53.4903C78.6018 53.5846 78.7289 53.6339 78.893 53.6339H81.2968C81.4445 53.6339 81.5511 53.5969 81.6209 53.519C81.6947 53.4452 81.7275 53.3467 81.7275 53.236C81.7275 53.1088 81.6824 53.0103 81.5922 52.9365C81.5019 52.8627 81.3707 52.8258 81.2025 52.8258ZM76.3908 50.0446V53.1621H76.3949C76.3949 53.3426 76.4318 53.4821 76.5138 53.5764C76.5959 53.6708 76.7025 53.7159 76.8338 53.7159C77.1333 53.7159 77.2809 53.4862 77.2809 53.0268V49.1011C77.2809 48.937 77.244 48.8099 77.1743 48.7155C77.1045 48.6212 77.0102 48.576 76.8953 48.576C76.7928 48.576 76.723 48.5966 76.6861 48.6376C76.6492 48.6786 76.5713 48.7893 76.4482 48.9657C76.3293 49.1462 76.1898 49.3062 76.0298 49.4498C75.8739 49.5933 75.6606 49.7287 75.3981 49.86C75.2217 49.9502 75.0986 50.02 75.0289 50.0733C74.9592 50.1266 74.9264 50.2128 74.9264 50.3317C74.9264 50.4343 74.9633 50.5204 75.033 50.5984C75.1027 50.6763 75.1848 50.7132 75.275 50.7132C75.4637 50.7132 75.837 50.4917 76.3908 50.0446ZM73.5932 49.901C73.6342 50.0323 73.6547 50.1758 73.6547 50.3317C73.6547 50.5245 73.6178 50.6886 73.5399 50.8322C73.4619 50.9757 73.3635 51.0824 73.2404 51.1562C73.1133 51.2301 72.9861 51.267 72.8507 51.267C72.6292 51.267 72.4487 51.1767 72.3052 50.9963C72.1616 50.8158 72.0918 50.5778 72.0918 50.2702C72.0918 49.9625 72.1616 49.7205 72.3052 49.5318C72.4487 49.3472 72.621 49.2529 72.8302 49.2529C72.9492 49.2529 73.0599 49.2816 73.1625 49.3349C73.265 49.3882 73.3512 49.4621 73.425 49.5605C73.4947 49.6549 73.5522 49.7697 73.5932 49.901ZM73.7155 51.3977L73.7286 51.3818H73.7163L73.7155 51.3977ZM73.2486 51.7838C73.4197 51.6963 73.5753 51.5664 73.7155 51.3977C73.6859 52.0086 73.5919 52.4341 73.4373 52.6781C73.3594 52.797 73.265 52.8914 73.1543 52.957C73.0435 53.0227 72.9246 53.0555 72.8015 53.0555C72.662 53.0555 72.539 53.0103 72.4282 52.9283C72.3175 52.8463 72.2395 52.7355 72.1903 52.6001C72.1534 52.4894 72.0959 52.4032 72.018 52.3499C71.9401 52.2925 71.8539 52.2638 71.7596 52.2638C71.6529 52.2638 71.5668 52.3048 71.5012 52.3786C71.4314 52.4525 71.3986 52.5386 71.3986 52.633C71.3986 52.7888 71.456 52.9488 71.5627 53.117C71.6693 53.2852 71.8293 53.4247 72.0385 53.5395C72.2477 53.6503 72.4897 53.7077 72.7769 53.7077C73.064 53.7077 73.3225 53.6544 73.5481 53.5436C73.7737 53.4329 73.9706 53.2647 74.1306 53.035C74.2946 52.8093 74.4177 52.5263 74.5038 52.194C74.59 51.8577 74.631 51.4721 74.631 51.0332C74.631 50.6394 74.5941 50.2907 74.5121 49.9789C74.4341 49.6672 74.3193 49.4129 74.1675 49.2078C74.0198 49.0027 73.8352 48.8468 73.6137 48.7401C73.3963 48.6335 73.1461 48.5801 72.863 48.5801C72.621 48.5801 72.3954 48.6253 72.1944 48.7114C71.9934 48.8017 71.8211 48.9206 71.6734 49.0765C71.5258 49.2324 71.415 49.4129 71.3371 49.6262C71.2591 49.8354 71.2181 50.0569 71.2181 50.2948C71.2181 50.5122 71.255 50.7214 71.3248 50.9224C71.3945 51.1234 71.493 51.2957 71.6242 51.4475C71.7514 51.5951 71.9073 51.7141 72.0836 51.7961C72.2641 51.8782 72.4405 51.9192 72.6579 51.9192C72.8753 51.9192 73.0722 51.8741 73.2486 51.7838ZM69.3968 50.0446V53.1621H69.4009C69.4009 53.3426 69.4378 53.4821 69.5199 53.5764C69.6019 53.6708 69.7045 53.7159 69.8398 53.7159C70.1393 53.7159 70.2869 53.4862 70.2869 53.0268V49.1011C70.2869 48.937 70.25 48.8099 70.1803 48.7155C70.1106 48.6212 70.0162 48.576 69.9014 48.576C69.7988 48.576 69.7291 48.5966 69.6922 48.6376C69.6552 48.6786 69.5773 48.7893 69.4542 48.9657C69.3312 49.1462 69.1958 49.3062 69.0358 49.4498C68.88 49.5933 68.6666 49.7287 68.4041 49.86C68.2277 49.9502 68.1047 50.02 68.0349 50.0733C67.9652 50.1266 67.9324 50.2128 67.9324 50.3317C67.9324 50.4343 67.9693 50.5204 68.039 50.5984C68.1088 50.6763 68.1908 50.7132 68.2811 50.7132C68.4697 50.7132 68.843 50.4917 69.3968 50.0446ZM123.173 41.525L123.172 41.5753C122.692 42.9258 121.31 43.9943 118.304 43.9862L110.19 43.9657C101.781 51.4273 83.2233 60.4108 64.518 60.4108C45.8127 60.4108 26.9351 51.3248 18.5998 43.7442L10.7362 43.7237C7.72115 43.7155 6.33877 42.8048 5.86293 41.525C5.96959 47.3335 10.4777 47.3335 15.9704 47.3335H17.2092C27.7883 54.4464 44.3565 63.0484 64.518 63.0484C84.6795 63.0484 101.248 54.4464 111.827 47.3335H113.066C118.546 47.3335 123.04 47.3335 123.172 41.5753C123.178 41.5586 123.184 41.5418 123.189 41.525H123.177H123.173ZM17.389 15.9321H16.1543C10.6822 15.9321 6.19459 15.9321 6.08793 21.7365C6.55967 20.4526 7.93795 19.5337 10.9406 19.5419L18.7304 19.5624C27.0206 11.9573 45.6603 3.50706 64.5133 3.50706C83.3662 3.50706 102.326 12.0598 110.538 19.7839L118.09 19.8045C121.064 19.8086 122.442 20.551 122.93 21.7365H122.947C122.84 15.9321 118.353 15.9321 112.88 15.9321H111.646C101.108 8.81919 84.6009 0.869444 64.5174 0.869444C44.4338 0.869444 27.9272 8.81919 17.389 15.9321Z" fill="#353a42"/>
</svg>