                    <svg
                      xmlns="http://www.w3.org/2000/svg"
                      width="124"
                      height="37"
                      viewBox="0 0 124 37"
                      fill="none"
                    >
                      <path
                        fill-rule="evenodd"
                        clip-rule="evenodd"
                        d="M88.2161 12.0386C89.5297 12.3232 90.0332 12.6079 90.5587 13.0019C91.3469 13.5931 91.4344 13.7463 92.1569 14.6659C92.551 15.1475 92.9889 15.8043 93.2078 16.1109C93.5144 16.5706 93.996 17.0742 95.1783 17.0742C96.2511 17.0742 96.6671 16.6363 97.1487 15.8481C97.3896 15.454 97.8712 14.7972 98.0683 14.5783C98.7032 13.8558 98.7908 13.7682 99.6884 13.0676C99.9073 12.8925 100.608 12.3889 101.922 12.0386C102.031 12.0167 102.425 11.951 102.425 11.951L102.097 10.0901L102.71 10.0025L102.075 7.11252C102.009 6.41191 102.053 5.55806 102.141 4.83556C102.381 2.31778 102.907 0.872787 101.44 0.566274C100.104 0.303549 97.0174 3.74087 97.0174 3.74087C97.0174 3.74087 95.9446 3.6314 95.1783 3.6533C94.412 3.67519 93.2954 3.74087 93.2954 3.74087C93.2954 3.74087 90.1646 0.259761 88.8072 0.54438C87.4279 0.828999 87.9533 2.5805 88.2161 4.81367C88.3036 5.55806 88.3036 6.39002 88.1723 7.09062L87.5374 9.9806L88.0847 10.0901L87.822 11.9729L88.2161 12.0386ZM97.302 8.95159C97.3896 8.84213 97.499 8.77644 97.6085 8.71076C97.8931 8.5794 98.1121 8.55751 98.331 8.51372C99.0097 8.46993 99.1848 8.66698 98.9878 9.3019C98.7908 9.84924 98.1777 10.1558 97.5647 10.0463C97.3458 10.0025 97.1268 9.89303 97.1049 9.71788C97.0612 9.45515 97.083 9.17053 97.302 8.95159ZM95.0688 14.2061C95.8789 14.2061 96.2511 14.3375 96.2511 15.0819C96.2511 15.6511 95.7913 16.0671 95.1345 16.0671C94.4339 16.0671 94.0179 15.5854 94.0179 15.0819C93.996 14.3375 94.4339 14.2061 95.0688 14.2061ZM91.8942 8.51372C92.1132 8.55751 92.354 8.5794 92.6167 8.71076C92.7262 8.77644 92.8357 8.86402 92.9232 8.95159C93.1422 9.17053 93.1641 9.45515 93.0984 9.71788C93.0546 9.91492 92.8575 10.0025 92.6386 10.0463C92.0037 10.1558 91.4126 9.84924 91.2155 9.3019C91.0404 8.64508 91.2374 8.46993 91.8942 8.51372Z"
                        fill="#353A42"
                      />
                      <path
                        fill-rule="evenodd"
                        clip-rule="evenodd"
                        d="M114.554 9.41142C109.343 9.30195 106.716 13.7245 106.563 16.089C106.563 16.2204 106.563 16.9429 106.563 17.118C109.387 18.9571 110.263 20.8619 110.81 21.9785C111.599 23.6205 111.883 25.4158 112.015 27.0578C112.058 27.7584 112.08 28.4371 112.08 29.0501C112.08 29.6413 112.08 33.8887 112.08 34.4579C112.321 34.4579 112.19 34.4579 112.518 34.4579C113.087 34.4579 114.423 34.5455 114.445 32.2247L114.423 21.9128C114.489 20.424 115.167 19.0447 117.094 18.2565C118.824 17.534 120.794 18.147 122.129 19.4169C122.37 19.6577 122.94 20.4897 122.94 20.4897C123.969 12.9144 119.918 9.54278 114.554 9.41142Z"
                        fill="#353A42"
                      />
                      <path
                        fill-rule="evenodd"
                        clip-rule="evenodd"
                        d="M105.184 17.709C104.396 17.293 102.972 16.877 102.184 16.3735C101.659 16.0451 101.243 15.6072 100.958 15.038C100.739 14.6001 100.652 13.9214 100.652 13.9214C100.652 13.9214 100.279 14.0746 99.9292 14.3155C99.0315 15.0161 98.0682 16.6581 97.5428 17.2711C97.2143 17.6433 96.6013 17.9936 96.1197 18.1469C95.4628 18.322 94.3244 18.2126 93.8865 18.0374C92.8794 17.5776 92.6166 17.1398 92.1569 16.5486C91.5439 15.7386 91.4782 15.5853 90.9308 14.9285C90.7776 14.7534 90.4273 14.4031 90.0332 14.206C89.9675 14.3155 89.5296 14.9066 89.4421 15.0161C88.5225 16.483 87.4497 18.6504 88.3912 22.0221C88.4349 22.1972 88.4787 22.3505 88.5663 22.5038L89.858 25.8754L90.5367 25.6346L91.6752 27.9772L92.3758 27.6707C92.3758 27.6707 92.9669 28.1305 93.2735 28.8529C93.5143 29.4222 93.5143 30.1885 93.5143 31.2394C93.5143 31.5678 93.5143 33.1441 93.5143 33.5382C93.5143 33.8009 93.4267 34.2169 92.7699 34.2169C92.3539 34.2169 92.2882 34.2169 92.0912 34.2169C91.6095 34.2169 90.9527 34.4796 90.9527 35.3335V36.472H95.2877C95.5504 36.472 95.7694 36.253 95.7694 36.0122C95.7475 33.1222 95.7475 32.8595 95.7694 30.1885C95.7912 27.3861 96.4481 25.7002 98.0901 24.6056C99.7321 23.6422 101.09 23.5547 102.359 23.7955C103.542 24.0144 104.155 24.4304 104.768 24.9559C105.556 25.6783 105.512 26.3133 105.249 26.0724C105.14 25.963 104.855 25.7221 104.417 25.4156C103.673 24.934 102.71 24.7588 102.316 24.7588C100.301 24.715 99.1191 25.4813 98.4842 26.2695C97.696 27.2328 97.2362 28.5464 97.6303 30.3636C97.8274 31.2394 98.5937 32.0275 99.4256 32.6844C100.192 33.2974 100.936 33.4506 100.936 34.2169C100.674 34.2169 98.9221 34.2169 98.9221 34.2169C98.2652 34.2169 97.7836 34.6767 97.7836 35.3335V36.472H101.637C101.9 36.472 102.316 35.8809 102.775 35.8809C103.388 35.8809 103.345 36.472 103.345 36.472H109.037C109.803 36.472 110.942 35.9684 110.964 34.6986C110.986 33.7353 110.986 34.3264 110.986 33.582C111.007 29.7506 111.007 26.5103 110.438 24.3209C109.65 21.4091 107.439 18.8913 105.184 17.709Z"
                        fill="#353A42"
                      />
                      <path
                        d="M73.4338 31.0187C73.4129 31.3734 73.3086 31.6446 73.1208 31.8323C72.9122 32.0201 72.7036 32.1244 72.4532 32.1244C72.2029 32.1244 71.9734 32.041 71.7856 31.8323C71.577 31.6446 71.4935 31.3734 71.4726 31.0187V5.98297C71.4726 5.73261 71.5352 5.52398 71.6396 5.35708C71.7439 5.19017 71.869 5.06499 72.0359 4.98154C72.2029 4.89809 72.3489 4.85636 72.5158 4.85636C72.7662 4.85636 72.9748 4.93981 73.1626 5.14845C73.3503 5.33621 73.4546 5.6283 73.4546 5.98297L73.4338 31.0187ZM79.5884 5.98297C79.5884 4.60601 79.4006 3.50026 79.0251 2.66574C78.6495 1.83121 78.0862 1.22618 77.3143 0.850648C76.5424 0.475113 75.5618 0.287345 74.3726 0.308208H70.1583C69.0108 0.308208 68.0928 0.475113 67.3626 0.829785C66.6533 1.18446 66.1317 1.78949 65.8187 2.62401C65.4849 3.45853 65.318 4.56428 65.3389 5.98297V31.0187C65.3389 32.3748 65.5267 33.4597 65.8813 34.2942C66.236 35.1287 66.8202 35.7337 67.5712 36.1301C68.3432 36.5265 69.3029 36.6934 70.4921 36.6934H74.7064C75.8539 36.6934 76.7719 36.5265 77.5021 36.1719C78.2114 35.8172 78.7539 35.2122 79.0877 34.3776C79.4215 33.5431 79.5884 32.4374 79.5884 31.0187V5.98297Z"
                        fill="#353A42"
                      />
                      <path
                        d="M53.5512 16.6232C53.5303 16.9779 53.4469 17.2491 53.2382 17.4369C53.0296 17.6246 52.821 17.7289 52.5706 17.7289H51.5901V5.37798H52.6332C52.8836 5.37798 53.0922 5.46143 53.28 5.67006C53.4677 5.85783 53.572 6.14991 53.572 6.52545V16.6232H53.5512ZM59.7058 25.5317C59.7058 24.3634 59.5806 23.3828 59.3511 22.6109C59.1216 21.839 58.7461 21.2339 58.2454 20.8167C57.7447 20.3994 57.0979 20.1073 56.3051 20.003C57.0979 19.857 57.7447 19.5649 58.2454 19.1476C58.7461 18.7304 59.1216 18.1253 59.3511 17.3743C59.5806 16.6023 59.7058 15.6218 59.7058 14.4117V6.52545C59.7058 5.14849 59.518 4.04274 59.1425 3.20822C58.767 2.37369 58.2036 1.76866 57.4317 1.39313C56.6598 1.01759 55.6792 0.829825 54.49 0.850688H45.4563V36.4431H51.5692V22.3605H52.5498C52.8001 22.3605 53.0296 22.444 53.2174 22.6526C53.426 22.8404 53.5095 23.1116 53.5303 23.4663V36.4431H59.6849V25.5317H59.7058Z"
                        fill="#353A42"
                      />
                      <path
                        d="M39.8233 31.6238H35.0665V20.7332H39.3852V15.9139H35.0665V5.62835H39.8233V0.829834H28.7659V36.4223H39.8233V31.6238Z"
                        fill="#353A42"
                      />
                      <path
                        d="M23.112 0.829834H16.7905V36.4223H23.112V0.829834Z"
                        fill="#353A42"
                      />
                      <path
                        d="M6.40075 20.7332H10.7194V15.9139H6.40075V5.62835H11.1575V0.829834H0.100098V36.4223H6.40075V20.7332Z"
                        fill="#353A42"
                      />
                    </svg>