                    <svg
                      width="66"
                      height="19"
                      viewBox="0 0 66 19"
                      fill="none"
                      xmlns="http://www.w3.org/2000/svg"
                    >
                      <path
                        d="M61.4979 4.01857L63.9951 5.15338V4.37297L61.4939 2.52783L58.9854 4.38709L58.9858 5.168L61.4979 4.01857Z"
                        fill="#353A42"
                      />
                      <path
                        d="M17.3163 5.62793C16.8816 5.62793 16.4335 5.69145 16.0196 5.81093C14.5318 6.24147 13.2401 7.37376 12.5647 8.83878C12.1011 9.80874 11.8803 10.9471 11.9245 12.1353H11.921L11.9265 12.2291C12.0674 14.6253 13.3433 16.6953 15.2549 17.6304C15.5392 17.7696 16.4057 18.193 17.5005 18.193C18.029 18.193 18.5535 18.0957 19.0592 17.9032C19.9336 17.5704 20.6701 16.9987 21.2571 16.1952L21.278 16.1684V16.1654L21.2844 16.1573V14.713L21.1316 14.8925C20.349 15.809 19.2895 16.3343 18.224 16.3343C16.6965 16.3343 15.4673 15.3018 14.9358 13.5716C14.7055 12.8225 14.6008 12.0814 14.6246 11.369C14.6336 11.0983 14.6534 10.8246 14.6842 10.5539H21.2849V10.4651C21.2854 5.97679 18.2473 5.62793 17.3163 5.62793ZM14.7819 9.39938C14.835 9.10749 14.913 8.83273 15.0147 8.58016C15.3432 7.73573 15.8896 7.1227 16.6399 6.75871C16.896 6.63368 17.165 6.56815 17.4171 6.56815C18.4667 6.56815 19.1004 7.62431 19.1207 9.39938H14.7819Z"
                        fill="#353A42"
                      />
                      <path
                        d="M39.4379 5.62793C39.0037 5.62793 38.5556 5.69145 38.1417 5.81093C36.6539 6.24147 35.3616 7.37376 34.6867 8.83878C34.2232 9.80874 34.0024 10.9471 34.0465 12.1353H34.0431L34.0485 12.2291C34.1895 14.6258 35.4654 16.6953 37.377 17.6304C37.6613 17.7696 38.5273 18.193 39.6225 18.193C40.151 18.193 40.6756 18.0957 41.1813 17.9032C42.0557 17.5704 42.7921 16.9987 43.3797 16.1936L43.407 16.1584V14.7125L43.2542 14.892C42.4716 15.8085 41.412 16.3338 40.3466 16.3338C38.8191 16.3338 37.5898 15.3013 37.0584 13.5711C36.8281 12.8225 36.7229 12.0814 36.7467 11.3685C36.7561 11.0963 36.7765 10.8226 36.8063 10.5534H43.407V10.4646C43.4075 5.97679 40.3694 5.62793 39.4379 5.62793ZM36.904 9.39938C36.9566 9.109 37.0345 8.83374 37.1368 8.58016C37.4648 7.73623 38.0112 7.1232 38.7615 6.75871C39.0176 6.63368 39.2861 6.56815 39.5392 6.56815C40.5887 6.56815 41.2225 7.62431 41.2428 9.39938H36.904Z"
                        fill="#353A42"
                      />
                      <path
                        d="M65.4914 10.5544V10.4656C65.4914 5.97679 62.4533 5.62793 61.5223 5.62793C61.0881 5.62793 60.6399 5.69145 60.2261 5.81093C58.7383 6.24096 57.4465 7.37376 56.7706 8.83878C56.3076 9.80824 56.0867 10.9461 56.1304 12.1353H56.1269L56.1324 12.2291C56.2743 14.6258 57.5497 16.6953 59.4613 17.6304C59.7457 17.7696 60.6116 18.193 61.7069 18.193C62.2349 18.193 62.76 18.0957 63.2657 17.9032C64.1401 17.5704 64.877 16.9987 65.4631 16.1952L65.4839 16.1684V16.1654L65.4904 16.1573V14.713L65.337 14.8925C64.5554 15.809 63.4954 16.3343 62.43 16.3343C60.903 16.3343 59.6737 15.3018 59.1417 13.5716C58.9115 12.8225 58.8068 12.0814 58.8306 11.369C58.8395 11.1008 58.8594 10.8271 58.8901 10.5539H65.4914V10.5544ZM59.2211 8.58016C59.5497 7.73623 60.096 7.1232 60.8464 6.75871C61.1025 6.63368 61.3709 6.56815 61.624 6.56815C62.6736 6.56815 63.3073 7.62431 63.3277 9.39938H58.9889C59.041 9.1095 59.1189 8.83424 59.2211 8.58016Z"
                        fill="#353A42"
                      />
                      <path
                        d="M5.54087 5.63139C4.77018 5.63139 4.01487 5.84968 3.54888 6.19753V0.0878906H0.842773V17.6304L1.00852 17.6142C1.14152 17.6011 1.24772 17.5905 1.37526 17.5905C1.44871 17.5905 1.5296 17.5941 1.62637 17.6021C2.46554 17.6808 2.91516 17.8118 3.31216 17.9268C3.80396 18.0695 4.22876 18.193 5.19944 18.193C8.48766 18.193 10.2251 15.997 10.2251 11.8429C10.2251 8.84072 8.99434 5.63139 5.54087 5.63139ZM4.77216 17.2598C4.3558 17.2598 3.95234 17.0814 3.57965 16.734C3.55831 16.7098 3.55285 16.7038 3.54888 16.6241V7.39284C3.55384 7.23505 3.55384 7.23505 3.59156 7.19623C3.97914 6.84131 4.44761 6.76721 4.77266 6.76721C6.28724 6.76721 7.51946 9.12052 7.51946 12.0133C7.51896 14.9065 6.28675 17.2598 4.77216 17.2598Z"
                        fill="#353A42"
                      />
                      <path
                        d="M27.6698 5.63139C26.8991 5.63139 26.1433 5.84968 25.6778 6.19753V0.0878906H22.9717V17.6304L23.1374 17.6142C23.2704 17.6011 23.3766 17.5905 23.5042 17.5905C23.5776 17.5905 23.6585 17.5941 23.7553 17.6021C24.5944 17.6808 25.0441 17.8118 25.4416 17.9268C25.9334 18.0695 26.3582 18.193 27.3283 18.193C30.6166 18.193 32.354 15.997 32.354 11.8429C32.354 8.84072 31.1232 5.63139 27.6698 5.63139ZM26.9011 17.2598C26.4847 17.2598 26.0812 17.0814 25.7086 16.734C25.6872 16.7098 25.6818 16.7038 25.6783 16.6241V7.39183C25.6832 7.23505 25.6832 7.23505 25.7205 7.19673C26.108 6.84182 26.5765 6.76771 26.9016 6.76771C28.4161 6.76771 29.6484 9.12102 29.6484 12.0138C29.6479 14.9065 28.4157 17.2598 26.9011 17.2598Z"
                        fill="#353A42"
                      />
                      <path
                        d="M52.2433 5.9035C52.0066 5.82234 51.3664 5.63379 50.5471 5.63379C49.5759 5.63379 48.6812 5.88989 47.8881 6.39453C45.9304 7.64126 45.0788 9.87762 45.1036 11.5408C45.1041 11.5776 45.1031 11.636 45.1021 11.7056C45.1002 11.8236 45.0972 11.9728 45.1006 12.1069H45.0967L45.1021 12.2007C45.2441 14.6014 46.5214 16.6744 48.436 17.6116C48.7209 17.7512 49.5888 18.1752 50.6856 18.1752C51.2146 18.1752 51.7401 18.0774 52.2473 17.8848C53.1237 17.5511 53.8616 16.9789 54.4596 16.1577L54.4765 16.1345V14.3307L54.3147 14.5888C54.0333 15.0375 53.6904 15.409 53.3053 15.6928C52.9028 15.9958 52.4547 16.201 51.9788 16.2908L51.9098 16.3069C51.749 16.3346 51.5902 16.3482 51.4369 16.3482C51.2975 16.3482 51.1515 16.3346 50.9788 16.3064L50.9009 16.2892C50.423 16.2005 49.9784 15.9913 49.5819 15.6928C48.5144 14.9054 47.8048 13.4661 47.8053 11.8488L47.8033 11.7943L47.8058 11.7777C47.8058 11.7757 47.8058 11.7737 47.8058 11.7717L47.8038 11.7162L47.8058 11.7026L47.8053 11.5962C47.8053 11.5937 47.8058 11.5912 47.8058 11.5882L47.8053 11.5135C47.8053 11.4394 47.8097 11.3694 47.8167 11.2983C47.841 10.8385 47.9194 10.4105 48.0504 10.0233C48.5864 8.23665 49.9476 7.0368 51.4379 7.0368C52.1977 7.0368 52.9321 7.37256 53.5048 7.98307C53.8919 8.39545 54.3098 9.11586 54.3142 9.12343L54.477 9.40776V7.51573L54.4571 7.49103C53.9033 6.80288 53.3152 6.27051 52.2433 5.9035Z"
                        fill="#353A42"
                      />
                    </svg>