                    <svg
                      width="81"
                      height="8"
                      viewBox="0 0 81 8"
                      fill="none"
                      xmlns="http://www.w3.org/2000/svg"
                    >
                      <path
                        d="M35.143 0.358398H36.9434L40.8634 7.09629H39.1959L38.3641 5.54968H33.6996L32.8449 7.09629H31.166L35.143 0.358398ZM37.7297 4.4341L36.0432 1.42961L34.3529 4.4341H37.7297Z"
                        fill="#353A42"
                      />
                      <path
                        d="M41.7412 0.358398H45.6308C48.1834 0.358398 50.2307 1.25848 50.2307 3.68615C50.2307 5.98388 48.3619 7.0963 45.6954 7.0963H41.7412V0.358398ZM44.9205 5.96486C47.606 5.96486 48.6506 5.2803 48.6506 3.70517C48.6506 2.05397 47.5642 1.48666 44.9205 1.48666H43.3213V5.9617L44.9205 5.96486Z"
                        fill="#353A42"
                      />
                      <path
                        d="M19.752 4.7035C19.5925 5.22327 18.7796 6.13285 16.945 6.13285C15.2091 6.13285 13.8682 5.31834 13.8682 3.76856C13.8682 2.3709 14.7989 1.32187 17.0323 1.32187C18.9316 1.32187 19.5431 2.27266 19.6305 2.50719L21.1498 2.34238C20.9333 1.74972 20.1622 0.19043 16.9412 0.19043C13.7201 0.19043 12.2539 1.65464 12.2539 3.6196C12.2539 6.0758 14.2633 7.26429 16.812 7.26429C20.261 7.26429 21.0587 5.69866 21.2828 4.87148L19.752 4.7035Z"
                        fill="#353A42"
                      />
                      <path
                        d="M29.628 4.7035C29.4647 5.22327 28.6556 6.13285 26.8209 6.13285C25.0851 6.13285 23.7404 5.31834 23.7404 3.76856C23.7404 2.3709 24.6748 1.32187 26.9083 1.32187C28.8075 1.32187 29.4191 2.27266 29.5064 2.50719L31.0258 2.34238C30.8131 1.74972 30.042 0.19043 26.8209 0.19043C23.5999 0.19043 22.1299 1.65464 22.1299 3.6196C22.1299 6.0758 24.1431 7.26429 26.688 7.26429C30.137 7.26429 30.9347 5.69866 31.1588 4.87148L29.628 4.7035Z"
                        fill="#353A42"
                      />
                      <path
                        d="M64.0793 5.93V0.358398H62.5029V7.09629H69.9365V5.93H64.0793Z"
                        fill="#353A42"
                      />
                      <path
                        d="M71.0004 7.09629H72.5805V4.39924L76.5233 0.358398H74.5785L71.7905 3.21392L68.991 0.358398H67.0576L71.0004 4.39924V7.09629Z"
                        fill="#353A42"
                      />
                      <path
                        d="M5.17302 0.358398H0.671875V7.09629H2.24822V4.48163H5.17302C6.53666 4.48163 8.78154 4.48164 8.78154 2.42477C8.78154 0.367903 6.53666 0.358398 5.17302 0.358398ZM5.51489 3.35337H2.24822V1.48983H5.51489C6.41512 1.48983 7.20518 1.55322 7.20518 2.41526C7.20518 3.27731 6.41512 3.36605 5.51489 3.36605"
                        fill="#353A42"
                      />
                      <path
                        d="M11.2697 0.361572H9.69336V7.09948H11.2697V0.361572Z"
                        fill="#353A42"
                      />
                      <path
                        d="M52.7375 0.358398H51.1611V7.09629H52.7375V0.358398Z"
                        fill="#353A42"
                      />
                      <path
                        d="M55.548 5.93V0.358398H53.9717V7.09629H61.4014V5.93H55.548Z"
                        fill="#353A42"
                      />
                      <path
                        d="M80.9939 0.361572H77.8906V2.95089H80.9939V0.361572ZM80.6141 1.71169C80.3524 1.2657 79.9209 0.904609 79.3872 0.684846H80.6141V1.71169ZM78.2895 0.783093C78.8026 0.798602 79.2947 0.957034 79.6873 1.23313L78.2895 2.39626V0.783093ZM79.9608 1.46132C80.2916 1.78868 80.4803 2.19962 80.4963 2.62761H78.5668L79.9608 1.46132Z"
                        fill="#353A42"
                      />
                    </svg>