                    <svg
                      width="73"
                      height="11"
                      viewBox="0 0 73 11"
                      fill="none"
                      xmlns="http://www.w3.org/2000/svg"
                    >
                      <g clip-path="url(#clip0_501_13012)">
                        <path
                          fill-rule="evenodd"
                          clip-rule="evenodd"
                          d="M1.88612 10.5182L2.84552 8.10799L6.37697 8.11104L7.32918 10.5165H8.96071L5.08533 0.741211H4.15335L3.16922 2.91582L1.20725 8.00109L0.256836 10.5182H1.88612ZM3.47583 6.54074L4.63575 3.57902L5.74981 6.53987V6.54074H3.47583Z"
                          fill="#353A42"
                        />
                        <path
                          fill-rule="evenodd"
                          clip-rule="evenodd"
                          d="M71.2918 10.5182H72.7425L72.7336 0.741211H71.2549L71.2918 10.5182Z"
                          fill="#353A42"
                        />
                        <path
                          fill-rule="evenodd"
                          clip-rule="evenodd"
                          d="M48.545 0.741211H47.0879V10.5195H52.8461L52.8367 9.07138H48.545V0.741211Z"
                          fill="#353A42"
                        />
                        <path
                          fill-rule="evenodd"
                          clip-rule="evenodd"
                          d="M42.0035 4.48612H38.481V2.2753H42.73V0.741211H36.8877V10.5182L42.73 10.5047V9.04913H38.481V5.97047H42.0035V4.48612Z"
                          fill="#353A42"
                        />
                        <path
                          fill-rule="evenodd"
                          clip-rule="evenodd"
                          d="M13.3216 10.5182H14.8358V3.92414L20.6017 10.5178H21.4208V0.74252H19.8738V7.35971L14.2595 0.741211H13.305C13.2511 1.49342 13.2906 10.4549 13.3212 10.5178"
                          fill="#353A42"
                        />
                        <path
                          fill-rule="evenodd"
                          clip-rule="evenodd"
                          d="M30.8069 2.93669L31.9182 1.94406C31.1921 1.16131 29.9567 0.724121 29.0117 0.724121C27.462 0.724121 26.0548 1.78524 25.8822 3.08067C25.7671 3.94501 26.1308 4.70246 26.552 5.12787C28.0658 6.6576 29.3601 5.90364 30.4121 6.72305C30.614 6.88056 30.9121 7.1694 30.9885 7.53154C31.2191 8.62103 29.0656 9.61888 27.4809 8.54598C27.1059 8.29204 27.1185 8.14195 26.8942 7.79071L25.5342 8.50017C25.6992 9.16119 26.592 9.85449 27.2066 10.1368C28.0329 10.516 29.0859 10.629 30.0727 10.4012C32.2203 9.90511 33.3047 7.83565 31.951 6.06377C31.2654 5.16627 30.2309 4.88091 29.1416 4.72864C26.9558 4.42322 27.0529 2.77219 28.4016 2.34242C29.4257 1.9445 30.1096 2.46197 30.8064 2.93756"
                          fill="#353A42"
                        />
                        <path
                          fill-rule="evenodd"
                          clip-rule="evenodd"
                          d="M62.0495 8.15991H62.3912L65.3422 4.16892L65.3414 10.5182H66.896L66.8969 0.741211H65.9119L62.0495 6.14107L58.1872 0.741211H57.2021L57.2035 10.5182H58.7581L58.7568 4.16892L61.7078 8.15991H62.0495Z"
                          fill="#353A42"
                        />
                      </g>
                      <defs>
                        <clipPath id="clip0_501_13012">
                          <rect
                            width="72.4854"
                            height="9.79532"
                            fill="white"
                            transform="translate(0.256836 0.724121)"
                          />
                        </clipPath>
                      </defs>
                    </svg>