                    <svg
                      xmlns="http://www.w3.org/2000/svg"
                      width="124"
                      height="17"
                      viewBox="0 0 124 17"
                      fill="none"
                    >
                      <path
                        d="M80.58 16.3386H79.7548C79.34 16.3386 79.0328 15.9533 79.1249 15.5489L79.9655 11.865L76.8812 16.0744C76.7593 16.2403 76.5661 16.3386 76.3602 16.3386H75.621C75.3306 16.3386 75.0756 16.1448 74.9984 15.8648L73.8932 11.865L72.9748 15.8382C72.9074 16.1311 72.6462 16.3386 72.3457 16.3386H71.5206C71.1055 16.3386 70.7982 15.9525 70.8912 15.548L72.6636 7.83868C72.7308 7.54548 72.9917 7.33765 73.293 7.33765H74.2679C74.5555 7.33765 74.8085 7.5275 74.8883 7.80386L76.4459 13.1816L80.6187 7.59687C80.7403 7.4337 80.9325 7.33765 81.1361 7.33765H82.3522C82.7672 7.33765 83.0748 7.72354 82.9818 8.12824L81.2094 15.8373C81.1417 16.1308 80.8805 16.3386 80.58 16.3386Z"
                        fill="#353A42"
                      />
                      <path
                        d="M91.9896 8.50646C92.8134 9.42878 93.1361 10.5435 92.9569 11.8514C92.7777 13.2486 92.2003 14.3813 91.224 15.2503C90.2478 16.1189 89.0612 16.5534 87.6634 16.5534C86.2847 16.5534 85.1827 16.099 84.3589 15.1899C83.5349 14.2808 83.2125 13.1635 83.3914 11.8379C83.5706 10.5213 84.171 9.40632 85.1919 8.49271C86.2128 7.5791 87.3727 7.12244 88.6714 7.12244C90.0599 7.12244 91.1656 7.58359 91.9896 8.50646ZM89.7392 13.7724C90.2989 13.2708 90.6331 12.6305 90.7401 11.8514C90.8387 11.081 90.68 10.4384 90.2635 9.92336C89.847 9.40856 89.289 9.15102 88.5908 9.15102C87.8204 9.15102 87.1556 9.40632 86.5959 9.91662C86.0359 10.4275 85.7073 11.072 85.6081 11.8514C85.5009 12.6128 85.6576 13.2486 86.0786 13.7592C86.4993 14.2695 87.0545 14.5248 87.744 14.5248C88.5147 14.5248 89.1794 14.2743 89.7392 13.7724Z"
                        fill="#353A42"
                      />
                      <path
                        d="M99.35 16.3386H94.0197C93.6066 16.3386 93.3004 15.9544 93.3931 15.5517L95.1664 7.83644C95.2335 7.54435 95.4933 7.33765 95.7927 7.33765H96.6768C97.0899 7.33765 97.3958 7.72185 97.3034 8.12431L95.8584 14.4041H99.4988C99.9119 14.4041 100.218 14.7881 100.125 15.1908L99.9765 15.8396C99.9097 16.1316 99.6496 16.3386 99.35 16.3386Z"
                        fill="#353A42"
                      />
                      <path
                        d="M101.198 15.5517L102.972 7.83619C103.039 7.54439 103.299 7.3374 103.599 7.3374H104.482C104.896 7.3374 105.202 7.72161 105.109 8.12435L103.335 15.8399C103.268 16.1317 103.008 16.3387 102.709 16.3387H101.825C101.412 16.3387 101.106 15.9545 101.198 15.5517Z"
                        fill="#353A42"
                      />
                      <path
                        d="M112.865 16.3386H111.91C111.687 16.3386 111.479 16.2224 111.362 16.0317L108.272 10.9915L107.151 15.8407C107.084 16.1322 106.824 16.3386 106.525 16.3386H105.64C105.227 16.3386 104.921 15.9544 105.014 15.5517L106.787 7.83644C106.854 7.54435 107.114 7.33765 107.414 7.33765H108.362C108.589 7.33765 108.799 7.45729 108.915 7.65276L111.967 12.8055L113.127 7.83419C113.195 7.54351 113.454 7.33765 113.753 7.33765H114.638C115.052 7.33765 115.358 7.72157 115.265 8.12431L113.492 15.8398C113.425 16.1317 113.165 16.3386 112.865 16.3386Z"
                        fill="#353A42"
                      />
                      <path
                        d="M121.676 15.7949L121.505 14.6996H117.73L116.898 16.0359C116.78 16.2243 116.574 16.3386 116.352 16.3386H115.407C114.897 16.3386 114.59 15.7736 114.868 15.3458L119.878 7.63057C119.996 7.44774 120.199 7.33765 120.417 7.33765H121.817C122.127 7.33765 122.393 7.55811 122.449 7.86255L123.889 15.5781C123.963 15.9735 123.659 16.3386 123.257 16.3386H122.311C121.994 16.3386 121.724 16.1078 121.676 15.7949ZM120.753 9.83638L118.912 12.7918H121.21L120.753 9.83638Z"
                        fill="#353A42"
                      />
                      <path
                        d="M20.8629 0.430664H4.4632C4.32783 0.430664 4.21073 0.525023 4.18181 0.657304L2.78905 7.05088C2.74103 7.27219 2.95475 7.45979 3.16792 7.3834L20.9604 0.989554C21.2643 0.880584 21.1856 0.430664 20.8629 0.430664Z"
                        fill="#353A42"
                      />
                      <path
                        d="M2.22141 10.382L0.907873 16.0835C0.84412 16.3607 1.1775 16.5528 1.38505 16.3585L10.5116 7.82064C10.7402 7.60635 10.511 7.23253 10.2164 7.33954L2.40368 10.1758C2.31212 10.2093 2.24332 10.2868 2.22141 10.382Z"
                        fill="#353A42"
                      />
                      <path
                        d="M16.6912 11.4313H21.0208C21.1371 11.4313 21.2233 11.5391 21.1975 11.6526L20.9894 12.5712C20.9703 12.6538 20.8972 12.7125 20.8124 12.7125H16.4008L15.6046 16.1585C15.5757 16.2827 15.465 16.3709 15.3375 16.3709H14.4736C14.2972 16.3709 14.1669 16.2068 14.2063 16.0352L16.1141 7.7347C16.1427 7.61028 16.2534 7.52209 16.3812 7.52209H22.2911C22.4669 7.52209 22.5972 7.68526 22.5588 7.85658L22.3925 8.58961C22.3641 8.71459 22.2532 8.80305 22.1251 8.80305H17.299L16.6912 11.4313Z"
                        fill="#353A42"
                      />
                      <path
                        d="M27.902 16.1487L27.5484 14.3108H23.2562L21.9901 16.247C21.9395 16.3245 21.8533 16.3711 21.7606 16.3711H20.799C20.5797 16.3711 20.4491 16.1262 20.5715 15.944L26.1464 7.64342C26.1975 7.56759 26.2829 7.52209 26.3742 7.52209H27.3257C27.4554 7.52209 27.5675 7.61336 27.5942 7.74031L29.3284 16.0409C29.3641 16.2111 29.2341 16.3711 29.0602 16.3711H28.1713C28.0399 16.3711 27.927 16.2779 27.902 16.1487ZM26.5713 9.25241L24.1015 13.0164H27.2976L26.5713 9.25241Z"
                        fill="#353A42"
                      />
                      <path
                        d="M37.0456 11.8671C37.4064 11.9115 37.7036 12.0786 37.937 12.3693C38.1704 12.66 38.2872 13.0338 38.2872 13.4919C38.2872 14.3108 37.9656 14.9953 37.3228 15.5457C36.6802 16.0959 35.8261 16.3711 34.7605 16.3711H30.8913C30.7152 16.3711 30.5849 16.2074 30.6239 16.0358L30.8247 15.1559L32.3039 8.73705L32.5446 7.73245C32.5738 7.60916 32.6842 7.52209 32.8112 7.52209H36.6361C37.3317 7.52209 37.8842 7.69818 38.2937 8.05037C38.7029 8.40256 38.9079 8.87355 38.9079 9.46362C38.9079 10.0885 38.7116 10.6151 38.3201 11.042C37.928 11.4689 37.5078 11.7267 37.0588 11.8146L37.0456 11.8671ZM34.985 15.1559C35.5486 15.1559 35.9977 15.002 36.3325 14.6936C36.6667 14.3855 36.8344 13.9982 36.8344 13.5315C36.8344 13.2057 36.731 12.9501 36.5237 12.7653C36.317 12.5805 36.0286 12.4878 35.6584 12.4878H32.8589L32.2379 15.1559H34.985ZM35.6983 11.3523C36.2002 11.3523 36.6229 11.1981 36.9664 10.8901C37.3096 10.582 37.4814 10.2076 37.4814 9.76721C37.4814 9.45041 37.3736 9.19933 37.1576 9.01453C36.9422 8.82974 36.6628 8.73705 36.319 8.73705H33.7304L33.1229 11.3523H35.6983Z"
                        fill="#353A42"
                      />
                      <path
                        d="M39.303 16.0352L41.2108 7.7347C41.2395 7.61 41.3501 7.52209 41.4779 7.52209H42.3416C42.5179 7.52209 42.6482 7.68583 42.6089 7.85743L40.7011 16.158C40.6725 16.2827 40.5615 16.3709 40.4337 16.3709H39.5701C39.3937 16.3709 39.2634 16.2068 39.303 16.0352Z"
                        fill="#353A42"
                      />
                      <path
                        d="M51.7 8.67792C52.4707 9.58058 52.7636 10.6745 52.5785 11.9599C52.385 13.3333 51.8037 14.4449 50.835 15.2948C49.8666 16.1446 48.7219 16.5693 47.4016 16.5693C46.0718 16.5693 45.0217 16.1247 44.2513 15.2352C43.4809 14.3461 43.188 13.2499 43.3731 11.9467C43.5579 10.6613 44.1544 9.56935 45.1627 8.67119C46.1709 7.7733 47.2957 7.32422 48.5371 7.32422C49.8756 7.32422 50.9297 7.77555 51.7 8.67792ZM49.8911 14.2977C50.5907 13.6813 51.0072 12.9022 51.1389 11.9599C51.2799 11.0267 51.0925 10.2428 50.5777 9.60923C50.0624 8.97506 49.3735 8.65798 48.5107 8.65798C47.5684 8.65798 46.7478 8.97309 46.0473 9.60248C45.3475 10.2319 44.9273 11.018 44.7863 11.9599C44.6543 12.8842 44.8501 13.6594 45.3739 14.2846C45.8979 14.9097 46.5824 15.222 47.4277 15.222C48.37 15.222 49.1909 14.9137 49.8911 14.2977Z"
                        fill="#353A42"
                      />
                      <path
                        d="M59.2816 16.3709H53.598C53.4216 16.3709 53.291 16.2071 53.3306 16.0352L55.2384 7.7347C55.2671 7.61028 55.378 7.52209 55.5058 7.52209H56.3691C56.5455 7.52209 56.6761 7.68582 56.6362 7.8577L54.9702 15.0896H59.4478C59.6236 15.0896 59.7542 15.2531 59.7152 15.4244L59.5489 16.1574C59.5206 16.2824 59.4096 16.3709 59.2816 16.3709Z"
                        fill="#353A42"
                      />
                      <path
                        d="M67.6601 16.1487L67.3065 14.3108H63.0142L61.7482 16.247C61.6976 16.3245 61.6114 16.3711 61.5187 16.3711H60.5571C60.3377 16.3711 60.2071 16.1262 60.3296 15.944L65.9045 7.64342C65.9556 7.56759 66.041 7.52209 66.1322 7.52209H67.084C67.2135 7.52209 67.3256 7.61336 67.3522 7.74031L69.0865 16.0409C69.1222 16.2111 68.9921 16.3711 68.8183 16.3711H67.9294C67.798 16.3711 67.6851 16.2779 67.6601 16.1487ZM66.3294 9.25241L63.8596 13.0164H67.0559L66.3294 9.25241Z"
                        fill="#353A42"
                      />
                    </svg>