                    <svg
                      width="54"
                      height="24"
                      viewBox="0 0 54 24"
                      fill="none"
                      xmlns="http://www.w3.org/2000/svg"
                    >
                      <path
                        d="M18.0311 11.7847V19.4044C18.0311 21.5085 19.7559 23.2139 21.8838 23.2139C24.0117 23.2139 25.7373 21.5085 25.7373 19.4044V11.7847C25.7373 9.68061 24.0117 7.97517 21.8838 7.97517C19.7559 7.97517 18.0311 9.68139 18.0311 11.7847ZM25.7373 4.16569C25.7373 6.26973 24.0117 7.97517 21.8838 7.97517C19.7559 7.97517 18.0311 6.26973 18.0311 4.16569C18.0311 2.06164 19.7559 0.356201 21.8838 0.356201C24.0117 0.356201 25.7373 2.06164 25.7373 4.16569ZM11.6322 7.97517C9.5043 7.97517 7.7795 9.68061 7.7795 11.7847V4.16569C7.7795 2.06164 6.05471 0.356201 3.92598 0.356201C1.79804 0.356201 0.0732422 2.06164 0.0732422 4.16569V19.4044C0.0732422 21.5085 1.79804 23.2139 3.92598 23.2139H11.6322C13.7602 23.2139 15.485 21.5085 15.485 19.4044V11.7847C15.485 9.68139 13.7602 7.97517 11.6322 7.97517ZM7.77871 17.2245C6.86889 17.2245 6.13059 16.4953 6.13059 15.5949C6.13059 14.6945 6.86889 13.9653 7.77871 13.9653C8.68933 13.9653 9.42684 14.6945 9.42684 15.5949C9.42684 16.4953 8.68933 17.2245 7.77871 17.2245ZM53.9475 4.16569C53.9475 2.06164 52.2219 0.356201 50.094 0.356201C47.966 0.356201 46.2413 2.06164 46.2413 4.16569C46.2413 6.26973 47.966 7.97517 50.094 7.97517C52.2219 7.97517 53.9475 6.26973 53.9475 4.16569ZM39.8369 7.97517C37.709 7.97517 35.9842 9.68061 35.9842 11.7847V4.16569C35.9842 2.06164 34.2594 0.356201 32.1314 0.356201C30.0035 0.356201 28.2787 2.06164 28.2787 4.16569V19.4044C28.2787 21.5085 30.0035 23.2139 32.1314 23.2139H39.8377C41.9656 23.2139 43.6912 21.5085 43.6912 19.4044V11.7847C43.6904 9.68139 41.9656 7.97517 39.8369 7.97517ZM35.9944 17.2245C35.0838 17.2245 34.3463 16.4953 34.3463 15.5949C34.3463 14.6945 35.0846 13.9653 35.9944 13.9653C36.9043 13.9653 37.6426 14.6945 37.6426 15.5949C37.6433 16.4953 36.905 17.2245 35.9944 17.2245ZM50.094 7.97517C52.2219 7.97517 53.9475 9.68061 53.9475 11.7847V19.4044C53.9475 21.5085 52.2219 23.2139 50.094 23.2139C47.966 23.2139 46.2413 21.5085 46.2413 19.4044V11.7847C46.2413 9.68139 47.966 7.97517 50.094 7.97517Z"
                        fill="#353A42"
                      />
                    </svg>