                    <svg
                      xmlns="http://www.w3.org/2000/svg"
                      width="124"
                      height="25"
                      viewBox="0 0 124 25"
                      fill="none"
                    >
                      <path
                        fill-rule="evenodd"
                        clip-rule="evenodd"
                        d="M0.100098 12.5092V24.5951H5.06741H10.0347V21.3819V18.1688L11.6484 16.8034C12.5359 16.0524 13.317 15.4555 13.3845 15.4769C13.4517 15.4984 15.0274 17.5586 16.8859 20.0553L20.265 24.5946L27.7257 24.5948L35.1864 24.5951L35.6489 23.0123L36.1112 21.4296L40.2481 21.4592L44.3851 21.4889L44.8566 23.042L45.3283 24.5951H49.4431C51.8041 24.5951 53.5578 24.5517 53.5578 24.4934C53.5578 24.4124 44.933 1.36049 44.6261 0.621105C44.55 0.43801 44.2327 0.42344 40.3199 0.42344H36.0958L32.6214 9.6928C30.7105 14.7909 29.1158 18.9805 29.0776 19.0031C29.0148 19.0401 21.4898 10.0187 21.4167 9.81874C21.3928 9.75334 31.6497 1.18937 32.4958 0.568245C32.6439 0.459586 31.2774 0.430781 26.0011 0.431571L19.3188 0.432474L14.7799 4.60716C12.2835 6.90324 10.1946 8.78185 10.1378 8.78185C10.0811 8.78185 10.0347 6.9046 10.0347 4.60264V0.42344H5.06741H0.100098V12.5092ZM51.6655 2.28714V4.15084H53.7352H55.8049V14.3729V24.5951H58.7616H61.7184V14.3729V4.15084H63.7881H65.8578V2.28714V0.42344H58.7616H51.6655V2.28714ZM67.2279 12.3683C66.0625 18.9377 65.0851 24.3773 65.0559 24.4561C65.0138 24.5699 65.5266 24.5933 67.5277 24.5691L70.0528 24.5386L70.5276 21.6018L71.0025 18.6651H72.597H74.1916L74.5112 21.4324C74.6869 22.9544 74.8342 24.2887 74.8384 24.3974C74.8457 24.5801 75.0687 24.5951 77.8 24.5951H80.7538L80.6966 24.2844C80.665 24.1135 79.9466 18.8148 79.1 12.5092C78.2536 6.20373 77.5313 0.904839 77.4951 0.734056L77.4294 0.42344L73.3881 0.423667L69.3467 0.423891L67.2279 12.3683ZM82.8886 12.5001V24.5951H84.7809H86.6732V18.9899V13.3848L87.3285 13.4368C87.7278 13.4684 88.1092 13.5772 88.3042 13.7151C88.9795 14.1923 88.9765 14.1667 89.0136 19.597L89.0479 24.5951H90.8763H92.7049L92.7042 19.4275C92.7038 16.133 92.6581 14.1036 92.5781 13.8284C92.4221 13.2921 91.7519 12.5698 91.1163 12.2532C90.8517 12.1214 90.2893 11.9308 89.8664 11.83L89.0977 11.6464L89.8625 11.5025C91.3242 11.2277 92.0996 10.6686 92.5495 9.56472C92.8507 8.82579 92.8602 3.82565 92.5622 2.90837C92.3128 2.14121 91.9021 1.59689 91.2628 1.18688C90.2883 0.561806 89.8673 0.500246 86.2297 0.450661L82.8886 0.405029V12.5001ZM95.4251 1.60943V2.79542H100.46C104.543 2.79542 105.488 2.82332 105.457 2.94282C105.436 3.02403 103.037 7.43897 100.126 12.7541L94.8337 22.4178V23.5064V24.5951H101.871H108.908V23.4091V22.2231H103.586C99.4057 22.2231 98.264 22.1928 98.2657 22.0819C98.2669 22.0043 100.662 17.5695 103.587 12.2269L108.907 2.51304L108.907 1.46824L108.908 0.42344H102.166H95.4251V1.60943ZM111.037 12.5092V24.5951H117.068H123.1V23.7479V22.9008H118.132H113.163L113.194 17.8462L113.225 12.7916L117.63 12.762L122.036 12.7324V11.8867V11.0409H117.601H113.165V6.5793V2.11771H118.074H122.982V1.27058V0.42344H117.009H111.037V12.5092ZM88.6837 4.35833C88.9203 4.58423 88.8158 4.48597 88.9766 4.69696C89.1374 4.90794 89.0167 6.87997 89.0167 6.87997C89.0578 9.29228 88.9696 9.78565 88.4283 10.1692C88.2072 10.3259 87.9084 10.3961 87.423 10.4059L86.7323 10.4196L86.7009 7.28524L86.6694 4.15084H87.4925C88.192 4.15084 88.4472 4.13243 88.6837 4.35833ZM73.1803 9.34751C73.4446 11.9873 73.6887 14.3377 73.7228 14.5706L73.7847 14.9942H72.7188C72.1326 14.9942 71.653 14.948 71.653 14.8915C71.653 14.8351 71.8659 12.5685 72.1261 9.85489C72.3862 7.14123 72.5991 4.81533 72.5991 4.68645C72.5991 3.85717 72.7581 5.13227 73.1803 9.34751ZM41.6139 11.6621C42.267 14.0228 42.8302 16.0433 42.8654 16.1519C42.9251 16.336 42.7503 16.3496 40.3116 16.3496C37.8729 16.3496 37.6981 16.336 37.7579 16.1519C37.8428 15.89 40.191 7.08679 40.2014 6.99191C40.2274 6.75177 40.5537 7.83068 41.6139 11.6621Z"
                        fill="#353A42"
                      />
                    </svg>