<svg width="123" height="35" viewBox="0 0 123 35" fill="none" xmlns="http://www.w3.org/2000/svg">
<path d="M8.55096 29.0643L9.92446 19.9254H7.17746L5.80396 29.0643H0.043457L3.40546 6.54199H9.16596L7.95646 14.598H10.7035L11.913 6.54199H17.6735L14.3115 29.0643H8.55096Z" fill="#353A42"/>
<path d="M26.5295 6.15222C32.372 6.15222 33.7455 12.3025 32.9255 17.8032C32.1055 23.3038 28.887 29.4541 23.0445 29.4541C17.202 29.4541 15.8285 23.3038 16.6485 17.8032C17.4685 12.3025 20.687 6.15222 26.5295 6.15222ZM23.9055 23.7802C26.0785 23.7802 26.8575 19.2108 27.0625 17.8032C27.2675 16.3955 27.862 11.8261 25.689 11.8261C23.516 11.8261 22.737 16.3955 22.532 17.8032C22.327 19.2108 21.7325 23.7802 23.9055 23.7802Z" fill="#353A42"/>
<path d="M37.0049 29.0643H31.9004L35.2624 6.54199H40.7359L43.3189 20.0987L43.3804 20.0337L45.1844 6.54199H50.2889L46.9269 29.0643H41.3919L39.0344 16.0707L38.9729 16.1356" fill="#353A42"/>
<path d="M51.5805 6.54199H62.302L61.5025 11.8477H56.562L56.07 14.9879H60.498L59.6985 20.2936H55.2705L54.758 23.7369H59.6985L58.899 29.0426H48.1775L51.5805 6.54199Z" fill="#353A42"/>
<path d="M63.9829 29.0644L65.4179 19.514L62.0969 6.56372H68.0829L69.0259 13.5153H69.0874L72.1419 6.56372H78.1074L71.1989 19.514L69.7639 29.0644H63.9829Z" fill="#353A42"/>
<path d="M89.444 6.54199H96.2295C99.612 6.54199 103.343 8.10123 102.626 12.9522C102.257 15.4859 100.391 17.4566 97.972 17.4566V17.5216C100.76 17.7598 101.99 19.6222 101.539 22.6324C101.129 25.4044 98.997 29.0426 93.8515 29.0426H86.1025L89.444 6.54199ZM93.052 24.1917C94.323 24.1917 95.553 23.542 95.7785 22.0044C96.004 20.4885 94.9995 19.8605 93.667 19.8605H93.216L92.56 24.1917H93.052ZM94.241 15.291C95.43 15.291 96.5985 14.7929 96.824 13.3203C97.029 11.9777 96.2295 11.4146 95.0405 11.4146H94.4665L93.8925 15.291H94.241Z" fill="#353A42"/>
<path d="M104.799 6.54199H115.52L114.721 11.8477H109.78L109.309 14.9879H113.737L112.937 20.2936H108.509L107.997 23.7369H112.937L112.138 29.0426H101.416L104.799 6.54199Z" fill="#353A42"/>
<path d="M117.898 34.5H79.1938L84.0524 0.5H122.756L117.898 34.5ZM79.9113 33.8503H117.365L122.039 1.14968H84.5854L79.9113 33.8503Z" fill="#353A42"/>
</svg>
