                    <svg
                      xmlns="http://www.w3.org/2000/svg"
                      width="124"
                      height="21"
                      viewBox="0 0 124 21"
                      fill="none"
                    >
                      <path
                        fill-rule="evenodd"
                        clip-rule="evenodd"
                        d="M10.1458 6.42584C11.3231 4.07256 12.4996 2.89551 14.8532 2.89551C18.3867 2.89551 20.0433 5.57809 19.4654 8.29094C18.3915 13.3201 14.0051 15.7029 10.1458 18.103C6.32529 16.0841 2.72717 13.6505 1.09705 9.36376C-0.0534662 6.33849 1.26692 2.89551 5.43922 2.89551C7.79277 2.89551 8.96928 4.07256 10.1458 6.42584Z"
                        fill="#353A42"
                      />
                      <path
                        fill-rule="evenodd"
                        clip-rule="evenodd"
                        d="M121.544 13.7577V10.4637C121.544 10.0111 121.458 9.58753 121.29 9.19179C121.121 8.79551 120.886 8.44854 120.587 8.14979C120.288 7.85077 119.94 7.61713 119.545 7.44672C119.149 7.27739 118.725 7.19245 118.273 7.19245C117.82 7.19245 117.393 7.27739 116.99 7.44672C116.586 7.61713 116.234 7.85077 115.934 8.14979C115.637 8.44854 115.402 8.79551 115.232 9.19179C115.063 9.58753 114.979 10.0111 114.979 10.4637C114.979 10.9157 115.063 11.3441 115.232 11.7468C115.402 12.1511 115.637 12.5029 115.934 12.8014C116.234 13.0996 116.586 13.3344 116.99 13.5034C117.393 13.6736 117.82 13.7577 118.273 13.7577H121.544ZM118.273 5.03691C119.031 5.03691 119.738 5.17838 120.393 5.46051C121.046 5.74319 121.62 6.13035 122.113 6.62362C122.605 7.11582 122.993 7.68974 123.276 8.34351C123.559 8.99807 123.7 9.70382 123.7 10.4637V15.914H118.273C117.53 15.914 116.827 15.7731 116.166 15.491C115.503 15.2075 114.922 14.8158 114.421 14.3153C113.919 13.8156 113.53 13.2333 113.245 12.571C112.964 11.9089 112.823 11.2064 112.823 10.4637C112.823 9.70382 112.964 8.99807 113.245 8.34351C113.53 7.68974 113.919 7.11582 114.421 6.62362C114.922 6.13035 115.503 5.74319 116.166 5.46051C116.827 5.17838 117.53 5.03691 118.273 5.03691ZM110.012 5.03691H112.144V15.914H110.012V5.03691ZM109.357 5.03691V7.19245H108.268C107.816 7.19245 107.391 7.27739 106.995 7.44672C106.6 7.61713 106.253 7.85077 105.954 8.14979C105.655 8.44854 105.421 8.79551 105.251 9.19179C105.081 9.58753 104.997 10.0111 104.997 10.4637V15.914H102.816V10.4637C102.816 9.70382 102.957 8.99807 103.241 8.34351C103.523 7.68974 103.914 7.11582 104.416 6.62362C104.917 6.13035 105.497 5.74319 106.16 5.46051C106.822 5.17838 107.524 5.03691 108.268 5.03691H109.357ZM100.031 13.7577V10.4637C100.031 10.0111 99.9461 9.58753 99.7762 9.19179C99.6066 8.79551 99.373 8.44854 99.0737 8.14979C98.7744 7.85077 98.4285 7.61713 98.0322 7.44672C97.6359 7.27739 97.2123 7.19245 96.7603 7.19245C96.3075 7.19245 95.8799 7.27739 95.4756 7.44672C95.0729 7.61713 94.7219 7.85077 94.4228 8.14979C94.1228 8.44854 93.8891 8.79551 93.72 9.19179C93.5504 9.58753 93.4655 10.0111 93.4655 10.4637C93.4655 10.9157 93.5504 11.3441 93.72 11.7468C93.8891 12.1511 94.1228 12.5029 94.4228 12.8014C94.7219 13.0996 95.0729 13.3344 95.4756 13.5034C95.8799 13.6736 96.3075 13.7577 96.7603 13.7577H100.031ZM96.7603 5.03691C97.5196 5.03691 98.2262 5.17838 98.8797 5.46051C99.5337 5.74319 100.108 6.13035 100.6 6.62362C101.093 7.11582 101.481 7.68974 101.763 8.34351C102.046 8.99807 102.186 9.70382 102.186 10.4637V15.914H96.7603C96.0173 15.914 95.3145 15.7731 94.6517 15.491C93.9901 15.2075 93.409 14.8158 92.9085 14.3153C92.4069 13.8156 92.0165 13.2333 91.7336 12.571C91.4504 11.9089 91.3097 11.2064 91.3097 10.4637C91.3097 9.70382 91.4504 8.99807 91.7336 8.34351C92.0165 7.68974 92.4069 7.11582 92.9085 6.62362C93.409 6.13035 93.9901 5.74319 94.6517 5.46051C95.3145 5.17838 96.0173 5.03691 96.7603 5.03691ZM85.1072 5.03691C85.8674 5.03691 86.5731 5.17838 87.2274 5.46051C87.8814 5.74319 88.4589 6.13035 88.9594 6.62362C89.4599 7.11582 89.8519 7.68974 90.1351 8.34351C90.4172 8.99807 90.5579 9.70382 90.5579 10.4637V15.914H88.4023V10.4637C88.4023 10.0111 88.3174 9.58753 88.1475 9.19179C87.9776 8.79551 87.7448 8.44854 87.445 8.14979C87.1473 7.85077 86.7955 7.61713 86.3912 7.44672C85.9879 7.27739 85.5601 7.19245 85.1072 7.19245C84.6552 7.19245 84.2308 7.27739 83.8353 7.44672C83.4399 7.61713 83.0932 7.85077 82.7939 8.14979C82.4949 8.44854 82.2612 8.79551 82.0905 9.19179C81.9215 9.58753 81.8373 10.0111 81.8373 10.4637V15.914H79.681V10.4637C79.681 10.0111 79.5961 9.58753 79.4262 9.19179C79.2574 8.79551 79.0229 8.44854 78.7245 8.14979C78.4252 7.85077 78.0737 7.61713 77.6693 7.44672C77.2658 7.27739 76.8379 7.19245 76.3862 7.19245C75.9342 7.19245 75.5095 7.27739 75.1151 7.44672C74.7188 7.61713 74.371 7.85077 74.0728 8.14979C73.7735 8.44854 73.5399 8.79551 73.37 9.19179C73.2004 9.58753 73.1163 10.0111 73.1163 10.4637V15.914H70.9597V10.4637C70.9597 9.70382 71.1003 8.99807 71.3836 8.34351C71.6665 7.68974 72.0537 7.11582 72.5461 6.62362C73.0386 6.13035 73.6168 5.74319 74.2781 5.46051C74.9412 5.17838 75.6437 5.03691 76.3862 5.03691C77.2907 5.03691 78.1181 5.23411 78.8692 5.62985C79.6213 6.02586 80.2461 6.56227 80.7466 7.24095C81.2479 6.56227 81.877 6.02586 82.6363 5.62985C83.3954 5.23411 84.2193 5.03691 85.1072 5.03691ZM70.3541 5.03691V10.4637C70.3541 11.2064 70.2127 11.9089 69.9289 12.571C69.6468 13.2333 69.2561 13.8156 68.7548 14.3153C68.2543 14.8158 67.6769 15.2075 67.0221 15.491C66.3697 15.7731 65.6621 15.914 64.9035 15.914C64.1597 15.914 63.458 15.7731 62.7957 15.491C62.1333 15.2075 61.5562 14.8158 61.0629 14.3153C60.5705 13.8156 60.1833 13.2333 59.9001 12.571C59.6179 11.9089 59.4773 11.2064 59.4773 10.4637V5.03691H61.6331V10.4637C61.6331 10.9157 61.7178 11.3441 61.8868 11.7468C62.0567 12.1511 62.2903 12.5029 62.5894 12.8014C62.8886 13.0996 63.2364 13.3344 63.6308 13.5034C64.0271 13.6736 64.4507 13.7577 64.9035 13.7577C65.3555 13.7577 65.7842 13.6736 66.1875 13.5034C66.591 13.3344 66.942 13.0996 67.2405 12.8014C67.5395 12.5029 67.7747 12.1511 67.943 11.7468C68.1129 11.3441 68.197 10.9157 68.197 10.4637V5.03691H70.3541ZM57.5867 2.83233C57.135 2.83233 56.7071 2.91646 56.303 3.08607C55.8987 3.25567 55.5485 3.49011 55.2484 3.78859C54.9502 4.08761 54.7158 4.43485 54.5467 4.83086C54.3777 5.22661 54.2919 5.65048 54.2919 6.10249V7.21764H58.6534V9.37292H54.2919V15.914H52.1356V6.10249C52.1356 5.34369 52.277 4.63661 52.56 3.98258C52.8429 3.32828 53.2344 2.75516 53.7341 2.26216C54.2354 1.77023 54.8176 1.38306 55.4789 1.10039C56.1412 0.816914 56.8437 0.67598 57.5867 0.67598H58.6534V2.83233H57.5867ZM51.4823 5.03691V7.19245H50.3913C49.9396 7.19245 49.5157 7.27739 49.1202 7.44672C48.7234 7.61713 48.3772 7.85077 48.0774 8.14979C47.7797 8.44854 47.5453 8.79551 47.3754 9.19179C47.2063 9.58753 47.1209 10.0111 47.1209 10.4637V15.914H44.9409V10.4637C44.9409 9.70382 45.0824 8.99807 45.3646 8.34351C45.6475 7.68974 46.0389 7.11582 46.5403 6.62362C47.0408 6.13035 47.6214 5.74319 48.2835 5.46051C48.9458 5.17838 49.6491 5.03691 50.3913 5.03691H51.4823ZM37.2863 8.18623C36.6392 8.83195 36.3166 9.60736 36.3166 10.5116C36.3166 11.0121 36.4292 11.4885 36.6556 11.9411C36.8503 11.7468 37.1448 11.4521 37.5392 11.0566C37.9355 10.6609 38.3551 10.2416 38.7999 9.79733C39.2436 9.35309 39.6723 8.92948 40.0838 8.52543C40.4962 8.12165 40.8147 7.80629 41.0403 7.58069C40.4265 7.27364 39.7765 7.16861 39.09 7.26533C38.4036 7.36286 37.8021 7.66965 37.2863 8.18623ZM42.6881 12.0868L44.214 13.6125L43.4635 14.3632C42.9462 14.8801 42.3567 15.2766 41.6944 15.5507C41.0323 15.8248 40.3378 15.9623 39.6109 15.9623C38.884 15.9623 38.1903 15.8248 37.528 15.5507C36.8656 15.2766 36.2764 14.8801 35.7588 14.3632C35.2267 13.8306 34.8307 13.2293 34.5726 12.5587C34.3138 11.8883 34.1844 11.2064 34.1844 10.5116C34.1844 9.81742 34.3138 9.13928 34.5726 8.47694C34.8307 7.81433 35.2267 7.21764 35.7588 6.68391C36.2925 6.15099 36.894 5.75122 37.5644 5.4849C38.2337 5.21803 38.9169 5.08514 39.6109 5.08514C40.3054 5.08514 40.9878 5.21803 41.659 5.4849C42.3291 5.75122 42.9301 6.15099 43.4635 6.68391L44.214 7.4344L38.182 13.467C38.7958 13.7746 39.4459 13.8753 40.1323 13.7703C40.8179 13.6655 41.4197 13.3542 41.9363 12.8371L42.6881 12.0868ZM28.0071 13.8067C28.4591 13.8067 28.8868 13.7218 29.2911 13.5522C29.6954 13.3828 30.0456 13.1484 30.3446 12.8497C30.6431 12.5509 30.8783 12.1996 31.0463 11.7961C31.217 11.3924 31.3011 10.9642 31.3011 10.5116C31.3011 10.0596 31.217 9.63603 31.0463 9.23975C30.8783 8.84455 30.6431 8.49623 30.3446 8.19828C30.0456 7.89927 29.6954 7.66509 29.2911 7.49576C28.8868 7.32562 28.4591 7.24095 28.0071 7.24095C27.5543 7.24095 27.1312 7.32562 26.7352 7.49576C26.3398 7.66509 25.9922 7.89927 25.693 8.19828C25.3945 8.49623 25.1608 8.84455 24.9902 9.23975C24.8214 9.63603 24.7356 10.0596 24.7356 10.5116V13.8067H28.0071ZM28.0071 5.08514C28.7657 5.08514 29.4722 5.22661 30.1262 5.50874C30.7805 5.79222 31.3577 6.17939 31.859 6.67266C32.3587 7.16432 32.7517 7.73743 33.0339 8.39173C33.316 9.04577 33.4577 9.75285 33.4577 10.5116C33.4577 11.2546 33.316 11.958 33.0339 12.6192C32.7517 13.2816 32.3587 13.8627 31.859 14.3632C31.3577 14.8645 30.7805 15.256 30.1262 15.5381C29.4722 15.8208 28.7657 15.9623 28.0071 15.9623H24.7356V20.3237H22.5801V10.5116C22.5801 9.75285 22.7215 9.04577 23.0037 8.39173C23.2874 7.73743 23.6738 7.16432 24.1673 6.67266C24.6595 6.17939 25.2369 5.79222 25.899 5.50874C26.5613 5.22661 27.2631 5.08514 28.0071 5.08514Z"
                        fill="#353A42"
                      />
                    </svg>