<svg width="24" height="24" viewBox="0 0 24 24" fill="none" xmlns="http://www.w3.org/2000/svg">
<path d="M12.1416 0.504883C5.80396 0.504883 0.646484 5.66236 0.646484 12C0.646484 18.3376 5.80396 23.4951 12.1416 23.4951C18.4792 23.4951 23.6367 18.3376 23.6367 12C23.6367 5.66236 18.4792 0.504883 12.1416 0.504883ZM12.1416 1.83104C17.4437 1.83104 22.1592 6.69788 22.1592 12C22.1616 14.2932 21.1117 16.9259 19.6148 18.6632C18.1179 20.4005 15.8354 21.7605 13.567 22.0973V14.7933H16.2952L16.7234 12.022H13.567V10.5085C13.567 9.359 13.9454 8.33689 15.0211 8.33689H16.7502V5.91908C16.4465 5.87789 15.8038 5.78881 14.5891 5.78881C12.0525 5.78881 10.5658 7.12799 10.5658 10.1799V12.022H7.95834V14.7933H10.5658V22.0733C8.32882 21.7051 5.97068 20.1906 4.50453 18.4614C3.03838 16.7322 2.02801 14.2671 2.03061 12C2.03061 6.69788 6.83948 1.83104 12.1416 1.83104Z" fill="white"/>
</svg>
