<svg width="25" height="24" viewBox="0 0 25 24" fill="none" xmlns="http://www.w3.org/2000/svg">
<g clip-path="url(#clip0_91_1182)">
<path d="M5.04199 9.39746H8.38259V19.4477H5.04199V9.39746Z" fill="white"/>
<path d="M6.68999 8.02588H6.71203C7.87742 8.02588 8.6021 7.25384 8.6021 6.2889C8.58007 5.30268 7.87742 4.55249 6.73387 4.55249C5.5905 4.55249 4.84302 5.30268 4.84302 6.2889C4.84302 7.25384 5.56944 8.02588 6.68999 8.02588Z" fill="white"/>
<path d="M13.5714 19.4478V13.8348C13.5714 13.5337 13.5944 13.2352 13.6824 13.0204C13.9242 12.4193 14.473 11.7986 15.3966 11.7986C16.6058 11.7986 17.0887 12.7204 17.0887 14.0708V19.4476H20.4301V13.6844C20.4301 10.5976 18.7818 9.16162 16.583 9.16162C14.808 9.16162 14.0154 10.1386 13.5714 10.8217V10.8545H13.5496C13.5554 10.8437 13.5649 10.8327 13.5714 10.8217V9.39764H10.2295C10.2743 10.3404 10.2295 19.4476 10.2295 19.4476H13.5714V19.4478Z" fill="white"/>
<path d="M23.6058 4.11164C23.475 3.41631 23.2189 2.78234 22.8631 2.27317C22.5072 1.76401 22.0642 1.39752 21.5782 1.21038C20.2502 0.476239 7.38428 0.116558 3.65157 1.23091C3.16555 1.41812 2.72243 1.78473 2.36658 2.29405C2.01073 2.80337 1.75464 3.43751 1.62394 4.13299C1.02421 7.89649 0.978868 16.0328 1.63886 19.8809C1.76965 20.5762 2.02578 21.2102 2.38163 21.7194C2.73747 22.2285 3.18054 22.595 3.66649 22.7822C6.29672 23.6485 18.8011 23.7701 21.5931 22.7822C22.0791 22.595 22.5221 22.2285 22.878 21.7194C23.2338 21.2102 23.49 20.5762 23.6208 19.8809C24.2601 15.7807 24.3054 8.1486 23.6058 4.11164V4.11164Z" stroke="white" stroke-width="1.2" stroke-linecap="round" stroke-linejoin="round"/>
</g>
<defs>
<clipPath id="clip0_91_1182">
<rect width="24" height="24" fill="white" transform="translate(0.636719)"/>
</clipPath>
</defs>
</svg>
