<svg xmlns="http://www.w3.org/2000/svg" width="152" height="20" viewBox="0 0 152 20" fill="none">
  <g clip-path="url(#clip0_220_2603)">
    <path d="M127.516 15.4388C126.516 15.4388 125.702 14.5552 125.702 13.2994V4.55641H129.841V0.0224609H125.725H120.564H117.936V4.55641H120.564V14.1364C120.564 17.5782 122.935 19.9728 126.284 19.9728C127.841 19.9728 129.562 19.2988 130.678 18.3218L129.376 14.8109C129.004 15.1831 128.26 15.4388 127.516 15.4388Z" fill="#5D5D5D"/>
    <path d="M10.4636 15.4394C7.62667 15.4394 5.25516 12.9279 5.25516 9.95151C5.25516 7.04545 7.62667 4.55698 10.417 4.55698C11.8358 4.55698 13.3006 5.20849 14.2539 6.20788C14.6958 4.65031 15.4164 3.16182 16.323 1.83698C14.6958 0.673945 12.7194 0 10.4406 0C4.79031 0 0 4.53395 0 9.95151C0 15.3697 4.76666 19.9503 10.3939 19.9503C12.6958 19.9503 14.6958 19.2527 16.323 18.0903C15.3933 16.7648 14.6958 15.323 14.2539 13.7648C13.3006 14.7885 11.8588 15.4394 10.4636 15.4394Z" fill="#5D5D5D"/>
    <path d="M59.1308 7.39416V19.5317H53.9223V8.55658C53.9223 6.18507 52.4575 4.58081 50.3181 4.58081C48.0623 4.58081 46.3417 6.2081 46.3417 8.2778L46.2956 8.16143V19.5554H40.9011V0.488074H46.2956V2.88324C47.435 1.139 49.5738 0.0462713 52.0387 0.0462713C56.1775 0.023241 59.1308 3.09233 59.1308 7.39416Z" fill="#5D5D5D"/>
    <path d="M60.2007 0.465088H65.8509L70.9897 13.3469L76.0121 0.465088H81.6158L73.4546 19.5318H68.4782L60.2007 0.465088Z" fill="#5D5D5D"/>
    <path d="M17.4393 9.97458C17.4393 4.55641 22.206 0.0224609 27.8793 0.0224609C33.5302 0.0224609 38.2502 4.55641 38.2502 9.97458C38.2502 15.3922 33.5302 19.9728 27.8793 19.9728C22.206 19.9728 17.4393 15.4158 17.4393 9.97458ZM33.1115 9.97458C33.1115 7.02124 30.7163 4.55641 27.8793 4.55641C24.9963 4.55641 22.6011 7.02124 22.6011 9.97458C22.6011 12.9273 24.9963 15.4388 27.8793 15.4388C30.7163 15.4388 33.1115 12.9273 33.1115 9.97458Z" fill="#5D5D5D"/>
    <path d="M95.7303 13.5328L99.1715 17.0437C97.4739 18.811 94.1951 19.997 91.3818 19.997C85.7085 19.997 81.2673 15.8346 81.2673 9.97525C81.2673 4.2316 85.4988 0.0461426 91.0794 0.0461426C97.0552 0.0461426 100.567 4.58067 100.567 11.7655H86.8012C87.4291 13.8352 89.08 15.2304 91.3352 15.2304C92.8467 15.2304 94.7067 14.5328 95.7303 13.5328ZM86.8709 7.88252H95.3812C94.8697 5.99886 93.4745 4.78978 91.2891 4.78978C89.2661 4.78978 87.5685 5.97583 86.8709 7.88252Z" fill="#5D5D5D"/>
    <path d="M115.216 0.0224609V4.55641C111.239 4.55641 108.682 6.83518 108.682 10.4164V19.5309H103.287V0.464281H108.682V3.99883C109.937 1.53398 112.285 0.0224609 115.216 0.0224609Z" fill="#5D5D5D"/>
    <path d="M146.49 13.5328L149.931 17.0437C148.234 18.811 144.955 19.997 142.142 19.997C136.468 19.997 132.027 15.8346 132.027 9.97525C132.027 4.2316 136.259 0.0461426 141.839 0.0461426C147.815 0.0461426 151.326 4.58067 151.326 11.7655H137.561C138.188 13.8352 139.839 15.2304 142.095 15.2304C143.607 15.2304 145.444 14.5328 146.49 13.5328ZM137.631 7.88252H146.141C145.63 5.99886 144.235 4.78978 142.048 4.78978C140.025 4.78978 138.328 5.97583 137.631 7.88252Z" fill="#5D5D5D"/>
  </g>
  <defs>
    <clipPath id="clip0_220_2603">
      <rect width="151.515" height="20" fill="white"/>
    </clipPath>
  </defs>
</svg>