<svg width="178" height="25" viewBox="0 0 178 25" fill="none" xmlns="http://www.w3.org/2000/svg">
<g clip-path="url(#clip0_717_931)">
<path d="M138.331 0.964844L127.806 24.9648H124.411L113.852 0.964844H117.554L126.196 20.6802L134.904 0.964844H138.331Z" fill="white"/>
<path d="M53.8834 16.9085C55.5748 16.3135 56.8783 15.3641 57.7929 14.0618C58.7075 12.7582 59.1648 11.1826 59.1648 9.33144C59.1648 6.72549 58.2734 4.67986 56.4894 3.19455C54.7065 1.70808 52.2603 0.964844 49.1531 0.964844H39.7909V24.9648H43.2211V3.94704H49.0501C51.2219 3.94704 52.8785 4.41012 54.0212 5.33627C55.1638 6.26242 55.7346 7.59376 55.7346 9.33144C55.7346 11.0691 55.1638 12.4063 54.0212 13.344C52.8785 14.2794 51.2219 14.7471 49.0501 14.7471H47.7048V17.6633H49.1543C49.5201 17.6633 50.0225 17.6402 50.6616 17.5939L55.8387 24.9648H59.5758L53.8846 16.9085H53.8834Z" fill="white"/>
<path d="M19.4422 14.629C18.6434 13.6114 17.5459 12.9075 16.1509 12.5197C17.1338 12.0393 17.9164 11.3412 18.4987 10.4266C19.0821 9.51204 19.3739 8.42613 19.3739 7.17004C19.3739 5.22745 18.6249 3.70856 17.1268 2.61223C15.6299 1.51359 13.5102 0.964844 10.7665 0.964844H0V24.9637H11.4518C14.4468 24.9637 16.7263 24.4045 18.2914 23.285C19.859 22.1644 20.6427 20.5633 20.6427 18.483C20.6427 16.9293 20.2422 15.6455 19.4422 14.629ZM15.7029 21.2278C14.7211 21.8669 13.259 22.1864 11.3175 22.1864H3.43023V3.73982H10.4597C12.2194 3.73982 13.5739 4.06629 14.5209 4.71806C15.469 5.36868 15.9437 6.32262 15.9437 7.57986C15.9437 8.83711 15.469 9.7922 14.5209 10.444C13.5739 11.0946 12.2194 11.4199 10.4597 11.4199H7.99035V14.1984H11.3175C15.2247 14.1984 17.1778 15.5355 17.1778 18.2109C17.1778 19.5804 16.6869 20.5865 15.7029 21.2278Z" fill="white"/>
<path d="M89.1836 0.964844H85.7881L74.9186 24.9648H78.4495L81.0346 19.0873L82.2896 16.222L87.4667 4.46106L92.6451 16.222H92.6439L93.8989 19.0873L96.4851 24.9648H100.084L89.1836 0.964844Z" fill="white"/>
<path d="M166.364 0.964844H162.969L152.099 24.9648H155.629L158.215 19.0873L159.47 16.222L164.647 4.46106L169.826 16.222H169.823L171.024 18.9634H171.025L173.666 24.9648H177.265L166.364 0.964844Z" fill="white"/>
</g>
<defs>
<clipPath id="clip0_717_931">
<rect width="177.265" height="24" fill="white" transform="translate(0 0.964844)"/>
</clipPath>
</defs>
</svg>
