<svg xmlns="http://www.w3.org/2000/svg" width="120" height="17" viewBox="0 0 120 17" fill="none">
  <g clip-path="url(#clip0_107_312)">
    <path d="M93.6435 0L86.5189 16.2469H84.2203L77.0721 0H79.5784L85.4287 13.3464L91.3237 0H93.6435Z" fill="white"/>
    <path d="M36.4765 10.7931C37.6215 10.3903 38.5039 9.74765 39.123 8.86599C39.7422 7.98354 40.0517 6.91693 40.0517 5.66379C40.0517 3.89969 39.4483 2.51489 38.2406 1.5094C37.0337 0.503135 35.3777 0 33.2743 0H26.9365V16.2469H29.2586V2.01881H33.2045C34.6748 2.01881 35.7962 2.33229 36.5698 2.95925C37.3433 3.58621 37.7296 4.48746 37.7296 5.66379C37.7296 6.84012 37.3433 7.7453 36.5698 8.38009C35.7962 9.01332 34.6748 9.32994 33.2045 9.32994H32.2939V11.3041H33.2751C33.5227 11.3041 33.8629 11.2884 34.2955 11.2571L37.8002 16.2469H40.3299L36.4773 10.7931H36.4765Z" fill="white"/>
    <path d="M13.1614 9.25C12.6207 8.56113 11.8777 8.08464 10.9334 7.8221C11.5987 7.49686 12.1285 7.02429 12.5227 6.40517C12.9177 5.78605 13.1152 5.05094 13.1152 4.20063C13.1152 2.88558 12.6082 1.85737 11.594 1.1152C10.5807 0.371473 9.14577 0 7.2884 0H0V16.2461H7.75235C9.77978 16.2461 11.3229 15.8676 12.3824 15.1097C13.4436 14.3511 13.9741 13.2672 13.9741 11.8589C13.9741 10.8072 13.703 9.93809 13.1614 9.25ZM10.6301 13.7171C9.96552 14.1497 8.97571 14.366 7.66144 14.366H2.3221V1.87853H7.08072C8.27194 1.87853 9.18887 2.09953 9.82994 2.54075C10.4718 2.98119 10.7931 3.62696 10.7931 4.47806C10.7931 5.32915 10.4718 5.9757 9.82994 6.41693C9.18887 6.85737 8.27194 7.07759 7.08072 7.07759H5.40909V8.95846H7.66144C10.3064 8.95846 11.6285 9.86364 11.6285 11.6748C11.6285 12.6019 11.2962 13.2829 10.6301 13.7171Z" fill="white"/>
    <path d="M60.373 0H58.0745L50.7163 16.2469H53.1066L54.8566 12.268L55.7061 10.3284L59.2108 2.36677L62.7163 10.3284H62.7155L63.5651 12.268L65.3158 16.2469H67.7524L60.373 0Z" fill="white"/>
    <path d="M112.621 0H110.322L102.964 16.2469H105.353L107.104 12.268L107.954 10.3284L111.459 2.36677L114.964 10.3284H114.962L115.775 12.1842H115.776L117.564 16.2469H120L112.621 0Z" fill="white"/>
  </g>
  <defs>
    <clipPath id="clip0_107_312">
      <rect width="120" height="16.2469" fill="white"/>
    </clipPath>
  </defs>
</svg>