<svg xmlns="http://www.w3.org/2000/svg" width="121" height="17" viewBox="0 0 121 17" fill="none">
  <g clip-path="url(#clip0_490_366)">
    <path d="M94.1433 0L87.0187 16.2469H84.7201L77.572 0H80.0783L85.9286 13.3464L91.8236 0H94.1433Z" fill="#21594F"/>
    <path d="M36.9765 10.7931C38.1215 10.3903 39.0039 9.74765 39.623 8.86599C40.2422 7.98354 40.5517 6.91693 40.5517 5.66379C40.5517 3.89969 39.9483 2.51489 38.7406 1.5094C37.5337 0.503135 35.8777 0 33.7743 0H27.4365V16.2469H29.7586V2.01881H33.7045C35.1748 2.01881 36.2962 2.33229 37.0698 2.95925C37.8433 3.58621 38.2296 4.48746 38.2296 5.66379C38.2296 6.84012 37.8433 7.7453 37.0698 8.38009C36.2962 9.01332 35.1748 9.32994 33.7045 9.32994H32.7939V11.3041H33.7751C34.0227 11.3041 34.3629 11.2884 34.7955 11.2571L38.3002 16.2469H40.8299L36.9773 10.7931H36.9765Z" fill="#21594F"/>
    <path d="M13.6614 9.25C13.1207 8.56113 12.3777 8.08464 11.4334 7.8221C12.0987 7.49686 12.6285 7.02429 13.0227 6.40517C13.4177 5.78605 13.6152 5.05094 13.6152 4.20063C13.6152 2.88558 13.1082 1.85737 12.094 1.1152C11.0807 0.371473 9.64577 0 7.7884 0H0.5V16.2461H8.25235C10.2798 16.2461 11.8229 15.8676 12.8824 15.1097C13.9436 14.3511 14.4741 13.2672 14.4741 11.8589C14.4741 10.8072 14.203 9.93809 13.6614 9.25ZM11.1301 13.7171C10.4655 14.1497 9.47571 14.366 8.16144 14.366H2.8221V1.87853H7.58072C8.77194 1.87853 9.68887 2.09953 10.3299 2.54075C10.9718 2.98119 11.2931 3.62696 11.2931 4.47806C11.2931 5.32915 10.9718 5.9757 10.3299 6.41693C9.68887 6.85737 8.77194 7.07759 7.58072 7.07759H5.90909V8.95846H8.16144C10.8064 8.95846 12.1285 9.86364 12.1285 11.6748C12.1285 12.6019 11.7962 13.2829 11.1301 13.7171Z" fill="#21594F"/>
    <path d="M60.873 0H58.5745L51.2163 16.2469H53.6066L55.3566 12.268L56.2061 10.3284L59.7108 2.36677L63.2163 10.3284H63.2155L64.0651 12.268L65.8158 16.2469H68.2524L60.873 0Z" fill="#21594F"/>
    <path d="M113.121 0H110.822L103.464 16.2469H105.853L107.604 12.268L108.454 10.3284L111.958 2.36677L115.464 10.3284H115.462L116.275 12.1842H116.276L118.063 16.2469H120.5L113.121 0Z" fill="#21594F"/>
  </g>
  <defs>
    <clipPath id="clip0_490_366">
      <rect width="120" height="16.2469" fill="white" transform="translate(0.5)"/>
    </clipPath>
  </defs>
</svg>