<svg width="45" height="45" viewBox="0 0 45 45" fill="none" xmlns="http://www.w3.org/2000/svg">
<rect width="45" height="45" rx="22.5" fill="#10C144"/>
<path d="M31.4535 14.4886C29.1968 12.2403 26.1946 11.0013 22.9995 11C19.8114 11 16.8045 12.2379 14.5329 14.4857C12.2573 16.7373 11.0029 19.7295 11 22.9003V22.904V22.9062C11.0004 24.8253 11.5046 26.7613 12.4617 28.5285L11.0328 35.0231L17.6022 33.5288C19.266 34.3673 21.1225 34.8094 22.9949 34.8101H22.9996C26.1871 34.8101 29.194 33.5721 31.466 31.3241C33.7436 29.0707 34.9985 26.0822 35 22.9095C35.0009 19.759 33.7416 16.7684 31.4535 14.4886ZM22.9995 32.9352H22.9952C21.314 32.9344 19.6481 32.5123 18.178 31.7141L17.8674 31.5455L13.499 32.5391L14.4479 28.2268L14.265 27.9114C13.3555 26.3431 12.875 24.6118 12.875 22.9041C12.8785 17.3769 17.4198 12.875 22.9991 12.875C25.6944 12.8761 28.227 13.921 30.1302 15.8168C32.0622 17.742 33.1258 20.2607 33.1248 22.9089C33.1226 28.4374 28.5804 32.9352 22.9995 32.9352Z" fill="white"/>
<path d="M19.7344 17.6562H19.2084C19.0253 17.6562 18.728 17.7248 18.4765 17.9984C18.2249 18.2723 17.5157 18.9341 17.5157 20.2801C17.5157 21.6261 18.4994 22.9267 18.6365 23.1094C18.7738 23.292 20.5353 26.1424 23.3252 27.2389C25.6439 28.1502 26.1159 27.969 26.619 27.9233C27.1223 27.8779 28.243 27.2617 28.4718 26.6229C28.7005 25.9842 28.7005 25.4366 28.632 25.3222C28.5632 25.2082 28.3801 25.1398 28.1058 25.0031C27.8312 24.8662 26.4859 24.1932 26.2343 24.1017C25.9826 24.0106 25.7997 23.965 25.6166 24.239C25.4335 24.5125 24.8945 25.1451 24.7343 25.3277C24.5743 25.5104 24.4141 25.5333 24.1395 25.3964C23.865 25.2591 22.99 24.9652 21.9414 24.0334C21.1253 23.3081 20.559 22.3833 20.3988 22.1094C20.2388 21.8358 20.3817 21.6877 20.5194 21.5512C20.6427 21.4287 20.8093 21.2612 20.9466 21.1016C21.0837 20.9418 21.1227 20.8278 21.2144 20.6452C21.3058 20.4627 21.26 20.3028 21.1915 20.1661C21.1227 20.0292 20.596 18.6764 20.3518 18.1353H20.352C20.1464 17.6797 19.9299 17.6643 19.7344 17.6562Z" fill="white"/>
</svg>
