<svg width="108" height="30" viewBox="0 0 108 30" fill="none" xmlns="http://www.w3.org/2000/svg">
<g clip-path="url(#clip0_197_954)">
<path d="M100.858 6.5306L104.986 8.4068V7.11652L100.851 4.06592L96.7046 7.1399L96.7057 8.43101L100.858 6.5306Z" fill="#B9B9B9"/>
<path d="M27.8257 9.19165C27.1071 9.19165 26.3664 9.29662 25.6822 9.49421C23.2229 10.206 21.0876 12.0781 19.9711 14.5002C19.205 16.1039 18.8399 17.9859 18.913 19.9505H18.9072L18.9162 20.1055C19.1492 24.0672 21.2582 27.4896 24.4181 29.0357C24.8882 29.2658 26.3205 29.9659 28.1301 29.9659C29.0037 29.9659 29.8708 29.805 30.7067 29.4867C32.1521 28.9365 33.3695 27.9914 34.3399 26.6627L34.3743 26.6186V26.6136L34.385 26.6002V24.2122L34.1324 24.509C32.8387 26.0243 31.0873 26.8928 29.3261 26.8928C26.8011 26.8928 24.7692 25.1858 23.8907 22.3252C23.51 21.0866 23.3369 19.8614 23.3763 18.6836C23.3911 18.236 23.4239 17.7834 23.4747 17.3358H34.3858V17.1891C34.3866 9.76844 29.3646 9.19165 27.8257 9.19165ZM23.6364 15.4271C23.7241 14.9445 23.8529 14.4902 24.0211 14.0726C24.5641 12.6765 25.4673 11.6629 26.7076 11.0612C27.1309 10.8545 27.5756 10.7461 27.9923 10.7461C29.7272 10.7461 30.7748 12.4923 30.8084 15.4271H23.6364Z" fill="#B9B9B9"/>
<path d="M64.3926 9.19165C63.6751 9.19165 62.9343 9.29662 62.2503 9.49421C59.7907 10.206 57.6545 12.0781 56.5391 14.5002C55.7729 16.1039 55.4078 17.9859 55.4808 19.9505H55.4751L55.4841 20.1055C55.717 24.068 57.826 27.4896 60.9862 29.0357C61.456 29.2658 62.8875 29.9659 64.6981 29.9659C65.5714 29.9659 66.4386 29.805 67.2746 29.4867C68.72 28.9365 69.9373 27.9914 70.9085 26.6602L70.9536 26.6019V24.2114L70.7009 24.5081C69.4074 26.0234 67.6558 26.8919 65.8948 26.8919C63.3695 26.8919 61.338 25.1849 60.4592 22.3244C60.0785 21.0866 59.9048 19.8614 59.9443 18.6828C59.9599 18.2327 59.9933 17.7801 60.0428 17.335H70.9536V17.1883C70.9547 9.76844 65.9326 9.19165 64.3926 9.19165ZM60.2042 15.4271C60.2911 14.947 60.4202 14.4919 60.5888 14.0726C61.131 12.6773 62.0343 11.6638 63.2749 11.0612C63.6979 10.8545 64.1415 10.7461 64.5601 10.7461C66.295 10.7461 67.3425 12.4923 67.3764 15.4271H60.2042Z" fill="#B9B9B9"/>
<path d="M107.459 17.3366V17.19C107.459 9.76844 102.437 9.19165 100.898 9.19165C100.181 9.19165 99.4399 9.29662 98.7559 9.49421C96.2963 10.2052 94.1613 12.0781 93.0436 14.5002C92.2783 16.1031 91.9132 17.9843 91.9856 19.9505H91.98L91.9889 20.1055C92.2232 24.068 94.3316 27.4896 97.4913 29.0357C97.9616 29.2658 99.3932 29.9659 101.203 29.9659C102.076 29.9659 102.944 29.805 103.78 29.4867C105.226 28.9365 106.443 27.9914 107.412 26.6627L107.447 26.6186V26.6136L107.458 26.6002V24.2122L107.204 24.509C105.912 26.0243 104.16 26.8928 102.399 26.8928C99.8746 26.8928 97.8425 25.1858 96.9631 22.3252C96.5824 21.0866 96.4093 19.8614 96.4488 18.6836C96.4639 18.2402 96.4967 17.7876 96.5473 17.3358H107.459V17.3366ZM97.0945 14.0726C97.6377 12.6773 98.5405 11.6638 99.7811 11.0612C100.204 10.8545 100.648 10.7461 101.066 10.7461C102.802 10.7461 103.849 12.4923 103.883 15.4271H96.7104C96.7967 14.9478 96.9253 14.4927 97.0945 14.0726Z" fill="#B9B9B9"/>
<path d="M8.36069 9.19697C7.08672 9.19697 5.83821 9.55787 5.06793 10.133V0.0317383H0.594727V29.0353L0.868713 29.0086C1.08856 28.9869 1.26411 28.9694 1.47493 28.9694C1.59633 28.9694 1.73005 28.9752 1.89001 28.9886C3.27717 29.1186 4.02038 29.3353 4.67663 29.5253C5.48957 29.7612 6.19179 29.9654 7.79632 29.9654C13.2317 29.9654 16.1037 26.3347 16.1037 19.4666C16.1037 14.5031 14.0693 9.19697 8.36069 9.19697ZM7.09001 28.4226C6.40179 28.4226 5.73485 28.1275 5.11878 27.5532C5.08351 27.5133 5.07449 27.5033 5.06793 27.3716V12.1093C5.07613 11.8483 5.07613 11.8483 5.13847 11.7842C5.77914 11.1974 6.55351 11.0748 7.09084 11.0748C9.59442 11.0748 11.6313 14.9657 11.6313 19.7483C11.6305 24.5318 9.59364 28.4226 7.09001 28.4226Z" fill="#B9B9B9"/>
<path d="M44.9403 9.19697C43.6663 9.19697 42.417 9.55787 41.6475 10.133V0.0317383H37.1743V29.0353L37.4483 29.0086C37.6682 28.9869 37.8437 28.9694 38.0546 28.9694C38.1759 28.9694 38.3096 28.9752 38.4696 28.9886C39.8568 29.1186 40.6 29.3353 41.257 29.5253C42.07 29.7612 42.7722 29.9654 44.3759 29.9654C49.8113 29.9654 52.6833 26.3347 52.6833 19.4666C52.6833 14.5031 50.6489 9.19697 44.9403 9.19697ZM43.6696 28.4226C42.9814 28.4226 42.3144 28.1275 41.6984 27.5532C41.6631 27.5133 41.6541 27.5033 41.6484 27.3716V12.1076C41.6566 11.8483 41.6566 11.8483 41.7181 11.785C42.3588 11.1982 43.1331 11.0757 43.6705 11.0757C46.174 11.0757 48.2109 14.9665 48.2109 19.7491C48.2101 24.5318 46.1733 28.4226 43.6696 28.4226Z" fill="#B9B9B9"/>
<path d="M85.5601 9.64711C85.1688 9.51292 84.1102 9.20117 82.756 9.20117C81.1508 9.20117 79.6714 9.62462 78.3607 10.4589C75.1247 12.5202 73.7171 16.2177 73.7583 18.9674C73.7588 19.0283 73.7572 19.1249 73.7555 19.2399C73.7521 19.435 73.7471 19.6817 73.7533 19.9034H73.7466L73.7555 20.0584C73.9904 24.0276 76.1015 27.455 79.2662 29.0045C79.7371 29.2353 81.172 29.9363 82.9848 29.9363C83.8592 29.9363 84.728 29.7746 85.5662 29.4562C87.015 28.9044 88.2351 27.9584 89.2236 26.6006L89.2514 26.5623V23.58L88.9842 24.0068C88.5189 24.7486 87.9518 25.3629 87.3156 25.8321C86.6499 26.3331 85.9097 26.6723 85.1227 26.8207L85.0085 26.8473C84.7431 26.8932 84.4803 26.9157 84.2271 26.9157C83.9967 26.9157 83.7551 26.8932 83.4696 26.8465L83.341 26.8182C82.5512 26.6715 81.816 26.3256 81.1603 25.8321C79.3959 24.5302 78.2232 22.1505 78.2238 19.4766L78.2204 19.3866L78.2249 19.3591C78.2249 19.3558 78.2249 19.3525 78.2249 19.3491L78.2215 19.2575L78.2249 19.2349L78.2238 19.0591C78.2238 19.0549 78.2249 19.0507 78.2249 19.0457L78.2238 18.9224C78.2238 18.7998 78.231 18.684 78.2427 18.5665C78.2828 17.8063 78.4124 17.0987 78.629 16.4586C79.515 13.5046 81.7653 11.5209 84.2288 11.5209C85.4844 11.5209 86.6983 12.0759 87.6451 13.0853C88.2852 13.7671 88.9759 14.9582 88.9831 14.9707L89.252 15.4408V12.3127L89.2197 12.2719C88.3041 11.1341 87.3317 10.2539 85.5601 9.64711Z" fill="#B9B9B9"/>
</g>
<defs>
<clipPath id="clip0_197_954">
<rect width="106.92" height="30" fill="white" transform="translate(0.540039)"/>
</clipPath>
</defs>
</svg>
