<svg width="102" height="30" viewBox="0 0 102 30" fill="none" xmlns="http://www.w3.org/2000/svg">
<g clip-path="url(#clip0_197_974)">
<path d="M76.2575 0.0777953C75.738 0.177662 75.2443 0.460142 74.7654 0.925237C74.2864 1.39033 74.0464 1.73273 73.3733 2.93968L72.988 3.62734L72.5317 3.70437C71.9527 3.80139 71.3564 3.86987 71.1022 3.86987C70.7227 3.86702 70.3606 3.75003 70.1412 3.55601C70.0127 3.44473 69.8701 3.17081 69.8443 2.98534C69.8159 2.79987 69.7591 2.75137 69.6448 2.81414C69.5333 2.87691 69.4217 3.05382 69.3448 3.28494C69.2912 3.44758 69.2796 3.5446 69.2822 3.79854C69.2822 4.2351 69.3996 4.61744 69.6217 4.92845L69.7185 5.06542L69.6333 5.03403C69.4938 4.98552 69.2938 4.8343 69.2027 4.7059C69.1538 4.64027 69.0912 4.50616 69.0622 4.4063L69.0085 4.22654L69.0259 4.43768C69.0485 4.73728 69.1254 4.9256 69.3138 5.12819C69.5022 5.33076 69.807 5.49055 70.1638 5.57329C70.4464 5.63608 71.3448 5.64466 71.7127 5.58755C71.8443 5.56761 71.958 5.55618 71.9638 5.56192C71.9722 5.56761 71.8412 5.85866 71.6759 6.20676C71.2022 7.2054 70.9485 7.82745 70.6833 8.65492C70.3896 9.5594 70.1522 10.5752 70.047 11.3941L69.9985 11.7736L69.7648 12.0647C68.5464 13.5997 67.0085 14.7039 66.0101 14.7639C65.8733 14.7696 65.7164 14.7696 65.6564 14.7581C65.4201 14.7125 65.1548 14.3273 65.1459 14.0192L65.1433 13.8765L65.2912 13.828C66.698 13.343 68.2438 11.8392 69.097 10.1187C69.3054 9.70208 69.468 9.28261 69.5506 8.96308L69.6017 8.76334L69.6217 8.87461C69.6533 9.03155 69.6191 9.41103 69.5506 9.6764C69.4906 9.9075 69.2622 10.4182 69.1506 10.5752C69.117 10.6237 69.097 10.6608 69.1085 10.6608C69.1401 10.6608 69.4738 10.1272 69.5822 9.90182C69.6417 9.7734 69.7275 9.55655 69.7706 9.41676C69.8417 9.18276 69.8475 9.12571 69.8475 8.64919C69.8501 8.07282 69.8275 7.94445 69.6359 7.5364C69.3196 6.85155 68.7027 6.39792 67.9501 6.29519C67.6564 6.25524 67.3712 6.27524 67.0027 6.3694C66.658 6.45497 66.4754 6.53487 66.1754 6.73176C65.0001 7.49645 63.7422 9.14282 63.1233 10.7179C62.858 11.3941 62.6464 12.2843 62.6464 12.7323C62.6464 12.952 62.6354 12.9577 62.3585 12.9007C62.2275 12.875 62.0275 12.8151 61.9133 12.7666C61.7996 12.7209 61.6943 12.6896 61.677 12.7009C61.6254 12.7323 61.6454 12.8693 61.7338 13.0547C61.8538 13.3059 62.1333 13.5797 62.4243 13.7252C62.547 13.788 62.6412 13.8422 62.638 13.848C62.6322 13.8537 62.5301 13.8309 62.4101 13.8023C62.1475 13.7338 61.9133 13.6226 61.7622 13.4913C61.6227 13.3743 61.617 13.3858 61.748 13.5426C61.9564 13.7938 62.2448 13.9792 62.5896 14.0848L62.7438 14.1333L62.8896 14.5584C63.3485 15.8938 64.0875 16.6357 65.1317 16.7983C65.4054 16.8411 65.9301 16.8126 66.227 16.7412C67.1317 16.5216 68.1385 15.9081 69.0227 15.0435L69.3364 14.7382L69.0938 14.9437C68.5664 15.3888 67.9533 15.7797 67.4391 15.9937C67.1854 16.0992 66.7033 16.2533 66.6291 16.2533C66.6117 16.2533 66.7317 16.182 66.8943 16.0964C67.8785 15.5771 68.8517 14.7039 69.6875 13.594L69.9159 13.2859L69.9359 13.5369C70.0127 14.6241 70.2296 15.3944 70.6201 15.9851C70.8938 16.396 71.2591 16.6785 71.6475 16.7812C71.8896 16.8439 71.9638 16.8326 71.7643 16.7641C71.4964 16.6728 71.2848 16.5016 71.0738 16.2105L70.9912 16.0964L71.0996 16.1763C71.2648 16.299 71.5501 16.4246 71.7443 16.4559C72.1406 16.5187 72.5659 16.3475 72.6912 16.0707C72.788 15.8567 72.7517 15.7911 72.5006 15.7397C72.3006 15.6969 72.1354 15.5571 72.0096 15.3202C71.8675 15.0492 71.8301 14.878 71.8127 14.4414C71.7617 13.1118 72.3517 10.9347 73.4733 8.30682C73.8385 7.45366 74.2548 6.56629 74.5169 6.08118C74.6285 5.87576 74.7196 5.68171 74.7196 5.64466C74.7227 5.54761 74.6138 5.44776 74.3748 5.33076L74.1633 5.22806L74.417 5.1767C75.4527 4.97126 76.4601 4.73157 77.427 4.45766C79.3612 3.90696 80.3964 3.79854 80.9527 4.07816C81.3064 4.25793 81.5064 4.4919 81.5659 4.80006C81.638 5.1767 81.7464 5.12534 82.1454 4.52614C82.4448 4.07816 82.6075 3.70437 82.7469 3.14227L82.7669 3.05667L82.8043 3.17081C82.8817 3.41904 82.8217 3.8927 82.6733 4.18088C82.6422 4.24651 82.6222 4.29787 82.6306 4.29787C82.6675 4.29787 82.9043 3.75289 82.9612 3.54174C83.0438 3.22216 83.0438 2.78275 82.9612 2.52595C82.7391 1.82688 82.0596 1.46166 81.067 1.51017C80.2543 1.54726 79.438 1.76696 77.0306 2.60014C76.7254 2.70286 76.4717 2.78275 76.4627 2.77704C76.4143 2.72568 76.8791 1.99524 77.1443 1.71561C77.4585 1.37891 77.6638 1.30473 77.8322 1.46737C78.0291 1.65854 78.1717 1.54726 78.1117 1.25051C78.0375 0.876727 77.6496 0.371688 77.3096 0.209048C76.9964 0.0578221 76.6022 0.00931527 76.2575 0.0777953ZM67.8417 9.04008C68.0327 9.74771 67.1285 11.2771 66.0417 12.0903C65.7822 12.2872 65.3943 12.524 65.3596 12.5097C65.3227 12.4983 65.4827 12.1131 65.7106 11.6623C66.1043 10.8805 66.7633 9.91034 67.2564 9.37966C67.4764 9.14566 67.7333 8.92024 67.7848 8.92024C67.7959 8.92024 67.8217 8.97445 67.8417 9.04008Z" fill="#B9B9B9"/>
<path d="M63.9015 0.534461C63.1452 0.73134 62.3868 1.34481 61.591 2.40053C60.7668 3.49907 60.2131 4.63184 58.6183 8.49237C57.9194 10.1844 57.7026 10.6838 57.2462 11.6739C56.8668 12.4985 56.7468 12.7439 56.7268 12.7439C56.7215 12.7439 56.5699 12.6497 56.3931 12.5327C54.8525 11.5255 53.1836 10.9206 51.3638 10.7123C50.9416 10.6638 49.5751 10.6638 49.1387 10.7123C46.8707 10.9634 44.8082 11.8451 43.0651 13.3117C42.7456 13.5799 42.7883 13.6198 42.7057 12.9721C42.5259 11.5369 42.563 10.2158 42.8054 9.29705C43.0508 8.36684 43.4474 7.75905 44.0721 7.35679C44.346 7.17705 44.5799 7.10852 44.9023 7.10852C45.2218 7.10852 45.3073 7.14274 45.5042 7.35389C45.6611 7.52231 45.7723 7.54221 45.8722 7.41668C45.9464 7.32258 45.935 7.22268 45.8151 6.963C45.6212 6.535 45.1647 6.0271 44.7311 5.75605L44.4887 5.60484L44.6256 5.62195C44.8167 5.64479 45.1334 5.75889 45.3217 5.873C45.4101 5.92442 45.5841 6.06421 45.7096 6.18116L45.9407 6.39521L45.8094 6.224C45.6554 6.02142 45.3102 5.68758 45.1191 5.55631C44.9251 5.42221 44.4943 5.22533 44.2604 5.16542C43.958 5.08552 43.3932 5.09408 43.0793 5.17683C41.9411 5.485 40.9113 6.57784 40.4434 7.97879C40.3236 8.33831 40.2123 8.85194 40.1639 9.26284C40.1211 9.65658 40.1211 10.5554 40.1667 11.0034L40.2009 11.36L40.0954 11.788C39.6446 13.6027 38.746 15.2833 37.6306 16.3962C37.2055 16.8184 36.8661 17.0524 36.6749 17.0524C36.2299 17.0524 36.6549 15.1321 37.5308 13.1862C37.8731 12.4243 38.2411 11.7538 38.6719 11.0946C38.8202 10.8721 38.94 10.6752 38.94 10.6581C38.94 10.6438 38.9086 10.5811 38.8715 10.5212C38.5178 9.96474 37.7818 9.45968 37.3139 9.45684C36.9659 9.45395 36.7833 9.62521 36.4296 10.2985L36.2955 10.5497L36.2213 10.4384C36.0644 10.1987 35.5509 9.89337 35.103 9.77352C34.7949 9.69079 34.2501 9.6851 33.9619 9.75931C33.417 9.90484 32.9007 10.2301 32.3672 10.7636C31.2204 11.9078 30.2591 13.7825 29.9681 15.4403C29.834 16.2049 29.9053 17.255 30.1392 17.9512C30.4359 18.8386 30.9551 19.2923 31.7111 19.3293C32.3787 19.3607 32.9179 19.1125 33.5483 18.4762C33.6823 18.3421 33.8535 18.1509 33.9334 18.0482L34.0732 17.8656L33.8421 18.0825C33.6054 18.3107 33.2944 18.5333 33.0491 18.6559C32.7695 18.7986 32.7695 18.7758 33.0548 18.4876C33.6025 17.9426 34.1759 17.1266 34.5924 16.3076L34.7037 16.0908V16.7214C34.7065 17.2664 34.7151 17.3891 34.7664 17.6145C34.9033 18.1937 35.1059 18.5333 35.4482 18.7615C35.7678 18.9784 35.976 19.0326 36.4096 19.0126C36.7662 18.9984 36.9887 18.9442 37.274 18.7986C37.565 18.6503 38.1641 18.111 38.4551 17.7372C38.5492 17.6145 38.5435 17.6174 38.3552 17.7885C37.9558 18.1538 37.5479 18.3992 37.2398 18.4648C37.0714 18.4991 36.9887 18.5018 37.0315 18.4705C38.2639 17.5346 39.3736 15.9881 40.0754 14.2247C40.2237 13.8538 40.4349 13.2175 40.4691 13.0435C40.4776 12.9892 40.4948 12.9436 40.5062 12.9436C40.5176 12.9436 40.5489 13.0435 40.5775 13.1633C40.6345 13.4144 40.9512 14.3988 41.0967 14.7783C41.1509 14.9181 41.1937 15.0465 41.1937 15.0665C41.1937 15.0836 41.0853 15.2405 40.9512 15.4117C40.1153 16.4846 39.4107 17.8085 39.0969 18.8871C38.8031 19.8972 38.7774 20.9072 39.0284 21.6605C39.2481 22.3168 39.5962 22.7048 40.2665 23.0444C40.6602 23.2441 40.8399 23.284 41.2935 23.2812C41.7014 23.2812 41.9325 23.2384 42.3063 23.1043C42.7827 22.9274 43.1479 22.6848 43.55 22.2683C44.0921 21.7062 44.463 20.9928 44.6484 20.1568C44.7169 19.8487 44.7511 18.9727 44.7083 18.6931C44.6826 18.5333 44.6798 18.5475 44.6769 18.8785C44.6683 19.706 44.4259 20.4764 43.9694 21.1098C43.881 21.2325 43.804 21.3324 43.7983 21.3324C43.7926 21.3324 43.8468 21.2154 43.9209 21.0727C44.2033 20.5078 44.3175 20.0142 44.3146 19.3493C44.3118 18.83 44.2547 18.4905 44.0322 17.7087C43.8895 17.2065 43.1364 15.0094 43.0822 14.9409C43.068 14.9238 42.971 15.0351 42.4061 15.7113C41.7757 16.4675 41.7158 16.5588 42.1237 16.1622C42.4432 15.8483 42.8425 15.4973 43.0337 15.3604C43.0822 15.3262 42.9738 15.4574 42.7941 15.6543C42.4774 16.0052 42.0695 16.496 41.9211 16.71L41.847 16.8184L41.9097 17.1865C41.9982 17.6858 41.9982 18.4562 41.9126 18.9356C41.7642 19.7517 41.5189 20.3309 41.1538 20.7275C40.9483 20.9472 40.7971 21.0556 40.6003 21.1184C40.4063 21.1812 40.2808 21.1583 40.1353 21.0271C39.813 20.736 39.676 20.0142 39.8072 19.278C40.0183 18.0853 41.0339 16.3305 42.2349 15.0864C43.8724 13.3887 45.7438 12.2759 47.6038 11.8907C47.9832 11.8137 48.0545 11.8165 47.775 11.9021C46.7081 12.2303 45.6383 12.8238 44.5257 13.7083C44.3545 13.8424 44.2177 13.9565 44.2177 13.9594C44.2177 13.9651 44.3802 13.8624 44.5828 13.7339C45.8665 12.9122 47.0447 12.3929 48.0574 12.2046C48.3827 12.1418 48.8134 12.0876 48.976 12.0876H49.073L48.8904 12.2217C48.2799 12.6783 47.7037 13.3887 47.3414 14.1334C46.922 14.9837 46.7509 15.8454 46.7509 17.0695C46.7537 18.0511 46.8764 18.7644 47.1759 19.5205C47.9747 21.5464 49.7948 22.7733 51.7204 22.5878C52.9413 22.4709 54.1052 21.903 55.1152 20.9358L55.3294 20.7304L55.0836 20.9415C54.2794 21.6405 53.4978 22.0486 52.5876 22.2512C52.1997 22.3367 51.3695 22.3425 51.0071 22.2626C50.5679 22.1684 50.0259 21.943 49.6807 21.7176C49.5523 21.632 49.558 21.6348 49.9031 21.7746C50.5508 22.0429 51.2525 22.1284 51.9771 22.0343C53.7199 21.8004 55.3178 20.6276 56.6673 18.5846C56.9694 18.1253 57.3404 17.5033 57.3404 17.4547C57.3404 17.4291 56.6015 16.8413 56.242 16.5816C56.1162 16.4903 56.0025 16.4047 55.9852 16.3876C55.971 16.3733 56.3047 16.5359 56.7268 16.7499C57.152 16.9639 57.4773 17.1209 57.4547 17.1009C57.4315 17.078 56.9778 16.7356 56.4504 16.3419C55.5031 15.64 55.4862 15.6286 55.4462 15.6913C55.4231 15.7256 55.2804 15.9653 55.1236 16.2249C54.6131 17.0809 54.171 17.6516 53.572 18.2365C52.8928 18.8985 52.3052 19.258 51.5805 19.4549C51.4009 19.5063 51.2782 19.5148 50.8503 19.5176C50.2598 19.5205 50.0401 19.4777 49.6264 19.278C48.996 18.9755 48.491 18.3564 48.2999 17.6602C48.163 17.1551 48.1516 16.5159 48.2685 15.9367C48.5053 14.7697 49.3469 13.8196 50.4651 13.4601C51.766 13.0406 53.3836 13.4344 55.1836 14.6099C56.0594 15.1806 57.6741 16.4675 58.6957 17.4062C61.5368 20.0227 64.3552 22.0885 66.512 23.1442C68.4115 24.0716 69.8636 24.3569 71.202 24.0687C72.4825 23.7891 73.4783 22.9873 74.0689 21.7604C74.2115 21.4608 74.4315 20.8645 74.4257 20.7817C74.4257 20.7617 74.3768 20.8873 74.3141 21.0556C73.8036 22.4851 72.7594 23.401 71.3615 23.6436C70.9083 23.7206 70.5799 23.7377 70.192 23.7035C69.861 23.6721 69.1968 23.558 69.2189 23.538C69.2247 23.5323 69.3362 23.5409 69.4678 23.558C69.861 23.6065 70.472 23.5951 70.8478 23.5295C72.1173 23.3126 73.082 22.6164 73.6578 21.5007C74.2141 20.425 74.3715 18.9641 74.0515 17.8656C73.9778 17.6088 73.8694 17.3691 73.7952 17.2892C73.7125 17.2008 73.5925 17.2036 73.5183 17.2978C73.4673 17.3634 73.4589 17.4147 73.4589 17.6488C73.4589 18.2651 73.2299 18.7958 72.7936 19.2124C71.6925 20.2596 69.6725 20.2082 66.9115 19.0639C66.3294 18.8243 65.0683 18.2023 64.3868 17.8228C62.8831 16.9839 61.3715 15.9938 59.7594 14.7897L59.112 14.3075L59.1773 14.1619C59.6994 12.9778 61.6904 8.93747 62.3783 7.66495C63.7652 5.09122 64.6831 3.7844 65.1025 3.7844C65.4394 3.7844 65.1257 4.41213 64.1099 5.77605C63.7278 6.28958 63.6652 6.40089 63.7478 6.42942C63.7873 6.44368 64.4352 5.98431 64.8004 5.68189C65.6931 4.94286 66.2068 4.26091 66.4236 3.52189L66.4947 3.28507V3.49907C66.4973 4.04691 66.2236 4.74027 65.7841 5.29668C65.6562 5.46216 65.6704 5.45074 65.9131 5.19966C66.5173 4.57478 66.8457 3.89568 66.8883 3.17093C66.9483 2.14659 66.4752 1.23067 65.6389 0.762724C65.1594 0.494512 64.4236 0.397499 63.9015 0.534461ZM35.3427 11.3628C35.4682 11.4142 35.685 11.5912 35.7192 11.671C35.7421 11.7195 35.7135 11.8279 35.5937 12.1732C34.9376 14.0507 34.0104 15.7684 33.2002 16.613C32.8864 16.9383 32.6468 17.0438 32.4529 16.9412C32.333 16.8755 32.2931 16.7471 32.2931 16.4275C32.2931 15.6371 32.7096 14.4872 33.4284 13.3003C33.8136 12.6612 34.31 12.0192 34.561 11.8308C34.6323 11.7794 34.6837 11.7281 34.6752 11.7224C34.6552 11.6996 34.3413 11.8878 34.1588 12.0334C33.865 12.2645 33.6396 12.5213 33.226 13.0863C33.1089 13.2461 33.4541 12.6241 33.6139 12.3872C33.8564 12.0277 34.3357 11.5541 34.5753 11.4371C34.8777 11.2887 35.1059 11.2658 35.3427 11.3628ZM48.0888 11.8194C48.0802 11.8279 48.0545 11.8308 48.0347 11.8222C48.0118 11.8137 48.0203 11.8051 48.0518 11.8051C48.0831 11.8023 48.1002 11.8108 48.0888 11.8194Z" fill="#B9B9B9"/>
<path d="M93.0573 0.770715C92.4236 0.904821 91.8731 1.2301 91.3368 1.78649C90.0926 3.07335 89.7363 4.89948 90.2899 7.09944L90.3752 7.43328L90.2731 7.76996C89.9447 8.85986 89.3884 10.007 88.7778 10.8601C88.1821 11.6933 87.4652 12.3723 87.0605 12.4865C86.8721 12.5407 86.7836 12.2839 86.8378 11.8388C87.0147 10.4035 87.9563 8.09523 89.0231 6.49165C89.1547 6.29191 89.2631 6.11212 89.2631 6.09217C89.2631 6.06933 89.2289 6.00086 89.1863 5.93812C88.8094 5.37028 88.1015 4.89663 87.6342 4.89663C87.2884 4.89663 87.1089 5.06783 86.7521 5.74407L86.6299 5.97802L86.5531 5.86959C86.3731 5.62423 85.8652 5.32465 85.4199 5.20479C85.1068 5.12204 84.5757 5.12204 84.2563 5.20764C83.6173 5.37886 82.9157 5.89244 82.2678 6.66565C81.9342 7.05944 81.4663 7.78133 81.1984 8.30633C80.4452 9.78723 80.1368 11.0599 80.2452 12.2411C80.371 13.5993 80.8615 14.4724 81.6205 14.6835C82.1999 14.8433 82.8699 14.6864 83.4289 14.2641C83.6626 14.0843 84.1247 13.6278 84.2957 13.3996C84.3842 13.2826 84.3763 13.2883 84.1968 13.4595C83.9026 13.7391 83.5347 13.9959 83.2721 14.1072C83.1868 14.1414 83.2089 14.11 83.4431 13.8675C83.9594 13.3339 84.4705 12.6063 84.8984 11.796L85.0378 11.5334L85.0205 11.9586C84.9952 12.6634 85.0894 13.2141 85.3173 13.6792C85.4347 13.9189 85.5573 14.053 85.8084 14.2213C86.0678 14.3925 86.3042 14.461 86.6526 14.461C87.1347 14.4638 87.5057 14.3298 87.9389 14.0016C88.1731 13.8275 88.6384 13.3653 88.8068 13.1428C88.892 13.0314 88.8747 13.04 88.6868 13.2198C88.3073 13.5764 87.8447 13.8533 87.5257 13.9132C87.4399 13.9274 87.3663 13.936 87.3605 13.9303C87.3547 13.9246 87.4431 13.8447 87.5568 13.7534C88.832 12.7262 90.0189 10.9029 90.6405 9.00538C90.7068 8.80854 90.7636 8.67444 90.7689 8.70296C90.792 8.81996 91.0968 9.63028 91.3052 10.1296L91.5226 10.6518L91.2373 11.0626C89.691 13.2912 89.0947 15.24 89.4768 16.815C89.7078 17.7708 90.3299 18.5499 91.0547 18.7923C91.9647 19.0948 93.1657 18.6954 93.9847 17.8136C94.811 16.9263 95.2589 15.5938 95.1452 14.364C95.1252 14.1556 95.091 13.9132 95.0684 13.8275L95.0284 13.6706L95.0399 13.799C95.0994 14.4154 95.0763 14.7634 94.9515 15.2828C94.8799 15.5709 94.7315 15.9847 94.6831 16.0332C94.6715 16.0475 94.6831 15.9761 94.7121 15.8762C94.8542 15.3598 94.8631 14.5551 94.7284 13.9873C94.6315 13.5793 94.392 12.866 94.1615 12.3153C93.9984 11.9272 93.4678 10.7488 93.4426 10.7231C93.4194 10.6975 92.501 12.0214 92.3299 12.3296C92.2299 12.5064 92.2642 12.4722 92.6236 12.0442C92.9284 11.6762 93.4847 11.0855 93.2936 11.3309C92.9342 11.7874 92.5578 12.3181 92.3326 12.6805C92.2557 12.8004 92.2557 12.8061 92.2894 13.0372C92.341 13.3853 92.3326 14.2926 92.2752 14.6635C92.181 15.2713 92.0215 15.7735 91.8078 16.1245C91.5536 16.5468 91.1399 16.8463 90.9231 16.7636C90.5552 16.6238 90.3694 15.902 90.5036 15.123C90.6605 14.2128 91.2426 12.9573 92.1384 11.6048C92.5294 11.0113 92.7831 10.7003 93.2368 10.2523C94.8657 8.64023 96.8773 7.86128 98.3236 8.27786C98.7284 8.39765 99.0163 8.56317 99.3905 8.89417C99.7921 9.2508 100.06 9.34212 100.277 9.19659C100.352 9.14812 100.389 9.09391 100.428 8.96265C100.477 8.81423 100.48 8.76859 100.452 8.57744C100.352 7.88691 99.7642 7.28196 98.8768 6.96244L98.6915 6.89396L98.8336 6.90823C99.3105 6.96244 99.9578 7.21354 100.246 7.45607C100.4 7.58444 100.334 7.47317 100.172 7.32196C99.4499 6.66565 98.1063 6.40602 96.8542 6.6828C95.522 6.9767 94.301 7.64723 93.2484 8.66017C93.111 8.79144 92.9942 8.89417 92.9889 8.88844C92.9773 8.87417 92.8515 8.20081 92.7889 7.82128C92.6347 6.89396 92.5978 5.79828 92.6978 5.19623C92.8231 4.43154 93.0773 3.86943 93.4936 3.42146C93.7931 3.10188 94.1752 2.85649 94.5036 2.7709C94.712 2.71668 94.8057 2.71668 94.9994 2.77375C95.1284 2.81085 95.1852 2.85079 95.3426 3.01628C95.5078 3.18748 95.5447 3.21316 95.6357 3.21316C95.7757 3.21316 95.8384 3.11615 95.8126 2.95065C95.7415 2.5141 95.2563 1.82359 94.7805 1.48405C94.5773 1.33853 94.2499 1.17874 94.0268 1.11596L93.8699 1.07316L94.141 1.08458C94.5947 1.1017 94.9799 1.2729 95.3621 1.62386C95.5589 1.80647 95.5557 1.7922 95.3426 1.5354C95.0821 1.22439 94.6289 0.9305 94.2268 0.816363C93.9531 0.736473 93.3342 0.713647 93.0573 0.770715ZM85.7257 6.82265C85.7968 6.8597 85.9084 6.94533 85.9736 7.01381L86.0968 7.13649L85.8884 7.70717C85.2915 9.33354 84.5984 10.7032 83.9057 11.6162C83.7057 11.8787 83.3005 12.2839 83.1726 12.3495C82.9378 12.4722 82.7447 12.418 82.6563 12.2097C82.5705 12.0071 82.6247 11.4079 82.7757 10.8743C83.141 9.59317 84.3015 7.67007 85.0126 7.17075C85.052 7.14507 85.0068 7.15933 84.9126 7.20496C84.5447 7.38186 84.1363 7.7528 83.7768 8.23501C83.5205 8.58312 83.5057 8.59454 83.5999 8.40623C83.8652 7.87549 84.2936 7.31907 84.6415 7.05091C85.0552 6.73417 85.4031 6.65996 85.7257 6.82265Z" fill="#B9B9B9"/>
<path d="M32.2506 4.02946C31.6972 4.09793 31.2465 4.30338 30.7472 4.7171C30.3593 5.03954 29.9542 5.52746 29.4892 6.23793C28.1084 8.3494 26.9759 11.5622 26.6906 14.1845C26.6364 14.681 26.5879 15.4114 26.5879 15.7567V16.0191L26.4253 16.2275C25.5638 17.346 24.494 18.299 23.5725 18.7669C22.942 19.0865 22.3144 19.192 22.0377 19.0209C21.8552 18.9067 21.6526 18.5215 21.6526 18.2818C21.6526 18.2134 21.6697 18.1991 21.8066 18.1563C21.8923 18.1277 22.1119 18.0307 22.3002 17.9394C23.6239 17.286 24.8734 15.9706 25.6465 14.4127C25.8262 14.0475 26.1029 13.3142 26.1029 13.1915C26.1029 13.1658 26.1172 13.143 26.1343 13.143C26.1856 13.143 26.1457 13.745 26.0773 14.0132C26.043 14.1388 25.9403 14.3956 25.849 14.5839C25.6722 14.9406 25.7178 14.9206 25.9432 14.5411C26.1143 14.2501 26.237 13.9619 26.3226 13.6309C26.3825 13.4055 26.3939 13.2885 26.3968 12.9718C26.3996 12.4126 26.2855 12.0017 26.0202 11.5936C25.6065 10.9659 24.9362 10.6035 24.1887 10.6035C23.9206 10.6035 23.4498 10.692 23.2159 10.7861C22.3658 11.1285 21.2247 12.247 20.4259 13.5197C20.1834 13.9077 19.7527 14.7665 19.6186 15.1318C19.2991 16.002 19.1593 16.7182 19.1622 17.4943C19.165 18.0079 19.222 18.3189 19.416 18.8839C19.844 20.1222 20.4973 20.8356 21.4244 21.0781C21.7353 21.1609 22.2916 21.1666 22.6368 21.0924C23.5982 20.884 24.6024 20.2906 25.5609 19.3632L25.8604 19.0751L25.5609 19.3205C24.9305 19.8426 24.163 20.2849 23.5639 20.4704C23.1075 20.613 23.0619 20.6045 23.3785 20.4447C24.009 20.1251 24.5767 19.6942 25.2328 19.038C25.7149 18.5557 26.1058 18.0907 26.4395 17.5999L26.6421 17.3031L26.6564 17.4002C26.6649 17.4515 26.6934 17.6227 26.7163 17.7797C26.7419 17.9366 26.8047 18.2362 26.8589 18.4445C27.2839 20.0652 28.194 21.0353 29.1782 20.9155L29.3694 20.8927L29.1411 20.8727C29.0156 20.8612 28.8416 20.827 28.7532 20.7928C28.4507 20.6786 28.0599 20.2791 27.8146 19.8426L27.7233 19.6771L27.98 19.9311C28.4108 20.3562 28.8159 20.5103 29.2752 20.419C29.5918 20.3562 29.8657 20.1679 29.9142 19.9739C29.9541 19.8227 29.7973 19.6771 29.5947 19.6771C29.298 19.6771 28.9928 19.2006 28.8473 18.5073C28.7532 18.0621 28.7189 17.6969 28.7189 17.1091C28.7189 15.6082 29.0413 14.3814 29.8572 12.772C30.4163 11.6649 31.0411 10.7262 32.1907 9.26246C33.3118 7.84151 33.6199 7.35646 33.7911 6.76009C33.8909 6.41483 33.8938 6.41483 33.8767 6.72583C33.8539 7.21951 33.7312 7.6703 33.4887 8.15535C33.4117 8.3094 33.3575 8.43504 33.3632 8.43504C33.3717 8.43504 33.4488 8.3294 33.5315 8.19819C34.0365 7.42204 34.2618 6.61172 34.1763 5.88125C34.1392 5.5503 34.0022 5.11943 33.8596 4.87689C33.734 4.66289 33.4317 4.36329 33.2348 4.24916C32.9667 4.09793 32.5216 3.99807 32.2506 4.02946ZM32.5816 6.89135C32.6386 6.93704 32.65 6.97125 32.6472 7.11388C32.6472 7.40209 32.476 7.6903 31.6544 8.80309C30.7415 10.0386 30.1909 10.8689 29.6774 11.7848C29.4007 12.2756 29.3922 12.2499 29.6033 11.5908C30.0654 10.147 30.984 8.3323 31.7399 7.36504C31.9225 7.12819 32.1223 6.92556 32.2221 6.87135C32.3163 6.82004 32.5074 6.8314 32.5816 6.89135ZM24.3656 13.3456C24.4369 13.5995 24.3542 14.0447 24.1545 14.4669C23.795 15.2231 23.2302 15.9193 22.5798 16.41C22.3515 16.5812 21.9208 16.8523 21.8779 16.8523C21.8266 16.8523 22.109 16.2132 22.3744 15.7252C22.8993 14.7608 23.718 13.6766 24.1745 13.337C24.3028 13.2457 24.3399 13.2457 24.3656 13.3456Z" fill="#B9B9B9"/>
<path d="M14.6775 5.04264C13.4765 5.09399 12.17 5.30228 11.0545 5.6247C8.4899 6.36659 6.31605 7.50791 4.50744 9.06012C4.12232 9.39396 3.37489 10.1387 3.06679 10.5039C1.6775 12.1389 0.82167 13.9022 0.52213 15.7455C0.487897 15.9566 0.473633 16.2191 0.473633 16.6814C0.473633 17.272 0.479338 17.3519 0.550657 17.6886C0.690443 18.3477 0.912958 18.9469 1.20394 19.4548C1.28096 19.5946 1.34943 19.7059 1.35514 19.7059C1.36084 19.7059 1.30379 19.5718 1.22391 19.4092C1.0556 19.0525 0.855903 18.4561 0.773173 18.0595C0.527835 16.8754 0.724675 15.5058 1.34087 14.0649C1.50919 13.6768 1.76308 13.1889 1.9856 12.8265C2.15962 12.5469 2.21667 12.487 2.08544 12.721C1.94281 12.9721 1.66324 13.634 1.52631 14.0335C0.912958 15.8197 0.958603 17.2891 1.66894 18.7044C2.09685 19.5518 2.64744 20.0397 3.33495 20.1795C3.73434 20.2594 3.93689 20.1852 3.93689 19.9627C3.93689 19.7944 3.85416 19.723 3.4291 19.5147C3.06965 19.3407 3.0183 19.3064 2.79578 19.081C2.51906 18.8043 2.38498 18.5674 2.28229 18.1794C2.05691 17.3405 2.31081 16.0309 2.93271 14.8124C3.64875 13.4115 4.9268 12.0675 6.60426 10.9547C7.80237 10.1615 9.25442 9.43675 10.7436 8.8918C11.0032 8.7948 11.2228 8.72059 11.2257 8.72628C11.2314 8.73201 11.1373 8.89465 11.0203 9.09149C8.64963 13.0177 6.76684 16.5701 5.83395 18.8785C5.26627 20.2765 5.01809 21.2552 5.06087 21.9059C5.07799 22.1769 5.1864 22.6819 5.24916 22.7789C5.27483 22.8218 5.28054 22.8218 5.26627 22.7818C5.22349 22.6363 5.1864 22.2339 5.20066 22.0342C5.24345 21.4293 5.52302 20.5134 6.03653 19.3064C6.34458 18.5731 7.10058 16.9553 7.12058 16.9752C7.12626 16.981 7.015 17.2435 6.87526 17.5602C6.29895 18.8613 5.80832 20.1995 5.60861 21.007C5.32048 22.1854 5.42032 22.6991 6.07648 23.3581C6.46158 23.7462 7.00642 24.0886 7.50853 24.2541C7.99921 24.4196 8.32158 24.2826 8.01637 24.043C7.78242 23.8575 7.69395 23.5065 7.75674 23.0072C7.84232 22.3139 8.26169 20.9614 8.83511 19.5204C8.96916 19.1838 8.97484 19.178 9.10326 19.1152C9.55395 18.8984 10.8006 18.6273 11.8105 18.5246C13.5678 18.342 14.9115 18.5389 15.4792 19.0553C16.0297 19.5604 15.8586 20.4135 14.9742 21.5492C14.6946 21.9115 13.9473 22.6705 13.5364 23.013C11.8162 24.4424 9.70232 25.5324 7.5599 26.0945C6.34458 26.4141 4.884 26.571 3.7914 26.4997C2.94697 26.4455 2.42206 26.3371 1.97989 26.1259C1.4179 25.8549 1.20394 25.4611 1.32661 24.9132C1.36655 24.7335 1.3694 24.6793 1.33802 24.6108C1.26955 24.4396 1.07842 24.4196 0.947192 24.568C0.818817 24.7164 0.787437 24.8933 0.807406 25.4097C0.867314 27.1046 1.64327 28.5741 2.79578 29.1761C3.24652 29.413 3.72578 29.5185 4.37907 29.5242C4.69001 29.53 4.7214 29.5328 4.57876 29.5499C4.29919 29.587 3.91406 29.5813 3.586 29.5356C2.54474 29.3986 1.629 28.9079 1.04704 28.1803L0.967161 28.0804L1.01566 28.1803C1.26955 28.7053 1.90286 29.2788 2.54759 29.5756C3.1752 29.8666 3.586 29.9522 4.43897 29.9693C5.349 29.9893 6.03653 29.9294 7.10916 29.7325C10.0047 29.2075 12.7148 27.9006 15.0198 25.9205C16.2295 24.8818 17.4733 23.3553 18.0781 22.1683C18.1893 21.9515 18.3234 21.6604 18.3747 21.5178C18.4574 21.3009 18.4717 21.2752 18.4803 21.3494C18.4917 21.4779 18.3862 21.9772 18.2692 22.3281C18.1408 22.7133 17.8298 23.3496 17.5902 23.7063C17.4875 23.8603 17.4105 23.9859 17.4162 23.9859C17.4219 23.9859 17.5189 23.8632 17.6301 23.7149C18.1665 22.9986 18.5687 22.1969 18.7712 21.4293C18.9282 20.833 18.9624 20.1054 18.8568 19.5889C18.7998 19.3122 18.6144 18.7643 18.4631 18.4362C17.9924 17.4033 16.82 16.6301 15.4392 16.4417C15.0256 16.3846 14.2268 16.3818 13.8531 16.4389C13.5222 16.4873 13.5222 16.4873 13.5222 16.4588C13.5222 16.4445 13.5963 16.4046 13.6876 16.3703C14.1212 16.1963 15.0427 15.6685 15.6332 15.2604C17.5902 13.9022 19.2591 12.1731 20.0921 10.6323C20.3602 10.1359 20.5885 9.47675 20.6484 9.02017L20.674 8.84901L20.6969 8.98875C20.7283 9.18849 20.6968 9.65359 20.6284 9.99317C20.5514 10.3727 20.3745 10.8777 20.1662 11.3171C20.075 11.514 20.0179 11.6481 20.0436 11.6167C20.1491 11.4798 20.6341 10.444 20.7368 10.1301C20.9336 9.53375 20.9793 9.2627 20.9793 8.69207C20.9764 8.24407 20.9707 8.16417 20.9023 7.90738C20.8082 7.55928 20.5457 7.01144 20.3374 6.73754C20.0208 6.31523 19.5757 5.9557 19.0965 5.73312C18.7798 5.58765 17.9525 5.3137 17.5617 5.22525C16.7229 5.03978 15.9385 4.98842 14.6775 5.04264ZM16.4177 7.95307C17.1879 8.03007 17.6558 8.26122 17.8498 8.6578C17.9496 8.86612 17.9725 9.19428 17.9012 9.50523C17.8356 9.80201 17.5988 10.2671 17.3278 10.6352C17.0796 10.9661 16.3892 11.6738 15.9756 12.0162C15.0912 12.7495 13.9073 13.5342 12.5379 14.2989C11.8391 14.6898 10.8577 15.1805 10.8776 15.132C10.8862 15.1064 11.0745 14.781 11.2913 14.4073C12.7348 11.9363 13.7276 10.1301 13.9901 9.50523C14.301 8.7577 14.2239 8.5608 13.5165 8.30686L13.2569 8.21554L13.4537 8.18128C14.7061 7.96159 15.7274 7.88454 16.4177 7.95307Z" fill="#B9B9B9"/>
<path d="M79.8043 5.60786C79.2795 5.79618 78.6095 6.51234 77.6532 7.9076C77.4938 8.1416 77.368 8.30997 77.3795 8.27855C77.608 7.63371 77.6053 7.05734 77.3738 6.62934C77.2853 6.46381 77.0027 6.19565 76.8117 6.09007C76.6122 5.98449 76.2753 5.89602 76.0648 5.89602C75.9132 5.89602 75.8822 5.9046 75.8532 5.95592C75.8274 6.00734 75.8332 6.03013 75.8822 6.09292C76.0811 6.33828 76.079 6.3526 75.3169 8.01323C74.6464 9.47981 74.359 10.2017 74.0306 11.2318C73.819 11.9023 73.6822 12.4216 73.5969 12.8924C73.5111 13.3632 73.5027 14.2563 73.5827 14.5416C73.7169 15.0324 73.9764 15.3777 74.3474 15.5603C74.6011 15.6858 74.6438 15.6772 74.4553 15.5431C74.2674 15.4062 74.1674 15.2807 74.059 15.0467C73.8995 14.7043 73.9132 14.69 74.1616 14.9354C74.2959 15.0667 74.4495 15.1864 74.5438 15.2321C74.8232 15.3691 75.2259 15.3748 75.3595 15.2407C75.468 15.1322 75.4506 15.0238 75.3027 14.8584C75.1716 14.71 75.1143 14.573 75.1143 14.399C75.1143 14.282 75.4111 13.386 75.6422 12.8011C76.2838 11.1775 77.168 9.56828 78.1069 8.30707C78.4122 7.89907 78.8801 7.34265 78.9027 7.36265C78.9085 7.37118 78.8632 7.49671 78.8001 7.64513C78.6632 7.9647 78.5064 8.4526 78.4353 8.78076C78.3953 8.95197 78.3806 9.14028 78.3806 9.44844C78.3806 9.81365 78.3895 9.90497 78.4464 10.0819C78.5211 10.3244 78.7006 10.5983 78.8774 10.7438L79.0027 10.8465L78.8859 10.6668C78.7116 10.3958 78.649 10.1874 78.6348 9.81934L78.6232 9.50549L78.6806 9.70523C78.8574 10.3015 79.1764 10.6639 79.4622 10.5926C79.5506 10.5698 79.5416 10.5898 79.7301 10.0049C79.9043 9.46555 80.1295 8.90918 80.6116 7.80776C81.0453 6.82339 81.0853 6.70923 81.088 6.47813C81.088 6.17281 80.9343 5.99302 80.3864 5.65923C80.1806 5.53649 80.0385 5.52223 79.8043 5.60786Z" fill="#B9B9B9"/>
<path d="M58.772 5.9531C58.301 6.28694 57.4083 6.77199 56.7546 7.05157C56.0673 7.34552 55.2541 7.57947 54.5525 7.6851C54.1188 7.74784 53.2773 7.74784 52.9179 7.6822C52.2704 7.56236 51.7996 7.33694 51.6798 7.08015C51.6427 7.00026 51.6142 6.98026 51.5514 6.98026C51.4345 6.98026 51.3774 7.0602 51.3774 7.22568C51.3774 7.55378 51.5629 7.93615 51.8738 8.24999C52.2018 8.58105 52.5756 8.80357 53.1462 9.00905C53.5057 9.14026 53.4373 9.15168 52.9236 9.04894C52.4701 8.95484 52.0764 8.80357 51.7654 8.59526C51.4773 8.4041 51.2975 8.2101 51.1577 7.93615C51.0522 7.72789 51.0493 7.7792 51.155 8.05599C51.4088 8.73794 52.1791 9.28289 53.1831 9.4912C53.7967 9.61963 54.6836 9.63673 55.4399 9.53405C55.8678 9.47694 56.7352 9.31147 57.0546 9.22868C57.2767 9.16878 57.2999 9.15457 57.3452 9.06326C57.371 9.00905 57.5762 8.50394 57.7989 7.94473C58.0246 7.38263 58.2125 6.92894 58.2157 6.93463C58.2215 6.94036 58.1015 7.37694 57.9531 7.90763C57.802 8.43836 57.6846 8.87489 57.6904 8.88063C57.6936 8.88631 57.9899 8.20152 58.3467 7.35973C58.7004 6.5152 58.9883 5.82468 58.9825 5.81894C58.9799 5.81615 58.8831 5.87605 58.772 5.9531Z" fill="#B9B9B9"/>
<path d="M100.465 10.4893C100.22 10.5664 100.04 10.8545 99.9833 11.2511C99.9259 11.6792 100.049 12.1243 100.269 12.2727C100.394 12.3582 100.6 12.3668 100.753 12.2955C100.893 12.2299 101.096 12.0244 101.213 11.8304L101.304 11.6735L101.29 11.8732C101.27 12.1414 101.207 12.3154 101.068 12.4695C100.919 12.6379 100.968 12.6379 101.159 12.4695C101.424 12.2299 101.547 11.8846 101.524 11.4423C101.504 11.0343 101.333 10.7347 101.016 10.5635C100.856 10.4779 100.605 10.4436 100.465 10.4893Z" fill="#B9B9B9"/>
<path d="M94.9992 13.6165C94.9992 13.6477 95.0076 13.6562 95.0161 13.6335C95.0245 13.6137 95.0218 13.5882 95.0134 13.5797C95.0045 13.5684 94.9961 13.5853 94.9992 13.6165Z" fill="#B9B9B9"/>
<path d="M74.4606 20.5792C74.4606 20.6104 74.4691 20.6189 74.4775 20.5962C74.4859 20.5764 74.4833 20.5509 74.4748 20.5423C74.4659 20.531 74.4575 20.548 74.4606 20.5792Z" fill="#B9B9B9"/>
<path d="M74.4323 20.6927C74.4323 20.7239 74.4407 20.7324 74.4491 20.7097C74.4581 20.6899 74.4549 20.6644 74.4465 20.6559C74.4381 20.6445 74.4291 20.6615 74.4323 20.6927Z" fill="#B9B9B9"/>
</g>
<defs>
<clipPath id="clip0_197_974">
<rect width="101.053" height="30" fill="white" transform="translate(0.473633)"/>
</clipPath>
</defs>
</svg>