<svg width="112" height="18" viewBox="0 0 112 18" fill="none" xmlns="http://www.w3.org/2000/svg">
<g clip-path="url(#clip0_197_776)">
<path d="M69.6582 11.0182H73.1552L71.3294 5.93012L69.6582 11.0182ZM65.625 17.0173L69.9166 4.51496C71.1923 1.63675 74.4048 2.70791 74.9677 4.51496L79.5538 17.0173H75.3323L73.8278 12.8144H69.0707L67.6509 17.0173H65.625Z" fill="#B9B9B9"/>
<path d="M27.4355 9.75548V15.0145H28.486C29.6769 15.0145 30.5064 14.8087 31.005 14.4146C31.5057 14.0043 31.7648 13.3293 31.7648 12.366C31.7648 11.4798 31.5133 10.8158 31.03 10.3945C30.5413 9.96998 29.8032 9.75548 28.7973 9.75548H27.4355ZM27.4355 2.94424V7.77104H28.4283C29.5136 7.77104 30.2887 7.59138 30.7296 7.22778C31.1716 6.85661 31.3958 6.24047 31.3958 5.34674C31.3958 4.51506 31.1716 3.90872 30.7361 3.52228C30.2942 3.14127 29.6138 2.94315 28.6972 2.94315H27.4355V2.94424ZM23.0801 17.0175V0.949951H30.3398C32.074 0.949951 33.4478 1.3462 34.4547 2.11256C35.4475 2.90396 35.9482 3.97186 35.9482 5.31844C35.9482 6.30252 35.6717 7.09613 35.1068 7.68611C34.5418 8.30007 33.7047 8.69738 32.5998 8.88789C33.8647 9.20902 34.8226 9.70654 35.491 10.4011C36.1649 11.0858 36.4871 11.9087 36.4871 12.87C36.4871 14.2154 36.0266 15.2572 35.0676 15.9495C34.1227 16.655 32.7445 17.0175 30.9407 17.0175H23.0801Z" fill="#B9B9B9"/>
<path d="M59.6272 17.0163V4.71207H57.7113L57.7048 2.80814H67.3803V4.71207H63.6026V17.0163H59.6272ZM49.9497 17.0163V4.71207H46.5512L46.5566 2.80814H57.7124V4.71207H53.923V17.0163H49.9497ZM37.6487 15.3334V4.49217C37.6084 3.78677 38.377 2.8016 39.5853 2.80814H46.5555V4.71207H42.1206C41.6863 4.72078 41.6634 4.87862 41.6482 5.18125V8.84435H46.2833V10.7614H41.6482V14.567C41.6297 14.9099 41.7614 15.0906 42.1206 15.0906H46.8211V17H39.5853C38.488 17.0163 37.6759 16.0431 37.6487 15.3334Z" fill="#B9B9B9"/>
<path d="M100.801 17.0176V4.51518C101.11 2.854 103.122 2.34019 104.735 3.04232C105.401 3.32862 105.806 3.83263 106.288 4.51518L109.872 10.08V2.81699H112V15.2312C112 16.7694 111.455 16.9522 110.78 16.9708C109.865 16.9871 109.225 16.3938 108.51 15.2051L102.902 6.64554V17.0176H100.801Z" fill="#B9B9B9"/>
<path d="M80.4954 17.0176V4.51518C80.801 2.854 82.8164 2.34019 84.4229 3.04232C85.0827 3.32862 85.4951 3.83263 85.9699 4.51518L89.551 10.08V2.81699H91.6913V15.2312C91.6913 16.7694 91.1359 16.9522 90.4832 16.9708C89.5522 16.9871 88.907 16.3938 88.2012 15.2051L82.5954 6.64554V17.0176H80.4954Z" fill="#B9B9B9"/>
<path d="M98.2036 2.81909H94.2124V17.0153H98.2036V2.81909Z" fill="#B9B9B9"/>
<path fill-rule="evenodd" clip-rule="evenodd" d="M10.7737 10.1551L15.5994 12.6446C15.8988 12.7731 16.0621 13.0692 16.0621 13.4143C16.0621 13.9248 15.6614 14.332 15.1923 14.332H12.9987L9.70361 10.1551C9.30957 9.57266 9.30957 8.94674 9.30957 8.94674C9.30957 8.94674 9.30957 8.23805 9.74719 7.72752L12.9999 3.62354H15.1661C15.6854 3.62354 16.0621 4.02087 16.0621 4.53468C16.0621 4.87759 15.9303 5.18783 15.6843 5.31737C14.0362 6.1251 12.3489 7.01993 10.7748 7.79828C10.0999 8.10744 10.0662 8.97935 10.0662 8.97935C10.065 9.01313 10.0988 9.78493 10.7737 10.1551Z" fill="#B9B9B9"/>
<path fill-rule="evenodd" clip-rule="evenodd" d="M5.3014 10.1551L0.494218 12.6446C0.181795 12.7731 0 13.0692 0 13.4143C0 13.9248 0.419103 14.332 0.886107 14.332H3.0796L6.36387 10.1551C6.76445 9.57266 6.76445 8.94674 6.76445 8.94674C6.76445 8.94674 6.76445 8.23805 6.33337 7.72752L3.0796 3.62354H0.923119C0.387537 3.62354 0 4.02087 0 4.53468C0 4.87759 0.141515 5.18783 0.387536 5.31737C2.04 6.1251 3.72514 7.01993 5.3014 7.79828C5.97958 8.10744 6.00355 8.97935 6.00355 8.97935C6.00355 9.01313 5.97958 9.78493 5.3014 10.1551Z" fill="#B9B9B9"/>
<path fill-rule="evenodd" clip-rule="evenodd" d="M11.3974 17.0175H8.93177L8.34179 11.7727C8.14258 8.78995 8.14258 8.99243 8.34179 6.28945L8.93177 0.949951H11.3974C11.9972 0.949951 12.4936 1.4605 12.4936 2.07446C12.4936 2.23775 12.4424 2.40866 12.3706 2.57194L9.46301 7.37368C9.11576 7.95934 8.93288 8.46661 8.93288 8.97172C8.93288 9.47356 9.11576 9.97103 9.46301 10.5458L12.3706 15.3846C12.4424 15.5555 12.4936 15.7101 12.4936 15.9201C12.4926 16.5331 11.9972 17.0175 11.3974 17.0175Z" fill="#B9B9B9"/>
<path fill-rule="evenodd" clip-rule="evenodd" d="M4.68303 17.0175H7.1367L7.74739 11.7727C7.93575 8.78995 7.93575 8.99243 7.74739 6.28945L7.1367 0.949951H4.68303C4.07234 0.949951 3.57922 1.4605 3.57922 2.07446C3.57922 2.23775 3.62602 2.40866 3.7044 2.57194L6.61636 7.37368C6.97558 7.95934 7.14866 8.46661 7.1367 8.97172C7.1367 9.47356 6.97558 9.97103 6.61636 10.5458L3.70331 15.3846C3.62493 15.5555 3.57812 15.7101 3.57812 15.9201C3.57922 16.5331 4.07234 17.0175 4.68303 17.0175Z" fill="#B9B9B9"/>
</g>
<defs>
<clipPath id="clip0_197_776">
<rect width="112" height="16.1" fill="white" transform="translate(0 0.949951)"/>
</clipPath>
</defs>
</svg>
