<svg width="72" height="30" viewBox="0 0 72 30" fill="none" xmlns="http://www.w3.org/2000/svg">
<path d="M24.2405 15.0085V24.9942C24.2405 27.7516 26.5004 29.9865 29.2885 29.9865C32.0766 29.9865 34.3375 27.7516 34.3375 24.9942V15.0085C34.3375 12.2512 32.0766 10.0161 29.2885 10.0161C26.5004 10.0161 24.2405 12.2522 24.2405 15.0085ZM34.3375 5.02383C34.3375 7.78119 32.0766 10.0161 29.2885 10.0161C26.5004 10.0161 24.2405 7.78119 24.2405 5.02383C24.2405 2.26647 26.5004 0.0314941 29.2885 0.0314941C32.0766 0.0314941 34.3375 2.26647 34.3375 5.02383ZM15.8565 10.0161C13.0684 10.0161 10.8085 12.2512 10.8085 15.0085V5.02383C10.8085 2.26647 8.54857 0.0314941 5.75942 0.0314941C2.97133 0.0314941 0.711426 2.26647 0.711426 5.02383V24.9942C0.711426 27.7516 2.97133 29.9865 5.75942 29.9865H15.8565C18.6446 29.9865 20.9045 27.7516 20.9045 24.9942V15.0085C20.9045 12.2522 18.6446 10.0161 15.8565 10.0161ZM10.8074 22.1375C9.61534 22.1375 8.64799 21.1818 8.64799 20.0018C8.64799 18.8219 9.61534 17.8662 10.8074 17.8662C12.0006 17.8662 12.9669 18.8219 12.9669 20.0018C12.9669 21.1818 12.0006 22.1375 10.8074 22.1375ZM71.2995 5.02383C71.2995 2.26647 69.0388 0.0314941 66.2506 0.0314941C63.4624 0.0314941 61.2024 2.26647 61.2024 5.02383C61.2024 7.78119 63.4624 10.0161 66.2506 10.0161C69.0388 10.0161 71.2995 7.78119 71.2995 5.02383ZM52.8113 10.0161C50.0234 10.0161 47.7635 12.2512 47.7635 15.0085V5.02383C47.7635 2.26647 45.5035 0.0314941 42.7153 0.0314941C39.9271 0.0314941 37.6675 2.26647 37.6675 5.02383V24.9942C37.6675 27.7516 39.9271 29.9865 42.7153 29.9865H52.8124C55.6006 29.9865 57.8613 27.7516 57.8613 24.9942V15.0085C57.8605 12.2522 55.6006 10.0161 52.8113 10.0161ZM47.7767 22.1375C46.5837 22.1375 45.6175 21.1818 45.6175 20.0018C45.6175 18.8219 46.5848 17.8662 47.7767 17.8662C48.969 17.8662 49.9363 18.8219 49.9363 20.0018C49.9374 21.1818 48.9701 22.1375 47.7767 22.1375ZM66.2506 10.0161C69.0388 10.0161 71.2995 12.2512 71.2995 15.0085V24.9942C71.2995 27.7516 69.0388 29.9865 66.2506 29.9865C63.4624 29.9865 61.2024 27.7516 61.2024 24.9942V15.0085C61.2024 12.2522 63.4624 10.0161 66.2506 10.0161Z" fill="#B9B9B9"/>
</svg>
