<svg width="154" height="72" viewBox="0 0 154 72" fill="none" xmlns="http://www.w3.org/2000/svg">
<rect width="154" height="72" fill="white"/>
<path fill-rule="evenodd" clip-rule="evenodd" d="M33.8146 34.1804H37.1721C36.6851 36.0769 35.7368 37.4865 34.3528 38.4861C32.9689 39.5113 31.2261 40.0238 29.1245 40.0238C26.5616 40.0238 24.5881 39.2037 23.1529 37.5378C21.7176 35.9232 21 33.6165 21 30.6179C21 27.7474 21.692 25.5177 23.076 23.903C24.5112 22.2371 26.5103 21.417 29.0476 21.417C31.7387 21.417 33.8146 22.2371 35.3011 23.8261C36.0956 24.8001 36.6851 25.9534 37.0439 27.2605H32.3281C32.0975 26.7991 31.8924 26.466 31.6618 26.2609C31.0723 25.6202 30.2522 25.3126 29.1757 25.3126C28.2018 25.3126 27.3817 25.6202 26.7666 26.2609C25.9464 27.158 25.562 28.6444 25.562 30.6948C25.562 32.7451 25.9721 34.206 26.7666 35.0518C27.3561 35.7694 28.2275 36.1282 29.3808 36.1282C30.1496 36.1282 30.7904 35.9744 31.3286 35.6669C31.4567 35.6156 31.5849 35.5387 31.713 35.4362C31.8156 35.3337 31.9437 35.2055 32.0718 35.0774C32.1744 34.9492 32.3538 34.7698 32.6101 34.5392C32.8664 34.3085 33.2764 34.1804 33.8146 34.1804Z" fill="#B9B9B9"/>
<path fill-rule="evenodd" clip-rule="evenodd" d="M48.244 30.6948C47.6033 31.0023 46.7319 31.3099 45.6298 31.5662C44.6047 31.7968 44.0921 31.8994 44.0921 31.8994C43.2976 32.13 42.7081 32.412 42.3493 32.7708C42.0418 33.2577 41.888 33.7447 41.888 34.2573C41.888 34.9236 42.093 35.4618 42.5031 35.8719C42.9132 36.2307 43.477 36.4101 44.2459 36.4101C45.5017 36.4101 46.4756 36.0513 47.1932 35.3337C47.9109 34.6161 48.2697 33.6422 48.2697 32.3863V30.6948H48.244ZM49.3205 38.9474C48.3722 39.4344 47.3726 39.7419 46.3475 39.8701C45.2967 39.9726 44.374 40.0238 43.5539 40.0238C41.9392 40.0238 40.5296 39.5881 39.3251 38.7168C38.1205 37.8454 37.5054 36.4101 37.5054 34.3854C37.5054 32.4888 38.0436 31.1561 39.1456 30.3616C40.2477 29.5415 41.6317 29.0033 43.3488 28.747C43.5795 28.747 43.8358 28.7213 44.169 28.6444C44.4765 28.5676 44.8353 28.5163 45.2454 28.465C47.2189 28.2087 48.1928 27.6193 48.1928 26.7223C48.1928 26.0559 47.834 25.6202 47.142 25.4152C46.45 25.2101 45.8093 25.1076 45.2198 25.1076C44.6047 25.1076 44.0408 25.1845 43.5283 25.3639C43.0413 25.5433 42.6825 25.8765 42.4518 26.3634H37.9411C38.1205 24.9795 38.7356 23.8261 39.812 22.9547C41.0166 21.9296 42.7337 21.417 44.9891 21.417C47.5008 21.417 49.3717 21.8527 50.6276 22.6985C51.9346 23.5955 52.5754 24.8513 52.5754 26.466V32.5657C52.5754 34.3598 52.2422 35.7694 51.6015 36.7689C50.9864 37.7685 50.2175 38.5117 49.3205 38.9474Z" fill="#B9B9B9"/>
<path fill-rule="evenodd" clip-rule="evenodd" d="M52.8828 33.7959H57.4448C57.4961 34.693 57.8293 35.3593 58.4444 35.8206C59.1107 36.2563 60.0077 36.487 61.1354 36.487C61.9556 36.487 62.6476 36.3332 63.2114 36.0257C63.7496 35.7181 64.0315 35.2824 64.0315 34.7442C64.0315 33.9497 63.0833 33.3346 61.2123 32.9245C60.3922 32.7964 59.8027 32.6426 59.3926 32.5145C57.0091 31.925 55.4457 31.233 54.6256 30.4385C53.7286 29.644 53.2929 28.5676 53.2929 27.2092C53.2929 25.5177 53.9336 24.1081 55.2407 22.9804C56.5734 21.9552 58.3418 21.4426 60.4691 21.4426C62.8013 21.4426 64.6466 21.9552 66.0563 22.9804C67.3633 24.1081 68.0553 25.5433 68.1322 27.3374H65.2361C64.3904 27.3374 63.724 26.9529 63.2883 26.2097C63.1089 26.0303 62.9295 25.8509 62.7501 25.6715C62.2119 25.2614 61.4686 25.082 60.546 25.082C59.6489 25.082 58.9826 25.2101 58.5213 25.4921C58.1112 25.774 57.9318 26.1584 57.9318 26.6966C57.9318 27.4142 59.0851 28.0293 61.4174 28.5163C61.6993 28.6188 61.9299 28.6701 62.135 28.7213C62.34 28.7726 62.5194 28.7726 62.6988 28.7726C64.9798 29.3621 66.5688 30.0284 67.4659 30.7973C68.3116 31.5918 68.7473 32.6682 68.7473 34.0266C68.7473 36 68.0297 37.5122 66.5945 38.5886C65.2618 39.5625 63.237 40.0751 60.546 40.0751C57.983 40.0751 56.0865 39.5625 54.8306 38.5373C53.5235 37.5122 52.8828 36 52.8828 34.0266V33.7959Z" fill="#B9B9B9"/>
<path fill-rule="evenodd" clip-rule="evenodd" d="M79.8192 30.6948C79.1785 31.0023 78.3071 31.3099 77.205 31.5662C76.1799 31.7968 75.6673 31.8994 75.6673 31.8994C74.8728 32.13 74.2833 32.412 73.9245 32.7708C73.6169 33.2577 73.4632 33.7447 73.4632 34.2573C73.4632 34.9236 73.6682 35.4618 74.0783 35.8719C74.4883 36.2307 75.0522 36.4101 75.8211 36.4101C77.0769 36.4101 78.0508 36.0513 78.7684 35.3337C79.4861 34.6161 79.8449 33.6422 79.8449 32.3863V30.6948H79.8192ZM80.8957 38.9474C79.9474 39.4344 78.9478 39.7419 77.9227 39.8701C76.8719 39.9726 75.9492 40.0238 75.1291 40.0238C73.5144 40.0238 72.1048 39.5881 70.9002 38.7168C69.6957 37.8454 69.0806 36.4101 69.0806 34.3854C69.0806 32.4888 69.6188 31.1561 70.7208 30.3616C71.8229 29.5415 73.2069 29.0033 74.924 28.747C75.1547 28.747 75.411 28.7213 75.7442 28.6444C76.0517 28.5676 76.4105 28.5163 76.8206 28.465C78.7941 28.2087 79.768 27.6193 79.768 26.7223C79.768 26.0559 79.4092 25.6202 78.7172 25.4152C78.0252 25.2101 77.3845 25.1076 76.795 25.1076C76.1799 25.1076 75.616 25.1845 75.1034 25.3639C74.6165 25.5433 74.2577 25.8765 74.027 26.3634H69.5163C69.6957 24.9795 70.3108 23.8261 71.3872 22.9547C72.5918 21.9296 74.3089 21.417 76.5643 21.417C79.076 21.417 80.9469 21.8527 82.2028 22.6985C83.5098 23.5955 84.1506 24.8513 84.1506 26.466V32.5657C84.1506 34.3598 83.8174 35.7694 83.1767 36.7689C82.5616 37.7685 81.7927 38.5117 80.8957 38.9474Z" fill="#B9B9B9"/>
<path fill-rule="evenodd" clip-rule="evenodd" d="M100.425 39.6907H95.7865V29.2083V28.26C95.7865 27.1836 95.4533 26.4147 94.8126 25.9021C94.1718 25.4152 93.4286 25.1589 92.6341 25.1589C91.8396 25.1589 91.1219 25.4152 90.4812 25.9021C89.8661 26.3891 89.5329 27.1836 89.5329 28.26V39.6907H84.8428V29.2339C84.8428 26.184 85.6373 24.1593 87.2263 23.1342C88.8153 22.109 90.5837 21.5451 92.5059 21.4426C93.5311 21.4426 94.5306 21.5451 95.5302 21.7758C96.5041 22.0065 97.4011 22.4422 98.2213 23.1085C98.8876 22.5191 99.6821 22.109 100.605 21.8527C101.527 21.5964 102.476 21.4683 103.45 21.417C105.423 21.417 107.243 21.9296 108.883 22.9547C110.549 23.9799 111.369 26.0559 111.369 29.2083V39.6907H109.011C108.345 39.6907 107.781 39.4856 107.371 39.0499C106.935 38.6142 106.73 38.076 106.73 37.4097V28.2856C106.73 27.2092 106.397 26.4403 105.756 25.9277C105.116 25.4408 104.372 25.1845 103.578 25.1845C102.758 25.1845 102.04 25.4408 101.399 25.9277C100.759 26.4147 100.425 27.2092 100.425 28.2856V29.2339V39.6907Z" fill="#B9B9B9"/>
<path fill-rule="evenodd" clip-rule="evenodd" d="M112.137 21.417H114.547C115.187 21.417 115.7 21.6477 116.161 22.0834C116.623 22.5191 116.828 23.0573 116.828 23.698V25.1076H112.112V21.417H112.137Z" fill="#B9B9B9"/>
<path fill-rule="evenodd" clip-rule="evenodd" d="M112.137 25.7485H114.547C115.187 25.7485 115.7 25.9792 116.161 26.4149C116.623 26.8506 116.828 27.4144 116.828 28.0295V39.6909H112.112V25.7485H112.137Z" fill="#B9B9B9"/>
<path fill-rule="evenodd" clip-rule="evenodd" d="M128.233 30.6948C127.592 31.0023 126.721 31.3099 125.619 31.5662C124.593 31.7968 124.081 31.8994 124.081 31.8994C123.286 32.13 122.697 32.412 122.338 32.7708C122.031 33.2577 121.877 33.7447 121.877 34.2573C121.877 34.9236 122.082 35.4618 122.492 35.8719C122.902 36.2307 123.466 36.4101 124.235 36.4101C125.49 36.4101 126.464 36.0513 127.182 35.3337C127.9 34.6161 128.258 33.6422 128.258 32.3863V30.6948H128.233ZM129.309 38.9474C128.361 39.4344 127.361 39.7419 126.336 39.8701C125.285 39.9726 124.363 40.0238 123.543 40.0238C121.928 40.0238 120.518 39.5881 119.314 38.7168C118.109 37.8454 117.494 36.4101 117.494 34.3854C117.494 32.4888 118.032 31.1561 119.134 30.3616C120.236 29.5415 121.62 29.0033 123.338 28.747C123.568 28.747 123.825 28.7213 124.158 28.6444C124.465 28.5676 124.824 28.5163 125.234 28.465C127.208 28.2087 128.182 27.6193 128.182 26.7223C128.182 26.0559 127.823 25.6202 127.131 25.4152C126.439 25.2101 125.798 25.1076 125.209 25.1076C124.593 25.1076 124.03 25.1845 123.517 25.3639C123.03 25.5433 122.671 25.8765 122.441 26.3634H117.93C118.109 24.9795 118.724 23.8261 119.801 22.9547C121.005 21.9296 122.723 21.417 124.978 21.417C127.49 21.417 129.36 21.8527 130.616 22.6985C131.923 23.5955 132.564 24.8513 132.564 26.466V32.5657C132.564 34.3598 132.231 35.7694 131.59 36.7689C130.975 37.7685 130.181 38.5117 129.309 38.9474Z" fill="#B9B9B9"/>
<path fill-rule="evenodd" clip-rule="evenodd" d="M40.1964 45.7136C40.299 45.406 40.3759 45.0985 40.4527 44.8422C40.5296 44.5602 40.5553 44.3552 40.5553 44.2271C40.5553 44.1246 40.5296 44.0477 40.4784 43.9964C40.4271 43.9451 40.3759 43.8939 40.299 43.8939C40.2221 43.8683 40.1452 43.8426 40.0683 43.8426C39.9914 43.8426 39.9145 43.8426 39.8376 43.8426L39.8889 43.6889L41.4779 43.5607L39.3251 50.4037H39.4788C39.5045 50.3525 39.5557 50.1987 39.607 49.968C39.6839 49.7374 39.7607 49.4554 39.8633 49.1223C39.9658 48.7891 40.0939 48.4303 40.2477 48.0202C40.4015 47.6101 40.5553 47.2001 40.709 46.79C40.8884 46.3799 41.0678 45.9699 41.2472 45.5854C41.4523 45.201 41.6573 44.8422 41.8624 44.5602C42.0674 44.2527 42.298 44.022 42.5287 43.8426C42.7594 43.6632 42.99 43.5607 43.2207 43.5607C43.3232 43.5607 43.4257 43.5863 43.5283 43.6376C43.6051 43.6888 43.682 43.7657 43.7333 43.8683C43.7845 43.9708 43.8358 44.0733 43.8614 44.2014C43.8871 44.3296 43.9127 44.4321 43.9127 44.5602C43.9127 44.7909 43.8871 45.0728 43.8102 45.3291C43.7333 45.611 43.6308 45.893 43.5026 46.1493C43.3745 46.4056 43.2207 46.6875 43.0413 46.9181C42.8619 47.1744 42.6825 47.3795 42.4775 47.5845C42.2724 47.7639 42.0674 47.9177 41.8624 48.0458C41.6573 48.1483 41.4267 48.2252 41.2216 48.2252C41.0935 48.2252 40.991 48.1996 40.8884 48.174C40.7859 48.1483 40.7347 48.1227 40.6578 48.0715C40.6065 48.0458 40.5553 47.9946 40.5296 47.9433C40.504 47.8921 40.4784 47.8664 40.4527 47.8152L40.8628 47.482C40.8628 47.5076 40.8884 47.5589 40.9141 47.6101C40.9397 47.6614 40.9653 47.7383 41.0166 47.7895C41.0678 47.8408 41.1191 47.8921 41.196 47.9433C41.2729 47.9946 41.3498 47.9946 41.4523 47.9946C41.6061 47.9946 41.7855 47.9433 41.9392 47.8152C42.093 47.7126 42.2212 47.5589 42.3749 47.3538C42.5031 47.1744 42.6312 46.9694 42.7337 46.7131C42.8363 46.4824 42.9388 46.2518 43.0157 45.9955C43.0926 45.7392 43.1438 45.5085 43.1951 45.2779C43.2463 45.0472 43.2463 44.8422 43.2463 44.6628C43.2463 44.5859 43.2463 44.509 43.2207 44.4577C43.2207 44.3808 43.1951 44.304 43.1694 44.2527C43.1438 44.2014 43.0926 44.1502 43.0413 44.0989C42.99 44.0477 42.9388 44.0477 42.8619 44.0477C42.6569 44.0477 42.4262 44.1502 42.2212 44.3808C42.0161 44.6115 41.8111 44.8678 41.6061 45.201C41.401 45.5342 41.2216 45.8673 41.0678 46.2261C40.9141 46.585 40.7603 46.9181 40.6578 47.2001C40.6065 47.3282 40.5553 47.482 40.4784 47.6614C40.4015 47.8408 40.3502 48.0458 40.2733 48.2765C40.1964 48.4815 40.1452 48.7122 40.0683 48.9429C39.9914 49.1735 39.9402 49.3786 39.8633 49.5836C39.812 49.7886 39.7608 49.968 39.7095 50.1218C39.6582 50.2756 39.6326 50.3781 39.607 50.455L38.6587 50.5831L40.1964 45.7136ZM47.8596 45.2266C47.834 45.3035 47.7827 45.406 47.7315 45.5854C47.6546 45.7648 47.5777 45.9699 47.4752 46.1749C47.3726 46.3799 47.2445 46.6106 47.0907 46.8669C46.9369 47.0975 46.7832 47.3282 46.6038 47.5076C46.4244 47.7126 46.2193 47.8664 46.0143 47.9946C45.8093 48.1227 45.5786 48.174 45.3479 48.174C45.0916 48.174 44.8866 48.0715 44.7585 47.8664C44.6047 47.6614 44.5534 47.4051 44.5534 47.1232C44.5534 46.9181 44.6047 46.6618 44.6816 46.4056C44.7585 46.1493 44.8866 45.8673 45.0404 45.611C45.1942 45.3548 45.3479 45.0985 45.553 44.8422C45.758 44.5859 45.963 44.3552 46.1681 44.1758C46.3731 43.9708 46.6038 43.817 46.8344 43.7145C47.0651 43.5863 47.2701 43.5351 47.5008 43.5351C47.7058 43.5351 47.8852 43.612 47.9877 43.7401C48.0903 43.8683 48.1415 44.0733 48.1415 44.304C48.1415 44.4065 48.1415 44.4834 48.1159 44.5859C48.0903 44.6884 48.0903 44.7653 48.0646 44.8678L48.1671 44.8934L48.5772 43.612L49.3461 43.5351C49.3205 43.5863 49.2692 43.7401 49.1923 43.9451C49.1154 44.1502 49.0129 44.4321 48.9104 44.7653L48.5772 45.7904C48.526 45.9186 48.5003 46.0724 48.4491 46.2518C48.3978 46.4056 48.3466 46.585 48.3209 46.7387C48.2697 46.8925 48.244 47.0463 48.2184 47.1744C48.1928 47.3026 48.1671 47.4051 48.1671 47.482C48.1671 47.5332 48.1928 47.5845 48.2184 47.6358C48.244 47.6614 48.2953 47.687 48.3466 47.687C48.4747 47.687 48.6285 47.6358 48.7823 47.5332C48.936 47.4307 49.1154 47.3026 49.2948 47.1232C49.4742 46.9694 49.6536 46.79 49.8331 46.585C50.0125 46.3799 50.1662 46.2005 50.32 46.0211C50.4738 45.8417 50.6019 45.6879 50.7045 45.5342C50.807 45.3804 50.8839 45.3035 50.9351 45.2266L50.8582 45.4829C50.807 45.5342 50.7301 45.6623 50.6019 45.8161C50.4738 45.9699 50.3456 46.1493 50.1919 46.3543C50.0381 46.5593 49.8587 46.7644 49.6537 46.9694C49.4486 47.1744 49.2692 47.3795 49.0642 47.5332C48.8591 47.7126 48.6541 47.8408 48.4491 47.9689C48.244 48.0715 48.039 48.1483 47.8596 48.1483C47.6802 48.1483 47.5777 48.0971 47.5008 47.9946C47.4239 47.892 47.3983 47.7639 47.3983 47.6101C47.3983 47.5076 47.4239 47.3795 47.4495 47.2257C47.5008 47.0719 47.5264 46.9438 47.552 46.8156L48.0646 45.201L47.8596 45.2266ZM45.1685 46.8925C45.1685 46.995 45.1685 47.0719 45.1942 47.1744C45.2198 47.277 45.2454 47.3538 45.271 47.4307C45.3223 47.5076 45.3736 47.5845 45.4248 47.6358C45.4761 47.687 45.553 47.7126 45.6555 47.7126C45.8861 47.7126 46.1168 47.6101 46.3475 47.4051C46.6038 47.2001 46.8088 46.9438 47.0138 46.6362C47.2189 46.3287 47.3983 45.9955 47.5264 45.6623C47.6546 45.3291 47.7315 45.0216 47.7315 44.7653C47.7315 44.5346 47.6802 44.3296 47.552 44.1502C47.4239 43.9708 47.2701 43.8939 47.0395 43.8939C46.8601 43.8939 46.6807 43.9451 46.5269 44.0477C46.3731 44.1502 46.2193 44.304 46.0656 44.4834C45.9118 44.6628 45.7836 44.8422 45.6811 45.0728C45.553 45.3035 45.4761 45.5085 45.3736 45.7392C45.2967 45.9699 45.2198 46.1749 45.1942 46.3799C45.1685 46.585 45.1685 46.7644 45.1685 46.8925ZM50.6276 45.4316L49.7818 48.174L50.7301 48.0202C50.7557 47.9689 50.7813 47.8408 50.8582 47.6358C50.9351 47.4307 51.0376 47.1744 51.1401 46.8925C51.2683 46.6106 51.3964 46.303 51.5502 45.9699C51.704 45.6367 51.8834 45.3548 52.0372 45.0728C52.2166 44.7909 52.396 44.5859 52.601 44.4065C52.8061 44.2271 52.9855 44.1502 53.1905 44.1502C53.3443 44.1502 53.4468 44.1758 53.498 44.2527C53.5493 44.3296 53.5749 44.4065 53.6262 44.4834L54.0363 43.612C53.9337 43.5607 53.8312 43.5351 53.7543 43.5351C53.4724 43.5351 53.2161 43.6376 52.9598 43.8426C52.7035 44.0477 52.4729 44.304 52.2422 44.6115C52.0115 44.9191 51.8065 45.2522 51.6271 45.6367C51.4477 45.9955 51.2683 46.3543 51.1401 46.6875C51.012 47.0207 50.8839 47.3026 50.807 47.5332C50.7301 47.7895 50.6788 47.9433 50.6532 47.9946H50.525L51.909 43.5351L50.3456 43.6632L50.2944 43.817H50.4994C50.8326 43.817 50.9864 43.9195 50.9864 44.1245C50.9864 44.2014 50.9864 44.304 50.9607 44.4321C50.9351 44.5602 50.9095 44.6884 50.8839 44.8165C50.8582 44.9447 50.807 45.0728 50.7813 45.201C50.6788 45.2779 50.6532 45.3804 50.6276 45.4316ZM57.0605 45.2266C57.0349 45.3035 56.9836 45.406 56.9324 45.5854C56.8555 45.7648 56.7786 45.9699 56.6761 46.1749C56.5736 46.3799 56.4454 46.6106 56.2916 46.8669C56.1379 47.0975 55.9841 47.3282 55.8047 47.5076C55.6253 47.7126 55.4202 47.8664 55.2152 47.9946C55.0102 48.1227 54.7795 48.174 54.5488 48.174C54.2926 48.174 54.0875 48.0715 53.9594 47.8664C53.8056 47.6614 53.7543 47.4051 53.7543 47.1232C53.7543 46.9181 53.8056 46.6618 53.8825 46.4056C53.9594 46.1493 54.0875 45.8673 54.2413 45.611C54.3951 45.3548 54.5488 45.0985 54.7539 44.8422C54.9589 44.5859 55.1639 44.3552 55.369 44.1758C55.574 43.9708 55.8047 43.817 56.0353 43.7145C56.266 43.5863 56.471 43.5351 56.7017 43.5351C56.9067 43.5351 57.0861 43.612 57.1887 43.7401C57.2912 43.8683 57.3424 44.0733 57.3424 44.304C57.3424 44.4065 57.3424 44.4834 57.3168 44.5859C57.2912 44.6884 57.2912 44.7653 57.2655 44.8678L57.3681 44.8934L57.7781 43.612L58.547 43.5351C58.5214 43.5863 58.4701 43.7401 58.3932 43.9451C58.3163 44.1502 58.2138 44.4321 58.1113 44.7653L57.7781 45.7904C57.7269 45.9186 57.7012 46.0724 57.65 46.2518C57.5987 46.4056 57.5475 46.585 57.5218 46.7387C57.4706 46.8925 57.4449 47.0463 57.4193 47.1744C57.3937 47.3026 57.3681 47.4051 57.3681 47.482C57.3681 47.5332 57.3937 47.5845 57.4193 47.6358C57.4449 47.6614 57.4962 47.687 57.5475 47.687C57.6756 47.687 57.8294 47.6358 57.9832 47.5332C58.1369 47.4307 58.3163 47.3026 58.4957 47.1232C58.6752 46.9694 58.8546 46.79 59.034 46.585C59.2134 46.3799 59.3671 46.2005 59.5209 46.0211C59.6747 45.8417 59.8028 45.6879 59.9054 45.5342C60.0079 45.3804 60.0848 45.3035 60.136 45.2266L60.0591 45.4829C60.0079 45.5342 59.931 45.6623 59.8028 45.8161C59.6747 45.9699 59.5465 46.1493 59.3928 46.3543C59.239 46.5593 59.0596 46.7644 58.8546 46.9694C58.6495 47.1744 58.4701 47.3795 58.2651 47.5332C58.0601 47.7126 57.855 47.8408 57.65 47.9689C57.4449 48.0715 57.2399 48.1483 57.0605 48.1483C56.8811 48.1483 56.7786 48.0971 56.7017 47.9946C56.6248 47.892 56.5992 47.7639 56.5992 47.6101C56.5992 47.5076 56.6248 47.3795 56.6504 47.2257C56.7017 47.0719 56.7273 46.9438 56.753 46.8156L57.2655 45.201L57.0605 45.2266ZM54.3694 46.8925C54.3694 46.995 54.3694 47.0719 54.3951 47.1744C54.4207 47.277 54.4463 47.3538 54.472 47.4307C54.5232 47.5076 54.5745 47.5845 54.6257 47.6358C54.677 47.687 54.7539 47.7126 54.8564 47.7126C55.0871 47.7126 55.3177 47.6101 55.5484 47.4051C55.8047 47.2001 56.0097 46.9438 56.2147 46.6362C56.4198 46.3287 56.5992 45.9955 56.7273 45.6623C56.8555 45.3291 56.9324 45.0216 56.9324 44.7653C56.9324 44.5346 56.8811 44.3296 56.753 44.1502C56.6248 43.9708 56.471 43.8939 56.2404 43.8939C56.061 43.8939 55.8816 43.9451 55.7278 44.0477C55.574 44.1502 55.4202 44.304 55.2665 44.4834C55.1127 44.6628 54.9845 44.8422 54.882 45.0728C54.7539 45.3035 54.677 45.5085 54.5745 45.7392C54.4976 45.9699 54.4207 46.1749 54.3951 46.3799C54.3951 46.585 54.3694 46.7644 54.3694 46.8925ZM67.8248 45.5598C67.7479 45.6623 67.6454 45.8161 67.4916 46.0467C67.3378 46.2518 67.1841 46.4568 66.979 46.6618C66.774 46.8669 66.5433 47.0463 66.3127 47.2001C66.0564 47.3538 65.8257 47.4307 65.5438 47.4307C65.2619 47.4307 65.0312 47.3282 64.8262 47.1488C64.7749 47.2001 64.698 47.2769 64.5955 47.3795C64.4674 47.482 64.3392 47.6101 64.1598 47.7383C63.9804 47.8664 63.801 47.9689 63.596 48.0715C63.3909 48.174 63.1859 48.1996 62.9552 48.1996C62.6221 48.1996 62.3658 48.0715 62.1864 47.8408C62.007 47.6101 61.9044 47.3282 61.9044 46.9694C61.9044 46.585 61.9813 46.2262 62.1095 45.893C62.2376 45.5598 62.3914 45.2522 62.5452 44.9959C62.6989 44.7397 62.8527 44.509 62.9809 44.3552C63.109 44.1758 63.1859 44.0477 63.1859 43.9964C63.1859 43.9451 63.1603 43.8939 63.109 43.8683C63.0578 43.8426 62.9809 43.817 62.9296 43.817C62.8527 43.817 62.7502 43.8426 62.6989 43.8683L62.7758 43.612L64.3905 43.5607C64.288 43.6632 64.1598 43.8426 63.9548 44.0733C63.7754 44.304 63.5703 44.5859 63.3909 44.8678C63.2115 45.1754 63.0321 45.4829 62.904 45.8417C62.7502 46.1749 62.6989 46.5337 62.6989 46.8669C62.6989 47.0975 62.7502 47.3282 62.8784 47.482C63.0065 47.6614 63.1859 47.7383 63.4678 47.7383C63.6216 47.7383 63.7754 47.7126 63.9035 47.6614C64.0317 47.6101 64.1598 47.5332 64.288 47.482C64.3905 47.4051 64.493 47.3282 64.5955 47.2513C64.698 47.1744 64.7749 47.0975 64.8262 47.0463C64.8005 46.995 64.7749 46.9438 64.7237 46.8925C64.698 46.8413 64.6468 46.7644 64.6211 46.6618C64.5955 46.5593 64.5443 46.4568 64.5186 46.3287C64.493 46.2005 64.4674 46.0211 64.4674 45.8417C64.4674 45.6367 64.493 45.406 64.5699 45.1497C64.6468 44.8934 64.7237 44.6371 64.8518 44.4065C64.98 44.1758 65.1081 43.9708 65.2875 43.817C65.4669 43.6632 65.6719 43.5863 65.877 43.5863C66.082 43.5863 66.2358 43.6632 66.3127 43.817C66.4152 43.9708 66.4408 44.1502 66.4408 44.3552C66.4408 44.6628 66.3896 44.9703 66.2614 45.2522C66.1333 45.5598 66.0051 45.8161 65.8257 46.0724C65.6719 46.3287 65.5182 46.5337 65.3388 46.7131C65.185 46.8925 65.0568 47.0207 64.98 47.0975C65.0056 47.1488 65.0825 47.2001 65.185 47.2513C65.2875 47.3026 65.4413 47.3538 65.6207 47.3538C65.877 47.3538 66.1333 47.2769 66.3896 47.1232C66.6459 46.9694 66.8765 46.7644 67.0816 46.5593C67.2866 46.3287 67.466 46.1236 67.6198 45.893C67.7735 45.6623 67.9017 45.4829 67.9786 45.3804L67.8248 45.5598ZM64.5186 45.8673C64.5186 46.0211 64.5186 46.1749 64.5443 46.2774C64.5699 46.3799 64.5955 46.4824 64.6211 46.585C64.6468 46.6618 64.6724 46.7387 64.7237 46.79C64.7493 46.8413 64.7749 46.8925 64.8006 46.9181C64.9031 46.8156 65.0056 46.6618 65.1337 46.4824C65.2619 46.303 65.3644 46.1236 65.4669 45.893C65.5694 45.6879 65.6463 45.4573 65.7232 45.201C65.8001 44.9447 65.8257 44.6884 65.8257 44.4321C65.8257 44.3552 65.8257 44.2783 65.8001 44.2014C65.8001 44.1246 65.7745 44.0477 65.7488 43.9964C65.7232 43.9195 65.6976 43.8683 65.6463 43.8426C65.5951 43.7914 65.5438 43.7914 65.4925 43.7914C65.39 43.7914 65.2875 43.8683 65.1594 43.9964C65.0568 44.1245 64.9287 44.304 64.8262 44.509C64.7237 44.714 64.6468 44.9447 64.5955 45.1753C64.5699 45.406 64.5186 45.6367 64.5186 45.8673ZM70.3108 45.5854L70.3877 45.3291C70.3365 45.3804 70.2852 45.4829 70.1827 45.6367C70.0802 45.7905 69.952 45.9442 69.7983 46.1236C69.6445 46.303 69.4907 46.4824 69.3369 46.6618C69.1575 46.8413 69.0037 47.0207 68.8243 47.1744C68.6449 47.3282 68.4912 47.4564 68.3374 47.5589C68.1836 47.6614 68.0298 47.7126 67.9017 47.7126C67.8248 47.7126 67.7735 47.687 67.7479 47.6101C67.7223 47.5589 67.6967 47.482 67.6967 47.3795C67.6967 47.3282 67.6967 47.2513 67.7223 47.1488C67.7479 47.0463 67.7735 46.9181 67.7992 46.79C67.8248 46.6618 67.8761 46.5081 67.9273 46.3799C67.9786 46.2262 68.0042 46.1236 68.0555 45.9955L68.85 43.5351L67.2353 43.6632L67.1841 43.7914H67.4147C67.6198 43.7914 67.7479 43.817 67.8248 43.8939C67.9017 43.9708 67.9273 44.0477 67.9273 44.1758C67.9273 44.304 67.9017 44.509 67.8248 44.7397C67.7479 44.9959 67.671 45.2522 67.5941 45.5598L67.2097 46.79C67.1584 46.9181 67.1328 47.0719 67.0816 47.2257C67.0303 47.3795 67.0047 47.5076 67.0047 47.5845C67.0047 47.7126 67.0559 47.8408 67.1328 47.9689C67.2097 48.0971 67.3378 48.1483 67.5172 48.1483C67.671 48.1483 67.8761 48.0971 68.0555 47.9946C68.2605 47.892 68.4399 47.7383 68.6449 47.5589C68.85 47.3795 69.0294 47.2001 69.2088 46.995C69.3882 46.79 69.5676 46.585 69.7214 46.4056C69.8751 46.2262 70.0033 46.0467 70.1058 45.893C70.2083 45.7392 70.2852 45.6367 70.3108 45.5854ZM69.055 41.8692C68.9012 41.8692 68.7987 41.8179 68.6962 41.741C68.6193 41.6641 68.568 41.5616 68.568 41.4078C68.568 41.2797 68.6193 41.1516 68.6962 41.049C68.7731 40.9465 68.9012 40.8953 69.055 40.8953C69.1831 40.8953 69.2857 40.9209 69.3882 40.9978C69.4651 41.0747 69.5163 41.1772 69.5163 41.3566C69.5163 41.4847 69.4651 41.6129 69.3882 41.7154C69.2857 41.8179 69.1831 41.8692 69.055 41.8692ZM75.3086 45.5598C75.2317 45.6623 75.1291 45.8161 74.9754 46.0467C74.8216 46.2518 74.6678 46.4568 74.4628 46.6618C74.2577 46.8669 74.0271 47.0463 73.7964 47.2001C73.5401 47.3538 73.3095 47.4307 73.0275 47.4307C72.7456 47.4307 72.515 47.3282 72.3099 47.1488C72.2587 47.2001 72.1818 47.2769 72.0793 47.3795C71.9511 47.482 71.823 47.6101 71.6436 47.7383C71.4642 47.8664 71.2848 47.9689 71.0797 48.0715C70.8747 48.174 70.6697 48.1996 70.439 48.1996C70.1058 48.1996 69.8495 48.0715 69.6701 47.8408C69.4907 47.6101 69.3882 47.3282 69.3882 46.9694C69.3882 46.585 69.4651 46.2262 69.5932 45.893C69.7214 45.5598 69.8751 45.2522 70.0289 44.9959C70.1827 44.7397 70.3365 44.509 70.4646 44.3552C70.5928 44.1758 70.6697 44.0477 70.6697 43.9964C70.6697 43.9451 70.644 43.8939 70.5928 43.8683C70.5415 43.8426 70.4646 43.817 70.4134 43.817C70.3365 43.817 70.234 43.8426 70.1827 43.8683L70.2596 43.612L71.8742 43.5607C71.7717 43.6632 71.6436 43.8426 71.4385 44.0733C71.2591 44.304 71.0541 44.5859 70.8747 44.8678C70.6953 45.1754 70.5159 45.4829 70.3877 45.8417C70.234 46.1749 70.1827 46.5337 70.1827 46.8669C70.1827 47.0975 70.234 47.3282 70.3621 47.482C70.4902 47.6614 70.6697 47.7383 70.9516 47.7383C71.1054 47.7383 71.2591 47.7126 71.3873 47.6614C71.5154 47.6101 71.6436 47.5332 71.7717 47.482C71.8742 47.4051 71.9767 47.3282 72.0793 47.2513C72.1818 47.1744 72.2587 47.0975 72.3099 47.0463C72.2843 46.995 72.2587 46.9438 72.2074 46.8925C72.1818 46.8413 72.1305 46.7644 72.1049 46.6618C72.0793 46.5593 72.028 46.4568 72.0024 46.3287C71.9767 46.2005 71.9511 46.0211 71.9511 45.8417C71.9511 45.6367 71.9767 45.406 72.0536 45.1497C72.1305 44.8934 72.2074 44.6371 72.3356 44.4065C72.4637 44.1758 72.5918 43.9708 72.7712 43.817C72.9507 43.6632 73.1557 43.5863 73.3607 43.5863C73.5658 43.5863 73.7195 43.6632 73.7964 43.817C73.8989 43.9708 73.9246 44.1502 73.9246 44.3552C73.9246 44.6628 73.8733 44.9703 73.7452 45.2522C73.617 45.5598 73.4889 45.8161 73.3095 46.0724C73.1557 46.3287 73.0019 46.5337 72.8225 46.7131C72.6687 46.8925 72.5406 47.0207 72.4637 47.0975C72.4893 47.1488 72.5662 47.2001 72.6687 47.2513C72.7712 47.3026 72.925 47.3538 73.1044 47.3538C73.3607 47.3538 73.617 47.2769 73.8733 47.1232C74.1296 46.9694 74.3603 46.7644 74.5653 46.5593C74.7703 46.3287 74.9497 46.1236 75.1035 45.893C75.2573 45.6623 75.3854 45.4829 75.4623 45.3804L75.3086 45.5598ZM72.0024 45.8673C72.0024 46.0211 72.0024 46.1749 72.028 46.2774C72.0536 46.3799 72.0793 46.4824 72.1049 46.585C72.1305 46.6618 72.1562 46.7387 72.2074 46.79C72.233 46.8413 72.2587 46.8925 72.2843 46.9181C72.3868 46.8156 72.4893 46.6618 72.6175 46.4824C72.7456 46.303 72.8481 46.1236 72.9507 45.893C73.0532 45.6879 73.1301 45.4573 73.2069 45.201C73.2838 44.9447 73.3095 44.6884 73.3095 44.4321C73.3095 44.3552 73.3095 44.2783 73.2838 44.2014C73.2838 44.1246 73.2582 44.0477 73.2326 43.9964C73.207 43.9195 73.1813 43.8683 73.1301 43.8426C73.0788 43.7914 73.0275 43.7914 72.9763 43.7914C72.8738 43.7914 72.7712 43.8683 72.6431 43.9964C72.5406 44.1245 72.4124 44.304 72.3099 44.509C72.2074 44.714 72.1305 44.9447 72.0793 45.1753C72.028 45.406 72.0024 45.6367 72.0024 45.8673ZM79.2555 45.5854L79.3323 45.3291C79.2298 45.4829 79.0504 45.6879 78.8454 45.9442C78.6404 46.2005 78.3841 46.4824 78.1021 46.7387C77.8202 46.995 77.487 47.2513 77.1282 47.4307C76.7694 47.6358 76.4106 47.7383 76.0262 47.7383C75.7186 47.7383 75.4879 47.6614 75.3342 47.5332C75.1804 47.3795 75.0779 47.1488 75.0779 46.8156C75.0779 46.6875 75.1035 46.5337 75.1291 46.4056C75.1548 46.2774 75.1804 46.1236 75.2317 45.9955C75.4367 46.0467 75.6161 46.0724 75.8211 46.0724C76.1287 46.0724 76.4106 46.0211 76.6669 45.893C76.9232 45.7648 77.1795 45.611 77.3589 45.406C77.5639 45.201 77.7177 44.9959 77.8458 44.7909C77.974 44.5859 78.0252 44.3808 78.0252 44.1758C78.0252 43.9451 77.974 43.7657 77.8458 43.6632C77.7177 43.5607 77.5639 43.4838 77.3845 43.4838C77.1539 43.4838 76.9232 43.5351 76.6925 43.6376C76.4619 43.7401 76.2312 43.8939 76.0005 44.0733C75.7699 44.2527 75.5648 44.4577 75.3854 44.714C75.1804 44.9447 75.0266 45.201 74.8729 45.4573C74.7191 45.7136 74.6166 45.9699 74.5397 46.2261C74.4628 46.4824 74.4115 46.7387 74.4115 46.9438C74.4115 47.3282 74.514 47.6101 74.7191 47.8152C74.9241 48.0202 75.2317 48.1227 75.6417 48.1227C75.9493 48.1227 76.2312 48.0715 76.5131 47.9689C76.795 47.8664 77.0513 47.7383 77.282 47.5845C77.5127 47.4307 77.7433 47.2513 77.9484 47.0719C78.1534 46.8669 78.3328 46.6875 78.5122 46.4824C78.666 46.2774 78.8198 46.098 78.9479 45.9442C79.076 45.8417 79.1786 45.7136 79.2555 45.5854ZM77.0257 43.7401C76.8207 43.7401 76.6156 43.817 76.4362 43.9708C76.2568 44.1246 76.0774 44.3296 75.9237 44.5346C75.7699 44.7396 75.6417 44.9447 75.5392 45.1497C75.4367 45.3548 75.3598 45.5085 75.3342 45.5854C75.3598 45.611 75.4111 45.6367 75.4623 45.6623C75.5136 45.6879 75.5905 45.7136 75.6674 45.7648C75.7442 45.7905 75.8468 45.8161 75.9237 45.8417C76.0262 45.8673 76.1287 45.8673 76.2312 45.8673C76.385 45.8673 76.5644 45.8161 76.6925 45.7136C76.8463 45.611 76.9745 45.4829 77.077 45.3291C77.1795 45.1753 77.2564 44.9959 77.3333 44.8165C77.3845 44.6115 77.4358 44.4321 77.4358 44.2527C77.4358 44.1245 77.4101 43.9964 77.3333 43.8683C77.282 43.7914 77.1795 43.7401 77.0257 43.7401ZM79.1529 45.4316C79.1786 45.3804 79.2042 45.2779 79.2298 45.1753C79.2555 45.0472 79.3067 44.9447 79.3323 44.7909C79.358 44.6628 79.3836 44.5346 79.4092 44.4065C79.4349 44.2783 79.4349 44.1758 79.4349 44.0989C79.4349 43.8939 79.2811 43.7914 78.9479 43.7914H78.7429L78.7941 43.6376L80.3575 43.5094L78.9735 47.9689H79.1017C79.1273 47.9177 79.1786 47.7639 79.2555 47.5076C79.3323 47.2513 79.4605 46.9694 79.5886 46.6618C79.7424 46.3287 79.8962 45.9955 80.0756 45.611C80.255 45.2522 80.4857 44.8934 80.6907 44.5859C80.9214 44.2783 81.152 44.022 81.4083 43.817C81.6646 43.612 81.9209 43.5094 82.2028 43.5094C82.2797 43.5094 82.3822 43.5351 82.4847 43.5863L82.0747 44.4577C82.0234 44.3808 81.9978 44.2783 81.9465 44.2271C81.8953 44.1502 81.7928 44.1245 81.639 44.1245C81.4339 44.1245 81.2545 44.2014 81.0495 44.3808C80.8445 44.5602 80.6651 44.7909 80.4857 45.0472C80.3063 45.3291 80.1525 45.611 79.9987 45.9442C79.8449 46.2774 79.7168 46.5593 79.5886 46.8669C79.4605 47.1488 79.3836 47.4051 79.3067 47.6101C79.2298 47.8152 79.1786 47.9433 79.1786 47.9946L78.2303 48.1483L79.1529 45.4316ZM88.482 45.2266C88.4564 45.3035 88.4051 45.406 88.3538 45.5854C88.277 45.7648 88.2001 45.9699 88.0976 46.1749C87.995 46.3799 87.8669 46.6106 87.7131 46.8669C87.5593 47.0975 87.4056 47.3282 87.2262 47.5076C87.0468 47.7126 86.8417 47.8664 86.6367 47.9946C86.4316 48.1227 86.201 48.174 85.9703 48.174C85.714 48.174 85.509 48.0715 85.3809 47.8664C85.2271 47.6614 85.1758 47.4051 85.1758 47.1232C85.1758 46.9181 85.2271 46.6618 85.304 46.4056C85.3809 46.1493 85.509 45.8673 85.6628 45.611C85.8166 45.3548 85.9703 45.0985 86.1754 44.8422C86.3804 44.5859 86.5854 44.3552 86.7905 44.1758C86.9955 43.9708 87.2262 43.817 87.4568 43.7145C87.6875 43.5863 87.8925 43.5351 88.1232 43.5351C88.3282 43.5351 88.5076 43.612 88.6101 43.7401C88.7127 43.8683 88.7639 44.0733 88.7639 44.304C88.7639 44.4065 88.7639 44.4834 88.7383 44.5859C88.7127 44.6884 88.7127 44.7653 88.687 44.8678L88.7895 44.8934L89.1996 43.612L89.9685 43.5351C89.9429 43.5863 89.8916 43.7401 89.8147 43.9451C89.7378 44.1502 89.6353 44.4321 89.5328 44.7653L89.1996 45.7904C89.1484 45.9186 89.1227 46.0724 89.0715 46.2518C89.0202 46.4056 88.9689 46.585 88.9433 46.7387C88.8921 46.8925 88.8664 47.0463 88.8408 47.1744C88.8152 47.3026 88.7895 47.4051 88.7895 47.482C88.7895 47.5332 88.8152 47.5845 88.8408 47.6358C88.8664 47.6614 88.9177 47.687 88.9689 47.687C89.0971 47.687 89.2509 47.6358 89.4047 47.5332C89.5584 47.4307 89.7378 47.3026 89.9172 47.1232C90.0966 46.9694 90.276 46.79 90.4554 46.585C90.6348 46.3799 90.7886 46.2005 90.9424 46.0211C91.0962 45.8417 91.2243 45.6879 91.3268 45.5342C91.4294 45.3804 91.5062 45.3035 91.5575 45.2266L91.4806 45.4829C91.4294 45.5342 91.3525 45.6623 91.2243 45.8161C91.0962 45.9699 90.968 46.1493 90.8143 46.3543C90.6605 46.5593 90.4811 46.7644 90.276 46.9694C90.071 47.1744 89.8916 47.3795 89.6866 47.5332C89.4815 47.7126 89.2765 47.8408 89.0715 47.9689C88.8664 48.0715 88.6614 48.1483 88.482 48.1483C88.3026 48.1483 88.2001 48.0971 88.1232 47.9946C88.0463 47.892 88.0207 47.7639 88.0207 47.6101C88.0207 47.5076 88.0463 47.3795 88.0719 47.2257C88.1232 47.0719 88.1488 46.9438 88.1744 46.8156L88.687 45.201L88.482 45.2266ZM85.7653 46.8925C85.7653 46.995 85.7653 47.0719 85.7909 47.1744C85.8166 47.277 85.8422 47.3538 85.8678 47.4307C85.9191 47.5076 85.9703 47.5845 86.0216 47.6358C86.0728 47.687 86.1497 47.7126 86.2522 47.7126C86.4829 47.7126 86.7136 47.6101 86.9442 47.4051C87.2005 47.2001 87.4056 46.9438 87.6106 46.6362C87.8156 46.3287 87.995 45.9955 88.1232 45.6623C88.2513 45.3291 88.3282 45.0216 88.3282 44.7653C88.3282 44.5346 88.277 44.3296 88.1488 44.1502C88.0207 43.9708 87.8669 43.8939 87.6362 43.8939C87.4568 43.8939 87.2774 43.9451 87.1236 44.0477C86.9699 44.1502 86.8161 44.304 86.6623 44.4834C86.5085 44.6628 86.3804 44.8422 86.2779 45.0728C86.1497 45.3035 86.0728 45.5085 85.9703 45.7392C85.8934 45.9699 85.8166 46.1749 85.7909 46.3799C85.7909 46.585 85.7653 46.7644 85.7653 46.8925Z" fill="#B9B9B9" stroke="#B9B9B9" stroke-width="0.5669" stroke-miterlimit="22.9256"/>
<path fill-rule="evenodd" clip-rule="evenodd" d="M94.7357 43.5862L94.9407 42.9711C95.197 42.151 95.5302 41.5359 95.9403 41.1002C96.3504 40.6645 96.8373 40.4595 97.4268 40.4595C97.5549 40.4595 97.7087 40.4851 97.8625 40.5107C98.0163 40.5364 98.1444 40.5876 98.2725 40.6389L98.0163 41.4846C97.9906 41.4078 97.9906 41.3309 97.965 41.2284C97.9394 41.1258 97.8881 41.0233 97.8369 40.9464C97.7856 40.8439 97.6831 40.767 97.5806 40.7158C97.478 40.6645 97.3499 40.6132 97.1961 40.6132C97.0423 40.6132 96.8886 40.6645 96.7348 40.767C96.581 40.8695 96.4785 40.9977 96.3504 41.1515C96.2478 41.3052 96.1453 41.4846 96.0428 41.7153C95.9659 41.9203 95.8634 42.151 95.7865 42.3817L95.4021 43.5862H97.5293L97.2218 43.8682C96.9655 43.8425 96.7348 43.8169 96.4785 43.8169C96.2222 43.8169 95.9659 43.7913 95.7096 43.7913H95.3508L94.0437 47.9688C93.7874 48.8146 93.4542 49.4553 93.0442 49.891C92.6597 50.3267 92.1472 50.5574 91.5577 50.5574C91.2758 50.5574 90.9938 50.4805 90.7119 50.3524L90.9682 49.5066C90.9938 49.5835 90.9938 49.6604 91.0195 49.7629C91.0451 49.8654 91.0964 49.9679 91.1476 50.0448C91.1989 50.1217 91.3014 50.2242 91.4039 50.2755C91.5064 50.3524 91.6346 50.378 91.7883 50.378C91.9678 50.378 92.1472 50.3267 92.2753 50.2242C92.4291 50.1217 92.5572 49.9679 92.6854 49.7629C92.8135 49.5579 92.916 49.3272 93.0185 49.0453C93.1211 48.7634 93.2236 48.4558 93.3517 48.097L94.7101 43.74H94.5819C94.4282 43.74 94.2744 43.74 94.095 43.7656C93.9412 43.7913 93.7874 43.7913 93.608 43.8169L93.8387 43.535H94.7357V43.5862ZM101.092 45.5853L101.169 45.329C101.066 45.4828 100.887 45.6878 100.682 45.9441C100.477 46.2004 100.22 46.4824 99.9385 46.7386C99.6565 46.9949 99.3234 47.2512 98.9645 47.4306C98.6057 47.6357 98.2469 47.7382 97.8625 47.7382C97.5549 47.7382 97.3243 47.6613 97.1705 47.5332C97.0167 47.3794 96.9142 47.1487 96.9142 46.8155C96.9142 46.6874 96.9398 46.5336 96.9655 46.4055C96.9911 46.2773 97.0167 46.1235 97.068 45.9954C97.273 46.0467 97.4524 46.0723 97.6574 46.0723C97.965 46.0723 98.2469 46.021 98.5032 45.8929C98.7595 45.7647 99.0158 45.611 99.1952 45.4059C99.4002 45.2009 99.554 44.9959 99.6822 44.7908C99.8103 44.5858 99.8616 44.3808 99.8616 44.1757C99.8616 43.9451 99.8103 43.7656 99.6822 43.6631C99.554 43.5606 99.4002 43.4837 99.2208 43.4837C98.9902 43.4837 98.7595 43.535 98.5288 43.6375C98.2982 43.74 98.0675 43.8938 97.8369 44.0732C97.6062 44.2526 97.4012 44.4576 97.2218 44.7139C97.0167 44.9446 96.8629 45.2009 96.7092 45.4572C96.5554 45.7135 96.4529 45.9698 96.376 46.2261C96.2991 46.4824 96.2478 46.7386 96.2478 46.9437C96.2478 47.3281 96.3504 47.61 96.5554 47.8151C96.7604 48.0201 97.068 48.1226 97.478 48.1226C97.7856 48.1226 98.0675 48.0714 98.3494 47.9688C98.6314 47.8663 98.8877 47.7382 99.1183 47.5844C99.349 47.4306 99.5796 47.2512 99.7847 47.0718C99.9897 46.8668 100.169 46.6874 100.349 46.4824C100.502 46.2773 100.656 46.0979 100.784 45.9441C100.912 45.8416 101.015 45.7135 101.092 45.5853ZM98.8877 43.74C98.6826 43.74 98.4776 43.8169 98.2982 43.9707C98.1188 44.1245 97.9394 44.3295 97.7856 44.5345C97.6318 44.7396 97.5037 44.9446 97.4012 45.1496C97.2986 45.3547 97.2218 45.5084 97.1961 45.5853C97.2218 45.611 97.273 45.6366 97.3243 45.6622C97.3755 45.6878 97.4524 45.7135 97.5293 45.7647C97.6062 45.7904 97.7087 45.816 97.7856 45.8416C97.8881 45.8672 97.9906 45.8672 98.0931 45.8672C98.2469 45.8672 98.4263 45.816 98.5545 45.7135C98.7082 45.611 98.8364 45.4828 98.9389 45.329C99.0414 45.1753 99.1183 44.9959 99.1952 44.8164C99.2465 44.6114 99.2977 44.432 99.2977 44.2526C99.2977 44.1245 99.2721 43.9963 99.1952 43.8682C99.1183 43.7913 99.0158 43.74 98.8877 43.74ZM103.808 45.5853C103.783 45.6366 103.706 45.7391 103.603 45.8929C103.501 46.0467 103.347 46.2261 103.193 46.4055C103.04 46.5849 102.86 46.7899 102.655 46.9949C102.45 47.2 102.271 47.405 102.066 47.5588C101.861 47.7382 101.656 47.8663 101.451 47.9945C101.246 48.097 101.041 48.1483 100.861 48.1483C100.733 48.1483 100.605 48.097 100.528 47.9945C100.451 47.892 100.425 47.7638 100.425 47.6357C100.425 47.5588 100.451 47.4306 100.477 47.3025C100.528 47.1743 100.554 47.0462 100.579 46.9181L101.938 42.6123C102.04 42.3048 102.117 41.9972 102.194 41.7409C102.271 41.459 102.296 41.254 102.296 41.1258C102.296 41.0233 102.271 40.9464 102.219 40.8952C102.168 40.8439 102.117 40.8183 102.04 40.7927C101.963 40.767 101.886 40.7414 101.809 40.7414C101.733 40.7414 101.656 40.7414 101.579 40.7414L101.63 40.5876L103.219 40.4595L101.476 45.9954C101.451 46.0979 101.399 46.2261 101.374 46.3542C101.322 46.508 101.297 46.6361 101.246 46.7643C101.22 46.8924 101.169 47.0206 101.143 47.1487C101.117 47.2769 101.092 47.3537 101.092 47.405C101.092 47.5844 101.169 47.6869 101.297 47.6869C101.425 47.6869 101.553 47.6357 101.733 47.5332C101.886 47.4306 102.066 47.3025 102.245 47.1487C102.424 46.9949 102.578 46.8155 102.758 46.6361C102.937 46.4567 103.091 46.2517 103.245 46.0979C103.398 45.9185 103.527 45.7647 103.629 45.6366C103.732 45.5084 103.808 45.4059 103.834 45.329L103.808 45.5853ZM106.346 45.5853L106.423 45.329C106.371 45.3803 106.32 45.4828 106.218 45.6366C106.115 45.7904 105.987 45.9441 105.833 46.1235C105.679 46.3029 105.526 46.4824 105.372 46.6618C105.192 46.8412 105.039 47.0206 104.859 47.1743C104.68 47.3281 104.526 47.4563 104.372 47.5588C104.219 47.6613 104.065 47.7126 103.937 47.7126C103.86 47.7126 103.808 47.6869 103.783 47.61C103.757 47.5588 103.732 47.4819 103.732 47.3794C103.732 47.3281 103.732 47.2512 103.757 47.1487C103.783 47.0462 103.808 46.9181 103.834 46.7899C103.86 46.6618 103.911 46.508 103.962 46.3798C104.014 46.2261 104.039 46.1235 104.09 45.9954L104.885 43.535L103.27 43.6631L103.219 43.8169H103.45C103.655 43.8169 103.783 43.8425 103.86 43.9194C103.937 43.9963 103.962 44.0732 103.962 44.2013C103.962 44.3295 103.937 44.5345 103.86 44.7652C103.783 45.0215 103.706 45.2778 103.629 45.5853L103.245 46.8155C103.193 46.9437 103.168 47.0975 103.116 47.2512C103.065 47.405 103.04 47.5331 103.04 47.61C103.04 47.7382 103.091 47.8663 103.168 47.9945C103.245 48.1226 103.373 48.1739 103.552 48.1739C103.706 48.1739 103.911 48.1226 104.09 48.0201C104.295 47.9176 104.475 47.7638 104.68 47.5844C104.885 47.405 105.064 47.2256 105.244 47.0206C105.423 46.8155 105.603 46.6105 105.756 46.4311C105.91 46.2517 106.038 46.0723 106.141 45.9185C106.218 45.7391 106.295 45.6366 106.346 45.5853ZM105.064 41.8691C104.911 41.8691 104.808 41.8178 104.705 41.7409C104.629 41.664 104.577 41.5615 104.577 41.4078C104.577 41.2796 104.629 41.1515 104.705 41.0489C104.782 40.9464 104.911 40.8952 105.064 40.8952C105.192 40.8952 105.295 40.9208 105.397 40.9977C105.474 41.0746 105.526 41.1771 105.526 41.3565C105.526 41.4846 105.474 41.6128 105.397 41.7153C105.295 41.8178 105.192 41.8691 105.064 41.8691ZM110.293 45.5341C110.241 45.6366 110.139 45.7647 110.011 45.9441C109.883 46.1235 109.729 46.3029 109.575 46.508C109.396 46.713 109.216 46.8924 109.011 47.0975C108.806 47.3025 108.576 47.4819 108.319 47.6357C108.063 47.7894 107.807 47.9176 107.525 48.0201C107.243 48.1226 106.961 48.1739 106.653 48.1739C106.423 48.1739 106.243 48.1483 106.089 48.0714C105.936 48.0201 105.808 47.9176 105.705 47.8151C105.603 47.7126 105.526 47.5844 105.5 47.4306C105.449 47.3025 105.423 47.1487 105.423 46.9949C105.423 46.7899 105.449 46.5849 105.526 46.3286C105.603 46.0723 105.705 45.816 105.859 45.5597C105.987 45.3034 106.166 45.0471 106.346 44.8164C106.551 44.5602 106.756 44.3551 106.986 44.1501C107.217 43.9451 107.473 43.7913 107.73 43.6888C107.986 43.5606 108.268 43.5094 108.55 43.5094C108.781 43.5094 108.986 43.535 109.139 43.5862C109.293 43.6375 109.421 43.6888 109.524 43.7144L109.242 44.3551C109.216 44.3039 109.165 44.2526 109.114 44.1757C109.062 44.0988 108.986 44.0476 108.934 43.9707C108.857 43.9194 108.755 43.8682 108.652 43.8169C108.55 43.7656 108.422 43.7656 108.268 43.7656C108.063 43.7656 107.884 43.8169 107.704 43.9194C107.525 44.0219 107.345 44.1501 107.192 44.3295C107.038 44.4833 106.884 44.6883 106.756 44.8933C106.628 45.0984 106.525 45.329 106.423 45.5341C106.346 45.7647 106.269 45.9698 106.218 46.1748C106.166 46.3798 106.141 46.5849 106.141 46.7386C106.141 46.8412 106.141 46.9693 106.166 47.0718C106.192 47.2 106.218 47.3025 106.295 47.3794C106.371 47.4819 106.448 47.5588 106.576 47.61C106.705 47.6613 106.884 47.7126 107.089 47.7126C107.448 47.7126 107.807 47.61 108.165 47.405C108.499 47.2 108.832 46.9693 109.114 46.6874C109.396 46.4055 109.652 46.1492 109.857 45.8672C110.062 45.5853 110.241 45.3803 110.344 45.2265L110.293 45.5341ZM112.856 45.5853L112.932 45.329C112.881 45.3803 112.83 45.4828 112.727 45.6366C112.625 45.7904 112.497 45.9441 112.343 46.1235C112.189 46.3029 112.035 46.4824 111.882 46.6618C111.702 46.8412 111.549 47.0206 111.369 47.1743C111.19 47.3281 111.036 47.4563 110.882 47.5588C110.728 47.6613 110.575 47.7126 110.446 47.7126C110.37 47.7126 110.318 47.6869 110.293 47.61C110.267 47.5331 110.241 47.4819 110.241 47.3794C110.241 47.3281 110.241 47.2512 110.267 47.1487C110.293 47.0462 110.318 46.9181 110.344 46.7899C110.37 46.6618 110.421 46.508 110.472 46.3798C110.523 46.2261 110.549 46.1235 110.6 45.9954L111.395 43.535L109.78 43.6631L109.729 43.7913H109.96C110.165 43.7913 110.293 43.8169 110.37 43.8938C110.446 43.9707 110.472 44.0476 110.472 44.1757C110.472 44.3039 110.446 44.5089 110.37 44.7396C110.293 44.9959 110.216 45.2521 110.139 45.5597L109.754 46.7899C109.703 46.9181 109.678 47.0718 109.626 47.2256C109.575 47.3794 109.549 47.5075 109.549 47.5844C109.549 47.7126 109.601 47.8407 109.678 47.9688C109.754 48.097 109.883 48.1483 110.062 48.1483C110.216 48.1483 110.421 48.097 110.6 47.9945C110.805 47.892 110.985 47.7382 111.19 47.5588C111.395 47.3794 111.574 47.2 111.754 46.9949C111.933 46.7899 112.112 46.5849 112.266 46.4055C112.42 46.2261 112.548 46.0467 112.651 45.8929C112.727 45.7391 112.804 45.6366 112.856 45.5853ZM111.574 41.8691C111.42 41.8691 111.318 41.8178 111.215 41.7409C111.138 41.664 111.087 41.5615 111.087 41.4078C111.087 41.2796 111.138 41.1515 111.215 41.0489C111.292 40.9464 111.42 40.8952 111.574 40.8952C111.702 40.8952 111.805 40.9208 111.907 40.9977C111.984 41.0746 112.035 41.1771 112.035 41.3565C112.035 41.4846 111.984 41.6128 111.907 41.7153C111.83 41.8178 111.702 41.8691 111.574 41.8691ZM115.342 45.2265C115.316 45.3034 115.265 45.4316 115.188 45.611C115.111 45.7904 115.034 45.9698 114.906 46.2004C114.803 46.4055 114.675 46.6361 114.522 46.8668C114.368 47.0975 114.214 47.3281 114.035 47.5075C113.855 47.7126 113.65 47.8663 113.445 47.9945C113.24 48.1226 113.009 48.1739 112.779 48.1739C112.522 48.1739 112.317 48.0714 112.164 47.8663C112.01 47.6613 111.933 47.4306 111.933 47.1231C111.933 46.8924 111.984 46.6618 112.061 46.4055C112.138 46.1492 112.266 45.8672 112.42 45.611C112.574 45.3547 112.727 45.0727 112.932 44.8421C113.138 44.5858 113.343 44.3808 113.548 44.1757C113.753 43.9707 113.983 43.8169 114.214 43.7144C114.445 43.5862 114.65 43.535 114.855 43.535C115.06 43.535 115.213 43.6119 115.316 43.7913C115.419 43.9707 115.47 44.1501 115.47 44.3807C115.47 44.4576 115.47 44.5345 115.444 44.637C115.444 44.7139 115.419 44.8164 115.419 44.8933H115.495L116.187 42.6892C116.29 42.3817 116.367 42.0741 116.444 41.8178C116.521 41.5359 116.546 41.3309 116.546 41.2027C116.546 41.1002 116.521 41.0233 116.469 40.9721C116.418 40.9208 116.367 40.8952 116.29 40.8695C116.213 40.8439 116.136 40.8183 116.059 40.8183C115.982 40.8183 115.905 40.8183 115.829 40.8183L115.88 40.6645L117.469 40.5364L115.675 46.1748C115.649 46.2773 115.598 46.4055 115.572 46.5336C115.547 46.6618 115.495 46.7899 115.47 46.9181C115.444 47.0462 115.419 47.1743 115.393 47.2769C115.367 47.3794 115.367 47.4819 115.367 47.5332C115.367 47.61 115.393 47.6613 115.419 47.6869C115.47 47.7382 115.495 47.7382 115.572 47.7382C115.7 47.7382 115.829 47.6869 116.008 47.5844C116.162 47.4819 116.341 47.3537 116.521 47.2C116.7 47.0462 116.879 46.8668 117.059 46.6618C117.238 46.4567 117.418 46.2773 117.571 46.0979C117.725 45.9185 117.853 45.7647 117.981 45.611C118.084 45.4572 118.186 45.3547 118.212 45.3034L118.135 45.5597C118.084 45.6366 117.981 45.7391 117.879 45.8929C117.751 46.0467 117.623 46.2261 117.443 46.4311C117.289 46.6361 117.084 46.8412 116.879 47.0462C116.674 47.2512 116.469 47.4306 116.264 47.61C116.059 47.7894 115.854 47.9176 115.649 48.0457C115.444 48.1483 115.265 48.1995 115.085 48.1995C114.932 48.1995 114.829 48.1483 114.752 48.0714C114.675 47.9945 114.65 47.8663 114.65 47.7638C114.65 47.6613 114.675 47.5588 114.701 47.4306C114.727 47.3025 114.752 47.2 114.778 47.0975L115.342 45.2778V45.2265ZM112.625 46.8924C112.625 46.7386 112.651 46.5592 112.702 46.3542C112.753 46.1492 112.83 45.9441 112.907 45.7135C112.984 45.4828 113.086 45.2778 113.214 45.0727C113.343 44.8677 113.471 44.6627 113.599 44.5089C113.753 44.3551 113.881 44.2013 114.035 44.0988C114.188 43.9963 114.342 43.9451 114.496 43.9451C114.727 43.9451 114.88 44.0219 115.008 44.2013C115.137 44.3808 115.188 44.5858 115.188 44.8164C115.188 44.9702 115.162 45.1496 115.085 45.3547C115.008 45.5597 114.932 45.7647 114.829 45.9698C114.727 46.1748 114.598 46.3798 114.445 46.5849C114.291 46.7899 114.163 46.9693 114.009 47.1231C113.855 47.2769 113.701 47.405 113.548 47.5075C113.394 47.61 113.24 47.6613 113.112 47.6613C113.009 47.6613 112.932 47.6357 112.881 47.5844C112.804 47.5331 112.753 47.4819 112.727 47.405C112.676 47.3281 112.651 47.2512 112.625 47.1487C112.625 47.0718 112.625 46.9693 112.625 46.8924ZM120.673 45.2265L120.775 45.2521L120.262 46.8668C120.237 46.9949 120.186 47.1231 120.16 47.2769C120.109 47.4306 120.109 47.5588 120.109 47.6613C120.109 47.7894 120.134 47.9176 120.211 48.0457C120.288 48.1483 120.416 48.1995 120.57 48.1995C120.749 48.1995 120.954 48.1483 121.159 48.0201C121.365 47.9176 121.57 47.7638 121.775 47.5844C121.98 47.405 122.185 47.2256 122.364 47.0206C122.569 46.8155 122.723 46.6105 122.902 46.4055C123.056 46.2004 123.21 46.021 123.312 45.8672C123.44 45.7135 123.517 45.611 123.569 45.5341L123.646 45.2778C123.594 45.329 123.517 45.4316 123.415 45.5853C123.312 45.7391 123.184 45.8929 123.03 46.0723C122.877 46.2517 122.723 46.4311 122.543 46.6361C122.364 46.8412 122.185 46.9949 122.005 47.1743C121.826 47.3281 121.646 47.4819 121.493 47.5844C121.339 47.6869 121.185 47.7382 121.057 47.7382C121.006 47.7382 120.954 47.7126 120.929 47.6869C120.903 47.6613 120.878 47.61 120.878 47.5332C120.878 47.4563 120.903 47.3537 120.929 47.2256C120.954 47.0975 120.98 46.9437 121.031 46.7899C121.083 46.6361 121.108 46.4567 121.159 46.3029C121.211 46.1492 121.262 45.9954 121.288 45.8416L121.621 44.8164C121.723 44.4833 121.826 44.2013 121.903 43.9963C121.98 43.7913 122.031 43.6375 122.057 43.5862L121.288 43.6631L120.878 44.9446L120.775 44.919C120.801 44.8164 120.801 44.7396 120.826 44.637C120.852 44.5345 120.852 44.4576 120.852 44.3551C120.852 44.0988 120.801 43.9194 120.698 43.7913C120.596 43.6631 120.442 43.5862 120.211 43.5862C120.006 43.5862 119.776 43.6375 119.545 43.7656C119.314 43.8938 119.109 44.0476 118.878 44.227C118.673 44.432 118.468 44.637 118.263 44.8933C118.058 45.1496 117.905 45.4059 117.751 45.6622C117.597 45.9185 117.495 46.2004 117.392 46.4567C117.315 46.713 117.264 46.9693 117.264 47.1743C117.264 47.4819 117.341 47.7382 117.469 47.9176C117.623 48.1226 117.802 48.2251 118.058 48.2251C118.289 48.2251 118.52 48.1739 118.725 48.0457C118.93 47.9176 119.135 47.7638 119.314 47.5588C119.494 47.3537 119.673 47.1487 119.801 46.9181C119.955 46.6874 120.083 46.4567 120.186 46.2261C120.288 46.021 120.391 45.816 120.442 45.6366C120.621 45.4059 120.647 45.2778 120.673 45.2265ZM117.981 46.8924C117.981 46.9949 117.981 47.0718 118.007 47.1743C118.033 47.2769 118.058 47.3537 118.084 47.4306C118.135 47.5075 118.186 47.5844 118.238 47.6357C118.289 47.6869 118.366 47.7126 118.468 47.7126C118.699 47.7126 118.93 47.61 119.16 47.405C119.417 47.2 119.622 46.9437 119.827 46.6361C120.032 46.3286 120.211 45.9954 120.339 45.6622C120.468 45.329 120.544 45.0215 120.544 44.7652C120.544 44.5345 120.493 44.3295 120.365 44.1501C120.237 43.9707 120.083 43.8938 119.852 43.8938C119.673 43.8938 119.494 43.9451 119.34 44.0476C119.186 44.1501 119.032 44.3039 118.878 44.4833C118.725 44.6627 118.597 44.8421 118.494 45.0727C118.366 45.3034 118.289 45.5084 118.186 45.7391C118.11 45.9698 118.033 46.1748 118.007 46.3798C118.007 46.5849 117.981 46.7643 117.981 46.8924ZM126.08 45.2265C126.055 45.3034 126.003 45.4316 125.927 45.611C125.85 45.7904 125.773 45.9698 125.645 46.2004C125.542 46.4055 125.414 46.6361 125.26 46.8668C125.106 47.0975 124.953 47.3281 124.773 47.5075C124.594 47.7126 124.389 47.8663 124.184 47.9945C123.979 48.1226 123.748 48.1739 123.517 48.1739C123.261 48.1739 123.056 48.0714 122.902 47.8663C122.749 47.6613 122.672 47.4306 122.672 47.1231C122.672 46.8924 122.723 46.6618 122.8 46.4055C122.877 46.1492 123.005 45.8672 123.159 45.611C123.312 45.3547 123.466 45.0727 123.671 44.8421C123.876 44.5858 124.081 44.3808 124.286 44.1757C124.491 43.9707 124.722 43.8169 124.953 43.7144C125.183 43.5862 125.388 43.535 125.593 43.535C125.798 43.535 125.952 43.6119 126.055 43.7913C126.157 43.9707 126.208 44.1501 126.208 44.3807C126.208 44.4576 126.208 44.5345 126.183 44.637C126.183 44.7139 126.157 44.8164 126.157 44.8933H126.234L126.926 42.6892C127.029 42.3817 127.105 42.0741 127.182 41.8178C127.259 41.5359 127.285 41.3309 127.285 41.2027C127.285 41.1002 127.259 41.0233 127.208 40.9721C127.157 40.9208 127.105 40.8952 127.029 40.8695C126.952 40.8439 126.875 40.8183 126.798 40.8183C126.721 40.8183 126.644 40.8183 126.567 40.8183L126.619 40.6645L128.208 40.5364L126.413 46.1748C126.388 46.2773 126.337 46.4055 126.311 46.5336C126.285 46.6618 126.234 46.7899 126.208 46.9181C126.183 47.0462 126.157 47.1743 126.132 47.2769C126.106 47.3794 126.106 47.4819 126.106 47.5332C126.106 47.61 126.132 47.6613 126.157 47.6869C126.208 47.7382 126.234 47.7382 126.311 47.7382C126.439 47.7382 126.567 47.6869 126.747 47.5844C126.9 47.4819 127.08 47.3537 127.259 47.2C127.439 47.0462 127.618 46.8668 127.797 46.6618C127.977 46.4567 128.156 46.2773 128.31 46.0979C128.464 45.9185 128.592 45.7647 128.72 45.611C128.823 45.4572 128.925 45.3547 128.951 45.3034L128.874 45.5597C128.823 45.6366 128.72 45.7391 128.618 45.8929C128.489 46.0467 128.361 46.2261 128.182 46.4311C128.028 46.6361 127.823 46.8412 127.618 47.0462C127.413 47.2512 127.208 47.4306 127.003 47.61C126.798 47.7894 126.593 47.9176 126.388 48.0457C126.183 48.1483 126.003 48.1995 125.824 48.1995C125.67 48.1995 125.568 48.1483 125.491 48.0714C125.414 47.9945 125.388 47.8663 125.388 47.7638C125.388 47.6613 125.414 47.5588 125.44 47.4306C125.465 47.3025 125.491 47.2 125.516 47.0975L126.08 45.2778V45.2265ZM123.364 46.8924C123.364 46.7386 123.389 46.5592 123.44 46.3542C123.492 46.1492 123.569 45.9441 123.646 45.7135C123.722 45.4828 123.825 45.2778 123.953 45.0727C124.081 44.8677 124.209 44.6627 124.338 44.5089C124.491 44.3551 124.619 44.2013 124.773 44.0988C124.927 43.9963 125.081 43.9451 125.235 43.9451C125.465 43.9451 125.619 44.0219 125.747 44.2013C125.875 44.3808 125.927 44.5858 125.927 44.8164C125.927 44.9702 125.901 45.1496 125.824 45.3547C125.747 45.5597 125.67 45.7647 125.568 45.9698C125.465 46.1748 125.337 46.3798 125.183 46.5849C125.03 46.7899 124.901 46.9693 124.748 47.1231C124.594 47.2769 124.44 47.405 124.286 47.5075C124.132 47.61 123.979 47.6613 123.851 47.6613C123.748 47.6613 123.671 47.6357 123.62 47.5844C123.543 47.5331 123.492 47.4819 123.466 47.405C123.415 47.3281 123.389 47.2512 123.364 47.1487C123.364 47.0718 123.364 46.9693 123.364 46.8924ZM132.923 45.5853L133 45.329C132.898 45.4828 132.718 45.6878 132.513 45.9441C132.308 46.2004 132.052 46.4824 131.77 46.7386C131.488 46.9949 131.155 47.2512 130.796 47.4306C130.437 47.6357 130.078 47.7382 129.694 47.7382C129.386 47.7382 129.156 47.6613 129.002 47.5332C128.848 47.3794 128.746 47.1487 128.746 46.8155C128.746 46.6874 128.771 46.5336 128.797 46.4055C128.823 46.2773 128.848 46.1235 128.9 45.9954C129.105 46.0467 129.284 46.0723 129.489 46.0723C129.797 46.0723 130.078 46.021 130.335 45.8929C130.591 45.7647 130.847 45.611 131.027 45.4059C131.232 45.2009 131.386 44.9959 131.514 44.7908C131.642 44.5858 131.693 44.3808 131.693 44.1757C131.693 43.9451 131.642 43.7656 131.514 43.6631C131.386 43.5606 131.232 43.4837 131.052 43.4837C130.822 43.4837 130.591 43.535 130.36 43.6375C130.13 43.74 129.899 43.8938 129.668 44.0732C129.438 44.2526 129.233 44.4576 129.053 44.7139C128.848 44.9446 128.694 45.2009 128.541 45.4572C128.387 45.7135 128.284 45.9698 128.208 46.2261C128.131 46.4824 128.079 46.7386 128.079 46.9437C128.079 47.3281 128.182 47.61 128.387 47.8151C128.592 48.0201 128.9 48.1226 129.31 48.1226C129.617 48.1226 129.899 48.0714 130.181 47.9688C130.463 47.8663 130.719 47.7382 130.95 47.5844C131.181 47.4306 131.411 47.2512 131.616 47.0718C131.821 46.8668 132.001 46.6874 132.18 46.4824C132.334 46.2773 132.488 46.0979 132.616 45.9441C132.744 45.8416 132.846 45.7135 132.923 45.5853ZM130.694 43.74C130.822 43.74 130.924 43.7913 131.001 43.9194C131.078 44.0219 131.104 44.1501 131.104 44.3039C131.104 44.4833 131.078 44.6627 131.001 44.8677C130.95 45.0727 130.847 45.2265 130.745 45.3803C130.642 45.5341 130.514 45.6622 130.36 45.7647C130.207 45.8673 130.053 45.9185 129.899 45.9185C129.797 45.9185 129.694 45.9185 129.592 45.8929C129.489 45.8673 129.412 45.8416 129.335 45.816C129.258 45.7904 129.181 45.7391 129.13 45.7135C129.079 45.6878 129.028 45.6622 129.002 45.6366C129.028 45.5597 129.105 45.4059 129.207 45.2009C129.31 44.9959 129.438 44.7908 129.592 44.5858C129.745 44.3808 129.925 44.2013 130.104 44.0219C130.284 43.8169 130.489 43.74 130.694 43.74Z" fill="#B9B9B9" stroke="#B9B9B9" stroke-width="0.5669" stroke-miterlimit="22.9256"/>
</svg>
