<svg width="52" height="41" viewBox="0 0 52 41" fill="none" xmlns="http://www.w3.org/2000/svg">
<path d="M19.2742 0.878418C28.6606 1.17612 36.9614 3.27757 44.439 8.11091C46.5055 9.44183 48.3793 11.0529 49.6401 13.2069C51.2162 15.8688 51.3913 18.8108 51.1112 21.7703C50.6208 26.7963 49.0097 31.437 45.9976 35.5349C44.439 37.6538 42.5828 39.5276 39.9735 40.2631C38.52 40.6834 36.9439 40.8585 35.4203 40.876C30.9372 40.9286 26.5417 40.1055 22.2162 39.0198C17.2778 37.7764 12.462 36.1828 8.01389 33.6961C6.36776 32.7679 4.82669 31.6647 3.33817 30.4914C1.18418 28.7752 0.115939 26.376 0.0283785 23.6967C-0.216791 15.9738 2.41002 9.35427 8.08394 4.04811C9.71257 2.52456 11.7089 1.70149 13.898 1.42129C15.8593 1.15861 17.8382 1.01851 19.2742 0.878418ZM24.7905 17.3748C24.4052 17.3748 24.0199 17.4098 23.6522 17.3748C22.7766 17.2522 22.5664 17.6375 22.584 18.4606C22.6365 20.9998 22.584 23.5391 22.6015 26.0783C22.6015 27.7245 22.4088 27.4618 24.0375 27.5318C24.7905 27.5669 25.0356 27.3742 24.9831 26.5511C24.8955 24.87 24.9306 23.1713 24.9656 21.4726C24.9656 21.1924 25.2283 20.8772 25.4559 20.6671C25.526 20.597 25.9638 20.7897 26.0689 20.9473C26.209 21.1749 26.209 21.5077 26.209 21.7879C26.2265 23.399 26.2965 24.9926 26.2265 26.6037C26.1914 27.5844 26.7518 27.4618 27.3823 27.5143C28.1003 27.5668 28.433 27.3917 28.4155 26.5687C28.3454 24.94 28.3805 23.3114 28.398 21.6653C28.398 21.245 28.3279 20.6496 28.9759 20.7371C29.2035 20.7722 29.5012 21.2975 29.5187 21.6302C29.6063 22.9437 29.5888 24.2571 29.6063 25.5705C29.6063 26.2009 29.6063 26.8138 29.6063 27.4618C30.3768 27.4618 30.9722 27.4618 31.6552 27.4618C31.6727 27.129 31.7078 26.8489 31.7078 26.5687C31.7078 24.6774 31.7253 22.7685 31.6727 20.8772C31.6552 20.1592 31.4976 19.4237 31.2875 18.7408C31.0248 17.8476 30.2367 17.2347 29.4662 17.4273C28.9584 17.5499 28.5381 17.9877 28.1528 18.2504C27.68 17.9702 27.1896 17.4449 26.6818 17.4624C26.1389 17.4799 25.6311 17.9877 25.0532 18.303C25.0006 18.0228 24.8955 17.7251 24.7905 17.3748ZM9.22223 17.9877C7.80375 17.0596 7.03322 17.2172 6.26268 18.5831C5.98249 19.0735 5.77235 19.6514 5.64976 20.2118C5.21196 22.3132 5.24698 24.3972 6.21015 26.3585C6.87561 27.7245 7.89131 27.8646 8.99457 26.8313C9.11716 26.7263 9.25725 26.6562 9.43237 26.5336C9.53745 26.9014 9.62501 27.1816 9.73008 27.4968C10.1854 27.4968 10.5882 27.4618 10.9909 27.4968C11.6214 27.5493 11.779 27.2691 11.779 26.6912C11.7615 22.3482 11.779 18.0052 11.7615 13.6447C11.7615 13.4171 11.6739 13.0143 11.6039 13.0143C10.9384 12.9618 10.2554 12.8917 9.62501 13.0143C9.43237 13.0493 9.23974 13.6798 9.23974 14.03C9.1872 15.3084 9.22223 16.5868 9.22223 17.9877ZM33.3364 19.5463C34.212 19.6864 35.0175 19.7389 35.7881 19.9491C36.0508 20.0191 36.2084 20.4394 36.4185 20.7021C36.1909 20.8597 35.9807 21.0874 35.7355 21.1399C33.8442 21.5427 32.811 23.434 33.0737 25.4829C33.3189 27.4618 34.9125 28.1097 36.471 26.9014C36.6637 26.7438 36.8738 26.6212 37.1015 26.4636C37.4342 27.5318 38.1697 27.742 39.7458 27.3042C39.8509 24.8525 39.5357 22.4533 38.9403 20.0717C38.2223 17.2347 35.753 16.8494 33.8267 17.3748C33.6341 17.4273 33.3889 17.69 33.3714 17.8827C33.3014 18.4606 33.3364 19.0735 33.3364 19.5463ZM45.6999 24.8525C45.2971 24.8525 44.9994 24.835 44.7192 24.8525C43.8611 24.905 43.5284 24.5373 43.581 23.6617C43.651 22.5584 43.5985 21.4376 43.5985 20.3344C43.5985 18.9159 43.5985 18.9334 44.9819 18.8283C45.2446 18.8108 45.6649 18.5481 45.6999 18.3555C45.7875 17.7776 45.7349 17.1647 45.7349 16.5167C45.1921 16.5167 44.8243 16.4992 44.439 16.5167C43.8787 16.5517 43.5985 16.2715 43.6685 15.7287C43.7911 14.7655 43.3008 14.5729 42.4952 14.6779C42.2675 14.713 42.0224 14.713 41.7947 14.6955C41.2168 14.6779 40.9191 14.8881 40.9892 15.5185C41.0592 16.1139 40.9016 16.5342 40.1661 16.5693C40.0085 16.5693 39.7633 16.902 39.7108 17.1296C39.6232 17.4273 39.7108 17.7601 39.6758 18.0928C39.6232 18.6007 39.8159 18.8808 40.3587 18.8283C41.1468 18.7408 41.2518 19.1435 41.2518 19.8265C41.2343 21.4026 41.2343 22.9787 41.3219 24.5548C41.427 26.341 43.1256 27.777 44.7718 27.4793C45.1045 27.4268 45.5773 27.059 45.6649 26.7613C45.805 26.1659 45.6999 25.5354 45.6999 24.8525ZM21.4106 18.2504C21.2005 17.9002 21.0604 17.3048 20.7802 17.2347C18.7488 16.7794 16.8575 18.7758 17.3478 20.7897C17.558 21.6127 17.8732 22.4008 18.1184 23.2063C18.346 23.9769 18.3285 24.6423 17.4529 25.0451C17.2778 25.1327 17.1377 25.4829 17.1377 25.7281C17.1377 26.0433 17.2778 26.341 17.3653 26.6562C17.6105 27.5844 17.7506 27.6719 18.6963 27.3742C20.7977 26.7088 21.5507 24.94 20.7102 22.681C20.4475 21.9805 20.1498 21.28 19.9922 20.5445C19.9396 20.2818 20.1673 19.7214 20.3424 19.7039C21.2005 19.5463 21.2705 19.0034 21.4106 18.2504ZM13.3551 22.4183C13.3551 23.6091 13.3376 24.7999 13.3551 25.9908C13.3726 27.7245 13.1274 27.4443 14.8961 27.5143C15.6842 27.5493 15.8768 27.2516 15.8593 26.5161C15.7893 24.0119 15.7893 21.5077 15.7542 19.0209C15.7367 17.3048 15.7542 17.3223 14.0381 17.4098C13.5127 17.4449 13.3201 17.62 13.3376 18.1453C13.3726 19.5638 13.3551 20.9823 13.3551 22.4183ZM15.7192 12.8042C14.8786 12.9267 13.8454 12.7866 13.4952 13.2069C13.1274 13.6272 13.1449 14.8881 13.5302 15.3084C13.898 15.7287 14.9312 15.5535 15.7367 15.6411C15.7192 14.6429 15.7192 13.8549 15.7192 12.8042Z" fill="#B9B9B9"/>
<path d="M24.7906 17.375C24.9132 17.7252 25.0008 18.0229 25.0884 18.2681C25.6487 17.9529 26.1741 17.445 26.717 17.4275C27.2073 17.41 27.7152 17.9529 28.188 18.2155C28.5733 17.9704 28.9936 17.5151 29.5014 17.3925C30.2719 17.2174 31.0425 17.8128 31.3227 18.7059C31.5328 19.3889 31.6904 20.1244 31.7079 20.8424C31.7605 22.7337 31.743 24.625 31.743 26.5338C31.743 26.814 31.7079 27.0942 31.6904 27.4269C31.025 27.4269 30.412 27.4269 29.6415 27.4269C29.6415 26.7965 29.6415 26.166 29.6415 25.5356C29.624 24.2222 29.6415 22.9088 29.5539 21.5954C29.5364 21.2802 29.2387 20.7373 29.0111 20.7023C28.3631 20.6322 28.4332 21.2101 28.4332 21.6304C28.4157 23.259 28.3981 24.9052 28.4507 26.5338C28.4857 27.3569 28.153 27.532 27.4175 27.4794C26.787 27.4444 26.2091 27.567 26.2617 26.5688C26.3317 24.9752 26.2617 23.3641 26.2442 21.753C26.2442 21.4728 26.2266 21.1401 26.1041 20.9124C25.999 20.7373 25.5612 20.5622 25.4911 20.6322C25.2635 20.8424 25.0183 21.1576 25.0008 21.4378C24.9658 23.1364 24.9307 24.8176 25.0183 26.5163C25.0708 27.3218 24.8257 27.5145 24.0727 27.497C22.444 27.4269 22.6367 27.6896 22.6367 26.0435C22.6192 23.5042 22.6717 20.9649 22.6192 18.4257C22.6016 17.6026 22.8118 17.2174 23.6874 17.3399C24.0201 17.4275 24.4054 17.375 24.7906 17.375Z" fill="white"/>
<path d="M9.22187 17.9878C9.22187 16.5869 9.18684 15.3085 9.23938 14.0301C9.25689 13.6624 9.43201 13.0494 9.62465 13.0144C10.2551 12.8918 10.9381 12.9619 11.6035 13.0144C11.6736 13.0144 11.7611 13.4172 11.7611 13.6448C11.7611 17.9878 11.7611 22.3308 11.7786 26.6914C11.7786 27.2868 11.621 27.567 10.9906 27.4969C10.5878 27.4619 10.185 27.4969 9.72972 27.4969C9.64216 27.1817 9.5546 26.9015 9.43201 26.5337C9.25689 26.6563 9.09928 26.7264 8.99421 26.8315C7.89095 27.8647 6.87525 27.7246 6.20979 26.3586C5.26413 24.3973 5.2116 22.3133 5.6494 20.2119C5.77199 19.6515 5.98213 19.0911 6.26232 18.5833C7.03286 17.2173 7.80339 17.0597 9.22187 17.9878ZM9.18684 20.4921C8.24119 20.6497 7.76836 21.2101 7.64578 22.1032C7.54071 22.8037 7.99602 23.9244 8.52138 24.0645C8.6965 24.1171 9.15182 23.8369 9.15182 23.6968C9.22187 22.6461 9.18684 21.6128 9.18684 20.4921Z" fill="white"/>
<path d="M33.3362 19.5464C33.3362 19.0736 33.3012 18.4607 33.3537 17.8653C33.3712 17.6726 33.6164 17.41 33.809 17.3574C35.7179 16.8321 38.2046 17.1998 38.9226 20.0543C39.518 22.4359 39.8332 24.8526 39.7281 27.2868C38.152 27.7246 37.4165 27.5144 37.0838 26.4462C36.8561 26.6038 36.646 26.7264 36.4534 26.884C34.8948 28.0748 33.3012 27.4269 33.056 25.4655C32.7933 23.4341 33.8441 21.5428 35.7179 21.1225C35.963 21.07 36.1732 20.8423 36.4008 20.6847C36.1907 20.422 36.0331 20.0018 35.7704 19.9317C35.0174 19.7391 34.2293 19.669 33.3362 19.5464ZM37.0488 23.7669C37.0488 23.6268 37.0838 23.4692 37.0488 23.3291C36.9437 23.0138 36.7861 22.7161 36.646 22.4009C36.4183 22.6636 36.1557 22.9263 35.963 23.2065C35.8755 23.3291 35.8404 23.5742 35.9105 23.7143C36.1206 24.1521 36.3833 24.5724 36.611 24.9927C36.7686 24.6074 36.9087 24.2222 37.0663 23.8369C37.0488 23.8194 37.0488 23.7844 37.0488 23.7669Z" fill="white"/>
<path d="M45.7 24.8526C45.7 25.5531 45.805 26.1835 45.6649 26.7439C45.5949 27.0416 45.1221 27.3919 44.7718 27.4619C43.1257 27.7596 41.427 26.3236 41.3219 24.5374C41.2344 22.9613 41.2169 21.3852 41.2519 19.8091C41.2694 19.1262 41.1468 18.7234 40.3588 18.8109C39.8159 18.881 39.6233 18.6008 39.6758 18.0754C39.7108 17.7602 39.6233 17.4275 39.7108 17.1123C39.7634 16.8846 39.991 16.5519 40.1661 16.5519C40.9016 16.5169 41.0593 16.1141 40.9892 15.5012C40.9192 14.8707 41.2344 14.6606 41.7948 14.6781C42.0224 14.6781 42.2676 14.6956 42.4952 14.6606C43.3008 14.5555 43.7911 14.7656 43.6686 15.7113C43.5985 16.2542 43.8787 16.5169 44.4391 16.4993C44.8068 16.4818 45.1921 16.4993 45.735 16.4993C45.735 17.1473 45.805 17.7602 45.7 18.3381C45.6649 18.5307 45.2446 18.7934 44.982 18.8109C43.5985 18.916 43.5985 18.8985 43.5985 20.317C43.5985 21.4202 43.651 22.541 43.581 23.6443C43.5285 24.5199 43.8612 24.8876 44.7193 24.8351C45.017 24.8351 45.2972 24.8526 45.7 24.8526Z" fill="white"/>
<path d="M21.4106 18.2503C21.2705 19.0034 21.183 19.5462 20.3424 19.6863C20.1673 19.7214 19.9396 20.2817 19.9922 20.5269C20.1498 21.2624 20.4475 21.9629 20.7102 22.6634C21.5507 24.9224 20.7977 26.6912 18.6963 27.3566C17.7506 27.6543 17.593 27.5668 17.3654 26.6386C17.2778 26.3234 17.1377 26.0257 17.1377 25.7105C17.1377 25.4653 17.2778 25.1151 17.4529 25.0275C18.3285 24.6247 18.346 23.9593 18.1184 23.1888C17.8732 22.3832 17.558 21.5952 17.3478 20.7721C16.84 18.7582 18.7313 16.7618 20.7802 17.2171C21.0604 17.2872 21.218 17.9001 21.4106 18.2503Z" fill="white"/>
<path d="M13.3551 22.4183C13.3551 20.9998 13.3726 19.5638 13.3551 18.1453C13.3376 17.62 13.5302 17.4448 14.0556 17.4098C15.7542 17.3223 15.7542 17.3047 15.7718 19.0209C15.7893 21.5252 15.8068 24.0294 15.8768 26.5161C15.8943 27.2516 15.7017 27.5493 14.9137 27.5143C13.1449 27.4443 13.3901 27.7069 13.3726 25.9907C13.3551 24.7999 13.3551 23.6091 13.3551 22.4183Z" fill="white"/>
<path d="M15.7187 12.8042C15.7187 13.8549 15.7187 14.643 15.7187 15.6412C14.9132 15.5536 13.88 15.7112 13.5122 15.3084C13.1445 14.8881 13.127 13.6273 13.4772 13.207C13.8449 12.7867 14.8782 12.9268 15.7187 12.8042Z" fill="white"/>
<path d="M9.18704 20.4919C9.18704 21.6127 9.22207 22.6459 9.15202 23.6791C9.15202 23.8192 8.6967 24.0994 8.52158 24.0469C7.99622 23.9068 7.55842 22.786 7.64598 22.0855C7.78607 21.2099 8.24139 20.6671 9.18704 20.4919Z" fill="#B9B9B9"/>
<path d="M37.049 23.7666C37.049 23.8017 37.049 23.8192 37.049 23.8542C36.9089 24.2395 36.7513 24.6247 36.5937 25.01C36.3485 24.5897 36.1034 24.1694 35.8932 23.7316C35.8232 23.5915 35.8582 23.3639 35.9458 23.2238C36.1384 22.9261 36.4011 22.6809 36.6287 22.4182C36.7688 22.7159 36.9264 23.0311 37.0315 23.3464C37.084 23.4514 37.049 23.609 37.049 23.7666Z" fill="#B9B9B9"/>
</svg>
