<svg width="76" height="30" viewBox="0 0 76 30" fill="none" xmlns="http://www.w3.org/2000/svg">
<g clip-path="url(#clip0_197_986)">
<path fill-rule="evenodd" clip-rule="evenodd" d="M30.0386 14.9947C30.0386 6.71518 23.3247 0 15.0468 0C6.76893 0 0.0551758 6.71518 0.0551758 14.9947C0.0551758 23.2742 6.76893 29.9894 15.0468 29.9894C23.3247 29.9894 30.0386 23.2742 30.0386 14.9947ZM18.3957 14.2009V14.0407C18.388 12.9953 18.2658 11.9804 17.7241 11.0189C17.1825 10.0345 16.3738 9.14933 15.3286 8.68383C14.5733 8.34047 13.6272 8.18783 12.7956 8.18783H10.1177H6.8447V20.1836H8.6911C8.56905 20.1913 8.64526 20.2141 12.788 20.2141C13.6196 20.2141 14.5657 20.0615 15.321 19.7181C16.3662 19.2449 17.1672 18.3598 17.7165 17.383C18.2506 16.414 18.3728 15.4067 18.388 14.3613V14.2009H18.3957ZM15.1837 14.2139C15.1837 14.3775 15.1831 14.5409 15.1608 14.697C14.9853 16.3147 13.5967 17.3983 11.9869 17.3983H10.1177V11.0113H11.9869C13.5967 11.0113 14.9777 12.1025 15.1608 13.7202C15.176 13.8721 15.1836 14.0392 15.1837 14.2139ZM20.0208 10.7519H23.2404H23.248V15.4068C23.248 15.4679 23.2441 15.527 23.2404 15.5861C23.2365 15.6453 23.2327 15.7044 23.2327 15.7655C23.2022 16.3149 23.0955 17.5587 22.6149 18.917C21.7299 21.4352 20.0437 23.175 17.7396 23.7626L16.9461 20.6416C19.9902 19.8632 20.0208 15.5213 20.0208 15.4755V10.7519Z" fill="#B9B9B9"/>
<path d="M35.6761 10.3935C35.699 10.2943 35.8059 10.218 35.905 10.218H36.111C36.2026 10.218 36.3018 10.2791 36.3247 10.3554L38.8272 17.2003H38.8881L41.3522 10.3554C41.3751 10.2791 41.4822 10.218 41.566 10.218H41.7644C41.8636 10.218 41.9629 10.2943 41.9933 10.3935L43.6257 18.7417C43.664 18.9173 43.5878 19.0394 43.3972 19.0394H42.8933C42.7945 19.0394 42.6878 18.9553 42.6648 18.8637L41.5356 12.4615H41.4822L39.1551 19.0241C39.1323 19.1004 39.0178 19.1614 38.9415 19.1614H38.7126C38.6363 19.1614 38.5218 19.1004 38.4989 19.0241L36.1492 12.4615H36.0958L34.9972 18.8637C34.9819 18.9477 34.8674 19.0394 34.7683 19.0394H34.2648C34.0741 19.0394 33.9978 18.9173 34.0359 18.7417L35.6685 10.3935H35.6761Z" fill="#B9B9B9"/>
<path d="M48.4487 10.218C50.9815 10.218 52.9957 12.2173 52.9957 14.7049C52.9957 17.1926 50.974 19.169 48.4487 19.169C45.9234 19.169 43.9092 17.1926 43.9092 14.7049C43.9092 12.2173 45.9155 10.218 48.4487 10.218ZM48.4487 18.299C50.455 18.299 52.1183 16.6813 52.1183 14.7049C52.1183 12.7285 50.4629 11.0879 48.4487 11.0879C46.4345 11.0879 44.7942 12.7285 44.7942 14.7049C44.7942 16.6813 46.4345 18.299 48.4487 18.299ZM47.3119 9.04276C47.2586 8.94359 47.3119 8.84442 47.3882 8.80627L49.2878 7.76086C49.3641 7.70742 49.555 7.68445 49.6159 7.79892L49.8448 8.24924C49.8981 8.34841 49.8677 8.4705 49.7685 8.50865L47.7317 9.34038C47.5562 9.41671 47.4949 9.41667 47.4416 9.31746L47.3119 9.04276Z" fill="#B9B9B9"/>
<path d="M52.9262 10.6681C52.8499 10.5079 52.9491 10.3477 53.1396 10.3477H53.6432C53.7578 10.3477 53.8341 10.4239 53.857 10.485L57.0076 17.4443H57.061L60.2124 10.485C60.2349 10.4239 60.3266 10.3477 60.4258 10.3477H60.9294C61.1199 10.3477 61.2191 10.5079 61.1428 10.6681L57.2977 19.0316C57.2594 19.1079 57.1831 19.1689 57.0839 19.1689H56.9543C56.863 19.1689 56.7788 19.1079 56.7408 19.0316L52.9262 10.6681Z" fill="#B9B9B9"/>
<path d="M61.7607 10.5769C61.7607 10.4548 61.86 10.3403 61.9975 10.3403H66.9793C67.1169 10.3403 67.2236 10.4548 67.2236 10.5769V10.9356C67.2236 11.0577 67.1244 11.1721 66.9793 11.1721H62.7374V14.2091H66.3611C66.4912 14.2091 66.5979 14.3237 66.5979 14.4457V14.8044C66.5979 14.9418 66.4833 15.0409 66.3611 15.0409H62.7374V18.2077H66.9793C67.1169 18.2077 67.2236 18.3222 67.2236 18.4443V18.8029C67.2236 18.925 67.1244 19.0395 66.9793 19.0395H61.9975C61.86 19.0395 61.7607 18.925 61.7607 18.8029V10.5769Z" fill="#B9B9B9"/>
<path d="M68.4829 10.5769C68.4829 10.4548 68.5975 10.3403 68.7272 10.3403H69.2303C69.3604 10.3403 69.4671 10.4548 69.4671 10.5769V18.8029C69.4671 18.925 69.3525 19.0395 69.2303 19.0395H68.7272C68.5975 19.0395 68.4829 18.925 68.4829 18.8029V10.5769Z" fill="#B9B9B9"/>
<path d="M70.4666 17.7342C70.5274 17.6579 70.5962 17.574 70.6575 17.4977C70.7871 17.3375 70.9243 17.2383 71.0998 17.3832C71.1836 17.4595 72.1069 18.3295 73.2361 18.3295C74.2583 18.3295 74.9298 17.6961 74.9298 16.9635C74.9298 16.1012 74.1745 15.5976 72.7172 14.9948C71.3286 14.3996 70.497 13.8425 70.497 12.4232C70.497 11.5761 71.176 10.2102 73.1903 10.2102C74.4262 10.2102 75.3492 10.8435 75.3492 10.8435C75.4255 10.8817 75.5784 11.0344 75.4259 11.2632C75.3721 11.3396 75.3266 11.4236 75.2733 11.4998C75.1587 11.6754 75.0365 11.7211 74.8306 11.6142C74.7389 11.5685 73.9456 11.0419 73.1749 11.0419C71.8322 11.0419 71.4278 11.889 71.4278 12.4079C71.4278 13.2397 72.0764 13.7281 73.1369 14.1554C74.846 14.8422 75.9444 15.4755 75.9444 16.9178C75.9444 18.2074 74.693 19.1536 73.2132 19.1536C71.733 19.1536 70.7104 18.2989 70.5428 18.1463C70.4436 18.0624 70.314 17.9555 70.4666 17.7266V17.7342Z" fill="#B9B9B9"/>
</g>
<defs>
<clipPath id="clip0_197_986">
<rect width="75.8893" height="30" fill="white" transform="translate(0.0551758)"/>
</clipPath>
</defs>
</svg>
