<svg width="112" height="14" viewBox="0 0 112 14" fill="none" xmlns="http://www.w3.org/2000/svg">
<g clip-path="url(#clip0_197_1172)">
<path d="M0.787671 6.28511C0.0829177 6.64171 -0.380158 7.31604 0.422619 8.13403C0.422619 8.13403 4.46185 12.1783 4.98408 12.7225C5.508 13.2667 6.09276 13.6216 7.03581 13.6216C7.97886 13.6216 13.8163 13.6014 15.1971 13.6014C16.5779 13.6014 17.2556 13.429 18.4623 12.8476C19.6943 12.2527 27.3334 8.5633 28.5857 7.95826C29.8245 7.35998 30.1592 6.25637 28.9254 5.10376C27.69 3.95283 26.0168 2.42502 25.0129 1.50394C24.009 0.582858 23.1708 0.373291 22.2091 0.373291H13.5882C12.7296 0.373291 12.2902 0.393572 11.4536 0.812705C10.617 1.23184 1.66819 5.83724 0.791051 6.28173L0.787671 6.28511Z" fill="#B9B9B9"/>
<path d="M15.5501 5.18994L21.9436 1.91968H12.6973L2.32876 7.22645L1.90625 7.44278L6.51165 12.0786H17.4024L14.3755 9.05678H21.7306L23.0911 6.83774L24.1034 5.18994H15.5501Z" fill="white"/>
<path d="M55.2447 2.7749H47.4282L40.2708 6.43556L42.5203 2.7749H38.1903C36.1775 2.7749 35.0502 3.64697 34.3455 4.7979C33.6306 5.96742 30.313 11.3553 30.313 11.3553H37.2473L39.4663 7.74536L43.078 11.3638H50.8303L46.6508 7.17243L55.243 2.77659L55.2447 2.7749Z" fill="#B9B9B9"/>
<path d="M91.6231 2.60938H83.8083L76.6509 6.34102L78.9004 2.60938H74.5705C72.5576 2.60938 71.4304 3.49834 70.7273 4.67124C70.0124 5.86273 66.6948 11.3554 66.6948 11.3554H73.6291L75.8482 7.67616L79.4598 11.3639H87.2121L83.0326 7.09309L91.6248 2.61276L91.6231 2.60938Z" fill="#B9B9B9"/>
<path d="M66.3553 8.80502L68.3597 5.53814H61.1313L66.5344 2.7749H58.7179L49.5967 7.44115L53.4906 11.3604H62.6963L60.1376 8.80502H66.3553Z" fill="#B9B9B9"/>
<path d="M108.812 2.38619C105.449 2.38619 97.2018 2.38281 97.2018 2.38281C94.0498 2.38281 91.9592 3.00644 89.9599 6.23952C87.9606 9.47091 89.3481 11.5869 91.4657 11.5869H104.33C107.717 11.5869 109.516 10.2297 111.128 7.63551C112.843 4.87564 112.01 2.38788 108.814 2.38788L108.812 2.38619ZM104.603 7.23327C103.987 8.22365 103.303 8.7408 102.01 8.7408H96.9094C96.1033 8.7408 95.6064 7.94479 96.3686 6.71105C97.1308 5.47899 97.8947 5.23056 99.098 5.23056C99.098 5.23056 102.439 5.23056 103.72 5.23056C105.001 5.23056 105.258 6.18037 104.604 7.23327H104.603Z" fill="#B9B9B9"/>
</g>
<defs>
<clipPath id="clip0_197_1172">
<rect width="112" height="13.2467" fill="white" transform="translate(0 0.376709)"/>
</clipPath>
</defs>
</svg>
