<svg width="113" height="21" viewBox="0 0 113 21" fill="none" xmlns="http://www.w3.org/2000/svg">
<path d="M0.0273438 6.95492C0.133384 6.70043 0.239425 6.44593 0.345465 6.14901C2.02091 6.14901 3.73876 6.14901 5.49904 6.14901C5.54145 6.6368 5.56266 7.03976 5.60508 7.69721C6.94119 6.3611 8.42575 5.61881 10.186 5.76727C11.9039 5.89452 13.3672 6.59438 14.4064 8.16378C15.5093 6.91251 16.7817 6.1066 18.3936 5.87331C22.4019 5.27948 25.2226 7.23063 25.5831 11.239C25.8164 13.8263 25.6467 16.4562 25.6679 19.086C25.6679 19.6162 25.6679 20.1252 25.6679 20.7402C24.353 20.7402 23.1442 20.7402 21.7869 20.7402C21.7869 19.5101 21.7869 18.3225 21.7869 17.1348C21.7869 15.5442 21.8293 13.9536 21.7657 12.363C21.702 10.1998 20.7265 9.11815 18.9662 9.09694C17.0787 9.09694 15.7638 10.4755 15.7213 12.5327C15.6789 14.8231 15.7213 17.1348 15.7213 19.4253C15.7213 19.807 15.7213 20.1888 15.7213 20.6978C14.4701 20.6978 13.2612 20.6978 11.9039 20.6978C11.9039 18.6618 11.9039 16.6682 11.9039 14.6535C11.9039 13.7627 11.9251 12.8932 11.8827 12.0024C11.7978 10.2422 10.8223 9.18177 9.27408 9.09694C7.59864 9.01211 6.17769 10.0725 5.96561 11.7055C5.81716 12.8508 5.83837 14.0384 5.83837 15.1837C5.81716 16.9864 5.83837 18.789 5.83837 20.6978C4.56588 20.6978 3.35702 20.6978 2.02091 20.6978C2.02091 17.1348 2.02091 13.5931 2.02091 9.96647C1.38466 9.92406 0.875668 9.90285 0.366673 9.86043C0.260633 9.5211 0.154592 9.18177 0.0485515 8.86365C0.0273434 8.22741 0.0273438 7.59117 0.0273438 6.95492Z" fill="#B9B9B9"/>
<path d="M60.6827 0.804623C60.9372 0.910663 61.1917 1.0167 61.5311 1.14395C61.5311 6.31873 61.5311 11.5359 61.5311 16.8167C62.0825 16.8592 62.5702 16.9016 63.2065 16.944C63.2065 18.1529 63.2065 19.3617 63.2065 20.6342C61.3614 20.6342 59.5375 20.6342 57.7136 20.6342C57.6712 20.1888 57.65 19.7647 57.6076 19.4465C56.6956 20.0616 55.72 20.8675 53.4508 20.9311C52.963 20.9311 52.454 20.9311 51.9662 20.9311C51.542 20.8039 51.0967 20.6978 50.6725 20.5706C46.7278 19.5102 45.2432 15.6079 45.6886 12.0661C46.4733 5.7249 53.1751 4.00705 57.65 7.44276C57.65 6.7641 57.65 6.2339 57.65 5.70369C57.65 4.47362 57.7136 3.22235 57.6288 1.99228C57.5863 1.22878 57.862 0.910664 58.5407 0.762207C59.2618 0.804623 59.9829 0.804623 60.6827 0.804623ZM53.5568 17.559C55.9321 17.559 57.7136 15.6927 57.6924 13.2538C57.6712 10.8361 55.9321 9.05458 53.578 9.05458C51.2027 9.05458 49.4212 10.8785 49.4424 13.3386C49.4848 15.7351 51.2451 17.559 53.5568 17.559Z" fill="#B9B9B9"/>
<path d="M102.462 20.9522C102.017 20.8462 101.593 20.7189 101.147 20.6129C98.2632 19.807 96.2484 17.262 96.1424 14.1232C96.0999 13.0416 96.1636 11.9176 96.4393 10.8784C97.7118 6.00052 103.629 4.07058 107.637 7.16696C107.828 7.31542 108.019 7.44267 108.189 7.59112C108.273 7.48508 108.337 7.44267 108.358 7.37904C108.443 5.91568 108.443 5.89447 109.928 5.91568C110.627 5.91568 111.327 6.04293 112.027 6.10656C112.027 10.9844 112.027 15.8623 112.027 20.7401C110.84 20.7401 109.652 20.7401 108.464 20.7401C108.422 20.0615 108.379 19.5313 108.358 19.2556C107.658 19.9979 106.98 20.7401 103.968 20.9522C103.459 20.9522 102.95 20.9522 102.462 20.9522ZM104.053 9.05448C101.635 9.05448 99.9174 10.836 99.9174 13.3173C99.9174 15.735 101.656 17.5589 103.989 17.5589C106.365 17.5589 108.146 15.735 108.125 13.2749C108.104 10.836 106.386 9.05448 104.053 9.05448Z" fill="#B9B9B9"/>
<path d="M34.1724 20.9524C33.7058 20.8464 33.218 20.7403 32.7514 20.6131C29.4854 19.6799 27.4494 16.6048 27.6827 12.957C27.916 9.33039 29.7187 6.78542 32.6878 6.00072C35.2752 5.32206 37.6505 5.76743 39.8349 7.67615C39.8773 7.10354 39.9198 6.63696 39.9834 5.9583C41.0014 5.9583 42.0406 5.93709 43.0798 6.00072C43.2282 6.00072 43.5039 6.44608 43.5039 6.70058C43.5251 11.3239 43.5251 15.9473 43.5251 20.6979C42.3375 20.6979 41.1922 20.6979 39.9834 20.6979C39.941 20.1253 39.9198 19.5951 39.8986 19.3194C38.4352 20.7616 37.6505 20.9948 35.4661 20.9948C35.0207 20.9524 34.5965 20.9524 34.1724 20.9524ZM35.6357 9.05468C33.218 9.03347 31.5001 10.815 31.5214 13.3175C31.5214 15.7564 33.2392 17.5379 35.5721 17.5591C37.9262 17.5591 39.6653 15.7989 39.6865 13.3811C39.7289 10.8574 38.0534 9.07589 35.6357 9.05468Z" fill="#B9B9B9"/>
<path d="M71.7108 20.9524C70.8625 20.7404 69.9929 20.6131 69.1658 20.3162C65.8361 19.1497 64.0759 16.0534 64.5212 12.1935C64.903 8.8214 67.2995 6.27643 70.6716 5.89468C71.9229 5.74622 73.2378 5.74622 74.4466 6.00072C77.7339 6.67938 79.7062 9.22435 79.7699 12.5752C79.7911 13.1691 79.7699 13.7629 79.7699 14.484C75.9948 14.484 72.2622 14.484 68.5296 14.484C68.6992 17.6864 72.856 18.5559 76.8644 16.3079C77.5642 16.9653 78.2853 17.6228 79.0276 18.3014C77.5854 19.7012 76.0372 20.3798 74.2982 20.6979C74.0013 20.7616 73.7043 20.8464 73.3862 20.91C72.8348 20.9524 72.2834 20.9524 71.7108 20.9524ZM68.572 11.9814C71.0958 11.9814 73.5559 11.9814 76.016 11.9814C76.1221 9.96664 74.0649 8.8214 72.3046 8.84261C70.1626 8.88502 68.7204 10.0303 68.572 11.9814Z" fill="#B9B9B9"/>
<path d="M86.9808 20.9522C85.581 20.528 84.1389 20.2099 82.7816 19.6585C81.1697 19.001 81.2122 18.8738 82.1241 17.3892C82.3574 17.0075 82.6119 16.6257 82.7391 16.4773C84.5206 16.8802 86.1536 17.3256 87.7867 17.6013C88.4441 17.7074 89.2288 17.5801 89.8439 17.3256C90.2468 17.1559 90.671 16.5833 90.6922 16.1592C90.7134 15.8198 90.2044 15.2472 89.8226 15.1412C88.8895 14.8443 87.8927 14.8018 86.9383 14.5898C86.1112 14.4201 85.2841 14.2292 84.5206 13.9111C82.9936 13.2536 81.9969 12.1508 81.9332 10.3693C81.8696 8.52424 82.7604 7.23055 84.3722 6.50947C87.723 5.0249 90.9467 5.49148 94.2339 7.27296C93.7037 8.20612 93.2159 9.03324 92.6857 9.94518C91.1163 8.96961 89.4621 8.71512 87.7443 8.86357C87.4049 8.88478 86.9808 8.88478 86.7263 9.07565C86.3233 9.39378 85.8143 9.83914 85.7719 10.2633C85.7507 10.6026 86.3021 11.1965 86.7051 11.3237C87.6382 11.6206 88.635 11.663 89.6106 11.8539C90.4377 12.0236 91.2648 12.2357 92.0495 12.5326C93.6401 13.1688 94.5308 14.3777 94.5521 16.1167C94.5733 17.8134 93.8734 19.1707 92.3252 19.8918C91.2648 20.3796 90.0771 20.6129 88.9319 20.9522C88.2533 20.9522 87.617 20.9522 86.9808 20.9522Z" fill="#B9B9B9"/>
</svg>
