<svg width="112" height="28" viewBox="0 0 112 28" fill="none" xmlns="http://www.w3.org/2000/svg">
<g clip-path="url(#clip0_197_944)">
<path d="M0.0375977 27.462V0.473633H3.47766V27.462H0.0375977Z" fill="#B9B9B9"/>
<path d="M18.125 27.462V0.473633H21.5625V27.462H18.125Z" fill="#B9B9B9"/>
<path d="M36.2046 27.462V0.473633H39.6447V27.462H36.2046Z" fill="#B9B9B9"/>
<path d="M54.2891 27.462V0.473633H57.7265V27.462H54.2891Z" fill="#B9B9B9"/>
<path d="M72.375 27.462V0.473633H75.8143V27.462H72.375Z" fill="#B9B9B9"/>
<path d="M90.4575 27.462V0.473633H93.8956V27.462H90.4575Z" fill="#B9B9B9"/>
<path d="M108.539 27.462V0.473633H111.979V27.462H108.539Z" fill="#B9B9B9"/>
<path d="M16.6201 27.462L3.47705 0.473633H4.97652L18.1248 27.462H16.6201Z" fill="#B9B9B9"/>
<path d="M88.9577 27.462L75.8145 0.473633H77.314L90.4596 27.4722L88.9577 27.462Z" fill="#B9B9B9"/>
</g>
<defs>
<clipPath id="clip0_197_944">
<rect width="112" height="27.0526" fill="white" transform="translate(0 0.473633)"/>
</clipPath>
</defs>
</svg>
