<svg width="72" height="30" viewBox="0 0 72 30" fill="none" xmlns="http://www.w3.org/2000/svg">
<g clip-path="url(#clip0_197_933)">
<path d="M71.2509 16.5482V16.587C71.2193 17.2321 70.8877 17.7715 70.5389 18.2298C69.1641 20.0384 67.06 22.4075 67.0248 22.4463C65.9636 23.7542 64.6031 23.3064 63.2427 22.619L63.239 22.6155C63.1123 22.552 63.0771 22.3863 63.1685 22.277C63.9194 21.378 66.8026 17.9266 66.9576 17.7151C67.1445 17.4542 67.6097 16.8725 67.6097 16.5834V16.5341C67.6097 16.2626 67.1482 15.6774 66.9576 15.4165C66.8063 15.205 63.9231 11.7606 63.1685 10.8581C63.0771 10.7488 63.1123 10.5831 63.239 10.5197C64.5998 9.83223 65.9636 9.38098 67.0211 10.6924C67.0564 10.7312 69.1608 13.1003 70.5352 14.9053C70.8914 15.3636 71.2226 15.903 71.2509 16.5482ZM4.39008 16.5376V16.587C4.39008 16.8725 4.85535 17.4577 5.04214 17.7186C5.19372 17.9337 8.08048 21.3851 8.83125 22.2805C8.9229 22.3899 8.88765 22.5555 8.76075 22.619H8.75722C7.39669 23.3064 6.0291 23.7542 4.97869 22.4463C4.94348 22.411 2.83567 20.0384 1.46102 18.2298C1.11207 17.7715 0.777221 17.2321 0.749023 16.587V16.5482C0.777221 15.9065 1.10855 15.3636 1.46102 14.9053C2.83919 13.0968 4.947 10.7312 4.97869 10.6924C6.0291 9.38098 7.39669 9.83223 8.75722 10.5197C8.88413 10.5831 8.91938 10.7488 8.82773 10.8616C8.07343 11.7606 5.1902 15.2085 5.03862 15.42C4.85183 15.6809 4.39008 16.2661 4.39008 16.5376ZM59.4851 15.4059L59.5064 19.5977C59.5064 28.443 54.868 29.55 50.5042 29.9413L50.4583 29.9449C50.2083 29.966 49.9615 29.9801 49.7078 29.9836C49.454 29.9801 49.1999 29.966 48.9462 29.9449L48.9077 29.9413C44.5439 29.55 39.9088 28.443 39.9088 19.5977L39.9301 15.4059V6.71219C39.9301 6.58881 40.0288 6.49011 40.1522 6.49011H42.9473C45.4637 6.51831 46.6835 7.43138 46.6835 10.0825L46.6553 20.4156C46.6553 21.2723 47.1804 23.6907 49.3307 24.0221C49.4221 24.0397 49.5139 24.0468 49.6123 24.0538C49.616 24.0538 49.623 24.0538 49.6299 24.0538H49.7992C49.8029 24.0538 49.8099 24.0538 49.8168 24.0538C49.9086 24.0468 50.0037 24.0397 50.0919 24.0221C52.2418 23.6907 52.7673 21.2758 52.7673 20.4156L52.739 10.0825C52.739 7.43138 53.9584 6.51478 56.4715 6.49011H59.2703C59.3937 6.49011 59.4925 6.58881 59.4925 6.71219V15.4059H59.4851ZM29.3029 20.2288C28.4182 22.693 27.0682 23.7013 25.4187 23.7612C24.1603 23.8035 23.1699 23.384 22.4015 22.5309C21.6472 21.7059 21.0762 20.4544 20.7907 18.674C20.5263 16.9994 20.4805 15.2332 20.6286 13.4C20.7731 11.542 21.1009 10.0578 21.5591 8.95789C21.9715 7.9849 22.4685 7.32915 22.976 6.92373C23.4801 6.51478 24.1321 6.27857 24.9605 6.25037C26.3316 6.20454 27.3573 6.58881 28.1292 7.35383C28.8729 8.10827 29.4298 9.27871 29.7153 11.0344C30.311 14.8278 30.1313 17.909 29.3029 20.2288ZM33.7582 3.13036C31.5235 1.0715 28.5451 0.0314941 24.8688 0.0314941C22.8315 0.0314941 20.974 0.429867 19.3561 1.23014C17.7418 2.00926 16.4412 3.14798 15.4789 4.604C14.2629 6.44076 13.424 8.46082 12.9446 10.636C12.4688 12.7936 12.3666 15.0887 12.6662 17.4683C13.1455 21.4626 14.5448 24.5756 16.7795 26.7543C19.0354 28.9295 21.9292 29.9942 25.6055 29.9942C27.8261 29.9942 29.8035 29.5112 31.4636 28.5911C33.1414 27.6533 34.5548 26.2326 35.6933 24.3782C36.6732 22.7388 37.3711 20.8633 37.7305 18.7868C38.09 16.6892 38.1113 14.4118 37.8293 12.018C37.3499 8.1823 35.9929 5.18568 33.7582 3.13036Z" fill="#B9B9B9"/>
</g>
<defs>
<clipPath id="clip0_197_933">
<rect width="70.5018" height="30" fill="white" transform="translate(0.749023)"/>
</clipPath>
</defs>
</svg>
