<svg width="112" height="24" viewBox="0 0 112 24" fill="none" xmlns="http://www.w3.org/2000/svg">
<path d="M0 21.5365C1.0165 17.7786 2.033 14.0206 3.04951 10.2318C3.88119 7.08989 4.74367 3.97878 5.57536 0.836867C5.72937 0.282411 5.91419 0.0667891 6.53025 0.0975922C9.76458 0.128395 13.0297 0.0667886 16.264 0.128395C17.4961 0.159198 18.7591 0.344017 19.9604 0.713654C23.0099 1.66855 24.6117 4.41002 24.1496 7.55194C23.5336 11.7104 20.8229 14.5134 16.2024 15.3451C13.8614 15.7456 11.4587 15.7456 9.05611 15.838C8.37844 15.8688 8.13201 16.0536 8.0088 16.6696C7.82398 17.5937 7.51595 18.5178 7.30033 19.4419C7.0231 20.6432 6.28383 21.4441 5.05171 21.5057C3.38834 21.5981 1.72497 21.5365 0 21.5365ZM9.61056 10.7863C11.1815 10.7863 12.6293 10.8787 14.077 10.7555C15.3399 10.663 16.3872 9.95458 17.1573 8.93808C17.835 8.07559 18.2046 7.12069 17.7118 6.04259C17.2189 4.96448 16.264 4.59484 15.1859 4.53324C14.0462 4.47163 12.9065 4.50243 11.7668 4.53324C11.582 4.53324 11.2739 4.74886 11.2123 4.93367C10.6579 6.84347 10.1342 8.81486 9.61056 10.7863Z" fill="#B9B9B9"/>
<path d="M67.7669 23.662C65.6723 15.8072 63.6085 8.10645 61.5139 0.344076C61.7911 0.313273 62.0068 0.282471 62.2532 0.282471C63.9782 0.282471 65.7031 0.313274 67.4281 0.282471C67.9826 0.282471 68.2598 0.405683 68.383 1.02175C69.1223 4.10205 69.9232 7.15156 70.6932 10.2319C70.7548 10.4475 70.8164 10.6323 70.9089 10.9711C71.1553 10.6939 71.3401 10.5091 71.5249 10.2935C73.8043 7.5828 76.1146 4.90293 78.394 2.19226C79.4721 0.867728 80.8274 0.282471 82.4908 0.282471C84.3698 0.313274 86.2488 0.282471 88.3434 0.282471C81.4435 8.13726 74.6668 15.838 67.7669 23.662Z" fill="#B9B9B9"/>
<path d="M41.4917 21.6289C42.9086 16.2076 44.264 10.9095 45.6809 5.54972C47.2211 6.3814 48.6996 6.13498 50.209 5.67293C52.3036 5.05687 54.429 4.84125 56.5852 5.3341C60.3432 6.16578 62.253 9.18448 61.3597 12.9117C60.7128 15.6531 59.9427 18.3638 59.2035 21.0745C59.1419 21.2901 58.8646 21.5673 58.6798 21.5673C56.8316 21.5981 54.9526 21.5981 53.012 21.5981C53.4125 20.058 53.8129 18.5486 54.1826 17.0701C54.5522 15.6531 54.9526 14.2362 55.2915 12.8192C55.7843 10.9095 55.0143 9.95456 53.0429 10.0162C51.4411 10.0778 50.3938 10.8787 49.9317 12.5112C49.3465 14.575 48.8536 16.6696 48.2992 18.7642C48.1144 19.5343 47.9295 20.3044 47.6831 21.0745C47.6215 21.2901 47.3135 21.5365 47.1287 21.5365C45.3421 21.6597 43.4631 21.6289 41.4917 21.6289Z" fill="#B9B9B9"/>
<path d="M87.2652 15.5609C86.7724 16.5466 87.5117 17.7787 88.3434 18.0559C89.4215 18.3948 90.5612 18.6104 91.6701 18.7028C92.5942 18.7644 93.5183 18.5796 94.4424 18.4256C95.3356 18.2715 96.1981 18.0251 97.1838 17.7787C96.9066 18.826 96.6294 19.8733 96.2905 20.8898C96.2289 21.0746 95.9825 21.2286 95.7669 21.2903C92.5634 22.2759 89.2982 22.4608 86.0947 21.5059C81.1354 20.0273 79.3796 14.1747 82.5216 9.89311C84.647 7.02842 87.6349 5.48827 91.1464 5.21104C92.8406 5.08783 94.5964 5.18024 96.2905 5.51907C98.4468 5.91951 100.049 7.18244 100.418 9.52347C100.726 11.5565 99.4941 13.6203 97.3378 14.7292C94.4424 16.2385 91.3928 16.331 88.2509 15.7457C87.9737 15.6841 87.6965 15.5917 87.3885 15.5301C87.3885 15.5301 87.3268 15.5609 87.2652 15.5609ZM87.8197 12.1109C89.7911 12.6654 91.7009 13.0658 93.6107 12.1725C94.3499 11.8337 94.9044 11.2793 94.8736 10.386C94.8736 9.7391 94.2267 9.18464 93.2718 8.93822C91.0848 8.44537 88.6822 9.7699 87.8197 12.1109Z" fill="#B9B9B9"/>
<path d="M38.5038 21.6289C36.9329 20.7356 35.4543 20.9513 33.9142 21.4441C31.5423 22.1834 29.1089 22.3374 26.6755 21.7829C26.121 21.6597 25.5974 21.4749 25.1045 21.2593C21.8702 19.7499 21.2233 16.1768 23.7492 13.6509C25.1969 12.2032 27.0451 11.5563 29.0473 11.2791C31.1111 10.9711 33.1749 11.0943 35.2079 11.5871C35.8856 10.201 35.4543 9.09207 33.9142 8.90725C32.3124 8.72243 30.6799 8.87644 29.0781 8.93805C28.4312 8.96885 27.7844 9.15367 27.0143 9.30769C27.3223 8.19878 27.6304 7.15147 27.9384 6.13497C28 5.98095 28.2156 5.82694 28.4004 5.79614C31.3575 5.18007 34.3454 4.81044 37.3333 5.51891C40.3212 6.22738 41.7382 8.13717 41.1529 11.1251C40.4136 14.6058 39.4279 18.0558 38.5038 21.6289ZM34.4686 14.9755C32.6205 14.3902 30.8647 14.1746 29.0781 14.9755C28.3388 15.3143 27.7536 15.8687 27.8152 16.7312C27.8768 17.6245 28.5853 17.9326 29.3245 18.1482C31.5732 18.795 33.9142 17.3781 34.4686 14.9755Z" fill="#B9B9B9"/>
<path d="M112 0.282471C111.446 2.34628 110.891 4.28687 110.367 6.22747C109.043 11.0944 107.688 15.9612 106.363 20.8589C106.178 21.5058 105.932 21.6906 105.285 21.6598C103.437 21.629 101.558 21.629 99.6479 21.629C100.356 19.0107 101.065 16.5157 101.743 13.9898C102.851 9.95464 103.96 5.95024 105.069 1.91503C105.408 0.621306 105.901 0.282471 107.226 0.282471C108.796 0.282471 110.367 0.282471 112 0.282471Z" fill="#B9B9B9"/>
</svg>
