<svg width="112" height="22" viewBox="0 0 112 22" fill="none" xmlns="http://www.w3.org/2000/svg">
<path fill-rule="evenodd" clip-rule="evenodd" d="M86.6533 21.309L87.4633 17.4369H89.0635L89.6365 20.0052L91.2169 17.4369H92.8764L92.0664 21.309H90.9008L91.5528 18.2271L89.6167 21.309H88.8265L88.1943 18.2271L87.5818 21.309H86.6533ZM94.6742 20.7954C94.9113 20.7954 95.1286 20.7164 95.2866 20.5583C95.4447 20.4003 95.5632 20.1632 95.6225 19.8669C95.6818 19.5705 95.662 19.3335 95.583 19.1754C95.4842 19.0174 95.3262 18.9383 95.0693 18.9383C94.8323 18.9383 94.6149 19.0174 94.4569 19.1754C94.2988 19.3335 94.1803 19.5705 94.1211 19.8669C94.0618 20.183 94.0618 20.4003 94.1606 20.5583C94.2593 20.7164 94.4174 20.7954 94.6742 20.7954ZM94.5557 21.3881C93.963 21.3881 93.5284 21.2498 93.232 20.9732C92.9357 20.6966 92.8369 20.3212 92.9159 19.8866C93.0147 19.4322 93.2715 19.0766 93.6864 18.8C94.1013 18.5235 94.5952 18.3852 95.1879 18.3852C95.7805 18.3852 96.2152 18.5235 96.5115 18.8C96.8078 19.0766 96.9066 19.452 96.8276 19.8866C96.7288 20.341 96.472 20.6966 96.0571 20.9732C95.6423 21.2498 95.1484 21.3881 94.5557 21.3881ZM94.6742 18.0493L95.6225 17.0615H96.5313L95.1879 18.0493H94.6742ZM97.8944 21.309L97.0844 18.4444H98.25L98.6847 20.3805L99.9293 18.4444H100.818L98.823 21.309H97.8944ZM104.315 20.42C104.118 20.7164 103.841 20.9534 103.485 21.1312C103.11 21.2893 102.695 21.3881 102.221 21.3881C101.628 21.3881 101.154 21.2498 100.858 20.9732C100.542 20.6966 100.443 20.341 100.542 19.8866C100.64 19.452 100.897 19.0766 101.352 18.8C101.806 18.5235 102.32 18.3654 102.912 18.3654C103.505 18.3654 103.92 18.5037 104.197 18.7803C104.473 19.0569 104.552 19.4322 104.453 19.9064L104.434 20.0249H101.707C101.648 20.2817 101.688 20.4595 101.806 20.5978C101.925 20.7361 102.122 20.7954 102.379 20.7954C102.577 20.7954 102.735 20.7559 102.893 20.6769C103.051 20.5978 103.149 20.4991 103.248 20.3608L104.315 20.42ZM101.806 19.5508H103.347C103.387 19.3532 103.347 19.1952 103.248 19.0766C103.13 18.9581 102.972 18.9186 102.715 18.9186C102.478 18.9186 102.3 18.9778 102.142 19.0964C101.984 19.1952 101.865 19.3532 101.806 19.5508ZM104.631 21.309L105.224 18.4444H106.389L105.797 21.309H104.631ZM105.323 18.0691L105.461 17.4369H106.627L106.488 18.0691H105.323ZM106.35 20.4991L107.318 20.4003C107.338 20.5386 107.417 20.6373 107.575 20.6966C107.733 20.7756 107.93 20.7954 108.167 20.7954C108.365 20.7954 108.543 20.7756 108.681 20.7164C108.819 20.6571 108.898 20.5781 108.918 20.4793C108.938 20.341 108.76 20.2422 108.326 20.183C108.207 20.1632 108.108 20.1434 108.029 20.1434C107.516 20.0644 107.18 19.9656 106.982 19.8273C106.785 19.6891 106.725 19.4915 106.765 19.2544C106.824 18.9778 107.022 18.7408 107.357 18.5827C107.693 18.4049 108.108 18.3259 108.602 18.3259C109.017 18.3259 109.353 18.3852 109.61 18.5235C109.866 18.642 110.025 18.8396 110.104 19.0766L109.155 19.1952C109.116 19.0766 109.037 18.9976 108.918 18.9581C108.8 18.8988 108.642 18.8791 108.444 18.8791C108.247 18.8791 108.108 18.8988 107.99 18.9581C107.871 18.9976 107.812 19.0766 107.792 19.1754C107.772 19.3137 107.99 19.4125 108.464 19.4717C108.622 19.4915 108.76 19.5113 108.839 19.531C109.294 19.61 109.61 19.7088 109.787 19.8273C109.965 19.9656 110.025 20.1434 109.965 20.3805C109.906 20.6769 109.689 20.9139 109.313 21.0917C108.938 21.2695 108.484 21.3683 107.93 21.3683C107.476 21.3683 107.101 21.2893 106.804 21.1312C106.547 20.9929 106.389 20.7756 106.35 20.4991Z" fill="#B9B9B9"/>
<path fill-rule="evenodd" clip-rule="evenodd" d="M50.8953 11.9845C50.9744 9.61381 52.9104 7.53944 56.5258 7.46042C59.1138 7.4209 60.7535 8.50747 60.7733 10.4633C60.6152 13.1896 58.0272 14.9281 55.0638 14.9084C52.9697 14.9479 50.9546 14.0391 50.8953 11.9845ZM85.8237 14.7108H88.8464L89.5576 11.4511C89.9132 10.0682 90.7825 9.41625 92.6 9.59405L93.0742 7.48017C91.6122 7.34188 90.6244 7.75675 89.8935 8.42845L90.0713 7.63822C88.1747 7.36164 87.1869 8.19138 86.8313 9.75209L85.8237 14.7108ZM92.2444 14.7108H95.2671L96.1363 10.5621C96.2944 9.10015 98.9219 8.56675 98.7441 10.0287L97.7958 14.6911H100.858L101.866 9.75209C102.083 8.21114 101.214 7.44066 99.238 7.44066C98.1119 7.38139 97.2229 7.75675 96.4524 8.34943L96.5907 7.5987C94.6546 7.32212 93.6471 8.15187 93.2717 9.71259L92.2444 14.7108ZM64.7245 14.7306H67.8854L69.3671 7.61846H66.2259L64.7245 14.7306ZM69.4856 7.04554L69.861 5.24775H69.0312C66.9569 5.18849 66.4432 5.97872 66.3444 7.04554H69.4856ZM70.3154 12.8735C70.1968 15.3035 73.2195 15.0269 75.0963 14.7701L75.4321 12.9723L74.2073 13.1106C73.6146 13.1501 73.3775 12.913 73.4763 12.4191L74.148 9.21869H76.0841L76.4002 7.61846L74.4839 7.63822L74.9185 5.62312L74.0887 5.60336C72.291 5.60336 71.7971 6.59116 71.5007 7.63822H69.9598L69.6042 9.2582H71.0859L70.3154 12.8735ZM60.793 14.7306H63.954L65.9296 5.24775H65.0998C63.2033 5.36629 62.6698 6.3936 62.3142 7.49992L60.793 14.7306ZM40.3457 14.7108L42.2818 5.24775H47.359C50.599 5.228 52.0412 6.33433 51.8239 8.03334C51.6263 9.51503 50.0854 11.0955 46.9639 11.2338H44.3759L43.6449 14.7306H40.3457V14.7108ZM44.5735 10.3448L45.2056 7.16408H46.7861C47.8924 7.16408 48.4061 7.57895 48.3271 8.19138C48.2481 8.7643 47.7542 9.31747 46.6478 9.33723C45.7588 9.37674 45.0871 9.75209 44.5735 10.3448ZM102.122 11.9845C102.201 9.61381 104.137 7.53944 107.753 7.46042C110.341 7.4209 111.981 8.50747 112 10.4633C111.842 13.1896 109.254 14.9281 106.291 14.9084C104.177 14.9479 102.182 14.0391 102.122 11.9845ZM105.382 11.6289C105.54 10.246 106.192 9.11991 107.417 9.10015C108.306 9.06064 108.879 9.55454 108.721 10.7992C108.543 12.4587 107.634 13.2884 106.627 13.2884C105.915 13.2884 105.264 12.9525 105.382 11.6289ZM76.0446 11.9845C76.1236 9.61381 78.0597 7.53944 81.675 7.46042C84.263 7.4209 85.9028 8.50747 85.9225 10.4633C85.7645 13.1896 83.1765 14.9281 80.2131 14.9084C78.1189 14.9479 76.1039 14.0391 76.0446 11.9845ZM79.3043 11.6289C79.4624 10.246 80.1143 9.11991 81.3392 9.10015C82.2282 9.06064 82.8011 9.55454 82.643 10.7992C82.4652 12.4587 81.5565 13.2884 80.5489 13.2884C79.8575 13.2884 79.1858 12.9525 79.3043 11.6289ZM54.1551 11.6289C54.3131 10.246 54.9651 9.11991 56.1899 9.10015C57.0789 9.06064 57.6519 9.55454 57.4938 10.7992C57.316 12.4587 56.4072 13.2884 55.3997 13.2884C54.7082 13.2884 54.0365 12.9525 54.1551 11.6289Z" fill="#B9B9B9"/>
<path fill-rule="evenodd" clip-rule="evenodd" d="M0.162109 18.4051C13.8332 19.4917 36.5722 16.2912 36.9673 8.82349C36.75 4.99085 28.9662 2.12624 20.3329 1.1582C26.2991 2.46209 24.1655 10.7398 17.3102 10.5422L6.72106 10.4632C4.5084 10.641 3.50085 10.6015 2.4933 12.0239C2.37477 12.2017 2.33525 12.3203 2.25623 12.5376L0.478202 18.01C0.379422 18.2668 0.260889 18.3853 0.162109 18.4051Z" fill="#B9B9B9"/>
<path fill-rule="evenodd" clip-rule="evenodd" d="M0.0236466 17.9902L1.34729 12.0041C1.3868 11.8659 1.44607 11.5893 1.64363 11.2337C2.86849 9.19881 4.7453 9.17905 6.85918 8.96174L17.3496 8.68516C21.518 8.72467 23.0195 3.31156 18.3374 2.6201C14.3862 1.84962 9.15086 1.55328 3.55995 1.35573C3.36239 1.33597 3.32288 1.05939 3.54019 1.01988C7.64942 0.525979 12.7267 0.427199 19.5227 1.01988C26.4373 1.75084 24.4222 10.7398 17.2903 10.5422L6.70113 10.4632C4.48847 10.641 3.48092 10.6015 2.47337 12.0239C2.35484 12.2017 2.31533 12.3202 2.2363 12.5376L0.458275 18.0099C0.260717 18.5433 -0.0948887 18.5433 0.0236466 17.9902Z" fill="#B9B9B9"/>
</svg>
