<svg width="92" height="30" viewBox="0 0 92 30" fill="none" xmlns="http://www.w3.org/2000/svg">
<g clip-path="url(#clip0_197_898)">
<path d="M18.1896 6.8995C21.2214 6.8995 21.9463 7.91013 22.904 9.69855C24.4913 12.6087 25.8512 16.2595 28.1528 16.2595C28.2792 16.2612 28.4045 16.2369 28.521 16.188C28.6377 16.1391 28.7429 16.0667 28.8302 15.9754C28.9175 15.884 28.9852 15.7757 29.0288 15.6571C29.0724 15.5385 29.0912 15.4122 29.084 15.286C29.0833 15.0749 29.0193 14.869 28.9006 14.6945C28.7816 14.5202 28.6135 14.3853 28.4174 14.3071C28.4154 14.1207 28.4522 13.936 28.5253 13.7645C28.5981 13.5931 28.706 13.4385 28.8417 13.3107C28.9775 13.183 29.1381 13.0848 29.3136 13.0222C29.4894 12.9596 29.676 12.9341 29.8619 12.9473C30.0641 12.9382 30.2661 12.9715 30.4547 13.0449C30.6436 13.1184 30.8148 13.2304 30.9578 13.3738C31.1008 13.5172 31.2121 13.6889 31.2849 13.8778C31.3577 14.0669 31.3903 14.2689 31.3803 14.4712C31.3803 15.8627 29.9358 16.4077 28.0206 16.4077C20.3695 16.4077 19.4224 6.93124 17.3324 6.93124H17.0361V12.0319H18.3642V12.1377H12.4116V12.0319H13.9989V1.88878H12.4116V1.78296H16.8932C19.3695 1.78296 22.8034 1.84645 22.8034 4.25394C22.8034 6.37038 19.9409 6.79895 18.1896 6.8995ZM17.4805 6.84133C18.925 6.84133 19.56 6.3122 19.56 4.40207C19.56 2.70363 19.0732 1.88878 17.4805 1.88878H17.0361V6.84133H17.4805Z" fill="#B9B9B9"/>
<path d="M29.8625 6.32277C29.8625 5.3915 29.8625 4.37032 28.7724 4.37032C28.4499 4.37842 28.1429 4.5105 27.9154 4.73914C27.6876 4.96775 27.5569 5.2753 27.5503 5.59785C27.5514 5.77616 27.6014 5.95077 27.6946 6.10274C27.788 6.25475 27.921 6.37841 28.0794 6.46035C28.0796 6.62933 28.0452 6.79663 27.9785 6.95188C27.9118 7.10718 27.8138 7.24705 27.691 7.36311C27.5679 7.47908 27.4225 7.56866 27.2637 7.62632C27.1049 7.68402 26.9359 7.70858 26.7672 7.69846C26.5819 7.71008 26.3967 7.68219 26.2232 7.61666C26.0497 7.55108 25.8922 7.44936 25.7611 7.31825C25.6299 7.18714 25.5281 7.0296 25.4627 6.85611C25.3971 6.68268 25.3693 6.49724 25.3808 6.31218C25.3808 4.5079 27.8466 4.26978 29.2011 4.26978C30.8835 4.26978 32.6191 4.79891 32.6191 6.53441V10.3599C32.6191 11.1165 32.8996 11.9155 33.9472 11.0425L34.0055 11.1165C33.3108 11.7906 32.3952 12.1893 31.4287 12.2383C30.5132 12.2383 29.9684 11.5293 29.8942 10.5398C29.5555 11.598 28.3334 12.2383 27.1692 12.2383C25.783 12.2383 24.894 11.5768 24.894 10.3017C24.894 7.96832 28.2117 8.48155 29.8783 7.127L29.8625 6.32277ZM29.8625 7.22755C28.9048 8.01064 28.0371 8.02649 28.0371 9.84135C28.0371 10.4922 28.1375 11.2911 28.8889 11.2911C29.6401 11.2911 29.8625 10.434 29.8625 10.053V7.22755Z" fill="#B9B9B9"/>
<path d="M33.9309 4.37059H35.2114C34.9628 2.31762 35.3489 0.571533 37.7353 0.571533C38.7935 0.571533 40.1375 0.915455 40.1375 2.31762C40.1443 2.5179 40.1095 2.71742 40.0353 2.90359C39.9611 3.08975 39.8491 3.25851 39.7064 3.39923C39.5637 3.53993 39.3933 3.64951 39.2062 3.72108C39.019 3.79265 38.819 3.82464 38.6188 3.815C38.4329 3.82819 38.2463 3.80267 38.0707 3.74013C37.8952 3.67756 37.7344 3.57931 37.5987 3.45155C37.463 3.32379 37.3553 3.1693 37.2822 2.99782C37.2092 2.82632 37.1725 2.64156 37.1744 2.4552C37.3779 2.36368 37.5503 2.21486 37.6706 2.02692C37.7909 1.83899 37.8538 1.62008 37.8516 1.39696C37.8516 0.984244 37.6453 0.70381 37.2485 0.70381C35.132 0.70381 35.2008 4.33883 38.2644 4.33883H39.3544V4.44466H37.9416V12.0322H39.529V12.138H33.915V12.0322H35.2008V4.4764H33.9309V4.37059Z" fill="#B9B9B9"/>
<path d="M48.773 16.2913C48.9009 16.2894 49.0275 16.2615 49.1447 16.2094C49.2614 16.1572 49.3669 16.0819 49.4536 15.9879C49.5408 15.8939 49.6078 15.7833 49.6509 15.6626C49.6941 15.542 49.7119 15.4138 49.7039 15.286C49.7011 15.0718 49.6331 14.8636 49.5094 14.6889C49.3861 14.5141 49.2122 14.381 49.0111 14.3071C49.0092 14.1207 49.0458 13.936 49.1189 13.7645C49.1916 13.593 49.2998 13.4385 49.4353 13.3108C49.5712 13.183 49.7316 13.0847 49.9073 13.0221C50.0831 12.9596 50.2697 12.9341 50.4558 12.9473C50.6555 12.9385 50.8551 12.971 51.0422 13.0429C51.2287 13.1147 51.3989 13.2243 51.5414 13.3648C51.6839 13.5054 51.7959 13.6738 51.8705 13.8597C51.945 14.0454 51.9801 14.2446 51.9741 14.4447C51.9741 15.8627 50.3391 16.4077 49.0425 16.4077C47.9016 16.3868 46.8156 15.9146 46.0223 15.0944C45.2288 14.2742 44.7929 13.1729 44.8099 12.0319V10.5398C44.4713 11.598 43.2224 12.2383 42.0797 12.2383C40.6934 12.2383 39.8096 11.5768 39.8096 10.3017C39.8096 7.96832 43.1272 8.48155 44.7941 7.127V6.32277C44.7941 5.3915 44.7941 4.37032 43.704 4.37032C43.381 4.37711 43.0734 4.5088 42.8454 4.73769C42.6176 4.96658 42.4871 5.27493 42.4816 5.59785C42.483 5.77616 42.533 5.95077 42.6262 6.10274C42.7194 6.25475 42.8524 6.37841 43.0109 6.46035C43.0112 6.62933 42.9768 6.79663 42.9101 6.95188C42.8431 7.10718 42.7454 7.24705 42.6224 7.36311C42.4995 7.47908 42.3541 7.56866 42.1953 7.62632C42.0363 7.68402 41.8673 7.70858 41.6985 7.69846C41.5135 7.71008 41.328 7.68219 41.1546 7.61666C40.9813 7.55108 40.8236 7.44936 40.6927 7.31825C40.5614 7.18714 40.4597 7.0296 40.3941 6.85611C40.3287 6.68268 40.3007 6.49724 40.3124 6.31218C40.3124 4.5079 42.7728 4.26978 44.1327 4.26978C45.8099 4.26978 47.5507 4.79891 47.5507 6.53441V12.1378C47.5507 13.614 47.5507 16.2913 48.773 16.2913ZM44.8205 7.22755C43.8628 8.01064 42.9949 8.02649 42.9949 9.84135C42.9949 10.4922 43.0956 11.2911 43.8468 11.2911C44.5982 11.2911 44.8205 10.434 44.8205 10.053V7.22755Z" fill="#B9B9B9"/>
<path d="M51.9 7.40223C51.9318 8.88372 52.4292 11.106 54.4078 11.106C55.44 11.106 56.4717 10.2171 56.9268 9.13773L57.0168 9.18531C56.2917 10.7727 54.8629 12.2277 52.7414 12.2277C52.2346 12.2397 51.7307 12.1477 51.2615 11.9572C50.7918 11.7667 50.3662 11.4819 50.0109 11.1203C49.656 10.7587 49.3785 10.3281 49.1967 9.85515C49.0148 9.38214 48.9318 8.87687 48.9529 8.37048C48.9529 5.94714 50.736 4.25928 53.392 4.25928C55.8206 4.25928 57.165 5.51856 56.6882 7.39164L51.9 7.40223ZM51.9 7.25406H54.0801C54.3182 6.33869 54.3182 4.37038 53.2706 4.37038C52.0907 4.37038 51.9 5.98417 51.9 7.25406Z" fill="#B9B9B9"/>
<path d="M58.6516 0.883627L59.9637 0.544992C58.7257 0.470911 56.4555 -0.513244 56.4555 0.973575C56.471 1.17667 56.5446 1.37107 56.6674 1.53344C56.7902 1.69581 56.9576 1.81924 57.1488 1.88895C57.1497 2.0751 57.1127 2.25949 57.0391 2.43061C56.9665 2.60173 56.8582 2.75588 56.7227 2.8835C56.5877 3.0111 56.4265 3.10938 56.2516 3.17224C56.0763 3.23508 55.8902 3.26114 55.7041 3.24876C55.5035 3.25849 55.3024 3.22623 55.1144 3.15403C54.9265 3.08183 54.7558 2.97127 54.6129 2.82942C54.4699 2.68755 54.3583 2.51749 54.2847 2.33006C54.2112 2.14263 54.1774 1.94195 54.1858 1.74079C54.1858 0.338635 55.6568 0 56.7204 0C58.1065 0 59.366 0.439166 60.3026 0.439166C60.6687 0.445475 61.031 0.365731 61.3605 0.206355V12.0321H62.6463V12.1379H57.3555V12.0321H58.6357L58.6516 0.883627Z" fill="#B9B9B9"/>
<path d="M68.705 12.1378C70.0334 13.8521 73.4352 13.9103 73.4352 12.0319C73.4202 11.8288 73.3466 11.6344 73.2238 11.4721C73.1009 11.3097 72.9336 11.1862 72.7423 11.1165C72.7409 10.9304 72.778 10.746 72.8516 10.5749C72.9247 10.4038 73.0325 10.2496 73.168 10.122C73.3034 9.99439 73.4642 9.8961 73.6395 9.83324C73.8148 9.77043 74.0009 9.74432 74.1866 9.75674C74.3877 9.74699 74.5888 9.77924 74.7767 9.85147C74.9647 9.92366 75.1353 10.0342 75.2783 10.1761C75.4213 10.3179 75.5328 10.488 75.6064 10.6754C75.68 10.8628 75.7137 11.0635 75.7053 11.2647C75.7053 14.0743 68.0966 14.8574 68.0966 10.5398C67.7633 11.598 66.5094 12.2383 65.3717 12.2383C63.9856 12.2383 63.1016 11.5768 63.1016 10.3017C63.1016 7.96832 66.4194 8.48155 68.0858 7.127V6.32277C68.0858 5.3915 68.0858 4.37032 66.9959 4.37032C66.6725 4.37706 66.3645 4.50858 66.1358 4.73732C65.9066 4.96611 65.7753 5.27441 65.7683 5.59785C65.7688 5.7763 65.8189 5.9511 65.9122 6.10321C66.0055 6.25536 66.1386 6.37883 66.2975 6.46035C66.298 6.62933 66.2638 6.79663 66.1963 6.95188C66.1297 7.10718 66.0322 7.24705 65.9094 7.36311C65.7866 7.47908 65.6408 7.56866 65.4823 7.62632C65.323 7.68402 65.1542 7.70858 64.9855 7.69846C64.8003 7.71008 64.6147 7.68219 64.4413 7.61666C64.2678 7.55108 64.1103 7.44936 63.9795 7.31825C63.8483 7.18714 63.7466 7.0296 63.6809 6.85611C63.6158 6.68268 63.5877 6.49724 63.5989 6.31218C63.5989 4.5079 66.0594 4.26978 67.4192 4.26978C69.0964 4.26978 70.8373 4.79891 70.8373 6.53441V12.1378H68.705ZM68.1022 7.22755C67.1441 8.01064 66.2712 8.02649 66.2712 9.84135C66.2712 10.4922 66.3772 11.2911 67.1281 11.2911C67.8795 11.2911 68.1022 10.434 68.1022 10.053V7.22755Z" fill="#B9B9B9"/>
<path d="M5.19484 15.5931L6.724 15.4555C5.48586 15.3814 3.21066 14.3973 3.21066 15.8841C3.22629 16.0878 3.30055 16.2827 3.42449 16.4451C3.54842 16.6075 3.71673 16.7306 3.90909 16.7995C3.90642 16.9813 3.86733 17.1607 3.79414 17.3271C3.72092 17.4935 3.61508 17.6436 3.48289 17.7684C3.35068 17.8932 3.19478 17.9902 3.02443 18.0537C2.85407 18.1172 2.6727 18.1459 2.49107 18.1381C2.2904 18.1471 2.09007 18.1142 1.90276 18.0417C1.71545 17.9692 1.54527 17.8585 1.40299 17.7167C1.26071 17.5749 1.14945 17.4051 1.07625 17.2181C1.00306 17.031 0.969526 16.8308 0.97779 16.6301C0.97779 15.2227 2.44873 14.884 3.51225 14.884C4.89854 14.884 6.29542 15.355 7.21605 15.355H11.8141L12.1845 18.8471H12.0786C11.8141 16.6143 11.0627 15.4555 8.23197 15.4555V25.6146H9.81934V25.715H3.60221V25.6146H5.18955L5.19484 15.5931Z" fill="#B9B9B9"/>
<path d="M16.1478 17.8418C18.55 17.8418 20.4231 19.5244 20.4231 21.8313C20.4231 24.1383 18.55 25.8263 16.1478 25.8263C13.7456 25.8263 11.8726 24.1383 11.8726 21.8313C11.8726 19.5244 13.7456 17.8418 16.1478 17.8418ZM16.1478 25.7204C17.4759 25.7204 17.4865 24.17 17.4865 21.8313C17.4865 19.4926 17.4865 17.9423 16.1478 17.9423C14.8092 17.9423 14.8039 19.4926 14.8039 21.8313C14.8039 24.17 14.8197 25.7204 16.1478 25.7204Z" fill="#B9B9B9"/>
<path d="M20.7451 18.503V18.4025L24.978 17.8417L24.9305 19.7888C25.0766 19.2229 25.4096 18.7228 25.8754 18.3695C26.3411 18.0162 26.9122 17.8302 27.4967 17.8417C28.7188 17.8417 29.613 18.4925 29.7401 19.7782C29.8865 19.2142 30.219 18.7161 30.6838 18.3647C31.1486 18.0132 31.7185 17.8289 32.3009 17.8417C33.5973 17.8417 34.555 18.5665 34.555 20.011V25.7044C34.555 27.26 34.555 29.8633 35.809 29.8633C35.9343 29.8572 36.0574 29.8262 36.1707 29.7721C36.284 29.7183 36.3853 29.6423 36.4691 29.5486C36.5527 29.4552 36.6169 29.3459 36.6581 29.2272C36.6993 29.1087 36.7165 28.9831 36.7086 28.8578C36.7056 28.6436 36.6378 28.4355 36.5141 28.2606C36.3903 28.086 36.2164 27.9528 36.0155 27.8791C36.0141 27.6929 36.0515 27.5083 36.1248 27.3373C36.1981 27.1663 36.3059 27.012 36.4414 26.8845C36.5769 26.7569 36.7373 26.6585 36.9126 26.5956C37.0879 26.533 37.2741 26.5067 37.4598 26.5192C37.66 26.5067 37.8604 26.5359 38.0488 26.6047C38.237 26.6736 38.4089 26.7809 38.5534 26.9195C38.6982 27.0584 38.8124 27.2256 38.8894 27.4106C38.966 27.5959 39.0036 27.7949 38.9997 27.9953C38.9997 29.4292 37.3329 29.9795 36.1582 29.9795C35.5869 29.9795 35.0211 29.866 34.4939 29.6452C33.9669 29.4245 33.4891 29.1012 33.0881 28.6938C32.6873 28.2867 32.3715 27.8038 32.1591 27.2731C31.9469 26.7426 31.8422 26.1751 31.8512 25.6038V19.9423C31.8512 19.3602 31.8512 18.4607 31.1158 18.4607C30.3803 18.4607 29.8037 19.519 29.7718 20.3814V25.6038H30.5338V25.7044H26.2268V25.6038H27.0258V19.9423C27.0258 19.3602 27.0258 18.4607 26.2902 18.4607C25.5548 18.4607 24.9463 19.5719 24.9463 20.4396V25.6038H25.7717V25.7044H20.9356V25.6038H22.2214V18.3125L20.7451 18.503Z" fill="#B9B9B9"/>
<path d="M40.9417 19.8949C40.9417 18.9636 40.9417 17.9424 39.8465 17.9424C39.5253 17.9492 39.2193 18.0794 38.9915 18.306C38.7639 18.5327 38.6325 18.8383 38.6244 19.1594C38.6248 19.3372 38.6743 19.5114 38.7678 19.6627C38.8612 19.8139 38.9946 19.9364 39.1535 20.0166C39.1552 20.1878 39.1218 20.3577 39.0551 20.5155C38.9883 20.6733 38.8899 20.8156 38.7658 20.9338C38.6418 21.0519 38.4948 21.1432 38.3337 21.2021C38.1729 21.2609 38.0016 21.286 37.8306 21.2758C37.6452 21.2876 37.4593 21.2596 37.2853 21.1937C37.1116 21.1278 36.9537 21.0256 36.8225 20.8939C36.6913 20.7622 36.5897 20.604 36.5244 20.4299C36.4592 20.2558 36.4318 20.0698 36.4443 19.8843C36.4443 18.08 38.9046 17.8472 40.2593 17.8472C41.9418 17.8472 43.6826 18.3763 43.6826 20.1065V23.9216C43.6826 24.6782 43.9631 25.4717 45.0108 24.5988L45.0689 24.6782C44.3716 25.3509 43.4546 25.7492 42.4869 25.7999C41.5767 25.7999 41.0266 25.0908 40.9578 24.1014C40.6138 25.1595 39.3703 25.7999 38.2274 25.7999C36.8413 25.7999 35.9575 25.133 35.9575 23.8632C35.9575 21.5245 39.2751 22.043 40.9417 20.6885V19.8949ZM40.9417 20.7997C39.984 21.5828 39.1111 21.5986 39.1111 23.4135C39.1111 24.0643 39.217 24.8632 39.9682 24.8632C40.7196 24.8632 40.9417 24.0061 40.9417 23.6198V20.7997Z" fill="#B9B9B9"/>
<path d="M48.3123 25.7203C49.1064 25.7626 50.5351 26.4027 51.4342 26.4027C51.5444 26.4188 51.6564 26.4095 51.7619 26.3756C51.8673 26.3414 51.9639 26.2837 52.0436 26.2064C52.1233 26.1292 52.1842 26.0347 52.2217 25.9302C52.2592 25.8257 52.2723 25.7142 52.2597 25.6038C52.2447 25.4007 52.1711 25.2064 52.0483 25.0439C51.925 24.8816 51.7581 24.758 51.5664 24.6884C51.565 24.5018 51.6016 24.317 51.6747 24.1451C51.7473 23.9734 51.8551 23.8186 51.9906 23.6904C52.1261 23.5621 52.2869 23.4635 52.4626 23.4004C52.638 23.3371 52.825 23.3111 53.0111 23.3233C53.2126 23.3135 53.4137 23.3459 53.6022 23.4185C53.7906 23.4911 53.9622 23.602 54.1047 23.7445C54.2476 23.887 54.3592 24.0577 54.4323 24.2457C54.5059 24.4337 54.5387 24.635 54.5294 24.8365C54.5294 26.2387 53.0589 26.5774 51.9953 26.5774C49.9473 26.5774 49.6089 25.7519 46.8205 25.7045H45.1431L49.9051 18.048H49.3445C46.8364 18.048 46.011 19.1433 45.7463 21.1063H45.6405L45.9791 17.9316H53.1484L48.3123 25.7045V25.7203Z" fill="#B9B9B9"/>
<path d="M56.9324 25.7203C57.7312 25.7626 59.1599 26.4027 60.0594 26.4027C60.1691 26.4188 60.2812 26.4095 60.3871 26.3756C60.4926 26.3414 60.5891 26.2837 60.6688 26.2064C60.7485 26.1292 60.8099 26.0347 60.8469 25.9302C60.8844 25.8257 60.8976 25.7142 60.8849 25.6038C60.8657 25.4018 60.7912 25.2093 60.6683 25.0474C60.546 24.8858 60.381 24.7614 60.1916 24.6884C60.1893 24.5018 60.2268 24.317 60.2994 24.1451C60.3726 23.9734 60.4799 23.8186 60.6158 23.6904C60.7518 23.5621 60.9116 23.4635 61.0874 23.4004C61.2632 23.3371 61.4497 23.3111 61.6363 23.3233C61.8379 23.3135 62.0394 23.3459 62.2274 23.4185C62.4154 23.4911 62.5869 23.602 62.7299 23.7445C62.8724 23.887 62.9844 24.0577 63.0576 24.2457C63.1307 24.4337 63.1635 24.635 63.1546 24.8365C63.1546 26.2387 61.6785 26.5774 60.6201 26.5774C58.5726 26.5774 58.2341 25.7519 55.4455 25.7045H53.7632L58.5247 18.048H57.9482C55.4455 18.048 54.6201 19.1433 54.3557 21.1063H54.2497L54.5882 17.9316H61.7526L56.9165 25.6938L56.9324 25.7203Z" fill="#B9B9B9"/>
<path d="M66.8106 17.8418C69.213 17.8418 71.0861 19.5244 71.0861 21.8313C71.0861 24.1383 69.213 25.8263 66.8106 25.8263C64.4083 25.8263 62.5352 24.1383 62.5352 21.8313C62.5352 19.5244 64.398 17.8418 66.8106 17.8418ZM66.8106 25.7204C68.1386 25.7204 68.1494 24.17 68.1494 21.8313C68.1494 19.4926 68.1494 17.9423 66.8106 17.9423C65.4719 17.9423 65.4564 19.4926 65.4564 21.8313C65.4564 24.17 65.4827 25.7204 66.8106 25.7204Z" fill="#B9B9B9"/>
<path d="M75.5947 19.7889C75.7607 19.219 76.1094 18.7194 76.5876 18.3675C77.0662 18.0156 77.6465 17.8308 78.2399 17.8418C79.5365 17.8418 80.5522 18.5666 80.5522 20.0111V25.6038H81.8591V25.7045H77.0497V25.6038H77.8485V19.9423C77.8485 19.3603 77.8171 18.4608 77.0497 18.4608C76.2824 18.4608 75.621 19.572 75.621 20.4397V25.6038H76.4305V25.7045H71.6104V25.6038H72.8643V18.3127L71.3882 18.5031V18.4026L75.621 17.8418L75.5947 19.7889Z" fill="#B9B9B9"/>
<path d="M81.8584 18.5031V18.4026L86.0917 17.8417V25.7044H83.9748C85.3032 27.4188 88.7054 27.4821 88.7054 25.6038C88.6904 25.4013 88.6178 25.2073 88.4959 25.0451C88.374 24.8827 88.2081 24.759 88.0173 24.6884C88.015 24.5015 88.0511 24.3163 88.1237 24.1441C88.1964 23.972 88.3042 23.8168 88.4396 23.6886C88.5756 23.5603 88.7364 23.4615 88.9126 23.3986C89.0884 23.3357 89.2759 23.3101 89.462 23.3233C89.6631 23.3145 89.8642 23.3473 90.0512 23.4201C90.2392 23.4929 90.4098 23.6042 90.5518 23.7465C90.6943 23.8888 90.8054 24.0593 90.8786 24.2471C90.9512 24.4346 90.984 24.6354 90.9751 24.8365C90.9751 27.6409 83.372 28.4292 83.372 24.1118V18.2915L81.8584 18.5031ZM86.282 15.6088C86.282 15.9228 86.1887 16.2297 86.0143 16.4907C85.8404 16.7518 85.592 16.9552 85.3023 17.0753C85.0121 17.1955 84.6929 17.2269 84.385 17.1657C84.077 17.1044 83.7939 16.9532 83.5726 16.7312C83.35 16.5093 83.1986 16.2264 83.1381 15.9185C83.0767 15.6105 83.1076 15.2914 83.2281 15.0014C83.3481 14.7113 83.552 14.4634 83.8126 14.289C84.0737 14.1145 84.3807 14.0215 84.6943 14.0215C85.1157 14.0215 85.5193 14.1887 85.817 14.4864C86.1147 14.7841 86.282 15.1878 86.282 15.6088Z" fill="#B9B9B9"/>
</g>
<defs>
<clipPath id="clip0_197_898">
<rect width="90.0469" height="30" fill="white" transform="translate(0.976562)"/>
</clipPath>
</defs>
</svg>
