<svg width="112" height="22" viewBox="0 0 112 22" fill="none" xmlns="http://www.w3.org/2000/svg">
<path d="M44.5171 0.711426C44.9815 0.795858 45.467 0.859184 45.9314 0.985833C48.1477 1.61908 49.8153 2.90668 50.8707 4.99639C50.8918 5.0386 50.934 5.10192 50.9762 5.18636C51.5251 3.64546 52.4538 2.40008 53.8681 1.61908C55.2823 0.816967 56.8021 0.626993 58.4063 0.9014C58.4063 2.75892 58.4063 4.59533 58.4063 6.49507C58.2374 6.49507 58.0897 6.49507 57.9419 6.47396C57.2031 6.38952 56.6543 6.66393 56.2744 7.27607C55.9155 7.82488 55.7678 8.45813 55.7678 9.11248C55.7467 11.2655 55.7045 13.3974 55.7045 15.5505C55.7045 15.8038 55.6411 15.8671 55.3878 15.8671C51.6728 15.8671 47.9367 15.8671 44.2216 15.8671C42.934 15.8671 41.6886 15.6982 40.4855 15.1705C39.3034 14.6639 38.3535 13.8618 37.6781 12.7853C37.6359 12.722 37.6148 12.6798 37.5514 12.5742C37.5303 12.6587 37.5092 12.722 37.5092 12.7642C37.5092 12.912 37.5092 13.0597 37.5092 13.2286C37.6359 14.9172 37.0237 16.3948 36.1161 17.7246C34.533 20.0465 32.2744 21.1441 29.467 21.0386C26.9129 20.9331 24.8654 19.8565 23.4512 17.6613C23.029 17.0069 22.7757 16.2893 22.6069 15.5294C22.5013 15.0861 22.6069 15.1705 22.1425 15.1705C20.9815 15.1705 19.8206 15.1705 18.6807 15.1705C18.5963 15.1705 18.4908 15.1916 18.4063 15.2338C15.4723 16.4792 11.7995 14.8117 10.8496 11.7721C10.6807 11.2233 10.6174 10.6534 10.5963 10.0835C10.5541 9.07026 10.5752 8.05707 10.5752 7.04388C10.5752 6.93834 10.5752 6.8539 10.5752 6.72725C10.153 6.72725 9.73087 6.70615 9.35092 6.74836C9.22427 6.76947 9.07651 6.93834 9.0343 7.08609C8.97097 7.23385 8.99208 7.44493 9.01319 7.6138C9.13984 8.77475 9.0343 9.9357 8.67546 11.0544C8.35884 12.0465 7.72559 12.8486 6.9657 13.5663C5.86807 14.5795 4.53826 15.1494 3.06069 15.3394C2.13193 15.466 1.18206 15.466 0.23219 15.5294C0.168865 15.5294 0.105541 15.5083 0 15.5083C0 13.6296 0 11.751 0 9.83016C0.274406 9.85126 0.527704 9.91459 0.781003 9.91459C1.18206 9.91459 1.58311 9.9357 1.96306 9.87237C2.87071 9.70351 3.3562 9.04915 3.50396 8.20483C3.63061 7.57158 3.67282 6.91723 3.65171 6.26288C3.65171 3.49771 5.1715 1.57686 7.81002 1.02805C8.88654 0.795858 9.96306 0.795858 11.0607 0.859182C11.8628 0.901399 12.6438 0.880292 13.4459 0.880292C14.1214 0.880292 14.8179 0.880292 15.5356 0.880292C15.5356 0.985833 15.5356 1.07026 15.5356 1.1547C15.5145 3.30773 15.4934 5.46076 15.4512 7.6138C15.4301 8.26815 15.3668 8.92251 15.5778 9.55575C15.6834 9.9357 15.8522 10.3156 16.0844 10.6112C16.5699 11.2444 17.3087 11.2233 17.7942 10.6112C18.1952 10.1257 18.3641 9.53464 18.3852 8.92251C18.4274 7.93042 18.4063 6.95944 18.4274 5.96736C18.4485 4.40536 18.4697 2.84335 18.4908 1.28135C18.4908 1.1758 18.4908 1.09137 18.4908 0.964723C20.1161 0.964723 21.7203 0.964723 23.3456 0.964723C23.3456 2.31565 23.3456 3.64546 23.3456 4.99639C23.3667 4.99639 23.3879 5.01749 23.409 5.01749C23.4512 4.95417 23.4934 4.91195 23.5145 4.84863C24.7177 2.7167 26.5963 1.55575 28.9604 1.11248C30.2058 0.880291 31.409 1.13359 32.5277 1.72462C32.6121 1.76684 32.6966 1.80905 32.8021 1.87238C32.8232 1.76683 32.8232 1.70351 32.8443 1.61908C34.3852 1.61908 35.905 1.61908 37.467 1.61908C37.467 2.54784 37.467 3.4977 37.467 4.48979C37.5514 4.38425 37.5937 4.34203 37.6359 4.27871C38.8813 2.23121 40.6966 1.07027 43.0607 0.774751C43.1029 0.774751 43.1451 0.753642 43.2084 0.732534C43.6517 0.711425 44.0739 0.711426 44.5171 0.711426ZM34.0053 4.29982C33.8997 4.21538 33.8364 4.17317 33.7731 4.10984C33.4353 3.81433 33.0976 3.51881 32.7599 3.24441C32.0211 2.67449 31.1979 2.29454 30.2691 2.23121C28.4538 2.10456 26.9129 2.80113 25.6253 4.0043C23.6412 5.86182 23.0501 9.30245 24.2533 11.751C25.0976 13.4608 26.5541 14.4106 28.3061 14.9383C29.9525 15.4449 31.4723 15.065 32.8021 13.9674C33.1609 13.6718 33.4987 13.3552 33.8575 13.0597C34.0053 12.9331 34.1319 12.8275 34.3008 12.6798C34.3008 12.7642 34.3008 12.8064 34.2797 12.8486C34.1319 13.4397 33.9842 14.0307 33.8153 14.6006C33.6464 15.1916 33.372 15.7193 32.971 16.1626C31.4512 17.8724 28.6227 17.9357 26.9129 16.2893C26.7652 16.1626 26.6385 16.0993 26.4485 16.0993C25.7309 16.0993 25.0343 16.0993 24.3166 16.0993C24.2322 16.0993 24.1266 16.0993 24.0211 16.0993C24.0633 16.2048 24.0844 16.2893 24.1266 16.3737C24.4433 16.8803 24.6966 17.408 25.0765 17.8513C26.8918 19.8988 30.058 20.4687 32.591 19.2444C34.4485 18.3579 35.5462 16.8381 36.1372 14.9172C36.2216 14.6428 36.3272 14.3684 36.3272 14.0729C36.3483 10.379 36.3272 6.68504 36.3483 2.99111C36.3483 2.80114 36.285 2.75892 36.1161 2.75892C35.5251 2.75892 34.9129 2.78003 34.3219 2.75892C34.1108 2.75892 34.0264 2.80113 34.0264 3.03332C34.0264 3.43438 34.0053 3.83544 34.0053 4.29982ZM50.4907 14.6428C50.4907 14.5584 50.5119 14.4951 50.5119 14.4317C50.5119 12.4476 50.5119 10.4634 50.5119 8.47923C50.5119 8.07818 50.4696 7.67712 50.4063 7.29717C49.6675 3.34995 46.1003 1.55575 43.1029 1.91459C39.9156 2.31565 37.4459 5.31301 37.657 8.54256C37.6992 9.02805 37.7414 9.53464 37.847 10.0201C38.3324 12.342 39.6834 13.8407 42.0264 14.4106C43.2506 14.7061 44.496 14.6428 45.7625 14.6217C45.7836 14.6217 45.7836 14.6006 45.7836 14.6006C45.7836 13.7563 45.7836 12.8908 45.7836 12.0465C45.1715 12.0465 44.5594 12.0465 43.9683 12.0465C43.8628 12.0465 43.7572 12.0465 43.6517 12.0254C41.3298 11.6244 40.2322 9.1758 40.6966 7.42383C41.2243 5.39744 43.2506 4.23649 45.1715 4.86974C46.8179 5.41855 47.5145 7.02277 47.5356 8.45812C47.5567 10.4423 47.5356 12.4054 47.5356 14.3895C47.5356 14.474 47.5567 14.5584 47.5567 14.6639C48.5488 14.6428 49.4987 14.6428 50.4907 14.6428ZM19.6728 2.12567C19.6728 2.21011 19.6517 2.27343 19.6517 2.33675C19.6306 3.79322 19.6306 5.24968 19.6095 6.72725C19.5884 7.55047 19.6095 8.37369 19.5462 9.1758C19.4828 9.97791 19.2295 10.7167 18.7018 11.3288C17.752 12.5109 16.19 12.532 15.1979 11.4133C14.7757 10.9489 14.5435 10.379 14.3958 9.76683C14.2058 8.98583 14.248 8.20483 14.2691 7.42383C14.3113 5.71406 14.3113 4.0043 14.3324 2.31565C14.3324 2.23121 14.3324 2.14678 14.3113 2.06235C13.4459 2.06235 12.6016 2.06235 11.7573 2.06235C11.7573 2.14678 11.7361 2.23121 11.7361 2.29454C11.7361 4.91195 11.7361 7.52937 11.7361 10.1468C11.7361 10.4001 11.7573 10.6323 11.7995 10.8856C12.285 13.5663 15.2401 14.8961 17.3509 14.3262C18.1108 14.1362 18.7018 13.6718 19.2295 13.1441C19.3984 12.9753 19.5673 12.8275 19.7784 12.6164C19.7784 13.1019 19.7784 13.5241 19.7784 13.9462C19.8839 13.9462 19.9472 13.9674 20.0317 13.9674C20.6438 13.9674 21.2559 13.9674 21.8892 13.9674C22.1214 13.9674 22.1636 13.8829 22.1636 13.6718C22.1636 9.91459 22.1636 6.13623 22.1636 2.37897C22.1636 2.29454 22.1636 2.21011 22.1425 2.10456C21.3193 2.12567 20.496 2.12567 19.6728 2.12567ZM10.5541 5.48187C10.5752 5.41855 10.5752 5.39744 10.5752 5.37633C10.5752 4.32092 10.5752 3.24441 10.5752 2.189C10.5752 1.99902 10.4697 1.97792 10.3219 1.99902C9.54089 2.06235 8.73878 2.06235 7.95778 2.21011C6.48021 2.48451 5.40369 3.30773 5.02375 4.82752C4.8971 5.31301 4.8971 5.8196 4.85488 6.30509C4.79156 7.00166 4.81266 7.71934 4.66491 8.3948C4.34828 9.91459 3.39842 10.8011 1.92084 11.0333C1.66755 11.0755 1.41425 11.0755 1.18206 11.0966C1.18206 12.1732 1.18206 13.2286 1.18206 14.3473C1.83641 14.2629 2.46966 14.2207 3.08179 14.094C4.47493 13.8407 5.72031 13.2497 6.62797 12.1098C6.9868 11.6455 7.34564 11.1389 7.53562 10.5689C7.83113 9.74572 7.89446 8.85918 7.83113 7.97264C7.81002 7.71934 7.78892 7.46604 7.78892 7.21274C7.83113 6.13623 8.50659 5.48187 9.58311 5.48187C9.92084 5.48187 10.2375 5.48187 10.5541 5.48187ZM57.2454 1.97792C57.2031 1.95681 57.2031 1.95681 57.182 1.95681C57.1398 1.95681 57.0976 1.9357 57.0554 1.95681C55.8311 1.97792 54.7124 2.31565 53.7625 3.11776C52.3483 4.29982 51.7784 5.90404 51.715 7.69823C51.6517 9.9357 51.6939 12.1732 51.6939 14.4106C51.6939 14.4951 51.6939 14.5795 51.715 14.6639C52.6649 14.6639 53.5725 14.6639 54.5224 14.6639C54.5224 14.5584 54.5224 14.474 54.5224 14.3684C54.5435 12.6164 54.5646 10.8645 54.6068 9.13359C54.6279 8.62699 54.6913 8.1204 54.839 7.63491C55.1768 6.51617 55.8522 5.67185 57.0343 5.37633C57.2243 5.33412 57.2665 5.27079 57.2665 5.08082C57.2665 4.13095 57.2665 3.18108 57.2876 2.21011C57.2454 2.12567 57.2454 2.04124 57.2454 1.97792ZM46.3324 9.49242C46.3535 9.49242 46.3747 9.49242 46.3747 9.49242C46.3324 8.9014 46.3324 8.28926 46.2269 7.71934C46.0369 6.8328 45.5303 6.17844 44.6227 5.94625C43.7784 5.73517 43.0185 5.96736 42.4274 6.60061C41.1609 7.95153 41.7942 9.89348 43.0818 10.5901C43.3562 10.7378 43.6939 10.8433 44.0105 10.8645C44.7071 10.9067 45.4037 10.8645 46.1003 10.8856C46.2691 10.8856 46.3324 10.8433 46.3113 10.6745C46.3324 10.2734 46.3324 9.89348 46.3324 9.49242ZM23.3667 12.722C23.3667 13.4397 23.3667 14.1573 23.3667 14.875C24.0422 14.875 24.7177 14.875 25.4565 14.875C24.591 14.284 23.9156 13.5663 23.3667 12.722Z" fill="#B9B9B9"/>
<path d="M87.3032 0.711426C87.641 0.77475 87.9787 0.838075 88.3164 0.922508C91.2716 1.64019 93.6146 4.36314 93.889 7.40272C94.0578 9.34467 93.7201 11.1811 92.538 12.7853C90.8916 15.0228 88.6753 16.0782 85.8679 15.9304C82.2162 15.7404 79.4721 12.7642 79.0288 9.53464C78.5433 6.03069 80.2531 2.7167 83.4193 1.32356C84.0315 1.04916 84.7069 0.943616 85.3613 0.774751C85.4246 0.753643 85.509 0.732534 85.5724 0.711426C86.1634 0.711426 86.7333 0.711426 87.3032 0.711426ZM91.1871 8.09929C91.2082 6.93834 90.7439 5.8196 89.8573 4.86974C88.4853 3.43438 86.3745 2.97 84.6647 3.751C81.7518 5.05971 80.9286 8.71142 82.6172 11.2022C84.3059 13.6718 87.261 13.693 88.9074 12.5953C90.4272 11.561 91.1871 10.1046 91.1871 8.09929Z" fill="#B9B9B9"/>
<path d="M63.9156 0.711426C64.1689 0.77475 64.4222 0.816967 64.6755 0.880292C66.1531 1.34467 66.9763 2.40008 67.293 3.85654C67.4196 4.42646 67.4407 4.99638 67.504 5.60852C66.5753 5.60852 65.7309 5.60852 64.8444 5.60852C64.8022 5.2919 64.7811 4.97528 64.7389 4.65865C64.57 3.68768 64.0212 3.26551 63.0924 3.39216C62.2903 3.4977 61.7837 4.19427 61.847 5.05971C61.8682 5.5452 62.1003 5.88293 62.5225 6.0729C63.008 6.28398 63.4935 6.45285 63.979 6.64282C64.6122 6.89612 65.2666 7.12831 65.8576 7.44493C67.0819 8.12039 67.6307 9.21802 67.694 10.5901C67.7362 11.4344 67.6518 12.2787 67.3563 13.0808C66.6386 15.0017 64.8022 16.0993 62.7758 15.9304C60.7494 15.7616 59.1874 14.3051 58.8708 12.1521C58.7864 11.6032 58.7864 11.0544 58.7441 10.4845C58.8286 10.4634 58.8708 10.4423 58.913 10.4423C59.694 10.4423 60.475 10.4423 61.2349 10.4423C61.4038 10.4423 61.4249 10.5056 61.446 10.6534C61.4671 11.0333 61.4882 11.4344 61.5726 11.8143C61.7837 12.722 62.4803 13.2286 63.3457 13.1652C64.3167 13.1019 64.9288 12.4898 65.0133 11.5188C65.0977 10.8011 64.8233 10.2523 64.2534 9.85126C63.7046 9.45021 63.0713 9.23913 62.4381 9.02805C61.5304 8.73253 60.6861 8.33148 60.0317 7.59269C59.293 6.76947 59.0819 5.77739 59.1452 4.72198C59.2085 3.64546 59.5885 2.7167 60.3484 1.9357C61.0027 1.28135 61.7626 0.9014 62.6703 0.774751C62.7336 0.774751 62.7969 0.732534 62.8602 0.732534C63.198 0.711425 63.5568 0.711426 63.9156 0.711426Z" fill="#B9B9B9"/>
<path d="M111.979 11.7089C111.916 12.0255 111.852 12.3422 111.768 12.6377C111.219 14.4108 110.1 15.5928 108.201 15.8883C105.435 16.3105 103.515 14.6007 103.113 12.1522C103.029 11.6034 103.029 11.0546 102.987 10.4846C103.916 10.4846 104.781 10.4846 105.646 10.4846C105.668 10.8224 105.689 11.139 105.71 11.4767C105.71 11.5612 105.731 11.6667 105.752 11.7511C105.963 12.701 106.617 13.2498 107.525 13.1865C108.517 13.1443 109.108 12.5532 109.214 11.5401C109.298 10.8435 109.066 10.2947 108.496 9.87251C107.947 9.47145 107.314 9.26037 106.702 9.02818C106.216 8.83821 105.731 8.64823 105.267 8.39493C103.852 7.59282 103.282 6.34744 103.367 4.76433C103.43 3.64559 103.81 2.67462 104.633 1.89362C105.267 1.26037 106.026 0.901532 106.913 0.774883C106.976 0.774883 107.04 0.732666 107.103 0.732666C107.462 0.732666 107.821 0.732666 108.158 0.732666C108.201 0.753774 108.243 0.774883 108.306 0.774883C110.818 1.11261 111.852 3.35008 111.683 5.62976C110.839 5.62976 109.974 5.62976 109.108 5.62976C109.087 5.35536 109.066 5.12317 109.045 4.86987C108.96 3.83557 108.412 3.32897 107.441 3.4134C106.807 3.45562 106.301 3.92 106.174 4.55325C106.026 5.33425 106.237 5.84084 106.913 6.13636C107.314 6.32633 107.736 6.45298 108.137 6.60074C108.876 6.85404 109.615 7.08623 110.269 7.50839C111.029 7.99388 111.578 8.66934 111.831 9.55588C111.894 9.78807 111.937 10.0203 112 10.2313C111.979 10.7168 111.979 11.2234 111.979 11.7089Z" fill="#B9B9B9"/>
<path d="M70.9233 15.677C70.0367 15.677 69.1924 15.677 68.3481 15.677C68.3058 15.677 68.2425 15.5926 68.2003 15.5292C68.1792 15.487 68.2003 15.4237 68.2003 15.3815C68.2003 10.6744 68.2003 5.96724 68.2003 1.28122C68.2003 1.17568 68.2003 1.09125 68.2003 0.9646C69.1291 0.9646 69.9945 0.9646 70.9233 0.9646C70.9233 1.07014 70.9233 1.17568 70.9233 1.28122C70.9233 3.07542 70.9233 4.86961 70.9233 6.6427C70.9233 6.87489 70.9866 6.93821 71.2188 6.93821C72.6541 6.93821 74.1106 6.93821 75.5459 6.93821C75.6304 6.93821 75.7148 6.93821 75.8204 6.93821C75.8204 4.93294 75.8204 2.96988 75.8204 0.9646C76.7491 0.9646 77.6357 0.9646 78.5433 0.9646C78.5433 5.8617 78.5433 10.7588 78.5433 15.677C77.6357 15.677 76.7491 15.677 75.8415 15.677C75.8415 13.6717 75.8415 11.6664 75.8415 9.64006C74.195 9.64006 72.5908 9.64006 70.9444 9.64006C70.9233 11.6453 70.9233 13.6506 70.9233 15.677Z" fill="#B9B9B9"/>
<path d="M102.692 6.91724C102.692 7.82489 102.692 8.64811 102.692 9.49243C102.692 9.53465 102.607 9.59797 102.544 9.64019C102.48 9.6613 102.417 9.64019 102.354 9.64019C100.707 9.64019 99.082 9.64019 97.4356 9.64019C97.33 9.64019 97.2456 9.64019 97.1189 9.64019C97.1189 10.7589 97.1189 11.8354 97.1189 12.9542C98.9765 12.9542 100.813 12.9542 102.692 12.9542C102.692 13.0597 102.713 13.123 102.713 13.2075C102.713 13.9463 102.713 14.685 102.713 15.4449C102.713 15.6138 102.67 15.6982 102.48 15.6982C99.863 15.6982 97.2245 15.6982 94.6071 15.6982C94.5438 15.6982 94.4804 15.6771 94.396 15.6771C94.396 10.78 94.396 5.90404 94.396 0.98584C97.1612 0.98584 99.9263 0.98584 102.713 0.98584C102.713 1.19692 102.713 1.408 102.713 1.61909C102.713 2.21011 102.692 2.80114 102.713 3.39217C102.713 3.64547 102.628 3.68769 102.417 3.68769C100.771 3.68769 99.1031 3.68769 97.4567 3.68769C97.3511 3.68769 97.2456 3.68769 97.1189 3.68769C97.1189 4.78531 97.1189 5.84072 97.1189 6.93834C98.9554 6.91724 100.792 6.91724 102.692 6.91724Z" fill="#B9B9B9"/>
<path d="M33.773 8.88041C33.7519 9.97804 33.3931 11.0123 32.5488 11.8567C31.1345 13.292 28.9182 13.2709 27.5039 11.8356C25.8575 10.1469 25.9208 7.2973 27.6517 5.69308C29.2348 4.21551 31.6411 4.4688 32.9498 6.24189C33.4986 7.00178 33.7519 7.86722 33.773 8.88041ZM27.5461 8.77487C27.5672 9.72474 27.8416 10.5057 28.5171 11.1179C29.4036 11.92 30.5857 11.9411 31.4934 11.1601C32.8865 9.97804 32.8443 7.5717 31.43 6.41076C30.6068 5.73529 29.5303 5.71419 28.7071 6.36854C27.905 7.00178 27.5672 7.84611 27.5461 8.77487Z" fill="#B9B9B9"/>
</svg>
