<svg width="30" height="30" viewBox="0 0 30 30" fill="none" xmlns="http://www.w3.org/2000/svg">
<path d="M-0.0424805 0V30H29.9575V0H-0.0424805ZM12.2009 22.2963H11.1533C11.1533 22.2963 11.1533 25.2275 11.1533 25.3228C11.1533 25.8413 11.82 25.873 12.2009 25.5979V26.5714C11.9787 26.7937 11.4919 26.8677 11.2803 26.8677C10.6771 26.8677 10.1162 26.5291 10.1162 25.3862V22.2963H9.59773V21.2487H10.1162V19.6825H11.1639V21.2487H12.2115V22.2963H12.2009ZM16.3808 26.8571H15.3332V23.1746C15.3332 22.6349 15.2379 22.2857 14.8252 22.2857C14.3914 22.2857 14.2856 22.7513 14.2856 23.2063V26.8571H13.2379V19.6825H14.2856V21.8836C14.3808 21.6085 14.6665 21.2487 15.0792 21.2487C15.3649 21.2487 15.5554 21.3016 15.7353 21.4074C15.9046 21.5132 16.0422 21.6508 16.1374 21.8201C16.2327 22 16.2961 22.2011 16.3279 22.4339C16.3596 22.6667 16.3702 22.9101 16.3702 23.164V26.8571H16.3808ZM20.5501 24.2328L18.4655 24.6349V24.9312C18.4655 25.037 18.4655 25.1534 18.4655 25.2698C18.4655 25.3757 18.4655 25.4815 18.4972 25.5661C18.5395 25.6508 18.5713 25.6931 18.6559 25.746C18.73 25.7989 18.8358 25.8201 18.9734 25.8201C19.1004 25.8201 19.2062 25.7989 19.2803 25.7566C19.3543 25.7143 19.4073 25.6508 19.4496 25.5767C19.4919 25.5026 19.5025 25.4497 19.5131 25.3545C19.5237 25.2593 19.5237 25.1323 19.5237 25.0265V24.9101L20.5713 24.9524V25.0582C20.5713 25.3016 20.5501 25.5344 20.5078 25.7566C20.4655 25.9788 20.3914 26.1693 20.275 26.328C20.1586 26.4868 19.9998 26.6243 19.7988 26.7196C19.5871 26.8148 19.3226 26.8571 18.9946 26.8571C18.6559 26.8571 18.3808 26.8042 18.1797 26.6984C17.9681 26.5926 17.8094 26.455 17.693 26.2857C17.5766 26.1058 17.5131 25.9577 17.4813 25.7778C17.439 25.545 17.4496 25.2063 17.4496 24.9524V23.0794C17.4496 22.8254 17.4496 22.4974 17.5025 22.2751C17.5448 22.0847 17.5871 22 17.7036 21.8201C17.82 21.6508 17.9787 21.5026 18.1903 21.4074C18.402 21.3016 18.6665 21.2487 19.0051 21.2487C19.3332 21.2487 19.6083 21.3016 19.82 21.3968C20.0316 21.4921 20.1903 21.6296 20.3067 21.7989C20.4231 21.9683 20.4972 22.1587 20.5395 22.381C20.5819 22.6032 20.603 22.8254 20.603 23.0688V24.2328H20.5501ZM22.6453 26.8571H21.5977V19.6825H22.6453V26.8571ZM26.8252 26.8571H25.7776V26.2751C25.7141 26.4656 25.6189 26.5714 25.4919 26.6772C25.3649 26.7937 25.185 26.8466 24.9628 26.8466C24.0951 26.8466 23.6824 26.4444 23.6824 25.1429C23.6824 24.1376 24.1057 23.6825 24.73 23.6402C25.3226 23.5979 25.693 23.7672 25.7776 23.8095V23.0688C25.7776 22.5291 25.7036 22.2645 25.2379 22.2645C24.7829 22.2645 24.73 22.5185 24.73 23.037V23.1534H23.6824C23.6824 23.1534 23.6718 22.5503 23.7141 22.328C23.7565 22.1164 23.8305 21.9259 23.9469 21.7566C24.0633 21.5873 24.2221 21.4603 24.4231 21.3651C24.6242 21.2698 24.8887 21.2169 25.2062 21.2169C25.5237 21.2169 25.7776 21.2593 25.9787 21.3545C26.1797 21.4392 26.3491 21.5661 26.4655 21.7249C26.5819 21.8836 26.6665 22.0635 26.7194 22.2857C26.7723 22.4974 26.7935 22.7302 26.7935 22.9841V26.8571H26.8252Z" fill="#B9B9B9"/>
</svg>
