<svg width="72" height="41" viewBox="0 0 72 41" fill="none" xmlns="http://www.w3.org/2000/svg">
<path d="M71.8303 26.9C71.2807 26.5177 70.755 26.1593 70.2055 25.777C66.4301 23.1963 62.2007 21.8582 57.7323 21.1414C52.0932 20.2333 46.4062 19.8032 40.6953 20.2572C36.7765 20.5679 32.8578 21.0458 28.9629 21.5237C28.6523 21.5715 28.3178 21.9777 28.1266 22.3122C26.1672 25.5141 24.3751 28.8355 22.2724 31.9179C19.405 36.1473 15.4623 39.0625 10.4444 40.3767C9.70367 40.5679 8.93903 40.7112 8.19829 40.8785C7.43365 40.8785 6.64512 40.8785 5.85659 40.8785C5.71322 40.8307 5.59375 40.7351 5.45038 40.7112C2.89363 40.4245 0.886462 39.4209 0.121826 36.7447C0.121826 36.1473 0.121826 35.55 0.121826 34.9526C1.77057 30.1497 5.42649 27.3779 9.79925 25.323C14.4587 23.1246 19.4289 21.9777 24.4468 21.0697C25.0203 20.9741 25.3309 20.7351 25.5699 20.2094C26.4779 18.1067 27.4337 16.0278 28.3656 13.949C28.2461 13.8534 28.1027 13.7578 27.9832 13.6384C27.6009 14.1163 27.2664 14.6658 26.8363 15.0721C25.3309 16.4341 23.8255 17.7961 22.2246 19.0147C20.9343 19.9944 19.4289 20.4723 17.7562 20.09C16.2509 19.7554 15.3429 18.7758 15.4862 17.2465C15.6057 15.9323 15.8685 14.5464 16.442 13.3755C17.2305 11.7029 18.3536 10.1497 19.3572 8.57265C19.8829 7.71244 20.5519 6.92391 21.0059 6.0398C21.3883 5.29906 21.0298 4.84505 20.1935 4.82116C18.6403 4.79726 17.2067 5.29905 16.0119 6.23095C14.6499 7.28233 13.4313 8.52486 12.1409 9.67181C11.7108 10.0541 11.2807 10.4365 10.8506 10.8188C10.7789 10.771 10.6834 10.6993 10.6117 10.6515C10.6834 10.4365 10.7311 10.1975 10.8745 10.0063C12.7622 7.54517 14.9605 5.44242 17.9474 4.41494C19.0943 4.00873 20.4086 3.86536 21.6033 4.00873C23.5866 4.24768 24.5663 6.08758 23.6583 7.8797C22.7025 9.7435 21.4838 11.44 20.4564 13.256C19.8112 14.3791 19.3333 15.5977 18.7837 16.7925C18.712 16.9359 18.6642 17.0792 18.6881 17.2226C18.8076 17.8439 18.7359 18.7041 19.1182 18.9908C19.5006 19.2776 20.4325 19.2059 20.9104 18.9191C24.9247 16.6252 28.3417 13.7578 29.8948 9.17002C30.3249 7.90359 30.8506 6.66106 31.4719 5.49021C31.7347 5.01232 32.3799 4.53442 32.8817 4.48663C33.6224 4.43884 34.411 4.91674 34.5782 5.70527C34.7455 6.54159 34.865 7.54517 34.6021 8.30981C33.8375 10.4365 32.9056 12.5153 31.9737 14.5703C31.209 16.2907 30.3727 17.9633 29.5842 19.6838C29.4886 19.851 29.4408 20.0661 29.3452 20.3289C30.6356 20.1856 31.8542 20.0661 33.0489 19.9466C40.2652 19.2059 47.4814 19.0386 54.6738 19.8271C58.3297 20.2333 61.9139 20.9502 65.3548 22.3122C67.816 23.2919 70.086 24.5583 71.8781 26.5894C71.8303 26.6611 71.8303 26.7805 71.8303 26.9ZM24.4468 22.4317C24.399 22.3361 24.3273 22.2644 24.2795 22.1688C22.2246 22.5989 20.1457 22.9813 18.1147 23.5069C14.0764 24.5344 10.2055 25.992 6.81239 28.4771C5.09196 29.7435 3.58658 31.2011 2.60689 33.1366C1.93783 34.4747 1.50773 35.8606 2.51131 37.1748C3.5149 38.489 4.97248 38.5129 6.43007 38.274C10.5878 37.5571 14.2437 35.765 17.0633 32.6587C18.9988 30.532 20.6953 28.1664 22.3918 25.8486C23.1804 24.7973 23.7538 23.5786 24.4468 22.4317Z" fill="#B9B9B9"/>
<path d="M62.3203 0.902312C62.4636 1.04568 62.607 1.18905 62.7504 1.33242C63.515 2.16874 63.515 2.69443 62.6548 3.43517C62.2008 3.81749 61.7468 4.1998 61.2211 4.48654C60.9583 4.62991 60.4565 4.70159 60.2414 4.55823C60.0264 4.41486 59.8113 3.86528 59.9069 3.62633C60.2892 2.8139 60.791 2.04927 61.245 1.28463C61.3406 1.14126 61.4601 1.02179 61.5556 0.878418C61.8424 0.902313 62.0813 0.902312 62.3203 0.902312Z" fill="#B9B9B9"/>
<path d="M47.9354 10.9862C49.847 10.795 51.5914 10.3171 53.2162 9.38525C53.4313 9.26577 53.5507 8.97904 53.718 8.76398C54.7216 7.64092 55.7252 6.49397 56.7765 5.39481C57.3022 4.86912 57.9713 4.70186 58.6164 5.25144C59.3333 5.82491 59.6439 6.78071 59.166 7.47366C58.6403 8.26219 57.9952 8.97904 57.35 9.67199C56.0597 11.034 55.1995 12.6111 55.1278 14.5226C55.08 16.267 55.9641 16.9121 57.6368 16.3864C57.9952 16.267 58.3297 16.1475 58.7598 16.0041C58.2102 17.1511 56.5376 17.629 55.0322 17.175C52.81 16.5059 52.0215 14.3554 52.6188 10.5083C51.0657 10.9145 49.5364 11.2968 48.0071 11.7269C47.8399 11.7747 47.6965 12.1332 47.6487 12.3721C46.8841 15.4545 44.853 17.1272 41.7706 17.5812C37.804 18.1786 34.7455 15.0483 35.534 11.1057C36.2031 7.66482 38.3297 5.46649 41.6989 4.4868C43.1804 4.05669 43.491 4.24785 44.184 5.60986C44.2556 5.75323 44.4229 5.8966 44.5663 5.92049C46.8841 6.42229 47.7443 8.02324 47.816 10.2216C47.8638 10.4366 47.9115 10.6756 47.9354 10.9862ZM41.0059 8.11882C39.1899 8.74009 37.6607 10.8189 37.5651 12.8022C37.4217 15.1439 38.6881 16.5298 41.0059 16.6732C43.491 16.8166 46.0955 14.9528 46.7407 12.5394C46.7885 12.3243 46.8124 12.1093 46.8363 11.8703C42.344 11.942 40.9581 10.8667 41.0059 8.11882ZM45.8088 11.2729C47.0513 11.1535 47.0752 11.1296 46.9557 9.95873C46.908 9.57641 46.8602 9.19409 46.7646 8.81177C46.4062 7.40197 45.5221 6.8046 44.0645 6.94797C43.0848 7.04355 42.4157 7.56924 42.2246 8.38166C42.0095 9.24188 42.344 10.1021 43.2759 10.5322C44.0884 10.8667 44.9725 11.034 45.8088 11.2729Z" fill="#B9B9B9"/>
</svg>
