<svg width="81" height="31" viewBox="0 0 81 31" fill="none" xmlns="http://www.w3.org/2000/svg">
<rect width="81" height="30" transform="translate(0 0.246826)" fill="white"/>
<path d="M75.9964 9.17173L79.1252 10.5936V9.61578L75.9915 7.30396L72.8484 9.63347L72.849 10.6119L75.9964 9.17173Z" fill="#353A42"/>
<path d="M20.64 11.1882C20.0953 11.1882 19.5339 11.2678 19.0153 11.4175C17.1512 11.9569 15.5327 13.3756 14.6865 15.2112C14.1058 16.4265 13.8291 17.8527 13.8844 19.3415H13.8801L13.8869 19.459C14.0635 22.4612 15.6621 25.0548 18.0572 26.2265C18.4134 26.4008 19.4991 26.9314 20.8707 26.9314C21.5329 26.9314 22.1901 26.8095 22.8237 26.5682C23.9193 26.1513 24.842 25.435 25.5775 24.4282L25.6037 24.3947V24.3909L25.6117 24.3808V22.5711L25.4202 22.796C24.4397 23.9443 23.1122 24.6025 21.7772 24.6025C19.8634 24.6025 18.3233 23.3089 17.6574 21.1411C17.3688 20.2025 17.2376 19.2739 17.2675 18.3814C17.2787 18.0422 17.3036 17.6992 17.3421 17.36H25.6124V17.2489C25.613 11.6253 21.8065 11.1882 20.64 11.1882ZM17.4646 15.9136C17.5311 15.5479 17.6287 15.2036 17.7562 14.8872C18.1678 13.8291 18.8524 13.0611 19.7925 12.605C20.1134 12.4484 20.4504 12.3663 20.7662 12.3663C22.0813 12.3663 22.8753 13.6896 22.9008 15.9136H17.4646Z" fill="#353A42"/>
<path d="M48.3568 11.1882C47.8127 11.1882 47.2513 11.2678 46.7327 11.4175C44.8686 11.9569 43.2495 13.3756 42.4039 15.2112C41.8232 16.4265 41.5465 17.8527 41.6018 19.3415H41.5974L41.6043 19.459C41.7809 22.4619 43.3795 25.0548 45.7745 26.2265C46.1308 26.4008 47.2158 26.9314 48.5881 26.9314C49.2503 26.9314 49.9075 26.8095 50.5411 26.5682C51.6366 26.1513 52.5594 25.435 53.2956 24.4263L53.3298 24.3821V22.5705L53.1382 22.7954C52.1577 23.9437 50.8302 24.6019 49.4953 24.6019C47.5814 24.6019 46.0413 23.3083 45.3754 21.1405C45.0869 20.2025 44.955 19.2739 44.9849 18.3808C44.9967 18.0397 45.0222 17.6967 45.0595 17.3594H53.3298V17.2482C53.3304 11.6253 49.5239 11.1882 48.3568 11.1882ZM45.182 15.9136C45.2479 15.5497 45.3455 15.2049 45.4736 14.8872C45.8846 13.8298 46.5692 13.0617 47.5093 12.605C47.8301 12.4484 48.1665 12.3663 48.4836 12.3663C49.7987 12.3663 50.5927 13.6896 50.6182 15.9136H45.182Z" fill="#353A42"/>
<path d="M80.9997 17.3607V17.2495C80.9997 11.6253 77.1932 11.1882 76.0268 11.1882C75.4827 11.1882 74.9213 11.2678 74.4027 11.4175C72.5386 11.9563 70.9201 13.3756 70.0733 15.2112C69.4931 16.4258 69.2164 17.8515 69.2712 19.3415H69.2668L69.2737 19.459C69.4515 22.4619 71.0494 25.0548 73.4445 26.2265C73.8008 26.4008 74.8858 26.9314 76.2581 26.9314C76.9196 26.9314 77.5775 26.8095 78.2111 26.5682C79.3066 26.1513 80.23 25.435 80.9643 24.4282L80.9904 24.3947V24.3909L80.9985 24.3808V22.5711L80.8064 22.796C79.8271 23.9443 78.499 24.6025 77.164 24.6025C75.2508 24.6025 73.7107 23.3089 73.0441 21.1411C72.7556 20.2025 72.6244 19.2739 72.6543 18.3814C72.6654 18.0454 72.6903 17.7024 72.7289 17.36H80.9997V17.3607ZM73.1436 14.8872C73.5552 13.8298 74.2398 13.0617 75.1799 12.605C75.5007 12.4484 75.8371 12.3663 76.1542 12.3663C77.4693 12.3663 78.2633 13.6896 78.2888 15.9136H72.8526C72.9179 15.5504 73.0155 15.2055 73.1436 14.8872Z" fill="#353A42"/>
<path d="M5.88636 11.1924C4.92074 11.1924 3.9744 11.4659 3.39055 11.9017V4.24683H0V26.2262L0.207673 26.206C0.374309 26.1896 0.507369 26.1763 0.667165 26.1763C0.759188 26.1763 0.860538 26.1807 0.981784 26.1908C2.03321 26.2894 2.59654 26.4536 3.09396 26.5976C3.71014 26.7764 4.24238 26.9311 5.45858 26.9311C9.57847 26.9311 11.7553 24.1797 11.7553 18.9749C11.7553 15.2135 10.2133 11.1924 5.88636 11.1924ZM4.92323 25.762C4.40156 25.762 3.89605 25.5384 3.4291 25.1032C3.40236 25.0728 3.39552 25.0653 3.39055 24.9655V13.3994C3.39677 13.2017 3.39677 13.2017 3.44402 13.153C3.92963 12.7084 4.51658 12.6155 4.92385 12.6155C6.82151 12.6155 8.36538 15.564 8.36538 19.1884C8.36476 22.8134 6.82089 25.762 4.92323 25.762Z" fill="#353A42"/>
<path d="M33.6121 11.1924C32.6464 11.1924 31.6995 11.4659 31.1162 11.9017V4.24683H27.7257V26.2262L27.9334 26.206C28.1 26.1896 28.2331 26.1763 28.3929 26.1763C28.4849 26.1763 28.5862 26.1807 28.7075 26.1908C29.7589 26.2894 30.3222 26.4536 30.8203 26.5976C31.4365 26.7764 31.9687 26.9311 33.1843 26.9311C37.3042 26.9311 39.481 24.1797 39.481 18.9749C39.481 15.2135 37.939 11.1924 33.6121 11.1924ZM32.6489 25.762C32.1273 25.762 31.6217 25.5384 31.1548 25.1032C31.1281 25.0728 31.1212 25.0653 31.1169 24.9655V13.3981C31.1231 13.2017 31.1231 13.2017 31.1697 13.1537C31.6553 12.709 32.2423 12.6161 32.6495 12.6161C34.5472 12.6161 36.0911 15.5647 36.0911 19.189C36.0905 22.8134 34.5466 25.762 32.6489 25.762Z" fill="#353A42"/>
<path d="M64.4008 11.5335C64.1042 11.4318 63.3022 11.1956 62.2756 11.1956C61.0588 11.1956 59.9377 11.5164 58.9441 12.1487C56.4912 13.7108 55.4242 16.5128 55.4553 18.5966C55.456 18.6427 55.4547 18.7159 55.4535 18.8031C55.451 18.9509 55.4472 19.1379 55.4516 19.3059H55.4466L55.4535 19.4234C55.6313 22.4313 57.2317 25.0286 59.6306 26.2028C59.9875 26.3778 61.0749 26.909 62.4491 26.909C63.1119 26.909 63.7703 26.7865 64.4058 26.5452C65.5039 26.127 66.4284 25.4101 67.1777 24.3812L67.1988 24.3521V22.0921L66.9961 22.4155C66.6436 22.9777 66.2139 23.4432 65.7314 23.7988C65.2272 24.1784 64.6657 24.4355 64.0694 24.5479L63.983 24.5681C63.7815 24.6029 63.5826 24.6199 63.3904 24.6199C63.2157 24.6199 63.0329 24.6029 62.8165 24.5675L62.7189 24.546C62.1202 24.4349 61.563 24.1727 61.0662 23.7988C59.7288 22.8122 58.8397 21.0088 58.8403 18.9825L58.8378 18.9143L58.8409 18.8934C58.8409 18.8909 58.8409 18.8884 58.8409 18.8858L58.8384 18.8164L58.8409 18.7993L58.8403 18.666C58.8403 18.6629 58.8409 18.6597 58.8409 18.6559L58.8403 18.5624C58.8403 18.4696 58.8459 18.3818 58.8546 18.2927C58.885 17.7167 58.9833 17.1804 59.1474 16.6953C59.819 14.4567 61.5245 12.9534 63.3917 12.9534C64.3436 12.9534 65.2639 13.3741 65.9814 14.139C66.4664 14.6557 66.9899 15.5583 66.9955 15.5678L67.1995 15.9241V13.5535L67.1746 13.5225C66.4807 12.6603 65.7439 11.9933 64.4008 11.5335Z" fill="#353A42"/>
</svg>
