<svg width="81" height="12" viewBox="0 0 81 12" fill="none" xmlns="http://www.w3.org/2000/svg">
<g clip-path="url(#clip0_218_1564)">
<path d="M49.8984 7.45924H52.4035L51.0956 3.81449L49.8984 7.45924ZM47.0093 11.7567L50.0835 2.80075C50.9974 0.738975 53.2986 1.50629 53.7018 2.80075L56.987 11.7567H53.963L52.8853 8.74593H49.4776L48.4605 11.7567H47.0093Z" fill="#ED1C22"/>
<path d="M19.6527 6.55457V10.3218H20.4052C21.2583 10.3218 21.8525 10.1744 22.2096 9.8921C22.5684 9.59813 22.7539 9.11466 22.7539 8.42456C22.7539 7.78978 22.5738 7.31413 22.2276 7.01235C21.8775 6.70822 21.3487 6.55457 20.6282 6.55457H19.6527ZM19.6527 1.67541V5.13304H20.3639C21.1413 5.13304 21.6965 5.00434 22.0123 4.74388C22.329 4.478 22.4896 4.03663 22.4896 3.39642C22.4896 2.80066 22.329 2.36631 22.017 2.08948C21.7004 1.81656 21.213 1.67463 20.5565 1.67463H19.6527V1.67541ZM16.5327 11.7566V0.246826H21.7332C22.9754 0.246826 23.9595 0.530674 24.6808 1.07965C25.392 1.64656 25.7507 2.41154 25.7507 3.37615C25.7507 4.08108 25.5526 4.64957 25.1479 5.0722C24.7432 5.512 24.1435 5.79661 23.3521 5.93308C24.2582 6.16312 24.9444 6.51952 25.4232 7.01703C25.9059 7.50751 26.1367 8.09704 26.1367 8.7856C26.1367 9.7494 25.8068 10.4957 25.1198 10.9916C24.443 11.497 23.4557 11.7566 22.1636 11.7566H16.5327Z" fill="#ED1C22"/>
<path d="M42.7128 11.7558V2.94176H41.3404L41.3357 1.5779H48.2666V2.94176H45.5605V11.7558H42.7128ZM35.7804 11.7558V2.94176H33.3459L33.3498 1.5779H41.3411V2.94176H38.6267V11.7558H35.7804ZM26.9687 10.5502V2.78425C26.9399 2.27894 27.4904 1.57322 28.356 1.5779H33.349V2.94176H30.1721C29.861 2.948 29.8446 3.06107 29.8337 3.27786V5.90188H33.154V7.27511H29.8337V10.0013C29.8205 10.2469 29.9148 10.3763 30.1721 10.3763H33.5393V11.7441H28.356C27.57 11.7558 26.9882 11.0587 26.9687 10.5502Z" fill="#ED1C22"/>
<path d="M72.2069 11.7566V2.8007C72.4284 1.61073 73.8696 1.24267 75.025 1.74563C75.5022 1.95072 75.7926 2.31176 76.1378 2.8007L78.7052 6.78703V1.58422H80.2295V10.477C80.2295 11.5788 79.8388 11.7098 79.3553 11.7231C78.7001 11.7348 78.2417 11.3098 77.7294 10.4583L73.7121 4.32676V11.7566H72.2069Z" fill="#ED1C22"/>
<path d="M57.6615 11.7566V2.8007C57.8804 1.61073 59.3242 1.24267 60.475 1.74563C60.9476 1.95072 61.243 2.31176 61.5831 2.8007L64.1484 6.78703V1.58422H65.6816V10.477C65.6816 11.5788 65.2838 11.7098 64.8162 11.7231C64.1492 11.7348 63.6871 11.3098 63.1815 10.4583L59.1658 4.32676V11.7566H57.6615Z" fill="#ED1C22"/>
<path d="M70.3466 1.58569H67.4876V11.755H70.3466V1.58569Z" fill="#ED1C22"/>
<path fill-rule="evenodd" clip-rule="evenodd" d="M7.7171 6.84065L11.174 8.62401C11.3884 8.71603 11.5054 8.92814 11.5054 9.17534C11.5054 9.54106 11.2184 9.83273 10.8823 9.83273H9.31101L6.95057 6.84065C6.6683 6.42346 6.6683 5.97509 6.6683 5.97509C6.6683 5.97509 6.6683 5.46742 6.98179 5.10171L9.3118 2.16187H10.8636C11.2356 2.16187 11.5054 2.44649 11.5054 2.81456C11.5054 3.06019 11.411 3.28243 11.2348 3.37523C10.0542 3.95384 8.8455 4.59484 7.7179 5.1524C7.23443 5.37386 7.21027 5.99845 7.21027 5.99845C7.20948 6.02264 7.23363 6.57552 7.7171 6.84065Z" fill="#ED1C22"/>
<path fill-rule="evenodd" clip-rule="evenodd" d="M3.79712 6.84065L0.35354 8.62401C0.129738 8.71603 -0.000488281 8.92814 -0.000488281 9.17534C-0.000488281 9.54106 0.299732 9.83273 0.634265 9.83273H2.20555L4.55821 6.84065C4.84515 6.42346 4.84515 5.97509 4.84515 5.97509C4.84515 5.97509 4.84515 5.46742 4.53635 5.10171L2.20555 2.16187H0.660778C0.27712 2.16187 -0.000488281 2.44649 -0.000488281 2.81456C-0.000488281 3.06019 0.100885 3.28243 0.277119 3.37523C1.46085 3.95384 2.66797 4.59484 3.79712 5.1524C4.28292 5.37386 4.30009 5.99845 4.30009 5.99845C4.30009 6.02264 4.28292 6.57552 3.79712 6.84065Z" fill="#ED1C22"/>
<path fill-rule="evenodd" clip-rule="evenodd" d="M8.16396 11.7566H6.39773L5.9751 7.99955C5.8324 5.86293 5.8324 6.00797 5.9751 4.07172L6.39773 0.246826H8.16396C8.59365 0.246826 8.94921 0.612552 8.94921 1.05236C8.94921 1.16932 8.91256 1.29175 8.86112 1.40872L6.77828 4.84839C6.52952 5.26793 6.39852 5.6313 6.39852 5.99313C6.39852 6.35262 6.52952 6.70898 6.77828 7.12074L8.86112 10.5869C8.91256 10.7094 8.94921 10.8201 8.94921 10.9706C8.94846 11.4096 8.59365 11.7566 8.16396 11.7566Z" fill="#ED1C22"/>
<path fill-rule="evenodd" clip-rule="evenodd" d="M3.35408 11.7566H5.11174L5.5492 7.99955C5.68413 5.86293 5.68413 6.00797 5.5492 4.07172L5.11174 0.246826H3.35408C2.91662 0.246826 2.56337 0.612552 2.56337 1.05236C2.56337 1.16932 2.5969 1.29175 2.65305 1.40872L4.739 4.84839C4.99632 5.26793 5.1203 5.6313 5.11174 5.99313C5.11174 6.35262 4.99632 6.70898 4.739 7.12074L2.65227 10.5869C2.59612 10.7094 2.56259 10.8201 2.56259 10.9706C2.56337 11.4096 2.91662 11.7566 3.35408 11.7566Z" fill="#ED1C22"/>
</g>
<defs>
<clipPath id="clip0_218_1564">
<rect width="80.23" height="11.5331" fill="white" transform="translate(-0.000488281 0.246826)"/>
</clipPath>
</defs>
</svg>
