<svg width="81" height="23" viewBox="0 0 81 23" fill="none" xmlns="http://www.w3.org/2000/svg">
<g clip-path="url(#clip0_218_1387)">
<path d="M46.0882 17.9119L45.2369 21.1238H45.2139L44.3463 17.9119H43.5878L43.587 21.958H44.0631L44.0635 18.6091H44.081L44.9754 21.958H45.4406L46.3476 18.6091H46.3647L46.3639 21.958H46.8805L46.8814 17.9119H46.0882Z" fill="#8A8A8A"/>
<path d="M53.4571 17.9119L52.6816 21.3639H52.6703L51.8963 17.9119H51.3282L52.3256 21.958H52.9915L54.0077 17.9119H53.4571Z" fill="#8A8A8A"/>
<path d="M54.8293 17.9119L54.828 21.958H56.5955V21.4953H55.3279V20.0724H56.4583L56.4587 19.6436H55.3279V18.3695H56.539V17.9119H54.8293Z" fill="#8A8A8A"/>
<path d="M57.6175 17.9119L57.6171 21.958H58.1333L58.1345 17.9119H57.6175Z" fill="#8A8A8A"/>
<path d="M61.2063 20.7864C61.2063 20.9694 61.1775 21.1342 61.1202 21.2807C61.0691 21.4181 60.9896 21.5435 60.888 21.6493C60.7897 21.7491 60.6713 21.827 60.5408 21.8778C60.404 21.9318 60.2576 21.959 60.1103 21.958C59.907 21.9588 59.7062 21.9148 59.5221 21.8293C59.3368 21.7439 59.1887 21.6308 59.0779 21.4901L59.3816 21.1186C59.4694 21.2327 59.5824 21.3247 59.7121 21.3873C59.8355 21.4501 59.9718 21.4833 60.1103 21.4845C60.2827 21.4845 60.4245 21.4273 60.5353 21.313C60.6466 21.1987 60.7018 21.0329 60.7018 20.8157C60.7039 20.7227 60.6864 20.6303 60.6504 20.5444C60.6157 20.4654 60.5676 20.3932 60.5073 20.3313C60.4441 20.2668 60.3739 20.2095 60.2981 20.1602C60.2157 20.1066 60.1304 20.0578 60.0425 20.0141C59.9338 19.9622 59.8292 19.9021 59.7296 19.8344C59.6334 19.7685 59.5456 19.6909 59.469 19.6031C59.3899 19.5113 59.3289 19.4057 59.2883 19.2917C59.2444 19.1713 59.2222 19.0294 59.2226 18.8658C59.2226 18.6716 59.2531 18.502 59.3142 18.357C59.369 18.2213 59.4523 18.0986 59.5581 17.9971C59.6577 17.903 59.7761 17.8309 59.9053 17.7855C60.0325 17.7405 60.1664 17.7173 60.3015 17.717C60.4964 17.717 60.6713 17.7494 60.8261 17.8141C60.9784 17.8767 61.1118 17.977 61.2135 18.1056L60.9035 18.4713C60.7583 18.2809 60.5634 18.1856 60.3186 18.1854C60.245 18.1856 60.1722 18.1982 60.1032 18.2228C60.0312 18.2485 59.9656 18.2895 59.9108 18.3429C59.8509 18.4021 59.8041 18.4731 59.7731 18.5512C59.7384 18.6352 59.7217 18.7362 59.7217 18.854C59.7192 18.9448 59.7359 19.0352 59.7698 19.1194C59.802 19.1932 59.8468 19.2608 59.902 19.3194C59.9597 19.3802 60.0241 19.4339 60.0944 19.4794C60.1701 19.5288 60.2488 19.5736 60.3299 19.6134C60.4379 19.6679 60.5433 19.728 60.6449 19.7935C60.7483 19.8605 60.8428 19.9402 60.9265 20.0308C61.0127 20.1258 61.0817 20.2352 61.1302 20.3539C61.1817 20.4775 61.2076 20.6215 61.2072 20.7852" fill="#8A8A8A"/>
<path d="M28.7594 7.94663C28.2757 7.94663 27.8239 8.0226 27.4042 8.17458C26.9946 8.32033 26.6215 8.55259 26.3105 8.85542C26.0009 9.15746 25.757 9.53212 25.5787 9.9794C25.4004 10.4267 25.3113 10.948 25.3113 11.5434C25.3113 12.1344 25.3938 12.6472 25.559 13.0818C25.7242 13.5164 25.9592 13.8761 26.2641 14.1609C26.5687 14.446 26.9354 14.6569 27.3642 14.7937C27.7931 14.9305 28.2707 14.9988 28.7972 14.9988C28.941 14.9988 29.0934 14.9914 29.2543 14.9766C29.4152 14.9617 29.5773 14.9405 29.7404 14.9128C29.9033 14.8842 30.0628 14.8524 30.2174 14.8163C30.3576 14.7837 30.496 14.744 30.632 14.6972V15.6222C30.3781 15.7205 30.0836 15.7964 29.7486 15.85C29.4072 15.904 29.0621 15.9307 28.7165 15.9301C27.9986 15.9301 27.3622 15.8306 26.8073 15.6316C26.2524 15.4326 25.787 15.1469 25.4111 14.7744C25.0348 14.4019 24.75 13.9469 24.5565 13.4093C24.363 12.8718 24.2663 12.2627 24.2664 11.5822C24.2664 10.9137 24.3685 10.2993 24.5728 9.7389C24.777 9.17854 25.0715 8.69683 25.4562 8.29377C25.8412 7.89066 26.3077 7.57704 26.8557 7.35277C27.4037 7.12854 28.0195 7.01605 28.7033 7.01538C28.8842 7.01538 29.0622 7.02291 29.2389 7.0378C29.4156 7.0527 29.5838 7.07437 29.745 7.10181C29.8961 7.12729 30.0457 7.16067 30.1933 7.20179C30.3144 7.2343 30.4331 7.275 30.5487 7.32357V8.24875C30.2683 8.1581 29.9822 8.08598 29.6923 8.03289C29.3847 7.97525 29.0724 7.94621 28.7594 7.94617" fill="#8A8A8A"/>
<path d="M35.4623 8.5116C35.0773 9.58161 34.7097 10.5537 34.3594 11.428L34.0368 12.2371H36.8968L36.5697 11.4285C36.2159 10.5387 35.8556 9.56638 35.4887 8.5116H35.4623ZM31.5023 15.7698L35.0173 7.17603H35.9261L39.4411 15.7698H38.2997L37.2689 13.1815H33.6617L32.6309 15.7698H31.5023Z" fill="#8A8A8A"/>
<path d="M41.8144 8.11979V11.2676H42.8528C43.1754 11.2676 43.4506 11.2568 43.6782 11.2353C43.8861 11.2177 44.0915 11.179 44.291 11.1197C44.6571 11.0084 44.9386 10.8307 45.1361 10.5867C45.3335 10.3427 45.4323 10.0235 45.4323 9.62909C45.4277 9.26142 45.3327 8.96494 45.1482 8.73971C44.9637 8.51448 44.7077 8.35288 44.381 8.25487C44.2262 8.20797 44.0409 8.17404 43.8259 8.15162C43.6113 8.12924 43.3372 8.11949 43.0072 8.11949L41.8144 8.11979ZM41.8144 12.2109V15.7698H40.763V7.17603H42.9992C43.3766 7.17603 43.6974 7.18991 43.9614 7.21773C44.2065 7.24225 44.4492 7.28609 44.6872 7.34884C45.2884 7.51195 45.7481 7.78926 46.0656 8.18082C46.3836 8.57242 46.5425 9.06175 46.5425 9.64884C46.5425 9.99568 46.4869 10.306 46.3752 10.5798C46.2681 10.8469 46.1079 11.0896 45.9041 11.2934C45.7021 11.4945 45.4599 11.6594 45.1783 11.788C44.8792 11.9218 44.5638 12.0166 44.2404 12.0701V12.0962L46.7944 15.7698H45.7431L43.0858 12.2109H41.8144Z" fill="#8A8A8A"/>
<path d="M49.6315 8.11979V11.2676H50.6698C50.9923 11.2676 51.2676 11.2568 51.4952 11.2353C51.7031 11.2177 51.9085 11.179 52.108 11.1197C52.4732 11.0082 52.7552 10.8305 52.9531 10.5867C53.1509 10.3429 53.2497 10.0237 53.2492 9.62909C53.245 9.26142 53.1505 8.96494 52.9656 8.73971C52.7807 8.51448 52.5251 8.35288 52.198 8.25487C52.0428 8.20797 51.8583 8.17404 51.6433 8.15162C51.4278 8.12924 51.1546 8.11949 50.8242 8.11949L49.6315 8.11979ZM49.6315 12.2109V15.7698H48.5802V7.17603H50.8162C51.194 7.17603 51.5148 7.18991 51.7788 7.21773C52.0235 7.24225 52.2657 7.28609 52.5033 7.34884C53.1049 7.51195 53.5642 7.78926 53.8822 8.18082C54.2001 8.57242 54.3591 9.06175 54.3595 9.64884C54.3595 9.99568 54.3034 10.306 54.1913 10.5798C54.0842 10.8469 53.924 11.0896 53.7203 11.2934C53.5182 11.4945 53.2764 11.6594 52.9949 11.788C52.6954 11.9218 52.3799 12.0166 52.0566 12.0701V12.0962L54.6105 15.7698H53.5592L50.902 12.2109H49.6315Z" fill="#8A8A8A"/>
<path d="M59.487 8.5116C59.1021 9.58161 58.7344 10.5537 58.3843 11.428L58.0617 12.2371H60.9219L60.5947 11.4285C60.2408 10.5387 59.8802 9.56638 59.5138 8.5116H59.487ZM55.5275 15.7698L59.0423 7.17603H59.9518L63.4666 15.7698H62.325L61.2942 13.1815H57.6865L56.6561 15.7698H55.5275Z" fill="#8A8A8A"/>
<path d="M65.8402 8.11979V11.2676H66.8785C67.2011 11.2676 67.4759 11.2568 67.7039 11.2353C67.9118 11.2177 68.1168 11.1789 68.3163 11.1197C68.682 11.0082 68.9635 10.8305 69.1618 10.5867C69.3597 10.3429 69.4584 10.0237 69.4576 9.62909C69.4538 9.26142 69.3592 8.96494 69.1743 8.73971C68.9894 8.51448 68.7338 8.35288 68.4067 8.25487C68.2519 8.20797 68.067 8.17404 67.852 8.15162C67.637 8.12924 67.3634 8.11949 67.0329 8.11949L65.8402 8.11979ZM65.8402 12.2109V15.7698H64.7885V7.17603H67.0245C67.4027 7.17603 67.7236 7.18991 67.9871 7.21773C68.2323 7.24221 68.4749 7.28605 68.7129 7.34884C69.3136 7.51195 69.773 7.78913 70.0909 8.1804C70.4088 8.57167 70.5678 9.06099 70.5678 9.64842C70.5678 9.99526 70.5118 10.3056 70.3996 10.5793C70.293 10.8464 70.1327 11.0892 69.929 11.2929C69.727 11.4941 69.4847 11.6589 69.2036 11.7875C68.9041 11.9213 68.5887 12.0161 68.2653 12.0696V12.0958L70.8192 15.7694H69.768L67.1103 12.2105L65.8402 12.2109Z" fill="#8A8A8A"/>
<path d="M79.2742 11.4794C79.2742 10.9012 79.198 10.3916 79.0462 9.95083C78.8939 9.50999 78.6843 9.1416 78.417 8.84571C78.156 8.55485 77.833 8.32556 77.4716 8.17458C77.1085 8.02239 76.7186 7.9463 76.3019 7.9463C75.8852 7.9463 75.4949 8.02239 75.131 8.17458C74.77 8.32556 74.447 8.55481 74.186 8.84571C73.9182 9.14131 73.7087 9.50969 73.5568 9.95083C73.405 10.3919 73.3288 10.9014 73.3284 11.4794C73.3284 12.0571 73.4058 12.5655 73.5602 13.0048C73.7145 13.444 73.9254 13.8111 74.1927 14.106C74.4529 14.3969 74.7763 14.6254 75.1381 14.7744C75.5008 14.9242 75.8932 14.999 76.3149 14.9988C76.732 14.9988 77.1202 14.924 77.4787 14.7744C77.838 14.6242 78.1585 14.3958 78.4174 14.106C78.6852 13.8104 78.8947 13.4433 79.047 13.0048C79.1989 12.5663 79.275 12.0579 79.275 11.4794M80.32 11.4794C80.32 12.1301 80.2263 12.7275 80.0385 13.2716C79.8511 13.8156 79.5821 14.2845 79.2319 14.6781C78.8822 15.0719 78.4513 15.3861 77.9686 15.5992C77.4758 15.82 76.9244 15.9304 76.3145 15.9301C75.6832 15.9301 75.118 15.8198 74.6194 15.5992C74.1207 15.3785 73.6982 15.0715 73.3522 14.6781C73.0071 14.2837 72.7423 13.8148 72.5587 13.2716C72.3754 12.7283 72.2838 12.1309 72.2838 11.4794C72.2838 10.8241 72.3788 10.2235 72.5683 9.6777C72.7582 9.1319 73.0268 8.6619 73.3744 8.26779C73.7237 7.87284 74.1546 7.55834 74.6382 7.34616C75.1327 7.12561 75.687 7.01538 76.3011 7.01538C76.9282 7.01538 77.49 7.12561 77.987 7.34616C78.4835 7.56666 78.9048 7.87388 79.2507 8.26779C79.5963 8.66173 79.8607 9.13169 80.0439 9.6777C80.2276 10.2237 80.3196 10.8243 80.32 11.4794Z" fill="#8A8A8A"/>
<path d="M13.8786 13.268C13.2325 14.2455 12.136 14.8887 10.892 14.8887C8.90506 14.8887 7.29439 13.2487 7.29439 11.2251C7.29439 9.20163 8.90506 7.56109 10.892 7.56109C12.1579 7.56109 13.2703 8.22762 13.9113 9.23405L20.8447 7.25257C19.2789 3.15277 15.3668 0.246826 10.7876 0.246826C4.82991 0.246826 0 5.16551 0 11.233C0 17.3004 4.82991 22.2191 10.7876 22.2191C15.3929 22.2191 19.323 19.2801 20.8708 15.1435L13.8786 13.268Z" fill="#53A4A8"/>
<path d="M49.5043 17.5917H49.119L49.6357 16.7688H50.1176L49.5043 17.5917ZM50.1753 19.929C50.1762 19.7125 50.1582 19.4963 50.1209 19.2831C50.0845 19.0813 50.031 18.9061 49.9607 18.7574C49.89 18.6086 49.8017 18.4915 49.6963 18.4061C49.5943 18.3213 49.465 18.2756 49.332 18.2772C49.1964 18.2752 49.0642 18.3208 48.9588 18.4061C48.8517 18.4917 48.763 18.6088 48.6923 18.7574C48.6216 18.9059 48.5689 19.0811 48.5342 19.2831C48.4656 19.7109 48.4656 20.147 48.5342 20.5749C48.5689 20.7765 48.6212 20.9518 48.6919 21.1006C48.7626 21.2494 48.8513 21.3666 48.9584 21.452C49.0638 21.537 49.196 21.5825 49.3315 21.5804C49.4646 21.582 49.5934 21.5365 49.6959 21.452C49.8009 21.3662 49.8888 21.249 49.9595 21.1006C50.0306 20.9521 50.0841 20.7769 50.1205 20.5749C50.1577 20.3616 50.1762 20.1455 50.1749 19.929M50.7204 19.929C50.7204 20.2451 50.6886 20.5337 50.6254 20.7946C50.5619 21.0555 50.4702 21.2795 50.3498 21.4666C50.2293 21.6534 50.0837 21.7981 49.9139 21.9009C49.7436 22.0036 49.5495 22.055 49.3315 22.055C49.1132 22.055 48.9182 22.0036 48.7463 21.9009C48.5739 21.7981 48.4275 21.6534 48.307 21.4666C48.187 21.2798 48.095 21.0559 48.0318 20.7949C47.9686 20.5339 47.9372 20.2454 47.9377 19.9293C47.9377 19.6131 47.9682 19.3245 48.0293 19.0634C48.0903 18.8022 48.1803 18.5793 48.2991 18.3946C48.4175 18.21 48.5639 18.0672 48.7383 17.9662C48.9128 17.8653 49.1107 17.8148 49.3324 17.8148C49.5503 17.8148 49.7444 17.8653 49.9147 17.9662C50.085 18.0672 50.2301 18.21 50.3506 18.3946C50.4707 18.5798 50.5627 18.8027 50.6259 19.0634C50.6895 19.324 50.7208 19.6126 50.7204 19.9293" fill="#8A8A8A"/>
</g>
<defs>
<clipPath id="clip0_218_1387">
<rect width="80.32" height="22.0043" fill="white" transform="translate(0 0.246826)"/>
</clipPath>
</defs>
</svg>
