<svg width="81" height="31" viewBox="0 0 81 31" fill="none" xmlns="http://www.w3.org/2000/svg">
<g clip-path="url(#clip0_218_1608)">
<rect width="81" height="30" transform="translate(0 0.246826)" fill="white"/>
<path d="M18.6737 29.2929C18.6737 27.4168 20.7919 24.0861 21.6954 22.6644L21.8355 22.4439C21.8551 22.4058 21.8633 22.3749 21.8633 22.3388C21.8633 22.2306 21.7613 22.1359 21.647 22.1359C21.5728 22.1359 21.5151 22.1688 21.4832 22.2275C20.1068 24.2808 18.7891 25.8756 17.3375 27.2437C16.093 28.41 15.1483 29.0281 14.6074 29.0281C14.4065 29.0281 14.3282 28.9611 14.3282 28.7911C14.3282 28.6974 14.3488 28.581 14.389 28.4522C14.626 27.5847 15.3111 26.4443 15.9158 25.4377C16.1579 25.0349 16.3866 24.6537 16.5752 24.3107C16.9739 23.5668 17.3829 22.7344 17.3829 22.1905C17.3829 21.7104 17.0522 21.4775 16.3722 21.4775C15.6912 21.4775 14.7857 21.7804 13.8883 22.3089C12.9828 22.8395 11.2705 24.1613 11.2705 25.3667C11.2705 25.6757 11.3807 25.9559 11.5961 26.1991C11.6321 26.2444 11.6898 26.2712 11.7496 26.2712C11.865 26.2712 11.9597 26.1774 11.9597 26.061C11.9597 26.0085 11.9412 25.9611 11.9093 25.9292C11.764 25.7571 11.6898 25.5655 11.6898 25.3584C11.6898 24.3066 13.469 23.0311 14.0913 22.6675C14.9484 22.1678 15.7767 21.8814 16.365 21.8814C16.8039 21.8814 16.9914 21.9824 16.9914 22.2183C16.9914 22.6396 16.5463 23.4999 16.2125 24.1098C16.0054 24.4868 15.7685 24.8927 15.5171 25.3224C14.729 26.6689 13.9151 28.0617 13.9151 28.7963C13.9151 29.194 14.1634 29.4319 14.5786 29.4319C15.9684 29.4319 18.3915 26.8316 19.5113 25.5366C18.6861 27.1417 18.2678 28.411 18.2678 29.3145C18.2678 29.6225 18.3193 29.8976 18.4213 30.1315C18.4491 30.2046 18.5151 30.2469 18.5985 30.2469C18.7046 30.2469 18.8149 30.1737 18.8138 30.0387L18.7953 29.9625C18.7139 29.7863 18.6737 29.5679 18.6737 29.2929Z" fill="#4E719B"/>
<path d="M26.4015 24.8764C26.4015 24.7909 26.3346 24.6961 26.2212 24.6868C25.6423 24.6683 24.8356 24.6497 24.0011 24.6404L25.3868 22.0597C25.4053 22.0226 25.4146 21.9938 25.4146 21.9649C25.4146 21.8506 25.3198 21.7661 25.2157 21.7661C25.1488 21.7661 25.0828 21.8042 25.0447 21.8702L23.556 24.6404L22.3703 24.6312C21.8098 24.6312 22.1642 24.6405 21.8222 24.6508C21.6996 24.6508 21.6326 24.7548 21.6326 24.8496C21.6326 24.9444 21.6996 25.0391 21.8314 25.0391C22.3816 25.0206 22.465 25.0206 23.3469 25.0206C22.1415 27.2789 22.2425 27.0316 21.1608 29.2229C21.1515 29.2507 21.1515 29.2693 21.1515 29.2981C21.1515 29.4032 21.237 29.4877 21.341 29.4877C21.4163 29.4877 21.4925 29.4393 21.5213 29.3641C22.7071 27.0677 22.5979 27.3057 23.8023 25.0288C24.6934 25.0381 25.5856 25.0567 26.2027 25.0752C26.3356 25.0752 26.4015 24.9897 26.4015 24.8764Z" fill="#4E719B"/>
<path d="M26.771 25.5974L26.5248 25.6921C26.4392 25.7303 26.4011 25.7962 26.4011 25.8724C26.4011 25.9765 26.4774 26.0723 26.5907 26.0723C26.6103 26.0723 26.6288 26.0723 26.6566 26.063L26.8936 25.9579C26.9884 25.9301 27.0265 25.8632 27.0265 25.7869C27.0265 25.6921 26.9502 25.5881 26.8369 25.5881C26.8184 25.5871 26.7998 25.5871 26.771 25.5974Z" fill="#4E719B"/>
<path d="M35.759 25.5974L35.5118 25.6921C35.4262 25.7303 35.3892 25.7962 35.3892 25.8724C35.3892 25.9765 35.4644 26.0723 35.5787 26.0723C35.5973 26.0723 35.6168 26.0723 35.6457 26.063L35.8816 25.9579C35.9764 25.9301 36.0155 25.8632 36.0155 25.7869C36.0155 25.6921 35.9393 25.5881 35.8249 25.5881C35.8064 25.5871 35.7879 25.5871 35.759 25.5974Z" fill="#4E719B"/>
<path d="M60.5948 29.2216C60.5382 29.2216 60.4908 29.2123 60.4527 29.1927C60.4331 29.1927 60.4331 29.1927 60.4331 29.1639C60.4331 29.0979 60.5845 28.9939 60.841 28.861C61.2387 28.6714 61.6951 28.5571 62.2834 28.3582C61.9794 28.7848 61.0399 29.2216 60.5948 29.2216ZM49.8897 28.3675C49.7754 28.3582 49.7383 28.3108 49.7383 28.2253C49.7383 27.8462 50.6397 26.8119 51.0951 26.8119C51.2651 26.8211 51.332 26.8871 51.3598 27.02C50.753 27.8071 50.2122 28.3675 49.8897 28.3675ZM44.7839 28.556C44.7077 28.556 44.6613 28.5087 44.6613 28.4046C44.6613 28.0059 45.297 27.1137 46.0655 27.0766C46.2365 27.0766 46.4354 27.1333 46.5312 27.2281C46.3684 27.3991 45.1733 28.556 44.7839 28.556ZM39.062 28.3675C38.9476 28.3582 38.9106 28.3108 38.9106 28.2253C38.9106 28.044 39.1187 27.7133 39.3834 27.4176C39.3865 27.4135 39.3906 27.4094 39.3937 27.4063C39.6812 27.088 40.0335 26.8129 40.2674 26.8129C40.4374 26.8222 40.5043 26.8881 40.5332 27.021C39.9253 27.8071 39.3845 28.3675 39.062 28.3675ZM57.0828 26.7542C57.1775 26.7542 57.2342 26.7923 57.2342 26.8593C57.2342 26.9448 57.1209 27.0962 56.8448 27.2487C56.683 27.3435 56.342 27.4671 56.1432 27.4671L56.0577 27.4578C56.409 27.0107 56.8551 26.7542 57.0828 26.7542ZM66.4002 27.1055C66.3528 27.1055 64.3603 27.4187 62.6429 27.8648C62.3678 27.4949 61.2006 27.3898 61.0584 27.295C61.0862 27.2672 61.1728 27.2095 61.2954 27.1529C61.761 26.9448 62.5378 26.7449 62.8984 26.7449L63.0117 26.7634C62.9365 26.8871 62.85 26.9818 62.68 27.0766C62.613 27.1147 62.576 27.1807 62.576 27.2569C62.576 27.361 62.6604 27.4372 62.7645 27.4372C62.7933 27.4372 62.8314 27.4372 62.8593 27.4187C63.1817 27.2476 63.3816 27.0107 63.4094 26.7253C63.4094 26.6398 63.362 26.5636 63.295 26.4976C63.1807 26.3833 63.0962 26.3833 62.8871 26.3647C62.6398 26.3647 62.2607 26.4317 61.8898 26.5347C61.3005 26.6996 60.8647 26.8665 60.7102 27.1292C59.4853 27.7453 57.4825 28.6415 56.2153 28.6415C55.7878 28.6323 55.6456 28.5468 55.6456 28.3284C55.6456 28.1666 55.7208 27.9678 55.8352 27.7782C55.9207 27.8256 56.0247 27.8452 56.1484 27.8452C56.4142 27.8452 56.7552 27.7401 57.0405 27.5794C57.4578 27.3424 57.6288 27.0571 57.6288 26.8294C57.6288 26.5739 57.4104 26.3833 57.0787 26.3833C56.8232 26.3833 56.5089 26.4976 56.1772 26.7727C56.0618 26.8696 55.9454 26.9849 55.8352 27.1137C55.8341 27.1147 55.8341 27.1137 55.8341 27.1147C54.7246 27.7792 52.7033 28.6426 52.1439 28.6426C52.0017 28.6426 51.9357 28.5385 51.9357 28.3675V28.3294C51.945 27.02 53.9756 23.8984 54.7349 22.6188C54.7545 22.59 54.7544 22.5704 54.7544 22.5426C54.7544 22.4375 54.6597 22.353 54.5546 22.353C54.4979 22.353 54.4413 22.3726 54.4031 22.4293C53.445 23.8232 52.6188 25.2943 51.6143 26.6697C51.5103 26.5182 51.3671 26.442 51.1023 26.4327C50.7644 26.4327 50.3111 26.7449 49.9484 27.1374C49.355 27.4825 47.3914 28.6333 46.8227 28.6333C46.6805 28.6333 46.6229 28.5571 46.6229 28.3964C46.6229 28.0265 46.9752 27.362 47.0689 27.2198C47.0968 27.1817 47.1071 27.1446 47.1071 27.1055C47.1071 26.9911 47.0123 26.9056 46.9082 26.9056C46.8701 26.9056 46.832 26.9252 46.7939 26.9437C46.6321 26.782 46.32 26.6779 46.0737 26.6779C45.707 26.6779 45.3433 26.8551 45.0353 27.1065C45.027 27.1106 45.0167 27.1086 45.0085 27.1147C43.8989 27.7792 41.8776 28.6426 41.3172 28.6426C41.175 28.6426 41.1091 28.5385 41.1091 28.3675V28.3294C41.1183 27.02 43.1489 23.8984 43.9082 22.6188C43.9278 22.59 43.9278 22.5704 43.9278 22.5426C43.9278 22.4375 43.833 22.353 43.7279 22.353C43.6713 22.353 43.6146 22.3726 43.5765 22.4293C42.6184 23.8232 41.7931 25.2943 40.7876 26.6697C40.6836 26.5182 40.5404 26.442 40.2756 26.4327C39.9377 26.4327 39.4834 26.7449 39.1197 27.1384C37.8041 27.6546 35.4655 28.6333 34.5053 28.6333C34.4116 28.6333 34.3539 28.6426 34.3539 28.5663V28.5478C34.36 28.3088 34.6001 27.8946 34.8422 27.5196C34.9071 27.4825 34.9349 27.429 34.937 27.3723C35.0173 27.2507 35.0946 27.1364 35.1595 27.0395C35.1873 27.0014 35.1976 26.9633 35.1976 26.9252C35.1976 26.8304 35.1028 26.7356 34.9895 26.7356C34.9421 26.7356 34.8855 26.7634 34.8473 26.8211C34.7608 26.9479 34.666 27.0849 34.5743 27.225C33.4503 27.7535 31.7165 28.6426 30.6821 28.6426C30.3215 28.6333 30.1886 28.5756 30.1794 28.3016C30.1794 28.0069 30.3401 27.5423 30.7481 26.783C31.4218 25.5406 32.5407 23.6995 33.2144 22.6652C33.2422 22.6271 33.2525 22.5993 33.2525 22.5611C33.2525 22.4664 33.1578 22.3716 33.0444 22.3716C32.9878 22.3716 32.9301 22.3901 32.892 22.4571C32.2285 23.4719 31.0715 25.3695 30.407 26.5935C30.3102 26.7727 30.2196 26.9551 30.1351 27.1374C28.8195 27.6536 26.4798 28.6323 25.5207 28.6323C25.4259 28.6323 25.3692 28.6415 25.3692 28.5653V28.5468C25.3785 28.1955 25.8905 27.465 26.1759 27.0385C26.2047 27.0004 26.214 26.9623 26.214 26.9242C26.214 26.8294 26.1192 26.7346 26.0049 26.7346C25.9565 26.7346 25.9008 26.7624 25.8627 26.8201C25.4929 27.3599 25.0004 28.0626 24.9808 28.5746C24.9808 28.8785 25.1416 29.0114 25.5021 29.0207C26.4664 29.0207 28.5186 28.1944 29.9362 27.633C29.8518 27.8792 29.792 28.1151 29.792 28.3191C29.792 28.7744 30.029 29.0207 30.6553 29.031C31.6279 29.031 33.0784 28.3696 34.2168 27.8256C34.0778 28.0924 33.9758 28.3521 33.9686 28.5756C33.9686 28.8795 34.1303 29.0124 34.4909 29.0217C35.4037 29.0217 37.2931 28.2799 38.6952 27.7246C38.5902 27.9204 38.5242 28.111 38.5242 28.2727C38.5242 28.5663 38.6942 28.7466 39.0651 28.7466C39.7193 28.7466 40.7444 27.3713 41.1523 26.8211C40.9813 27.2188 40.7248 27.874 40.7248 28.3572C40.7248 28.7363 40.867 29.0217 41.3223 29.031C41.8508 29.031 43.2581 28.4736 44.4007 27.8915C44.31 28.0749 44.2564 28.2562 44.2564 28.4139C44.2564 28.7085 44.4552 28.8981 44.7592 28.8981C45.2815 28.8981 45.9645 28.3098 46.2963 28.0059C46.2685 28.1285 46.2489 28.2521 46.2489 28.3757C46.2489 28.7363 46.3911 29.0114 46.8279 29.0207C47.3523 29.0207 48.5844 28.3624 49.4611 27.8658C49.3983 28.01 49.353 28.1501 49.353 28.2717C49.353 28.5653 49.524 28.7456 49.8938 28.7456C50.548 28.7456 51.5731 27.3702 51.9821 26.8201C51.8111 27.2178 51.5546 27.873 51.5546 28.3562C51.5546 28.7353 51.6967 29.0207 52.1521 29.0299C52.7084 29.0299 54.2383 28.4128 55.4076 27.7999C55.3273 27.9863 55.2747 28.1728 55.2747 28.3469C55.2747 28.7652 55.5312 29.0207 56.204 29.0299C57.5196 29.0299 59.4873 28.1759 60.7741 27.5361C61.0316 27.7689 61.7054 27.8184 62.1535 27.9863L62.0969 28.0059C60.9492 28.3376 60.0478 28.6889 60.0478 29.1721C60.0766 29.4286 60.2188 29.6089 60.5979 29.6089C61.386 29.6089 62.6759 28.8497 62.7604 28.2336C64.4396 27.806 66.3569 27.4939 66.4043 27.4939C66.5186 27.4939 66.6041 27.4084 66.6041 27.294C66.6 27.191 66.5145 27.1055 66.4002 27.1055Z" fill="#4E719B"/>
<path d="M29.182 13.6447V17.8913C29.182 18.2159 29.4467 18.4806 29.7712 18.4806H34.0179C34.3424 18.4806 34.6071 18.2159 34.6071 17.8913V13.6447C34.6071 13.6035 34.603 13.5634 34.5948 13.5242C34.5968 12.3363 34.6051 11.2041 34.6288 9.81847C34.7143 8.83357 35.7002 8.29579 36.5769 8.23398H37.9719C38.1985 8.23398 38.384 8.04853 38.384 7.82291V4.861C38.384 4.64981 38.2222 4.47467 38.0172 4.45304C34.228 3.43208 29.1634 5.1845 29.1789 9.94622C29.183 11.4998 29.1861 12.6403 29.1881 13.5747C29.184 13.5984 29.182 13.621 29.182 13.6447Z" fill="#4E719B"/>
<path d="M21.0063 8.4585C22.5248 8.4585 23.757 9.68962 23.757 11.2092C23.757 12.7278 22.5259 13.9589 21.0063 13.9589C19.4877 13.9589 18.2556 12.7278 18.2556 11.2092C18.2556 9.68962 19.4877 8.4585 21.0063 8.4585ZM21.0063 18.4806C25.0221 18.4806 28.2787 15.224 28.2787 11.2082C28.2787 7.19234 25.0221 3.93579 21.0063 3.93579C16.9904 3.93579 13.7339 7.19234 13.7339 11.2082C13.7339 15.224 16.9904 18.4806 21.0063 18.4806Z" fill="#4E719B"/>
<path d="M39.6214 18.4798H43.5857C43.8886 18.4798 44.1358 18.2325 44.1358 17.9297C44.1358 14.8771 44.1286 12.2129 44.1286 9.16035H44.1358C44.1502 8.58857 44.6169 8.12909 45.1928 8.12909C45.7677 8.12909 46.2354 8.58857 46.2488 9.16035H46.254C46.254 12.2109 46.2499 14.875 46.2499 17.9255C46.2499 18.2305 46.5002 18.4808 46.8052 18.4808H50.8086C51.1146 18.4808 51.3639 18.2305 51.3639 17.9255C51.3639 14.875 51.3588 12.2109 51.3588 9.16035H51.3629C51.3773 8.58857 51.845 8.12909 52.4199 8.12909C52.9948 8.12909 53.4625 8.58857 53.4759 9.16035H53.4841C53.4841 12.2129 53.4831 14.8791 53.4831 17.9317C53.4831 18.2336 53.7314 18.4819 54.0332 18.4819H57.9976C58.3004 18.4819 58.5477 18.2346 58.5477 17.9317C58.5477 14.8493 58.5333 11.7699 58.5333 8.68747H58.5189C58.3344 6.05421 56.138 3.97314 53.4584 3.97314C51.3773 3.97314 49.5888 5.22693 48.8059 7.01953C48.0229 5.22693 46.2344 3.97314 44.1533 3.97314C41.4727 3.97314 39.2773 6.05318 39.0918 8.68747H39.0784C39.0784 11.7689 39.0702 14.8493 39.0702 17.9307C39.0712 18.2325 39.3185 18.4798 39.6214 18.4798Z" fill="#4E719B"/>
<path d="M13.1062 9.65667V6.54229C13.1062 6.30431 12.9115 6.10959 12.6735 6.10959H9.56015C9.53027 6.10959 9.50142 6.11268 9.47361 6.11887L9.46021 6.1168C9.45918 6.10341 9.45919 6.09002 9.45919 6.07663H9.41386L9.41798 5.8304C9.50245 4.85683 10.4771 4.32524 11.3445 4.26342H12.724C12.9475 4.26342 13.1309 4.08107 13.1309 3.85648V0.92754C13.1309 0.718403 12.9712 0.545323 12.7683 0.523689C9.02134 -0.484905 4.01443 1.24794 4.02885 5.95609L4.02988 6.07663H4.01855C4.02679 8.71298 4.02782 11.3493 4.02679 13.4695C4.00927 13.5252 4 13.5839 4 13.6447V17.8913C4 18.2158 4.2658 18.4806 4.58929 18.4806H8.83589C9.15011 18.4806 9.40973 18.2313 9.42416 17.9212H9.43961L9.43652 10.0801H9.47155C9.5004 10.0852 9.53027 10.0894 9.56118 10.0894H12.6745C12.9115 10.0894 13.1062 9.89465 13.1062 9.65667Z" fill="#4E719B"/>
<path d="M73.869 11.4104C73.8711 11.3341 73.8731 11.2569 73.8731 11.1796C73.8731 7.16378 70.6166 3.90723 66.6008 3.90723C62.5849 3.90723 59.3284 7.16378 59.3284 11.1796C59.3284 15.1841 62.5653 18.4335 66.5657 18.452V18.453H66.6008H67.1818C67.5341 18.453 67.8216 18.2326 67.8216 17.9626V14.4269C67.8216 14.157 67.5331 13.9365 67.1818 13.9365L66.5657 13.9375V13.9406C66.4946 13.9355 66.4246 13.9293 66.3545 13.92C64.9514 13.7954 63.8511 12.6168 63.8511 11.1806C63.8511 9.66208 65.0832 8.43096 66.6018 8.43096C68.0379 8.43096 69.2175 9.53228 69.3412 10.9375C69.3463 10.9602 69.3484 10.9839 69.3484 11.0086V11.0385C69.3535 11.1477 69.3576 11.2579 69.3607 11.3681H69.3597C69.3618 13.5131 69.3597 15.659 69.3597 17.804C69.3597 18.1553 69.5802 18.4438 69.8501 18.4438H73.3817C73.6506 18.4438 73.8711 18.1563 73.8711 17.804C73.8711 16.4194 73.867 15.0347 73.8659 13.6501H73.8701V11.4104H73.869Z" fill="#4E719B"/>
<path d="M76.31 6.08375C76.2481 6.2455 76.1606 6.38561 76.0462 6.50615C75.9308 6.62565 75.7928 6.72043 75.6321 6.79152C75.4693 6.86261 75.289 6.89763 75.0902 6.89763C74.9047 6.89763 74.7316 6.8657 74.574 6.79976C74.4154 6.73486 74.2783 6.6411 74.1619 6.5216C74.0465 6.40106 73.9569 6.25786 73.891 6.09096C73.8261 5.92304 73.7931 5.73863 73.7931 5.53567C73.7931 5.35332 73.824 5.1823 73.8858 5.02158C73.9476 4.85984 74.0373 4.71973 74.1527 4.59816C74.2681 4.4766 74.4061 4.38181 74.5668 4.31279C74.7265 4.24376 74.9078 4.2077 75.1056 4.2077C75.2911 4.2077 75.4641 4.24067 75.6228 4.30455C75.7804 4.36842 75.9185 4.46011 76.0339 4.57962C76.1492 4.70016 76.2399 4.84336 76.3048 5.01025C76.3697 5.17921 76.4027 5.36568 76.4027 5.56967C76.4037 5.75202 76.3728 5.92407 76.31 6.08375ZM76.6685 4.87323C76.584 4.66719 76.4686 4.48999 76.3192 4.34164C76.1719 4.19122 75.9937 4.07584 75.7866 3.99239C75.5795 3.90791 75.3529 3.8667 75.1077 3.8667C74.8676 3.8667 74.6451 3.90997 74.4391 3.99651C74.232 4.08202 74.0527 4.20255 73.8982 4.35503C73.7447 4.50647 73.6252 4.68573 73.5356 4.88972C73.448 5.09576 73.4037 5.31623 73.4037 5.55421C73.4037 5.79941 73.4449 6.024 73.5294 6.23004C73.6139 6.43403 73.7292 6.61226 73.8786 6.75958C74.027 6.90896 74.2062 7.02538 74.4123 7.11192C74.6194 7.1964 74.846 7.23967 75.0912 7.23967C75.3282 7.23967 75.5497 7.19537 75.7588 7.1078C75.9659 7.0192 76.1482 6.89969 76.3007 6.74825C76.4542 6.59578 76.5747 6.41651 76.6633 6.20944C76.7509 6.00442 76.7952 5.7819 76.7952 5.54494C76.7942 5.30284 76.753 5.07722 76.6685 4.87323Z" fill="#4E719B"/>
<path d="M75.2846 5.34525C75.2393 5.39058 75.1558 5.41427 75.0353 5.41427H74.8436V4.92903H75.0415C75.1022 4.92903 75.1537 4.93522 75.1939 4.94552C75.2341 4.95685 75.2671 4.97333 75.2918 4.996C75.3155 5.01866 75.334 5.04339 75.3423 5.07121C75.3495 5.10108 75.3536 5.12993 75.3536 5.16289C75.3536 5.23913 75.3309 5.29992 75.2846 5.34525ZM75.7575 5.96132C75.7142 5.85212 75.6616 5.76867 75.6009 5.71407C75.5401 5.65844 75.4752 5.61929 75.4072 5.59662C75.5329 5.56469 75.6349 5.51111 75.7101 5.43385C75.7842 5.35658 75.8224 5.24841 75.8224 5.11036C75.8224 5.0197 75.8059 4.94346 75.7739 4.87855C75.742 4.81365 75.6946 4.75802 75.6328 4.71578C75.57 4.67251 75.4968 4.64057 75.4082 4.621C75.3196 4.60039 75.2187 4.59009 75.1012 4.59009H74.6036C74.5397 4.59009 74.4913 4.60863 74.4604 4.64469C74.4274 4.67972 74.412 4.7302 74.412 4.79407V6.35178C74.412 6.38269 74.4254 6.40535 74.4552 6.41668C74.4831 6.42699 74.5418 6.43317 74.6324 6.43317C74.7231 6.43317 74.7787 6.42699 74.8035 6.41668C74.8272 6.40535 74.8406 6.38269 74.8406 6.35178V5.74291H74.957C75.0518 5.74291 75.1249 5.76558 75.1723 5.80679C75.2197 5.848 75.2609 5.92321 75.2949 6.03035L75.3866 6.32911C75.3928 6.35281 75.4 6.37032 75.4113 6.38372C75.4216 6.39505 75.436 6.40535 75.4546 6.41256C75.4742 6.4208 75.4989 6.4239 75.5288 6.42802C75.5597 6.43111 75.5978 6.43214 75.6493 6.43214C75.7039 6.43214 75.7472 6.43008 75.7781 6.42802C75.811 6.42493 75.8358 6.42184 75.8522 6.41772C75.8708 6.4136 75.8801 6.40638 75.8852 6.39608C75.8893 6.38681 75.8924 6.37548 75.8924 6.36311C75.8924 6.34663 75.8821 6.30439 75.8615 6.23743L75.7575 5.96132Z" fill="#4E719B"/>
</g>
<defs>
<clipPath id="clip0_218_1608">
<rect width="81" height="30" fill="white" transform="translate(0 0.246826)"/>
</clipPath>
</defs>
</svg>
