<svg width="81" height="18" viewBox="0 0 81 18" fill="none" xmlns="http://www.w3.org/2000/svg">
<g clip-path="url(#clip0_218_1335)">
<path fill-rule="evenodd" clip-rule="evenodd" d="M0 12.9908V0.246826H1.70273V7.80895L4.70967 4.4913H6.81608L3.76774 8.01432L7.51993 12.9855H5.27897L2.54633 9.22552L1.70273 10.2155V12.9908H0Z" fill="#E21F37"/>
<path fill-rule="evenodd" clip-rule="evenodd" d="M13.3992 10.9318V8.76746C12.9334 8.79379 12.4831 8.8254 12.0225 8.86752C11.4636 8.90965 11.241 8.9781 10.8994 9.06762C10.5164 9.16769 10.2059 9.33094 9.97304 9.54686C9.75048 9.75223 9.63661 10.0418 9.63661 10.4052C9.63661 10.816 9.77117 11.132 10.0248 11.3373C10.2887 11.548 10.6924 11.6533 11.2669 11.6533C11.8414 11.6533 13.3992 11.7639 13.3992 10.9318ZM10.7597 13.0172C9.98336 13.0172 9.31574 12.7697 8.7723 12.2799C8.19264 11.7586 7.9494 11.2268 7.9494 10.5053C7.9494 9.88387 8.09432 9.36778 8.37897 8.98338C8.65843 8.5937 9.06732 8.28826 9.59002 8.06706C10.1024 7.85641 10.4906 7.70899 11.2203 7.62998C11.8828 7.55625 12.6177 7.50362 13.4043 7.46673V7.29297C13.4043 7.01387 13.3526 6.77689 13.2491 6.59785C13.1508 6.41878 13.0007 6.27659 12.8143 6.17656C12.6332 6.07649 12.4055 6.00804 12.1364 5.97119C11.8621 5.9343 11.5722 5.91852 11.2824 5.91852C10.9201 5.91852 10.3094 6.00804 10.0765 6.05543C9.21741 6.22919 8.36346 6.51357 8.35828 6.51885V4.91796L8.73089 4.83372C8.98968 4.77577 9.32092 4.71259 9.7453 4.64413C10.2732 4.55985 10.7959 4.51245 11.2928 4.51245C11.8828 4.51245 12.4055 4.55985 12.8506 4.64936C13.3008 4.74416 13.6993 4.90741 14.0254 5.13911C14.3566 5.37082 14.6102 5.67098 14.781 6.0291C14.9518 6.38721 15.0398 6.83479 15.0398 7.36143V10.2841V11.2162C15.0398 11.5743 14.9363 13.033 12.2347 13.033H10.7648L10.7597 13.0172Z" fill="#E21F37"/>
<path fill-rule="evenodd" clip-rule="evenodd" d="M39.3596 7.76675C39.3181 7.22433 39.2146 6.78202 38.8627 6.37124C38.5522 6.00789 38.2727 5.82358 37.6206 5.81831H37.5999C37.0927 5.81831 36.658 6.00789 36.2284 6.41336C35.8403 6.77674 35.6022 7.23488 35.5246 7.76675H39.3596ZM38.3555 13.0013C36.953 13.0013 35.8351 12.6326 35.0432 11.9059C34.2514 11.1792 33.8425 10.1365 33.8425 8.8042C33.8425 7.44025 34.2255 6.37124 34.9656 5.60766C35.7574 4.79669 36.5389 4.48071 37.7552 4.48071C38.8523 4.48071 39.4424 4.79141 40.1152 5.47602C40.7362 6.10792 40.9433 6.97684 40.9433 8.17754L40.9484 9.01485H35.509C35.5194 9.4361 35.5918 9.80476 35.7264 10.1154C35.8713 10.4578 36.0731 10.7421 36.3267 10.958C36.57 11.1687 36.865 11.3372 37.2014 11.4425C37.543 11.5478 37.9208 11.6057 38.3348 11.6057C38.8834 11.6057 39.2198 11.5004 39.7788 11.2951C39.9392 11.2371 40.0893 11.1739 40.229 11.1107L40.5241 10.9738V12.5484L40.317 12.6274C40.11 12.6906 39.9082 12.7538 39.7115 12.8012C39.2095 12.9275 38.8989 12.996 38.3555 12.996V13.0013Z" fill="#E21F37"/>
<path fill-rule="evenodd" clip-rule="evenodd" d="M63.9997 7.76675C63.9584 7.22433 63.8547 6.78202 63.5029 6.37124C63.1924 6.00789 62.9078 5.82358 62.261 5.81831H62.2401C61.7328 5.81831 61.2982 6.00789 60.8687 6.41336C60.4805 6.77674 60.2423 7.23488 60.1646 7.76675H63.9997ZM62.9956 13.0013C61.5933 13.0013 60.4755 12.6326 59.6836 11.9059C58.8918 11.1792 58.4827 10.1365 58.4827 8.8042C58.4827 7.44025 58.8604 6.37124 59.6109 5.60766C60.4028 4.79669 61.1842 4.48071 62.4006 4.48071C63.4979 4.48071 64.0879 4.79141 64.7607 5.47602C65.3816 6.10792 65.5885 6.97684 65.5885 8.17754L65.5939 9.01485H60.1545C60.1646 9.4361 60.2373 9.80476 60.3718 10.1154C60.5168 10.4578 60.7187 10.7421 60.9723 10.958C61.2155 11.1687 61.5105 11.3372 61.8469 11.4425C62.1833 11.5478 62.566 11.6057 62.9856 11.6057C63.5338 11.6057 63.8702 11.5004 64.4293 11.2951C64.5898 11.2371 64.7398 11.1739 64.8798 11.1107L65.1798 10.9738V12.5484L64.9729 12.6274C64.7657 12.6906 64.5638 12.7538 64.362 12.8012C63.8602 12.9275 63.5497 12.996 63.0061 12.996L62.9956 13.0013Z" fill="#E21F37"/>
<path fill-rule="evenodd" clip-rule="evenodd" d="M47.9558 8.95162C47.6194 8.60406 47.1017 8.34074 46.4653 8.19332C46.2271 8.13537 45.9735 8.08274 45.7148 8.03535C45.3834 7.97212 45.1302 7.91949 44.9075 7.86682C44.4934 7.76675 44.1933 7.64039 44.007 7.48237C43.8361 7.34018 43.7483 7.12958 43.7483 6.83993C43.7483 6.5187 43.8929 6.27644 44.1829 6.11319C44.4934 5.93416 44.8816 5.84464 45.337 5.84464C45.7771 5.84464 46.2375 5.92888 46.7035 6.09741C47.0917 6.23432 47.4381 6.40813 47.7331 6.60294C47.759 6.624 47.7849 6.64506 47.8004 6.65562L47.9508 6.78725V5.01784L47.9144 5.00206C47.8162 4.95994 47.6971 4.91254 47.6971 4.91254L47.5471 4.85987C47.3399 4.7809 47.1121 4.71768 46.8639 4.6545C46.3771 4.53864 45.9062 4.48071 45.4302 4.48071C44.9284 4.48071 44.4625 4.54915 44.0534 4.68083C43.6397 4.81247 43.2979 4.99678 43.0288 5.22849C42.7492 5.46547 42.5369 5.7393 42.3974 6.03946C42.2628 6.3449 42.1905 6.66613 42.1905 7.00845C42.1905 7.55611 42.3405 8.01952 42.646 8.39869C42.946 8.77259 43.4533 9.05697 44.152 9.24655C44.4056 9.31501 44.6848 9.37819 44.9748 9.43086C45.3007 9.49404 45.5234 9.53617 45.6993 9.57829C46.2116 9.69414 46.548 9.82582 46.698 9.96273C46.8485 10.0996 46.9207 10.2997 46.9207 10.5788C46.9207 10.9422 46.7812 11.2003 46.4912 11.3688C46.1857 11.5426 45.7457 11.6374 45.1975 11.6374C44.752 11.6374 44.2761 11.5426 43.7792 11.3635C43.2874 11.1844 42.8374 10.9317 42.4387 10.6262L42.1905 10.4261V12.2904L42.2578 12.3219C42.5837 12.4904 42.9874 12.6432 43.4792 12.7853C43.9706 12.9275 44.5088 12.996 45.0884 12.996C46.1239 12.996 46.9517 12.7538 47.5572 12.2798C48.1681 11.7953 48.4836 11.1634 48.4836 10.4051C48.4836 9.79948 48.3076 9.30446 47.9558 8.93584V8.95162Z" fill="#E21F37"/>
<path fill-rule="evenodd" clip-rule="evenodd" d="M21.5091 10.9475C21.1002 11.4162 20.3032 11.6585 19.5631 11.6585C19.2216 11.6585 18.9265 11.5795 18.6367 11.5005H18.6264C18.3728 11.432 18.2641 11.4057 17.938 11.2635V6.71885C17.938 5.90787 18.9886 5.9026 19.5838 5.9026C20.3808 5.9026 21.271 6.20804 21.654 6.73991C21.9801 7.19281 22.1457 7.88793 22.1457 8.80948C22.1457 9.75737 21.9335 10.4788 21.5194 10.9528L21.5091 10.9475ZM16.2974 5.81308V17.2563H17.938V12.7169C18.2434 12.817 18.3055 12.8381 18.6109 12.9065C18.968 12.9908 19.3251 13.0276 19.8115 13.0276C20.3188 13.0276 21.0278 12.9276 21.4832 12.7328C21.8921 12.559 22.3165 12.343 22.6788 11.9533C23.0411 11.5742 23.3257 11.1108 23.5224 10.5631C23.719 10.0207 23.8174 9.41508 23.8174 8.76208C23.8174 7.47191 23.5275 6.43974 22.9531 5.69723C22.1302 4.62821 20.3808 4.50708 19.2992 4.50708C19.2992 4.50708 17.788 4.50708 16.9909 4.63872C16.2042 4.76512 16.2922 5.81308 16.2922 5.81308H16.2974Z" fill="#E21F37"/>
<path fill-rule="evenodd" clip-rule="evenodd" d="M30.292 10.9475C29.8832 11.4162 29.081 11.6585 28.346 11.6585C28.0045 11.6585 27.7043 11.5795 27.4196 11.5005H27.4093C27.1557 11.432 27.047 11.4057 26.721 11.2635V6.71885C26.721 5.90787 27.7767 5.9026 28.3668 5.9026C29.1586 5.9026 30.0539 6.20804 30.4318 6.73991C30.7578 7.19281 30.9234 7.88793 30.9234 8.80948C30.9234 9.75737 30.7112 10.4788 30.2972 10.9528L30.292 10.9475ZM25.0752 5.81308V17.2563H26.7158V12.7169C27.0211 12.817 27.0833 12.8381 27.3886 12.9065C27.7457 12.9908 28.1028 13.0276 28.5893 13.0276C29.0965 13.0276 29.8055 12.9276 30.2661 12.7328C30.6698 12.559 31.0994 12.343 31.4617 11.9533C31.824 11.5742 32.1086 11.1108 32.3053 10.5631C32.502 10.0207 32.6003 9.41508 32.6003 8.76208C32.6003 7.47191 32.3104 6.43974 31.736 5.69723C30.9131 4.62821 29.1638 4.50708 28.0821 4.50708C28.0821 4.50708 26.5709 4.50708 25.7687 4.63872C24.982 4.76512 25.0752 5.81308 25.0752 5.81308Z" fill="#E21F37"/>
<path fill-rule="evenodd" clip-rule="evenodd" d="M55.5589 8.70405C55.5589 9.62561 55.393 10.3207 55.067 10.7736C54.6893 11.3055 53.7938 11.6109 52.9969 11.6109C52.4069 11.6109 51.351 11.6057 51.351 10.7947V6.25003C51.6773 6.10784 51.786 6.0815 52.0396 6.01305H52.0496C52.3396 5.93408 52.6397 5.85507 52.976 5.85507C53.7165 5.85507 54.5184 6.09206 54.922 6.56602C55.3416 7.04522 55.5484 7.76668 55.5484 8.70933L55.5589 8.70405ZM50.4145 12.8695C51.2114 13.0012 52.7228 13.0012 52.7228 13.0012C53.8043 13.0012 55.5534 12.8748 56.3766 11.811C56.9458 11.0685 57.2358 10.0363 57.2358 8.74617C57.2358 8.09317 57.1371 7.49285 56.9407 6.94515C56.7439 6.40277 56.4594 5.93408 56.0971 5.55491C55.7348 5.16523 55.3102 4.95458 54.9016 4.77555C54.4411 4.58069 53.737 4.48063 53.2297 4.48063C52.7433 4.48063 52.3864 4.51751 52.0292 4.60175C51.7237 4.67548 51.6619 4.69127 51.3564 4.79133V0.251953H49.7209V11.6952C49.7209 11.6952 49.6327 12.7431 50.4145 12.8695Z" fill="#E21F37"/>
<path fill-rule="evenodd" clip-rule="evenodd" d="M74.3766 8.80421C74.3766 7.88265 74.542 7.18753 74.8684 6.73463C75.2512 6.20276 76.1412 5.89732 76.9385 5.89732C77.5285 5.89732 78.584 5.9026 78.584 6.71357V11.2582C78.2581 11.4004 78.1495 11.4268 77.8958 11.4952L77.8854 11.5005C77.5958 11.5795 77.3008 11.6585 76.959 11.6585C76.2189 11.6585 75.4221 11.4215 75.013 10.9475C74.5939 10.4736 74.387 9.75214 74.387 8.80421H74.3766ZM80.2196 13.1962V5.81308C80.2196 5.81308 80.3077 4.76512 79.5263 4.63872C78.724 4.50708 77.2126 4.50708 77.2126 4.50708C77.1144 4.50708 77.0108 4.50708 76.9021 4.51236C75.9239 4.51763 74.6198 4.64399 73.7916 5.44973C73.7088 5.5287 73.6315 5.60771 73.5638 5.69723C72.9947 6.43974 72.7051 7.47191 72.7051 8.76736C72.7051 9.42036 72.8033 10.0207 72.9997 10.5684C73.0101 10.5894 73.0206 10.6105 73.0256 10.6316C73.067 10.7421 73.1138 10.8527 73.1602 10.9581C73.3415 11.3372 73.5693 11.6742 73.8384 11.9586C74.2006 12.3483 74.6302 12.5642 75.0339 12.738C75.4893 12.9381 75.9812 13.0329 76.488 13.0329C76.5553 13.0329 76.6176 13.0329 76.6849 13.0276C76.6899 13.0276 76.7003 13.0276 76.7053 13.0276C77.1921 13.0276 77.549 12.9908 77.9063 12.9065C78.2117 12.8328 78.2736 12.8117 78.584 12.7116V13.8544C78.584 14.1704 78.6049 14.718 78.0667 15.1762C77.8804 15.3342 77.4817 15.5238 77.1972 15.6291C76.8558 15.7502 76.4726 15.8081 76.0535 15.8081C75.5671 15.8081 75.0752 15.7449 74.5939 15.6238C74.1284 15.508 73.7761 15.4079 73.5433 15.3236C73.507 15.3079 73.4502 15.2815 73.4038 15.2605L73.1706 15.1499V16.835L73.3206 16.8824C73.3983 16.9035 73.4965 16.9298 73.4965 16.9298C73.8847 17.0299 74.2784 17.1088 74.6611 17.1615C75.0802 17.2247 75.5203 17.2563 75.9707 17.2563C77.3213 17.2563 78.5636 16.9298 79.2363 16.2768C79.9195 15.6133 80.23 15.0919 80.23 13.6754V13.2277V13.1962H80.2196Z" fill="#E21F37"/>
<path fill-rule="evenodd" clip-rule="evenodd" d="M71.9442 4.5388C71.8664 4.52829 71.8046 4.52301 71.7528 4.51774C71.6441 4.50723 71.4578 4.50195 71.2041 4.50195C70.7436 4.50195 70.2259 4.57041 69.7759 4.75472C69.3927 4.91269 69.0099 5.07594 68.5131 5.43406V4.50195H67.5449C66.898 4.60725 66.8462 5.33926 66.8462 5.59203V13.0067H68.5131V7.19819C68.7458 6.86642 69.2272 6.48724 69.6204 6.33455C70.5677 5.96593 71.6028 6.09229 71.9392 6.14496C72.0114 6.15551 72.2806 6.21342 72.2806 6.21342V4.58092L71.9442 4.5388Z" fill="#E21F37"/>
</g>
<defs>
<clipPath id="clip0_218_1335">
<rect width="80.23" height="17.0185" fill="white" transform="translate(0 0.246826)"/>
</clipPath>
</defs>
</svg>
