<svg width="81" height="10" viewBox="0 0 81 10" fill="none" xmlns="http://www.w3.org/2000/svg">
<g clip-path="url(#clip0_218_982)">
<path d="M0.569581 4.51989C0.0598932 4.77779 -0.27501 5.26548 0.30557 5.85706C0.30557 5.85706 3.2268 8.78196 3.60448 9.17553C3.98339 9.5691 4.40629 9.82578 5.08832 9.82578C5.77035 9.82578 9.99208 9.81111 10.9907 9.81111C11.9893 9.81111 12.4794 9.68644 13.3521 9.26598C14.2431 8.83574 19.7678 6.16752 20.6735 5.72994C21.5694 5.29726 21.8115 4.49912 20.9192 3.66553C20.0257 2.83316 18.8157 1.72822 18.0896 1.06209C17.3636 0.395947 16.7574 0.244385 16.0619 0.244385H9.82707C9.20616 0.244385 8.88837 0.259052 8.28334 0.562176C7.67832 0.865299 1.20638 4.19599 0.572025 4.51745L0.569581 4.51989Z" fill="#FD6404"/>
<path d="M11.2461 3.72789L15.87 1.36279H9.18293L1.68429 5.20073L1.37872 5.35718L4.70942 8.70987H12.5857L10.3967 6.52445H15.716L16.6999 4.91961L17.4321 3.72789H11.2461Z" fill="white"/>
<path d="M39.9536 1.9812H34.3006L29.1243 4.62864L30.7511 1.9812H27.6197C26.164 1.9812 25.3487 2.61189 24.839 3.44426C24.322 4.29007 21.9227 8.18668 21.9227 8.18668H26.9377L28.5425 5.5759L31.1545 8.19279H36.7611L33.7384 5.16155L39.9524 1.98242L39.9536 1.9812Z" fill="#251C1C"/>
<path d="M66.263 1.86157H60.6113L55.4349 4.56035L57.0618 1.86157H53.9303C52.4746 1.86157 51.6593 2.50449 51.1509 3.35274C50.6338 4.21445 48.2345 8.18683 48.2345 8.18683H53.2495L54.8544 5.52594L57.4664 8.19294H63.0729L60.0502 5.10426L66.2643 1.86402L66.263 1.86157Z" fill="#251C1C"/>
<path d="M47.9889 6.34227L49.4385 3.97962H44.2108L48.1184 1.9812H42.4654L35.8688 5.3559L38.6849 8.19035H45.3426L43.4921 6.34227H47.9889Z" fill="#251C1C"/>
<path d="M78.6948 1.7002C76.2625 1.7002 70.2978 1.69775 70.2978 1.69775C68.0182 1.69775 66.5063 2.14877 65.0603 4.48698C63.6144 6.82397 64.6179 8.35425 66.1494 8.35425H75.4533C77.9028 8.35425 79.2032 7.37277 80.3693 5.49658C81.6099 3.50061 81.0073 1.70142 78.696 1.70142L78.6948 1.7002ZM75.6501 5.20568C75.2052 5.92193 74.7102 6.29594 73.7751 6.29594H70.0863C69.5033 6.29594 69.1439 5.72025 69.6952 4.82799C70.2464 3.93696 70.7989 3.75728 71.6692 3.75728C71.6692 3.75728 74.0856 3.75728 75.0121 3.75728C75.9386 3.75728 76.1243 4.4442 75.6513 5.20568H75.6501Z" fill="#251C1C"/>
</g>
<defs>
<clipPath id="clip0_218_982">
<rect width="81" height="9.58017" fill="white" transform="translate(0 0.246826)"/>
</clipPath>
</defs>
</svg>
