<svg width="81" height="31" viewBox="0 0 81 31" fill="none" xmlns="http://www.w3.org/2000/svg">
<g clip-path="url(#clip0_218_1882)">
<rect width="81" height="30" transform="translate(0 0.246826)" fill="white"/>
<path d="M31.1003 24.2806C27.2983 23.7928 25.4032 19.8932 26.6715 15.9256C27.7329 12.6054 30.3996 9.9978 34.3258 9.9978C37.102 9.9978 39.0946 11.5677 39.0946 14.1221C39.0946 17.5989 35.7006 18.8614 30.1749 18.7224C30.2518 22.625 36.4131 20.8038 37.7701 19.4379C37.9209 19.2871 38.1338 19.3314 38.1308 19.5443C38.1308 19.8222 37.9948 25.1646 31.1003 24.2806ZM33.8203 12.9425C31.9399 12.9425 30.846 14.5153 30.5652 15.7748C33.7345 15.8014 35.3074 15.3816 35.3074 14.0925C35.3074 13.4214 34.7457 12.9425 33.8203 12.9425Z" fill="#00A538"/>
<path d="M58.7851 24.2806C54.9831 23.7928 53.088 19.8932 54.3534 15.9256C55.4147 12.6054 58.0815 9.9978 62.0107 9.9978C64.7868 9.9978 66.7795 11.5677 66.7795 14.1221C66.7795 17.5989 63.3854 18.8614 57.8598 18.7224C57.9366 22.625 64.0979 20.8038 65.455 19.4379C65.6028 19.2871 65.8186 19.3314 65.8157 19.5443C65.8127 19.8222 65.6797 25.1646 58.7851 24.2806ZM61.5051 12.9425C59.6248 12.9425 58.5309 14.5153 58.25 15.7748C61.4223 15.8014 62.9922 15.3816 62.9922 14.0925C62.9922 13.4214 62.4305 12.9425 61.5051 12.9425Z" fill="#00A538"/>
<path d="M66.8297 19.636C66.8829 19.3552 67.0041 19.1807 67.2258 19.3936C69.7802 21.8918 72.8136 21.2739 73.0265 20.1239C73.1477 19.4616 72.5032 18.9738 71.2437 18.3559C69.6738 17.5694 68.3552 16.4194 68.3552 14.7076C68.3552 12.0733 70.3804 9.90919 73.4463 9.97127C77.0443 10.0422 77.4375 13.3298 77.4375 13.3298C77.4257 13.6491 77.1301 13.6166 76.9911 13.5634C76.3288 13.3091 75.2675 12.8657 74.2179 12.8657C73.124 12.8657 72.4233 13.389 72.4233 14.1458C72.4233 16.7032 77.1626 15.6596 77.1626 19.4764C77.1626 22.9828 74.3273 24.5822 71.8084 24.3457C66.806 23.8786 66.7587 20.0145 66.8297 19.636Z" fill="#00A538"/>
<path d="M44.5441 0.699747C45.6646 0.285838 46.9684 0.303577 46.9684 0.303577C46.9684 0.303577 47.2848 0.294708 47.1931 0.661313C47.1517 0.86531 44.9344 11.9078 44.9314 11.9521C46.1022 10.6986 47.5508 9.98016 49.239 9.98016C52.1097 9.98016 53.4047 12.3453 53.4047 14.7933C53.4047 19.2428 50.4778 24.3664 44.2839 24.3664C41.017 24.3664 39.4264 22.9591 39.385 20.5082C39.3584 18.9176 42.5366 3.46702 42.5366 3.46702C42.5366 3.46702 42.7761 1.34722 44.5441 0.699747ZM45.1945 21.067C47.5597 21.067 49.1562 18.0336 49.1562 15.6389C49.1562 14.2878 48.5945 13.2737 47.3557 13.2737C45.8923 13.2737 44.5293 15.157 43.9765 17.1289C42.989 20.659 44.1627 21.067 45.1945 21.067Z" fill="#00A538"/>
<path d="M39.1543 25.6672C38.9001 26.43 38.3709 27.3909 35.5592 28.8691C29.9242 31.3821 23.4436 28.1773 19.2926 26.7375C17.844 27.6274 16.2859 28.3547 14.8106 27.7042C12.7559 26.7996 13.3678 24.2718 14.4617 22.9798C15.6769 21.5429 17.7109 21.3389 19.1419 21.3389C20.4664 19.8577 22.3615 7.60605 22.4502 3.76262C22.5004 2.6835 23.0119 1.27621 25.3446 0.548915C28.4252 -0.264118 28.2301 0.770652 28.2301 1.23482C28.2301 1.44769 27.2131 12.5996 22.3408 22.2791C25.8679 22.8674 29.2294 29.8447 39.0065 25.0552C39.0035 25.0552 39.3613 25.0464 39.1543 25.6672Z" fill="#00A538"/>
<path d="M31.1036 3.62964H30.7015L30.0806 6.89951H31.7954L31.8634 6.55065H30.5448L31.1036 3.62964Z" fill="#00A538"/>
<path d="M34.2076 5.47442C34.2076 4.98069 33.9208 4.49878 33.2851 4.49878C32.5224 4.49878 31.9843 5.21129 31.9843 5.98589C31.9843 6.5151 32.3124 6.94971 32.9008 6.94971H32.9037C33.6931 6.95266 34.2076 6.20172 34.2076 5.47442ZM32.951 6.63041H32.9451C32.6111 6.63041 32.3982 6.35545 32.3982 5.97111C32.3982 5.43303 32.7323 4.81512 33.2378 4.81512C33.6606 4.81512 33.7848 5.19947 33.7848 5.47146C33.7848 6.02137 33.427 6.63041 32.951 6.63041Z" fill="#00A538"/>
<path d="M35.0503 4.12022H35.0562C35.2158 4.12022 35.337 4.00196 35.343 3.83344C35.343 3.68266 35.2424 3.57031 35.0917 3.57031C34.9409 3.57031 34.8197 3.69744 34.8137 3.85709C34.8137 4.00787 34.9113 4.12022 35.0503 4.12022Z" fill="#00A538"/>
<path d="M34.3082 6.97635C34.2166 7.46121 34.0569 7.58834 33.8529 7.58834C33.7761 7.58834 33.714 7.58243 33.6696 7.56765L33.6194 7.88103C33.6962 7.90469 33.7849 7.9106 33.8855 7.9106C34.0895 7.9106 34.2875 7.83669 34.4235 7.68295C34.5625 7.52625 34.6512 7.28087 34.7222 6.89061L35.1656 4.54907H34.7695L34.3082 6.97635Z" fill="#00A538"/>
<path d="M37.472 4.58452C37.3123 4.53426 37.064 4.49878 36.8422 4.49878C35.8252 4.49878 35.2221 5.35616 35.2221 6.17511C35.2221 6.62154 35.4793 6.95266 35.8962 6.95266C36.2273 6.95266 36.5496 6.78119 36.8068 6.29337H36.8186C36.789 6.5358 36.7654 6.76049 36.7654 6.89945H37.1379C37.129 6.63632 37.1586 6.21946 37.2355 5.81146L37.472 4.58452ZM36.8836 5.56016C36.7713 6.18693 36.3751 6.62449 36.0351 6.62449C35.7306 6.62449 35.636 6.36728 35.636 6.10415C35.636 5.44781 36.1356 4.81808 36.7417 4.81808C36.8777 4.81808 36.9605 4.83286 37.0167 4.85356L36.8836 5.56016Z" fill="#00A538"/>
<path d="M38.5862 4.81217C38.7607 4.81217 38.9055 4.8713 38.9883 4.9186L39.1007 4.61408C39.012 4.55495 38.8227 4.49878 38.6158 4.49878C38.1161 4.49878 37.7614 4.81217 37.7614 5.22608C37.7614 5.46851 37.9121 5.67251 38.1841 5.82329C38.4325 5.95928 38.5153 6.07459 38.5153 6.25789C38.5153 6.46484 38.3408 6.63928 38.0688 6.63928C37.8737 6.63928 37.6697 6.56241 37.5633 6.49441L37.448 6.79006C37.5544 6.87284 37.7791 6.94675 38.0304 6.94971C38.53 6.94971 38.9262 6.67475 38.9262 6.17806C38.9262 5.91198 38.7518 5.70798 38.4887 5.5572C38.2758 5.43894 38.1634 5.33547 38.1634 5.16399C38.1664 4.96886 38.3408 4.81217 38.5862 4.81217Z" fill="#00A538"/>
<path d="M10.5379 0.619888C10.5379 0.723365 10.0383 6.21652 7.63761 10.9824C9.37603 11.2721 11.0287 14.7075 15.8448 12.3512C15.8448 12.3512 16.0222 12.3453 15.9187 12.6528C15.9099 12.6764 15.901 12.7031 15.8921 12.7267C16.9032 11.417 17.5064 9.77317 17.5064 7.99041C17.5064 3.94594 14.408 0.625801 10.4581 0.268066C10.5527 0.377456 10.5379 0.52528 10.5379 0.619888Z" fill="#00A538"/>
<path d="M14.1478 14.2285C11.3717 15.4673 8.18164 13.8885 6.13871 13.179C5.63906 13.4864 5.11281 13.7525 4.59246 13.7762C5.96427 15.0002 7.77364 15.7452 9.75449 15.7452C11.7294 15.7452 13.5299 15.0061 14.8988 13.7909C14.6948 13.9269 14.4464 14.0718 14.1478 14.2285Z" fill="#00A538"/>
<path d="M3.75911 11.3281C4.35928 10.6215 5.35857 10.5181 6.06221 10.5181C6.71264 9.78782 7.64689 3.75658 7.69124 1.86443C7.71785 1.33226 7.96915 0.640447 9.11626 0.282712C9.1547 0.273842 9.19018 0.264973 9.22565 0.256104C5.19005 0.525144 2 3.88667 2 7.99027C2 9.57791 2.47895 11.0561 3.2979 12.286C3.36885 11.9313 3.54624 11.5824 3.75911 11.3281Z" fill="#00A538"/>
<path d="M79.0905 9.27641C79.1555 9.20841 79.188 9.13154 79.188 9.03989C79.188 8.97485 79.1673 8.91572 79.1319 8.85955C79.0934 8.80337 79.0432 8.76198 78.9781 8.74129C78.9131 8.71764 78.8066 8.70581 78.6618 8.70581H78.236V9.94162H78.4371V9.41537H78.5524C78.6233 9.41537 78.6766 9.43015 78.712 9.45676C78.7653 9.49519 78.8332 9.5898 78.919 9.74354L79.0284 9.93867H79.2738L79.123 9.69623C79.052 9.58093 78.9899 9.49815 78.9397 9.45084C78.9131 9.42424 78.8776 9.40354 78.8333 9.3858C78.9397 9.38285 79.0254 9.34441 79.0905 9.27641ZM78.9752 9.05763C78.9752 9.11381 78.9545 9.16111 78.9131 9.19363C78.8717 9.22911 78.7919 9.24685 78.6766 9.24685H78.4341V8.87433H78.6618C78.7593 8.87433 78.8273 8.88024 78.8628 8.89503C78.8983 8.90981 78.9279 8.9305 78.9486 8.96007C78.9663 8.98963 78.9752 9.02215 78.9752 9.05763Z" fill="#00A538"/>
<path d="M79.8858 9.30608C79.8858 9.10504 79.8355 8.91287 79.732 8.72956C79.6286 8.54626 79.4867 8.40435 79.3034 8.30383C79.1201 8.20627 78.9308 8.15601 78.7387 8.15601C78.5465 8.15601 78.3573 8.20627 78.174 8.30383C77.9907 8.40435 77.8458 8.54331 77.7453 8.72956C77.6418 8.91287 77.5915 9.10504 77.5915 9.30608C77.5915 9.50416 77.6418 9.69338 77.7423 9.87668C77.8428 10.06 77.9848 10.2019 78.1681 10.3024C78.3484 10.4029 78.5406 10.4532 78.7387 10.4532C78.9367 10.4532 79.1289 10.4029 79.3093 10.3024C79.4926 10.2019 79.6345 10.06 79.735 9.87668C79.8355 9.69634 79.8858 9.50416 79.8858 9.30608ZM79.6966 9.30608C79.6966 9.47164 79.6552 9.63129 79.5694 9.78207C79.4837 9.93285 79.3654 10.0511 79.2147 10.1369C79.0639 10.2226 78.9042 10.264 78.7387 10.264C78.5731 10.264 78.4134 10.2226 78.2627 10.1369C78.1119 10.0511 77.9907 9.93285 77.9079 9.78207C77.8222 9.63129 77.7808 9.47164 77.7808 9.30608C77.7808 9.14052 77.8251 8.98087 77.9108 8.82713C77.9966 8.67339 78.1178 8.55513 78.2686 8.47235C78.4223 8.38957 78.579 8.34818 78.7416 8.34818C78.9013 8.34818 79.058 8.38957 79.2117 8.47235C79.3654 8.55513 79.4837 8.67339 79.5694 8.82713C79.6522 8.98087 79.6966 9.14052 79.6966 9.30608Z" fill="#00A538"/>
<path d="M42.2115 29.7918L41.904 27.3054H42.2174L42.3977 28.899C42.4244 29.1532 42.4421 29.2981 42.4421 29.4607H42.4539C42.516 29.307 42.5929 29.1207 42.7259 28.8605L43.5183 27.3084H43.8523L42.5456 29.7948H42.2115V29.7918Z" fill="#00A538"/>
<path d="M44.7241 28.4285C44.7241 28.2836 44.6147 28.2038 44.4521 28.2038C44.1594 28.2038 43.9435 28.4876 43.8696 28.7685C44.3486 28.7744 44.7241 28.7094 44.7241 28.4315V28.4285ZM44.7891 29.688C44.6561 29.7619 44.4373 29.8299 44.1978 29.8299C43.7248 29.8299 43.5178 29.5076 43.5178 29.1144C43.5178 28.5763 43.9169 27.9673 44.4905 27.9673C44.8305 27.9673 45.0138 28.1713 45.0138 28.4285C45.0138 28.8956 44.4846 29.0198 43.8253 29.008C43.8105 29.0848 43.8223 29.2504 43.8608 29.345C43.9317 29.5076 44.0736 29.5845 44.2599 29.5845C44.4698 29.5845 44.6294 29.5224 44.7388 29.4633L44.7891 29.688Z" fill="#00A538"/>
<path d="M45.1175 29.481C45.1974 29.5313 45.3541 29.5934 45.5019 29.5934C45.7088 29.5934 45.8419 29.4603 45.8419 29.3007C45.8419 29.1617 45.7798 29.076 45.5906 28.9725C45.3836 28.8572 45.2683 28.7005 45.2683 28.5172C45.2683 28.2038 45.5374 27.9644 45.9187 27.9644C46.0784 27.9644 46.2203 28.0087 46.2883 28.0531L46.2026 28.2866C46.1405 28.2511 46.0281 28.2068 45.8951 28.2068C45.7059 28.2068 45.5728 28.3221 45.5728 28.4758C45.5728 28.6059 45.6586 28.6857 45.8212 28.7744C46.0193 28.8897 46.1523 29.0435 46.1523 29.2445C46.1523 29.62 45.8507 29.8329 45.4694 29.8329C45.2772 29.8299 45.1087 29.7737 45.0259 29.7116L45.1175 29.481Z" fill="#00A538"/>
<path d="M47.1931 27.5771L47.1133 28.0058H47.542L47.4947 28.2453H47.066L46.9034 29.1116C46.8827 29.2121 46.8679 29.3037 46.8679 29.3954C46.8679 29.5018 46.9181 29.5698 47.0364 29.5698C47.0926 29.5698 47.1399 29.5669 47.1813 29.555L47.1665 29.7945C47.1103 29.8152 47.0187 29.827 46.93 29.827C46.6609 29.827 46.5545 29.6644 46.5545 29.4811C46.5545 29.3776 46.5693 29.2771 46.5959 29.15L46.7703 28.2453H46.5161L46.5604 28.0058H46.8147L46.8768 27.6777L47.1931 27.5771Z" fill="#00A538"/>
<path d="M48.6887 28.4285C48.6887 28.2836 48.5793 28.2038 48.4167 28.2038C48.124 28.2038 47.9081 28.4876 47.8342 28.7685C48.3132 28.7744 48.6887 28.7094 48.6887 28.4315V28.4285ZM48.7567 29.688C48.6236 29.7619 48.4048 29.8299 48.1654 29.8299C47.6923 29.8299 47.4854 29.5076 47.4854 29.1144C47.4854 28.5763 47.8845 27.9673 48.458 27.9673C48.798 27.9673 48.9813 28.1713 48.9813 28.4285C48.9813 28.8956 48.4521 29.0198 47.7928 29.008C47.7781 29.0848 47.7899 29.2504 47.8283 29.345C47.8993 29.5076 48.0412 29.5845 48.2274 29.5845C48.4374 29.5845 48.597 29.5224 48.7064 29.4633L48.7567 29.688Z" fill="#00A538"/>
<path d="M50.0609 28.0056L50.2146 29.0226C50.2412 29.2266 50.2678 29.3656 50.2708 29.4632H50.2826C50.324 29.3686 50.3713 29.2503 50.4748 29.0463L51.0158 28.0056H51.3529L50.3595 29.7913H50.0609L49.7505 28.0056H50.0609Z" fill="#00A538"/>
<path d="M52.0028 29.5875C52.3635 29.5875 52.6384 29.1233 52.6384 28.7064C52.6384 28.4995 52.5438 28.2097 52.2216 28.2097C51.8372 28.2097 51.583 28.6798 51.583 29.0878C51.583 29.3805 51.7456 29.5904 51.9998 29.5904H52.0028V29.5875ZM51.9614 29.8299C51.515 29.8299 51.2637 29.4988 51.2637 29.0967C51.2637 28.5054 51.6746 27.9644 52.2541 27.9644C52.7389 27.9644 52.9548 28.331 52.9548 28.7064C52.9548 29.2593 52.5645 29.8329 51.9673 29.8329H51.9614V29.8299Z" fill="#00A538"/>
<path d="M54.3211 29.7175C54.2295 29.7648 54.0432 29.8299 53.8038 29.8299C53.3425 29.8299 53.1179 29.5194 53.1179 29.141C53.1179 28.532 53.5672 27.9673 54.2118 27.9673C54.3773 27.9673 54.5281 28.0146 54.5843 28.0501L54.4956 28.2895C54.4246 28.257 54.3271 28.2245 54.194 28.2245C53.7298 28.2245 53.4372 28.6828 53.4372 29.1026C53.4372 29.3953 53.5879 29.5815 53.8806 29.5815C54.0639 29.5815 54.2029 29.5254 54.2945 29.481L54.3211 29.7175Z" fill="#00A538"/>
<path d="M55.7522 27.2581L56.0065 27.7873H55.7788L55.6192 27.4502H55.6133L55.356 27.7873H55.1077L55.5364 27.2581H55.7522ZM55.767 28.4288C55.767 28.284 55.6576 28.2041 55.495 28.2041C55.2023 28.2041 54.9865 28.488 54.9126 28.7688C55.3915 28.7747 55.7699 28.7097 55.7699 28.4318V28.4288H55.767ZM55.835 29.6883C55.7019 29.7622 55.4832 29.8302 55.2437 29.8302C54.7707 29.8302 54.5637 29.5079 54.5637 29.1147C54.5637 28.5766 54.9628 27.9676 55.5364 27.9676C55.8764 27.9676 56.0597 28.1716 56.0597 28.4288C56.0597 28.896 55.5305 29.0201 54.8712 29.0083C54.8564 29.0852 54.8682 29.2507 54.9067 29.3453C54.9776 29.5079 55.1225 29.5848 55.3058 29.5848C55.5157 29.5848 55.6753 29.5227 55.7847 29.4636L55.835 29.6883Z" fill="#00A538"/>
<path d="M55.8373 30.2469C55.9526 30.0251 56.1212 29.6319 56.198 29.3599L56.5646 29.3245C56.4316 29.6379 56.204 30.0488 56.0739 30.2203L55.8373 30.2469Z" fill="#00A538"/>
<path d="M57.8008 28.0056L57.9545 29.0226C57.9811 29.2266 58.0077 29.3656 58.0107 29.4632H58.0225C58.0639 29.3686 58.1112 29.2503 58.2147 29.0463L58.7557 28.0056H59.0928L58.0994 29.7913H57.8008L57.4903 28.0056H57.8008Z" fill="#00A538"/>
<path d="M60.1987 28.4285C60.1987 28.2836 60.0893 28.2038 59.9267 28.2038C59.634 28.2038 59.4182 28.4876 59.3443 28.7685C59.8232 28.7744 60.2017 28.7094 60.2017 28.4315V28.4285H60.1987ZM60.2638 29.688C60.1307 29.7619 59.9119 29.8299 59.6725 29.8299C59.1994 29.8299 58.9925 29.5076 58.9925 29.1144C58.9925 28.5763 59.3916 27.9673 59.9681 27.9673C60.3081 27.9673 60.4914 28.1713 60.4914 28.4285C60.4914 28.8956 59.9651 29.0198 59.3029 29.008C59.2881 29.0848 59.2999 29.2504 59.3384 29.345C59.4093 29.5076 59.5512 29.5845 59.7375 29.5845C59.9474 29.5845 60.1071 29.5224 60.2164 29.4633L60.2638 29.688Z" fill="#00A538"/>
<path d="M60.5913 29.481C60.6712 29.5313 60.8279 29.5934 60.9757 29.5934C61.1826 29.5934 61.3157 29.4603 61.3157 29.3007C61.3157 29.1617 61.2536 29.076 61.0644 28.9725C60.8574 28.8572 60.7421 28.7005 60.7421 28.5172C60.7421 28.2038 61.0112 27.9644 61.3925 27.9644C61.5522 27.9644 61.6941 28.0087 61.7621 28.0531L61.6764 28.2866C61.6143 28.2511 61.5019 28.2068 61.3689 28.2068C61.1797 28.2068 61.0466 28.3221 61.0466 28.4758C61.0466 28.6059 61.1324 28.6857 61.295 28.7744C61.4931 28.8897 61.6261 29.0435 61.6261 29.2445C61.6261 29.62 61.3246 29.8329 60.9432 29.8329C60.751 29.8299 60.5825 29.7737 60.4997 29.7116L60.5913 29.481Z" fill="#00A538"/>
<path d="M62.6669 27.5771L62.5871 28.0058H63.0158L62.9685 28.2453H62.5398L62.3772 29.1116C62.3565 29.2121 62.3417 29.3037 62.3417 29.3954C62.3417 29.5018 62.3919 29.5698 62.5102 29.5698C62.5664 29.5698 62.6137 29.5669 62.6551 29.555L62.6403 29.7945C62.5841 29.8152 62.4925 29.827 62.4038 29.827C62.1347 29.827 62.0283 29.6644 62.0283 29.4811C62.0283 29.3776 62.0431 29.2771 62.0697 29.15L62.2441 28.2453H61.9899L62.0342 28.0058H62.2885L62.3506 27.6777L62.6669 27.5771Z" fill="#00A538"/>
<path d="M64.1633 28.4285C64.1633 28.2836 64.0539 28.2038 63.8913 28.2038C63.5986 28.2038 63.3828 28.4876 63.3089 28.7685C63.7878 28.7744 64.1663 28.7094 64.1663 28.4315V28.4285H64.1633ZM64.2313 29.688C64.0983 29.7619 63.8795 29.8299 63.64 29.8299C63.167 29.8299 62.96 29.5076 62.96 29.1144C62.96 28.5763 63.3591 27.9673 63.9357 27.9673C64.2757 27.9673 64.459 28.1713 64.459 28.4285C64.459 28.8956 63.9327 29.0198 63.2705 29.008C63.2557 29.0848 63.2675 29.2504 63.3059 29.345C63.3769 29.5076 63.5188 29.5845 63.7051 29.5845C63.915 29.5845 64.0746 29.5224 64.184 29.4633L64.2313 29.688Z" fill="#00A538"/>
<path d="M65.1565 29.481C65.2363 29.5313 65.393 29.5934 65.5408 29.5934C65.7478 29.5934 65.8808 29.4603 65.8808 29.3007C65.8808 29.1617 65.8188 29.076 65.6295 28.9725C65.4226 28.8572 65.3073 28.7005 65.3073 28.5172C65.3073 28.2038 65.5763 27.9644 65.9577 27.9644C66.1174 27.9644 66.2593 28.0087 66.3273 28.0531L66.2415 28.2866C66.1794 28.2511 66.0671 28.2068 65.9341 28.2068C65.7448 28.2068 65.6118 28.3221 65.6118 28.4758C65.6118 28.6059 65.6975 28.6857 65.8601 28.7744C66.0582 28.8897 66.1913 29.0435 66.1913 29.2445C66.1913 29.62 65.8897 29.8329 65.5083 29.8329C65.3162 29.8299 65.1476 29.7737 65.0648 29.7116L65.1565 29.481Z" fill="#00A538"/>
<path d="M68.1867 28.0056L67.9443 29.271C67.9088 29.4691 67.8822 29.6435 67.8674 29.7914H67.5895L67.6368 29.4543H67.628C67.4654 29.6879 67.2318 29.8298 66.9982 29.8298C66.7706 29.8298 66.5252 29.7174 66.5252 29.3124C66.5252 29.2267 66.537 29.1291 66.5577 29.0108L66.7528 28.0027H67.0544L66.8652 28.999C66.8475 29.0995 66.8356 29.1823 66.8356 29.2621C66.8356 29.4454 66.9095 29.5726 67.1194 29.5726C67.3441 29.5726 67.628 29.3095 67.7019 28.9192L67.8763 28.0027H68.1867V28.0056Z" fill="#00A538"/>
<path d="M69.674 28.2334C69.6297 28.2186 69.5617 28.2068 69.4611 28.2068C68.9999 28.2068 68.6185 28.6857 68.6185 29.1854C68.6185 29.3835 68.6895 29.5786 68.926 29.5786C69.1803 29.5786 69.4818 29.2475 69.5705 28.7715L69.674 28.2334ZM69.473 29.7915C69.473 29.685 69.4907 29.5136 69.5144 29.3303H69.5085C69.3133 29.7028 69.065 29.8329 68.8137 29.8329C68.4973 29.8329 68.2992 29.5816 68.2992 29.2416C68.2992 28.6177 68.7575 27.9644 69.5351 27.9644C69.7036 27.9644 69.8898 27.9939 70.014 28.0324L69.8307 28.9666C69.7716 29.277 69.7509 29.5934 69.7568 29.7944H69.473V29.7915Z" fill="#00A538"/>
<path d="M71.968 29.7175C71.8763 29.7648 71.6901 29.8299 71.4506 29.8299C70.9894 29.8299 70.7647 29.5194 70.7647 29.141C70.7647 28.532 71.2141 27.9673 71.8556 27.9673C72.0212 27.9673 72.172 28.0146 72.2282 28.0501L72.1395 28.2895C72.0685 28.257 71.9709 28.2245 71.8379 28.2245C71.3737 28.2245 71.081 28.6828 71.081 29.1026C71.081 29.3953 71.2318 29.5815 71.5245 29.5815C71.7078 29.5815 71.8468 29.5254 71.9384 29.481L71.968 29.7175Z" fill="#00A538"/>
<path d="M73.5555 28.2334C73.5111 28.2186 73.4431 28.2068 73.3426 28.2068C72.8814 28.2068 72.5 28.6857 72.5 29.1854C72.5 29.3835 72.571 29.5786 72.8075 29.5786C73.0617 29.5786 73.3633 29.2475 73.452 28.7715L73.5555 28.2334ZM73.3544 29.7915C73.3544 29.685 73.3722 29.5136 73.3958 29.3303H73.3899C73.1948 29.7028 72.9464 29.8329 72.6951 29.8329C72.3788 29.8329 72.1807 29.5816 72.1807 29.2416C72.1807 28.6177 72.639 27.9644 73.4165 27.9644C73.585 27.9644 73.7713 27.9939 73.8955 28.0324L73.7122 28.9666C73.653 29.277 73.6323 29.5934 73.6383 29.7944H73.3544V29.7915Z" fill="#00A538"/>
<path d="M74.0404 29.481C74.1203 29.5313 74.277 29.5934 74.4248 29.5934C74.6317 29.5934 74.7648 29.4603 74.7648 29.3007C74.7648 29.1617 74.7027 29.076 74.5135 28.9725C74.3065 28.8572 74.1912 28.7005 74.1912 28.5172C74.1912 28.2038 74.4603 27.9644 74.8417 27.9644C75.0013 27.9644 75.1432 28.0087 75.2112 28.0531L75.1255 28.2866C75.0634 28.2511 74.951 28.2068 74.818 28.2068C74.6288 28.2068 74.4958 28.3221 74.4958 28.4758C74.4958 28.6059 74.5815 28.6857 74.7441 28.7744C74.9422 28.8897 75.0752 29.0435 75.0752 29.2445C75.0752 29.62 74.7737 29.8329 74.3923 29.8329C74.2001 29.8299 74.0316 29.7737 73.9488 29.7116L74.0404 29.481Z" fill="#00A538"/>
<path d="M76.7106 28.2334C76.6662 28.2186 76.5982 28.2068 76.4977 28.2068C76.0365 28.2068 75.6551 28.6857 75.6551 29.1854C75.6551 29.3835 75.7261 29.5786 75.9626 29.5786C76.2169 29.5786 76.5184 29.2475 76.6071 28.7715L76.7106 28.2334ZM76.5095 29.7915C76.5095 29.685 76.5273 29.5136 76.5509 29.3303H76.545C76.3499 29.7028 76.1016 29.8329 75.8502 29.8329C75.5339 29.8329 75.3358 29.5816 75.3358 29.2416C75.3358 28.6177 75.7941 27.9644 76.5716 27.9644C76.7402 27.9644 76.9264 27.9939 77.0506 28.0324L76.8673 28.9666C76.8082 29.277 76.7875 29.5934 76.7934 29.7944H76.5095V29.7915Z" fill="#00A538"/>
<path d="M77.3548 29.827C77.2336 29.827 77.1508 29.7324 77.1508 29.6082C77.1508 29.4722 77.2484 29.3599 77.3844 29.3599C77.5085 29.3599 77.5913 29.4545 77.5913 29.5816C77.5913 29.7176 77.4967 29.824 77.3578 29.824H77.3548V29.827Z" fill="#00A538"/>
</g>
<defs>
<clipPath id="clip0_218_1882">
<rect width="81" height="30" fill="white" transform="translate(0 0.246826)"/>
</clipPath>
</defs>
</svg>
