<svg width="81" height="31" viewBox="0 0 81 31" fill="none" xmlns="http://www.w3.org/2000/svg">
<g clip-path="url(#clip0_315_1289)">
<rect width="81" height="30" transform="translate(0 0.246826)" fill="white"/>
<path d="M20.241 8.79685C20.241 8.89741 20.241 8.9836 20.241 9.08416C20.241 13.4081 20.241 17.7321 20.241 22.0561C20.241 22.1423 20.241 22.2141 20.241 22.3003C20.241 22.7887 19.8388 23.3777 19.1205 23.3777C18.4022 23.3777 18 22.7887 18 22.3003C18 22.2284 18 22.171 18 22.0992C18 16.7409 18 11.397 18 6.03871C18 5.88069 18 5.72267 18.0431 5.56465C18.2873 4.77456 19.2498 4.50162 19.8675 5.0475C19.9393 5.11933 20.0111 5.19115 20.083 5.27734C22.3527 7.61889 24.6224 9.97481 26.9065 12.3164C26.9783 12.3882 27.0358 12.4456 27.122 12.5318C27.2082 12.4887 27.2656 12.4169 27.3231 12.3451C28.7453 10.8798 30.1531 9.41456 31.5752 7.9493C32.4659 7.04428 33.3422 6.1249 34.2328 5.21988C34.2903 5.16242 34.3334 5.11933 34.3909 5.06186C35.0086 4.50162 35.9854 4.76019 36.2296 5.56465C36.2584 5.66521 36.2727 5.76577 36.2727 5.88069C36.2871 5.98125 36.2727 6.09617 36.2727 6.19673C36.2727 10.1616 36.2727 14.1408 36.2727 18.1056C36.2727 18.2492 36.2727 18.3929 36.2583 18.5366C36.2009 19.0681 35.7699 19.4703 35.224 19.5134C34.6782 19.5565 34.2185 19.2117 34.0748 18.7233C34.0461 18.6227 34.0317 18.5078 34.0174 18.3929C34.003 18.3067 34.0174 18.2349 34.0174 18.1487C34.0174 15.1176 34.0174 12.0865 34.0174 9.05543C34.0174 8.95487 34.0174 8.86868 34.003 8.76812C34.003 8.75376 34.003 8.73939 34.003 8.72503C33.9886 8.73939 33.9743 8.75376 33.9599 8.75376C33.9024 8.81122 33.845 8.85431 33.7875 8.91178C31.8913 10.8655 29.9951 12.8191 28.0988 14.7728C28.0414 14.8303 27.9983 14.8734 27.9408 14.9309C27.4811 15.3762 26.7772 15.3762 26.3319 14.9309C25.944 14.543 25.5705 14.1551 25.197 13.7673C23.6168 12.144 22.0367 10.5063 20.4565 8.88304C20.4134 8.83995 20.3703 8.81122 20.3416 8.76812C20.3128 8.75376 20.2985 8.73939 20.2697 8.71066C20.2554 8.76812 20.2554 8.78249 20.241 8.79685Z" fill="#25264E"/>
<path d="M55.4074 23.3921C54.9908 23.3633 54.6891 23.1622 54.488 22.8031C54.4449 22.7313 54.4161 22.6594 54.3874 22.5876C52.1608 17.962 49.9342 13.3507 47.6932 8.72505C47.6501 8.63886 47.6213 8.56703 47.5782 8.48084C47.4921 8.50957 47.4777 8.59576 47.449 8.65322C47.1473 9.2853 46.8312 9.91737 46.5296 10.5494C44.5903 14.5717 42.6509 18.5797 40.7116 22.602C40.6829 22.6738 40.6398 22.7456 40.6111 22.8174C40.3812 23.2197 39.9502 23.4495 39.4906 23.3777C39.0309 23.3059 38.7148 23.0473 38.5568 22.602C38.4706 22.3434 38.485 22.0848 38.5855 21.8406C38.6143 21.7688 38.643 21.7113 38.6717 21.6395C41.2719 16.2525 43.872 10.8799 46.4721 5.49285C46.4865 5.46412 46.5008 5.43539 46.5152 5.40666C46.7738 4.74585 47.7075 4.5591 48.2821 4.99006C48.4258 5.10498 48.5264 5.24864 48.5982 5.40666C48.9142 6.08183 49.2446 6.74263 49.5607 7.4178C51.8447 12.144 54.1145 16.8558 56.3986 21.582C56.4848 21.7688 56.5853 21.9555 56.5997 22.171C56.5566 22.2141 56.5566 22.2716 56.5997 22.3147C56.5422 22.9036 56.1687 23.3059 55.5797 23.3777C55.5366 23.349 55.4792 23.349 55.4074 23.3921Z" fill="#25264E"/>
<path d="M40.1226 2.24617C40.6541 1.88704 41.2287 1.59973 41.8034 1.32679C42.8377 0.852736 43.9151 0.507968 45.0212 0.278123C45.5814 0.1632 46.1417 0.077008 46.7019 0.0482773C46.9031 0.033912 47.1042 0.0195466 47.3053 0.0051813C47.334 0.0482773 47.3771 0.033912 47.4058 0.0051813C48.0379 -0.00918404 48.6844 0.00518124 49.3164 0.0626426C51.4425 0.263757 53.4537 0.867102 55.3068 1.93014C57.5765 3.23738 59.4009 5.01868 60.78 7.24531C61.7712 8.8686 62.432 10.6068 62.7768 12.4743C62.8917 13.1351 62.9779 13.7959 62.9922 14.4711C63.0066 14.8446 63.021 15.2324 63.0066 15.6059C62.9779 16.3386 62.9204 17.0568 62.7911 17.7751C62.5182 19.4415 61.9723 21.036 61.1678 22.53C60.9811 22.8892 60.7656 23.2339 60.5501 23.5787C60.3777 23.866 60.1048 24.0384 59.76 24.0959C59.2142 24.182 58.6108 23.7942 58.539 23.1477C58.5103 22.8604 58.5821 22.5875 58.7545 22.3433C59.0992 21.8692 59.4009 21.3808 59.6738 20.8637C60.2628 19.7575 60.6794 18.5939 60.9524 17.3729C61.2253 16.1375 61.3115 14.8877 61.2397 13.6379C61.1535 12.1726 60.8374 10.7505 60.2916 9.37138C59.5158 7.40333 58.3379 5.67949 56.772 4.24296C54.8758 2.50475 52.6636 1.34116 50.1209 0.824006C49.3595 0.665987 48.5838 0.579795 47.8081 0.536699C47.5782 0.522334 47.3627 0.507968 47.1329 0.507968C45.3372 0.507968 43.6134 0.838371 41.947 1.48481C41.3868 1.70029 40.8265 1.95887 40.295 2.24617C40.2663 2.26054 40.2232 2.2749 40.1801 2.30364C40.1657 2.28927 40.1514 2.26054 40.1226 2.24617Z" fill="#0CA9CB"/>
<path d="M55.6516 27.0407C55.12 27.4573 54.5454 27.8164 53.9421 28.1469C52.4481 28.9657 50.8535 29.5116 49.1728 29.7989C48.6269 29.8851 48.0667 29.9569 47.5064 29.9713C47.176 29.9856 46.8456 30 46.5152 30C45.4665 29.9856 44.4322 29.8707 43.4123 29.6408C41.5017 29.2099 39.7348 28.4485 38.0971 27.3568C38.0109 27.2993 37.9391 27.2562 37.8529 27.1844C37.1921 26.6672 37.3357 25.6329 38.1115 25.3169C38.4993 25.1589 38.8728 25.2163 39.2032 25.4749C39.3038 25.5467 39.39 25.6329 39.4762 25.7047C41.2862 27.2131 43.3405 28.2043 45.6676 28.664C46.3284 28.7933 46.9893 28.8651 47.6644 28.9082C48.4402 28.9513 49.2159 28.9226 49.9916 28.8364C51.5143 28.664 52.9652 28.2618 54.3587 27.601C54.7609 27.4142 55.1631 27.1844 55.5654 26.9833C55.6085 26.9976 55.6372 27.012 55.6516 27.0407Z" fill="#0CA9CB"/>
<path d="M19.6089 28.4054C19.6089 28.7358 19.6089 29.0662 19.5946 29.3966C19.5946 29.411 19.5802 29.4254 19.5658 29.4397C19.5228 29.4397 19.4797 29.4397 19.4222 29.4397C19.3791 29.2673 19.4078 29.1093 19.3935 28.9369C19.3935 28.7789 19.3935 28.6209 19.3935 28.4485C19.3935 28.2761 19.3935 28.1181 19.3935 27.9314C19.4653 27.9314 19.5228 27.917 19.5946 27.917C19.767 28.2187 19.9393 28.506 20.1117 28.7933C20.1261 28.8076 20.1261 28.8076 20.1405 28.822C20.1548 28.8076 20.1548 28.7933 20.1692 28.7789C20.3272 28.4916 20.4996 28.2043 20.6576 27.917C20.7151 27.917 20.7725 27.917 20.83 27.917C20.8587 28.1037 20.8731 29.1955 20.83 29.411C20.7869 29.4541 20.7294 29.4397 20.6576 29.3966C20.6432 29.2386 20.6576 29.0519 20.6576 28.8795C20.6576 28.7071 20.6576 28.5347 20.6576 28.3767C20.6863 28.348 20.7007 28.3192 20.6576 28.3049C20.6432 28.3049 20.6145 28.3192 20.6002 28.3336C20.5858 28.348 20.6002 28.3623 20.5858 28.3767C20.4709 28.5778 20.3559 28.7789 20.241 28.9944C20.2267 29.0088 20.2267 29.0231 20.2123 29.0375C20.1405 29.138 20.0686 29.138 20.0112 29.0375C19.925 28.8795 19.8388 28.7358 19.7526 28.5778C19.7095 28.506 19.6664 28.4485 19.6233 28.3767C19.6233 28.3623 19.6089 28.348 19.6089 28.3336C19.6233 28.3767 19.6233 28.391 19.6089 28.4054Z" fill="#2D2E54"/>
<path d="M33.687 28.1182C33.6439 28.1613 33.6008 28.2044 33.5721 28.2475C33.2129 28.0464 32.9543 28.0464 32.7389 28.2332C32.5521 28.4055 32.4947 28.7072 32.5952 28.9514C32.6958 29.1956 32.9256 29.3106 33.2129 29.2818C33.4715 29.2531 33.6008 29.1238 33.6726 28.8509C33.5864 28.8221 33.5002 28.8365 33.414 28.8365C33.3278 28.8365 33.256 28.8365 33.1555 28.8365C33.1411 28.779 33.1411 28.7216 33.1411 28.6785C33.3278 28.6354 33.6295 28.6354 33.8594 28.6641C33.9743 29.0663 33.6295 29.4686 33.2273 29.4973C33.0405 29.5117 32.8538 29.4829 32.6958 29.3824C32.3941 29.1813 32.2648 28.8221 32.3654 28.463C32.4372 28.2188 32.6814 27.9171 33.1124 27.9171C33.3278 27.9028 33.529 27.9458 33.687 28.1182Z" fill="#313258"/>
<path d="M20.9305 26.0496C20.9305 26.5093 20.5714 26.8397 20.1261 26.8397C19.6807 26.8397 19.336 26.4662 19.3503 26.0208C19.3647 25.5468 19.7526 25.2451 20.1404 25.2451C20.5139 25.2308 20.9449 25.5324 20.9305 26.0496ZM20.7294 26.0065C20.7294 25.8772 20.6863 25.7335 20.5858 25.6186C20.4277 25.4319 20.1548 25.3744 19.925 25.475C19.7095 25.5755 19.5658 25.791 19.5802 26.0639C19.6089 26.4805 19.9681 26.7248 20.3416 26.5955C20.5714 26.5236 20.7294 26.2938 20.7294 26.0065Z" fill="#323359"/>
<path d="M26.3032 25.2307C26.691 25.202 27.0933 25.5324 27.0933 26.0208C27.0933 26.4805 26.7485 26.8253 26.3032 26.8253C25.8147 26.8253 25.5274 26.4374 25.5274 26.0352C25.5131 25.5468 25.9153 25.2164 26.3032 25.2307ZM26.8922 26.0496C26.8922 25.791 26.7916 25.6042 26.5761 25.5037C26.3894 25.4031 26.1882 25.4175 26.0015 25.5324C25.6567 25.7623 25.6424 26.3081 25.9871 26.5524C26.1739 26.6816 26.375 26.696 26.5905 26.5811C26.7916 26.4518 26.8922 26.265 26.8922 26.0496Z" fill="#323359"/>
<path d="M26.2026 28.4054C26.2026 28.7502 26.2026 29.0806 26.2026 29.4397C26.1308 29.4541 26.0877 29.4541 26.0446 29.4685C26.0303 29.4397 26.0159 29.4254 26.0159 29.4254C26.0015 28.937 26.0159 28.4629 26.0015 27.9745C26.0877 27.9458 26.1595 27.9458 26.2457 27.9601C26.4756 28.3049 26.6911 28.6784 26.9353 29.0375C27.0071 29.0232 26.9784 28.9657 26.9784 28.937C26.9784 28.664 26.9784 28.4054 26.9784 28.1325C26.9784 28.075 26.9784 28.0176 26.9927 27.9601C27.0502 27.9601 27.1077 27.9601 27.1651 27.9601C27.1795 27.9889 27.1795 28.0176 27.1795 28.0319C27.1795 28.4773 27.1795 28.937 27.1795 29.3823C27.1795 29.411 27.1651 29.4254 27.1651 29.4541C27.0502 29.5116 26.964 29.4685 26.9065 29.3536C26.7485 29.095 26.5905 28.8508 26.4325 28.5922C26.3894 28.5347 26.3463 28.4773 26.3032 28.4198C26.2745 28.3767 26.2601 28.3336 26.2026 28.2331C26.2026 28.3193 26.2026 28.3623 26.2026 28.4054Z" fill="#2D2E54"/>
<path d="M32.078 28.6928C32.0924 29.1238 31.7476 29.4973 31.2879 29.4973C30.8283 29.4973 30.5122 29.1094 30.5122 28.7072C30.5122 28.2475 30.857 27.9171 31.3023 27.9027C31.762 27.8884 32.1068 28.2906 32.078 28.6928ZM31.8769 28.6784C31.8769 28.4055 31.7045 28.1757 31.4603 28.1182C31.2018 28.0464 30.9432 28.1469 30.7995 28.3624C30.6702 28.5779 30.6702 28.8077 30.7995 29.0232C30.8857 29.1669 31.015 29.2531 31.1874 29.2818C31.5896 29.3393 31.8769 29.0663 31.8769 28.6784Z" fill="#313258"/>
<path d="M29.09 28.6929C29.09 29.1669 28.7165 29.4973 28.2856 29.483C27.869 29.4686 27.5098 29.1382 27.5242 28.6785C27.5242 28.2476 27.869 27.8884 28.3286 27.8884C28.7165 27.9028 29.09 28.2188 29.09 28.6929ZM28.8745 28.6929C28.8889 28.3625 28.6016 28.0321 28.185 28.1039C27.9264 28.147 27.7397 28.3625 27.7253 28.6498C27.7109 28.9515 27.8546 29.1526 28.0844 29.2531C28.3286 29.3537 28.6016 29.2675 28.7596 29.0664C28.8458 28.9515 28.8745 28.8222 28.8745 28.6929Z" fill="#313258"/>
<path d="M24.7373 26.897C24.766 26.9114 24.7948 26.9257 24.8235 26.9401C24.9097 27.0407 24.9097 27.1556 24.8091 27.2418C24.7229 27.3136 24.5937 27.3136 24.5075 27.213C24.4931 27.1987 24.4787 27.1556 24.4931 27.1556C24.5075 27.1412 24.5506 27.1125 24.5793 27.1269C24.608 27.1269 24.6368 27.1556 24.6655 27.1699C24.7086 27.1843 24.7517 27.1412 24.7373 27.0981C24.7373 27.0694 24.7086 27.0407 24.6942 27.0263C24.6942 27.0263 24.6798 27.0119 24.6655 27.0119C24.608 27.0263 24.5506 27.055 24.5218 26.9832C24.5075 26.9401 24.5218 26.897 24.5218 26.8395C24.1052 26.7246 23.861 26.466 23.861 26.0064C23.861 25.676 24.0621 25.3886 24.3782 25.2881C24.6798 25.1732 24.9815 25.245 25.197 25.4892C25.1683 25.5323 25.1252 25.561 25.0821 25.6185C24.9528 25.5179 24.8379 25.4317 24.6655 25.4317C24.5649 25.4317 24.4644 25.4317 24.3782 25.4892C24.3063 25.5323 24.2345 25.5898 24.1771 25.6616C23.9903 25.8914 24.019 26.2506 24.2202 26.466C24.45 26.7103 24.7517 26.6959 25.0964 26.4373C25.1395 26.4804 25.1826 26.5235 25.2257 26.5666C25.0821 26.7534 24.8953 26.8108 24.6942 26.8539C24.6798 26.8683 24.6368 26.8826 24.6368 26.8826C24.6798 26.9114 24.7086 26.897 24.7373 26.897Z" fill="#333459"/>
<path d="M18.2155 26.3512C18.2729 26.4374 18.316 26.4949 18.3591 26.5523C18.474 26.6673 18.6321 26.6816 18.7614 26.5954C18.905 26.5092 18.9194 26.3225 18.8044 26.2219C18.747 26.1788 18.6752 26.1501 18.6177 26.1214C18.5315 26.0783 18.4309 26.0496 18.3448 26.0065C18.158 25.9203 18.0718 25.7479 18.1005 25.5755C18.1293 25.4031 18.2873 25.2738 18.474 25.2451C18.6752 25.2164 18.8619 25.2738 18.9912 25.4462C19.0487 25.518 19.0343 25.5611 18.9337 25.6042C18.9194 25.6042 18.905 25.6042 18.8763 25.6186C18.8332 25.5755 18.7901 25.5324 18.747 25.4893C18.6321 25.4175 18.4597 25.4318 18.3735 25.518C18.3017 25.5899 18.3017 25.7048 18.3879 25.7766C18.4453 25.8197 18.5315 25.8484 18.6033 25.8915C18.7039 25.9346 18.8044 25.9634 18.8906 26.0208C19.0487 26.107 19.1205 26.2507 19.1061 26.423C19.1061 26.5667 19.0343 26.6816 18.905 26.7678C18.747 26.8684 18.5746 26.8827 18.3879 26.8109C18.2155 26.7535 18.1149 26.6242 18.0574 26.4374C18.1005 26.3943 18.158 26.3656 18.2155 26.3512Z" fill="#333459"/>
<path d="M29.6072 25.5467C29.5497 25.5754 29.5066 25.5898 29.4635 25.6185C29.4348 25.6041 29.4205 25.5898 29.4061 25.5754C29.3343 25.4605 29.2193 25.4174 29.09 25.4461C29.047 25.4605 29.0039 25.4749 28.9608 25.5036C28.8602 25.5754 28.8602 25.7191 28.9608 25.7909C29.0326 25.834 29.1044 25.8627 29.1762 25.8914C29.2768 25.9345 29.3774 25.9633 29.4635 26.0207C29.6216 26.1213 29.679 26.2649 29.6647 26.4517C29.6359 26.6384 29.521 26.739 29.363 26.7965C29.2193 26.8539 29.0613 26.8396 28.9177 26.7677C28.774 26.6959 28.6735 26.581 28.6304 26.4086C28.6878 26.3799 28.7309 26.3655 28.7884 26.3224C28.8315 26.3799 28.8746 26.4517 28.9177 26.4948C29.0182 26.6097 29.1619 26.6384 29.2912 26.581C29.3774 26.5523 29.4492 26.4948 29.4492 26.3942C29.4635 26.2937 29.4205 26.2219 29.3343 26.1644C29.2768 26.1213 29.205 26.1069 29.1331 26.0782C29.047 26.0495 28.9608 26.0207 28.8889 25.9776C28.7309 25.8914 28.6447 25.7622 28.6591 25.5898C28.6735 25.4174 28.774 25.3168 28.932 25.2594C29.0613 25.2163 29.1906 25.2163 29.3055 25.2594C29.4492 25.3168 29.5497 25.3887 29.6072 25.5467Z" fill="#333459"/>
<path d="M36.1003 29.4397C36.0285 29.4397 35.971 29.4397 35.8992 29.4397C35.8417 29.3104 35.7986 29.1811 35.7412 29.0375C35.54 29.0375 35.3389 29.0375 35.1235 29.0375C35.066 29.1668 35.0229 29.2961 34.9654 29.4254C34.908 29.4254 34.8505 29.4254 34.7787 29.4397C34.7787 29.3966 34.7787 29.3823 34.7787 29.3535C34.9511 28.8938 35.1091 28.4485 35.2815 28.0032C35.2958 27.9745 35.3102 27.9457 35.3389 27.917C35.3964 27.917 35.4682 27.917 35.5113 27.917C35.5688 27.9745 35.9997 29.0949 36.1003 29.4397ZM35.4108 28.2474C35.3246 28.4341 35.2527 28.6209 35.2096 28.8364C35.3677 28.8507 35.5113 28.8651 35.655 28.8364C35.6119 28.6353 35.5257 28.4485 35.4539 28.2618C35.4395 28.2474 35.4395 28.233 35.4251 28.2187C35.4251 28.2187 35.4251 28.233 35.4108 28.2474Z" fill="#313258"/>
<path d="M25.5274 29.0806C25.5705 29.1237 25.5993 29.1524 25.6423 29.1955C25.5562 29.3679 25.3981 29.4253 25.2401 29.4684C25.0103 29.5115 24.7948 29.4972 24.5937 29.3679C24.2058 29.1093 24.134 28.5491 24.4213 28.1899C24.7086 27.8308 25.2258 27.8021 25.5705 28.1325C25.5705 28.2043 25.5131 28.233 25.4412 28.2761C25.3119 28.1468 25.1396 28.075 24.9384 28.1037C24.7948 28.1181 24.6799 28.1899 24.5793 28.2905C24.3782 28.5203 24.3926 28.8938 24.5937 29.1093C24.8379 29.3535 25.1539 29.3392 25.5274 29.0806Z" fill="#323359"/>
<path d="M23.5306 25.2883C23.5306 25.6331 23.545 25.9778 23.5306 26.3082C23.5163 26.6099 23.3152 26.7967 23.0278 26.8254C22.7693 26.8397 22.5251 26.7248 22.4389 26.3944C22.4245 26.3513 22.4245 26.2939 22.4245 26.2508C22.4245 25.9491 22.4245 25.6474 22.4245 25.3601C22.4245 25.3314 22.4389 25.317 22.4389 25.2739C22.4963 25.2739 22.5394 25.2739 22.6112 25.2739C22.6112 25.3458 22.6256 25.4176 22.6256 25.475C22.6256 25.7049 22.6256 25.9491 22.6256 26.1789C22.6256 26.2508 22.64 26.3226 22.6543 26.3944C22.7118 26.5524 22.8411 26.6386 22.9991 26.6386C23.1715 26.6243 23.3008 26.5237 23.3295 26.3513C23.3439 26.2939 23.3439 26.222 23.3439 26.1646C23.3439 25.9347 23.3439 25.7193 23.3439 25.4894C23.3439 25.4319 23.3439 25.3745 23.3439 25.3458C23.4013 25.2596 23.4588 25.2739 23.5306 25.2883Z" fill="#2B2C52"/>
<path d="M18.9625 28.6067C18.9625 28.6785 18.9625 28.7072 18.9625 28.7647C18.7614 28.8221 18.5603 28.7647 18.3592 28.8078C18.3592 28.8796 18.3448 28.9514 18.3448 29.0233C18.3448 29.0951 18.3448 29.1669 18.3448 29.2531C18.5747 29.3106 18.7901 29.2531 19.0056 29.2818C19.0487 29.3393 19.0487 29.3824 19.0056 29.4399C18.8045 29.4686 18.3592 29.4686 18.1724 29.4399C18.1437 29.2675 18.1293 28.2763 18.1581 27.9746C18.3161 27.9315 18.6177 27.9171 18.9912 27.9459C19.0343 27.989 19.0343 28.0464 19.02 28.1039C18.8045 28.147 18.589 28.1039 18.3592 28.1326C18.3304 28.2763 18.3448 28.4199 18.3448 28.5779C18.4023 28.5923 18.4597 28.5923 18.5028 28.5923C18.6465 28.6067 18.7901 28.5923 18.9625 28.6067Z" fill="#2B2C52"/>
<path d="M23.3008 28.1181C23.2864 28.2905 23.2864 28.4341 23.3008 28.5921C23.5019 28.6209 23.703 28.5921 23.8754 28.6065C23.9329 28.664 23.9185 28.7071 23.8898 28.7789C23.703 28.7789 23.5163 28.7932 23.3152 28.7932C23.2721 28.9369 23.3008 29.0806 23.2864 29.2386C23.3439 29.2529 23.387 29.2673 23.4301 29.2673C23.5594 29.2673 23.6887 29.2673 23.818 29.2673C23.8611 29.2673 23.9185 29.2817 23.9616 29.2817C23.9616 29.3391 23.9616 29.3822 23.9616 29.4253C23.7892 29.4684 23.3583 29.4684 23.0997 29.4397C23.071 29.3248 23.0853 29.1955 23.0853 29.0662C23.0853 28.9513 23.0853 28.822 23.0853 28.7071C23.0853 28.5778 23.0853 28.4485 23.0853 28.3192C23.0853 28.2043 23.071 28.075 23.0997 27.9601C23.3008 27.917 23.7318 27.917 23.9473 27.9601C23.9473 27.9744 23.9616 27.9888 23.9616 28.0032C23.9616 28.0319 23.9616 28.0606 23.9616 28.1037C23.9329 28.1181 23.9185 28.1324 23.9042 28.1324C23.7174 28.1181 23.5163 28.1181 23.3008 28.1181Z" fill="#2B2C52"/>
<path d="M28.2712 26.1213C28.0557 26.1213 27.869 26.1357 27.6535 26.1357C27.6248 26.2937 27.6391 26.4374 27.6535 26.581C27.869 26.6385 28.0845 26.581 28.2999 26.6098C28.343 26.6672 28.343 26.7103 28.3143 26.7678C28.1419 26.7965 27.7253 26.7965 27.4667 26.7678C27.438 26.6529 27.4524 26.5236 27.4524 26.3943C27.4524 26.2794 27.4524 26.1501 27.4524 26.0351C27.4524 25.9059 27.4524 25.7766 27.4524 25.6473C27.4524 25.5324 27.438 25.4031 27.4667 25.2881C27.6679 25.2594 28.1132 25.2594 28.3287 25.2881C28.3287 25.3312 28.3287 25.3743 28.343 25.4318C28.1276 25.4893 27.9121 25.4318 27.6966 25.4605C27.6391 25.5324 27.6679 25.6042 27.6679 25.676C27.6679 25.7478 27.6679 25.8197 27.6679 25.9059C27.7253 25.9202 27.7684 25.9346 27.8115 25.9346C27.9695 25.9346 28.1132 25.9346 28.2856 25.949C28.2568 26.0064 28.2712 26.0495 28.2712 26.1213Z" fill="#2B2C52"/>
<path d="M22.1228 28.1181C21.9792 28.1181 21.8499 28.1181 21.735 28.1181C21.735 28.0607 21.735 28.0176 21.735 27.9601C21.893 27.917 22.0654 27.9458 22.2378 27.9314C22.4102 27.9314 22.5682 27.9314 22.7549 27.9314C22.7549 27.9889 22.7549 28.0463 22.7693 28.1181C22.64 28.1181 22.5107 28.1181 22.3814 28.1181C22.3671 28.19 22.3527 28.2331 22.3527 28.2905C22.3527 28.6066 22.3527 28.9226 22.3527 29.2386C22.3527 29.2961 22.3527 29.3536 22.3383 29.411C22.324 29.4541 22.2952 29.4685 22.2521 29.4685C22.209 29.4685 22.1659 29.4541 22.1659 29.411C22.1516 29.3679 22.1516 29.3105 22.1516 29.2674C22.1516 28.9657 22.1516 28.6784 22.1516 28.3767C22.1372 28.2905 22.1228 28.2187 22.1228 28.1181Z" fill="#25264E"/>
<path d="M21.4908 26.5954C21.7206 26.5954 21.9074 26.5954 22.1229 26.5954C22.1372 26.6529 22.1372 26.7103 22.1372 26.7534C22.1085 26.7678 22.0941 26.7821 22.0941 26.7821C21.8356 26.7965 21.577 26.7821 21.3328 26.7821C21.2897 26.581 21.2753 25.7622 21.304 25.2881C21.3902 25.2594 21.3902 25.2594 21.4908 25.2881C21.4908 25.7191 21.4908 26.1501 21.4908 26.5954Z" fill="#2D2E54"/>
<path d="M29.4635 29.4542C29.4348 29.1812 29.4348 28.1326 29.4635 27.9458C29.5066 27.9171 29.5641 27.9171 29.6359 27.9602C29.6646 28.3768 29.6359 28.8077 29.6503 29.2531C29.8658 29.2674 30.0669 29.253 30.2536 29.2674C30.2967 29.3249 30.2967 29.3823 30.2536 29.4398C30.2249 29.4398 30.1818 29.4542 30.1387 29.4542C29.9232 29.4542 29.6934 29.4542 29.4635 29.4542Z" fill="#25264E"/>
<path d="M34.4196 29.4398C34.3621 29.4398 34.319 29.4398 34.2616 29.4398C34.2472 29.4111 34.2472 29.3823 34.2472 29.3536C34.2472 28.9514 34.2472 28.5635 34.2472 28.1613C34.2472 28.0895 34.2472 28.0176 34.2616 27.9602C34.319 27.9171 34.3765 27.9171 34.4196 27.9458C34.4483 28.1182 34.4483 29.1094 34.4196 29.4398Z" fill="#25264E"/>
<path d="M26.6767 24.9003C26.5905 25.1733 26.5187 25.1876 26.2026 25.0584C26.1883 25.0584 26.1595 25.0727 26.1452 25.0871C26.059 25.1302 25.9871 25.1302 25.9728 25.0871C25.9584 25.0296 25.9871 24.9722 26.0302 24.9434C26.1021 24.8716 26.1739 24.8429 26.2744 24.886C26.3319 24.9147 26.375 24.9291 26.4468 24.9578C26.4756 24.9434 26.5043 24.9147 26.5474 24.9003C26.5618 24.9003 26.6049 24.9003 26.6767 24.9003Z" fill="#333459"/>
<path d="M55.6516 27.0406C55.6372 27.0263 55.6085 26.9976 55.5941 26.9832C55.7234 26.897 55.8671 26.8108 55.9964 26.7246C56.0107 26.739 56.0251 26.7533 56.0251 26.7533C55.9102 26.8683 55.7952 26.9688 55.6516 27.0406Z" fill="#4BBFD8"/>
<path d="M55.9819 26.7248C56.025 26.6674 56.0825 26.6243 56.1687 26.6243C56.14 26.7248 56.0825 26.7392 56.0107 26.7679C56.0107 26.7536 55.9963 26.7392 55.9819 26.7248Z" fill="#90D7E7"/>
<path d="M55.4073 23.392C55.4648 23.3345 55.5366 23.3345 55.5941 23.392C55.5366 23.392 55.4792 23.392 55.4073 23.392Z" fill="#575877"/>
<path d="M56.6141 22.329C56.571 22.2859 56.571 22.2284 56.6141 22.1853C56.6141 22.2428 56.6141 22.2859 56.6141 22.329Z" fill="#696985"/>
<path d="M20.6145 28.4056C20.6145 28.3912 20.6145 28.3625 20.6289 28.3625C20.6432 28.3481 20.672 28.3337 20.6863 28.3337C20.7294 28.3481 20.7151 28.3768 20.6863 28.4056C20.6576 28.4056 20.6432 28.4056 20.6145 28.4056Z" fill="#696985"/>
<path d="M19.6089 28.4054C19.6089 28.391 19.6233 28.3767 19.6233 28.3623C19.6233 28.3767 19.6377 28.391 19.6377 28.4054L19.6233 28.4198L19.6089 28.4054Z" fill="#B5B6C3"/>
<path d="M20.1835 28.7932C20.1691 28.8076 20.1691 28.8219 20.1548 28.8363C20.1404 28.8219 20.1404 28.8219 20.126 28.8076C20.1404 28.7932 20.1691 28.7932 20.1835 28.7932Z" fill="#9293A6"/>
<path d="M36.2583 22.2716C36.2727 22.8893 35.7555 23.4064 35.1378 23.3921C34.4483 23.3921 34.003 22.8175 34.003 22.2429C34.003 21.7401 34.3908 21.1224 35.1378 21.1367C35.813 21.1367 36.2727 21.6826 36.2583 22.2716Z" fill="#0CA9CB"/>
<path d="M40.1226 2.24609C40.1514 2.27482 40.1657 2.28919 40.1945 2.31792C40.1801 2.33229 40.1801 2.34665 40.1657 2.36102C39.8784 2.5334 39.5911 2.70578 39.3182 2.8638C39.3038 2.84944 39.2895 2.83507 39.2751 2.82071C39.5337 2.60523 39.8066 2.38975 40.1226 2.24609Z" fill="#4BBFD8"/>
<path d="M39.3038 2.84949C39.2033 2.92132 39.1027 3.00751 39.0022 3.07934C38.9878 3.0937 38.9591 3.0937 38.9303 3.0937C38.9878 2.97878 39.074 2.90695 39.2607 2.8064C39.2751 2.82076 39.2895 2.83513 39.3038 2.84949Z" fill="#90D7E7"/>
<path d="M20.241 8.79672C20.241 8.78235 20.2554 8.75362 20.2554 8.73926C20.2841 8.75362 20.2985 8.76799 20.3272 8.79672C20.2985 8.79672 20.2697 8.79672 20.241 8.79672Z" fill="#C2C2CD"/>
<path d="M38.7723 3.20874C38.7723 3.20874 38.7723 3.22311 38.7579 3.22311C38.7579 3.22311 38.7579 3.22311 38.7723 3.20874Z" fill="#90D7E7"/>
<path d="M38.7723 3.22303C38.7867 3.20866 38.801 3.1943 38.8154 3.17993C38.801 3.17993 38.7867 3.1943 38.7723 3.22303Z" fill="#90D7E7"/>
<path d="M38.8154 3.16569C38.8297 3.15133 38.8297 3.15133 38.8441 3.13696V3.15133C38.8297 3.16569 38.8154 3.16569 38.8154 3.16569Z" fill="#90D7E7"/>
<path d="M33.9455 8.78239C33.9599 8.76803 33.9743 8.75366 33.9886 8.75366C33.9886 8.76803 33.9886 8.78239 33.9886 8.79676C33.9886 8.79676 33.9599 8.79676 33.9455 8.78239Z" fill="#E4E4E9"/>
</g>
<defs>
<clipPath id="clip0_315_1289">
<rect width="81" height="30" fill="white" transform="translate(0 0.246826)"/>
</clipPath>
</defs>
</svg>
