<svg width="81" height="31" viewBox="0 0 81 31" fill="none" xmlns="http://www.w3.org/2000/svg">
<rect width="81" height="30" transform="translate(0 0.246826)" fill="white"/>
<path d="M0 12.4093C0.07669 12.2253 0.15338 12.0412 0.23007 11.8265C1.44177 11.8265 2.68415 11.8265 3.95721 11.8265C3.98788 12.1793 4.00322 12.4707 4.0339 12.9462C5.00019 11.9799 6.07385 11.443 7.3469 11.5504C8.58928 11.6424 9.6476 12.1486 10.3992 13.2836C11.1967 12.3787 12.117 11.7958 13.2827 11.6271C16.1816 11.1976 18.2215 12.6087 18.4823 15.5076C18.651 17.3789 18.5283 19.2808 18.5436 21.1827C18.5436 21.5661 18.5436 21.9342 18.5436 22.379C17.5927 22.379 16.7184 22.379 15.7368 22.379C15.7368 21.4894 15.7368 20.6305 15.7368 19.7716C15.7368 18.6212 15.7675 17.4709 15.7215 16.3205C15.6754 14.7561 14.9699 13.9738 13.6968 13.9585C12.3318 13.9585 11.3808 14.9554 11.3501 16.4432C11.3194 18.0997 11.3501 19.7716 11.3501 21.4281C11.3501 21.7042 11.3501 21.9803 11.3501 22.3484C10.4452 22.3484 9.57091 22.3484 8.58928 22.3484C8.58928 20.8759 8.58928 19.4341 8.58928 17.977C8.58928 17.3328 8.60462 16.704 8.57394 16.0598C8.51259 14.7867 7.80704 14.0198 6.68737 13.9585C5.47567 13.8971 4.44802 14.664 4.29464 15.8451C4.18727 16.6733 4.20261 17.5322 4.20261 18.3605C4.18728 19.6642 4.20261 20.9679 4.20261 22.3484C3.28233 22.3484 2.40807 22.3484 1.44177 22.3484C1.44177 19.7716 1.44177 17.2101 1.44177 14.5873C0.981632 14.5567 0.61352 14.5413 0.245408 14.5106C0.168718 14.2652 0.0920278 14.0198 0.0153378 13.7898C-2.34268e-07 13.3296 0 12.8695 0 12.4093Z" fill="#B50B17"/>
<path d="M43.8667 7.96134C44.0508 8.03803 44.2349 8.11472 44.4803 8.20675C44.4803 11.9492 44.4803 15.7224 44.4803 19.5415C44.8791 19.5722 45.2318 19.6029 45.692 19.6336C45.692 20.5078 45.692 21.3821 45.692 22.3024C44.3576 22.3024 43.0385 22.3024 41.7194 22.3024C41.6888 21.9803 41.6734 21.6735 41.6427 21.4434C40.9832 21.8882 40.2777 22.4711 38.6365 22.5171C38.2837 22.5171 37.9156 22.5171 37.5628 22.5171C37.2561 22.4251 36.934 22.3484 36.6272 22.2564C33.7743 21.4895 32.7007 18.6673 33.0228 16.1058C33.5903 11.5198 38.4371 10.2774 41.6734 12.7621C41.6734 12.2713 41.6734 11.8879 41.6734 11.5044C41.6734 10.6148 41.7194 9.70987 41.6581 8.82027C41.6274 8.2681 41.8268 8.03803 42.3176 7.93066C42.8391 7.96134 43.3606 7.96134 43.8667 7.96134ZM38.7132 20.0784C40.431 20.0784 41.7194 18.7286 41.7041 16.9647C41.6888 15.2162 40.431 13.9278 38.7285 13.9278C37.0107 13.9278 35.7223 15.2469 35.7376 17.0261C35.7683 18.7593 37.0413 20.0784 38.7132 20.0784Z" fill="#B50B17"/>
<path d="M74.0826 22.5323C73.7606 22.4556 73.4538 22.3636 73.1317 22.2869C71.0457 21.7041 69.5886 19.8635 69.5119 17.5935C69.4812 16.8113 69.5273 15.9983 69.7267 15.2468C70.6469 11.719 74.9262 10.3233 77.8251 12.5626C77.9632 12.67 78.1012 12.762 78.2239 12.8694C78.2853 12.7927 78.3313 12.762 78.3466 12.716C78.408 11.6577 78.408 11.6424 79.4816 11.6577C79.9878 11.6577 80.4939 11.7497 81.0001 11.7957C81.0001 15.3235 81.0001 18.8512 81.0001 22.379C80.1412 22.379 79.2822 22.379 78.4233 22.379C78.3926 21.8881 78.3619 21.5047 78.3466 21.3053C77.8405 21.8421 77.3496 22.379 75.1716 22.5323C74.8035 22.5323 74.4354 22.5323 74.0826 22.5323ZM75.233 13.9277C73.4845 13.9277 72.2421 15.2161 72.2421 17.0107C72.2421 18.7592 73.4998 20.0783 75.187 20.0783C76.9048 20.0783 78.1932 18.7592 78.1779 16.98C78.1626 15.2161 76.9202 13.9277 75.233 13.9277Z" fill="#B50B17"/>
<path d="M24.6943 22.5326C24.3568 22.4559 24.0041 22.3793 23.6666 22.2872C21.3046 21.6124 19.8321 19.3883 20.0008 16.7502C20.1695 14.1274 21.4733 12.2869 23.6206 11.7193C25.4918 11.2285 27.2097 11.5506 28.7895 12.931C28.8202 12.5169 28.8509 12.1795 28.8969 11.6887C29.6331 11.6887 30.3847 11.6733 31.1362 11.7193C31.2436 11.7193 31.443 12.0414 31.443 12.2255C31.4583 15.5692 31.4583 18.9129 31.4583 22.3486C30.5994 22.3486 29.7711 22.3486 28.8969 22.3486C28.8662 21.9345 28.8509 21.551 28.8355 21.3516C27.7772 22.3946 27.2097 22.5633 25.6299 22.5633C25.3078 22.5326 25.001 22.5326 24.6943 22.5326ZM25.7526 13.928C24.004 13.9127 22.7617 15.2011 22.777 17.011C22.777 18.7748 24.0194 20.0632 25.7066 20.0786C27.4091 20.0786 28.6668 18.8055 28.6821 17.057C28.7128 15.2317 27.5011 13.9434 25.7526 13.928Z" fill="#B50B17"/>
<path d="M51.8424 22.5324C51.2289 22.379 50.6 22.287 50.0018 22.0723C47.5938 21.2287 46.3207 18.9893 46.6428 16.1978C46.9189 13.7591 48.6521 11.9185 51.0908 11.6424C51.9958 11.5351 52.9467 11.5351 53.821 11.7191C56.1984 12.2099 57.6248 14.0505 57.6708 16.4739C57.6862 16.9034 57.6708 17.3328 57.6708 17.8543C54.9407 17.8543 52.2412 17.8543 49.5417 17.8543C49.6644 20.1704 52.6706 20.7992 55.5695 19.1734C56.0757 19.6489 56.5972 20.1243 57.134 20.6152C56.091 21.6275 54.9714 22.1183 53.7136 22.3484C53.4989 22.3944 53.2842 22.4557 53.0541 22.5017C52.6553 22.5324 52.2565 22.5324 51.8424 22.5324ZM49.5724 16.0444C51.3976 16.0444 53.1768 16.0444 54.956 16.0444C55.0327 14.5873 53.5449 13.7591 52.2719 13.7744C50.7227 13.8051 49.6797 14.6333 49.5724 16.0444Z" fill="#B50B17"/>
<path d="M62.8858 22.5324C61.8735 22.2257 60.8305 21.9956 59.8489 21.5968C58.6832 21.1213 58.7138 21.0293 59.3734 19.9557C59.5421 19.6796 59.7262 19.4035 59.8182 19.2961C61.1066 19.5875 62.2876 19.9096 63.4686 20.109C63.9441 20.1857 64.5116 20.0937 64.9564 19.9096C65.2478 19.7869 65.5546 19.3728 65.5699 19.066C65.5853 18.8206 65.2172 18.4065 64.9411 18.3298C64.2662 18.1151 63.5453 18.0844 62.8551 17.931C62.2569 17.8083 61.6587 17.6703 61.1066 17.4402C60.0022 16.9647 59.2814 16.1672 59.2353 14.8788C59.1893 13.5444 59.8335 12.6087 60.9992 12.0873C63.4226 11.0136 65.754 11.351 68.1314 12.6394C67.7479 13.3143 67.3952 13.9125 67.0117 14.572C65.8767 13.8665 64.6803 13.6824 63.438 13.7898C63.1925 13.8051 62.8858 13.8051 62.7017 13.9432C62.4103 14.1732 62.0422 14.4953 62.0115 14.8021C61.9962 15.0475 62.395 15.477 62.6864 15.569C63.3613 15.7837 64.0821 15.8144 64.7877 15.9524C65.3859 16.0751 65.9841 16.2285 66.5516 16.4432C67.7019 16.9034 68.3461 17.7777 68.3615 19.0354C68.3768 20.2624 67.8706 21.244 66.751 21.7655C65.9841 22.1183 65.1251 22.287 64.2969 22.5324C63.8061 22.5324 63.3459 22.5324 62.8858 22.5324Z" fill="#B50B17"/>
</svg>
