<svg width="81" height="31" viewBox="0 0 81 31" fill="none" xmlns="http://www.w3.org/2000/svg">
<rect width="81" height="30" transform="translate(0 0.246826)" fill="white"/>
<path d="M66.6251 16.573V16.602C66.6015 17.0834 66.3542 17.486 66.0937 17.828C65.0676 19.1777 63.4969 20.9457 63.4706 20.9747C62.6787 21.9508 61.6631 21.6167 60.6475 21.1036L60.6449 21.101C60.5502 21.0536 60.5239 20.93 60.5923 20.8484C61.1527 20.1775 63.3048 17.6018 63.4206 17.4439C63.56 17.2492 63.9073 16.8151 63.9073 16.5993V16.5625C63.9073 16.3599 63.5627 15.9232 63.4206 15.7285C63.3075 15.5706 61.1553 13.0001 60.5923 12.3266C60.5239 12.245 60.5502 12.1214 60.6449 12.074C61.6605 11.561 62.6787 11.2242 63.468 12.203C63.4943 12.2319 65.065 13.9999 66.0911 15.347C66.3568 15.689 66.6041 16.0916 66.6251 16.573ZM16.7178 16.5651V16.602C16.7178 16.8151 17.0651 17.2518 17.2046 17.4465C17.3177 17.607 19.4725 20.1828 20.0329 20.851C20.1013 20.9326 20.075 21.0562 19.9802 21.1036H19.9776C18.9621 21.6167 17.9412 21.9508 17.1572 20.9747C17.1309 20.9484 15.5575 19.1777 14.5315 17.828C14.271 17.486 14.021 17.0834 14 16.602V16.573C14.021 16.0942 14.2684 15.689 14.5315 15.347C15.5602 13.9973 17.1335 12.2319 17.1572 12.203C17.9412 11.2242 18.9621 11.561 19.9776 12.074C20.0723 12.1214 20.0986 12.245 20.0302 12.3292C19.4672 13.0001 17.3151 15.5733 17.2019 15.7311C17.0625 15.9258 16.7178 16.3626 16.7178 16.5651ZM57.8429 15.7206L57.8587 18.8488C57.8587 25.45 54.3963 26.2761 51.1391 26.5682L51.1049 26.5708C50.9181 26.5866 50.7339 26.5971 50.5445 26.5998C50.3551 26.5971 50.1656 26.5866 49.9762 26.5708L49.9473 26.5682C46.6901 26.2761 43.2303 25.45 43.2303 18.8488L43.2461 15.7206V9.23256C43.2461 9.14047 43.3198 9.06681 43.4119 9.06681H45.4983C47.3768 9.08786 48.2871 9.76928 48.2871 11.7478L48.2661 19.4592C48.2661 20.0986 48.6581 21.9034 50.263 22.1507C50.3314 22.1639 50.3998 22.1692 50.4735 22.1744C50.4761 22.1744 50.4814 22.1744 50.4866 22.1744H50.6129C50.6155 22.1744 50.6208 22.1744 50.6261 22.1744C50.6945 22.1692 50.7655 22.1639 50.8313 22.1507C52.4362 21.9034 52.8282 20.1012 52.8282 19.4592L52.8072 11.7478C52.8072 9.76928 53.7175 9.08522 55.5934 9.06681H57.6824C57.7745 9.06681 57.8482 9.14047 57.8482 9.23256V15.7206H57.8429ZM35.3137 19.3198C34.6533 21.1589 33.6456 21.9113 32.4143 21.956C31.4751 21.9876 30.7358 21.6745 30.1622 21.0378C29.5992 20.4222 29.1729 19.4882 28.9598 18.1595C28.7625 16.9098 28.7283 15.5917 28.8388 14.2236C28.9467 12.837 29.1914 11.7294 29.5334 10.9085C29.8412 10.1823 30.2122 9.69298 30.591 9.39042C30.9673 9.08522 31.454 8.90895 32.0723 8.8879C33.0958 8.8537 33.8614 9.14047 34.4376 9.7114C34.9927 10.2744 35.4084 11.1479 35.6215 12.4582C36.0661 15.2891 35.932 17.5886 35.3137 19.3198ZM38.6393 6.55947C36.9712 5.02297 34.748 4.24683 32.0039 4.24683C30.4832 4.24683 29.0966 4.54413 27.889 5.14136C26.684 5.72281 25.7132 6.57262 24.9949 7.65922C24.0872 9.02997 23.4611 10.5375 23.1032 12.1609C22.7481 13.771 22.6718 15.4838 22.8954 17.2597C23.2532 20.2406 24.2977 22.5638 25.9658 24.1898C27.6496 25.8131 29.8096 26.6076 32.5538 26.6076C34.2113 26.6076 35.6873 26.2472 36.9265 25.5605C38.1788 24.8607 39.2339 23.8004 40.0837 22.4165C40.8151 21.1931 41.336 19.7934 41.6044 18.2437C41.8728 16.6783 41.8885 14.9787 41.6781 13.1922C41.3202 10.3297 40.3073 8.09334 38.6393 6.55947Z" fill="#353A42"/>
</svg>
