<svg width="81" height="31" viewBox="0 0 81 31" fill="none" xmlns="http://www.w3.org/2000/svg">
<rect width="81" height="30" transform="translate(0 0.246826)" fill="white"/>
<path d="M0 22.2316C0.735148 19.5138 1.4703 16.796 2.20545 14.0559C2.80693 11.7836 3.43069 9.53361 4.03218 7.26134C4.14356 6.86035 4.27723 6.7044 4.72277 6.72668C7.06188 6.74896 9.42327 6.7044 11.7624 6.74896C12.6535 6.77124 13.5668 6.9049 14.4356 7.17223C16.6411 7.86282 17.7995 9.84549 17.4653 12.1178C17.0198 15.1252 15.0594 17.1524 11.7178 17.7539C10.0248 18.0435 8.28713 18.0435 6.54951 18.1103C6.05941 18.1326 5.88119 18.2663 5.79208 18.7118C5.65842 19.3801 5.43564 20.0485 5.2797 20.7168C5.07921 21.5856 4.54455 22.1648 3.65347 22.2094C2.4505 22.2762 1.24752 22.2316 0 22.2316ZM6.9505 14.4569C8.08663 14.4569 9.13366 14.5237 10.1807 14.4346C11.0941 14.3678 11.8515 13.8554 12.4084 13.1202C12.8985 12.4965 13.1658 11.8059 12.8094 11.0262C12.453 10.2465 11.7624 9.97916 10.9827 9.9346C10.1584 9.89005 9.33416 9.91233 8.5099 9.9346C8.37624 9.9346 8.15347 10.0905 8.10891 10.2242C7.70792 11.6054 7.32921 13.0311 6.9505 14.4569Z" fill="#1D2575"/>
<path d="M49.0099 23.7688C47.4951 18.0881 46.0025 12.5188 44.4877 6.90491C44.6882 6.88263 44.8441 6.86035 45.0223 6.86035C46.2698 6.86035 47.5174 6.88263 48.7649 6.86035C49.1659 6.86035 49.3664 6.94946 49.4555 7.39501C49.9901 9.62273 50.5693 11.8282 51.1263 14.0559C51.1708 14.2118 51.2154 14.3455 51.2822 14.5905C51.4604 14.3901 51.5941 14.2564 51.7278 14.1005C53.3763 12.1401 55.0471 10.2019 56.6956 8.24154C57.4753 7.28362 58.4555 6.86035 59.6584 6.86035C61.0174 6.88263 62.3763 6.86035 63.8911 6.86035C58.901 12.541 54 18.1104 49.0099 23.7688Z" fill="#1D2575"/>
<path d="M30.0074 22.2984C31.0321 18.3776 32.0123 14.5459 33.0371 10.6697C34.151 11.2712 35.2203 11.0929 36.3118 10.7588C37.8267 10.3132 39.3638 10.1573 40.9232 10.5137C43.6411 11.1152 45.0222 13.2984 44.3762 15.9939C43.9084 17.9766 43.3514 19.937 42.8168 21.8974C42.7722 22.0533 42.5717 22.2538 42.4381 22.2538C41.1014 22.2761 39.7425 22.2761 38.3391 22.2761C38.6287 21.1623 38.9183 20.0707 39.1856 19.0014C39.4529 17.9766 39.7425 16.9519 39.9876 15.9271C40.344 14.5459 39.7871 13.8553 38.3614 13.8999C37.2029 13.9444 36.4455 14.5236 36.1113 15.7043C35.6881 17.1969 35.3316 18.7118 34.9307 20.2266C34.797 20.7835 34.6633 21.3405 34.4851 21.8974C34.4406 22.0533 34.2178 22.2316 34.0841 22.2316C32.792 22.3207 31.4331 22.2984 30.0074 22.2984Z" fill="#1D2575"/>
<path d="M63.1115 17.91C62.755 18.6229 63.2897 19.514 63.8912 19.7145C64.6709 19.9595 65.4951 20.1155 66.2971 20.1823C66.9654 20.2269 67.6337 20.0932 68.3021 19.9818C68.9481 19.8704 69.5719 19.6922 70.2847 19.514C70.0842 20.2714 69.8837 21.0289 69.6387 21.764C69.5941 21.8977 69.4159 22.0091 69.26 22.0536C66.9431 22.7665 64.5818 22.9001 62.2649 22.2095C58.6783 21.1402 57.4085 16.9076 59.6808 13.811C61.2179 11.7392 63.3788 10.6254 65.9184 10.4249C67.1436 10.3358 68.4134 10.4026 69.6387 10.6477C71.1981 10.9373 72.3565 11.8506 72.6238 13.5437C72.8466 15.014 71.9555 16.5066 70.3961 17.3086C68.3021 18.4001 66.0966 18.467 63.8243 18.0437C63.6238 17.9991 63.4233 17.9323 63.2006 17.8878C63.2006 17.8878 63.156 17.91 63.1115 17.91ZM63.5125 15.415C64.9382 15.816 66.3194 16.1056 67.7006 15.4595C68.2352 15.2145 68.6362 14.8135 68.6139 14.1675C68.6139 13.6996 68.1461 13.2987 67.4555 13.1204C65.8738 12.764 64.1362 13.7219 63.5125 15.415Z" fill="#1D2575"/>
<path d="M27.8465 22.2986C26.7104 21.6525 25.6411 21.8085 24.5272 22.1649C22.8119 22.6996 21.052 22.8109 19.2921 22.4099C18.8911 22.3208 18.5124 22.1872 18.1559 22.0312C15.8168 20.9397 15.349 18.3555 17.1757 16.5288C18.2228 15.4817 19.5594 15.0139 21.0074 14.8134C22.5 14.5906 23.9926 14.6797 25.4629 15.0362C25.953 14.0337 25.6411 13.2317 24.5272 13.0981C23.3688 12.9644 22.1881 13.0758 21.0297 13.1203C20.5619 13.1426 20.0941 13.2763 19.5371 13.3877C19.7599 12.5857 19.9827 11.8283 20.2054 11.0931C20.25 10.9817 20.4059 10.8703 20.5396 10.8481C22.6782 10.4025 24.8391 10.1352 27 10.6476C29.1609 11.1599 30.1856 12.5411 29.7624 14.702C29.2277 17.2194 28.5148 19.7144 27.8465 22.2986ZM24.9282 17.4867C23.5916 17.0634 22.3218 16.9075 21.0297 17.4867C20.495 17.7317 20.0718 18.1327 20.1163 18.7565C20.1609 19.4025 20.6733 19.6253 21.2079 19.7812C22.8342 20.2491 24.5272 19.2243 24.9282 17.4867Z" fill="#1D2575"/>
<path d="M81 6.86035C80.599 8.35293 80.198 9.75639 79.8193 11.1599C78.8614 14.6797 77.8812 18.1995 76.9233 21.7415C76.7896 22.2094 76.6114 22.343 76.1436 22.3207C74.8069 22.2985 73.448 22.2985 72.0668 22.2985C72.5792 20.4049 73.0916 18.6005 73.5817 16.7737C74.3837 13.8554 75.1856 10.9594 75.9876 8.04105C76.2327 7.1054 76.5891 6.86035 77.547 6.86035C78.6832 6.86035 79.8193 6.86035 81 6.86035Z" fill="#1D2575"/>
</svg>
