<svg width="81" height="8" viewBox="0 0 81 8" fill="none" xmlns="http://www.w3.org/2000/svg">
<g clip-path="url(#clip0_218_841)">
<path d="M34.7623 0.416504H36.578L40.5311 7.21264H38.8494L38.0106 5.65267H33.3067L32.4448 7.21264H30.7518L34.7623 0.416504ZM37.3709 4.52744L35.6702 1.49698L33.9656 4.52744H37.3709Z" fill="black"/>
<path d="M41.4158 0.41626H45.3381C47.9123 0.41626 49.977 1.32412 49.977 3.77278C49.977 6.09037 48.0925 7.21243 45.4034 7.21243H41.4158V0.41626ZM44.6221 6.07117C47.3301 6.07117 48.3836 5.38073 48.3836 3.79196C48.3836 2.12649 47.288 1.55428 44.6221 1.55428H43.0093V6.06801L44.6221 6.07117Z" fill="black"/>
<path d="M19.241 4.79915C19.0801 5.32341 18.2604 6.24086 16.4102 6.24086C14.6597 6.24086 13.3075 5.4193 13.3075 3.85614C13.3075 2.44639 14.246 1.38829 16.4984 1.38829C18.4136 1.38829 19.0303 2.3473 19.1184 2.58386L20.6506 2.41763C20.4323 1.81984 19.6547 0.24707 16.4064 0.24707C13.1581 0.24707 11.6796 1.72394 11.6796 3.70589C11.6796 6.18332 13.7059 7.38208 16.2762 7.38208C19.7543 7.38208 20.5587 5.80292 20.7847 4.96857L19.241 4.79915Z" fill="black"/>
<path d="M29.2003 4.7989C29.0355 5.32316 28.2196 6.24061 26.3695 6.24061C24.619 6.24061 23.263 5.41906 23.263 3.85589C23.263 2.44615 24.2053 1.38804 26.4576 1.38804C28.3729 1.38804 28.9896 2.34706 29.0777 2.58361L30.6099 2.41738C30.3954 1.8196 29.6178 0.246826 26.3695 0.246826C23.1212 0.246826 21.6389 1.7237 21.6389 3.70564C21.6389 6.18307 23.669 7.38183 26.2355 7.38183C29.7136 7.38183 30.518 5.80267 30.744 4.96832L29.2003 4.7989Z" fill="black"/>
<path d="M63.9427 6.03628V0.416504H62.3531V7.21264H69.8494V6.03628H63.9427Z" fill="black"/>
<path d="M70.9223 7.21264H72.5157V4.49226L76.4918 0.416504H74.5306L71.7192 3.29671L68.896 0.416504H66.9465L70.9223 4.49226V7.21264Z" fill="black"/>
<path d="M4.53916 0.416504H0V7.21264H1.58966V4.57537H4.53916C5.91431 4.57537 8.17813 4.57537 8.17813 2.50074C8.17813 0.42609 5.91431 0.416504 4.53916 0.416504ZM4.88392 3.43737H1.58966V1.55771H4.88392C5.79175 1.55771 6.58847 1.62165 6.58847 2.49115C6.58847 3.36065 5.79175 3.45016 4.88392 3.45016" fill="black"/>
<path d="M10.687 0.419678H9.09735V7.21584H10.687V0.419678Z" fill="black"/>
<path d="M52.5053 0.416504H50.9157V7.21264H52.5053V0.416504Z" fill="black"/>
<path d="M55.3394 6.03628V0.416504H53.7498V7.21264H61.2423V6.03628H55.3394Z" fill="black"/>
<path d="M81 0.419678H77.8705V3.03138H81V0.419678ZM80.617 1.78147C80.3529 1.33162 79.9179 0.967407 79.3796 0.745746H80.617V1.78147ZM78.2726 0.844844C78.7902 0.860487 79.2864 1.02029 79.6825 1.29877L78.2726 2.47196V0.844844ZM79.958 1.52893C80.2917 1.85912 80.482 2.27362 80.4984 2.70531H78.5523L79.958 1.52893Z" fill="black"/>
</g>
<defs>
<clipPath id="clip0_218_841">
<rect width="81" height="7.17187" fill="white" transform="translate(0 0.246826)"/>
</clipPath>
</defs>
</svg>
