<svg width="81" height="31" viewBox="0 0 81 31" fill="none" xmlns="http://www.w3.org/2000/svg">
<g clip-path="url(#clip0_863_1324)">
<rect width="81" height="30" transform="translate(0 0.246826)" fill="white"/>
<path d="M59.5434 16.9974C58.1352 16.9974 56.922 16.9541 55.7088 17.0407C55.4705 17.0624 55.1239 17.5173 55.0806 17.8206C54.539 21.5252 53.9974 25.2297 53.5208 28.9559C53.4125 29.7792 53.1741 30.2124 52.2643 30.1258C51.5493 30.0608 50.8344 30.1041 49.9029 30.1041C50.5095 25.7063 51.1161 21.4385 51.701 17.0841C50.2712 17.0841 48.8847 17.0841 47.7365 17.0841C47.6282 18.3406 47.6715 19.5971 47.3899 20.7669C47.0649 22.0884 45.96 22.7817 44.8768 23.1283C46.025 25.3597 47.1732 27.5694 48.4514 30.0391C47.0866 30.0391 45.96 30.0824 44.8552 30.0175C44.6385 29.9958 44.4002 29.6058 44.2702 29.3242C43.6203 28.046 42.9704 26.7462 42.3421 25.4463C41.7356 24.1248 40.739 23.5832 39.1575 23.8432C38.8759 25.858 38.5726 27.8944 38.2693 29.9958C37.1211 29.9958 36.0163 29.9958 34.8464 29.9958C35.583 24.7314 36.2979 19.5537 37.0561 14.2244C40.3924 14.6793 43.9886 13.1845 46.8699 16.1525C46.9782 15.5242 47.0866 14.961 47.2165 14.3327C51.6577 14.3327 56.0771 14.3327 60.6049 14.3327C60.5616 14.8743 60.5182 15.3726 60.4749 16.0225C62.0564 14.7443 63.7245 14.0728 65.6309 14.0728C68.7506 14.0728 71.1986 15.7625 72.0002 18.7738C72.9534 22.3484 72.3468 25.6197 69.6388 28.3493C67.5157 30.4724 63.4212 30.5591 61.3198 29.4975C58.8934 28.2627 57.4419 25.3164 57.6803 22.3051C57.8102 20.4636 58.3518 18.7088 59.5434 16.9974ZM69.2705 22.2834C69.2922 19.4671 68.2306 17.799 66.4758 17.3007C64.7211 16.7808 62.9229 17.6257 61.7098 19.4454C60.7999 20.8103 60.6266 22.3267 60.8432 23.8865C61.0598 25.3814 61.7964 26.5512 63.2262 27.0928C64.6994 27.6561 66.0859 27.3095 67.2557 26.2913C68.6422 25.0781 69.2488 23.4966 69.2705 22.2834ZM40.1108 16.9974C39.9158 18.4489 39.7425 19.7704 39.5475 21.2869C40.739 21.1785 41.7139 21.2002 42.6238 21.0052C43.642 20.7886 44.2702 19.792 44.1836 18.8388C44.0969 17.8856 43.4253 17.279 42.2772 17.149C41.6056 17.084 40.934 17.0624 40.1108 16.9974Z" fill="#2E3192"/>
<path d="M23.6028 9.78325C23.3861 11.1481 23.2128 12.3613 23.0178 13.6178C22.1513 13.4878 21.3497 13.3578 20.5481 13.2495C15.8037 12.6862 13.3124 16.1091 12.5541 19.6187C12.2075 21.1785 12.2075 22.7167 12.9441 24.1681C13.8973 26.0962 15.912 26.9195 18.2951 26.3345C19.1183 26.1396 19.9416 25.7929 20.7215 25.4463C21.458 25.0997 22.1513 24.6664 23.0828 24.1465C22.8445 25.7063 22.6929 27.0711 22.4112 28.4143C22.3679 28.6743 21.9346 28.9342 21.6313 29.0859C19.3566 30.2124 16.9086 30.494 14.4606 30.0391C11.3193 29.4542 9.13122 26.9845 8.67627 23.3016C8.15634 19.0121 9.10955 15.0909 12.4458 12.0796C15.6521 9.19832 19.4216 8.80837 23.6028 9.78325Z" fill="#2E3192"/>
<path d="M27.8706 20.5502C29.6687 20.5502 31.3585 20.5502 33.2433 20.5502C33.1349 21.4818 33.0266 22.3267 32.8966 23.2582C31.0985 23.2582 29.3221 23.2582 27.4806 23.2582C27.2857 24.623 27.1124 25.9012 26.8957 27.331C29.3437 27.331 31.7484 27.331 34.2615 27.331C34.1532 28.2409 34.0882 28.9775 33.9365 29.7141C33.9148 29.8874 33.5899 30.104 33.3949 30.104C30.0153 30.1257 26.6141 30.1257 23.0395 30.1257C23.7761 24.7964 24.5127 19.6187 25.2492 14.376C28.5422 14.376 31.7484 14.376 35.0847 14.376C34.998 15.1342 34.9764 15.8925 34.8031 16.5857C34.7597 16.7807 34.2615 16.9973 33.9798 16.9973C32.3984 17.0406 30.7952 17.0623 29.2138 16.9973C28.4988 16.9757 28.2605 17.2789 28.1739 17.9072C28.0872 18.7521 28.0006 19.597 27.8706 20.5502Z" fill="#2E3192"/>
<path d="M34.1749 7.76855C35.0414 9.50167 35.973 11.3431 37.0345 13.4445C35.8647 13.4445 34.9764 13.4878 34.1099 13.4229C33.8716 13.4012 33.6116 13.0762 33.4816 12.8163C32.9617 11.8197 32.5067 10.8015 31.9651 9.82663C31.6835 9.32836 31.3369 8.83009 30.9036 8.50513C29.7987 7.6819 29.1922 8.00686 28.9972 9.32836C28.8239 10.6715 28.5856 12.0147 28.3689 13.4229C27.394 13.4229 26.5058 13.4229 25.4659 13.4229C25.6393 12.123 25.7909 10.8882 25.9642 9.67498C26.3758 6.837 26.8308 3.97735 27.2207 1.13937C27.3074 0.489451 27.5457 0.207818 28.2389 0.251146C29.6688 0.316138 31.1202 0.229482 32.5717 0.294474C35.518 0.424458 37.3378 3.08913 36.1246 5.66715C35.7347 6.44705 34.8248 7.05364 34.1749 7.76855ZM29.5604 5.81879C30.3837 5.81879 31.0986 5.88379 31.7918 5.79713C32.5717 5.68881 33.3516 5.34218 33.3733 4.45396C33.395 3.91236 33.1133 3.06747 32.745 2.91582C31.9651 2.59086 31.0336 2.63419 30.1454 2.54753C30.0804 2.54753 29.9287 2.82916 29.9071 2.98081C29.7987 3.8907 29.6904 4.82225 29.5604 5.81879Z" fill="#2E3192"/>
<path d="M47.1082 13.3579C47.5199 10.4549 47.9098 7.70359 48.3431 4.97393C48.3864 4.75729 48.6464 4.43233 48.8414 4.41067C49.448 4.32401 50.0762 4.34568 50.6828 4.389C50.9644 4.41067 51.2244 4.60564 51.6794 4.82228C53.9541 3.78241 54.864 3.86907 56.0771 5.45054C57.0953 5.03892 58.0269 4.49732 59.0451 4.28068C60.7349 3.9124 62.0347 4.99559 61.9264 6.70705C61.7964 8.74347 61.4498 10.7799 61.1465 12.8163C61.1032 13.0546 60.7349 13.4012 60.4749 13.4229C59.8467 13.5095 59.1968 13.4446 58.3735 13.4446C58.5685 12.0147 58.7635 10.7149 58.9368 9.43671C59.0451 8.76513 59.1968 8.09355 59.2401 7.4003C59.3051 6.5554 58.8501 6.12212 58.0702 6.36043C57.1603 6.62039 56.3588 7.05367 56.2071 8.20187C56.0555 9.48004 55.7738 10.7582 55.6655 12.0581C55.5789 13.0979 55.2972 13.7045 54.1057 13.4879C53.7374 13.4229 53.3258 13.4662 52.7409 13.4662C52.9359 12.0797 53.1092 10.8232 53.3042 9.5667C53.4125 8.85179 53.5641 8.13688 53.6074 7.42196C53.6724 6.53374 53.2175 6.16545 52.3293 6.36043C51.3327 6.57707 50.5961 7.46529 50.4445 8.59182C50.2279 10.1516 49.9896 11.7331 49.7512 13.3796C48.9064 13.3579 48.0831 13.3579 47.1082 13.3579Z" fill="#2E3192"/>
<path d="M63.1179 9.11173C63.2045 6.25209 65.5009 4.06402 68.2956 4.15068C70.8303 4.23734 72.5201 6.03545 72.4551 8.54847C72.3684 11.4731 70.072 13.7045 67.234 13.5962C64.6344 13.5312 63.0312 11.7981 63.1179 9.11173ZM65.8692 9.30671C65.9559 10.0866 66.0642 10.9315 67.0174 11.2565C67.8623 11.5598 68.7288 11.1265 69.2488 10.1949C69.8337 9.15506 69.877 7.68191 69.1621 7.05365C68.7505 6.70703 67.9489 6.46873 67.4507 6.64204C66.2592 7.01033 66.0209 8.13686 65.8692 9.30671Z" fill="#2E3192"/>
<path d="M40.9123 4.36739C40.6307 6.2305 40.3274 7.89862 40.1541 9.56675C40.0891 10.1517 40.3057 10.7799 40.3924 11.4082C41.0423 11.2132 41.7572 11.1266 42.3205 10.7799C42.6887 10.5633 42.9487 10 43.0354 9.54509C43.317 8.18025 43.5336 6.77209 43.6636 5.3856C43.7286 4.6057 44.0102 4.28074 44.7901 4.36739C45.3101 4.41072 45.8517 4.36739 46.5016 4.36739C46.1333 6.94541 45.7867 9.37177 45.4184 11.7765C45.1368 13.5746 45.1151 13.5746 43.252 13.4446C42.9487 13.4229 42.6887 13.1413 42.3205 12.9247C41.5839 13.1196 40.6307 13.5096 39.6774 13.5746C38.161 13.6396 37.1428 12.6647 37.2511 11.1699C37.4027 9.06848 37.7927 6.96707 38.1176 4.86566C38.1393 4.69235 38.4859 4.43238 38.7026 4.41072C39.3958 4.32406 40.0674 4.36739 40.9123 4.36739Z" fill="#2E3192"/>
</g>
<defs>
<clipPath id="clip0_863_1324">
<rect width="81" height="30" fill="white" transform="translate(0 0.246826)"/>
</clipPath>
</defs>
</svg>
