<svg width="81" height="14" viewBox="0 0 81 14" fill="none" xmlns="http://www.w3.org/2000/svg">
<g clip-path="url(#clip0_218_1576)">
<path d="M24.0317 12.0827L26.2123 3.73482C26.2913 3.41066 26.434 3.15617 26.6387 2.97217C26.8432 2.78903 27.0583 2.69703 27.2827 2.69703L28.0762 2.67554C28.0891 2.69016 28.1054 2.69703 28.1252 2.69703C28.145 2.69703 28.1614 2.69703 28.1751 2.69703C28.3737 2.7108 28.5647 2.80623 28.7494 2.98335C28.9351 3.15961 29.0806 3.41755 29.1862 3.75631L32.0012 12.0827H29.801L29.0272 9.58235H26.2319L25.4392 12.0827H24.0317ZM28.71 8.90482L27.4614 4.90071C27.4614 4.91447 27.4614 4.9179 27.4614 4.91103C27.4614 4.90415 27.4614 4.90071 27.4614 4.90071C27.4614 4.90071 27.458 4.89726 27.4512 4.88954C27.4451 4.88265 27.4416 4.87922 27.4416 4.87922L26.3712 8.90482H28.71Z" fill="#EA278F"/>
<path d="M33.3057 12.0828V4.07373C33.3057 3.72121 33.4054 3.44178 33.6032 3.23714C33.8018 3.0325 34.0459 2.93019 34.3366 2.93019L35.1302 2.90869C35.2221 2.92332 35.3185 2.9405 35.4174 2.962C35.5163 2.98263 35.6125 3.02219 35.7053 3.07894C35.8636 3.14945 36.0183 3.2552 36.1705 3.3962C36.3227 3.53721 36.4645 3.71433 36.5969 3.92585L39.075 8.20595V2.90869H40.5031V11.7432C40.5031 11.9418 40.4798 12.0828 40.4334 12.1671C40.3871 12.2522 40.3311 12.2943 40.2649 12.2943H39.4713C39.3794 12.3089 39.2736 12.2556 39.1549 12.1353C39.0354 12.0157 38.9099 11.8352 38.7783 11.5953L34.8723 4.90086C34.8593 4.88625 34.8456 4.86904 34.8327 4.84755C34.819 4.82606 34.8129 4.80113 34.8129 4.77361C34.7992 4.759 34.7863 4.73749 34.7734 4.70999C34.7604 4.68161 34.7467 4.66012 34.7338 4.64636V12.0828H33.3057Z" fill="#EA278F"/>
<path d="M43.3333 2.90869H46.6204C46.8164 2.92332 47.0736 2.9405 47.3925 2.962C47.7114 2.98349 48.0424 3.04282 48.3865 3.1417C48.9091 3.28358 49.3882 3.52689 49.8205 3.8734C50.2539 4.21903 50.4706 4.73836 50.4706 5.43051C50.4706 6.09427 50.2169 6.60241 49.7106 6.95578C49.2033 7.30917 48.6478 7.54906 48.0424 7.6763C47.9609 7.70382 47.8826 7.72188 47.8095 7.72875C47.7355 7.73563 47.6581 7.74681 47.5766 7.76056L50.8627 12.0828H48.1405L44.4864 7.25242C46.0073 7.3513 46.9634 7.20255 47.3555 6.80704C47.7484 6.4124 47.9445 5.96702 47.9445 5.47263C47.9445 5.47263 47.9445 5.46918 47.9445 5.46146C47.9445 5.45543 47.9445 5.44426 47.9445 5.43051C47.9445 4.93612 47.7441 4.50535 47.3435 4.13821C46.9428 3.77108 46.3091 3.58708 45.4424 3.58708L44.8785 3.56559V12.0828H42.3524V2.90869H43.3333Z" fill="#EA278F"/>
<path d="M51.9539 4.07459C51.9539 3.67908 52.0467 3.38933 52.2315 3.20533C52.4173 3.02219 52.7405 2.93019 53.2032 2.93019L53.9959 2.90869H58.2192V3.56559H54.7697C54.5445 3.5802 54.3862 3.64382 54.2934 3.75645C54.2013 3.86995 54.1549 4.09522 54.1549 4.43484V7.08304H57.4265V7.73992H54.1549V10.5782C54.1549 10.9315 54.2013 11.1645 54.2934 11.278C54.3862 11.3907 54.5445 11.4474 54.7697 11.4474L58.0601 11.4259V12.0828H53.2032C52.7405 12.0828 52.4173 11.9874 52.2315 11.7965C52.0467 11.6056 51.9539 11.2634 51.9539 10.769V4.07459Z" fill="#EA278F"/>
<path d="M59.9242 12.0828V4.41335C59.9242 3.89058 60.0068 3.51314 60.1718 3.28013C60.3369 3.04713 60.532 2.93019 60.7566 2.93019L61.5501 2.90869C61.5769 2.92332 61.6061 2.93019 61.6388 2.93019C61.6723 2.93019 61.7015 2.93707 61.7281 2.95168C61.9267 2.99381 62.1185 3.10301 62.3034 3.28013C62.4881 3.45638 62.6335 3.67134 62.7392 3.92585L64.6428 8.65047L66.169 3.90521C66.2748 3.59396 66.4372 3.35752 66.6548 3.19501C66.8732 3.0325 67.101 2.95168 67.3392 2.95168L68.1319 2.93019C68.4354 2.94481 68.7071 3.06431 68.9445 3.29044C69.1825 3.51657 69.3012 3.84159 69.3012 4.26461V12.0828H67.101V5.40901L64.6231 12.4216H63.8294L61.4899 5.70563V12.0828H59.9242Z" fill="#EA278F"/>
<path d="M71.027 7.42162C71.027 5.92471 71.4097 4.77342 72.1765 3.96865C72.9434 3.16301 73.9082 2.76063 75.0707 2.76063L75.8642 2.73999C76.9605 2.75376 77.939 3.12088 78.7979 3.8414C79.6577 4.56106 80.0867 5.7622 80.0867 7.44226C80.0867 9.02429 79.7161 10.2495 78.9767 11.1188C78.2365 11.9872 77.1986 12.4214 75.8642 12.4214H75.0707C73.9082 12.4214 72.9434 11.9657 72.1765 11.0552C71.4097 10.1438 71.027 8.94003 71.027 7.44226V7.42162ZM73.0691 7.42162C73.0691 8.72079 73.2995 9.73794 73.7629 10.4722C74.2246 11.2073 74.7998 11.6304 75.4869 11.7439C76.1875 11.645 76.7266 11.32 77.1032 10.7688C77.4797 10.2177 77.7343 9.62531 77.8667 8.98905C77.9321 8.70704 77.9785 8.43533 78.0052 8.17395C78.0318 7.91258 78.0446 7.66839 78.0446 7.44226C78.0446 6.51024 77.8401 5.64527 77.4299 4.84738C77.0206 4.04947 76.3732 3.5869 75.4869 3.45965C74.7998 3.57229 74.2582 3.95404 73.8618 4.60405C73.4654 5.2532 73.2135 5.95995 73.1085 6.7226C73.0948 6.83524 73.0854 6.95561 73.0785 7.08286C73.0715 7.21012 73.0691 7.32962 73.0691 7.44226V7.42162Z" fill="#EA278F"/>
<path d="M21.4921 3.05397C21.2616 2.71263 21.0191 2.48048 20.7655 2.3584C20.6348 2.29476 20.4895 2.2449 20.3287 2.20793C20.1679 2.17095 19.9925 2.14688 19.8024 2.13656C19.5428 2.16322 19.2986 2.22684 19.0692 2.3283C18.8352 2.43062 18.6185 2.57248 18.4182 2.75133C18.2274 2.92242 18.0907 3.13308 18.009 3.38156C17.9256 3.63605 17.8997 3.93269 17.9299 4.26974C17.9591 4.49673 18.0356 4.69791 18.1569 4.86988C18.2807 5.04442 18.4534 5.19316 18.6744 5.3144C18.9161 5.44767 19.1713 5.57405 19.4388 5.69357C19.7088 5.81395 19.9943 5.9283 20.2952 6.03749L20.2995 6.03835C20.8101 6.21031 21.3313 6.42269 21.8059 6.66343C22.1592 6.84312 22.4946 7.04261 22.8127 7.261C23.1523 7.49573 23.3965 7.80266 23.5444 8.18098C23.6896 8.55242 23.7413 8.99091 23.7 9.49476V9.50164C23.614 10.5755 23.1858 11.37 22.4129 11.8842C22.0372 12.1344 21.6416 12.3304 21.2289 12.4723C20.8162 12.6141 20.3829 12.7027 19.9315 12.7371H19.9185C19.8549 12.7371 19.7904 12.7397 19.7234 12.7448L19.7217 12.7457H19.7174C19.6864 12.7474 19.6494 12.7491 19.6057 12.7508C19.5548 12.7526 19.5136 12.7534 19.4827 12.7534H18.69C17.9608 12.7534 17.2962 12.5961 16.6961 12.2805C16.3934 12.1206 16.1337 11.9323 15.9179 11.7156C15.6995 11.4955 15.5267 11.2479 15.4003 10.971C15.3642 10.8945 15.39 10.806 15.4562 10.7587L16.0813 10.2385C16.1131 10.211 16.1526 10.1981 16.1913 10.1981V10.1972H16.985C17.058 10.1972 17.1209 10.2428 17.1458 10.3073C17.3315 10.6942 17.5988 11.0149 17.9487 11.2703C18.1242 11.3984 18.3116 11.5024 18.5094 11.5832C18.6994 11.6597 18.8988 11.7148 19.107 11.7457C19.7887 11.6615 20.2856 11.425 20.597 11.0373C20.756 10.8386 20.8765 10.6306 20.9555 10.4147C21.0338 10.2007 21.0733 9.97711 21.0733 9.74497C21.0733 9.54034 21.0449 9.34344 20.9891 9.15256C20.9323 8.9591 20.8471 8.77252 20.7337 8.59111C20.6227 8.41486 20.4834 8.26095 20.3159 8.13197C19.6864 7.64618 18.2687 7.35386 17.5808 7.0469C17.1999 6.87667 16.8353 6.6875 16.4897 6.48029C16.1217 6.26104 15.8448 5.9773 15.66 5.62995C15.476 5.28516 15.384 4.88191 15.384 4.41934C15.384 3.9069 15.4717 3.44862 15.6488 3.04366C15.8268 2.63698 16.0933 2.28703 16.4484 1.99469C16.8001 1.70494 17.2163 1.48741 17.696 1.34382C18.1706 1.20196 18.7063 1.12973 19.3037 1.12973L19.315 1.13059L20.094 1.11426H20.1042C20.4241 1.12028 20.7363 1.15209 21.0381 1.2097C21.345 1.26816 21.6433 1.35242 21.9332 1.46334C22.2339 1.57769 22.4928 1.73418 22.7095 1.93278C22.927 2.13141 23.0998 2.37043 23.2279 2.64901C23.2684 2.73584 23.2306 2.83902 23.1437 2.87857L23.1257 2.88632L22.4989 3.12963C22.4783 3.13823 22.4576 3.14168 22.437 3.14168V3.14254H21.6433C21.5789 3.14254 21.5221 3.10642 21.4921 3.05397Z" fill="#EA278F"/>
<path fill-rule="evenodd" clip-rule="evenodd" d="M4.89596 10.5195C4.9656 14.7016 0.482587 13.1625 3.10584 9.90473C5.04728 7.49471 5.16508 5.95737 3.10584 3.40119C0.482587 0.143385 4.9656 -1.39566 4.89596 2.78642C4.85296 5.35809 4.85296 7.9461 4.89596 10.5195ZM5.72309 10.5195C5.65344 14.7016 10.1373 13.1625 7.5132 9.90473C5.57176 7.49471 5.45398 5.95737 7.5132 3.40119C10.1373 0.143385 5.65344 -1.39566 5.72309 2.78642C5.76608 5.35809 5.76608 7.9461 5.72309 10.5195ZM1.69404 8.04842C-1.66865 9.04322 0.688939 12.2434 2.63554 9.32609C4.71282 6.21274 4.63802 6.58934 2.63554 3.58862C0.688939 0.671304 -1.66865 3.87149 1.69404 4.86715C4.42822 5.67536 4.55977 7.20065 1.69404 8.04842ZM9.2715 8.04842C12.6351 9.04322 10.2766 12.2434 8.33001 9.32609C6.25273 6.21274 6.32838 6.58934 8.33001 3.58862C10.2766 0.671304 12.6351 3.87149 9.2715 4.86715C6.53733 5.67536 6.40577 7.20065 9.2715 8.04842Z" fill="#EA278F"/>
</g>
<defs>
<clipPath id="clip0_218_1576">
<rect width="80.23" height="12.8764" fill="white" transform="translate(0 0.246826)"/>
</clipPath>
</defs>
</svg>
