<svg width="81" height="12" viewBox="0 0 81 12" fill="none" xmlns="http://www.w3.org/2000/svg">
<g clip-path="url(#clip0_218_1021)">
<path d="M9.37618 8.25415C9.37618 9.17903 8.61807 9.93731 7.6934 9.93731H3.92579C4.35652 9.42602 4.61496 8.77115 4.61496 8.05309C4.61496 7.33507 4.35652 6.6802 3.92579 6.16892H7.6934C8.61807 6.16892 9.37618 6.9272 9.37618 7.85204V8.24843V8.25415ZM1.78353 3.80797V3.4116C1.78353 2.48674 2.54165 1.72848 3.46632 1.72848H7.23967C6.8089 2.23973 6.55046 2.8946 6.55046 3.61265C6.55046 4.33071 6.8089 4.98556 7.23967 5.49684H3.46632C2.54165 5.49684 1.78353 4.73856 1.78353 3.81371M9.19814 0.286621H1.96157C0.904807 0.286621 0.0375671 1.15403 0.0375671 2.21101V9.44899C0.0375671 10.5117 0.904807 11.3734 1.96157 11.3734H9.19814C10.2606 11.3734 11.1222 10.506 11.1222 9.44899V2.21101C11.1222 1.14829 10.2549 0.286621 9.19814 0.286621Z" fill="#004778"/>
<path d="M45.2896 2.45776H47.3052C48.2934 2.45776 49.0973 3.2505 49.1203 4.23854C49.1032 5.2266 48.2988 6.01934 47.3052 6.01934H45.2896V2.45776ZM47.874 0.303596H43.4804C43.2908 0.303596 43.1358 0.458696 43.1358 0.648263V11.4134H44.9447C45.1343 11.4134 45.2896 11.2583 45.2896 11.0687V8.16199H46.4035C46.817 8.16199 47.1962 8.38602 47.3917 8.74795L48.5114 10.8159C48.7123 11.1836 49.0915 11.4076 49.5108 11.4076H51.2795L49.3442 7.82884C50.4814 7.2831 51.2741 6.12271 51.2795 4.77851V3.69856C51.2795 1.82013 49.7576 0.297852 47.874 0.297852" fill="#004778"/>
<path d="M67.1773 0.303711H62.784C62.5944 0.303711 62.4391 0.458811 62.4391 0.648378V11.4135H64.2483C64.4379 11.4135 64.5929 11.2584 64.5929 11.0688V2.45788H66.6089C67.6141 2.45788 68.424 3.26785 68.424 4.27312V11.4077H69.4518C70.072 11.4077 70.5719 10.9022 70.5719 10.2876V3.71017C70.5719 1.83173 69.0496 0.309455 67.166 0.309455" fill="#004778"/>
<path d="M54.9373 6.01368V2.45788H56.9533C57.9586 2.45788 58.7684 3.26785 58.7684 4.27312V6.01368H54.9373ZM57.5221 0.303711H53.1285C52.9389 0.303711 52.7839 0.458811 52.7839 0.648378V11.4135H54.5927C54.7823 11.4135 54.9373 11.2584 54.9373 11.0688V8.1621H58.7684V11.402H59.7962C60.4164 11.402 60.9163 10.8965 60.9163 10.2818V3.71017C60.9163 1.83173 59.3944 0.309455 57.5104 0.309455" fill="#004778"/>
<path d="M37.6561 6.01358H35.6402V2.45776H37.6561C38.6439 2.45776 39.448 3.2505 39.471 4.23854C39.4537 5.2266 38.6497 6.01934 37.6561 6.01934M38.2189 0.303596H33.8253C33.6358 0.303596 33.4807 0.458696 33.4807 0.648263V11.4134H35.2898C35.4794 11.4134 35.6344 11.2583 35.6344 11.0687V8.16199H38.2189C40.0912 8.16199 41.6075 6.6512 41.619 4.77851V3.69856C41.619 1.82013 40.097 0.297852 38.2132 0.297852" fill="#004778"/>
<path d="M29.8163 7.44981C29.8163 8.44932 29.0065 9.26507 28.0014 9.26507H27.8004C26.8011 9.26507 25.9855 8.44932 25.9855 7.44981V2.45788H28.0014C29.0065 2.45788 29.8163 3.26785 29.8163 4.27312V7.44981ZM28.5643 0.303711H24.1706C23.9811 0.303711 23.826 0.458811 23.826 0.648378V8.01275C23.826 9.8912 25.348 11.4135 27.2318 11.4135H28.5643C30.4423 11.4135 31.9701 9.8912 31.9701 8.01275V3.71017C31.9701 1.82599 30.4481 0.303711 28.5643 0.303711Z" fill="#004778"/>
<path d="M78.0779 7.44981C78.0779 8.44932 77.2681 9.26507 76.2628 9.26507H76.0619C75.0625 9.26507 74.2468 8.44932 74.2468 7.44981V2.45788H76.2628C77.2681 2.45788 78.0779 3.26785 78.0779 4.27312V7.44981ZM76.8258 0.303711H72.5411C72.2943 0.303711 72.0934 0.504767 72.0934 0.751778V8.01275C72.0934 9.8912 73.6153 11.4135 75.4935 11.4135H76.8258C78.7039 11.4135 80.2258 9.8912 80.2258 8.01275V3.71017C80.2258 1.83173 78.7039 0.309455 76.8258 0.309455" fill="#004778"/>
<path d="M21.9821 6.76612C21.6547 6.16295 21.0057 5.51957 19.7766 5.11746C19.8398 5.11746 18.358 4.68661 16.9969 4.27302C16.4915 4.11792 16.3019 3.72155 16.3249 3.33668C16.3651 2.69905 16.8763 2.44629 17.6057 2.44629H20.2878C20.9081 2.44629 21.4078 1.94078 21.4078 1.32612V0.625299C21.4078 0.441477 21.2584 0.286377 21.0689 0.286377H17.2381C15.5323 0.286377 14.1539 1.67079 14.1539 3.37114C14.1539 3.37114 14.1539 3.56646 14.1539 3.5722C14.2286 4.93365 14.8719 5.88146 16.6523 6.4272C18.0824 6.86376 18.5878 6.96717 19.3804 7.31758C19.7709 7.4899 19.9662 7.63925 20.0696 7.8748C20.1902 8.13329 20.1327 8.55264 20.0064 8.77667C19.9202 8.92602 19.6733 9.20175 19.2942 9.25346C19.2483 9.25346 15.4979 9.26494 15.4979 9.26494C14.8776 9.26494 14.378 9.77046 14.378 10.3851V11.4134H19.2138C20.9196 11.4134 22.298 10.0347 22.298 8.32862C22.298 8.32862 22.3496 7.44972 21.9706 6.75463" fill="#004778"/>
</g>
<defs>
<clipPath id="clip0_218_1021">
<rect width="80.23" height="11.1929" fill="white" transform="translate(0 0.246826)"/>
</clipPath>
</defs>
</svg>
