<svg width="81" height="18" viewBox="0 0 81 18" fill="none" xmlns="http://www.w3.org/2000/svg">
<g clip-path="url(#clip0_218_1084)">
<path fill-rule="evenodd" clip-rule="evenodd" d="M78.5017 0.246826C77.0909 0.246826 76.0029 1.34144 76.0029 2.74499C76.0029 4.14914 77.0909 5.24377 78.5017 5.24377C79.912 5.24377 81 4.14914 81 2.74499C81 1.34144 79.912 0.246826 78.5017 0.246826ZM78.5017 0.602578C79.7107 0.602578 80.6106 1.54942 80.6106 2.74499C80.6106 3.94056 79.7107 4.888 78.5017 4.888C77.293 4.888 76.3927 3.94056 76.3927 2.74499C76.3927 1.54942 77.293 0.602578 78.5017 0.602578ZM77.9507 2.90614H78.5485L79.3619 4.18928H79.7778L78.9185 2.90614C79.3074 2.83925 79.6432 2.6106 79.6432 2.10038C79.6432 1.58348 79.3543 1.30131 78.7029 1.30131H77.595V4.18928H77.9507V2.90614ZM77.9507 2.6039V1.60355H78.6021C78.9518 1.60355 79.2876 1.6972 79.2876 2.10038C79.2876 2.59053 78.8577 2.6039 78.4211 2.6039H77.9507Z" fill="#F37A1F"/>
<path fill-rule="evenodd" clip-rule="evenodd" d="M66.4415 1.27759H71.4635L66.9402 13.7076H77.5727L76.1126 17.7194H60.4581L66.4415 1.27759ZM47.2804 1.27759H52.0775L49.9639 7.08577H55.9394L58.0529 1.27759H62.991L57.0071 17.7194H52.0699L54.5303 10.9577H48.5549L46.0936 17.7194H41.2963L47.2804 1.27759ZM32.768 17.7194H37.7899L43.7733 1.27759H38.7513L32.768 17.7194ZM21.041 17.7194H26.0349L30.5581 5.28997H35.7484L37.2085 1.27759H21.8905L20.4304 5.28997H25.5648L21.041 17.7194ZM20.5162 1.27759H8.56478C6.85779 1.27759 5.72607 2.37099 5.19459 3.83109L3.61225 8.17977C2.90743 10.116 3.90171 11.5469 5.80939 11.5469H12.0378C12.2901 11.5469 12.4786 11.7993 12.3765 12.0803L11.9782 13.1743C11.8693 13.4741 11.5014 13.7076 11.2515 13.7076H1.4601L0 17.7194H12.6246C14.0172 17.7194 15.2444 17.0742 15.9693 15.0819L17.4725 10.951C18.1853 8.99344 17.1545 7.5905 15.4129 7.5905H9.15709C8.81048 7.5905 8.68763 7.33813 8.80014 7.02983L9.19844 5.93519C9.33103 5.57031 9.60529 5.28997 10.0504 5.28997H19.0561L20.5162 1.27759Z" fill="#F37A1F"/>
</g>
<defs>
<clipPath id="clip0_218_1084">
<rect width="81" height="17.5078" fill="white" transform="translate(0 0.246826)"/>
</clipPath>
</defs>
</svg>
