<svg width="81" height="31" viewBox="0 0 81 31" fill="none" xmlns="http://www.w3.org/2000/svg">
<rect width="81" height="30" transform="translate(0 0.246826)" fill="white"/>
<path d="M38.1137 20.4468C37.1679 20.4468 36.265 20.4468 35.3406 20.4468C35.3406 18.4476 35.3406 16.4484 35.3406 14.4277C35.1257 14.4277 34.9107 14.4277 34.7172 14.4277C34.6527 14.4277 34.5883 14.4922 34.5668 14.5567C34.0723 15.6745 33.5994 16.7924 33.1265 17.8887C32.7825 18.7056 32.4386 19.5225 32.0731 20.3178C32.0516 20.3823 31.9441 20.4468 31.8797 20.4468C31.1058 20.4468 30.3104 20.4468 29.5365 20.4468C29.4505 20.4468 29.343 20.3608 29.3 20.2964C28.5691 18.8131 27.8598 17.3083 27.1289 15.825C26.9139 15.3951 26.7204 14.9436 26.5269 14.5137C26.5055 14.4707 26.4195 14.4277 26.3765 14.4277C26.183 14.4062 26.011 14.4277 25.7961 14.4277C25.7961 16.4484 25.7961 18.4476 25.7961 20.4468C24.8932 20.4468 24.0118 20.4468 23.109 20.4468C23.109 17.3513 23.109 14.2557 23.109 11.1387C23.3454 11.1172 23.5819 11.0957 23.8398 11.0957C25.0222 11.0957 26.183 11.0742 27.3653 11.0742C27.4728 11.0742 27.6018 11.1817 27.6448 11.2892C28.2682 12.493 28.8486 13.6968 29.472 14.9221C29.859 15.696 30.2459 16.4484 30.6543 17.2223C30.6758 17.2653 30.7188 17.3083 30.7618 17.3943C30.9338 17.0073 31.0843 16.6849 31.2133 16.3194C31.6002 15.3736 31.9656 14.4277 32.3526 13.5034C32.6535 12.7295 32.976 11.9771 33.277 11.2032C33.2984 11.1387 33.4059 11.0742 33.4704 11.0742C34.7602 11.0742 36.05 11.0742 37.3398 11.0957C37.5978 11.0957 37.8558 11.1172 38.1137 11.1387C38.1137 14.2342 38.1137 17.3298 38.1137 20.4468Z" fill="black"/>
<path d="M48.4963 15.0081C50.4525 15.0081 52.4087 15.0081 54.3649 15.0081C54.3649 15.0941 54.3649 15.1586 54.3649 15.2446C54.3649 16.255 54.3864 17.2653 54.3649 18.2757C54.3434 18.7271 54.2574 19.1785 54.1284 19.6085C53.935 20.1674 53.4405 20.3823 52.9031 20.4038C51.6778 20.4468 50.4525 20.4468 49.2272 20.4683C47.7009 20.4683 46.1746 20.4898 44.6483 20.4683C44.1754 20.4683 43.681 20.3609 43.3155 19.9954C42.9931 19.6515 42.8641 19.2215 42.8641 18.7916C42.8426 16.7924 42.8426 14.7932 42.8641 12.794C42.8641 12.2351 43.0146 11.6976 43.5735 11.4182C43.81 11.2892 44.0894 11.2032 44.3689 11.1817C44.7988 11.1387 45.2502 11.1172 45.7017 11.1172C47.8299 11.1172 49.9795 11.0957 52.1077 11.1172C52.4947 11.1172 52.9031 11.2032 53.2901 11.2892C53.9135 11.4397 54.2144 11.8911 54.2789 12.493C54.3434 13.0949 54.3649 13.7183 54.4079 14.3632C53.3975 14.3632 52.4517 14.3632 51.4628 14.3632C51.4628 14.3417 51.4628 14.2773 51.4628 14.2128C51.4628 13.7183 51.4628 13.6968 50.9684 13.6753C50.1085 13.6323 49.2701 13.5679 48.4103 13.5894C47.6579 13.6109 46.9055 13.7183 46.1746 13.7828C46.1101 13.7828 46.0456 13.7828 45.9596 13.7828C45.9166 14.1268 45.8307 14.4922 45.8092 14.8577C45.7662 15.2661 45.7447 15.696 45.7662 16.1045C45.8092 16.7494 45.8951 17.3943 45.9811 18.0392C45.9811 18.0822 46.0886 18.1682 46.1531 18.1682C47.4859 18.1897 48.8402 18.2112 50.173 18.2327C50.4955 18.2327 50.8179 18.2112 51.1404 18.1897C51.3553 18.1682 51.4843 18.0822 51.4843 17.8242C51.4628 17.5878 51.4843 17.3298 51.4843 17.0503C50.4955 17.0503 49.5066 17.0503 48.5178 17.0503C48.4963 16.3409 48.4963 15.6745 48.4963 15.0081Z" fill="black"/>
<path d="M2.30016 13.718C2.30016 14.062 2.30016 14.4059 2.30016 14.7714C2.90207 14.7714 3.50398 14.7714 4.08439 14.7714C5.15924 14.7714 6.23408 14.7499 7.30892 14.7714C7.84634 14.7714 8.36226 14.8359 8.89968 14.9219C9.4156 15.0079 9.71656 15.3733 9.82404 15.8677C9.99602 16.7276 10.039 17.5875 9.93153 18.4473C9.88853 18.8343 9.82404 19.1997 9.71656 19.5652C9.58758 20.0811 9.13615 20.2746 8.7492 20.3391C6.94347 20.597 5.13774 20.4036 3.3535 20.4465C2.6871 20.468 2.0422 20.4465 1.3758 20.4465C0.709395 20.4251 0 19.8876 0 19.2427C0 18.6408 0 18.0389 0 17.4155C0.730892 17.4155 1.48328 17.4155 2.25717 17.4155C2.25717 17.652 2.25717 17.9099 2.25717 18.1679C4.0414 18.1679 5.82564 18.1679 7.60987 18.1679C7.60987 17.8024 7.60987 17.437 7.60987 17.0501C7.37341 17.0501 7.11545 17.0501 6.87898 17.0501C5.09475 17.0286 3.33201 17.0286 1.54777 17.0071C1.13933 17.0071 0.709395 16.8996 0.386943 16.6416C0.257962 16.5341 0.150478 16.3622 0.128981 16.2117C0.0644905 15.9322 0.0214969 15.6313 0.0214969 15.3303C8.16835e-08 14.4919 8.16835e-08 13.6536 0.0214969 12.8152C0.0214969 12.3637 0.150478 11.9553 0.47293 11.6114C0.752389 11.3319 1.09634 11.2459 1.46178 11.2029C1.89172 11.1599 2.32166 11.1384 2.77309 11.1384C4.51433 11.1384 6.23408 11.1384 7.97532 11.1599C8.29777 11.1599 8.62022 11.2459 8.92118 11.3319C9.50159 11.5039 9.73806 11.9553 9.80255 12.5142C9.86704 13.1376 9.88854 13.761 9.91003 14.4059C9.11465 14.4059 8.31927 14.4059 7.50239 14.4059C7.50239 14.191 7.50239 13.976 7.50239 13.7395C5.71815 13.718 4.0199 13.718 2.30016 13.718Z" fill="black"/>
<path d="M10.9418 11.0957C11.7587 11.0957 12.5756 11.0957 13.4139 11.0957C13.4139 13.4389 13.4139 15.7605 13.4139 18.1037C15.4776 18.1037 17.5413 18.1037 19.6265 18.1037C19.6265 15.7605 19.6265 13.4389 19.6265 11.0957C20.5294 11.0957 21.4108 11.0957 22.2921 11.0957C22.2921 11.1817 22.2921 11.2892 22.2921 11.3752C22.2921 13.6538 22.2921 15.954 22.2921 18.2326C22.2921 18.5981 22.2276 18.9635 22.1417 19.3075C21.9912 19.9524 21.4967 20.2533 20.8948 20.3393C20.5509 20.3823 20.1854 20.4253 19.82 20.4253C17.6488 20.4253 15.4561 20.4253 13.285 20.4253C12.8765 20.4253 12.4466 20.3823 12.0596 20.2963C11.4577 20.1674 11.1138 19.7374 11.0063 19.1355C10.9633 18.8775 10.9418 18.5981 10.9418 18.3186C10.9418 15.9755 10.9418 13.6108 10.9418 11.2677C10.9203 11.2032 10.9418 11.1602 10.9418 11.0957Z" fill="black"/>
<path d="M75.497 9.26831C75.1531 9.89172 74.8091 10.5366 74.4652 11.1815C74.2072 11.633 73.9492 12.1059 73.7128 12.5573C72.8099 14.2126 71.9071 15.8678 71.0042 17.5231C70.3163 18.7914 69.6284 20.0812 68.919 21.3495C68.79 21.5645 68.7255 21.8869 68.5321 21.9944C68.3386 22.1019 68.0376 22.0374 67.7797 22.0374C67.0273 22.0374 66.2749 22.0374 65.4795 22.0374C65.8449 21.371 66.2104 20.7261 66.5758 20.0812C67.3927 18.6409 68.2311 17.2006 69.048 15.7389C69.7574 14.4705 70.4668 13.2022 71.1762 11.9554C71.6706 11.0955 72.1435 10.2357 72.6379 9.37579C72.6809 9.3113 72.7669 9.26831 72.8314 9.26831C73.7343 9.26831 74.6156 9.26831 75.497 9.26831Z" fill="#E30613"/>
<path d="M71.0039 22.0589C73.4115 17.781 75.8192 13.5462 78.2483 9.26831C79.1512 9.26831 80.0755 9.26831 80.9999 9.26831C80.8924 9.50478 80.7634 9.76274 80.613 10.0207C80.226 10.7516 79.8176 11.461 79.4306 12.1704C78.5923 13.6967 77.7539 15.2229 76.9155 16.7707C76.3136 17.867 75.7332 18.9419 75.1528 20.0382C74.8303 20.6401 74.4864 21.2635 74.1639 21.8654C74.0779 22.0159 73.9919 22.0804 73.82 22.0589C72.8956 22.0589 71.9498 22.0589 71.0039 22.0589Z" fill="black"/>
<path d="M67.4782 9.24683C68.3811 9.24683 69.3054 9.24683 70.2513 9.24683C70.0148 9.67676 69.7783 10.1282 69.5419 10.5796C69.2624 11.0956 68.983 11.59 68.7035 12.1059C67.7576 13.8471 66.8118 15.5884 65.8659 17.3296C65.264 18.426 64.6836 19.5008 64.1032 20.5971C63.8882 21.0056 63.6518 21.4355 63.4368 21.844C63.3508 21.9944 63.2648 22.0589 63.0928 22.0589C62.147 22.0374 61.2226 22.0589 60.2553 22.0589C62.6414 17.7811 65.0491 13.5462 67.4782 9.24683Z" fill="black"/>
<path d="M42.0911 20.4683C41.1453 20.4683 40.2209 20.4683 39.2965 20.4683C39.2965 17.3298 39.2965 14.2127 39.2965 11.0957C40.2209 11.0957 41.1453 11.0957 42.0911 11.0957C42.0911 14.2127 42.0911 17.3298 42.0911 20.4683Z" fill="black"/>
</svg>
