<svg width="30" height="30" viewBox="0 0 30 30" fill="none" xmlns="http://www.w3.org/2000/svg">
<g clip-path="url(#clip0_315_1411)">
<path d="M19.4392 22.5502C19.3968 22.4761 19.3439 22.4126 19.2698 22.3597C19.1958 22.3174 19.0899 22.2856 18.963 22.2856C18.836 22.2856 18.7302 22.3068 18.6561 22.3597C18.582 22.4126 18.5503 22.4444 18.5185 22.529C18.4762 22.6137 18.4656 22.6983 18.4656 22.8042C18.4656 22.91 18.4656 23.037 18.4656 23.1534V23.7142L19.5132 23.492V23.0687C19.5132 22.9735 19.5132 22.8888 19.5132 22.783C19.5132 22.7089 19.4815 22.6243 19.4392 22.5502Z" fill="black"/>
<path d="M24.7302 25.2382C24.7302 25.6403 24.9206 25.8096 25.2063 25.8096C25.5767 25.8096 25.7778 25.4604 25.7778 25.2382C25.7778 25.1218 25.7778 25.0266 25.7778 24.9313V24.6774C25.7143 24.635 25.5344 24.5398 25.2063 24.5398C24.8677 24.5504 24.7302 24.8043 24.7302 25.2382Z" fill="black"/>
<path d="M-0.0423279 0V30H29.9577V0H-0.0423279ZM12.2011 22.2963H11.1534C11.1534 22.2963 11.1534 25.2275 11.1534 25.3228C11.1534 25.8413 11.8201 25.873 12.2011 25.5979V26.5714C11.9788 26.7937 11.4921 26.8677 11.2804 26.8677C10.6772 26.8677 10.1164 26.5291 10.1164 25.3862V22.2963H9.59788V21.2487H10.1164V19.6825H11.164V21.2487H12.2116V22.2963H12.2011ZM16.381 26.8571H15.3333V23.1746C15.3333 22.6349 15.2381 22.2857 14.8254 22.2857C14.3915 22.2857 14.2857 22.7513 14.2857 23.2063V26.8571H13.2381V19.6825H14.2857V21.8836C14.381 21.6085 14.6667 21.2487 15.0794 21.2487C15.3651 21.2487 15.5556 21.3016 15.7354 21.4074C15.9048 21.5132 16.0423 21.6508 16.1376 21.8201C16.2328 22 16.2963 22.2011 16.328 22.4339C16.3598 22.6667 16.3704 22.9101 16.3704 23.164V26.8571H16.381ZM20.5503 24.2328L18.4656 24.6349V24.9312C18.4656 25.037 18.4656 25.1534 18.4656 25.2698C18.4656 25.3757 18.4656 25.4815 18.4974 25.5661C18.5397 25.6508 18.5714 25.6931 18.6561 25.746C18.7302 25.7989 18.836 25.8201 18.9735 25.8201C19.1005 25.8201 19.2063 25.7989 19.2804 25.7566C19.3545 25.7143 19.4074 25.6508 19.4497 25.5767C19.4921 25.5026 19.5026 25.4497 19.5132 25.3545C19.5238 25.2593 19.5238 25.1323 19.5238 25.0265V24.9101L20.5714 24.9524V25.0582C20.5714 25.3016 20.5503 25.5344 20.5079 25.7566C20.4656 25.9788 20.3915 26.1693 20.2751 26.328C20.1587 26.4868 20 26.6243 19.7989 26.7196C19.5873 26.8148 19.3228 26.8571 18.9947 26.8571C18.6561 26.8571 18.381 26.8042 18.1799 26.6984C17.9683 26.5926 17.8095 26.455 17.6931 26.2857C17.5767 26.1058 17.5132 25.9577 17.4815 25.7778C17.4392 25.545 17.4497 25.2063 17.4497 24.9524V23.0794C17.4497 22.8254 17.4497 22.4974 17.5026 22.2751C17.545 22.0847 17.5873 22 17.7037 21.8201C17.8201 21.6508 17.9788 21.5026 18.1905 21.4074C18.4021 21.3016 18.6667 21.2487 19.0053 21.2487C19.3333 21.2487 19.6085 21.3016 19.8201 21.3968C20.0317 21.4921 20.1905 21.6296 20.3069 21.7989C20.4233 21.9683 20.4974 22.1587 20.5397 22.381C20.582 22.6032 20.6032 22.8254 20.6032 23.0688V24.2328H20.5503ZM22.6455 26.8571H21.5979V19.6825H22.6455V26.8571ZM26.8254 26.8571H25.7778V26.2751C25.7143 26.4656 25.619 26.5714 25.4921 26.6772C25.3651 26.7937 25.1852 26.8466 24.963 26.8466C24.0952 26.8466 23.6825 26.4444 23.6825 25.1429C23.6825 24.1376 24.1058 23.6825 24.7302 23.6402C25.3228 23.5979 25.6931 23.7672 25.7778 23.8095V23.0688C25.7778 22.5291 25.7037 22.2645 25.2381 22.2645C24.7831 22.2645 24.7302 22.5185 24.7302 23.037V23.1534H23.6825C23.6825 23.1534 23.672 22.5503 23.7143 22.328C23.7566 22.1164 23.8307 21.9259 23.9471 21.7566C24.0635 21.5873 24.2222 21.4603 24.4233 21.3651C24.6243 21.2698 24.8889 21.2169 25.2063 21.2169C25.5238 21.2169 25.7778 21.2593 25.9788 21.3545C26.1799 21.4392 26.3492 21.5661 26.4656 21.7249C26.582 21.8836 26.6667 22.0635 26.7196 22.2857C26.7725 22.4974 26.7936 22.7302 26.7936 22.9841V26.8571H26.8254Z" fill="black"/>
</g>
<defs>
<clipPath id="clip0_315_1411">
<rect width="30" height="30" fill="white"/>
</clipPath>
</defs>
</svg>
