<svg width="81" height="31" viewBox="0 0 81 31" fill="none" xmlns="http://www.w3.org/2000/svg">
<g clip-path="url(#clip0_863_1342)">
<rect width="81" height="30" transform="translate(0 0.246826)" fill="white"/>
<path d="M67.3727 19.763C66.9605 19.4763 66.5663 19.2075 66.1541 18.9207C63.3225 16.9852 60.1505 15.9817 56.7993 15.444C52.5699 14.763 48.3046 14.4404 44.0215 14.7809C41.0824 15.0139 38.1433 15.3723 35.2222 15.7308C34.9892 15.7666 34.7383 16.0713 34.595 16.3222C33.1254 18.7236 31.7813 21.2146 30.2043 23.5265C28.0537 26.6985 25.0967 28.8849 21.3333 29.8705C20.7777 30.0139 20.2043 30.1214 19.6487 30.2469C19.0752 30.2469 18.4838 30.2469 17.8924 30.2469C17.7849 30.211 17.6953 30.1394 17.5878 30.1214C15.6702 29.9064 14.1648 29.1537 13.5914 27.1465C13.5914 26.6985 13.5914 26.2505 13.5914 25.8024C14.8279 22.2003 17.5699 20.1214 20.8494 18.5802C24.3441 16.9315 28.0717 16.0713 31.8351 15.3903C32.2652 15.3186 32.4982 15.1394 32.6774 14.7451C33.3584 13.168 34.0752 11.6089 34.7742 10.0498C34.6846 9.97807 34.577 9.90639 34.4874 9.81678C34.2007 10.1752 33.9498 10.5874 33.6272 10.8921C32.4982 11.9136 31.3691 12.9351 30.1684 13.849C29.2007 14.5838 28.0717 14.9422 26.8172 14.6555C25.6881 14.4046 25.0071 13.6698 25.1147 12.5229C25.2043 11.5372 25.4014 10.4978 25.8315 9.61965C26.4229 8.36517 27.2652 7.2003 28.0179 6.0175C28.4122 5.37234 28.9139 4.78094 29.2545 4.11786C29.5412 3.5623 29.2724 3.2218 28.6451 3.20388C27.4803 3.18596 26.405 3.5623 25.5089 4.26123C24.4874 5.04976 23.5734 5.98166 22.6057 6.84187C22.2831 7.12861 21.9605 7.41535 21.638 7.70209C21.5842 7.66625 21.5125 7.61248 21.4588 7.57664C21.5125 7.41535 21.5484 7.23614 21.6559 7.09277C23.0717 5.24689 24.7204 3.66983 26.9605 2.89922C27.8208 2.59456 28.8064 2.48704 29.7025 2.59456C31.1899 2.77377 31.9247 4.1537 31.2437 5.49779C30.5269 6.89564 29.6129 8.16804 28.8423 9.53005C28.3584 10.3723 28 11.2863 27.5878 12.1824C27.534 12.2899 27.4982 12.3974 27.5161 12.505C27.6057 12.9709 27.5519 13.6161 27.8387 13.8311C28.1254 14.0462 28.8243 13.9924 29.1828 13.7774C32.1935 12.0569 34.7562 9.90639 35.9211 6.46553C36.2437 5.51571 36.638 4.58381 37.1039 3.70567C37.301 3.34725 37.7849 2.98883 38.1613 2.95299C38.7168 2.91714 39.3082 3.27557 39.4337 3.86696C39.5591 4.4942 39.6487 5.24689 39.4516 5.82037C38.8781 7.41535 38.1792 8.97449 37.4803 10.5157C36.9068 11.806 36.2795 13.0605 35.6881 14.3508C35.6165 14.4763 35.5806 14.6376 35.5089 14.8347C36.4767 14.7272 37.3907 14.6376 38.2867 14.548C43.6989 13.9924 49.1111 13.867 54.5053 14.4584C57.2473 14.763 59.9355 15.3007 62.5161 16.3222C64.362 17.0569 66.0645 18.0067 67.4086 19.53C67.3727 19.5838 67.3727 19.6734 67.3727 19.763ZM31.8351 16.4118C31.7993 16.3401 31.7455 16.2863 31.7096 16.2146C30.1684 16.5372 28.6093 16.824 27.086 17.2182C24.0573 17.9888 21.1541 19.082 18.6093 20.9458C17.319 21.8956 16.1899 22.9888 15.4552 24.4404C14.9534 25.444 14.6308 26.4834 15.3835 27.4691C16.1362 28.4548 17.2294 28.4727 18.3226 28.2935C21.4408 27.7559 24.1828 26.4118 26.2975 24.082C27.7491 22.487 29.0215 20.7128 30.2939 18.9745C30.8853 18.186 31.3154 17.272 31.8351 16.4118Z" fill="#585965"/>
<path d="M60.2401 0.264747C60.3476 0.372274 60.4552 0.4798 60.5627 0.587327C61.1362 1.21457 61.1362 1.60883 60.491 2.16439C60.1505 2.45113 59.81 2.73787 59.4157 2.95292C59.2186 3.06045 58.8423 3.11421 58.681 3.00668C58.5197 2.89915 58.3584 2.48697 58.4301 2.30776C58.7168 1.69844 59.0932 1.12496 59.4337 0.551485C59.5053 0.443958 59.595 0.354353 59.6666 0.246826C59.8817 0.264747 60.0609 0.264747 60.2401 0.264747Z" fill="#585965"/>
<path d="M49.4516 7.82754C50.8853 7.68417 52.1935 7.32575 53.4122 6.62683C53.5735 6.53722 53.6631 6.32217 53.7885 6.16088C54.5412 5.31858 55.2939 4.45837 56.0824 3.63399C56.4767 3.23973 56.9785 3.11428 57.4624 3.52647C58 3.95658 58.233 4.67342 57.8745 5.19314C57.4803 5.78453 56.9964 6.32217 56.5125 6.84188C55.5448 7.86339 54.8996 9.04618 54.8459 10.4799C54.81 11.7881 55.4731 12.272 56.7276 11.8777C56.9964 11.7881 57.2473 11.6985 57.5699 11.591C57.1577 12.4512 55.9032 12.8096 54.7742 12.4691C53.1075 11.9673 52.5161 10.3544 52.9641 7.46912C51.7993 7.77378 50.6523 8.06052 49.5054 8.3831C49.3799 8.41894 49.2724 8.68776 49.2366 8.86697C48.6631 11.1788 47.1398 12.4333 44.8279 12.7738C41.853 13.2218 39.5591 10.8741 40.1505 7.91715C40.6523 5.3365 42.2473 3.68776 44.7742 2.95299C45.8853 2.63041 46.1183 2.77378 46.638 3.79529C46.6917 3.90281 46.8172 4.01034 46.9247 4.02826C48.6631 4.40461 49.3082 5.60532 49.362 7.25407C49.3978 7.41536 49.4337 7.59457 49.4516 7.82754ZM44.2545 5.67701C42.8925 6.14296 41.7455 7.7021 41.6738 9.18955C41.5663 10.9458 42.5161 11.9852 44.2545 12.0928C46.1183 12.2003 48.0717 10.8025 48.5555 8.99242C48.5914 8.83113 48.6093 8.66984 48.6272 8.49063C45.2581 8.54439 44.2186 7.73794 44.2545 5.67701ZM47.8566 8.0426C48.7885 7.95299 48.8064 7.93507 48.7168 7.05693C48.681 6.7702 48.6452 6.48346 48.5735 6.19672C48.3046 5.13937 47.6416 4.69134 46.5484 4.79887C45.8136 4.87055 45.3118 5.26482 45.1684 5.87414C45.0072 6.5193 45.2581 7.16446 45.957 7.48704C46.5663 7.73794 47.2294 7.86339 47.8566 8.0426Z" fill="#585965"/>
</g>
<defs>
<clipPath id="clip0_863_1342">
<rect width="81" height="30" fill="white" transform="translate(0 0.246826)"/>
</clipPath>
</defs>
</svg>
