<svg width="94" height="30" viewBox="0 0 94 30" fill="none" xmlns="http://www.w3.org/2000/svg">
<g clip-path="url(#clip0_197_882)">
<path d="M93.2142 21.5521H0.719957C0.71169 21.5532 0.703291 21.5524 0.695319 21.55C0.687348 21.5476 0.679987 21.5435 0.673728 21.538C0.667469 21.5325 0.662455 21.5257 0.65902 21.5181C0.655585 21.5105 0.653809 21.5022 0.653809 21.494C0.653809 21.4856 0.655585 21.4773 0.65902 21.4697C0.662455 21.4621 0.667469 21.4554 0.673728 21.4499C0.679987 21.4443 0.687348 21.4403 0.695319 21.4378C0.703291 21.4354 0.71169 21.4347 0.719957 21.4358H93.22C93.2282 21.4347 93.2366 21.4354 93.2446 21.4378C93.2525 21.4403 93.26 21.4443 93.2662 21.4499C93.2725 21.4554 93.2775 21.4621 93.2809 21.4697C93.2843 21.4773 93.2861 21.4856 93.2861 21.494C93.2861 21.5022 93.2843 21.5105 93.2809 21.5181C93.2775 21.5257 93.2725 21.5325 93.2662 21.538C93.26 21.5435 93.2525 21.5476 93.2446 21.55C93.2366 21.5524 93.2282 21.5532 93.22 21.5521H93.2142Z" fill="#B9B9B9"/>
<path d="M41.5652 29.8721H40.9883V26.026L39.6969 29.8721H39.1575L37.869 26.026V29.8721H37.2998V25.3452H38.2065L39.4258 29.1173L40.6604 25.3452H41.5642L41.5652 29.8721Z" fill="#B9B9B9"/>
<path d="M43.8313 26.5143C44.0491 26.5111 44.2653 26.5506 44.4678 26.6307C44.6529 26.7054 44.8192 26.8204 44.9544 26.9672C45.094 27.1238 45.1992 27.3079 45.263 27.5076C45.3374 27.7416 45.3735 27.9862 45.3697 28.2316C45.3738 28.4787 45.3367 28.7246 45.2601 28.9595C45.1939 29.1586 45.0879 29.3421 44.9486 29.4989C44.8159 29.6459 44.6515 29.7606 44.4678 29.8345C44.2665 29.9138 44.0515 29.953 43.8351 29.9499C43.6212 29.9522 43.4087 29.9137 43.2092 29.8364C43.0244 29.7634 42.8584 29.6497 42.7236 29.5038C42.5823 29.3477 42.4749 29.164 42.4082 28.9643C42.3304 28.7281 42.2927 28.4804 42.2967 28.2316C42.2927 27.9858 42.33 27.7411 42.4072 27.5076C42.4724 27.3078 42.5786 27.1238 42.7188 26.9672C42.8521 26.8209 43.0164 26.7059 43.1996 26.6307C43.4004 26.5507 43.6151 26.5111 43.8313 26.5143ZM43.8313 29.4903C43.9615 29.492 44.0905 29.4651 44.2092 29.4114C44.3246 29.3571 44.4257 29.2764 44.5044 29.1759C44.5931 29.058 44.6584 28.9241 44.6967 28.7816C44.7876 28.4212 44.7876 28.0439 44.6967 27.6836C44.658 27.5415 44.5927 27.4081 44.5044 27.2903C44.4264 27.1887 44.3251 27.1073 44.2092 27.0528C44.0896 27.0009 43.9607 26.974 43.8303 26.974C43.6999 26.974 43.571 27.0009 43.4515 27.0528C43.3352 27.1067 43.2339 27.1883 43.1563 27.2903C43.0672 27.4076 43.0019 27.5413 42.964 27.6836C42.8717 28.0438 42.8717 28.4214 42.964 28.7816C43.0014 28.9244 43.0668 29.0585 43.1563 29.1759C43.2345 29.2768 43.3357 29.3576 43.4515 29.4114C43.5708 29.4652 43.7004 29.4921 43.8313 29.4903ZM44.4082 25.2595L43.7255 26.1307H43.263L43.6774 25.2595H44.4082Z" fill="#B9B9B9"/>
<path d="M48.672 26.5981L47.4374 29.8674H46.9124L45.6777 26.5981H46.3075L47.1729 29.1568L48.0441 26.5981H48.672Z" fill="#B9B9B9"/>
<path d="M50.5778 29.9499C50.3552 29.9528 50.1341 29.9137 49.9259 29.8345C49.7345 29.7618 49.5617 29.6471 49.4201 29.499C49.2748 29.3438 49.1631 29.1601 49.0923 28.9595C49.011 28.7256 48.9716 28.4793 48.9759 28.2317C48.9724 27.9883 49.0101 27.7461 49.0874 27.5153C49.1552 27.3156 49.2628 27.1318 49.4038 26.9749C49.5398 26.8273 49.7061 26.7109 49.8913 26.6336C50.0889 26.5523 50.3008 26.5118 50.5144 26.5143C50.7324 26.5111 50.9491 26.5506 51.1519 26.6307C51.335 26.706 51.4993 26.8209 51.6326 26.9672C51.7726 27.1235 51.8778 27.3077 51.9413 27.5076C52.0165 27.7415 52.0529 27.9861 52.049 28.2317V28.372H49.5846C49.5943 28.5407 49.6289 28.7068 49.6874 28.8653C49.735 28.9941 49.8069 29.1126 49.899 29.2143C49.9833 29.3051 50.0868 29.3761 50.2019 29.422C50.3217 29.4687 50.4493 29.4918 50.5778 29.4903C50.6753 29.4904 50.7723 29.4775 50.8663 29.4518C50.9577 29.428 51.0446 29.3891 51.123 29.3365C51.1977 29.2878 51.2614 29.224 51.3096 29.149C51.3588 29.0731 51.3851 28.9846 51.3855 28.8942H51.9971C51.9745 29.0536 51.9196 29.2068 51.8355 29.3442C51.7558 29.4743 51.6509 29.587 51.5269 29.6759C51.3968 29.7681 51.2517 29.837 51.098 29.8797C50.9289 29.9277 50.7537 29.9514 50.5778 29.9499ZM51.4365 27.9134C51.4168 27.7724 51.3776 27.6349 51.3201 27.5047C51.2719 27.3953 51.2041 27.2956 51.1201 27.2105C51.0425 27.133 50.9496 27.0727 50.8471 27.0336C50.741 26.9927 50.6281 26.9725 50.5144 26.974C50.4022 26.9731 50.2907 26.9926 50.1855 27.0317C50.083 27.0702 49.9899 27.1302 49.9124 27.2076C49.8288 27.2928 49.7608 27.3921 49.7115 27.5009C49.6526 27.632 49.6128 27.771 49.5932 27.9134H51.4365Z" fill="#B9B9B9"/>
<path d="M53.2854 25.9779H52.7085V25.3452H53.2854V25.9779ZM53.2854 29.8721H52.7085V26.6029H53.2854V29.8721Z" fill="#B9B9B9"/>
<path d="M55.3163 29.95C54.4254 29.95 53.9552 29.5975 53.9058 28.8923H54.4933C54.4933 29.2891 54.7658 29.4879 55.3106 29.4884C55.418 29.4904 55.5251 29.4774 55.6288 29.45C55.712 29.428 55.7905 29.3911 55.8606 29.3413C55.9196 29.2981 55.968 29.2418 56.0019 29.1769C56.0342 29.1129 56.0507 29.0419 56.05 28.9702C56.0529 28.904 56.04 28.8381 56.0125 28.7779C55.9795 28.7222 55.9307 28.6777 55.8721 28.65C55.7799 28.6042 55.6833 28.5678 55.5836 28.5413C55.4606 28.5057 55.2952 28.4625 55.1029 28.4096C54.9106 28.3567 54.7404 28.3134 54.6 28.2673C54.4758 28.2277 54.3586 28.1686 54.2529 28.0923C54.1644 28.0274 54.0947 27.9402 54.051 27.8394C54.0041 27.7168 53.9822 27.586 53.9865 27.4548C53.9858 27.3243 54.0158 27.1956 54.074 27.0788C54.1327 26.962 54.216 26.8593 54.3183 26.7779C54.4326 26.6875 54.5632 26.62 54.7029 26.5788C54.8661 26.529 55.0361 26.5047 55.2067 26.5067C56.0702 26.5067 56.5086 26.8129 56.5221 27.425H55.9452C55.924 27.1192 55.6913 26.9663 55.25 26.9663C55.158 26.9657 55.0661 26.9752 54.976 26.9942C54.9001 27.0101 54.8273 27.0383 54.7606 27.0779C54.7024 27.1118 54.6531 27.1589 54.6163 27.2154C54.5814 27.2708 54.5634 27.3354 54.5644 27.4009C54.5627 27.4549 54.5709 27.5086 54.5885 27.5596C54.6127 27.6094 54.6535 27.6492 54.7038 27.6721C54.7891 27.7168 54.8791 27.752 54.9721 27.7769C55.0908 27.8129 55.2533 27.8557 55.4596 27.9057C55.6661 27.9557 55.8388 28.0064 55.9779 28.0577C56.1085 28.1005 56.2317 28.163 56.3433 28.2432C56.4373 28.3121 56.5119 28.4042 56.5596 28.5106C56.6111 28.6352 56.6353 28.7692 56.6308 28.9038C56.6307 29.0469 56.5978 29.188 56.5346 29.3163C56.4721 29.4443 56.3818 29.5567 56.2702 29.6452C56.1465 29.7426 56.0061 29.8165 55.8558 29.8634C55.6815 29.9199 55.4996 29.9491 55.3163 29.95Z" fill="#B9B9B9"/>
<path d="M18.6226 16.574H24.9668V13.2644H20.8735H14.1149H13.9976V16.574H16.2351H18.6226Z" fill="#B9B9B9"/>
<path d="M23.1466 6.38477H13.9976V9.69434H23.1466V6.38477Z" fill="#B9B9B9"/>
<path d="M25.0379 0.00195312H13.9976V3.31157H25.0379V0.00195312Z" fill="#B9B9B9"/>
<path d="M91.6643 2.22791L93.2441 0.00195312H89.1835L87.6055 2.22791L85.3354 5.43176L83.0652 2.22791L81.4872 0.00195312H77.4268L79.0055 2.22791L83.3056 8.28849L77.4268 16.5501H81.4872L85.3354 11.1443L89.1835 16.5501H93.2441L87.3651 8.28849L91.6643 2.22791Z" fill="#B9B9B9"/>
<path d="M69.1297 2.22791L68.0778 0.00195312H67.1105L66.9134 0.38753L65.9768 2.22791L58.6826 16.5501H62.3893L67.5115 6.49426L72.2336 16.5501H75.8922L72.0374 8.38753L69.1297 2.22791Z" fill="#B9B9B9"/>
<path d="M52.7207 2.22791L48.2707 6.28176L43.8053 2.22791L41.3534 0.00195312H40.2207V2.22791V16.5501H43.5255V6.42311L48.2707 10.7433L53.0159 6.42311V15.4933V16.5501H56.3207V10.3337V2.22791V0.00195312H55.164L52.7207 2.22791Z" fill="#B9B9B9"/>
<path d="M9.19856 7.56635C9.7515 6.76706 10.0474 5.81807 10.0466 4.84615C10.0446 3.62862 9.5847 2.45637 8.75837 1.56217C7.93203 0.667976 6.79966 0.117212 5.58606 0.0192309C5.45818 0.00961548 5.33029 0 5.20145 0H0.687988V16.5481H3.61491V9.76538L6.10433 9.74231C6.37035 9.73644 6.63485 9.78385 6.88232 9.88163C7.12978 9.97933 7.35524 10.1256 7.54544 10.3116C7.73563 10.4977 7.88675 10.7199 7.98993 10.9652C8.09309 11.2104 8.14624 11.4738 8.14624 11.7399C8.14624 12.006 8.09309 12.2694 7.98993 12.5146C7.88675 12.7599 7.73563 12.9821 7.54544 13.1682C7.35524 13.3542 7.12978 13.5005 6.88232 13.5982C6.63485 13.696 6.37035 13.7434 6.10433 13.7375H4.96683V16.55H6.14856C7.19579 16.5512 8.21704 16.2239 9.06863 15.6145C9.92023 15.005 10.5593 14.1438 10.8959 13.1522C11.2327 12.1606 11.25 11.0884 10.9454 10.0863C10.641 9.08434 10.03 8.20302 9.19856 7.56635ZM5.06395 6.55H3.62164V2.76731H5.06395C5.98606 2.76731 6.97837 3.47692 6.97837 4.63558C6.97837 5.79423 5.98318 6.55 5.06106 6.55H5.06395Z" fill="#B9B9B9"/>
<path d="M37.5911 13.2645H31.4209V0.00195312H29.8758H28.1113V2.62407V16.5501H37.5911V13.2645Z" fill="#B9B9B9"/>
</g>
<defs>
<clipPath id="clip0_197_882">
<rect width="92.6923" height="30" fill="white" transform="translate(0.653809)"/>
</clipPath>
</defs>
</svg>
