<svg width="110" height="30" viewBox="0 0 110 30" fill="none" xmlns="http://www.w3.org/2000/svg">
<g clip-path="url(#clip0_197_1003)">
<path d="M63.0824 24.084L61.9218 28.4631H61.8904L60.7075 24.084H59.6735L59.6724 29.6004H60.3214L60.322 25.0346H60.3459L61.5653 29.6004H62.1995L63.4361 25.0346H63.4594L63.4583 29.6004H64.1627L64.1638 24.084H63.0824Z" fill="#B9B9B9"/>
<path d="M73.129 24.084L72.0716 28.7903H72.0562L71.0011 24.084H70.2266L71.5863 29.6004H72.4942L73.8796 24.084H73.129Z" fill="#B9B9B9"/>
<path d="M74.9998 24.084L74.998 29.6004H77.4077V28.9695H75.6796V27.0296H77.2207L77.2212 26.4449H75.6796V24.7079H77.3307V24.084H74.9998Z" fill="#B9B9B9"/>
<path d="M78.8009 24.084L78.8003 29.6004H79.5041L79.5058 24.084H78.8009Z" fill="#B9B9B9"/>
<path d="M83.6939 28.003C83.6939 28.2525 83.6545 28.4772 83.5764 28.6769C83.5068 28.8642 83.3985 29.0353 83.2599 29.1795C83.1258 29.3155 82.9644 29.4217 82.7865 29.491C82.6 29.5646 82.4004 29.6017 82.1996 29.6003C81.9224 29.6015 81.6486 29.5415 81.3977 29.4248C81.145 29.3085 80.9431 29.1543 80.792 28.9624L81.2061 28.456C81.3258 28.6115 81.4798 28.7369 81.6566 28.8223C81.8249 28.9079 82.0108 28.9532 82.1996 28.9547C82.4346 28.9547 82.6279 28.8768 82.7791 28.721C82.9308 28.5651 83.0061 28.3391 83.0061 28.043C83.0089 27.9162 82.985 27.7902 82.9359 27.6731C82.8886 27.5655 82.823 27.467 82.7409 27.3825C82.6547 27.2947 82.5589 27.2165 82.4557 27.1493C82.3433 27.0763 82.227 27.0097 82.1072 26.9501C81.9589 26.8793 81.8163 26.7974 81.6806 26.705C81.5494 26.6153 81.4296 26.5094 81.3253 26.3898C81.2175 26.2646 81.1342 26.1206 81.0789 25.9652C81.019 25.8011 80.9888 25.6076 80.9893 25.3845C80.9893 25.1197 81.031 24.8885 81.1142 24.6909C81.189 24.5059 81.3024 24.3386 81.4467 24.2001C81.5825 24.0719 81.7439 23.9736 81.9201 23.9117C82.0935 23.8503 82.276 23.8187 82.4602 23.8184C82.726 23.8184 82.9644 23.8624 83.1755 23.9507C83.3831 24.036 83.565 24.1728 83.7036 24.3482L83.281 24.8467C83.0831 24.5871 82.8173 24.4572 82.4836 24.4569C82.3832 24.4571 82.284 24.4744 82.1899 24.508C82.0918 24.543 82.0023 24.5988 81.9275 24.6716C81.846 24.7524 81.7821 24.8491 81.7399 24.9557C81.6926 25.0701 81.6697 25.2078 81.6697 25.3684C81.6663 25.4923 81.6891 25.6155 81.7353 25.7303C81.7793 25.8309 81.8403 25.9231 81.9156 26.0029C81.9943 26.0858 82.0821 26.159 82.1779 26.2211C82.2812 26.2885 82.3884 26.3495 82.499 26.4038C82.6462 26.478 82.7899 26.56 82.9285 26.6494C83.0694 26.7407 83.1983 26.8493 83.3123 26.9728C83.4298 27.1024 83.5239 27.2515 83.5901 27.4133C83.6602 27.5818 83.6956 27.7782 83.695 28.0014" fill="#B9B9B9"/>
<path d="M39.4567 10.4977C38.7972 10.4977 38.1813 10.6012 37.609 10.8084C37.0506 11.0072 36.5419 11.3238 36.1179 11.7367C35.6958 12.1485 35.3632 12.6593 35.1202 13.2691C34.8771 13.8789 34.7556 14.5897 34.7556 15.4014C34.7556 16.2071 34.8682 16.9062 35.0934 17.4987C35.3185 18.0913 35.6389 18.5818 36.0547 18.97C36.4699 19.3587 36.9699 19.6463 37.5546 19.8327C38.1392 20.0192 38.7904 20.1124 39.5082 20.1124C39.7043 20.1124 39.9121 20.1023 40.1314 20.082C40.3508 20.0618 40.5717 20.0328 40.7942 19.9952C41.0163 19.9562 41.2337 19.9128 41.4445 19.8635C41.6356 19.8191 41.8242 19.7649 42.0098 19.7012V20.9622C41.6636 21.0963 41.2621 21.1998 40.8053 21.2729C40.3399 21.3464 39.8694 21.3829 39.3982 21.382C38.4194 21.382 37.5518 21.2464 36.7953 20.9751C36.0387 20.7038 35.4042 20.3142 34.8917 19.8064C34.3787 19.2986 33.9904 18.6782 33.7266 17.9453C33.4627 17.2124 33.3309 16.3821 33.3311 15.4543C33.3311 14.5429 33.4703 13.7052 33.7488 12.9412C34.0272 12.1772 34.4287 11.5205 34.9532 10.9709C35.4781 10.4214 36.1142 9.99377 36.8612 9.68801C37.6084 9.38231 38.448 9.22894 39.3802 9.22803C39.6269 9.22803 39.8696 9.23829 40.1104 9.2586C40.3513 9.2789 40.5806 9.30845 40.8005 9.34586C41.0064 9.38059 41.2104 9.42611 41.4116 9.48217C41.5767 9.52649 41.7386 9.58198 41.8961 9.6482V10.9096C41.5139 10.786 41.1239 10.6876 40.7286 10.6153C40.3092 10.5367 39.8834 10.4971 39.4567 10.497" fill="#B9B9B9"/>
<path d="M48.5953 11.2679C48.0704 12.7267 47.5692 14.0521 47.0917 15.244L46.6518 16.3472H50.551L50.1051 15.2447C49.6227 14.0315 49.1314 12.706 48.6313 11.2679H48.5953ZM43.1963 21.1635L47.9886 9.44702H49.2277L54.0198 21.1635H52.4637L51.0583 17.6347H46.1404L44.7351 21.1635H43.1963Z" fill="#B9B9B9"/>
<path d="M57.2557 10.7337V15.0253H58.6714C59.1111 15.0253 59.4864 15.0107 59.7967 14.9813C60.0802 14.9573 60.3602 14.9045 60.6322 14.8236C61.1313 14.6719 61.5151 14.4297 61.7843 14.0971C62.0535 13.7644 62.1881 13.3292 62.1881 12.7915C62.1819 12.2902 62.0524 11.886 61.8009 11.5789C61.5494 11.2718 61.2003 11.0515 60.7549 10.9179C60.5438 10.8539 60.2912 10.8077 59.998 10.7771C59.7054 10.7466 59.3319 10.7333 58.8819 10.7333L57.2557 10.7337ZM57.2557 16.3114V21.1635H55.8223V9.44702H58.871C59.3855 9.44702 59.8229 9.46596 60.1828 9.50388C60.517 9.53731 60.8478 9.59708 61.1724 9.68263C61.9919 9.90501 62.6188 10.2831 63.0516 10.8169C63.4851 11.3508 63.7018 12.018 63.7018 12.8184C63.7018 13.2912 63.626 13.7143 63.4737 14.0876C63.3277 14.4517 63.1092 14.7826 62.8315 15.0605C62.556 15.3347 62.2258 15.5595 61.8419 15.7348C61.4341 15.9173 61.0041 16.0465 60.5632 16.1194V16.155L64.0452 21.1635H62.6119L58.9891 16.3114H57.2557Z" fill="#B9B9B9"/>
<path d="M67.9133 10.7337V15.0253H69.3288C69.7686 15.0253 70.1439 15.0107 70.4541 14.9813C70.7376 14.9573 71.0176 14.9045 71.2897 14.8236C71.7876 14.6716 72.172 14.4295 72.4418 14.0971C72.7115 13.7647 72.8461 13.3295 72.8456 12.7915C72.8399 12.2902 72.711 11.886 72.4589 11.5789C72.2068 11.2718 71.8583 11.0515 71.4123 10.9179C71.2007 10.8539 70.9492 10.8077 70.656 10.7771C70.3623 10.7466 69.9899 10.7333 69.5393 10.7333L67.9133 10.7337ZM67.9133 16.3114V21.1635H66.48V9.44702H69.5285C70.0435 9.44702 70.4809 9.46596 70.8408 9.50388C71.1745 9.53731 71.5047 9.59708 71.8287 9.68263C72.6488 9.90501 73.275 10.2831 73.7085 10.8169C74.142 11.3508 74.3587 12.018 74.3593 12.8184C74.3593 13.2912 74.2828 13.7143 74.13 14.0876C73.984 14.4517 73.7655 14.7826 73.4878 15.0605C73.2123 15.3347 72.8826 15.5595 72.4988 15.7348C72.0904 15.9172 71.6604 16.0465 71.2195 16.1194V16.155L74.7015 21.1635H73.2682L69.6454 16.3114H67.9133Z" fill="#B9B9B9"/>
<path d="M81.35 11.2679C80.8252 12.7267 80.3239 14.0521 79.8465 15.244L79.4068 16.3472H83.3062L82.8602 15.2447C82.3777 14.0315 81.8861 12.706 81.3865 11.2679H81.35ZM75.9517 21.1635L80.7437 9.44702H81.9836L86.7756 21.1635H85.2191L83.8138 17.6347H78.8952L77.4904 21.1635H75.9517Z" fill="#B9B9B9"/>
<path d="M90.0115 10.7337V15.0253H91.4271C91.8668 15.0253 92.2415 15.0107 92.5524 14.9813C92.8358 14.9573 93.1153 14.9045 93.3873 14.8236C93.8858 14.6716 94.2697 14.4295 94.54 14.0971C94.8098 13.7647 94.9444 13.3295 94.9432 12.7915C94.9381 12.2902 94.8092 11.886 94.5571 11.5789C94.305 11.2718 93.9565 11.0515 93.5105 10.9179C93.2995 10.8539 93.0474 10.8077 92.7543 10.7771C92.4611 10.7466 92.0881 10.7333 91.6375 10.7333L90.0115 10.7337ZM90.0115 16.3114V21.1635H88.5776V9.44702H91.6261C92.1417 9.44702 92.5792 9.46596 92.9385 9.50388C93.2727 9.53725 93.6035 9.59702 93.928 9.68263C94.747 9.90501 95.3733 10.2829 95.8067 10.8164C96.2402 11.3498 96.4569 12.0169 96.4569 12.8178C96.4569 13.2907 96.3805 13.7138 96.2276 14.087C96.0822 14.4511 95.8638 14.7821 95.586 15.0599C95.3105 15.3341 94.9803 15.5589 94.597 15.7342C94.1887 15.9166 93.7586 16.0459 93.3177 16.1188V16.1544L96.7997 21.1629H95.3664L91.743 16.3108L90.0115 16.3114Z" fill="#B9B9B9"/>
<path d="M108.327 15.3141C108.327 14.5258 108.223 13.8311 108.016 13.2301C107.808 12.6291 107.523 12.1268 107.158 11.7234C106.802 11.3269 106.362 11.0143 105.869 10.8084C105.374 10.601 104.843 10.4972 104.275 10.4972C103.706 10.4972 103.174 10.601 102.678 10.8084C102.186 11.0143 101.746 11.3268 101.39 11.7234C101.025 12.1264 100.739 12.6287 100.532 13.2301C100.325 13.8315 100.221 14.5262 100.221 15.3141C100.221 16.1017 100.326 16.7949 100.537 17.3938C100.747 17.9926 101.034 18.4931 101.399 18.8952C101.754 19.2918 102.194 19.6033 102.688 19.8064C103.182 20.0107 103.717 20.1127 104.292 20.1124C104.861 20.1124 105.39 20.0104 105.879 19.8064C106.369 19.6016 106.806 19.2902 107.159 18.8952C107.524 18.4921 107.809 17.9916 108.017 17.3938C108.224 16.796 108.328 16.1028 108.328 15.3141M109.753 15.3141C109.753 16.2013 109.625 17.0158 109.369 17.7575C109.113 18.4992 108.747 19.1385 108.269 19.6751C107.792 20.2121 107.205 20.6403 106.547 20.9309C105.875 21.232 105.123 21.3824 104.292 21.382C103.431 21.382 102.66 21.2316 101.981 20.9309C101.301 20.6301 100.725 20.2115 100.253 19.6751C99.7825 19.1374 99.4215 18.4982 99.1711 17.7575C98.9213 17.0168 98.7964 16.2024 98.7964 15.3141C98.7964 14.4207 98.9259 13.6019 99.1842 12.8577C99.4432 12.1136 99.8093 11.4728 100.283 10.9355C100.76 10.3971 101.347 9.96827 102.006 9.679C102.68 9.37831 103.436 9.22803 104.273 9.22803C105.128 9.22803 105.894 9.37831 106.572 9.679C107.249 9.97962 107.823 10.3985 108.295 10.9355C108.766 11.4726 109.126 12.1133 109.376 12.8577C109.627 13.6022 109.752 14.421 109.753 15.3141Z" fill="#B9B9B9"/>
<path d="M19.1687 17.7526C18.2878 19.0854 16.7929 19.9623 15.0968 19.9623C12.3879 19.9623 10.192 17.7263 10.192 14.9675C10.192 12.2087 12.3879 9.97203 15.0968 9.97203C16.8228 9.97203 18.3394 10.8808 19.2133 12.2529L28.6661 9.55141C26.5313 3.96186 21.1977 0 14.9545 0C6.83201 0 0.24707 6.70597 0.24707 14.9782C0.24707 23.2503 6.83201 29.9563 14.9545 29.9563C21.2332 29.9563 26.5915 25.9494 28.7016 20.3097L19.1687 17.7526Z" fill="#B9B9B9"/>
<path d="M67.7394 23.6475H67.2142L67.9185 22.5256H68.5756L67.7394 23.6475ZM68.6543 26.8341C68.6554 26.539 68.6309 26.2443 68.5801 25.9535C68.5305 25.6785 68.4575 25.4396 68.3617 25.2368C68.2653 25.034 68.145 24.8744 68.0012 24.7579C67.8621 24.6423 67.6858 24.58 67.5045 24.5822C67.3197 24.5794 67.1394 24.6416 66.9957 24.7579C66.8497 24.8746 66.7288 25.0343 66.6324 25.2368C66.536 25.4393 66.4642 25.6782 66.4168 25.9535C66.3233 26.5369 66.3233 27.1314 66.4168 27.7147C66.4642 27.9896 66.5355 28.2285 66.6318 28.4315C66.7282 28.6344 66.8491 28.7941 66.9952 28.9106C67.1389 29.0265 67.3191 29.0884 67.5039 29.0857C67.6853 29.0878 67.8609 29.0258 68.0007 28.9106C68.1438 28.7935 68.2636 28.6338 68.36 28.4315C68.4569 28.2291 68.5299 27.9901 68.5796 27.7147C68.6303 27.4239 68.6554 27.1293 68.6537 26.8341M69.3974 26.8341C69.3974 27.2652 69.3541 27.6585 69.268 28.0143C69.1813 28.37 69.0564 28.6754 68.8921 28.9305C68.7279 29.1851 68.5294 29.3825 68.2978 29.5225C68.0657 29.6626 67.801 29.7326 67.5039 29.7326C67.2062 29.7326 66.9404 29.6626 66.706 29.5225C66.471 29.3825 66.2714 29.1851 66.1071 28.9305C65.9434 28.6758 65.818 28.3706 65.7318 28.0147C65.6457 27.6588 65.603 27.2655 65.6035 26.8345C65.6035 26.4034 65.6452 26.01 65.7284 25.654C65.8117 25.298 65.9343 24.9941 66.0963 24.7422C66.2577 24.4905 66.4573 24.2958 66.6952 24.1582C66.933 24.0205 67.2028 23.9517 67.505 23.9517C67.8022 23.9517 68.0668 24.0205 68.299 24.1582C68.5311 24.2958 68.729 24.4905 68.8933 24.7422C69.0569 24.9947 69.1824 25.2986 69.2685 25.654C69.3552 26.0093 69.398 26.4028 69.3974 26.8345" fill="#B9B9B9"/>
</g>
<defs>
<clipPath id="clip0_197_1003">
<rect width="109.506" height="30" fill="white" transform="translate(0.24707)"/>
</clipPath>
</defs>
</svg>
