<svg width="66" height="30" viewBox="0 0 66 30" fill="none" xmlns="http://www.w3.org/2000/svg">
<path d="M36.1417 1.1471C35.1256 1.21485 34.132 1.26001 33.1158 1.37292C32.348 1.44067 31.5802 1.57616 30.8124 1.71165C30.3608 1.80198 29.9769 2.00521 29.7285 2.45685C29.4575 2.93107 29.0285 3.22463 28.5091 3.40529C28.351 3.45045 28.1929 3.5182 28.0574 3.56336C27.2671 3.81176 26.7025 4.28598 26.3864 5.05376C26.2057 5.46024 26.0251 5.86671 25.867 6.29577C24.9411 8.75719 23.112 9.99919 20.5828 10.3605C19.4763 10.5186 18.3698 10.6541 17.2859 10.8573C15.7729 11.1057 14.3051 11.5348 12.8598 12.0541C12.4759 12.1896 12.1598 12.1671 11.8436 11.9638C11.5275 11.7606 11.2339 11.5348 10.9404 11.2864C10.8049 11.1735 10.692 10.9928 10.5113 10.767C11.0759 10.6992 11.5275 10.6541 12.0017 10.5863C13.3115 10.4283 14.6212 10.225 15.8632 9.81854C16.4729 9.6153 17.0375 9.3669 17.5343 8.96043C17.873 8.68945 18.1214 8.35072 18.3246 7.94424C18.573 7.42486 18.5279 6.95064 18.144 6.54417C17.8278 6.20544 17.4665 5.8893 17.0826 5.64089C16.1116 5.0086 15.0503 4.55696 13.9438 4.19565C12.1146 3.58594 10.2629 3.04398 8.43378 2.45685C8.07247 2.34394 7.666 2.25361 7.30469 1.98263C7.93698 1.48583 8.61444 1.28259 9.33706 1.16968C10.7823 0.943864 12.2501 0.966446 13.6954 1.23743C14.6664 1.41808 15.6374 1.50841 16.6084 1.6439C18.2569 1.8923 19.8828 2.18587 21.5313 2.36652C22.1861 2.45685 22.8636 2.3891 23.5185 2.32136C24.1959 2.25361 24.7379 1.93747 25.1444 1.35034C25.6863 0.605136 26.3864 0.108335 27.3348 0.0180077C27.8768 -0.0271561 28.4413 -0.00457487 28.9155 0.288989C29.7962 0.830954 30.7673 0.876119 31.7383 0.921283C33.2061 0.989028 34.6965 1.01161 36.1643 1.05677C36.1417 1.07936 36.1417 1.10194 36.1417 1.1471Z" fill="#B9B9B9"/>
<path d="M42.9841 18.3771C43.8874 17.4286 44.9262 16.7286 46.2359 16.5028C48.4941 16.1189 50.4361 16.6834 52.0169 18.4222C52.8524 19.3255 53.4169 20.3868 53.6428 21.5837C53.8912 22.916 53.9137 24.2709 53.3944 25.6033C53.0331 26.5291 52.5588 27.3421 51.904 28.0873C51.1136 28.968 50.1426 29.5325 48.9683 29.8261C48.5618 29.9164 48.1328 30.0293 47.7037 29.9841C47.4779 29.9841 47.2747 29.9841 47.0489 29.9841C45.581 29.939 44.2939 29.4196 43.2325 28.4034C43.097 28.2905 42.9615 28.155 42.8486 28.0421C42.826 28.0195 42.8035 27.9969 42.7809 27.9744C42.7809 27.9969 42.7809 28.0195 42.7809 28.0647C42.7809 28.6292 42.7809 29.1712 42.7809 29.7809C41.9228 29.7809 41.1324 29.7809 40.2969 29.7809C40.2969 23.4806 40.2969 17.1351 40.2969 10.7896C41.1098 10.7896 41.9228 10.7896 42.8035 10.7896C42.8035 10.9928 42.8035 11.1734 42.8035 11.3767C42.8035 13.5671 42.8035 15.735 42.8035 17.9254C42.8035 18.1287 42.826 18.3093 42.826 18.5126C42.8712 18.4448 42.939 18.4222 42.9841 18.3771ZM47.0263 27.6808C47.3198 27.6808 47.6134 27.726 47.8844 27.6808C49.6232 27.2969 50.662 26.213 51.091 24.5193C51.2717 23.7515 51.2717 22.9612 51.1136 22.1708C50.7749 20.6127 50.0071 19.4158 48.4263 18.919C46.9134 18.4222 45.5584 18.6706 44.339 19.7094C42.4873 21.2901 42.2615 24.0451 43.5938 25.9194C44.4294 27.0711 45.5359 27.7711 47.0263 27.6808Z" fill="#B9B9B9"/>
<path d="M14.8018 23.3676C14.8018 23.2547 14.8018 23.1417 14.8018 23.0514C14.9372 22.9159 14.9372 22.7804 14.8243 22.6224C15.0276 19.6641 17.2632 17.2479 19.9053 16.6156C23.2248 15.8252 26.1379 17.3608 27.5379 19.9125C28.4638 21.6062 28.667 23.4127 28.0573 25.2419C27.2444 27.6807 25.5733 29.2614 23.0667 29.826C19.8375 30.5486 16.947 28.9453 15.5695 26.3935C15.1179 25.5354 14.8695 24.6322 14.8018 23.6837C14.8243 23.5708 14.8018 23.4579 14.8018 23.3676ZM21.5763 27.613C23.8345 27.6807 26.0249 25.8516 26.0249 23.2095C26.0249 20.6352 24.0152 18.7609 21.5763 18.7609C19.1375 18.7383 17.1954 20.7255 17.1503 23.1643C17.1277 25.558 19.1601 27.6581 21.5763 27.613Z" fill="#B9B9B9"/>
<path d="M11.8212 25.0613C12.4761 25.3323 13.131 25.6258 13.8084 25.8968C13.1761 28.3583 9.90177 30.3229 6.69515 29.939C3.84983 29.6003 1.18517 27.2743 0.846446 23.729C0.530299 20.4546 2.78849 17.4286 5.81446 16.6383C8.9985 15.8027 12.4084 17.2706 13.8084 20.3643C13.56 20.6804 13.1536 20.6804 12.8374 20.8611C12.5213 21.0417 12.1374 21.1546 11.7761 21.2901C11.1664 20.1159 10.2857 19.2803 9.04367 18.8739C8.11781 18.5577 7.16937 18.5351 6.26609 18.8513C4.43696 19.461 3.0143 21.1772 3.08205 23.3451C3.1498 25.3323 4.52729 27.0485 6.35642 27.5679C8.47912 28.1776 10.3082 27.3421 11.8212 25.0613Z" fill="#B9B9B9"/>
<path d="M30.0225 10.7444C30.8354 10.7444 31.6258 10.7444 32.4387 10.7444C32.4387 17.0899 32.4387 23.3902 32.4387 29.7357C31.6484 29.7357 30.858 29.7357 30.0225 29.7357C30.0225 23.4128 30.0225 17.1125 30.0225 10.7444Z" fill="#B9B9B9"/>
<path d="M58.0691 29.7358C57.2336 29.7358 56.4432 29.7358 55.6077 29.7358C55.5851 29.6003 55.5625 29.4648 55.5625 29.3293C55.5625 26.755 55.5625 24.2032 55.5625 21.6289C55.5625 19.4159 56.7593 17.6771 58.7691 16.8867C59.5143 16.5931 60.3047 16.5254 61.1176 16.6383C61.1176 17.4512 61.1176 18.2416 61.1176 19.0094C60.6434 19.0997 60.1466 19.0997 59.7401 19.2804C58.5885 19.7546 58.0465 20.6804 58.0239 21.9225C58.0239 23.2322 58.0239 24.5645 58.0239 25.8743C58.0239 26.9808 58.0239 28.0873 58.0239 29.1712C58.0691 29.3745 58.0691 29.5325 58.0691 29.7358Z" fill="#B9B9B9"/>
<path d="M37.7001 29.7357C36.8645 29.7357 36.0742 29.7357 35.2612 29.7357C35.2612 25.3548 35.2612 21.0191 35.2612 16.6382C36.0742 16.6382 36.8871 16.6382 37.7001 16.6382C37.7001 20.9965 37.7001 25.3548 37.7001 29.7357Z" fill="#B9B9B9"/>
<path d="M62.5625 16.6382C63.3754 16.6382 64.1658 16.6382 65.0013 16.6382C65.0013 21.0191 65.0013 25.3774 65.0013 29.7583C64.1884 29.7583 63.398 29.7583 62.5625 29.7583C62.5625 25.3774 62.5625 21.0191 62.5625 16.6382Z" fill="#B9B9B9"/>
<path d="M63.6692 13.6124C63.0595 13.7027 62.2917 13.0027 62.3369 12.1672C62.382 11.3542 62.9917 10.7219 63.7595 10.7219C64.595 10.7219 65.2048 11.3542 65.1822 12.2123C65.1822 13.0253 64.5499 13.6124 63.6692 13.6124Z" fill="#B9B9B9"/>
<path d="M36.3451 13.6123C35.5773 13.5897 35.0127 12.98 35.0353 12.1444C35.0353 11.3315 35.6902 10.6992 36.4806 10.7218C37.3161 10.7444 37.9258 11.3992 37.9032 12.2348C37.8806 13.0477 37.2258 13.6123 36.3451 13.6123Z" fill="#B9B9B9"/>
<path d="M36.1421 1.14709C36.1421 1.10193 36.1421 1.07934 36.1421 1.03418C36.2324 1.03418 36.3227 1.03418 36.4131 1.03418C36.4131 1.07934 36.4131 1.10193 36.4131 1.14709C36.3227 1.14709 36.2324 1.14709 36.1421 1.14709Z" fill="#B9B9B9"/>
<path d="M42.9842 18.377C42.9391 18.3995 42.8713 18.4221 42.8262 18.4673C42.8713 18.4447 42.9391 18.4221 42.9842 18.377Z" fill="#B9B9B9"/>
<path d="M42.7812 28.0195C42.7812 27.9969 42.7812 27.9744 42.7812 27.9292C42.8038 27.9518 42.8264 27.9744 42.849 27.9969L42.8038 28.0195H42.7812Z" fill="#B9B9B9"/>
</svg>
