<svg width="92" height="30" viewBox="0 0 92 30" fill="none" xmlns="http://www.w3.org/2000/svg">
<path d="M15.3825 16.58C15.5705 17.8956 15.9811 19.1276 16.712 20.2413C16.7468 20.2969 16.7607 20.3735 16.7607 20.4362C16.7607 21.6334 16.7607 22.8236 16.7607 24.0626C16.6076 24.0626 16.4753 24.0626 16.3361 24.0626C13.5032 24.0626 10.6772 24.0069 7.84425 24.0765C4.08555 24.174 2.06003 21.9396 1.02987 19.4199C0.466066 18.0417 0.26421 16.6009 0.340776 15.1183C0.459106 12.9188 1.17604 10.9628 2.6656 9.32711C3.6192 8.28303 4.81641 7.66354 6.18764 7.36424C8.08787 7.05797 9.87674 7.36424 11.596 8.35264C11.603 8.17862 11.6169 8.06029 11.6169 7.935C11.6169 6.31319 11.6099 4.69138 11.6238 3.06261C11.6238 2.93732 11.7213 2.74243 11.8257 2.68674C13.4405 1.81667 15.0693 0.960526 16.7329 0.0834961C16.7398 0.187904 16.7607 0.271431 16.7607 0.354958C16.7607 3.77259 16.7607 7.19718 16.7538 10.6148C16.7538 10.7749 16.6911 10.9559 16.6076 11.0951C16.0508 12.0278 15.6192 13.0092 15.5009 14.0951C15.4104 14.9234 15.4173 15.7587 15.3825 16.58ZM9.90458 20.1995C10.2178 20.1995 10.531 20.1995 10.8443 20.1995C11.596 20.1995 11.603 20.1995 11.596 19.4478C11.5821 17.2065 11.5821 14.9582 11.5333 12.7169C11.5264 12.3689 11.3385 11.9652 11.1088 11.6867C10.3988 10.8236 9.14588 10.5382 8.1018 10.9628C6.74449 11.5127 6.24333 12.7099 5.99275 14.0116C5.84657 14.7842 5.77001 15.5707 5.88834 16.3712C6.03451 17.3805 6.27117 18.341 6.8837 19.1693C7.3779 19.8376 8.03219 20.2204 8.8953 20.1925C9.23637 20.1925 9.57047 20.1995 9.90458 20.1995Z" fill="#B9B9B9"/>
<path d="M51.9952 11.6451C52.0022 11.3528 52.0161 11.0674 52.0161 10.775C52.0161 9.29941 52.0161 7.83073 52.0161 6.3551C52.0161 5.54767 51.9952 4.74721 52.2528 3.9537C52.4686 3.29245 52.2876 2.64512 51.9952 2.01867C51.8908 1.78897 51.856 1.51751 51.8421 1.25997C51.8143 0.870179 51.8352 0.480388 51.8352 0.0349121C52.8514 0.570875 53.8189 1.08596 54.7864 1.59408C55.4129 1.92818 56.0324 2.26925 56.6658 2.58248C56.9164 2.7008 56.972 2.8609 56.9651 3.11844C56.9512 4.68456 56.9581 6.25069 56.9581 7.81681C56.9581 7.9421 56.9581 8.06739 56.9581 8.2066C57.5358 7.9769 58.0788 7.71936 58.6426 7.54535C59.5683 7.25997 60.501 7.1486 61.4894 7.22516C62.4709 7.30173 63.3758 7.53143 64.2389 7.98387C65.4639 8.62424 66.341 9.59871 67.0092 10.789C67.0649 10.8864 67.0579 11.0256 67.044 11.137C66.9117 12.1463 67.0857 13.0372 67.9628 13.6846C68.0393 13.7402 68.1159 13.8447 68.1159 13.9351C68.1577 14.5059 68.1855 15.0836 68.1994 15.6544C68.1994 15.724 68.1298 15.8145 68.0602 15.8632C66.9535 16.6498 66.3062 17.7286 66.1252 19.0651C66.0347 19.7194 66.1461 20.3737 66.3897 20.9931C66.4802 21.2159 66.4314 21.369 66.2853 21.55C65.6101 22.3922 64.7887 23.0326 63.8143 23.4781C62.9024 23.8609 61.9488 23.9862 60.9674 23.9862C58.1414 23.9723 55.3085 23.9792 52.4825 23.9792C52.3433 23.9792 52.2041 23.9792 52.0161 23.9792C52.0161 23.8191 52.0161 23.6799 52.0161 23.5477C52.0161 19.7124 52.0161 15.8771 52.0161 12.0349C52.0161 11.9166 52.0022 11.7774 51.9952 11.6451ZM56.979 20.137C57.9744 20.137 58.914 20.144 59.8537 20.137C60.501 20.13 61.044 19.8655 61.4755 19.3853C62.2203 18.5639 62.5544 17.5685 62.624 16.4827C62.6658 15.8354 62.6519 15.1741 62.624 14.5268C62.5823 13.6289 62.3456 12.7797 61.8375 12.021C61.3085 11.2275 60.5637 10.7959 59.624 10.7263C58.1553 10.6219 57.0068 11.6451 56.986 13.1138C56.9651 14.5268 56.979 15.9398 56.979 17.3528C56.979 18.2716 56.979 19.1834 56.979 20.137Z" fill="#B9B9B9"/>
<path d="M46.2527 20.4084C46.2527 21.6474 46.2527 22.8377 46.2527 24.0558C46.03 24.0558 45.8142 24.0558 45.5985 24.0558C43.392 24.0558 41.1924 24.0558 38.9859 24.0558C37.9001 24.0558 36.8142 23.9792 35.7841 23.6033C32.6936 22.4896 30.7516 20.3667 30.2017 17.0883C29.7423 14.3667 30.5149 11.9792 32.3734 9.95369C33.6124 8.6103 35.1785 7.79591 36.9674 7.48965C38.9094 7.1625 40.8583 7.14858 42.7516 7.80983C44.095 8.27619 45.2365 9.04881 46.1066 10.1834C46.6773 10.9282 46.8931 11.7565 46.7052 12.6961C46.4824 13.8098 45.4453 14.4711 44.4221 14.6312C43.5381 14.7704 42.7864 14.5128 42.1739 13.8794C41.9581 13.6497 41.8189 13.3435 41.6588 13.0651C41.4291 12.6613 41.2342 12.2437 40.9975 11.847C40.3641 10.782 39.3131 10.4479 38.1646 10.9142C37.1831 11.311 36.5985 12.0836 36.2365 13.0303C35.436 15.0906 35.6309 17.0604 36.9604 18.8423C37.733 19.8794 38.8328 20.3876 40.1414 20.3945C42.0416 20.4084 43.9488 20.3945 45.849 20.3945C45.9674 20.4084 46.0927 20.4084 46.2527 20.4084Z" fill="#B9B9B9"/>
<path d="M23.1647 24.0278C22.4686 23.8398 21.7377 23.7354 21.0765 23.45C18.5498 22.3781 16.8375 20.5405 16.0579 17.8816C15.9396 17.4779 15.877 17.0603 15.7865 16.6496C15.7656 16.3294 15.7169 16.0092 15.7238 15.689C15.8213 12.3897 17.2134 9.85608 20.1647 8.26908C21.0765 7.78184 22.044 7.44077 23.095 7.39205C23.8816 7.35724 24.6681 7.26676 25.4477 7.3294C27.8561 7.53126 29.7981 8.56142 31.0788 10.6774C31.1345 10.7749 31.1345 10.9767 31.0718 11.0672C30.4176 12.0695 30.0347 13.1763 29.805 14.3387C29.7145 14.805 29.7285 15.2992 29.6937 15.8074C26.9512 15.8074 24.2087 15.8074 21.4663 15.8074C21.4524 17.6797 22.4964 19.747 24.689 20.3108C24.9326 20.3735 25.1971 20.3596 25.4477 20.3596C27.0834 20.3665 28.7192 20.3596 30.3549 20.3596C31.1275 20.3596 31.1275 20.3596 31.566 21.0556C30.1809 22.3364 28.6426 23.3526 26.7841 23.7981C25.8236 24.0278 24.8491 24.1252 23.8677 24.0835C23.6171 24.0904 23.3944 24.0556 23.1647 24.0278ZM21.7377 13.0858C23.5266 13.0858 25.3155 13.0858 27.1113 13.0858C26.9234 11.1855 25.7609 10.392 24.4663 10.399C23.0742 10.4129 21.8561 11.4361 21.7377 13.0858Z" fill="#B9B9B9"/>
<path d="M49.0576 8.86068C49.8998 8.46393 50.7351 8.06022 51.633 7.62866C51.633 8.98597 51.633 10.2806 51.633 11.5683C51.626 11.7075 51.6191 11.8468 51.6191 11.986C51.6191 15.87 51.6191 19.7539 51.6191 23.6379C51.6191 23.7632 51.6191 23.8885 51.6191 24.0417C49.9555 24.0417 48.3128 24.0417 46.6283 24.0417C46.6283 23.9094 46.6283 23.7841 46.6283 23.6658C46.6283 20.457 46.6283 17.2412 46.6353 14.0324C46.6353 13.8514 46.7049 13.6565 46.7815 13.4894C47.2548 12.5359 47.2548 11.5823 46.7745 10.6356C46.6979 10.4825 46.6005 10.3363 46.4961 10.1553C47.3592 9.71683 48.2084 9.28527 49.0576 8.86068Z" fill="#B9B9B9"/>
<path d="M68.6099 28.2738C68.6099 27.8562 68.6099 27.4455 68.6099 27.007C68.763 27.007 68.8674 27.007 68.9997 27.007C69.0136 27.1184 69.0205 27.2297 69.0414 27.4107C69.3198 27.0557 69.647 26.9374 70.0577 26.9374C70.5031 26.9374 70.7259 27.188 70.9347 27.536C71.2131 27.1323 71.5472 26.9304 72.0484 26.9304C72.459 26.9304 72.8976 27.2576 72.9184 27.703C72.9532 28.413 72.9254 29.13 72.9254 29.8678C72.8419 29.8747 72.7305 29.8817 72.5704 29.8887C72.5704 29.5545 72.5704 29.2344 72.5704 28.9142C72.5704 28.6149 72.5704 28.3086 72.5635 28.0093C72.5495 27.6891 72.4451 27.4037 72.1041 27.3133C71.756 27.2228 71.4289 27.3202 71.2549 27.6265C71.1087 27.8701 71.0182 28.1764 70.9904 28.4617C70.9486 28.9211 70.9765 29.3875 70.9765 29.8678C70.8512 29.8678 70.7398 29.8678 70.5936 29.8678C70.5936 29.3875 70.5936 28.9142 70.5936 28.4478C70.5936 28.3225 70.5936 28.1903 70.5867 28.065C70.5519 27.5778 70.3848 27.3481 70.0368 27.2993C69.64 27.2436 69.2154 27.5012 69.111 27.9188C69.0275 28.2599 69.0136 28.6149 68.9718 28.9699C68.9718 29.2552 68.9718 29.5476 68.9718 29.8608C68.8535 29.8678 68.763 29.8747 68.6099 29.8887C68.6099 29.3388 68.6099 28.8028 68.6099 28.2738Z" fill="#B9B9B9"/>
<path d="M76.4545 13.9768C76.3918 13.1415 76.357 12.3202 76.2596 11.5127C76.2039 11.0881 75.8559 10.8167 75.4661 10.6566C74.8536 10.406 74.2201 10.3642 73.5798 10.58C73.0717 10.754 72.7027 11.0742 72.4591 11.5615C72.2364 12.0069 72.0415 12.4733 71.777 12.884C71.0879 13.9559 69.8072 14.2691 68.6378 13.768C67.4963 13.2807 67.1343 11.9373 67.4963 10.8306C67.9278 9.48721 68.9928 8.819 70.1482 8.24823C71.0392 7.80972 72.0067 7.55218 72.9881 7.43385C74.1018 7.3016 75.2085 7.28072 76.3292 7.44081C77.1575 7.55914 77.944 7.74707 78.6888 8.10206C79.8025 8.63802 80.7979 9.33408 81.0972 10.6287C81.2573 11.3248 81.3547 12.0557 81.3547 12.7656C81.3826 16.4199 81.3686 20.0742 81.3686 23.7285C81.3686 23.8051 81.3547 23.8886 81.3478 23.993C81.2085 23.993 81.0833 23.993 80.958 23.993C77.8257 23.993 74.6935 23.993 71.5612 23.993C70.8652 23.993 70.1761 23.9164 69.5218 23.6728C67.8652 23.0603 66.8072 21.87 66.5566 20.1369C66.2573 18.1183 67.3014 16.406 69.1946 15.5359C70.712 14.8399 72.3199 14.4919 73.9626 14.283C74.7561 14.1856 75.5566 14.0881 76.4545 13.9768ZM76.3988 16.6914C75.1877 16.9002 73.9974 17.0046 72.9116 17.5475C72.3895 17.8051 72.0137 18.2018 71.8744 18.7796C71.8327 18.9675 71.8048 19.1972 71.8675 19.3712C72.1807 20.2761 73.0856 20.8051 73.9974 20.5197C74.7631 20.283 75.48 19.9072 76.2178 19.58C76.3014 19.5452 76.3918 19.413 76.3918 19.3294C76.4058 18.4733 76.3988 17.6171 76.3988 16.6914Z" fill="#B9B9B9"/>
<path d="M81.3267 7.2529C81.3267 5.7355 81.3267 4.2181 81.3267 2.72158C83.0459 1.80974 84.7304 0.925754 86.4705 0C86.4705 0.167053 86.4705 0.285383 86.4705 0.410673C86.4705 4.38515 86.4705 8.35963 86.4705 12.3341C86.4705 12.4733 86.4844 12.6125 86.4914 12.7517C86.4844 12.8909 86.4705 13.0302 86.4705 13.1694C86.4705 16.6218 86.4705 20.0812 86.4705 23.5336C86.4705 23.6728 86.4705 23.8051 86.4705 23.9582C84.8905 23.9582 83.3522 23.9582 81.7582 23.9582C81.7582 23.826 81.7582 23.6937 81.7582 23.5615C81.7582 19.935 81.7791 16.3016 81.7443 12.6752C81.7373 11.9513 81.5424 11.2204 81.4311 10.4965C81.3963 10.2738 81.3475 10.051 81.3406 9.8283C81.3336 8.97216 81.3336 8.11601 81.3267 7.2529Z" fill="#B9B9B9"/>
<path d="M51.9117 3.4246C52.03 4.96288 50.7492 6.42459 48.9256 6.40371C47.3594 6.38283 46.0857 5.06729 46.0439 3.43156C46.0161 2.13689 47.2898 0.334109 49.197 0.48028C50.5126 0.584689 52.0439 1.7819 51.9117 3.4246Z" fill="#B9B9B9"/>
<path d="M83.1991 28.4825C82.3429 28.4825 81.4868 28.4825 80.6376 28.4825C80.575 28.8514 80.8603 29.3317 81.2362 29.5127C81.7582 29.7632 82.2664 29.5892 82.8302 28.9349C82.9207 28.9836 83.0181 29.0393 83.1086 29.0881C82.7188 29.986 81.981 30.0556 81.2501 29.9094C80.6306 29.7841 80.0738 28.9628 80.1782 28.3502C80.2965 27.6194 80.7559 27.0138 81.445 26.9512C82.4543 26.8537 83.1921 27.3131 83.1991 28.4825ZM82.7606 28.1275C82.6214 27.5707 82.2455 27.2853 81.6956 27.2922C81.1805 27.2992 80.8255 27.5915 80.7002 28.1275C81.3754 28.1275 82.0576 28.1275 82.7606 28.1275Z" fill="#B9B9B9"/>
<path d="M75.1461 26.9512C75.9744 26.9512 76.6287 27.5289 76.6287 28.2667C76.6287 29.4222 76.1205 29.9512 75.0138 29.9512C74.2273 29.9512 73.6147 29.2969 73.6147 28.4547C73.6147 27.5498 74.2273 26.9512 75.1461 26.9512ZM76.2041 28.4616C76.2041 27.7725 75.7586 27.2922 75.1252 27.2922C74.5405 27.2922 73.9767 27.863 73.9767 28.4547C73.9767 29.0115 74.5962 29.6379 75.0417 29.6101C75.7864 29.5683 76.2041 29.1925 76.2041 28.4616Z" fill="#B9B9B9"/>
<path d="M79.7814 27.0627C79.3429 28.0163 78.9113 28.956 78.438 30.0001C77.9577 28.956 77.5122 28.0024 77.0737 27.0557C77.3939 26.9513 77.547 27.0906 77.6654 27.3829C77.8881 27.9328 78.1596 28.4687 78.438 29.0813C78.7303 28.4479 78.9948 27.891 79.2315 27.3272C79.329 27.0697 79.4612 26.9653 79.7814 27.0627Z" fill="#B9B9B9"/>
<path d="M86.5126 27.2923C86.3665 27.4106 86.2829 27.4872 86.1924 27.5568C85.747 27.2227 85.4198 27.2018 85.2249 27.5011C85.0857 27.7169 85.211 27.8979 85.6982 28.2111C85.8305 28.2946 85.9697 28.3781 86.102 28.4686C86.443 28.7053 86.5544 29.1856 86.3665 29.5336C86.1646 29.9095 85.6704 30.1044 85.2876 29.9373C85.0927 29.8538 84.9117 29.7354 84.689 29.6102C84.7934 29.4779 84.863 29.3874 84.9326 29.2969C85.0857 29.3874 85.218 29.4849 85.3572 29.5475C85.6286 29.6589 85.9279 29.5614 86.0463 29.3109C86.1785 29.0324 86.0393 28.8445 85.8096 28.6983C85.5869 28.5522 85.3363 28.4408 85.1344 28.2737C84.7168 27.9257 84.682 27.3549 85.1205 27.0696C85.3433 26.9234 85.7191 26.986 86.0254 27.0069C86.1785 27.0278 86.3108 27.167 86.5126 27.2923Z" fill="#B9B9B9"/>
<path d="M84.2296 29.8676C84.1113 29.8676 83.9999 29.8676 83.8677 29.8676C83.8677 28.9349 83.8677 28.0022 83.8677 27.0486C83.979 27.0486 84.0974 27.0486 84.2296 27.0486C84.2296 27.9883 84.2296 28.921 84.2296 29.8676Z" fill="#B9B9B9"/>
<path d="M75.9394 25.6496C75.487 25.935 75.3617 26.5058 74.77 26.471C75.0484 25.7819 75.2642 25.6079 75.9394 25.6496Z" fill="#B9B9B9"/>
<path d="M84.1111 25.782C84.1876 25.8864 84.3477 26.0117 84.3269 26.0952C84.299 26.2135 84.1459 26.3875 84.0484 26.3875C83.944 26.3875 83.777 26.2344 83.7422 26.1161C83.7213 26.0326 83.8744 25.9003 83.951 25.7889C84.0067 25.7889 84.0624 25.782 84.1111 25.782Z" fill="#B9B9B9"/>
<path d="M91.6703 1.99068C91.6633 2.96516 90.8977 3.70298 89.9232 3.70994C88.9835 3.7169 88.1552 2.88859 88.1691 1.9002C88.183 1.00924 88.9905 0.215741 89.9093 0.222702C91.1065 0.229662 91.7329 1.19022 91.6703 1.99068ZM91.3779 1.97676C91.3779 1.05797 90.8141 0.501124 89.8814 0.501124C89.1018 0.501124 88.4615 1.14846 88.4545 1.94892C88.4475 2.70762 89.1297 3.50112 89.8327 3.48024C90.5983 3.45936 91.4475 2.96516 91.3779 1.97676Z" fill="#B9B9B9"/>
<path d="M89.2062 0.988525C89.582 0.988525 89.9162 0.988525 90.2503 0.988525C90.6609 0.988525 90.9254 1.41312 90.6957 1.76115C90.5913 1.92124 90.654 1.99781 90.6888 2.13006C90.7514 2.38064 90.7584 2.6521 90.7932 2.92356C90.5496 3.00709 90.4173 2.93052 90.3964 2.64514C90.3616 2.17182 90.3616 2.17182 89.8605 2.17182C89.7491 2.17182 89.6308 2.17182 89.4985 2.17182C89.4985 2.43632 89.4985 2.67298 89.4985 2.9166C89.2967 2.97924 89.1992 2.95836 89.1992 2.73562C89.2131 2.17182 89.2062 1.60105 89.2062 0.988525ZM89.582 1.26695C89.582 1.47576 89.582 1.64282 89.582 1.80987C89.7978 1.80987 89.9997 1.84467 90.1807 1.79595C90.2851 1.76811 90.3895 1.60801 90.4104 1.48969C90.4243 1.434 90.2503 1.29479 90.1459 1.27391C89.9718 1.24607 89.7839 1.26695 89.582 1.26695Z" fill="#B9B9B9"/>
</svg>
