<svg width="74" height="30" viewBox="0 0 74 30" fill="none" xmlns="http://www.w3.org/2000/svg">
<path d="M15.276 29.046C15.276 27.17 17.3942 23.8393 18.2977 22.4175L18.4378 22.1971C18.4574 22.1589 18.4656 22.128 18.4656 22.092C18.4656 21.9838 18.3636 21.889 18.2493 21.889C18.1751 21.889 18.1174 21.922 18.0855 21.9807C16.7091 24.034 15.3914 25.6288 13.9398 26.9969C12.6953 28.1631 11.7506 28.7813 11.2097 28.7813C11.0088 28.7813 10.9305 28.7143 10.9305 28.5443C10.9305 28.4506 10.9511 28.3341 10.9913 28.2054C11.2283 27.3379 11.9134 26.1974 12.5181 25.1909C12.7602 24.7881 12.9889 24.4069 13.1775 24.0638C13.5762 23.32 13.9852 22.4876 13.9852 21.9436C13.9852 21.4635 13.6544 21.2307 12.9745 21.2307C12.2935 21.2307 11.3879 21.5336 10.4906 22.0621C9.58505 22.5927 7.8728 23.9145 7.8728 25.1198C7.8728 25.4289 7.98304 25.7091 8.19836 25.9523C8.23442 25.9976 8.29211 26.0244 8.35186 26.0244C8.46725 26.0244 8.56203 25.9306 8.56203 25.8142C8.56203 25.7617 8.54348 25.7143 8.51155 25.6823C8.36628 25.5103 8.29211 25.3187 8.29211 25.1116C8.29211 24.0597 10.0713 22.7843 10.6936 22.4206C11.5507 21.921 12.379 21.6346 12.9673 21.6346C13.4062 21.6346 13.5937 21.7355 13.5937 21.9714C13.5937 22.3928 13.1486 23.2531 12.8148 23.863C12.6077 24.24 12.3708 24.6459 12.1194 25.0755C11.3313 26.422 10.5174 27.8149 10.5174 28.5495C10.5174 28.9471 10.7657 29.1851 11.1809 29.1851C12.5707 29.1851 14.9938 26.5848 16.1136 25.2898C15.2884 26.8949 14.8701 28.1642 14.8701 29.0677C14.8701 29.3757 14.9216 29.6508 15.0236 29.8846C15.0514 29.9578 15.1174 30 15.2008 30C15.3069 30 15.4172 29.9269 15.4161 29.7919L15.3976 29.7157C15.3162 29.5395 15.276 29.3211 15.276 29.046Z" fill="#B9B9B9"/>
<path d="M23.0039 24.6293C23.0039 24.5438 22.937 24.449 22.8237 24.4397C22.2447 24.4212 21.438 24.4026 20.6035 24.3934L21.9892 21.8127C22.0077 21.7756 22.017 21.7467 22.017 21.7179C22.017 21.6035 21.9222 21.519 21.8182 21.519C21.7512 21.519 21.6853 21.5572 21.6471 21.6231L20.1585 24.3934L18.9727 24.3841C18.4122 24.3841 18.7666 24.3934 18.4246 24.4037C18.302 24.4037 18.235 24.5077 18.235 24.6025C18.235 24.6973 18.302 24.7921 18.4339 24.7921C18.984 24.7735 19.0674 24.7735 19.9493 24.7735C18.744 27.0318 18.8449 26.7845 17.7632 28.9758C17.7539 29.0037 17.7539 29.0222 17.7539 29.051C17.7539 29.1561 17.8394 29.2406 17.9435 29.2406C18.0187 29.2406 18.0949 29.1922 18.1238 29.117C19.3095 26.8206 19.2003 27.0586 20.4047 24.7818C21.2958 24.791 22.188 24.8096 22.8051 24.8281C22.938 24.8281 23.0039 24.7426 23.0039 24.6293Z" fill="#B9B9B9"/>
<path d="M23.3733 25.3505L23.127 25.4453C23.0415 25.4834 23.0034 25.5494 23.0034 25.6256C23.0034 25.7297 23.0797 25.8255 23.193 25.8255C23.2126 25.8255 23.2311 25.8255 23.2589 25.8162L23.4959 25.7111C23.5907 25.6833 23.6288 25.6163 23.6288 25.5401C23.6288 25.4453 23.5525 25.3413 23.4392 25.3413C23.4207 25.3402 23.4021 25.3402 23.3733 25.3505Z" fill="#B9B9B9"/>
<path d="M32.3613 25.3505L32.1141 25.4453C32.0285 25.4834 31.9915 25.5494 31.9915 25.6256C31.9915 25.7297 32.0667 25.8255 32.181 25.8255C32.1996 25.8255 32.2191 25.8255 32.248 25.8162L32.4839 25.7111C32.5787 25.6833 32.6178 25.6163 32.6178 25.5401C32.6178 25.4453 32.5416 25.3413 32.4272 25.3413C32.4087 25.3402 32.3902 25.3402 32.3613 25.3505Z" fill="#B9B9B9"/>
<path d="M57.197 28.975C57.1403 28.975 57.0929 28.9657 57.0548 28.9461C57.0353 28.9461 57.0352 28.9461 57.0352 28.9173C57.0352 28.8514 57.1867 28.7473 57.4432 28.6144C57.8409 28.4248 58.2973 28.3105 58.8855 28.1117C58.5816 28.5382 57.6421 28.975 57.197 28.975ZM46.4919 28.1209C46.3775 28.1116 46.3404 28.0643 46.3404 27.9787C46.3404 27.5996 47.2419 26.5653 47.6972 26.5653C47.8672 26.5746 47.9342 26.6405 47.962 26.7734C47.3552 27.5605 46.8143 28.1209 46.4919 28.1209ZM41.3861 28.3095C41.3098 28.3095 41.2635 28.2621 41.2635 28.158C41.2635 27.7593 41.8991 26.8671 42.6677 26.83C42.8387 26.83 43.0375 26.8867 43.1333 26.9815C42.9706 27.1525 41.7755 28.3095 41.3861 28.3095ZM35.6642 28.1209C35.5498 28.1116 35.5127 28.0643 35.5127 27.9787C35.5127 27.7974 35.7208 27.4667 35.9856 27.1711C35.9887 27.1669 35.9928 27.1628 35.9959 27.1597C36.2833 26.8414 36.6357 26.5663 36.8695 26.5663C37.0395 26.5756 37.1065 26.6415 37.1353 26.7744C36.5275 27.5605 35.9866 28.1209 35.6642 28.1209ZM53.6849 26.5076C53.7797 26.5076 53.8364 26.5457 53.8364 26.6127C53.8364 26.6982 53.7231 26.8496 53.447 27.0021C53.2852 27.0969 52.9442 27.2205 52.7454 27.2205L52.6599 27.2112C53.0112 26.7641 53.4573 26.5076 53.6849 26.5076ZM63.0023 26.8589C62.9549 26.8589 60.9625 27.1721 59.2451 27.6182C58.97 27.2483 57.8028 27.1432 57.6606 27.0485C57.6884 27.0206 57.7749 26.9629 57.8975 26.9063C58.3632 26.6982 59.14 26.4983 59.5006 26.4983L59.6139 26.5169C59.5387 26.6405 59.4522 26.7353 59.2822 26.83C59.2152 26.8682 59.1781 26.9341 59.1781 27.0103C59.1781 27.1144 59.2626 27.1906 59.3667 27.1906C59.3955 27.1906 59.4336 27.1906 59.4614 27.1721C59.7839 27.0011 59.9838 26.7641 60.0116 26.4787C60.0116 26.3932 59.9642 26.317 59.8972 26.2511C59.7829 26.1367 59.6984 26.1367 59.4893 26.1182C59.242 26.1182 58.8629 26.1851 58.492 26.2881C57.9027 26.453 57.4669 26.6199 57.3124 26.8826C56.0874 27.4987 54.0847 28.395 52.8175 28.395C52.3899 28.3857 52.2478 28.3002 52.2478 28.0818C52.2478 27.92 52.323 27.7212 52.4373 27.5316C52.5228 27.579 52.6269 27.5986 52.7505 27.5986C53.0163 27.5986 53.3573 27.4935 53.6427 27.3328C54.0599 27.0958 54.231 26.8105 54.231 26.5828C54.231 26.3273 54.0126 26.1367 53.6808 26.1367C53.4253 26.1367 53.1111 26.2511 52.7794 26.5261C52.664 26.623 52.5476 26.7384 52.4373 26.8671C52.4363 26.8682 52.4363 26.8671 52.4363 26.8682C51.3267 27.5327 49.3054 28.396 48.746 28.396C48.6039 28.396 48.5379 28.2919 48.5379 28.1209V28.0828C48.5472 26.7734 50.5778 23.6518 51.3371 22.3722C51.3566 22.3434 51.3566 22.3238 51.3566 22.296C51.3566 22.1909 51.2618 22.1064 51.1568 22.1064C51.1001 22.1064 51.0434 22.126 51.0053 22.1827C50.0472 23.5766 49.221 25.0478 48.2165 26.4231C48.1124 26.2717 47.9692 26.1954 47.7045 26.1862C47.3666 26.1862 46.9132 26.4983 46.5506 26.8908C45.9572 27.236 43.9936 28.3867 43.4249 28.3867C43.2827 28.3867 43.225 28.3105 43.225 28.1498C43.225 27.7799 43.5774 27.1154 43.6711 26.9733C43.6989 26.9351 43.7092 26.898 43.7092 26.8589C43.7092 26.7445 43.6145 26.659 43.5104 26.659C43.4723 26.659 43.4342 26.6786 43.396 26.6972C43.2343 26.5354 42.9221 26.4314 42.6759 26.4314C42.3092 26.4314 41.9455 26.6085 41.6374 26.8599C41.6292 26.864 41.6189 26.862 41.6107 26.8682C40.5011 27.5327 38.4798 28.396 37.9193 28.396C37.7772 28.396 37.7112 28.2919 37.7112 28.1209V28.0828C37.7205 26.7734 39.7511 23.6518 40.5104 22.3722C40.53 22.3434 40.53 22.3238 40.53 22.296C40.53 22.1909 40.4352 22.1064 40.3301 22.1064C40.2734 22.1064 40.2168 22.126 40.1786 22.1827C39.2205 23.5766 38.3953 25.0478 37.3898 26.4231C37.2858 26.2717 37.1426 26.1954 36.8778 26.1862C36.5399 26.1862 36.0855 26.4983 35.7219 26.8919C34.4063 27.408 32.0676 28.3867 31.1075 28.3867C31.0137 28.3867 30.956 28.396 30.956 28.3198V28.3012C30.9622 28.0622 31.2023 27.648 31.4444 27.273C31.5093 27.236 31.5371 27.1824 31.5391 27.1257C31.6195 27.0042 31.6968 26.8898 31.7617 26.793C31.7895 26.7548 31.7998 26.7167 31.7998 26.6786C31.7998 26.5838 31.705 26.489 31.5917 26.489C31.5443 26.489 31.4876 26.5169 31.4495 26.5746C31.363 26.7013 31.2682 26.8383 31.1765 26.9784C30.0525 27.5069 28.3186 28.396 27.2843 28.396C26.9237 28.3867 26.7908 28.329 26.7815 28.055C26.7815 27.7603 26.9423 27.2957 27.3502 26.5364C28.024 25.294 29.1428 23.453 29.8166 22.4186C29.8444 22.3805 29.8547 22.3527 29.8547 22.3146C29.8547 22.2198 29.7599 22.125 29.6466 22.125C29.5899 22.125 29.5323 22.1435 29.4941 22.2105C28.8307 23.2253 27.6737 25.123 27.0092 26.3469C26.9124 26.5261 26.8217 26.7085 26.7372 26.8908C25.4216 27.407 23.082 28.3857 22.1228 28.3857C22.0281 28.3857 21.9714 28.395 21.9714 28.3187V28.3002C21.9807 27.9489 22.4927 27.2184 22.7781 26.7919C22.8069 26.7538 22.8162 26.7157 22.8162 26.6776C22.8162 26.5828 22.7214 26.488 22.6071 26.488C22.5586 26.488 22.503 26.5158 22.4649 26.5735C22.095 27.1134 21.6026 27.816 21.583 28.328C21.583 28.6319 21.7437 28.7648 22.1043 28.7741C23.0686 28.7741 25.1208 27.9478 26.5384 27.3864C26.4539 27.6326 26.3942 27.8685 26.3942 28.0725C26.3942 28.5279 26.6311 28.7741 27.2575 28.7844C28.23 28.7844 29.6806 28.123 30.819 27.579C30.6799 27.8459 30.5779 28.1055 30.5707 28.329C30.5707 28.6329 30.7325 28.7658 31.0931 28.7751C32.0058 28.7751 33.8953 28.0334 35.2974 27.4781C35.1923 27.6738 35.1264 27.8644 35.1264 28.0261C35.1264 28.3198 35.2964 28.5001 35.6673 28.5001C36.3215 28.5001 37.3465 27.1247 37.7545 26.5746C37.5835 26.9722 37.327 27.6274 37.327 28.1106C37.327 28.4897 37.4691 28.7751 37.9245 28.7844C38.453 28.7844 39.8603 28.227 41.0028 27.645C40.9122 27.8283 40.8586 28.0097 40.8586 28.1673C40.8586 28.4619 41.0574 28.6515 41.3613 28.6515C41.8837 28.6515 42.5667 28.0632 42.8984 27.7593C42.8706 27.8819 42.8511 28.0055 42.8511 28.1292C42.8511 28.4897 42.9932 28.7648 43.43 28.7741C43.9544 28.7741 45.1866 28.1158 46.0633 27.6192C46.0005 27.7634 45.9551 27.9035 45.9551 28.0251C45.9551 28.3187 46.1261 28.499 46.496 28.499C47.1502 28.499 48.1753 27.1237 48.5843 26.5735C48.4133 26.9712 48.1567 27.6264 48.1567 28.1096C48.1567 28.4887 48.2989 28.7741 48.7543 28.7834C49.3106 28.7834 50.8405 28.1663 52.0098 27.5533C51.9294 27.7397 51.8769 27.9262 51.8769 28.1003C51.8769 28.5186 52.1334 28.7741 52.8061 28.7834C54.1217 28.7834 56.0895 27.9293 57.3763 27.2895C57.6338 27.5224 58.3076 27.5718 58.7557 27.7397L58.6991 27.7593C57.5514 28.0911 56.6499 28.4424 56.6499 28.9255C56.6788 29.1821 56.821 29.3624 57.2001 29.3624C57.9882 29.3624 59.278 28.6031 59.3625 27.987C61.0418 27.5594 62.9591 27.2473 63.0064 27.2473C63.1208 27.2473 63.2063 27.1618 63.2063 27.0474C63.2022 26.9444 63.1167 26.8589 63.0023 26.8589Z" fill="#B9B9B9"/>
<path d="M25.7844 13.3979V17.6445C25.7844 17.969 26.0491 18.2338 26.3737 18.2338H30.6203C30.9448 18.2338 31.2096 17.969 31.2096 17.6445V13.3979C31.2096 13.3567 31.2054 13.3165 31.1972 13.2774C31.1993 12.0895 31.2075 10.9573 31.2312 9.57164C31.3167 8.58674 32.3026 8.04896 33.1794 7.98715H34.5743C34.8009 7.98715 34.9864 7.80171 34.9864 7.57609V4.61418C34.9864 4.40298 34.8246 4.22784 34.6196 4.20621C30.8304 3.18525 25.7658 4.93767 25.7813 9.69939C25.7854 11.253 25.7885 12.3934 25.7906 13.3279C25.7864 13.3516 25.7844 13.3742 25.7844 13.3979Z" fill="#B9B9B9"/>
<path d="M17.6086 8.21167C19.1271 8.21167 20.3593 9.44279 20.3593 10.9624C20.3593 12.4809 19.1282 13.7121 17.6086 13.7121C16.09 13.7121 14.8579 12.4809 14.8579 10.9624C14.8579 9.44279 16.09 8.21167 17.6086 8.21167ZM17.6086 18.2337C21.6244 18.2337 24.881 14.9772 24.881 10.9614C24.881 6.94552 21.6244 3.68896 17.6086 3.68896C13.5927 3.68896 10.3362 6.94552 10.3362 10.9614C10.3362 14.9772 13.5927 18.2337 17.6086 18.2337Z" fill="#B9B9B9"/>
<path d="M36.2235 18.2327H40.1879C40.4907 18.2327 40.738 17.9855 40.738 17.6826C40.738 14.63 40.7308 11.9658 40.7308 8.91328H40.738C40.7524 8.3415 41.2191 7.88202 41.795 7.88202C42.3699 7.88202 42.8376 8.3415 42.851 8.91328H42.8561C42.8561 11.9638 42.852 14.628 42.852 17.6785C42.852 17.9834 43.1024 18.2338 43.4073 18.2338H47.4108C47.7168 18.2338 47.9661 17.9834 47.9661 17.6785C47.9661 14.628 47.9609 11.9638 47.9609 8.91328H47.965C47.9795 8.3415 48.4472 7.88202 49.0221 7.88202C49.5969 7.88202 50.0647 8.3415 50.078 8.91328H50.0863C50.0863 11.9658 50.0853 14.6321 50.0853 17.6846C50.0853 17.9865 50.3335 18.2348 50.6354 18.2348H54.5997C54.9026 18.2348 55.1499 17.9875 55.1499 17.6846C55.1499 14.6022 55.1355 11.5228 55.1355 8.4404H55.121C54.9366 5.80714 52.7402 3.72607 50.0605 3.72607C47.9795 3.72607 46.191 4.97986 45.408 6.77246C44.6251 4.97986 42.8366 3.72607 40.7555 3.72607C38.0749 3.72607 35.8794 5.80611 35.694 8.4404H35.6806C35.6806 11.5218 35.6724 14.6022 35.6724 17.6836C35.6734 17.9855 35.9206 18.2327 36.2235 18.2327Z" fill="#B9B9B9"/>
<path d="M9.70849 9.40984V6.29546C9.70849 6.05748 9.51377 5.86276 9.27579 5.86276H6.16244C6.13257 5.86276 6.10372 5.86586 6.0759 5.87204L6.06251 5.86998C6.06148 5.85658 6.06148 5.84319 6.06148 5.8298H6.01615L6.02027 5.58357C6.10475 4.61001 7.07935 4.07841 7.9468 4.0166H9.32628C9.54984 4.0166 9.73321 3.83424 9.73321 3.60965V0.680714C9.73321 0.471577 9.57353 0.298497 9.37058 0.276863C5.62363 -0.731732 0.616721 1.00111 0.631144 5.70926L0.632176 5.8298H0.620845C0.629086 8.46616 0.630112 11.1025 0.629082 13.2227C0.611568 13.2784 0.602295 13.3371 0.602295 13.3979V17.6445C0.602295 17.969 0.868097 18.2338 1.19159 18.2338H5.43819C5.75241 18.2338 6.01203 17.9844 6.02645 17.6743H6.04191L6.03881 9.83327H6.07384C6.10269 9.83842 6.13257 9.84254 6.16347 9.84254H9.27682C9.51378 9.84254 9.70849 9.64783 9.70849 9.40984Z" fill="#B9B9B9"/>
<path d="M70.4713 11.1633C70.4734 11.0871 70.4754 11.0098 70.4754 10.9325C70.4754 6.91671 67.2189 3.66016 63.203 3.66016C59.1872 3.66016 55.9307 6.91671 55.9307 10.9325C55.9307 14.937 59.1676 18.1864 63.168 18.2049V18.206H63.203H63.7841C64.1364 18.206 64.4239 17.9855 64.4239 17.7156V14.1798C64.4239 13.9099 64.1354 13.6894 63.7841 13.6894L63.168 13.6905V13.6936C63.0969 13.6884 63.0269 13.6822 62.9568 13.6729C61.5536 13.5483 60.4534 12.3697 60.4534 10.9336C60.4534 9.41501 61.6855 8.18389 63.2041 8.18389C64.6402 8.18389 65.8198 9.28521 65.9435 10.6904C65.9486 10.7131 65.9507 10.7368 65.9507 10.7615V10.7914C65.9558 10.9006 65.9599 11.0108 65.963 11.1211H65.962C65.9641 13.266 65.962 15.412 65.962 17.5569C65.962 17.9082 66.1825 18.1967 66.4524 18.1967H69.984C70.2529 18.1967 70.4734 17.9093 70.4734 17.5569C70.4734 16.1723 70.4693 14.7877 70.4682 13.403H70.4723V11.1633H70.4713Z" fill="#B9B9B9"/>
<path d="M72.9121 5.83717C72.8503 5.99891 72.7628 6.13903 72.6484 6.25956C72.533 6.37907 72.395 6.47385 72.2342 6.54494C72.0715 6.61602 71.8912 6.65105 71.6923 6.65105C71.5069 6.65105 71.3338 6.61911 71.1762 6.55318C71.0175 6.48827 70.8805 6.39452 70.7641 6.27502C70.6487 6.15448 70.5591 6.01128 70.4932 5.84438C70.4283 5.67645 70.3953 5.49204 70.3953 5.28909C70.3953 5.10674 70.4262 4.93572 70.488 4.775C70.5498 4.61326 70.6395 4.47315 70.7548 4.35158C70.8702 4.23001 71.0083 4.13523 71.169 4.0662C71.3287 3.99718 71.51 3.96112 71.7078 3.96112C71.8932 3.96112 72.0663 3.99409 72.225 4.05796C72.3826 4.12184 72.5207 4.21353 72.636 4.33304C72.7514 4.45357 72.8421 4.59677 72.907 4.76367C72.9719 4.93263 73.0049 5.1191 73.0049 5.32309C73.0059 5.50544 72.975 5.67748 72.9121 5.83717ZM73.2706 4.62665C73.1862 4.4206 73.0708 4.24341 72.9214 4.09505C72.7741 3.94464 72.5959 3.82925 72.3888 3.74581C72.1817 3.66133 71.9551 3.62012 71.7099 3.62012C71.4698 3.62012 71.2473 3.66339 71.0412 3.74993C70.8342 3.83544 70.6549 3.95597 70.5004 4.10844C70.3469 4.25989 70.2274 4.43915 70.1377 4.64313C70.0502 4.84918 70.0059 5.06965 70.0059 5.30763C70.0059 5.55283 70.0471 5.77742 70.1315 5.98346C70.216 6.18745 70.3314 6.36568 70.4808 6.513C70.6291 6.66238 70.8084 6.7788 71.0145 6.86534C71.2215 6.94982 71.4482 6.99309 71.6934 6.99309C71.9303 6.99309 72.1518 6.94879 72.361 6.86122C72.568 6.77262 72.7504 6.65311 72.9029 6.50167C73.0564 6.34919 73.1769 6.16993 73.2655 5.96286C73.3531 5.75784 73.3974 5.53531 73.3974 5.29836C73.3963 5.05626 73.3551 4.83063 73.2706 4.62665Z" fill="#B9B9B9"/>
<path d="M71.8868 5.09842C71.8414 5.14375 71.758 5.16744 71.6374 5.16744H71.4458V4.68221H71.6436C71.7044 4.68221 71.7559 4.68839 71.7961 4.69869C71.8363 4.71002 71.8692 4.72651 71.894 4.74917C71.9177 4.77184 71.9362 4.79656 71.9444 4.82438C71.9517 4.85426 71.9558 4.8831 71.9558 4.91607C71.9558 4.99231 71.9331 5.05309 71.8868 5.09842ZM72.3596 5.7145C72.3164 5.60529 72.2638 5.52184 72.203 5.46724C72.1423 5.41161 72.0773 5.37246 72.0094 5.3498C72.135 5.31786 72.237 5.26429 72.3122 5.18702C72.3864 5.10975 72.4245 5.00158 72.4245 4.86353C72.4245 4.77287 72.4081 4.69663 72.3761 4.63173C72.3442 4.56682 72.2968 4.51119 72.235 4.46895C72.1721 4.42568 72.099 4.39374 72.0104 4.37417C71.9218 4.35357 71.8208 4.34326 71.7034 4.34326H71.2058C71.1419 4.34326 71.0935 4.36181 71.0626 4.39786C71.0296 4.43289 71.0142 4.48337 71.0142 4.54725V6.10495C71.0142 6.13586 71.0275 6.15853 71.0574 6.16986C71.0852 6.18016 71.144 6.18634 71.2346 6.18634C71.3253 6.18634 71.3809 6.18016 71.4056 6.16986C71.4293 6.15853 71.4427 6.13586 71.4427 6.10495V5.49609H71.5591C71.6539 5.49609 71.7271 5.51875 71.7745 5.55996C71.8219 5.60117 71.8631 5.67638 71.8971 5.78352L71.9888 6.08229C71.9949 6.10598 72.0021 6.1235 72.0135 6.13689C72.0238 6.14822 72.0382 6.15853 72.0568 6.16574C72.0763 6.17398 72.101 6.17707 72.1309 6.18119C72.1618 6.18428 72.1999 6.18531 72.2515 6.18531C72.3061 6.18531 72.3493 6.18325 72.3802 6.18119C72.4132 6.1781 72.4379 6.17501 72.4544 6.17089C72.473 6.16677 72.4822 6.15956 72.4874 6.14925C72.4915 6.13998 72.4946 6.12865 72.4946 6.11629C72.4946 6.0998 72.4843 6.05756 72.4637 5.9906L72.3596 5.7145Z" fill="#B9B9B9"/>
</svg>
