<svg width="112" height="24" viewBox="0 0 112 24" fill="none" xmlns="http://www.w3.org/2000/svg">
<g clip-path="url(#clip0_197_765)">
<path fill-rule="evenodd" clip-rule="evenodd" d="M0 17.806V0.333252H2.37698V10.7014L6.57463 6.15267H9.51516L5.25971 10.9829L10.4977 17.7987H7.36937L3.55464 12.6436L2.37698 14.0009V17.806H0Z" fill="#B9B9B9"/>
<path fill-rule="evenodd" clip-rule="evenodd" d="M18.705 14.983V12.0155C18.0548 12.0516 17.4262 12.0949 16.7832 12.1527C16.0029 12.2104 15.6922 12.3043 15.2154 12.427C14.6807 12.5642 14.2472 12.7881 13.9221 13.0841C13.6115 13.3657 13.4525 13.7628 13.4525 14.261C13.4525 14.8241 13.6403 15.2574 13.9944 15.5389C14.3628 15.8278 14.9263 15.9721 15.7283 15.9721C16.5303 15.9721 18.705 16.1237 18.705 14.983ZM15.0203 17.8422C13.9365 17.8422 13.0046 17.5028 12.2459 16.8313C11.4367 16.1166 11.0972 15.3873 11.0972 14.3982C11.0972 13.5462 11.2995 12.8386 11.6968 12.3115C12.087 11.7773 12.6578 11.3585 13.3875 11.0552C14.1027 10.7664 14.6446 10.5643 15.6633 10.456C16.5881 10.3549 17.614 10.2827 18.7122 10.2321V9.9939C18.7122 9.61123 18.64 9.28632 18.4955 9.04085C18.3582 8.79532 18.1487 8.60037 17.8886 8.46323C17.6357 8.32603 17.3178 8.23217 16.9421 8.18166C16.5592 8.13108 16.1546 8.10944 15.75 8.10944C15.2443 8.10944 14.3917 8.23217 14.0666 8.29716C12.8673 8.53539 11.6752 8.92529 11.668 8.93252V6.73762L12.1881 6.62212C12.5494 6.54267 13.0118 6.45604 13.6042 6.36218C14.3411 6.24662 15.0709 6.18164 15.7645 6.18164C16.5881 6.18164 17.3178 6.24662 17.9391 6.36936C18.5677 6.49932 19.124 6.72315 19.5792 7.04083C20.0416 7.35852 20.3956 7.77006 20.634 8.26105C20.8724 8.75204 20.9953 9.36571 20.9953 10.0878V14.0949V15.3729C20.9953 15.8639 20.8508 17.8638 17.0794 17.8638H15.0275L15.0203 17.8422Z" fill="#B9B9B9"/>
<path fill-rule="evenodd" clip-rule="evenodd" d="M54.9453 10.6435C54.8875 9.89984 54.743 9.29341 54.2518 8.7302C53.8183 8.23204 53.4282 7.97934 52.5178 7.9721H52.4889C51.7809 7.9721 51.174 8.23204 50.5743 8.78795C50.0325 9.28618 49.7001 9.91431 49.5917 10.6435H54.9453ZM53.5437 17.8203C51.5858 17.8203 50.0252 17.3149 48.9198 16.3186C47.8144 15.3222 47.2437 13.8926 47.2437 12.0659C47.2437 10.1959 47.7783 8.7302 48.8114 7.68329C49.9168 6.5714 51.0078 6.13818 52.7056 6.13818C54.2373 6.13818 55.061 6.56417 56.0002 7.50281C56.8672 8.36918 57.1562 9.56052 57.1562 11.2067L57.1634 12.3547H49.57C49.5845 12.9323 49.6857 13.4378 49.8735 13.8637C50.0758 14.3331 50.3575 14.7229 50.7116 15.0189C51.0511 15.3078 51.463 15.5388 51.9326 15.6832C52.4094 15.8276 52.9368 15.907 53.5148 15.907C54.2807 15.907 54.7503 15.7626 55.5305 15.4811C55.7545 15.4016 55.9641 15.315 56.1591 15.2283L56.571 15.0406V17.1994L56.2819 17.3077C55.9929 17.3944 55.7112 17.481 55.4366 17.546C54.7358 17.7193 54.3023 17.8131 53.5437 17.8131V17.8203Z" fill="#B9B9B9"/>
<path fill-rule="evenodd" clip-rule="evenodd" d="M89.3429 10.6435C89.2851 9.89984 89.1404 9.29341 88.6493 8.7302C88.2159 8.23204 87.8186 7.97934 86.9156 7.9721H86.8864C86.1783 7.9721 85.5716 8.23204 84.9719 8.78795C84.43 9.28618 84.0975 9.91431 83.989 10.6435H89.3429ZM87.9411 17.8203C85.9834 17.8203 84.423 17.3149 83.3176 16.3186C82.2122 15.3222 81.6411 13.8926 81.6411 12.0659C81.6411 10.1959 82.1684 8.7302 83.2161 7.68329C84.3215 6.5714 85.4124 6.13818 87.1104 6.13818C88.6423 6.13818 89.4659 6.56417 90.4051 7.50281C91.2719 8.36918 91.5607 9.56052 91.5607 11.2067L91.5683 12.3547H83.975C83.989 12.9323 84.0905 13.4378 84.2784 13.8637C84.4808 14.3331 84.7625 14.7229 85.1166 15.0189C85.4561 15.3078 85.8679 15.5388 86.3375 15.6832C86.8071 15.8276 87.3414 15.907 87.9271 15.907C88.6924 15.907 89.162 15.7626 89.9425 15.4811C90.1665 15.4016 90.3759 15.315 90.5714 15.2283L90.9902 15.0406V17.1994L90.7014 17.3077C90.4121 17.3944 90.1304 17.481 89.8486 17.546C89.148 17.7193 88.7146 17.8131 87.9557 17.8131L87.9411 17.8203Z" fill="#B9B9B9"/>
<path fill-rule="evenodd" clip-rule="evenodd" d="M66.9457 12.2681C66.4761 11.7915 65.7534 11.4305 64.865 11.2284C64.5325 11.1489 64.1784 11.0768 63.8173 11.0118C63.3547 10.9251 63.0012 10.853 62.6903 10.7807C62.1122 10.6435 61.6934 10.4703 61.4332 10.2536C61.1946 10.0587 61.0721 9.76994 61.0721 9.3728C61.0721 8.93239 61.274 8.60024 61.6788 8.37641C62.1122 8.13094 62.6541 8.00821 63.29 8.00821C63.9042 8.00821 64.547 8.12371 65.1975 8.35477C65.7394 8.54249 66.223 8.78078 66.6348 9.04789C66.671 9.07676 66.7071 9.10564 66.7287 9.1201L66.9387 9.30059V6.87462L66.888 6.85298C66.7509 6.79523 66.5846 6.73024 66.5846 6.73024L66.3752 6.65803C66.0859 6.54976 65.768 6.46308 65.4215 6.37645C64.7419 6.21761 64.0845 6.13818 63.42 6.13818C62.7195 6.13818 62.069 6.23202 61.498 6.41256C60.9205 6.59304 60.4433 6.84574 60.0676 7.16343C59.6774 7.48834 59.381 7.86378 59.1862 8.27532C58.9984 8.69409 58.8975 9.13451 58.8975 9.60386C58.8975 10.3547 59.1069 10.9901 59.5333 11.51C59.9521 12.0226 60.6603 12.4125 61.6356 12.6724C61.9897 12.7663 62.3794 12.8529 62.7842 12.9251C63.2392 13.0118 63.5501 13.0695 63.7957 13.1273C64.5109 13.2861 64.9805 13.4666 65.1899 13.6544C65.3999 13.8421 65.5008 14.1164 65.5008 14.4991C65.5008 14.9973 65.306 15.3511 64.9011 15.5821C64.4747 15.8204 63.8605 15.9504 63.0951 15.9504C62.4733 15.9504 61.8089 15.8204 61.1153 15.5749C60.4287 15.3294 59.8005 14.9828 59.244 14.5641L58.8975 14.2897V16.8457L58.9914 16.8889C59.4464 17.12 60.0099 17.3294 60.6965 17.5243C61.3825 17.7193 62.1338 17.8131 62.9429 17.8131C64.3884 17.8131 65.544 17.481 66.3892 16.8312C67.242 16.1669 67.6825 15.3005 67.6825 14.2608C67.6825 13.4305 67.4369 12.7518 66.9457 12.2464V12.2681Z" fill="#B9B9B9"/>
<path fill-rule="evenodd" clip-rule="evenodd" d="M30.0265 15.0045C29.4557 15.6471 28.3431 15.9793 27.31 15.9793C26.8331 15.9793 26.4213 15.8709 26.0167 15.7627H26.0022C25.6482 15.6688 25.4965 15.6327 25.0414 15.4378V9.20677C25.0414 8.09488 26.508 8.08765 27.3388 8.08765C28.4515 8.08765 29.6941 8.50642 30.2288 9.23565C30.6839 9.85661 30.9152 10.8097 30.9152 12.0732C30.9152 13.3728 30.619 14.3619 30.0409 15.0118L30.0265 15.0045ZM22.751 7.96492V23.6543H25.0414V17.4305C25.4676 17.5677 25.5543 17.5966 25.9806 17.6904C26.4791 17.8059 26.9776 17.8565 27.6567 17.8565C28.3648 17.8565 29.3546 17.7193 29.9904 17.4522C30.5612 17.2139 31.1536 16.9179 31.6593 16.3836C32.1651 15.8637 32.5625 15.2283 32.837 14.4775C33.1116 13.7338 33.2488 12.9035 33.2488 12.0082C33.2488 10.2393 32.8442 8.82411 32.0422 7.80608C30.8935 6.34039 28.4515 6.17432 26.9415 6.17432C26.9415 6.17432 24.8318 6.17432 23.7192 6.3548C22.621 6.52811 22.7439 7.96492 22.7439 7.96492H22.751Z" fill="#B9B9B9"/>
<path fill-rule="evenodd" clip-rule="evenodd" d="M42.2872 15.0045C41.7164 15.6471 40.5966 15.9793 39.5706 15.9793C39.0938 15.9793 38.6747 15.8709 38.2774 15.7627H38.2629C37.9089 15.6688 37.7572 15.6327 37.302 15.4378V9.20677C37.302 8.09488 38.7759 8.08765 39.5996 8.08765C40.7049 8.08765 41.9548 8.50642 42.4823 9.23565C42.9375 9.85661 43.1686 10.8097 43.1686 12.0732C43.1686 13.3728 42.8724 14.3619 42.2944 15.0118L42.2872 15.0045ZM35.0045 7.96492V23.6543H37.2948V17.4305C37.7211 17.5677 37.8078 17.5966 38.234 17.6904C38.7326 17.8059 39.2311 17.8565 39.9102 17.8565C40.6182 17.8565 41.608 17.7193 42.251 17.4522C42.8146 17.2139 43.4143 16.9179 43.92 16.3836C44.4258 15.8637 44.8231 15.2283 45.0977 14.4775C45.3722 13.7338 45.5095 12.9035 45.5095 12.0082C45.5095 10.2393 45.1049 8.82411 44.3029 7.80608C43.1542 6.34039 40.7122 6.17432 39.2022 6.17432C39.2022 6.17432 37.0925 6.17432 35.9726 6.3548C34.8744 6.52811 35.0045 7.96492 35.0045 7.96492Z" fill="#B9B9B9"/>
<path fill-rule="evenodd" clip-rule="evenodd" d="M77.5594 11.9287C77.5594 13.1922 77.3278 14.1452 76.8728 14.7662C76.3455 15.4954 75.0954 15.9142 73.983 15.9142C73.1594 15.9142 71.6853 15.9069 71.6853 14.795V8.56405C72.1409 8.3691 72.2925 8.33299 72.6466 8.23913H72.6606C73.0654 8.13086 73.4843 8.02254 73.9539 8.02254C74.9875 8.02254 76.1069 8.34745 76.6704 8.99729C77.2561 9.65429 77.5449 10.6435 77.5449 11.9359L77.5594 11.9287ZM70.378 17.6398C71.4904 17.8203 73.6004 17.8203 73.6004 17.8203C75.11 17.8203 77.5519 17.647 78.701 16.1885C79.4955 15.1705 79.9004 13.7553 79.9004 11.9864C79.9004 11.0911 79.7627 10.268 79.4885 9.5171C79.2138 8.77346 78.8165 8.13086 78.3108 7.611C77.805 7.07672 77.2124 6.78791 76.6419 6.54245C75.999 6.27528 75.0161 6.1381 74.3079 6.1381C73.6289 6.1381 73.1308 6.18865 72.632 6.30415C72.2056 6.40525 72.1193 6.42689 71.6929 6.56409V0.340332H69.4097V16.0297C69.4097 16.0297 69.2866 17.4665 70.378 17.6398Z" fill="#B9B9B9"/>
<path fill-rule="evenodd" clip-rule="evenodd" d="M103.828 12.0659C103.828 10.8024 104.059 9.84938 104.515 9.22842C105.049 8.49919 106.292 8.08042 107.405 8.08042C108.229 8.08042 109.702 8.08765 109.702 9.19954V15.4305C109.247 15.6255 109.095 15.6616 108.741 15.7555L108.727 15.7627C108.322 15.8709 107.911 15.9793 107.433 15.9793C106.4 15.9793 105.288 15.6544 104.717 15.0045C104.132 14.3548 103.843 13.3656 103.843 12.0659H103.828ZM111.985 18.0876V7.96492C111.985 7.96492 112.108 6.52811 111.017 6.3548C109.897 6.17432 107.788 6.17432 107.788 6.17432C107.65 6.17432 107.506 6.17432 107.354 6.18155C105.989 6.18878 104.168 6.36203 103.012 7.46675C102.896 7.57502 102.788 7.68334 102.694 7.80608C101.899 8.82411 101.495 10.2393 101.495 12.0154C101.495 12.9107 101.632 13.7338 101.906 14.4847C101.921 14.5136 101.936 14.5425 101.943 14.5713C102 14.723 102.066 14.8746 102.13 15.019C102.384 15.5389 102.701 16.0009 103.077 16.3908C103.583 16.9251 104.183 17.2211 104.746 17.4594C105.382 17.7338 106.068 17.8637 106.776 17.8637C106.87 17.8637 106.957 17.8637 107.051 17.8565C107.058 17.8565 107.072 17.8565 107.079 17.8565C107.759 17.8565 108.257 17.8059 108.756 17.6904C109.182 17.5893 109.269 17.5605 109.702 17.4233V18.99C109.702 19.4233 109.731 20.1741 108.98 20.8023C108.72 21.0189 108.163 21.2789 107.766 21.4232C107.289 21.5893 106.754 21.6687 106.169 21.6687C105.49 21.6687 104.804 21.5821 104.132 21.416C103.482 21.2572 102.99 21.12 102.665 21.0045C102.615 20.9828 102.535 20.9467 102.47 20.9178L102.145 20.7662V23.0766L102.354 23.1416C102.463 23.1705 102.6 23.2066 102.6 23.2066C103.142 23.3438 103.691 23.4521 104.226 23.5243C104.811 23.611 105.425 23.6543 106.054 23.6543C107.939 23.6543 109.673 23.2066 110.613 22.3113C111.566 21.4016 112 20.6868 112 18.7446V18.1308V18.0876H111.985Z" fill="#B9B9B9"/>
<path fill-rule="evenodd" clip-rule="evenodd" d="M100.433 6.21775C100.325 6.20334 100.238 6.19611 100.166 6.18888C100.014 6.17447 99.7541 6.16724 99.4 6.16724C98.7572 6.16724 98.0344 6.26109 97.4062 6.51379C96.8712 6.73039 96.3369 6.95421 95.6433 7.4452V6.16724H94.2917C93.3887 6.31161 93.3164 7.31524 93.3164 7.66179V17.8277H95.6433V9.86394C95.9682 9.40905 96.6402 8.88919 97.1892 8.67983C98.5116 8.17443 99.9565 8.34768 100.426 8.41989C100.527 8.43436 100.903 8.51375 100.903 8.51375V6.2755L100.433 6.21775Z" fill="#B9B9B9"/>
</g>
<defs>
<clipPath id="clip0_197_765">
<rect width="112" height="23.3333" fill="white" transform="translate(0 0.333252)"/>
</clipPath>
</defs>
</svg>
