<svg width="78" height="30" viewBox="0 0 78 30" fill="none" xmlns="http://www.w3.org/2000/svg">
<g clip-path="url(#clip0_197_793)">
<path d="M75.7363 0.230334C76.1322 0.230334 76.4777 0.38149 76.7584 0.662208C77.0464 0.942927 77.1759 1.28843 77.1759 1.68431C77.1687 2.0874 77.032 2.4257 76.744 2.70642C76.4561 2.98714 76.1178 3.13109 75.7075 3.13109C75.3045 3.1239 74.959 2.97274 74.6854 2.69202C74.4047 2.4041 74.2752 2.0658 74.2752 1.66272C74.2824 1.25964 74.4191 0.921334 74.707 0.640615C74.9877 0.374292 75.3332 0.230334 75.7363 0.230334ZM77.4062 1.69151C77.4134 1.23084 77.2479 0.834959 76.924 0.503855C76.6001 0.172751 76.197 0.00719792 75.7363 0C75.2685 0 74.8798 0.158354 74.5415 0.482261C74.2104 0.806167 74.0448 1.19485 74.0376 1.66272C74.0376 2.13058 74.196 2.52647 74.5199 2.85757C74.8438 3.18868 75.2397 3.35423 75.7075 3.36143C76.1682 3.36863 76.5713 3.20307 76.9024 2.87197C77.2335 2.55526 77.399 2.15218 77.4062 1.69151ZM76.1682 1.31722C76.1682 1.45398 76.0962 1.55475 75.9739 1.59794C75.9091 1.62673 75.7939 1.64113 75.6572 1.64113L75.3548 1.63393L75.362 0.971719H75.6428C75.8299 0.978917 75.9595 1.00051 76.0386 1.0437C76.125 1.09408 76.1682 1.18766 76.1682 1.31722ZM75.0453 0.748583L75.0309 2.59845H75.3548V1.87146L75.614 1.87866C75.7939 1.87866 75.9163 1.90025 75.9883 1.93624C76.1034 2.00822 76.161 2.14498 76.1538 2.36092V2.51207L76.161 2.56966C76.161 2.57685 76.161 2.59125 76.161 2.59125C76.161 2.59845 76.161 2.60565 76.161 2.60565L76.4705 2.61284L76.4633 2.59125C76.4489 2.57685 76.4489 2.55526 76.4417 2.49768C76.4345 2.44729 76.4345 2.4041 76.4345 2.36092L76.4417 2.22416C76.4417 2.13058 76.4057 2.03701 76.341 1.93624C76.2762 1.83547 76.1682 1.77789 76.0242 1.75629C76.1466 1.7347 76.233 1.70591 76.2978 1.66272C76.4201 1.59074 76.4777 1.46838 76.4849 1.29563C76.4849 1.06529 76.3913 0.906938 76.197 0.820563C76.089 0.784573 75.9235 0.755781 75.6931 0.755781L75.0453 0.748583Z" fill="#B9B9B9"/>
<path d="M28.2374 0.539795H24.0842V20.0461H28.2374V0.539795Z" fill="#B9B9B9"/>
<path d="M51.0476 11.1065C49.9535 9.64533 47.9525 8.68081 45.2677 8.32811C44.7638 8.23454 43.353 8.07619 41.9782 7.92503C40.733 7.78107 39.4446 7.64431 38.9623 7.55794C37.3356 7.342 36.551 6.81655 36.5078 5.90961C36.4934 5.53532 36.6518 5.17543 36.9757 4.83712C37.7962 3.98777 39.5094 3.46232 41.4456 3.46232H41.5392C44.3823 3.50551 46.6857 4.13893 49.0034 5.52093L49.1114 5.58571L50.7525 2.57698L50.6589 2.51939C48.4348 1.07261 45.7428 0.216064 42.878 0.043314C42.5181 0.0145223 42.1438 0.00732422 41.7695 0.00732422C39.2214 0.00732422 36.9109 0.561564 35.4281 1.52608C34.0461 2.33225 32.4482 4.02376 32.4986 6.15434C32.5634 8.12657 33.679 10.6242 38.6168 11.2792C39.1926 11.3584 40.4235 11.4808 41.5104 11.5887C42.2302 11.6607 42.8492 11.7255 43.1731 11.7615C44.3392 11.8911 47.8949 12.2869 47.9093 14.1944C47.9165 14.4607 47.8229 16.7712 42.2806 16.9296C42.151 16.9368 42.0286 16.9368 41.9063 16.9368C38.9623 16.9368 36.0256 15.9363 33.6431 14.1224L33.5279 14.036L31.8508 17.2679L31.9371 17.3255C35.0538 19.5352 38.1993 20.5214 42.1294 20.5214C42.4317 20.5214 42.7412 20.5142 43.0579 20.507C48.0821 20.3198 51.4651 18.0957 51.897 14.7054C52.0985 13.3306 51.8178 12.1214 51.0476 11.1065Z" fill="#B9B9B9"/>
<path d="M72.8428 11.1065C71.7487 9.64533 69.7477 8.68081 67.0629 8.32811C66.559 8.23454 65.1482 8.07619 63.7806 7.92503C62.5354 7.78107 61.2398 7.64431 60.7647 7.55794C59.1308 7.342 58.3534 6.81655 58.303 5.90961C58.2958 5.53532 58.447 5.17543 58.7781 4.83712C59.5986 3.98777 61.3117 3.46232 63.248 3.46232H63.3344C66.1775 3.50551 68.4809 4.13893 70.7986 5.52093L70.9066 5.58571L72.5405 2.57698L72.4541 2.51939C70.2228 1.07261 67.5307 0.216064 64.6732 0.043314C64.3133 0.0145223 63.939 0.00732422 63.5647 0.00732422C61.0166 0.00732422 58.6989 0.561564 57.2233 1.52608C55.8413 2.33225 54.2434 4.02376 54.2938 6.15434C54.3586 8.12657 55.4814 10.6242 60.412 11.2792C60.9806 11.3584 62.2187 11.4808 63.3056 11.5887C64.0254 11.6607 64.6444 11.7255 64.9683 11.7615C66.1343 11.8911 69.6829 12.2869 69.6973 14.1944C69.7045 14.4607 69.6109 16.7712 64.0685 16.9296C63.9462 16.9368 63.8166 16.9368 63.6942 16.9368C60.7431 16.9368 57.8135 15.9363 55.431 14.1224L55.3231 14.036L53.646 17.2679L53.7323 17.3255C56.849 19.5352 59.9945 20.5214 63.9246 20.5214C64.2269 20.5214 64.5364 20.5142 64.8531 20.507C69.8773 20.3198 73.2603 18.0957 73.6922 14.7054C73.8937 13.3306 73.613 12.1214 72.8428 11.1065Z" fill="#B9B9B9"/>
<path d="M21.5217 20.0461L14.115 11.5238C14.806 10.7248 15.4754 9.88269 16.1088 8.99015C18.5489 5.57114 19.9669 2.33208 20.5931 0.698149L20.6579 0.539795H16.4255L16.3967 0.611774C15.7273 2.12334 14.5757 4.42667 12.8626 6.80918C10.3649 10.2857 7.43537 12.9418 4.13872 14.7484V0.539795H0.0646973V20.5428L0.215854 20.4996C4.30427 19.3767 8.07598 17.2749 11.3654 14.3238L16.332 20.0461H21.5217Z" fill="#B9B9B9"/>
<path d="M0 24.2642H0.647813L4.28276 28.7053H4.29716V24.2642H4.837V29.4683H4.21078L0.55424 25.02H0.539844V29.4611H0V24.2642Z" fill="#B9B9B9"/>
<path d="M10.4802 24.2642H14.619V24.7609H11.02V26.5244H14.4894V27.021H11.02V28.9717H14.6765V29.4683H10.4802V24.2642Z" fill="#B9B9B9"/>
<path d="M26.6827 24.2642H27.2657L25.5166 29.4683H24.8904L23.3212 25.0272H23.3069L21.7593 29.4683H21.1403L19.4128 24.2642H20.0174L21.457 28.7485H21.4714L23.0117 24.2642H23.6739L25.2143 28.7485H25.2287L26.6827 24.2642Z" fill="#B9B9B9"/>
<path d="M40.6249 27.2801L38.2856 24.2642H38.9838L40.8913 26.7403L42.7987 24.2642H43.4969L41.1576 27.2801V29.4683H40.6177V27.2801H40.6249Z" fill="#B9B9B9"/>
<path d="M51.0837 24.1345C52.5593 24.1345 53.9125 25.0271 53.9125 26.8698C53.9125 28.7052 52.5665 29.605 51.0837 29.605C49.6081 29.605 48.2549 28.7124 48.2549 26.8698C48.2621 25.0271 49.6081 24.1345 51.0837 24.1345ZM51.0837 29.1011C52.2282 29.1011 53.3295 28.4317 53.3295 26.8626C53.3295 25.2934 52.2282 24.624 51.0837 24.624C49.9392 24.624 48.838 25.2934 48.838 26.8626C48.8452 28.4317 49.9392 29.1011 51.0837 29.1011Z" fill="#B9B9B9"/>
<path d="M59.3467 24.2642H62.1827C63.0608 24.2642 63.8742 24.5809 63.8742 25.6678C63.8742 26.2221 63.5287 26.7763 62.8521 26.9274V26.9418C63.5863 27.057 63.7374 27.5321 63.7806 28.3814C63.795 28.7125 63.8382 29.3459 63.9606 29.4611H63.3775C63.284 29.3531 63.248 28.9645 63.2408 28.3958C63.2264 27.4745 62.8737 27.1722 61.9811 27.1722H59.8937V29.4611H59.3539V24.2642H59.3467ZM59.8865 26.6827H62.1683C62.7585 26.6827 63.2912 26.4668 63.2912 25.6678C63.2912 24.9048 62.7153 24.7537 62.2187 24.7537H59.8865V26.6827Z" fill="#B9B9B9"/>
<path d="M69.3374 24.2642H69.8773V27.0786L73.2387 24.2642H74.0161L71.4392 26.4164L74.196 29.4683H73.433L71.0217 26.7835L69.8845 27.7192V29.4755H69.3446V24.2642H69.3374Z" fill="#B9B9B9"/>
</g>
<defs>
<clipPath id="clip0_197_793">
<rect width="78" height="30" fill="white"/>
</clipPath>
</defs>
</svg>
