<svg width="78" height="30" viewBox="0 0 78 30" fill="none" xmlns="http://www.w3.org/2000/svg">
<path d="M29.1574 24.0338C25.3554 23.5459 23.4603 19.6463 24.7286 15.6787C25.79 12.3586 28.4567 9.75098 32.3829 9.75098C35.1591 9.75098 37.1518 11.3209 37.1518 13.8753C37.1518 17.3521 33.7577 18.6145 28.232 18.4756C28.3089 22.3781 34.4702 20.5569 35.8272 19.191C35.978 19.0403 36.1909 19.0846 36.1879 19.2975C36.1879 19.5754 36.0519 24.9178 29.1574 24.0338ZM31.8774 12.6956C29.9971 12.6956 28.9032 14.2685 28.6223 15.528C31.7916 15.5546 33.3645 15.1347 33.3645 13.8457C33.3645 13.1746 32.8028 12.6956 31.8774 12.6956Z" fill="#B9B9B9"/>
<path d="M56.8425 24.0338C53.0404 23.5459 51.1453 19.6463 52.4107 15.6787C53.4721 12.3586 56.1388 9.75098 60.068 9.75098C62.8441 9.75098 64.8368 11.3209 64.8368 13.8753C64.8368 17.3521 61.4428 18.6145 55.9171 18.4756C55.994 22.3781 62.1553 20.5569 63.5123 19.191C63.6601 19.0403 63.876 19.0846 63.873 19.2975C63.87 19.5754 63.737 24.9178 56.8425 24.0338ZM59.5624 12.6956C57.6821 12.6956 56.5882 14.2685 56.3073 15.528C59.4797 15.5546 61.0496 15.1347 61.0496 13.8457C61.0496 13.1746 60.4878 12.6956 59.5624 12.6956Z" fill="#B9B9B9"/>
<path d="M64.8869 19.3892C64.9401 19.1083 65.0614 18.9339 65.2831 19.1468C67.8375 21.645 70.8709 21.0271 71.0837 19.877C71.2049 19.2148 70.5604 18.7269 69.301 18.109C67.7311 17.3226 66.4125 16.1725 66.4125 14.4607C66.4125 11.8265 68.4377 9.66236 71.5035 9.72445C75.1016 9.7954 75.4948 13.083 75.4948 13.083C75.483 13.4023 75.1873 13.3698 75.0484 13.3166C74.3861 13.0623 73.3247 12.6188 72.2752 12.6188C71.1813 12.6188 70.4806 13.1421 70.4806 13.899C70.4806 16.4564 75.2198 15.4127 75.2198 19.2296C75.2198 22.7359 72.3846 24.3354 69.8657 24.0989C64.8633 23.6318 64.816 19.7676 64.8869 19.3892Z" fill="#B9B9B9"/>
<path d="M42.6011 0.45292C43.7216 0.0390123 45.0254 0.0567512 45.0254 0.0567512C45.0254 0.0567512 45.3418 0.047882 45.2501 0.414486C45.2087 0.618484 42.9914 11.661 42.9884 11.7053C44.1592 10.4518 45.6079 9.73333 47.296 9.73333C50.1668 9.73333 51.4617 12.0985 51.4617 14.5465C51.4617 18.996 48.5348 24.1196 42.341 24.1196C39.074 24.1196 37.4835 22.7123 37.4421 20.2614C37.4155 18.6708 40.5937 3.22019 40.5937 3.22019C40.5937 3.22019 40.8332 1.10039 42.6011 0.45292ZM43.2516 20.8202C45.6167 20.8202 47.2132 17.7868 47.2132 15.392C47.2132 14.0409 46.6515 13.0269 45.4127 13.0269C43.9493 13.0269 42.5863 14.9101 42.0335 16.8821C41.046 20.4122 42.2197 20.8202 43.2516 20.8202Z" fill="#B9B9B9"/>
<path d="M37.2117 25.4204C36.9574 26.1832 36.4282 27.144 33.6166 28.6223C27.9815 31.1353 21.5009 27.9305 17.35 26.4907C15.9013 27.3806 14.3433 28.1078 12.868 27.4574C10.8132 26.5527 11.4252 24.0249 12.5191 22.733C13.7342 21.2961 15.7683 21.0921 17.1992 21.0921C18.5237 19.6109 20.4188 7.35922 20.5075 3.51579C20.5578 2.43667 21.0693 1.02938 23.4019 0.302089C26.4826 -0.510945 26.2875 0.523826 26.2875 0.987994C26.2875 1.20086 25.2704 12.3527 20.3981 22.0323C23.9252 22.6206 27.2867 29.5979 37.0638 24.8084C37.0609 24.8084 37.4186 24.7995 37.2117 25.4204Z" fill="#B9B9B9"/>
<path d="M29.1606 3.38281H28.7586L28.1377 6.65269H29.8525L29.9205 6.30382H28.6019L29.1606 3.38281Z" fill="#B9B9B9"/>
<path d="M32.2648 5.22759C32.2648 4.73386 31.978 4.25195 31.3424 4.25195C30.5796 4.25195 30.0415 4.96447 30.0415 5.73907C30.0415 6.26828 30.3697 6.70288 30.958 6.70288H30.961C31.7504 6.70584 32.2648 5.95489 32.2648 5.22759ZM31.0083 6.38358H31.0024C30.6683 6.38358 30.4554 6.10863 30.4554 5.72428C30.4554 5.1862 30.7895 4.5683 31.2951 4.5683C31.7178 4.5683 31.842 4.95264 31.842 5.22464C31.842 5.77454 31.4843 6.38358 31.0083 6.38358Z" fill="#B9B9B9"/>
<path d="M33.1076 3.87339H33.1135C33.2732 3.87339 33.3944 3.75513 33.4003 3.58661C33.4003 3.43583 33.2998 3.32349 33.149 3.32349C32.9982 3.32349 32.877 3.45062 32.8711 3.61027C32.8711 3.76105 32.9687 3.87339 33.1076 3.87339Z" fill="#B9B9B9"/>
<path d="M32.3651 6.72952C32.2735 7.21439 32.1138 7.34151 31.9098 7.34151C31.833 7.34151 31.7709 7.3356 31.7265 7.32082L31.6763 7.63421C31.7531 7.65786 31.8418 7.66377 31.9424 7.66377C32.1464 7.66377 32.3444 7.58986 32.4804 7.43612C32.6194 7.27943 32.7081 7.03404 32.779 6.64378L33.2225 4.30225H32.8263L32.3651 6.72952Z" fill="#B9B9B9"/>
<path d="M35.5292 4.33769C35.3695 4.28743 35.1212 4.25195 34.8995 4.25195C33.8824 4.25195 33.2793 5.10933 33.2793 5.92828C33.2793 6.37471 33.5365 6.70584 33.9534 6.70584C34.2845 6.70584 34.6068 6.53436 34.864 6.04654H34.8758C34.8462 6.28897 34.8226 6.51367 34.8226 6.65262H35.1951C35.1862 6.38949 35.2158 5.97263 35.2927 5.56463L35.5292 4.33769ZM34.9408 5.31333C34.8285 5.94011 34.4323 6.37767 34.0923 6.37767C33.7878 6.37767 33.6932 6.12045 33.6932 5.85733C33.6932 5.20099 34.1929 4.57125 34.7989 4.57125C34.9349 4.57125 35.0177 4.58604 35.0739 4.60673L34.9408 5.31333Z" fill="#B9B9B9"/>
<path d="M36.6431 4.56534C36.8176 4.56534 36.9624 4.62447 37.0452 4.67177L37.1576 4.36726C37.0689 4.30813 36.8796 4.25195 36.6727 4.25195C36.173 4.25195 35.8183 4.56534 35.8183 4.97925C35.8183 5.22168 35.969 5.42568 36.241 5.57646C36.4894 5.71246 36.5722 5.82776 36.5722 6.01106C36.5722 6.21802 36.3977 6.39245 36.1257 6.39245C35.9306 6.39245 35.7266 6.31558 35.6202 6.24758L35.5049 6.54323C35.6113 6.62601 35.836 6.69992 36.0873 6.70288C36.587 6.70288 36.9831 6.42793 36.9831 5.93124C36.9831 5.66515 36.8087 5.46116 36.5456 5.31038C36.3327 5.19212 36.2204 5.08864 36.2204 4.91716C36.2233 4.72203 36.3977 4.56534 36.6431 4.56534Z" fill="#B9B9B9"/>
<path d="M8.59514 0.373062C8.59514 0.476539 8.09549 5.96969 5.69482 10.7355C7.43324 11.0253 9.08591 14.4607 13.902 12.1044C13.902 12.1044 14.0794 12.0985 13.9759 12.406C13.9671 12.4296 13.9582 12.4562 13.9493 12.4799C14.9605 11.1702 15.5636 9.52635 15.5636 7.74358C15.5636 3.69911 12.4652 0.378975 8.51531 0.0212402C8.60992 0.13063 8.59514 0.278454 8.59514 0.373062Z" fill="#B9B9B9"/>
<path d="M12.2048 13.9817C9.42864 15.2204 6.23859 13.6417 4.19566 12.9321C3.69601 13.2396 3.16976 13.5057 2.64941 13.5293C4.02122 14.7533 5.83059 15.4984 7.81144 15.4984C9.78637 15.4984 11.5869 14.7592 12.9557 13.5441C12.7517 13.6801 12.5034 13.825 12.2048 13.9817Z" fill="#B9B9B9"/>
<path d="M1.81624 11.0813C2.41641 10.3747 3.4157 10.2712 4.11934 10.2712C4.76977 9.54099 5.70402 3.50976 5.74837 1.61761C5.77497 1.08544 6.02628 0.393621 7.17339 0.0358858C7.21183 0.0270163 7.24731 0.0181468 7.28278 0.00927734C3.24718 0.278318 0.0571289 3.63984 0.0571289 7.74345C0.0571289 9.33108 0.53608 10.8093 1.35503 12.0392C1.42598 11.6844 1.60337 11.3356 1.81624 11.0813Z" fill="#B9B9B9"/>
<path d="M77.1474 9.02959C77.2124 8.96159 77.245 8.88472 77.245 8.79307C77.245 8.72802 77.2243 8.66889 77.1888 8.61272C77.1503 8.55655 77.1001 8.51516 77.035 8.49446C76.97 8.47081 76.8636 8.45898 76.7187 8.45898H76.293V9.69479H76.494V9.16854H76.6093C76.6803 9.16854 76.7335 9.18332 76.769 9.20993C76.8222 9.24837 76.8902 9.34297 76.9759 9.49671L77.0853 9.69184H77.3307L77.1799 9.44941C77.109 9.3341 77.0469 9.25132 76.9966 9.20402C76.97 9.17741 76.9345 9.15672 76.8902 9.13898C76.9966 9.13602 77.0824 9.09758 77.1474 9.02959ZM77.0321 8.81081C77.0321 8.86698 77.0114 8.91428 76.97 8.9468C76.9286 8.98228 76.8488 9.00002 76.7335 9.00002H76.4911V8.6275H76.7187C76.8163 8.6275 76.8843 8.63342 76.9197 8.6482C76.9552 8.66298 76.9848 8.68368 77.0055 8.71324C77.0232 8.74281 77.0321 8.77533 77.0321 8.81081Z" fill="#B9B9B9"/>
<path d="M77.9427 9.05925C77.9427 8.85821 77.8924 8.66604 77.7889 8.48274C77.6855 8.29944 77.5435 8.15752 77.3602 8.057C77.1769 7.95944 76.9877 7.90918 76.7956 7.90918C76.6034 7.90918 76.4142 7.95944 76.2309 8.057C76.0476 8.15752 75.9027 8.29648 75.8022 8.48274C75.6987 8.66604 75.6484 8.85821 75.6484 9.05925C75.6484 9.25734 75.6987 9.44655 75.7992 9.62986C75.8997 9.81316 76.0417 9.95507 76.225 10.0556C76.4053 10.1561 76.5975 10.2064 76.7956 10.2064C76.9936 10.2064 77.1858 10.1561 77.3662 10.0556C77.5495 9.95507 77.6914 9.81316 77.7919 9.62986C77.8924 9.44951 77.9427 9.25734 77.9427 9.05925ZM77.7535 9.05925C77.7535 9.22482 77.7121 9.38447 77.6263 9.53525C77.5406 9.68603 77.4223 9.80429 77.2715 9.89003C77.1208 9.97576 76.9611 10.0172 76.7956 10.0172C76.63 10.0172 76.4703 9.97576 76.3196 9.89003C76.1688 9.80429 76.0476 9.68603 75.9648 9.53525C75.879 9.38447 75.8376 9.22482 75.8376 9.05925C75.8376 8.89369 75.882 8.73404 75.9677 8.5803C76.0535 8.42657 76.1747 8.30831 76.3255 8.22552C76.4792 8.14274 76.6359 8.10135 76.7985 8.10135C76.9582 8.10135 77.1149 8.14274 77.2686 8.22552C77.4223 8.30831 77.5406 8.42657 77.6263 8.5803C77.7091 8.73404 77.7535 8.89369 77.7535 9.05925Z" fill="#B9B9B9"/>
<path d="M40.2684 29.545L39.9609 27.0586H40.2743L40.4547 28.6521C40.4813 28.9064 40.499 29.0513 40.499 29.2139H40.5108C40.5729 29.0601 40.6498 28.8739 40.7828 28.6137L41.5752 27.0616H41.9093L40.6025 29.548H40.2684V29.545Z" fill="#B9B9B9"/>
<path d="M42.781 28.1817C42.781 28.0368 42.6716 27.957 42.509 27.957C42.2163 27.957 42.0004 28.2408 41.9265 28.5217C42.4055 28.5276 42.781 28.4625 42.781 28.1846V28.1817ZM42.846 29.4411C42.713 29.515 42.4942 29.583 42.2547 29.583C41.7817 29.583 41.5747 29.2608 41.5747 28.8676C41.5747 28.3295 41.9738 27.7205 42.5474 27.7205C42.8874 27.7205 43.0707 27.9245 43.0707 28.1817C43.0707 28.6488 42.5415 28.773 41.8822 28.7611C41.8674 28.838 41.8792 29.0036 41.9177 29.0982C41.9886 29.2608 42.1305 29.3377 42.3168 29.3377C42.5267 29.3377 42.6863 29.2756 42.7957 29.2164L42.846 29.4411Z" fill="#B9B9B9"/>
<path d="M43.1747 29.2342C43.2545 29.2845 43.4112 29.3466 43.559 29.3466C43.766 29.3466 43.899 29.2135 43.899 29.0539C43.899 28.9149 43.8369 28.8292 43.6477 28.7257C43.4407 28.6104 43.3254 28.4537 43.3254 28.2704C43.3254 27.957 43.5945 27.7175 43.9759 27.7175C44.1355 27.7175 44.2774 27.7619 44.3454 27.8062L44.2597 28.0398C44.1976 28.0043 44.0853 27.96 43.9522 27.96C43.763 27.96 43.63 28.0753 43.63 28.229C43.63 28.3591 43.7157 28.4389 43.8783 28.5276C44.0764 28.6429 44.2094 28.7966 44.2094 28.9977C44.2094 29.3732 43.9079 29.586 43.5265 29.586C43.3343 29.5831 43.1658 29.5269 43.083 29.4648L43.1747 29.2342Z" fill="#B9B9B9"/>
<path d="M45.2503 27.3303L45.1705 27.759H45.5991L45.5518 27.9985H45.1231L44.9605 28.8647C44.9398 28.9653 44.9251 29.0569 44.9251 29.1486C44.9251 29.255 44.9753 29.323 45.0936 29.323C45.1498 29.323 45.1971 29.32 45.2385 29.3082L45.2237 29.5477C45.1675 29.5684 45.0758 29.5802 44.9871 29.5802C44.7181 29.5802 44.6117 29.4176 44.6117 29.2343C44.6117 29.1308 44.6265 29.0303 44.6531 28.9032L44.8275 27.9985H44.5732L44.6176 27.759H44.8718L44.9339 27.4308L45.2503 27.3303Z" fill="#B9B9B9"/>
<path d="M46.7458 28.1817C46.7458 28.0368 46.6364 27.957 46.4738 27.957C46.1811 27.957 45.9653 28.2408 45.8913 28.5217C46.3703 28.5276 46.7458 28.4625 46.7458 28.1846V28.1817ZM46.8138 29.4411C46.6807 29.515 46.4619 29.583 46.2225 29.583C45.7494 29.583 45.5425 29.2608 45.5425 28.8676C45.5425 28.3295 45.9416 27.7205 46.5152 27.7205C46.8552 27.7205 47.0385 27.9245 47.0385 28.1817C47.0385 28.6488 46.5092 28.773 45.85 28.7611C45.8352 28.838 45.847 29.0036 45.8854 29.0982C45.9564 29.2608 46.0983 29.3377 46.2846 29.3377C46.4945 29.3377 46.6541 29.2756 46.7635 29.2164L46.8138 29.4411Z" fill="#B9B9B9"/>
<path d="M48.118 27.7588L48.2718 28.7758C48.2984 28.9798 48.325 29.1188 48.328 29.2163H48.3398C48.3812 29.1217 48.4285 29.0035 48.532 28.7995L49.073 27.7588H49.41L48.4167 29.5445H48.118L47.8076 27.7588H48.118Z" fill="#B9B9B9"/>
<path d="M50.0599 29.3406C50.4206 29.3406 50.6956 28.8765 50.6956 28.4596C50.6956 28.2527 50.601 27.9629 50.2787 27.9629C49.8944 27.9629 49.6401 28.433 49.6401 28.841C49.6401 29.1337 49.8027 29.3436 50.057 29.3436H50.0599V29.3406ZM50.0185 29.5831C49.5721 29.5831 49.3208 29.2519 49.3208 28.8499C49.3208 28.2586 49.7318 27.7175 50.3112 27.7175C50.7961 27.7175 51.0119 28.0841 51.0119 28.4596C51.0119 29.0125 50.6217 29.586 50.0244 29.586H50.0185V29.5831Z" fill="#B9B9B9"/>
<path d="M52.3781 29.4707C52.2864 29.518 52.1002 29.583 51.8607 29.583C51.3995 29.583 51.1748 29.2726 51.1748 28.8942C51.1748 28.2851 51.6242 27.7205 52.2687 27.7205C52.4343 27.7205 52.585 27.7678 52.6412 27.8032L52.5525 28.0427C52.4816 28.0102 52.384 27.9777 52.251 27.9777C51.7868 27.9777 51.4941 28.4359 51.4941 28.8558C51.4941 29.1484 51.6449 29.3347 51.9376 29.3347C52.1209 29.3347 52.2598 29.2785 52.3515 29.2342L52.3781 29.4707Z" fill="#B9B9B9"/>
<path d="M53.8091 27.0112L54.0634 27.5404H53.8357L53.6761 27.2034H53.6702L53.4129 27.5404H53.1646L53.5933 27.0112H53.8091ZM53.8239 28.182C53.8239 28.0371 53.7145 27.9573 53.5519 27.9573C53.2592 27.9573 53.0434 28.2411 52.9695 28.522C53.4484 28.5279 53.8269 28.4629 53.8269 28.185V28.182H53.8239ZM53.8919 29.4415C53.7589 29.5154 53.5401 29.5834 53.3006 29.5834C52.8276 29.5834 52.6206 29.2611 52.6206 28.8679C52.6206 28.3298 53.0197 27.7208 53.5933 27.7208C53.9333 27.7208 54.1166 27.9248 54.1166 28.182C54.1166 28.6491 53.5874 28.7733 52.9281 28.7615C52.9133 28.8383 52.9251 29.0039 52.9636 29.0985C53.0345 29.2611 53.1794 29.338 53.3627 29.338C53.5726 29.338 53.7322 29.2759 53.8416 29.2168L53.8919 29.4415Z" fill="#B9B9B9"/>
<path d="M53.8945 30.0001C54.0098 29.7783 54.1784 29.3851 54.2552 29.1131L54.6218 29.0776C54.4888 29.391 54.2611 29.802 54.1311 29.9735L53.8945 30.0001Z" fill="#B9B9B9"/>
<path d="M55.8578 27.7588L56.0115 28.7758C56.0381 28.9798 56.0648 29.1188 56.0677 29.2163H56.0795C56.1209 29.1217 56.1682 29.0035 56.2717 28.7995L56.8127 27.7588H57.1498L56.1564 29.5445H55.8578L55.5474 27.7588H55.8578Z" fill="#B9B9B9"/>
<path d="M58.2561 28.1817C58.2561 28.0368 58.1467 27.957 57.9841 27.957C57.6914 27.957 57.4755 28.2408 57.4016 28.5217C57.8806 28.5276 58.259 28.4625 58.259 28.1846V28.1817H58.2561ZM58.3211 29.4411C58.1881 29.515 57.9693 29.583 57.7298 29.583C57.2568 29.583 57.0498 29.2608 57.0498 28.8676C57.0498 28.3295 57.4489 27.7205 58.0254 27.7205C58.3654 27.7205 58.5487 27.9245 58.5487 28.1817C58.5487 28.6488 58.0225 28.773 57.3602 28.7611C57.3455 28.838 57.3573 29.0036 57.3957 29.0982C57.4667 29.2608 57.6086 29.3377 57.7948 29.3377C58.0048 29.3377 58.1644 29.2756 58.2738 29.2164L58.3211 29.4411Z" fill="#B9B9B9"/>
<path d="M58.6483 29.2342C58.7281 29.2845 58.8848 29.3466 59.0326 29.3466C59.2396 29.3466 59.3726 29.2135 59.3726 29.0539C59.3726 28.9149 59.3105 28.8292 59.1213 28.7257C58.9144 28.6104 58.7991 28.4537 58.7991 28.2704C58.7991 27.957 59.0681 27.7175 59.4495 27.7175C59.6091 27.7175 59.7511 27.7619 59.8191 27.8062L59.7333 28.0398C59.6712 28.0043 59.5589 27.96 59.4258 27.96C59.2366 27.96 59.1036 28.0753 59.1036 28.229C59.1036 28.3591 59.1893 28.4389 59.3519 28.5276C59.55 28.6429 59.6831 28.7966 59.6831 28.9977C59.6831 29.3732 59.3815 29.586 59.0001 29.586C58.8079 29.5831 58.6394 29.5269 58.5566 29.4648L58.6483 29.2342Z" fill="#B9B9B9"/>
<path d="M60.7239 27.3303L60.6441 27.759H61.0728L61.0255 27.9985H60.5968L60.4342 28.8647C60.4135 28.9653 60.3987 29.0569 60.3987 29.1486C60.3987 29.255 60.449 29.323 60.5672 29.323C60.6234 29.323 60.6707 29.32 60.7121 29.3082L60.6973 29.5477C60.6411 29.5684 60.5495 29.5802 60.4608 29.5802C60.1917 29.5802 60.0853 29.4176 60.0853 29.2343C60.0853 29.1308 60.1001 29.0303 60.1267 28.9032L60.3011 27.9985H60.0469L60.0912 27.759H60.3455L60.4076 27.4308L60.7239 27.3303Z" fill="#B9B9B9"/>
<path d="M62.2204 28.1817C62.2204 28.0368 62.111 27.957 61.9484 27.957C61.6557 27.957 61.4399 28.2408 61.366 28.5217C61.8449 28.5276 62.2233 28.4625 62.2233 28.1846V28.1817H62.2204ZM62.2884 29.4411C62.1553 29.515 61.9366 29.583 61.6971 29.583C61.224 29.583 61.0171 29.2608 61.0171 28.8676C61.0171 28.3295 61.4162 27.7205 61.9927 27.7205C62.3327 27.7205 62.516 27.9245 62.516 28.1817C62.516 28.6488 61.9898 28.773 61.3275 28.7611C61.3127 28.838 61.3246 29.0036 61.363 29.0982C61.434 29.2608 61.5759 29.3377 61.7621 29.3377C61.972 29.3377 62.1317 29.2756 62.2411 29.2164L62.2884 29.4411Z" fill="#B9B9B9"/>
<path d="M63.2137 29.2342C63.2935 29.2845 63.4502 29.3466 63.5981 29.3466C63.805 29.3466 63.9381 29.2135 63.9381 29.0539C63.9381 28.9149 63.876 28.8292 63.6868 28.7257C63.4798 28.6104 63.3645 28.4537 63.3645 28.2704C63.3645 27.957 63.6335 27.7175 64.0149 27.7175C64.1746 27.7175 64.3165 27.7619 64.3845 27.8062L64.2988 28.0398C64.2367 28.0043 64.1243 27.96 63.9913 27.96C63.8021 27.96 63.669 28.0753 63.669 28.229C63.669 28.3591 63.7548 28.4389 63.9174 28.5276C64.1154 28.6429 64.2485 28.7966 64.2485 28.9977C64.2485 29.3732 63.9469 29.586 63.5655 29.586C63.3734 29.5831 63.2049 29.5269 63.1221 29.4648L63.2137 29.2342Z" fill="#B9B9B9"/>
<path d="M66.2441 27.7588L66.0016 29.0242C65.9662 29.2223 65.9395 29.3967 65.9248 29.5445H65.6469L65.6942 29.2075H65.6853C65.5227 29.4411 65.2891 29.583 65.0556 29.583C64.8279 29.583 64.5825 29.4706 64.5825 29.0656C64.5825 28.9798 64.5943 28.8823 64.615 28.764L64.8102 27.7559H65.1117L64.9225 28.7522C64.9048 28.8527 64.893 28.9355 64.893 29.0153C64.893 29.1986 64.9669 29.3258 65.1768 29.3258C65.4015 29.3258 65.6853 29.0626 65.7592 28.6724L65.9336 27.7559H66.2441V27.7588Z" fill="#B9B9B9"/>
<path d="M67.7312 27.9866C67.6869 27.9718 67.6189 27.96 67.5183 27.96C67.0571 27.96 66.6757 28.4389 66.6757 28.9386C66.6757 29.1366 66.7467 29.3318 66.9832 29.3318C67.2375 29.3318 67.539 29.0006 67.6277 28.5247L67.7312 27.9866ZM67.5302 29.5446C67.5302 29.4382 67.5479 29.2667 67.5716 29.0834H67.5657C67.3705 29.4559 67.1222 29.586 66.8709 29.586C66.5545 29.586 66.3564 29.3347 66.3564 28.9947C66.3564 28.3709 66.8147 27.7175 67.5923 27.7175C67.7608 27.7175 67.947 27.7471 68.0712 27.7855L67.8879 28.7198C67.8288 29.0302 67.8081 29.3466 67.814 29.5476H67.5302V29.5446Z" fill="#B9B9B9"/>
<path d="M70.0251 29.4707C69.9334 29.518 69.7472 29.583 69.5077 29.583C69.0465 29.583 68.8218 29.2726 68.8218 28.8942C68.8218 28.2851 69.2712 27.7205 69.9127 27.7205C70.0783 27.7205 70.2291 27.7678 70.2852 27.8032L70.1965 28.0427C70.1256 28.0102 70.028 27.9777 69.895 27.9777C69.4308 27.9777 69.1381 28.4359 69.1381 28.8558C69.1381 29.1484 69.2889 29.3347 69.5816 29.3347C69.7649 29.3347 69.9039 29.2785 69.9955 29.2342L70.0251 29.4707Z" fill="#B9B9B9"/>
<path d="M71.6126 27.9866C71.5682 27.9718 71.5002 27.96 71.3997 27.96C70.9385 27.96 70.5571 28.4389 70.5571 28.9386C70.5571 29.1366 70.628 29.3318 70.8646 29.3318C71.1188 29.3318 71.4204 29.0006 71.5091 28.5247L71.6126 27.9866ZM71.4115 29.5446C71.4115 29.4382 71.4293 29.2667 71.4529 29.0834H71.447C71.2519 29.4559 71.0035 29.586 70.7522 29.586C70.4359 29.586 70.2378 29.3347 70.2378 28.9947C70.2378 28.3709 70.6961 27.7175 71.4736 27.7175C71.6421 27.7175 71.8284 27.7471 71.9526 27.7855L71.7693 28.7198C71.7101 29.0302 71.6894 29.3466 71.6953 29.5476H71.4115V29.5446Z" fill="#B9B9B9"/>
<path d="M72.0975 29.2342C72.1773 29.2845 72.334 29.3466 72.4819 29.3466C72.6888 29.3466 72.8219 29.2135 72.8219 29.0539C72.8219 28.9149 72.7598 28.8292 72.5705 28.7257C72.3636 28.6104 72.2483 28.4537 72.2483 28.2704C72.2483 27.957 72.5173 27.7175 72.8987 27.7175C73.0584 27.7175 73.2003 27.7619 73.2683 27.8062L73.1825 28.0398C73.1205 28.0043 73.0081 27.96 72.8751 27.96C72.6859 27.96 72.5528 28.0753 72.5528 28.229C72.5528 28.3591 72.6385 28.4389 72.8012 28.5276C72.9992 28.6429 73.1323 28.7966 73.1323 28.9977C73.1323 29.3732 72.8307 29.586 72.4493 29.586C72.2572 29.5831 72.0886 29.5269 72.0059 29.4648L72.0975 29.2342Z" fill="#B9B9B9"/>
<path d="M74.7678 27.9866C74.7235 27.9718 74.6555 27.96 74.555 27.96C74.0938 27.96 73.7124 28.4389 73.7124 28.9386C73.7124 29.1366 73.7833 29.3318 74.0198 29.3318C74.2741 29.3318 74.5757 29.0006 74.6644 28.5247L74.7678 27.9866ZM74.5668 29.5446C74.5668 29.4382 74.5845 29.2667 74.6082 29.0834H74.6023C74.4071 29.4559 74.1588 29.586 73.9075 29.586C73.5911 29.586 73.3931 29.3347 73.3931 28.9947C73.3931 28.3709 73.8513 27.7175 74.6289 27.7175C74.7974 27.7175 74.9837 27.7471 75.1078 27.7855L74.9245 28.7198C74.8654 29.0302 74.8447 29.3466 74.8506 29.5476H74.5668V29.5446Z" fill="#B9B9B9"/>
<path d="M75.412 29.5802C75.2908 29.5802 75.208 29.4856 75.208 29.3614C75.208 29.2254 75.3056 29.113 75.4416 29.113C75.5657 29.113 75.6485 29.2076 75.6485 29.3348C75.6485 29.4708 75.5539 29.5772 75.415 29.5772H75.412V29.5802Z" fill="#B9B9B9"/>
</svg>
