<svg width="76" height="30" viewBox="0 0 76 30" fill="none" xmlns="http://www.w3.org/2000/svg">
<g clip-path="url(#clip0_197_918)">
<path d="M5.54966 24.2449V29.8924H5.04205V27.2893H1.48561V29.8924H0.987305V24.2449H1.48561V26.8153H5.04205V24.2449H5.54966Z" fill="#B9B9B9"/>
<path d="M9.95996 27.0701C9.95996 25.4088 11.2267 24.1484 12.8954 24.1484C14.572 24.1484 15.8387 25.4088 15.8387 27.0701C15.8387 28.7314 14.572 29.9918 12.8954 29.9918C11.2282 29.9918 9.95996 28.7314 9.95996 27.0701ZM15.3155 27.0701C15.3155 25.6792 14.277 24.6395 12.8954 24.6395C11.5216 24.6395 10.4754 25.6792 10.4754 27.0701C10.4754 28.461 11.5216 29.5007 12.8954 29.5007C14.277 29.5007 15.3155 28.461 15.3155 27.0701Z" fill="#B9B9B9"/>
<path d="M25.4653 24.2449V29.8924H24.967V25.0546L22.7425 29.8924H22.342L20.1175 25.0546V29.8924H19.6191V24.2449H20.2898L22.5469 29.1729L24.804 24.2449H25.4653Z" fill="#B9B9B9"/>
<path d="M33.9811 29.4183V29.8939H30.3921V24.2463H33.9408V24.7219H30.8904V26.8168H33.6706V27.2908H30.8904V29.4183H33.9811Z" fill="#B9B9B9"/>
<path d="M44.1133 28.3461H44.6285C44.6285 29.0175 45.2418 29.5334 46.0273 29.5334C46.7957 29.5334 47.3934 29.075 47.3934 28.4362C47.3934 27.8472 46.8699 27.4541 45.9047 27.2412C44.8738 27.0205 44.2203 26.5045 44.2203 25.6778C44.2203 24.7857 44.9965 24.147 46.0117 24.147C47.0332 24.147 47.8109 24.8261 47.8109 25.7275H47.2953C47.2953 25.0887 46.7398 24.6054 46.0117 24.6054C45.3008 24.6054 44.7449 25.039 44.7449 25.6451C44.7449 26.2015 45.2277 26.5947 46.1344 26.7905C47.1977 27.0283 47.9164 27.5193 47.9164 28.3943C47.9164 29.3267 47.0906 29.9903 46.0195 29.9903C44.9391 29.9919 44.1133 29.2801 44.1133 28.3461Z" fill="#B9B9B9"/>
<path d="M57.3154 24.2449V29.8924H56.8076V27.2893H53.2514V29.8924H52.7529V24.2449H53.2514V26.8153H56.8076V24.2449H57.3154Z" fill="#B9B9B9"/>
<path d="M61.1084 27.0701C61.1084 25.4088 62.3752 24.1484 64.0439 24.1484C65.7205 24.1484 66.9873 25.4088 66.9873 27.0701C66.9873 28.7314 65.7205 29.9918 64.0439 29.9918C62.3768 29.9918 61.1084 28.7314 61.1084 27.0701ZM66.4643 27.0701C66.4643 25.6792 65.4256 24.6395 64.0439 24.6395C62.6701 24.6395 61.624 25.6792 61.624 27.0701C61.624 28.461 62.6701 29.5007 64.0439 29.5007C65.4271 29.5007 66.4643 28.461 66.4643 27.0701Z" fill="#B9B9B9"/>
<path d="M75.0518 25.9481C75.0518 26.9225 74.308 27.6591 73.3272 27.6591H71.5775V29.8939H71.0791V24.2463H73.3272C74.308 24.2448 75.0518 24.9814 75.0518 25.9481ZM74.5287 25.9481C74.5287 25.2441 74.0131 24.7203 73.3193 24.7203H71.5775V27.1836H73.3193C74.0131 27.1836 74.5287 26.6521 74.5287 25.9481Z" fill="#B9B9B9"/>
<path d="M12.6313 14.3685V19.312H0.505859V0.361572H5.74506V14.3685H12.6313Z" fill="#B9B9B9"/>
<path d="M56.0858 5.3051H51.5312V19.312H46.2905V5.3051H41.7358V0.361572H56.0843V5.3051H56.0858Z" fill="#B9B9B9"/>
<path d="M60.9956 13.4345H66.373C66.373 14.2862 67.2519 14.9731 68.3757 14.9731C69.3366 14.9731 70.1315 14.4789 70.1315 13.82C70.1315 12.858 68.4581 12.4197 67.0034 12.0623C64.3425 11.4034 61.269 9.81044 61.269 6.13036C61.269 2.47826 64.2589 0.0336914 68.2097 0.0336914C72.2147 0.0336914 75.2323 2.58861 75.2323 5.9936H69.855C69.855 5.25231 69.1425 4.70216 68.1538 4.70216C67.3308 4.70216 66.6448 5.08602 66.6448 5.71852C66.6448 6.65255 68.1257 7.09235 69.5522 7.44821C72.3511 8.16153 75.5058 9.50739 75.5058 13.2978C75.5058 17.0882 72.3776 19.6416 68.2901 19.6416C64.096 19.6416 60.9956 16.9234 60.9956 13.4345Z" fill="#B9B9B9"/>
<path fill-rule="evenodd" clip-rule="evenodd" d="M36.4155 9.84288C36.4155 15.118 32.1439 19.3943 26.8747 19.3943C21.6055 19.3943 17.334 15.118 17.334 9.84288C17.334 4.5678 21.6055 0.291504 26.8747 0.291504C32.1439 0.291504 36.4155 4.5678 36.4155 9.84288ZM27.4023 10.3588H29.5663V9.32842H27.4023V7.1496H26.3467V9.32842H24.1827V10.3588H26.3467V12.5376H27.4023V10.3588Z" fill="#B9B9B9"/>
</g>
<defs>
<clipPath id="clip0_197_918">
<rect width="75.0391" height="30" fill="white" transform="translate(0.480469)"/>
</clipPath>
</defs>
</svg>
