<svg width="62" height="30" viewBox="0 0 62 30" fill="none" xmlns="http://www.w3.org/2000/svg">
<g clip-path="url(#clip0_197_815)">
<path fill-rule="evenodd" clip-rule="evenodd" d="M51.382 20.8643C51.382 20.7588 51.3519 20.6834 51.3067 20.608L44.5529 10.5678L50.7187 0.78392C50.7941 0.678392 50.7941 0.603015 50.7941 0.482412C50.7941 0.226131 50.6132 0 50.3418 0H45.3368C44.9298 0 44.7036 0.226131 44.372 0.78392L41.3117 5.9397L37.9951 0.78392C37.6634 0.301508 37.4373 0 37.0303 0H31.4675C31.166 0 30.9097 0.256281 30.9097 0.557789C30.9097 0.633166 30.9398 0.708543 30.985 0.78392C36.3217 8.77387 38.8996 12.1809 44.2815 20.6231C44.6132 21.1809 44.8393 21.407 45.2464 21.407H50.8845C51.1559 21.392 51.382 21.1206 51.382 20.8643Z" fill="#B9B9B9"/>
<path fill-rule="evenodd" clip-rule="evenodd" d="M32.3118 17.6684H28.2867V8.51772C28.2867 3.61822 26.7942 0.331787 21.8645 0.331787C19.4374 0.331787 17.9449 0.934802 15.7741 2.15591C14.7339 0.889576 13.347 0.331787 11.3721 0.331787C7.9349 0.331787 1.9952 3.98003 0.0957031 6.6333V21.2564C0.0957031 21.6634 0.472587 22.0403 0.879623 22.0403H5.40224C5.80927 22.0403 6.156 21.6634 6.156 21.2564V6.39209C7.31681 5.78907 8.28163 5.42726 8.99018 5.42726C10.7088 5.42726 11.161 6.13581 11.161 8.53279V21.2715C11.161 21.6785 11.5379 22.0554 11.9449 22.0554H16.4676C16.8746 22.0554 17.2213 21.6785 17.2213 21.2715V8.51772C17.2213 7.68857 17.1912 6.84435 17.1158 6.09058C18.2314 5.56294 19.362 5.41219 19.9952 5.41219C21.7138 5.41219 22.2716 6.12073 22.2716 8.51772V21.2564C22.2716 21.6634 22.6032 22.0403 23.0254 22.0403H27.548C27.6083 22.0403 27.6686 22.0252 27.7289 22.0102H30.4123H33.156H35.4173C35.8243 22.0102 36.0505 21.8292 36.3821 21.2564L39.8344 15.4825L36.6083 10.8846L32.3118 17.6684Z" fill="#B9B9B9"/>
<path fill-rule="evenodd" clip-rule="evenodd" d="M47.8997 25.8391H48.0353C48.2012 25.8391 48.3368 25.9748 48.3368 26.1406V29.5627C48.3368 29.7286 48.2012 29.8642 48.0353 29.8642H47.8997C47.7338 29.8642 47.5981 29.7286 47.5981 29.5627V26.1406C47.6132 25.9748 47.7489 25.8391 47.8997 25.8391Z" fill="#B9B9B9"/>
<path d="M47.9753 25.4472C48.2084 25.4472 48.3974 25.2448 48.3974 24.995C48.3974 24.7452 48.2084 24.5427 47.9753 24.5427C47.7421 24.5427 47.5532 24.7452 47.5532 24.995C47.5532 25.2448 47.7421 25.4472 47.9753 25.4472Z" fill="#B9B9B9"/>
<path fill-rule="evenodd" clip-rule="evenodd" d="M37.1962 25.9295L37.6484 25.1757C37.7389 25.025 37.6937 24.829 37.5429 24.7536L37.4223 24.6782C37.2716 24.5878 37.0756 24.633 37.0002 24.7838L36.367 25.824C35.3419 25.8994 34.5278 26.7737 34.5278 27.829C34.5278 28.9446 35.4173 29.834 36.5178 29.834C37.6183 29.834 38.5077 28.9295 38.5077 27.829C38.5077 27.0602 38.0705 26.3818 37.4374 26.0501L37.0756 26.7436C37.4675 26.9546 37.7238 27.3617 37.7238 27.829C37.7238 28.5074 37.1811 29.0652 36.5027 29.0652C35.8243 29.0652 35.2816 28.5074 35.2816 27.829C35.2816 27.4069 35.4927 27.03 35.8092 26.8189C35.8695 26.8793 36.0354 26.9999 36.1258 27.0602C36.2766 27.1506 36.4575 27.0903 36.5479 26.9546L37.1962 25.9295Z" fill="#B9B9B9"/>
<path fill-rule="evenodd" clip-rule="evenodd" d="M39.0054 25.9296L39.126 25.8693C39.2768 25.809 39.4577 25.8693 39.518 26.0201L40.7692 28.8542C40.7843 28.8844 40.7994 28.8994 40.8144 28.8542L42.0205 26.0201C42.0808 25.8693 42.2617 25.809 42.4124 25.8693L42.533 25.9296C42.6838 25.9899 42.7441 26.1708 42.6838 26.3216L41.2969 29.4422C41.2366 29.5929 41.0707 29.7437 40.8144 29.7587C40.6637 29.7587 40.4074 29.804 40.2416 29.4422L38.8547 26.3216C38.7943 26.1859 38.8547 26.005 39.0054 25.9296Z" fill="#B9B9B9"/>
<path fill-rule="evenodd" clip-rule="evenodd" d="M46.6787 27.3618L44.0254 28.5829C44.0254 28.5829 43.9199 28.6282 44.0103 28.7639C44.538 29.4875 45.7591 29.0955 46.0003 28.5679C46.1058 28.3568 46.3772 27.9196 46.6938 28.1005C46.8897 28.2061 46.8445 28.4473 46.739 28.6885C46.6334 28.9297 46.0606 29.7287 45.3822 29.789C44.6887 29.8493 44.0254 29.7739 43.6184 29.3669C42.7892 28.5377 42.7139 27.2563 43.5882 26.3669C44.0556 25.8845 44.7943 25.7488 45.3068 25.8392C45.8345 25.9448 46.4375 26.4573 46.5882 26.7287C46.739 27.0151 46.8445 27.196 46.6787 27.3618ZM45.8797 26.985C45.5631 26.4875 44.8546 26.3518 44.3118 26.6533C44.0706 26.7739 43.6787 27.3015 43.6636 27.588C43.6485 27.8744 43.6636 28.0402 43.6636 28.0402L45.8797 26.985Z" fill="#B9B9B9"/>
<path fill-rule="evenodd" clip-rule="evenodd" d="M48.9854 29.5327V29.397C48.9854 29.2312 49.121 29.0955 49.2869 29.0955H50.2065C50.4175 29.0955 50.5532 29.1105 50.6738 28.8844C50.8095 28.6432 50.6889 28.3417 50.4627 28.2513C50.2366 28.1457 49.9049 28.0854 49.513 27.9648C49.121 27.8442 49.0155 27.4824 49.0004 27C48.9854 26.5025 49.3321 25.9447 49.8446 25.8543C49.9803 25.809 50.6587 25.8392 50.8547 25.8392C51.0205 25.8392 51.1562 25.9749 51.1562 26.1407V26.2764C51.1562 26.4422 51.0205 26.5779 50.8547 26.5779C50.5984 26.5779 50.0859 26.5628 49.8899 26.5779C49.724 26.6834 49.6336 26.8492 49.6487 27.0301C49.6637 27.2714 49.724 27.3618 50.1311 27.4824C50.5532 27.603 50.8095 27.6633 51.111 27.8744C51.4125 28.0854 51.3974 28.4623 51.3974 28.8693C51.3974 29.8342 50.0406 29.8342 49.9653 29.8191L49.3019 29.804C49.106 29.8191 48.9854 29.6985 48.9854 29.5327Z" fill="#B9B9B9"/>
<path fill-rule="evenodd" clip-rule="evenodd" d="M28.3922 25.99H28.5279C28.6334 25.99 28.7239 26.0503 28.7842 26.1257C29.0555 25.9297 29.2817 25.8242 29.7038 25.8242C30.1259 25.8242 30.7289 26.0805 31.0455 26.4875C31.3621 26.0805 31.8595 25.8242 32.3721 25.8242C33.2465 25.8242 34.0304 26.7287 34.0304 27.3619V29.5629C34.0304 29.7287 33.8947 29.8644 33.7289 29.8644H33.5932C33.4274 29.8644 33.2917 29.7287 33.2917 29.5629V27.4071C33.3068 27.0755 33.0053 26.5629 32.2666 26.5629C31.8445 26.5629 31.4073 26.8795 31.4073 27.2715V29.5629C31.4073 29.7287 31.2716 29.8644 31.1058 29.8644H30.9701C30.8043 29.8644 30.6686 29.7287 30.6686 29.5629V27.4071C30.5329 26.9247 30.0957 26.578 29.6736 26.578C29.2967 26.578 29.0103 26.774 28.8294 27.0755C28.8143 27.1056 28.7992 27.2413 28.7992 27.2865V29.5629C28.7992 29.7287 28.6636 29.8644 28.4977 29.8644H28.3621C28.1962 29.8644 28.0605 29.7287 28.0605 29.5629V26.2916C28.1058 26.1106 28.2415 25.99 28.3922 25.99Z" fill="#B9B9B9"/>
<path fill-rule="evenodd" clip-rule="evenodd" d="M53.4929 22.7186V21.3618H53.8848V22.7186C53.8848 22.8694 53.915 22.99 53.9903 23.0503C54.0657 23.1256 54.1712 23.1558 54.322 23.1558C54.4728 23.1558 54.5783 23.1256 54.6537 23.0503C54.729 22.9749 54.7592 22.8694 54.7592 22.7186V21.3618H55.1511V22.7186C55.1511 22.99 55.0758 23.1859 54.9401 23.3216C54.8044 23.4573 54.5934 23.5176 54.322 23.5176C54.0506 23.5176 53.8547 23.4573 53.7039 23.3216C53.5682 23.201 53.4929 22.99 53.4929 22.7186ZM55.5883 23.4874V21.3769H56.0255L56.5682 22.7186L56.6436 22.9297H56.6587L56.7341 22.7186L57.2768 21.3769H57.714V23.4874H57.3522V22.2663V22.0402H57.3371L57.2617 22.2513L56.7642 23.4874H56.5079L56.0104 22.2513L55.9351 22.0402V22.2663V23.4874H55.5883ZM57.9702 23.4874L58.7089 21.3769H59.1763L59.93 23.4874H59.4929L59.3572 23.0352H58.513L58.3773 23.4874H57.9702ZM58.6185 22.7035H59.2667L59.0104 21.8744L58.9501 21.6482H58.9351L58.8748 21.8744L58.6185 22.7035ZM53.5381 26.6382V24.5276H53.8697L54.714 25.7638L54.8346 25.9447V25.7186V24.5276H55.1813V26.6382H54.9099L54.0054 25.3568L53.8848 25.1608V25.3869V26.6382H53.5381ZM55.5582 25.5829C55.5582 25.3869 55.5733 25.2362 55.6034 25.0854C55.6336 24.9498 55.6939 24.8292 55.7692 24.7538C55.8446 24.6633 55.9351 24.603 56.0557 24.5578C56.1763 24.5126 56.312 24.4975 56.4627 24.4975C56.6285 24.4975 56.7642 24.5126 56.8697 24.5578C56.9903 24.603 57.0808 24.6633 57.1562 24.7538C57.2315 24.8442 57.2768 24.9498 57.322 25.0854C57.3522 25.2211 57.3672 25.3869 57.3672 25.5829C57.3672 25.7789 57.3522 25.9447 57.322 26.0804C57.2919 26.2161 57.2315 26.3367 57.1562 26.4271C57.0808 26.5176 56.9903 26.5779 56.8697 26.6231C56.7491 26.6684 56.6135 26.6834 56.4627 26.6834C56.2969 26.6834 56.1612 26.6684 56.0557 26.6231C55.9351 26.5779 55.8446 26.5176 55.7692 26.4271C55.6939 26.3367 55.6486 26.2312 55.6034 26.0804C55.5733 25.9447 55.5582 25.7789 55.5582 25.5829ZM55.9652 25.5829C55.9652 25.7337 55.9803 25.8543 55.9954 25.9447C56.0104 26.0352 56.0406 26.1106 56.0858 26.1709C56.131 26.2312 56.1763 26.2613 56.2366 26.2915C56.2969 26.3216 56.3723 26.3216 56.4627 26.3216C56.5532 26.3216 56.6285 26.3065 56.6888 26.2915C56.7491 26.2613 56.8094 26.2312 56.8396 26.1709C56.8848 26.1106 56.915 26.0352 56.93 25.9447C56.9451 25.8543 56.9602 25.7337 56.9602 25.5829C56.9602 25.4322 56.9451 25.3116 56.93 25.2211C56.915 25.1307 56.8848 25.0553 56.8396 24.995C56.7944 24.9347 56.7491 24.9045 56.6888 24.8744C56.6285 24.8593 56.5532 24.8442 56.4627 24.8442C56.3723 24.8442 56.2969 24.8593 56.2366 24.8744C56.1763 24.8895 56.116 24.9347 56.0858 24.995C56.0406 25.0553 56.0104 25.1307 55.9954 25.2211C55.9803 25.3266 55.9652 25.4472 55.9652 25.5829ZM57.4728 24.5276H57.8949L58.3622 26.0503L58.4225 26.2613H58.4376L58.4979 26.0503L58.9652 24.5276H59.3723L58.6336 26.6382H58.1964L57.4728 24.5276ZM59.2818 26.6382H59.6888L59.8245 26.1859H60.6687L60.8044 26.6382H61.2416L60.4878 24.5276H60.0205L59.2818 26.6382ZM59.9451 25.8543L60.2014 25.0251L60.2617 24.799H60.2768L60.3371 25.0251L60.5934 25.8543H59.9451ZM54.7893 27.6935L54.3672 29.1256L54.3069 29.3518H54.2919L54.2316 29.1256L53.8245 27.6935H53.2969L54.0205 29.804H54.5481L55.2718 27.6935H54.7893ZM55.528 29.804H56.0104V27.6935H55.528V29.804ZM57.7893 29.1709C57.7893 28.4623 56.8245 28.6131 56.8245 28.2814C56.8245 28.1759 56.8999 28.0854 57.1562 28.0854C57.322 28.0854 57.4878 28.1156 57.6687 28.1759L57.729 27.7839C57.5632 27.7236 57.3371 27.6784 57.1411 27.6784C56.6135 27.6784 56.3723 27.9648 56.3723 28.3266C56.3723 29.0352 57.3371 28.8844 57.3371 29.2161C57.3371 29.3668 57.2315 29.4422 57.0054 29.4422C56.7944 29.4422 56.6135 29.3819 56.4175 29.2915L56.3572 29.6985C56.5381 29.804 56.7642 29.8493 57.0054 29.8493C57.4878 29.8493 57.7893 29.593 57.7893 29.1709ZM59.327 29.804H59.8547L59.116 27.6935H58.5582L57.8346 29.804H58.332L58.4527 29.397H59.2215L59.327 29.804ZM58.8295 28.0553L58.8898 28.2814L59.0858 29.005H58.5431L58.7542 28.2814L58.8295 28.0553ZM58.5582 27.5729C58.5733 27.5276 58.6034 27.4824 58.6486 27.4824C58.7391 27.4824 58.8446 27.603 59.0406 27.603C59.2064 27.603 59.327 27.4673 59.3421 27.2714H59.1461C59.131 27.3317 59.116 27.3618 59.0557 27.3618C58.9652 27.3618 58.8446 27.2412 58.6637 27.2412C58.4828 27.2412 58.3773 27.3769 58.3773 27.5729H58.5582ZM61.7843 28.7488C61.7843 27.995 61.513 27.6633 60.8496 27.6633C60.1863 27.6633 59.915 27.995 59.915 28.7488C59.915 29.5025 60.2014 29.8493 60.8496 29.8493C61.513 29.8493 61.7843 29.5176 61.7843 28.7488ZM61.2868 28.7488C61.2868 29.2764 61.1813 29.4121 60.8496 29.4121C60.5331 29.4121 60.4125 29.2764 60.4125 28.7488C60.4125 28.2211 60.518 28.0854 60.8496 28.0854C61.1813 28.0854 61.2868 28.2211 61.2868 28.7488Z" fill="#B9B9B9"/>
</g>
<defs>
<clipPath id="clip0_197_815">
<rect width="61.809" height="30" fill="white" transform="translate(0.0957031)"/>
</clipPath>
</defs>
</svg>
