<svg width="112" height="10" viewBox="0 0 112 10" fill="none" xmlns="http://www.w3.org/2000/svg">
<g clip-path="url(#clip0_197_962)">
<path d="M48.0665 0.276123H50.577L56.043 9.67324H53.7178L52.5579 7.51625H46.0537L44.862 9.67324H42.521L48.0665 0.276123ZM51.6734 5.96038L49.3217 1.77011L46.9648 5.96038H51.6734Z" fill="#B9B9B9"/>
<path d="M57.2661 0.276123H62.6895C66.249 0.276123 69.1038 1.53143 69.1038 4.91724C69.1038 8.1218 66.4981 9.6733 62.7799 9.6733H57.2661V0.276123ZM61.6996 8.09526C65.444 8.09526 66.9006 7.14058 66.9006 4.94376C66.9006 2.64088 65.3856 1.84968 61.6996 1.84968H59.4695V8.09089L61.6996 8.09526Z" fill="#B9B9B9"/>
<path d="M26.6047 6.33622C26.3822 7.06113 25.2488 8.32971 22.6906 8.32971C20.2701 8.32971 18.4004 7.19372 18.4004 5.0323C18.4004 3.08303 19.6981 1.61997 22.8124 1.61997C25.4606 1.61997 26.3134 2.94602 26.4352 3.27311L28.5538 3.04325C28.2519 2.21669 27.1767 0.0419922 22.6853 0.0419922C18.1938 0.0419922 16.1494 2.08409 16.1494 4.82456C16.1494 8.25014 18.9512 9.90768 22.5052 9.90768C27.3144 9.90768 28.4267 7.72415 28.7392 6.57049L26.6047 6.33622Z" fill="#B9B9B9"/>
<path d="M40.3757 6.33597C40.1479 7.06088 39.0198 8.32946 36.4616 8.32946C34.0411 8.32946 32.1661 7.19347 32.1661 5.03206C32.1661 3.08279 33.4691 1.61973 36.5834 1.61973C39.2317 1.61973 40.0844 2.94577 40.2062 3.27286L42.3248 3.04301C42.0282 2.21645 40.953 0.041748 36.4616 0.041748C31.9701 0.041748 29.9204 2.08384 29.9204 4.82431C29.9204 8.24989 32.7275 9.90743 36.2762 9.90743C41.0855 9.90743 42.1977 7.7239 42.5102 6.57024L40.3757 6.33597Z" fill="#B9B9B9"/>
<path d="M88.4148 8.04668V0.276123H86.2168V9.67324H96.582V8.04668H88.4148Z" fill="#B9B9B9"/>
<path d="M98.0652 9.67324H100.268V5.91173L105.766 0.276123H103.054L99.1671 4.25863L95.2635 0.276123H92.5679L98.0652 5.91173V9.67324Z" fill="#B9B9B9"/>
<path d="M6.27638 0.276123H0V9.67324H2.19805V6.02665H6.27638C8.17781 6.02665 11.308 6.02665 11.308 3.15803C11.308 0.289379 8.17781 0.276123 6.27638 0.276123ZM6.75308 4.45312H2.19805V1.85409H6.75308C8.00835 1.85409 9.10998 1.9425 9.10998 3.14477C9.10998 4.34704 8.00835 4.4708 6.75308 4.4708" fill="#B9B9B9"/>
<path d="M14.7772 0.280762H12.5791V9.67793H14.7772V0.280762Z" fill="#B9B9B9"/>
<path d="M72.5999 0.276123H70.4019V9.67324H72.5999V0.276123Z" fill="#B9B9B9"/>
<path d="M76.5188 8.04668V0.276123H74.3208V9.67324H84.6808V8.04668H76.5188Z" fill="#B9B9B9"/>
<path d="M112 0.280762H107.673V3.892H112V0.280762ZM111.47 2.16373C111.105 1.54171 110.504 1.03812 109.759 0.731621H111.47V2.16373ZM108.229 0.868646C108.945 0.890276 109.631 1.11124 110.178 1.4963L108.229 3.11848V0.868646ZM110.559 1.81454C111.021 2.27111 111.284 2.84423 111.306 3.44114H108.616L110.559 1.81454Z" fill="#B9B9B9"/>
</g>
<defs>
<clipPath id="clip0_197_962">
<rect width="112" height="9.91667" fill="white" transform="translate(0 0.041748)"/>
</clipPath>
</defs>
</svg>
