<svg width="84" height="30" viewBox="0 0 84 30" fill="none" xmlns="http://www.w3.org/2000/svg">
<g clip-path="url(#clip0_197_856)">
<path d="M56.8598 29.9714C56.6603 29.6714 56.4352 29.389 56.1871 29.1274C55.9001 28.7748 55.6092 28.4299 55.3122 28.0831C55.301 28.0719 55.2889 28.0616 55.2759 28.0522C55.2044 28.0812 55.2352 28.1448 55.2352 28.191C55.2352 28.6149 55.2352 29.0388 55.2352 29.4608C55.2352 29.6284 55.2988 29.7267 55.4702 29.7402C55.5417 29.7402 55.617 29.7402 55.607 29.8481C55.5975 29.956 55.5053 29.9213 55.4473 29.9232C55.2317 29.9232 55.0157 29.9232 54.7997 29.9232C54.7477 29.9232 54.6863 29.9367 54.6767 29.8558C54.6668 29.7748 54.7092 29.746 54.7845 29.7421C54.9772 29.7421 55.0157 29.6034 55.0157 29.4396C55.0157 28.9386 55.0157 28.4376 55.0157 27.9366C55.0157 27.767 54.9694 27.6322 54.7845 27.5879C54.7209 27.5705 54.6668 27.5474 54.6806 27.4645C54.694 27.3817 54.765 27.3933 54.8231 27.3875C54.8308 27.3884 54.8386 27.3884 54.846 27.3875C55.0213 27.3504 55.2036 27.3691 55.3672 27.441C55.5313 27.5129 55.6681 27.6344 55.7594 27.7883C56.0776 28.2276 56.4529 28.6226 56.8425 29.0812C56.8425 28.6149 56.8425 28.2122 56.8425 27.8075C56.843 27.7764 56.8369 27.7454 56.8252 27.7165C56.8135 27.6876 56.7962 27.6614 56.7741 27.6394C56.7521 27.6175 56.7256 27.6002 56.6966 27.5887C56.6676 27.5772 56.6365 27.5717 56.6053 27.5725C56.536 27.5725 56.4841 27.5551 56.4936 27.4665C56.5031 27.3778 56.5534 27.3894 56.6092 27.3894H57.3027C57.3702 27.3894 57.4261 27.399 57.4261 27.4858C57.4261 27.5725 57.3724 27.5667 57.3166 27.5725C57.0889 27.5879 57.0542 27.7439 57.0542 27.9309C57.0542 28.5243 57.0542 29.1159 57.0542 29.7093C57.0702 29.8007 57.0516 29.8948 57.0023 29.9733L56.8598 29.9714Z" fill="#B9B9B9"/>
<path d="M9.92131 29.9712C9.90205 29.9288 9.86157 29.9288 9.8269 29.9173C9.54036 29.8181 9.2969 29.623 9.13781 29.3648C8.97871 29.1067 8.91378 28.8015 8.954 28.501C8.98452 28.2111 9.11239 27.9401 9.31677 27.7322C9.52114 27.5244 9.78997 27.3919 10.0793 27.3565C10.3564 27.3157 10.6387 27.3796 10.8712 27.5356C10.9637 27.5935 11.0427 27.6648 11.0774 27.4894C11.0928 27.4143 11.1545 27.4258 11.2065 27.4316C11.2585 27.4374 11.2682 27.4894 11.2701 27.5356C11.2701 27.7283 11.2874 27.9345 11.2951 28.1349C11.2951 28.1889 11.2951 28.2447 11.2219 28.2544C11.2088 28.2575 11.1951 28.258 11.1817 28.2558C11.1684 28.2536 11.1556 28.2488 11.1441 28.2416C11.1327 28.2345 11.1227 28.2251 11.1149 28.214C11.1071 28.203 11.1016 28.1905 11.0986 28.1773C11.0511 28.0222 10.9641 27.8821 10.8462 27.7708C10.7646 27.6897 10.6648 27.6294 10.5551 27.595C10.4454 27.5605 10.329 27.5528 10.2158 27.5727C10.1025 27.5925 9.99564 27.6392 9.90417 27.7089C9.8127 27.7785 9.73928 27.8692 9.69006 27.9731C9.58776 28.19 9.53473 28.4269 9.53473 28.6667C9.53473 28.9066 9.58776 29.1434 9.69006 29.3604C9.7317 29.4453 9.78971 29.521 9.86079 29.5834C9.93183 29.6457 10.0145 29.6934 10.104 29.7237C10.1936 29.7539 10.2882 29.7662 10.3825 29.7597C10.4768 29.7533 10.5689 29.7282 10.6535 29.686C10.7575 29.619 10.8353 29.5183 10.8738 29.4008C10.9124 29.2833 10.9095 29.1561 10.8655 29.0405C10.8173 28.948 10.7306 28.948 10.6497 28.9346C10.6359 28.9345 10.6223 28.9313 10.61 28.9251C10.5978 28.9189 10.5871 28.9099 10.5788 28.8989C10.5706 28.8879 10.5651 28.8751 10.5627 28.8615C10.5602 28.848 10.561 28.8341 10.5649 28.8209C10.5649 28.7592 10.6246 28.7592 10.6689 28.7592H11.5765C11.6227 28.7592 11.6728 28.7592 11.6805 28.8228C11.6882 28.8864 11.6805 28.9269 11.6266 28.9346C11.4339 28.9635 11.4339 29.1041 11.4339 29.2486C11.4339 29.424 11.482 29.634 11.403 29.7669C11.324 29.8999 11.089 29.8094 10.9271 29.8652C10.8076 29.9076 10.6728 29.8922 10.563 29.9712H9.92131Z" fill="#B9B9B9"/>
<path d="M59.7264 29.9712C59.684 29.9037 59.607 29.9095 59.5455 29.8825C59.236 29.7538 58.9875 29.5112 58.8515 29.2046C58.7156 28.898 58.7026 28.5509 58.8152 28.2351C58.9143 27.9276 59.1256 27.6689 59.4069 27.5106C59.6888 27.3523 60.0195 27.3062 60.3334 27.3815C60.4386 27.4056 60.539 27.4452 60.6321 27.499C60.7476 27.5684 60.8424 27.6917 60.9269 27.4605C60.9541 27.393 61.0792 27.4027 61.087 27.5144C61.1044 27.7668 61.1061 28.0212 61.1121 28.2852C61.1121 28.3276 61.0966 28.3603 61.0485 28.3622C61.0005 28.3641 60.9442 28.3622 60.9195 28.2967C60.884 28.187 60.8373 28.0811 60.7805 27.9807C60.7044 27.8342 60.5844 27.7154 60.4373 27.6411C60.2896 27.5667 60.1225 27.5406 59.9598 27.5664C59.6169 27.6339 59.4684 27.8844 59.397 28.1985C59.313 28.5368 59.329 28.8922 59.4433 29.2216C59.6572 29.7997 60.239 29.9211 60.6706 29.4721C60.7892 29.3504 60.8779 29.2026 60.929 29.0405C60.9316 29.0254 60.9373 29.0109 60.945 28.998C60.9533 28.9851 60.9641 28.9738 60.9766 28.9651C60.9892 28.9563 61.0035 28.9501 61.0182 28.9468C61.0334 28.9436 61.0489 28.9433 61.0637 28.9461C61.1563 28.9461 61.1468 29.0212 61.1468 29.0809C61.1468 29.2967 61.1468 29.5126 61.1468 29.7284C61.1468 29.7862 61.168 29.8594 61.0831 29.8806C61.0667 29.8865 61.0489 29.8886 61.0312 29.8867C61.0139 29.8849 60.997 29.8791 60.9818 29.8699C60.9671 29.8606 60.9541 29.8481 60.9446 29.8333C60.9351 29.8185 60.929 29.8017 60.9269 29.7843C60.8771 29.6089 60.7979 29.6455 60.6862 29.738C60.5702 29.8218 60.4494 29.8984 60.3238 29.9673L59.7264 29.9712Z" fill="#B9B9B9"/>
<path d="M73.97 29.9714C73.7908 29.8964 73.6254 29.7922 73.4804 29.6631C73.4051 29.6978 73.4168 29.7594 73.3977 29.8076C73.3891 29.8335 73.3709 29.8551 73.3466 29.8677C73.3228 29.8803 73.2947 29.8829 73.2683 29.875C73.2068 29.875 73.2012 29.8211 73.2012 29.7749V29.1274C73.2012 29.0715 73.2012 29.0176 73.2821 29.0099C73.3631 29.0022 73.3916 29.0445 73.4129 29.112C73.4557 29.2763 73.5371 29.4282 73.6501 29.5552C73.7189 29.6336 73.8068 29.6927 73.9055 29.7265C74.0042 29.7603 74.1103 29.7677 74.2124 29.7478C74.2826 29.7413 74.3488 29.7134 74.402 29.6679C74.4557 29.6224 74.4938 29.5615 74.5111 29.4935C74.5349 29.4272 74.5358 29.3549 74.5133 29.2882C74.4908 29.2214 74.4466 29.1641 74.3878 29.1255C74.2639 29.0466 74.1354 28.9752 74.0025 28.9116C73.8263 28.8344 73.66 28.7361 73.5072 28.6187C73.1951 28.3547 73.122 28.0021 73.3146 27.6977C73.4142 27.5451 73.5648 27.4326 73.7393 27.3804C73.9142 27.3282 74.1016 27.3396 74.2683 27.4125C74.3717 27.4597 74.4657 27.5249 74.5458 27.6052C74.6306 27.6052 74.6133 27.5455 74.6289 27.5069C74.6375 27.4816 74.6553 27.4603 74.6787 27.4471C74.7025 27.434 74.7297 27.4299 74.7562 27.4356C74.8349 27.4356 74.831 27.5011 74.831 27.5532C74.831 27.6996 74.831 27.8461 74.831 27.9925C74.831 28.0522 74.8445 28.1235 74.754 28.1332C74.7237 28.1397 74.6921 28.1343 74.6657 28.1182C74.6388 28.102 74.6198 28.0764 74.6116 28.0465C74.5782 27.9693 74.538 27.8951 74.4921 27.8249C74.4263 27.7187 74.3254 27.639 74.2068 27.5994C74.1124 27.554 74.0046 27.5447 73.9042 27.573C73.8033 27.6014 73.7163 27.6656 73.6596 27.7536C73.5804 27.9366 73.6596 28.1004 73.9081 28.2314C74.1181 28.3432 74.3358 28.4414 74.5458 28.5552C74.8081 28.6977 75.0198 28.8885 75.0046 29.218C75.0007 29.3734 74.9505 29.5241 74.8596 29.6503C74.7687 29.7765 74.6419 29.8723 74.496 29.9251C74.467 29.9386 74.4362 29.9425 74.4302 29.9791L73.97 29.9714Z" fill="#B9B9B9"/>
<path d="M66.9869 29.9714C66.8367 29.8538 66.6363 29.8172 66.5073 29.6303C66.4796 29.6861 66.4562 29.7441 66.438 29.8037C66.4224 29.877 66.3761 29.8789 66.3186 29.877C66.2605 29.875 66.2493 29.8269 66.2493 29.7806V29.1081C66.2493 29.0619 66.2493 29.0137 66.3164 29.008C66.3428 29.0014 66.3705 29.0054 66.3939 29.0191C66.4173 29.0328 66.4346 29.0551 66.4419 29.0812C66.4826 29.1972 66.532 29.3099 66.59 29.4183C66.6493 29.5368 66.7454 29.6328 66.864 29.6919C66.9826 29.7509 67.1168 29.7699 67.2471 29.7459C67.3207 29.7406 67.3908 29.7117 67.4467 29.6635C67.5025 29.6152 67.5415 29.5502 67.5575 29.4781C67.5779 29.4111 67.5757 29.3391 67.551 29.2735C67.5263 29.208 67.4805 29.1525 67.4207 29.1158C67.3051 29.0406 67.1848 28.973 67.0605 28.9135C66.8991 28.8402 66.745 28.7525 66.5999 28.6515C66.2354 28.3817 66.151 28.0329 66.3649 27.688C66.4722 27.5259 66.6367 27.4104 66.8259 27.3646C67.0151 27.3189 67.2142 27.3463 67.3839 27.4414C67.4631 27.4885 67.5398 27.54 67.6134 27.5956C67.677 27.5744 67.6675 27.5108 67.6904 27.4645C67.7134 27.4183 67.7675 27.4241 67.8116 27.4299C67.8562 27.4356 67.8675 27.4935 67.8675 27.5377C67.8675 27.6919 67.8675 27.846 67.8675 27.9983C67.8675 28.0503 67.8813 28.1119 67.8004 28.1235C67.7701 28.1305 67.7385 28.1253 67.7121 28.109C67.6856 28.0928 67.667 28.0669 67.6597 28.0368C67.6216 27.936 67.5662 27.8427 67.4956 27.7612C67.4069 27.6539 67.2796 27.5849 67.1411 27.5686C66.9484 27.5512 66.7558 27.5686 66.6943 27.796C66.6324 28.0233 66.7675 28.1273 66.9333 28.216C67.1566 28.3355 67.3878 28.4395 67.6095 28.5628C67.8831 28.7112 68.0874 28.9174 68.0467 29.2584C68.0337 29.4131 67.9744 29.5602 67.8766 29.6805C67.7787 29.8008 67.6467 29.8888 67.4978 29.9328C67.4783 29.9328 67.4649 29.9617 67.4497 29.9752L66.9869 29.9714Z" fill="#B9B9B9"/>
<path d="M63.6632 29.925C63.3394 29.925 63.0156 29.925 62.6995 29.925C62.6476 29.925 62.5688 29.9559 62.5571 29.8576C62.5454 29.7593 62.6073 29.7458 62.6844 29.742C62.8614 29.7324 62.9212 29.6206 62.9212 29.4626C62.9212 28.9308 62.9212 28.399 62.9212 27.8672C62.9212 27.6899 62.848 27.5878 62.6688 27.5724C62.6013 27.5724 62.5454 27.5608 62.5532 27.4702C62.561 27.3797 62.6303 27.3912 62.69 27.3912H64.5169C64.5355 27.3875 64.5549 27.3883 64.5736 27.3934C64.5922 27.3986 64.6091 27.408 64.6233 27.4209C64.6376 27.4338 64.6485 27.4499 64.6554 27.4678C64.6623 27.4857 64.6649 27.505 64.6632 27.5242C64.6632 27.6629 64.6749 27.8016 64.6788 27.9404C64.6788 27.9847 64.6922 28.0386 64.6303 28.054C64.5688 28.0695 64.5207 28.054 64.4974 27.9963C64.4437 27.8498 64.3952 27.686 64.2316 27.6398C64.0117 27.6013 63.7874 27.5915 63.5649 27.6109C63.4627 27.6109 63.461 27.6822 63.461 27.7535C63.4511 27.8998 63.4511 28.0465 63.461 28.1928C63.4744 28.2949 63.3627 28.4548 63.5593 28.4953C63.8134 28.5454 63.9446 28.4837 64.0177 28.2795C64.0389 28.2102 64.058 28.1697 64.1372 28.1774C64.216 28.1851 64.2086 28.2448 64.2104 28.2968V28.898C64.2104 28.9539 64.2104 29.0079 64.1316 29.0136C64.0524 29.0194 64.0446 28.9847 64.0233 28.925C63.9788 28.8353 63.9026 28.765 63.8099 28.7271C63.7169 28.6892 63.6134 28.6863 63.5186 28.7188C63.4511 28.7496 63.4571 28.8017 63.4571 28.8537C63.4571 29.0618 63.4571 29.2699 63.4571 29.478C63.4528 29.5204 63.4614 29.563 63.4822 29.6002C63.5026 29.6374 63.5342 29.6674 63.5727 29.6861C63.6705 29.7292 63.7762 29.7514 63.8831 29.7514C63.99 29.7513 64.0961 29.729 64.1939 29.6859C64.2917 29.6427 64.3796 29.5797 64.4515 29.5008C64.5238 29.4219 64.5788 29.3288 64.613 29.2275C64.6363 29.1601 64.6342 29.0869 64.7346 29.0965C64.8346 29.1061 64.8078 29.1967 64.8095 29.2564C64.8307 29.9289 64.829 29.9289 64.1679 29.9289L63.6632 29.925Z" fill="#B9B9B9"/>
<path d="M23.7158 29.9251C23.3998 29.9251 23.0838 29.9251 22.7678 29.9251C22.7081 29.9251 22.6175 29.9636 22.6021 29.8538C22.5867 29.744 22.6638 29.7478 22.737 29.744C22.9162 29.744 22.9682 29.6226 22.9682 29.4626C22.9682 28.9308 22.9682 28.399 22.9682 27.8672C22.9682 27.69 22.9027 27.5897 22.7235 27.5724C22.66 27.5724 22.5944 27.5724 22.6002 27.4761C22.606 27.3797 22.6696 27.3913 22.7312 27.3913C23.3478 27.3913 23.9644 27.3913 24.581 27.3913C24.635 27.3913 24.7005 27.3913 24.7062 27.4587C24.7062 27.636 24.7197 27.8133 24.7236 27.9905C24.7236 28.0368 24.6889 28.0541 24.6446 28.0561C24.6213 28.0573 24.5982 28.0505 24.5793 28.0368C24.5603 28.0232 24.5467 28.0034 24.5406 27.9809C24.4924 27.8325 24.4403 27.6726 24.2708 27.6341C24.0426 27.5981 23.8109 27.591 23.5809 27.6129C23.502 27.6129 23.5116 27.6842 23.5116 27.7362C23.501 27.8979 23.501 28.0601 23.5116 28.2217C23.5232 28.3142 23.4133 28.4857 23.6137 28.4896C23.8141 28.4934 24.028 28.5782 24.0665 28.2776C24.0781 28.2006 24.1128 28.1678 24.1879 28.1775C24.2631 28.1871 24.2554 28.2507 24.2573 28.3007C24.2573 28.4934 24.2573 28.7016 24.2573 28.902C24.2573 28.9482 24.2573 28.9983 24.1976 29.0098C24.1378 29.0214 24.1032 28.9925 24.0762 28.9328C24.0347 28.842 23.9615 28.7695 23.8702 28.7291C23.779 28.6886 23.6761 28.6829 23.5809 28.7131C23.4942 28.7401 23.5097 28.8037 23.5097 28.8615C23.5097 29.0542 23.5097 29.2623 23.5097 29.4626C23.503 29.5128 23.5145 29.5636 23.5421 29.6061C23.5696 29.6484 23.6115 29.6796 23.66 29.6939C23.7586 29.7362 23.8652 29.7566 23.9725 29.7538C24.0798 29.751 24.1852 29.7249 24.2816 29.6775C24.3778 29.6301 24.4627 29.5624 24.5304 29.4791C24.598 29.3958 24.6469 29.2988 24.6735 29.1948C24.6985 29.1274 24.7255 29.0869 24.8006 29.0946C24.8758 29.1023 24.8681 29.1833 24.8642 29.2353C24.8508 29.4569 24.9471 29.7382 24.8161 29.8827C24.6851 30.0272 24.4076 29.9155 24.1937 29.9251C24.0396 29.9309 23.8777 29.9251 23.7158 29.9251Z" fill="#B9B9B9"/>
<path d="M20.3208 27.3873C20.606 27.3873 20.8988 27.3873 21.1763 27.3873C21.3093 27.3873 21.3536 27.4317 21.3459 27.5608C21.3382 27.6899 21.3459 27.8074 21.3459 27.9307C21.3459 27.9828 21.3459 28.0444 21.2784 28.0541C21.2654 28.0578 21.2517 28.0586 21.2382 28.0567C21.2248 28.0547 21.2119 28.05 21.2005 28.0427C21.189 28.0354 21.1792 28.0258 21.1717 28.0145C21.1642 28.0031 21.1593 27.9904 21.157 27.977C21.1127 27.8248 21.0491 27.6725 20.8834 27.634C20.6704 27.5957 20.4528 27.5893 20.2379 27.6147C20.1493 27.6147 20.1686 27.7034 20.1686 27.7612C20.1686 27.9307 20.1589 28.1003 20.1686 28.2679C20.1686 28.3469 20.1031 28.4799 20.2533 28.4876C20.4036 28.4953 20.5713 28.5473 20.658 28.3604C20.6738 28.3256 20.6842 28.2886 20.6888 28.2506C20.6888 28.1909 20.7351 28.1773 20.7871 28.1793C20.7985 28.1783 20.8101 28.1799 20.8208 28.184C20.8316 28.1881 20.8413 28.1945 20.8492 28.2028C20.8572 28.2112 20.8632 28.2212 20.8667 28.2321C20.8703 28.243 20.8714 28.2546 20.8699 28.266V28.9366C20.8707 28.9482 20.8691 28.9598 20.8652 28.9708C20.8613 28.9817 20.8552 28.9918 20.8472 29.0003C20.8393 29.0088 20.8297 29.0155 20.819 29.0202C20.8083 29.0248 20.7968 29.0271 20.7851 29.0271C20.7158 29.0367 20.7023 28.9944 20.6811 28.9346C20.6693 28.8912 20.6487 28.8507 20.6206 28.8157C20.5925 28.7806 20.5575 28.7516 20.5177 28.7307C20.478 28.7097 20.4343 28.6972 20.3895 28.6938C20.3447 28.6904 20.2996 28.6963 20.2572 28.7111C20.157 28.7323 20.1666 28.7997 20.1666 28.8672C20.1666 29.0444 20.1666 29.2217 20.1666 29.399C20.1666 29.5763 20.2013 29.7574 20.4518 29.7477C20.5116 29.7477 20.5539 29.767 20.5559 29.8383C20.5578 29.9096 20.4903 29.925 20.4306 29.927H19.3901C19.3323 29.927 19.2629 29.9404 19.261 29.8441C19.2591 29.7477 19.3207 29.7497 19.3843 29.7458C19.577 29.7343 19.6271 29.6109 19.6271 29.4452C19.6271 28.9231 19.6271 28.3989 19.6271 27.8748C19.6347 27.8384 19.6342 27.8007 19.6258 27.7644C19.6174 27.7282 19.6011 27.6942 19.5782 27.6649C19.5552 27.6355 19.5262 27.6115 19.4931 27.5945C19.4599 27.5776 19.4235 27.568 19.3863 27.5666C19.3246 27.5666 19.2591 27.5666 19.2668 27.4702C19.2745 27.3739 19.3574 27.3854 19.4209 27.3854L20.3208 27.3873Z" fill="#B9B9B9"/>
<path d="M52.8091 29.9249H52.2775C52.2273 29.9249 52.1637 29.9365 52.1542 29.8575C52.1446 29.7785 52.1871 29.7457 52.262 29.7457C52.4797 29.7457 52.5282 29.6147 52.5243 29.4259C52.5243 28.9249 52.5243 28.4239 52.5243 27.9249C52.5243 27.7206 52.4819 27.5722 52.2429 27.5684C52.1736 27.5684 52.1464 27.5337 52.1524 27.4663C52.1581 27.3988 52.1966 27.3911 52.2485 27.3911H53.3334C53.3949 27.3911 53.4355 27.4104 53.4355 27.4817C53.4355 27.553 53.3914 27.5684 53.3317 27.5703C53.1273 27.5819 53.0615 27.7014 53.0637 27.896C53.0637 28.4027 53.0637 28.9114 53.0637 29.4201C53.0637 29.6128 53.1156 29.738 53.3278 29.7438C53.4048 29.7438 53.4412 29.7766 53.4355 29.8575C53.4299 29.9384 53.3663 29.9249 53.3143 29.9249H52.8091Z" fill="#B9B9B9"/>
<path d="M17.3763 29.9251H16.8753C16.8233 29.9251 16.7636 29.9347 16.7558 29.8557C16.7481 29.7767 16.7924 29.7459 16.8657 29.7439C17.0853 29.7439 17.1258 29.5898 17.1258 29.4106C17.1258 28.9192 17.1258 28.426 17.1258 27.9346C17.1258 27.7419 17.0795 27.5801 16.8426 27.5704C16.7751 27.5704 16.7462 27.5338 16.7539 27.4664C16.7551 27.455 16.7585 27.444 16.7641 27.4341C16.7696 27.4241 16.7771 27.4153 16.7861 27.4083C16.7951 27.4013 16.8054 27.3962 16.8164 27.3933C16.8274 27.3903 16.839 27.3896 16.8503 27.3912H17.9351C17.9465 27.39 17.9581 27.3914 17.9689 27.3952C17.9797 27.3991 17.9896 27.4052 17.9977 27.4134C18.0058 27.4215 18.012 27.4314 18.0159 27.4422C18.0197 27.453 18.0211 27.4646 18.0198 27.476C18.0198 27.5319 18.0006 27.5646 17.9409 27.5666C17.6749 27.5762 17.6441 27.7593 17.6461 27.9674C17.6461 28.4433 17.6461 28.9192 17.6461 29.3971C17.6461 29.5898 17.6884 29.7381 17.9177 29.7439C17.9813 29.7439 18.0179 29.7728 18.0179 29.8403C18.0179 29.9385 17.9447 29.9231 17.8869 29.9231L17.3763 29.9251Z" fill="#B9B9B9"/>
<path d="M22.3555 12.6123C22.3555 13.0766 22.0395 13.4659 21.6811 13.4582C21.2957 13.4582 21.0125 13.1132 21.0202 12.6681C21.0202 12.2828 21.4055 11.8878 21.735 11.8974C21.9065 11.9235 22.0631 12.0097 22.1768 12.1407C22.2904 12.2717 22.3538 12.4388 22.3555 12.6123Z" fill="#B9B9B9"/>
<path d="M53.7107 12.6431C53.6952 13.1016 53.3869 13.4716 53.0307 13.46C52.935 13.4512 52.8419 13.4233 52.7571 13.3782C52.6718 13.333 52.5969 13.2715 52.5359 13.1971C52.4748 13.1227 52.4294 13.037 52.4021 12.9448C52.3744 12.8527 52.3653 12.7561 52.3752 12.6604C52.3852 12.275 52.761 11.8896 53.1021 11.8896C53.2778 11.9191 53.4372 12.0121 53.5493 12.1509C53.6614 12.2897 53.719 12.4648 53.7107 12.6431Z" fill="#B9B9B9"/>
<path d="M53.071 20.264C53.0793 20.2363 53.0936 20.2109 53.113 20.1896C53.1325 20.1682 53.1563 20.1515 53.1832 20.1406C53.1879 20.1719 53.1849 20.204 53.1745 20.2339C53.1641 20.2638 53.1464 20.2906 53.1234 20.3121L53.071 20.264Z" fill="#B9B9B9"/>
<path d="M39.9321 20.1192L40.0459 19.9805C40.053 20.0147 40.0517 20.0502 40.0419 20.0838C40.0322 20.1174 40.0143 20.148 39.99 20.1732L39.9321 20.1192Z" fill="#B9B9B9"/>
<path d="M55.9385 18.156C55.9363 18.1792 55.9277 18.2012 55.9129 18.2191C55.8978 18.237 55.8779 18.25 55.8554 18.2562C55.8523 18.2232 55.8571 18.19 55.8705 18.1596C55.8835 18.1293 55.9043 18.1028 55.9307 18.0828L55.9385 18.156Z" fill="#B9B9B9"/>
<path d="M83.1225 17.8207C82.7814 16.8572 82.4732 15.8784 82.7468 14.8244C82.7931 14.6635 82.7996 14.4937 82.7663 14.3296C82.7325 14.1656 82.6598 14.0121 82.5541 13.8822C82.3615 13.6432 82.2805 13.6471 82.1689 13.9246C81.6312 15.2114 80.9931 16.4536 80.2593 17.6396C80.236 17.6951 80.1953 17.7415 80.1429 17.7715C80.0905 17.8014 80.0299 17.8133 79.9702 17.8052C79.781 17.788 79.5905 17.8238 79.4204 17.9085C79.2502 17.9932 79.1069 18.1236 79.007 18.2851C78.7303 18.6245 78.5883 19.0538 78.6078 19.4912C78.6295 19.6679 78.6057 19.8471 78.5381 20.0118C78.4706 20.1764 78.3619 20.3209 78.2225 20.4316C78.1494 20.499 78.0896 20.5799 78.0182 20.6512C77.6966 20.973 77.3805 21.3044 76.9433 21.4721C76.452 21.6648 76.0684 21.3796 76.0974 20.8593C76.1243 20.5984 76.1979 20.3445 76.3152 20.1098C76.5979 19.5195 76.9117 18.9445 77.2554 18.3872C77.5944 17.7918 77.9143 17.1867 78.026 16.495C78.0792 16.2443 78.0541 15.9833 77.9537 15.7474C77.8537 15.5116 77.6831 15.3124 77.4654 15.177C77.2282 15.0267 77.1823 15.0402 77.0801 15.3023C76.787 16.1135 76.4481 16.9054 76.0992 17.6935C75.5645 18.9191 74.7892 20.0251 73.8195 20.946C73.6026 21.1736 73.3398 21.3529 73.0489 21.4721C72.542 21.6551 72.1606 21.3603 72.2087 20.8285C72.229 20.6606 72.2715 20.4961 72.3342 20.3391C72.6013 19.7076 72.9204 19.0992 73.2879 18.5201C73.6489 17.9548 73.9212 17.3374 74.0953 16.6896C74.2533 15.9979 74.0567 15.4719 73.5442 15.1597C73.3728 15.0537 73.2801 15.0614 73.2031 15.2676C72.9147 16.0313 72.5576 16.7672 72.1355 17.4661C71.4524 18.683 70.61 19.8034 69.6308 20.7977C69.3658 21.0786 69.0494 21.3057 68.6983 21.4663C68.2416 21.659 67.8658 21.3892 67.8753 20.9017C67.8836 20.7635 67.9113 20.6273 67.958 20.497C68.1771 19.9045 68.4593 19.3372 68.8005 18.8053C69.1702 18.1656 69.5515 17.5316 69.7446 16.8071C69.9658 15.9728 69.7251 15.3774 69.0373 15.073C68.8083 14.9693 68.5576 14.9232 68.3065 14.9386C68.0559 14.9541 67.8126 15.0306 67.5979 15.1616C67.21 15.3861 66.8593 15.6687 66.5576 15.9998C65.9191 16.6898 65.3251 17.4196 64.7788 18.1848L64.5091 18.5105C64.4909 18.4235 64.5074 18.3329 64.5554 18.258C65.0437 17.052 65.5935 15.8719 66.2031 14.7223C66.781 13.5662 67.4108 12.4505 67.8753 11.2539C68.0853 10.7067 68.2723 10.1518 68.2355 9.5506C68.2329 9.39203 68.1909 9.23662 68.1134 9.09813C68.0364 8.95965 67.926 8.84237 67.7927 8.75675C67.6459 8.65848 67.571 8.67198 67.4879 8.84926C66.5247 10.9392 65.5355 13.017 64.5208 15.0826C63.9044 16.3293 63.3645 17.6183 62.4996 18.7436C61.9212 19.499 61.374 20.2851 60.6784 20.9499C60.4303 21.2141 60.1204 21.4128 59.7766 21.5279C59.6879 21.5608 59.5918 21.5706 59.4979 21.5565C59.4039 21.5423 59.3152 21.5046 59.2398 21.447C59.1645 21.3893 59.1048 21.3134 59.0667 21.2265C59.0286 21.1396 59.013 21.0445 59.0217 20.9499C59.0329 20.7106 59.0905 20.4757 59.1909 20.2581C59.4684 19.6486 59.7849 19.0577 60.139 18.4893C60.4784 17.9467 60.7381 17.3581 60.91 16.7416C61.1295 15.8032 60.694 15.125 59.7537 14.9651C59.3446 14.9152 58.9321 15.0212 58.5974 15.2618C58.1169 15.5825 57.6857 15.9721 57.3182 16.4179C56.8269 16.9728 56.397 17.574 55.9364 18.1521C55.8771 18.1328 55.9251 18.1039 55.9364 18.0789C56.2013 17.6012 56.3961 17.0879 56.5147 16.5547C56.6264 15.9304 56.4031 15.3986 55.9018 15.1308C55.7537 15.0479 55.6766 15.0653 55.6069 15.2348C54.7654 17.2513 53.5684 19.1003 52.0732 20.6936C51.7961 21.0265 51.445 21.2904 51.0481 21.4644C50.5455 21.657 50.158 21.3699 50.1966 20.8362C50.2264 20.5835 50.2996 20.3378 50.4121 20.1098C50.6948 19.5157 51.0078 18.9369 51.3507 18.3756C51.668 17.8648 51.9104 17.3114 52.0715 16.732C52.2524 15.9882 52.0559 15.4448 51.4931 15.1269C51.3546 15.0479 51.268 15.0402 51.1927 15.2136C50.8199 16.0517 50.3805 16.8585 49.8784 17.6261C49.1273 18.7937 48.3373 19.9383 47.3351 20.9017C47.1152 21.1335 46.8537 21.3224 46.5645 21.4586C46.4866 21.4974 46.4 21.5157 46.313 21.5116C46.2264 21.5076 46.142 21.4813 46.068 21.4353C45.994 21.3893 45.9334 21.3251 45.8914 21.2489C45.8494 21.1727 45.8277 21.087 45.8282 21C45.8217 20.7681 45.8671 20.5377 45.9615 20.3256C46.184 19.7912 46.4494 19.2757 46.755 18.7841C47.1407 18.1309 47.526 17.4854 47.7069 16.7397C47.9191 15.8688 47.5935 15.2348 46.8013 14.9843C46.429 14.8698 46.0273 14.9043 45.6801 15.0807C45.2437 15.317 44.8541 15.6303 44.5295 16.0056C43.8459 16.7474 43.2076 17.5299 42.6182 18.3486C42.5758 18.4026 42.5565 18.4912 42.4467 18.4912C42.8904 17.3505 43.398 16.2357 43.9671 15.152C44.5797 13.9438 45.2386 12.7608 45.755 11.5045C46.0018 10.9071 46.2312 10.3002 46.2156 9.63731C46.2251 9.459 46.1853 9.28146 46.0996 9.12462C46.0143 8.96774 45.887 8.83774 45.7321 8.74904C45.6126 8.68159 45.5394 8.68739 45.4853 8.82419C45.3814 9.07276 45.2658 9.31748 45.152 9.56025C43.8862 12.2809 42.6182 14.9978 41.1827 17.6415C40.4847 18.9895 39.4532 20.1364 38.1864 20.973C37.7898 21.2525 37.3409 21.4491 36.8665 21.551C36.0785 21.6936 35.7335 21.3468 35.8858 20.5606C36.0785 19.5683 36.537 18.6897 37.0553 17.838C37.5332 17.0538 38.0612 16.2965 38.7895 15.7185C38.9799 15.5478 39.213 15.4319 39.4639 15.3832C39.568 15.3678 39.6663 15.3658 39.7163 15.4853C39.7459 15.5353 39.7555 15.5945 39.7434 15.6513C39.7312 15.708 39.6982 15.7582 39.6508 15.7917C39.4937 15.9172 39.366 16.0757 39.277 16.2561C39.1906 16.4177 39.1711 16.6067 39.2226 16.7825C39.2741 16.9583 39.3926 17.107 39.5526 17.1964C39.7953 17.339 39.9572 17.2889 40.067 17.0287C40.1637 16.777 40.2247 16.5131 40.2482 16.2445C40.2963 15.8322 40.2482 15.4468 39.8474 15.2136C39.371 14.9178 38.8015 14.8099 38.25 14.9111C37.4214 15.073 36.8395 15.6028 36.3231 16.2233C35.8395 16.8014 35.5254 17.4835 35.1401 18.1232C34.5466 19.1078 33.9281 20.0732 33.0822 20.869C32.8176 21.1474 32.4858 21.3531 32.1188 21.4663C32.0281 21.4958 31.9313 21.5013 31.8379 21.4822C31.7444 21.4632 31.6575 21.4202 31.5856 21.3574C31.5138 21.2947 31.4595 21.2144 31.4279 21.1244C31.3964 21.0344 31.3888 20.9377 31.4058 20.8439C31.4411 20.5687 31.5211 20.3012 31.6428 20.052C31.9126 19.445 32.271 18.8958 32.5947 18.3178C32.9123 17.7981 33.1518 17.2346 33.3057 16.6453C33.4521 15.9748 33.2556 15.4371 32.745 15.1366C32.5523 15.0171 32.4945 15.0364 32.4097 15.256C32.2363 15.7011 32.0667 16.1482 31.8876 16.5894C31.2979 18.0365 30.6177 19.4315 29.5021 20.5645C29.1456 20.9267 28.7969 21.3064 28.2959 21.4701C28.1965 21.5121 28.0873 21.5254 27.9808 21.5086C27.8742 21.4917 27.7745 21.4454 27.6929 21.3748C27.6113 21.3042 27.5511 21.2122 27.5191 21.1092C27.487 21.0062 27.4845 20.8963 27.5117 20.7919C27.5497 20.5716 27.6144 20.3568 27.7044 20.1522C28.0163 19.501 28.3637 18.8674 28.7448 18.2542C29.0583 17.7406 29.2885 17.1807 29.4269 16.5952C29.556 15.9478 29.3479 15.4391 28.8489 15.1366C28.6832 15.0383 28.5965 15.0614 28.5233 15.2503C28.0726 16.3897 27.4975 17.476 26.8084 18.4893C26.1956 19.4065 25.5424 20.2928 24.6888 21.0135C24.4573 21.2302 24.1801 21.3922 23.8776 21.4875C23.6002 21.5645 23.4653 21.4875 23.4209 21.1965C23.3911 20.8579 23.4372 20.5169 23.5558 20.1984C24.0414 18.5722 24.8391 17.0865 25.6368 15.6009C25.6927 15.4969 25.7717 15.495 25.8661 15.495C26.2746 15.495 26.6831 15.495 27.0916 15.495C27.1783 15.495 27.3132 15.5451 27.3421 15.4564C27.3521 15.3953 27.3439 15.3325 27.3186 15.276C27.2932 15.2195 27.2518 15.1717 27.1995 15.1385C27.1093 15.0639 26.9947 15.0254 26.8777 15.0306C26.6388 15.0306 26.3998 15.0209 26.1609 15.0306C25.9682 15.0306 25.9509 14.9901 26.0337 14.8264C26.2515 14.3928 26.4673 13.9593 26.6638 13.5161C26.9586 12.8532 27.2419 12.1846 27.2959 11.4505C27.3267 11.0651 27.265 10.6932 26.9298 10.4312C26.7063 10.2558 26.6427 10.2732 26.5328 10.5372C25.9259 12.0112 25.2091 13.4274 24.4923 14.8591C24.4717 14.9157 24.4324 14.9636 24.3809 14.9948C24.3294 15.026 24.2687 15.0386 24.209 15.0306C23.895 15.0306 23.577 15.0306 23.263 15.0306C23.1242 15.0306 23.1011 15.0749 23.1512 15.1925C23.1892 15.2858 23.2552 15.3652 23.34 15.4197C23.4248 15.4742 23.5244 15.5012 23.6252 15.4969C23.7909 15.4969 23.9547 15.4969 24.1474 15.4969C24.1108 15.5778 24.0953 15.6202 24.0741 15.6587C23.5192 16.6973 22.9315 17.7205 22.2783 18.7012C21.7556 19.5388 21.131 20.3083 20.4189 20.9923C20.2003 21.2091 19.9374 21.3761 19.6482 21.4817C19.1742 21.632 18.8254 21.3661 18.8543 20.8747C18.8623 20.7519 18.8843 20.6303 18.9198 20.5125C19.0317 20.1518 19.1808 19.8037 19.3649 19.4739C19.6732 18.9228 19.9931 18.3775 20.2937 17.8226C20.5352 17.3915 20.6965 16.9201 20.7696 16.4314C20.8095 16.1826 20.7737 15.9276 20.6669 15.6995C20.56 15.4713 20.387 15.2806 20.1704 15.152C20.0027 15.0499 19.8948 15.0479 19.8197 15.2541C19.7561 15.4275 19.6713 15.5913 19.5962 15.7609C19.1106 16.8495 18.5325 17.8881 18.0971 18.9903C17.892 19.4316 17.7855 19.9122 17.7849 20.3988C17.8196 21.1098 18.2473 21.5549 18.8312 21.867C19.3476 22.1464 19.8139 21.9673 20.2532 21.6551C20.7026 21.3169 21.1124 20.9291 21.4748 20.499C21.6675 20.2774 21.8602 20.05 22.0953 19.7764C22.0335 20.3199 22.1703 20.8674 22.4806 21.3179C22.9026 21.9615 23.4884 22.1426 24.2033 21.8459C24.7995 21.569 25.3228 21.1567 25.7312 20.6416C25.9644 20.3738 26.1821 20.0905 26.4249 19.7919C26.4461 20.5375 26.5213 20.8343 26.7872 21.2601C27.2361 21.9769 27.8643 22.1638 28.6331 21.8035C29.1576 21.5387 29.623 21.1703 30.0011 20.7206L30.3287 20.3448C30.4054 20.7635 30.5834 21.1571 30.847 21.4913C30.9982 21.6957 31.2095 21.8477 31.4514 21.9261C31.6932 22.0046 31.9535 22.0055 32.1958 21.9287C32.566 21.8198 32.9092 21.6347 33.2036 21.3854C33.7677 20.905 34.2654 20.3516 34.6834 19.7398L34.9416 19.3968C34.8953 20.287 35.011 20.8131 35.3463 21.2987C35.7682 21.9094 36.2615 22.1002 36.984 21.9345C37.2168 21.8809 37.4439 21.8054 37.6623 21.709C38.5147 21.3259 39.2883 20.7875 39.9437 20.1213C40.0131 20.0886 40.0111 20.1309 40.0015 20.1791C39.9784 20.2601 39.9553 20.341 39.9302 20.4219C39.7279 21.0848 39.8589 21.4085 40.4428 21.7842C40.6355 21.9094 40.7376 21.896 40.8744 21.6994C41.8147 20.3391 42.7724 18.9883 43.8359 17.7166C44.3701 17.0383 44.9784 16.4218 45.6489 15.8784C45.842 15.7121 46.071 15.5928 46.3178 15.5296C46.5104 15.4911 46.6104 15.5682 46.6126 15.7686C46.6095 15.908 46.5719 16.0444 46.5026 16.1655C46.2888 16.5913 46.0749 17.0172 45.8515 17.4392C45.5039 18.0288 45.1961 18.6409 44.9303 19.2716C44.7606 19.6763 44.7186 20.1232 44.8104 20.5523C44.9022 20.9815 45.123 21.3724 45.4429 21.6725C45.5766 21.8132 45.7446 21.9164 45.9308 21.9719C46.1165 22.0273 46.3139 22.033 46.5026 21.9884C46.8572 21.9112 47.1909 21.7573 47.4797 21.5376C48.0481 21.1016 48.5472 20.5819 48.9593 19.9961C49.0057 19.9344 49.0385 19.8554 49.1195 19.8304C49.0888 20.159 49.1303 20.4902 49.2403 20.8012C49.3507 21.1123 49.5269 21.3958 49.7572 21.632C49.8805 21.7625 50.0329 21.862 50.2022 21.9223C50.371 21.9826 50.552 22.0019 50.7303 21.9788C50.9983 21.9481 51.2572 21.8615 51.4896 21.7245C52.1074 21.3434 52.6446 20.8452 53.0715 20.2581C53.1463 20.2119 53.129 20.2581 53.1234 20.3063C52.9 21.1329 52.9983 21.3969 53.6225 21.7977C53.8152 21.921 53.9251 21.9094 54.0329 21.7071C54.1074 21.5809 54.1905 21.4599 54.2814 21.3449C55.3663 19.8034 56.4511 18.2754 57.7286 16.89C58.1277 16.4292 58.5888 16.0258 59.0987 15.6915C59.2914 15.5797 59.513 15.4063 59.7074 15.5894C59.9022 15.7724 59.7459 15.9998 59.6537 16.1886C59.4606 16.6048 59.2411 17.0152 59.0251 17.4237C58.6754 18.0227 58.3628 18.6431 58.0909 19.2812C57.9572 19.6066 57.9048 19.9597 57.9386 20.3099C57.9719 20.6601 58.0905 20.9968 58.2836 21.2909C58.7286 22.0116 59.3589 22.1985 60.1256 21.842C60.6836 21.5571 61.1758 21.1587 61.5706 20.6724C61.6805 20.5491 61.7844 20.4219 61.8944 20.287C61.9598 20.3487 61.929 20.3911 61.9195 20.4335C61.7481 21.1233 61.8732 21.3969 62.4784 21.7823C62.671 21.8998 62.7498 21.8536 62.8637 21.6917C63.5247 20.7283 64.1931 19.7841 64.9044 18.8631C65.6749 17.8631 66.4572 16.8688 67.4225 16.0403C67.6654 15.8016 67.9593 15.6211 68.2818 15.5123C68.513 15.4468 68.6191 15.5354 68.6113 15.7744C68.6074 15.883 68.5797 15.9895 68.5303 16.0865C68.3996 16.364 68.2667 16.6414 68.126 16.9151C67.7598 17.628 67.336 18.3082 67.0121 19.0346C66.6269 19.919 66.7039 20.7437 67.3108 21.5029C67.4204 21.6487 67.5619 21.7672 67.7247 21.8494C67.8875 21.9316 68.0667 21.9753 68.2494 21.9769C68.5974 21.9711 68.9373 21.8661 69.2282 21.6744C69.7689 21.3296 70.2442 20.8919 70.6329 20.3815L71.1087 19.7822C71.058 20.2918 71.1784 20.8038 71.4515 21.237C71.9065 21.9788 72.5459 22.1677 73.3303 21.7919C73.8308 21.5319 74.2762 21.178 74.6424 20.7495C74.7619 20.6223 74.8758 20.4893 75.0065 20.3429C75.0792 20.7468 75.2459 21.1278 75.494 21.4547C75.623 21.6393 75.8005 21.7843 76.007 21.8735C76.2139 21.9627 76.4411 21.9925 76.6637 21.9596C77.1745 21.896 77.5771 21.6166 77.9663 21.3064C78.2602 21.0451 78.5377 20.7658 78.797 20.4701C78.9026 20.6339 78.9896 20.788 79.0992 20.9267C79.2087 21.0641 79.3286 21.193 79.4576 21.3121C80.8719 22.5993 83.1052 21.7476 83.4598 20.208C83.4732 20.1541 83.4598 20.079 83.5368 20.052V19.1271C83.4156 18.7032 83.2749 18.26 83.1225 17.8207ZM81.8355 21.0019C81.7593 21.1454 81.6606 21.2756 81.5424 21.3873C81.0918 21.79 80.4424 21.6956 80.0009 21.1618C79.6156 20.7051 79.6005 20.1811 79.7256 19.6319C79.7797 19.3743 79.8719 19.1262 79.9992 18.8958C80.4078 18.1868 80.7005 17.4141 81.184 16.7474C81.2342 16.6799 81.2766 16.6087 81.342 16.5085C81.7524 17.416 82.0974 18.2966 82.1766 19.2542C82.2424 19.8579 82.1234 20.4673 81.8355 21.0019Z" fill="#B9B9B9"/>
<path d="M19.9622 10.6719C19.8466 8.79905 18.9063 7.44061 17.2646 6.56584C15.9159 5.84519 14.4437 5.74498 12.9485 5.89723C12.7558 5.9184 12.7346 5.86446 12.7365 5.70455C12.7558 4.71796 12.7693 3.73335 12.7828 2.74681C12.7828 2.55412 12.7828 2.36144 12.7828 2.16875C12.7828 2.10131 12.7712 2.03965 12.8675 2.0069C12.9706 1.98151 13.0664 1.93268 13.1475 1.86423C13.2286 1.79577 13.2928 1.70953 13.3351 1.61221C13.3774 1.51489 13.3967 1.40911 13.3915 1.30312C13.3862 1.19712 13.3566 1.09376 13.3049 1.00108C13.2665 0.911671 13.2037 0.834935 13.1236 0.779706C13.0434 0.724481 12.9494 0.693013 12.8521 0.688931C12.759 0.681472 12.6659 0.703758 12.5863 0.752584C12.5066 0.801407 12.4446 0.874247 12.409 0.960615C12.3347 1.06919 12.2922 1.19639 12.2865 1.32782C12.2807 1.45926 12.3117 1.58969 12.3762 1.70438C12.4008 1.73913 12.4132 1.78103 12.4114 1.82356C12.4097 1.86609 12.3939 1.90684 12.3666 1.93945C12.0697 2.32472 11.7215 2.66766 11.3319 2.95876C10.1353 3.8798 8.80767 4.00697 7.60148 3.32101C7.54148 3.29816 7.49144 3.25496 7.46009 3.19896C7.42875 3.14295 7.4181 3.07771 7.42997 3.01464C7.48706 2.50113 7.47083 1.9821 7.38178 1.47316C7.28932 0.918225 7.10239 0.415316 6.55906 0.124361C6.43979 0.0539788 6.30585 0.0121967 6.16771 0.00229406C6.02958 -0.00760853 5.89105 0.0146381 5.763 0.0672874C5.6349 0.119937 5.52079 0.201556 5.42953 0.305737C5.33832 0.409919 5.27248 0.533827 5.23719 0.667732C5.07538 1.15908 5.21022 1.59262 5.47035 2.00497C5.80763 2.51566 6.22239 2.97071 6.69971 3.35377C6.78061 3.42121 6.8423 3.47901 6.80953 3.60233C6.68494 4.17811 6.4004 4.70706 5.98867 5.1284C5.00598 6.06485 3.79593 6.23442 2.52035 6.13805C2.4646 6.13939 2.41023 6.12065 2.3671 6.08528C2.32397 6.04996 2.29494 6.0003 2.28528 5.94537C2.22412 5.79411 2.11655 5.66619 1.97804 5.57996C1.83954 5.49377 1.67725 5.45372 1.51454 5.46558C1.45304 5.47043 1.39347 5.48926 1.34037 5.52065C1.28727 5.55208 1.24205 5.59519 1.20816 5.64671C1.13033 5.76697 1.09876 5.91134 1.11931 6.05307C1.13987 6.19481 1.21115 6.32429 1.31992 6.41745C1.57619 6.68528 1.871 6.75658 2.11379 6.58125C2.21976 6.50225 2.27179 6.51766 2.3585 6.60052C3.25769 7.45602 4.15689 8.30835 5.05607 9.15745C5.16014 9.25571 5.1794 9.30965 5.05607 9.40407C4.8981 9.5274 4.75165 9.6642 4.60328 9.80099C2.8537 11.41 1.52032 13.2886 0.826648 15.5912C0.524132 16.6375 0.302544 17.7011 0.487522 18.7994C0.763062 20.4315 2.24674 22.4065 4.69191 22.524C7.09663 22.6416 9.03312 21.6608 10.5765 19.8707C11.5978 18.6857 12.3415 17.3138 13.0699 15.9381C14.0641 14.0594 14.9543 12.1306 15.9332 10.2442C16.2511 9.62952 16.5806 9.02255 16.9236 8.37706C16.5565 8.40584 16.2046 8.53519 15.9062 8.75087C15.4146 9.09922 14.9825 9.52476 14.6268 10.011C13.8059 11.067 13.1623 12.2346 12.5072 13.3984C11.6999 14.8532 10.9484 16.3388 10.0023 17.7127C9.20654 18.8688 8.32209 19.9594 7.17178 20.7956C6.42607 21.339 5.611 21.7321 4.66687 21.7764C3.06372 21.8496 1.53573 20.6627 1.12146 19.0441C0.90074 18.1245 0.944831 17.1612 1.24863 16.2656C2.14076 13.4312 3.82868 11.1363 6.13512 9.31736C8.14598 7.73732 10.5547 6.74433 13.0949 6.44831C14.213 6.29091 15.3524 6.39645 16.4226 6.75658C18.0411 7.31537 19.5518 9.03411 19.2685 11.0246C19.0566 12.5102 18.4766 13.805 17.3533 14.8185C16.6076 15.4929 15.7289 15.8398 14.7019 15.6856C14.5574 15.6644 14.4168 15.624 14.2742 15.5951C14.2358 15.58 14.1933 15.5795 14.1546 15.5935C14.1158 15.6076 14.0835 15.6352 14.0637 15.6713C14.0439 15.7074 14.0378 15.7496 14.0468 15.7898C14.0558 15.83 14.079 15.8656 14.1123 15.8899C14.2037 15.9874 14.3227 16.0546 14.4533 16.0826C16.0777 16.4545 17.5074 16.1249 18.6231 14.8378C19.652 13.6413 20.0605 12.2269 19.9622 10.6719ZM5.79793 1.61574C5.69538 1.43468 5.64659 1.22815 5.65728 1.02035C5.65503 0.923437 5.68239 0.828147 5.73577 0.747229C5.78914 0.666307 5.86594 0.603615 5.95594 0.567537C6.04027 0.528667 6.13447 0.516333 6.22598 0.53216C6.3175 0.547987 6.40209 0.591234 6.46849 0.656173C6.64797 0.804437 6.7739 1.00751 6.82685 1.23423C6.95551 1.79096 6.99711 2.36425 6.95018 2.93371C6.49906 2.55489 6.11022 2.10755 5.79793 1.60804V1.61574ZM12.2818 4.19773C12.2818 4.73723 12.2818 5.27675 12.2818 5.81437C12.2818 5.93576 12.2529 5.99355 12.1238 6.00706C9.79144 6.41931 7.59637 7.39939 5.73243 8.86069C5.59754 8.96281 5.52429 8.97247 5.39715 8.84723C4.65916 8.12853 3.92696 7.41944 3.16007 6.67952C3.56689 6.66052 3.97154 6.60896 4.37013 6.52537C5.82105 6.19009 6.83455 5.36926 7.24499 3.90099C7.2662 3.82006 7.2604 3.70831 7.41455 3.78923C9.03118 4.67558 10.4821 4.296 11.8463 3.21118C11.9831 3.09942 12.1142 2.97996 12.2895 2.82581L12.2818 4.19773Z" fill="#B9B9B9"/>
<path d="M37.8008 29.7459C37.56 29.6882 37.4771 29.4723 37.3557 29.3008C37.2263 29.0784 37.066 28.8754 36.8798 28.6977C36.9087 28.6688 36.9164 28.6553 36.9299 28.6476C37.2825 28.4704 37.4116 28.2873 37.3827 28.0021C37.361 27.853 37.2903 27.7153 37.1819 27.6107C37.0734 27.5061 36.9333 27.4404 36.7834 27.4241C36.2651 27.3143 35.7391 27.3759 35.217 27.3856C35.1668 27.3856 35.1283 27.399 35.1264 27.4626C35.1244 27.5262 35.1399 27.5686 35.2111 27.5686C35.4751 27.5686 35.4944 27.7478 35.4925 27.954C35.4925 28.4395 35.4925 28.9251 35.4925 29.4107C35.4925 29.6033 35.4539 29.7498 35.2227 29.7537C35.2094 29.7517 35.1957 29.7529 35.1829 29.7572C35.1701 29.7614 35.1585 29.7686 35.1489 29.7782C35.1394 29.7877 35.1322 29.7993 35.1279 29.8121C35.1237 29.825 35.1225 29.8385 35.1244 29.8519C35.1244 29.9309 35.1784 29.9348 35.2343 29.9348H36.2979C36.3441 29.9348 36.3942 29.9348 36.3981 29.8693C36.4019 29.8037 36.3827 29.7575 36.3133 29.7575C36.0455 29.7575 36.0262 29.5841 36.0358 29.3721C36.0358 29.2719 36.0358 29.1795 36.0358 29.0735C36.0358 28.9675 35.9703 28.8461 36.1091 28.8172C36.1748 28.795 36.2453 28.7911 36.3131 28.8056C36.381 28.8202 36.4436 28.8528 36.4944 28.9001C36.5538 28.9708 36.6073 29.0461 36.6544 29.1255C36.795 29.3471 36.9318 29.5706 37.0725 29.7903C37.113 29.8519 37.1438 29.929 37.2401 29.929H37.7488C37.795 29.929 37.8452 29.929 37.8471 29.8635C37.849 29.798 37.8625 29.7594 37.8008 29.7459ZM36.7892 28.2045C36.7873 28.2797 36.7609 28.3522 36.7139 28.411C36.667 28.4698 36.6021 28.5116 36.5291 28.5301L36.4848 28.5417C36.0879 28.6592 36.0378 28.6226 36.0378 28.2179V28.0811C36.0339 28.0427 36.0339 28.004 36.0378 27.9655C36.0628 27.8364 35.9549 27.6399 36.0975 27.5898C36.194 27.5605 36.2962 27.5556 36.395 27.5754C36.4939 27.5953 36.5863 27.6392 36.664 27.7035C36.8374 27.8307 36.8066 28.0291 36.7912 28.2122L36.7892 28.2045Z" fill="#B9B9B9"/>
<path d="M50.9387 29.7362C50.775 29.6957 50.6941 29.5609 50.6032 29.4357C50.4443 29.1603 50.2499 28.907 50.0252 28.6822C50.2759 28.5705 50.4993 28.4491 50.53 28.1524C50.5746 27.7477 50.3222 27.4587 49.8404 27.3932C49.3651 27.3473 48.8867 27.3427 48.4105 27.3797C48.3586 27.3797 48.3006 27.3797 48.2949 27.4567C48.2893 27.5338 48.3317 27.5628 48.4049 27.5666C48.5975 27.5666 48.6417 27.6976 48.6417 27.8653C48.6417 28.397 48.6417 28.927 48.6417 29.4588C48.6417 29.6168 48.5936 29.7324 48.4127 29.742C48.3451 29.742 48.2893 29.7593 48.2949 29.846C48.3006 29.9328 48.3742 29.9231 48.43 29.9231C48.7612 29.9231 49.0928 29.9231 49.4239 29.9231C49.4837 29.9231 49.5534 29.9366 49.5534 29.8383C49.5534 29.769 49.5166 29.7459 49.4529 29.7439C49.2218 29.7439 49.1776 29.5898 49.185 29.3971C49.185 29.2892 49.185 29.1813 49.185 29.0753C49.185 28.9693 49.1179 28.8441 49.2486 28.8152C49.3179 28.7886 49.3932 28.7825 49.4655 28.7975C49.5378 28.8125 49.6045 28.8481 49.6573 28.9C49.7118 28.9652 49.7607 29.0348 49.8036 29.1081C49.9443 29.3277 50.0793 29.5532 50.22 29.7728C50.2681 29.8499 50.3144 29.9309 50.43 29.927C50.5841 29.927 50.7382 29.927 50.8923 29.927C50.9443 29.927 51.0062 29.9386 51.0135 29.8576C51.0179 29.8447 51.0192 29.8311 51.0174 29.8176C51.0157 29.8042 51.0109 29.7913 51.004 29.7798C50.9967 29.7683 50.9871 29.7584 50.9759 29.7509C50.9646 29.7434 50.9521 29.7384 50.9387 29.7362ZM49.8499 28.4279C49.7694 28.4918 49.6763 28.5385 49.5767 28.565C49.4776 28.5915 49.3737 28.5973 49.272 28.582C49.1776 28.582 49.1928 28.505 49.1928 28.4452C49.1928 28.3219 49.1928 28.2005 49.1928 28.0772C49.185 28.0313 49.185 27.9844 49.1928 27.9385C49.2374 27.819 49.0716 27.6244 49.2932 27.5724C49.4209 27.5427 49.5551 27.5575 49.6733 27.6142C49.7919 27.6709 49.8871 27.7663 49.9443 27.8845C49.9802 27.975 49.9902 28.0736 49.9737 28.1695C49.9573 28.2654 49.9144 28.3548 49.8499 28.4279Z" fill="#B9B9B9"/>
<path d="M15.5536 29.7458C15.305 29.6879 15.2203 29.4644 15.0931 29.2852C14.965 29.0603 14.801 28.8579 14.6075 28.686C15.0835 28.4586 15.2395 28.1522 15.0738 27.8035C14.9351 27.5106 14.6672 27.4181 14.3744 27.3854C13.9216 27.3497 13.4668 27.3497 13.014 27.3854C12.9562 27.3854 12.8849 27.3699 12.8791 27.4663C12.8733 27.5626 12.9215 27.5703 12.9928 27.5722C13.1681 27.5722 13.2394 27.6898 13.2394 27.8459C13.2394 28.3918 13.2394 28.9384 13.2394 29.4856C13.2436 29.5186 13.2406 29.552 13.2307 29.5837C13.2209 29.6154 13.2044 29.6447 13.1823 29.6695C13.1602 29.6943 13.1331 29.7141 13.1027 29.7276C13.0724 29.7411 13.0395 29.7479 13.0063 29.7477C12.9427 29.7477 12.8791 29.7477 12.8791 29.8421C12.8791 29.9365 12.9658 29.9288 13.0275 29.9288C13.3512 29.9288 13.6723 29.9288 13.9909 29.9288C14.0468 29.9288 14.12 29.95 14.1277 29.8536C14.1354 29.7573 14.0815 29.7515 14.0121 29.7477C13.8194 29.7477 13.7674 29.6128 13.7635 29.449C13.7635 29.3276 13.7635 29.2024 13.7635 29.081C13.7635 28.9904 13.7 28.8497 13.831 28.8189C13.8957 28.7953 13.9656 28.7894 14.0334 28.8019C14.1012 28.8145 14.1644 28.845 14.2164 28.8902C14.2729 28.9496 14.3239 29.0141 14.3686 29.0829C14.517 29.3161 14.6615 29.5531 14.8098 29.7862C14.8503 29.8498 14.8869 29.9211 14.9813 29.9211H15.49C15.5343 29.9211 15.5883 29.9211 15.5883 29.8556C15.5883 29.79 15.6133 29.7592 15.5536 29.7458ZM14.4418 28.4258C14.3607 28.4891 14.2678 28.5355 14.1685 28.5623C14.0693 28.5891 13.9656 28.5958 13.8637 28.5819C13.7732 28.5819 13.7771 28.5106 13.7771 28.449C13.7771 28.318 13.7771 28.1869 13.7771 28.0636C13.7703 28.0254 13.7703 27.9862 13.7771 27.948C13.8194 27.8266 13.6614 27.6339 13.8772 27.578C14.1431 27.5106 14.4823 27.6744 14.5304 27.8844C14.5644 27.9745 14.5742 28.0719 14.5586 28.167C14.543 28.262 14.5028 28.3513 14.4418 28.4258Z" fill="#B9B9B9"/>
<path d="M46.9553 27.7958C46.8895 27.6725 46.7917 27.5693 46.6718 27.4973C46.5519 27.4254 46.4151 27.3874 46.2753 27.3873C45.9787 27.3449 45.6774 27.3449 45.3809 27.3873C45.2211 27.3873 45.0441 27.3873 44.8683 27.3873C44.8164 27.3873 44.7549 27.3758 44.7471 27.4586C44.7393 27.5415 44.7761 27.5684 44.8532 27.5723C45.067 27.5723 45.1151 27.7129 45.1134 27.9018C45.1134 28.4008 45.1134 28.9018 45.1134 29.4028C45.1134 29.5955 45.0787 29.7439 44.8476 29.7497C44.7818 29.7497 44.7471 29.7785 44.7471 29.8479C44.7471 29.9173 44.7991 29.9288 44.8571 29.9308H45.9185C45.9766 29.9308 46.0285 29.9211 46.0268 29.8441C46.0246 29.767 46.0034 29.7516 45.9475 29.7535C45.6449 29.7535 45.6488 29.5608 45.6566 29.3431C45.6566 29.2275 45.6566 29.1119 45.6566 28.9962C45.6566 28.8806 45.6817 28.8036 45.832 28.8036C46.0553 28.8065 46.2779 28.7813 46.4947 28.7284C46.5926 28.7072 46.6839 28.6642 46.7627 28.6027C46.8415 28.5412 46.9056 28.4627 46.9497 28.3731C46.9943 28.2835 47.0177 28.185 47.0185 28.0851C47.0194 27.9852 46.9978 27.8863 46.9553 27.7958ZM45.7337 28.5839C45.6623 28.5627 45.6584 28.5184 45.6584 28.4644C45.6584 28.2043 45.6584 27.9423 45.6584 27.6821C45.6584 27.6243 45.6701 27.5858 45.7393 27.5665C45.8203 27.5423 45.906 27.5377 45.9891 27.5531C46.0718 27.5684 46.1501 27.6034 46.2168 27.655C46.2839 27.7066 46.3376 27.7733 46.3735 27.8498C46.4095 27.9262 46.4263 28.0101 46.4233 28.0945C46.4224 28.1768 46.4017 28.2578 46.3631 28.3307C46.325 28.4036 46.2701 28.4665 46.2025 28.5142C46.1354 28.5618 46.0579 28.593 45.9766 28.6051C45.8952 28.6172 45.8121 28.61 45.7337 28.5839Z" fill="#B9B9B9"/>
<path d="M29.7295 27.3854C29.4412 27.3458 29.1488 27.3458 28.8605 27.3854H28.346C28.2901 27.3854 28.215 27.3662 28.2092 27.4625C28.2034 27.5588 28.2516 27.5684 28.3229 27.5723C28.5156 27.582 28.5715 27.6879 28.5695 27.8633C28.5695 28.3951 28.5695 28.9269 28.5695 29.4587C28.5695 29.6302 28.5136 29.7439 28.3229 29.7477C28.2516 29.7477 28.2054 29.7785 28.2092 29.8575C28.2131 29.9365 28.2767 29.9288 28.3287 29.9288C28.6736 29.9288 29.0204 29.9288 29.3672 29.9288C29.4212 29.9288 29.479 29.9288 29.4809 29.8537C29.4828 29.7785 29.4597 29.7516 29.3904 29.7497C29.1457 29.7497 29.1032 29.5955 29.111 29.3932C29.111 29.2468 29.111 29.1003 29.111 28.9539C29.111 28.8459 29.1418 28.8074 29.2535 28.8036C29.4925 28.807 29.7309 28.7792 29.9626 28.7207C30.1006 28.6945 30.2254 28.6219 30.3165 28.515C30.4076 28.4081 30.4595 28.2734 30.4636 28.133C30.479 27.6995 30.2247 27.4336 29.7295 27.3854ZM29.795 28.4201C29.6409 28.5993 29.4096 28.5859 29.1938 28.582C29.0975 28.582 29.1148 28.5068 29.1129 28.4471C29.1129 28.318 29.1129 28.187 29.1129 28.0617C29.1061 28.0241 29.1061 27.9856 29.1129 27.9481C29.1572 27.8247 28.9973 27.6339 29.2093 27.5781C29.3328 27.5467 29.4634 27.5571 29.5805 27.6076C29.6976 27.6582 29.7947 27.746 29.8567 27.8575C29.8976 27.9482 29.9135 28.0483 29.9026 28.1472C29.8918 28.2462 29.8546 28.3404 29.795 28.4201Z" fill="#B9B9B9"/>
<path d="M33.8645 29.7477C33.6525 29.7246 33.6044 29.555 33.5427 29.397C33.296 28.7746 33.0533 28.1522 32.8066 27.5298C32.7758 27.4508 32.7739 27.3372 32.6409 27.3372C32.508 27.3372 32.5137 27.4547 32.4849 27.5298C32.2517 28.1253 32.0282 28.7226 31.7931 29.316C31.7237 29.4914 31.6679 29.6898 31.4405 29.738C31.3808 29.7496 31.375 29.792 31.375 29.8421C31.375 29.9211 31.4347 29.9172 31.4887 29.9172C31.6814 29.9172 31.8895 29.9172 32.0879 29.9172C32.1438 29.9172 32.2228 29.9461 32.2402 29.8575C32.2575 29.7688 32.1977 29.7419 32.1168 29.7323C31.9646 29.713 31.9415 29.6185 31.9704 29.4817C32.0089 29.3045 32.0725 29.185 32.2902 29.2139C32.4482 29.2351 32.614 29.2139 32.7739 29.2139C32.9974 29.2332 32.9666 29.4432 33.0109 29.58C33.0552 29.7168 32.9376 29.7284 32.8375 29.7303C32.7777 29.7303 32.7334 29.7477 32.7315 29.8209C32.7295 29.8941 32.7951 29.9095 32.8567 29.9114H33.8202C33.8664 29.9114 33.9146 29.9114 33.9146 29.8421C33.9146 29.7727 33.9261 29.7534 33.8645 29.7477ZM32.3461 28.4798C32.3808 28.3873 32.4193 28.2871 32.4675 28.1696C32.5369 28.3372 32.5966 28.4759 32.6486 28.6166C32.713 28.7463 32.7609 28.8835 32.7912 29.0251C32.1226 29.081 32.1226 29.081 32.3461 28.4798Z" fill="#B9B9B9"/>
<path d="M71.82 29.746C71.6078 29.7248 71.5559 29.5533 71.494 29.3973C71.2455 28.7691 71.0009 28.1371 70.7524 27.509C70.7234 27.4338 70.7156 27.3374 70.5961 27.3394C70.4767 27.3413 70.4749 27.4415 70.4459 27.5147C70.2148 28.1178 69.9875 28.7228 69.7503 29.324C69.681 29.4994 69.6195 29.694 69.394 29.7441C69.3247 29.7595 69.3148 29.8096 69.3226 29.8674C69.3303 29.9252 69.3862 29.9233 69.4303 29.9252C69.623 29.9252 69.8312 29.9252 70.0316 29.9252C70.0858 29.9252 70.1645 29.9561 70.1819 29.8655C70.1992 29.7749 70.1455 29.7518 70.0645 29.7383C69.9178 29.7132 69.8892 29.6227 69.9256 29.482C69.9702 29.3086 70.0316 29.1892 70.2494 29.2219C70.4026 29.2325 70.5567 29.2325 70.71 29.2219C70.949 29.2219 70.9161 29.4358 70.9624 29.5707C71.0087 29.7055 70.8987 29.7403 70.7849 29.7403C70.7178 29.7403 70.6888 29.773 70.6905 29.8404C70.6927 29.9079 70.7446 29.9194 70.8005 29.9214H71.7641C71.8161 29.9214 71.8758 29.9214 71.8775 29.8481C71.8853 29.7999 71.8797 29.7518 71.82 29.746ZM70.6022 29.0408C70.0797 29.0716 70.0797 29.0774 70.2628 28.588C70.3091 28.4608 70.3593 28.3336 70.4247 28.1622C70.5308 28.4319 70.6174 28.6535 70.7078 28.8712C70.7503 28.9849 70.7503 29.0331 70.6022 29.0408Z" fill="#B9B9B9"/>
<path d="M41.4485 29.746C41.2558 29.7229 41.198 29.5533 41.1383 29.4107C40.8897 28.7826 40.645 28.1506 40.3964 27.5205C40.3676 27.4492 40.3695 27.3471 40.25 27.3413C40.1305 27.3355 40.1113 27.4454 40.0805 27.5244C39.8434 28.1332 39.6141 28.746 39.3752 29.3548C39.3097 29.5244 39.2461 29.7094 39.0245 29.7402C38.9648 29.7499 38.9629 29.798 38.9648 29.8462C38.9667 29.8944 39.0072 29.9175 39.0573 29.9175H39.7278C39.7837 29.9175 39.8357 29.9175 39.8357 29.8347C39.8357 29.7518 39.8049 29.7383 39.7394 29.7344C39.6739 29.7306 39.5872 29.7152 39.5602 29.6208C39.5485 29.5744 39.5471 29.526 39.5563 29.479C39.5655 29.4321 39.585 29.3878 39.6134 29.3493C39.6418 29.3108 39.6783 29.279 39.7204 29.2563C39.7625 29.2337 39.8092 29.2206 39.8569 29.218C40.0265 29.218 40.196 29.2084 40.3656 29.218C40.5872 29.2334 40.5583 29.4435 40.6103 29.5803C40.6624 29.7171 40.5409 29.7306 40.4408 29.7344C40.3753 29.7344 40.3386 29.7634 40.3405 29.8308C40.3405 29.9291 40.4138 29.9136 40.4716 29.9136H41.3965C41.4485 29.9136 41.5102 29.9136 41.5121 29.8404C41.514 29.8019 41.5063 29.7537 41.4485 29.746ZM40.2712 29.0389C39.7105 29.087 39.7086 29.0851 39.907 28.5648C39.9494 28.4512 39.9957 28.3375 40.0631 28.1641C40.1806 28.4589 40.2693 28.6939 40.3656 28.9348C40.4118 29.035 40.3483 29.0331 40.2712 29.0389Z" fill="#B9B9B9"/>
</g>
<defs>
<clipPath id="clip0_197_856">
<rect width="83.1602" height="30" fill="white" transform="translate(0.419922)"/>
</clipPath>
</defs>
</svg>
