<svg width="112" height="18" viewBox="0 0 112 18" fill="none" xmlns="http://www.w3.org/2000/svg">
<g clip-path="url(#clip0_197_806)">
<path d="M33.5479 16.535L36.5919 4.88158C36.7023 4.42906 36.9014 4.0738 37.1872 3.81693C37.4727 3.56127 37.773 3.43284 38.0862 3.43284L39.1939 3.40283C39.2119 3.42325 39.2347 3.43284 39.2624 3.43284C39.29 3.43284 39.3129 3.43284 39.332 3.43284C39.6092 3.45206 39.8758 3.58528 40.1337 3.83253C40.393 4.07859 40.596 4.43867 40.7435 4.91158L44.6732 16.535H41.6017L40.5216 13.0446H36.6193L35.5127 16.535H33.5479ZM40.0786 12.0988L38.3357 6.50915C38.3357 6.52835 38.3357 6.53314 38.3357 6.52355C38.3357 6.51394 38.3357 6.50915 38.3357 6.50915C38.3357 6.50915 38.3309 6.50433 38.3214 6.49355C38.3129 6.48394 38.3081 6.47914 38.3081 6.47914L36.8138 12.0988H40.0786Z" fill="#B9B9B9"/>
<path d="M46.4941 16.5352V5.35464C46.4941 4.86254 46.6333 4.47245 46.9094 4.18678C47.1867 3.90111 47.5275 3.75828 47.9333 3.75828L49.0411 3.72827C49.1695 3.74869 49.3041 3.77268 49.4421 3.80268C49.5801 3.83149 49.7145 3.88671 49.844 3.96594C50.065 4.06436 50.2809 4.21199 50.4934 4.40882C50.7059 4.60567 50.9039 4.85293 51.0887 5.14821L54.548 11.1232V3.72827H56.5416V16.0611C56.5416 16.3384 56.5092 16.5352 56.4444 16.6528C56.3796 16.7717 56.3015 16.8305 56.2091 16.8305H55.1013C54.973 16.8509 54.8252 16.7765 54.6595 16.6084C54.4927 16.4416 54.3175 16.1895 54.1339 15.8546L48.6811 6.50931C48.6629 6.48891 48.6438 6.4649 48.6258 6.43489C48.6067 6.40489 48.5982 6.37009 48.5982 6.33167C48.579 6.31128 48.5611 6.28125 48.5431 6.24286C48.5249 6.20324 48.5058 6.17324 48.4878 6.15404V16.5352H46.4941Z" fill="#B9B9B9"/>
<path d="M60.4929 3.72827H65.0817C65.3552 3.74869 65.7143 3.77268 66.1595 3.80268C66.6047 3.83269 67.0668 3.91551 67.547 4.05356C68.2767 4.25161 68.9454 4.59127 69.549 5.07499C70.1539 5.55749 70.4565 6.28247 70.4565 7.24869C70.4565 8.17529 70.1023 8.88465 69.3955 9.37796C68.6873 9.87129 67.9118 10.2062 67.0668 10.3838C66.9529 10.4222 66.8437 10.4474 66.7416 10.457C66.6384 10.4666 66.5303 10.4822 66.4164 10.5014L71.0038 16.5352H67.2037L62.1026 9.79206C64.2258 9.9301 65.5605 9.72244 66.1079 9.17032C66.6563 8.6194 66.9301 7.99766 66.9301 7.3075C66.9301 7.3075 66.9301 7.30268 66.9301 7.2919C66.9301 7.28349 66.9301 7.26789 66.9301 7.24869C66.9301 6.55853 66.6503 5.95719 66.091 5.44466C65.5317 4.93216 64.647 4.67529 63.4371 4.67529L62.6499 4.64529V16.5352H59.1235V3.72827H60.4929Z" fill="#B9B9B9"/>
<path d="M72.5269 5.35584C72.5269 4.80372 72.6564 4.39923 72.9145 4.14237C73.1737 3.88671 73.625 3.75828 74.2709 3.75828L75.3776 3.72827H81.2732V4.64529H76.4577C76.1434 4.66568 75.9223 4.7545 75.7928 4.91174C75.6642 5.07017 75.5995 5.38465 75.5995 5.85876V9.55561H80.1666V10.4726H75.5995V14.4347C75.5995 14.928 75.6642 15.2533 75.7928 15.4117C75.9223 15.569 76.1434 15.6482 76.4577 15.6482L81.0511 15.6182V16.5352H74.2709C73.625 16.5352 73.1737 16.402 72.9145 16.1355C72.6564 15.869 72.5269 15.3913 72.5269 14.7012V5.35584Z" fill="#B9B9B9"/>
<path d="M83.6533 16.5352V5.82876C83.6533 5.09898 83.7685 4.57207 83.999 4.24679C84.2295 3.92153 84.5018 3.75828 84.8153 3.75828L85.923 3.72827C85.9604 3.74869 86.0012 3.75828 86.0468 3.75828C86.0936 3.75828 86.1344 3.76789 86.1715 3.78828C86.4487 3.84709 86.7165 3.99954 86.9746 4.24679C87.2325 4.49284 87.4355 4.79292 87.583 5.14821L90.2404 11.7437L92.3709 5.1194C92.5186 4.6849 92.7454 4.35483 93.0491 4.12797C93.354 3.90111 93.672 3.78828 94.0046 3.78828L95.1112 3.75828C95.5348 3.77869 95.9141 3.94552 96.2455 4.26119C96.5778 4.57687 96.7435 5.03058 96.7435 5.62112V16.5352H93.672V7.21868L90.2129 17.0081H89.1049L85.8389 7.63276V16.5352H83.6533Z" fill="#B9B9B9"/>
<path d="M99.1528 10.0284C99.1528 7.93874 99.687 6.33157 100.757 5.20811C101.828 4.08346 103.175 3.52173 104.798 3.52173L105.906 3.49292C107.436 3.51214 108.802 4.02464 110.001 5.03048C111.201 6.03511 111.8 7.71189 111.8 10.0572C111.8 12.2657 111.283 13.9761 110.251 15.1896C109.217 16.4019 107.768 17.008 105.906 17.008H104.798C103.175 17.008 101.828 16.3719 100.757 15.1008C99.687 13.8285 99.1528 12.1481 99.1528 10.0572V10.0284ZM102.004 10.0284C102.004 11.842 102.325 13.262 102.972 14.287C103.617 15.3132 104.42 15.9038 105.379 16.0622C106.357 15.9242 107.109 15.4705 107.635 14.7011C108.161 13.9317 108.516 13.1047 108.701 12.2165C108.792 11.8228 108.857 11.4435 108.894 11.0787C108.931 10.7138 108.949 10.3729 108.949 10.0572C108.949 8.75614 108.664 7.54866 108.091 6.43481C107.52 5.32094 106.616 4.67519 105.379 4.49756C104.42 4.65479 103.663 5.18771 103.11 6.09512C102.557 7.00133 102.205 7.98795 102.059 9.05259C102.039 9.20983 102.026 9.37787 102.017 9.55551C102.007 9.73316 102.004 9.89999 102.004 10.0572V10.0284Z" fill="#B9B9B9"/>
<path d="M30.0025 3.93096C29.6807 3.45445 29.3422 3.13037 28.9882 2.95995C28.8057 2.87111 28.6029 2.80151 28.3785 2.74989C28.154 2.69827 27.909 2.66467 27.6438 2.65027C27.2813 2.68748 26.9404 2.7763 26.6201 2.91794C26.2936 3.06077 25.991 3.2588 25.7114 3.50847C25.445 3.74731 25.2542 4.04139 25.1401 4.38827C25.0238 4.74354 24.9876 5.15764 25.0298 5.62815C25.0705 5.94503 25.1772 6.22588 25.3466 6.46594C25.5195 6.7096 25.7605 6.91724 26.0691 7.08648C26.4065 7.27253 26.7628 7.44896 27.1361 7.61581C27.5131 7.78385 27.9116 7.94349 28.3317 8.09591L28.3377 8.09711C29.0505 8.33717 29.778 8.63365 30.4405 8.96972C30.9337 9.22056 31.402 9.49904 31.8461 9.80391C32.3201 10.1316 32.661 10.5601 32.8674 11.0882C33.0702 11.6067 33.1424 12.2188 33.0848 12.9222V12.9318C32.9647 14.431 32.3669 15.54 31.2879 16.2578C30.7634 16.6071 30.2112 16.8807 29.6351 17.0788C29.059 17.2768 28.454 17.4004 27.824 17.4485H27.8058C27.7171 17.4485 27.627 17.4521 27.5334 17.4592L27.5311 17.4604H27.5251C27.4818 17.4629 27.4301 17.4653 27.3691 17.4677C27.2981 17.4701 27.2405 17.4713 27.1974 17.4713H26.0908C25.0728 17.4713 24.145 17.2516 23.3073 16.8111C22.8848 16.5879 22.5223 16.325 22.221 16.0225C21.9162 15.7153 21.6749 15.3696 21.4985 14.9831C21.448 14.8763 21.4841 14.7526 21.5765 14.6866L22.4491 13.9604C22.4935 13.9221 22.5487 13.904 22.6027 13.904V13.9028H23.7106C23.8125 13.9028 23.9003 13.9665 23.9351 14.0565C24.1944 14.5966 24.5675 15.0443 25.056 15.4008C25.301 15.5796 25.5626 15.7249 25.8386 15.8377C26.1039 15.9445 26.3823 16.0213 26.6729 16.0645C27.6246 15.9469 28.3183 15.6168 28.7529 15.0755C28.9749 14.7983 29.1431 14.5078 29.2535 14.2065C29.3627 13.9076 29.4178 13.5956 29.4178 13.2715C29.4178 12.9858 29.3782 12.711 29.3003 12.4445C29.221 12.1744 29.1021 11.914 28.9438 11.6607C28.7889 11.4147 28.5944 11.1998 28.3605 11.0198C27.4818 10.3416 25.5026 9.93354 24.5423 9.50504C24.0107 9.26739 23.5016 9.00332 23.0192 8.71405C22.5055 8.40799 22.119 8.01189 21.8609 7.52699C21.6041 7.04567 21.4756 6.48274 21.4756 5.83699C21.4756 5.12164 21.5981 4.48188 21.8453 3.91656C22.0938 3.34884 22.4659 2.86032 22.9616 2.45222C23.4525 2.04773 24.0335 1.74406 24.7032 1.54362C25.3658 1.34557 26.1136 1.24475 26.9476 1.24475L26.9632 1.24595L28.0508 1.22314H28.065C28.5117 1.23154 28.9474 1.27596 29.3687 1.35637C29.7971 1.43799 30.2136 1.55562 30.6182 1.71046C31.0381 1.87009 31.3995 2.08854 31.702 2.3658C32.0056 2.64308 32.2468 2.97675 32.4257 3.36564C32.4821 3.48686 32.4294 3.63089 32.3081 3.68611L32.283 3.69691L31.408 4.03658C31.3792 4.04858 31.3504 4.0534 31.3216 4.0534V4.0546H30.2136C30.1237 4.0546 30.0444 4.00418 30.0025 3.93096Z" fill="#B9B9B9"/>
<path fill-rule="evenodd" clip-rule="evenodd" d="M6.8347 14.353C6.93191 20.1911 0.673684 18.0426 4.33572 13.4948C7.04593 10.1304 7.21038 7.98429 4.33572 4.41589C0.673684 -0.131951 6.93191 -2.28044 6.8347 3.55769C6.77467 7.1477 6.77467 10.7605 6.8347 14.353ZM7.98936 14.353C7.89213 20.1911 14.1516 18.0426 10.4883 13.4948C7.7781 10.1304 7.61368 7.98429 10.4883 4.41589C14.1516 -0.131951 7.89213 -2.28044 7.98936 3.55769C8.04937 7.1477 8.04937 10.7605 7.98936 14.353ZM2.36486 10.9034C-2.32941 12.2921 0.96175 16.7595 3.67918 12.687C6.57904 8.34078 6.47462 8.86651 3.67918 4.67755C0.96175 0.605016 -2.32941 5.07243 2.36486 6.46236C6.18174 7.59061 6.36538 9.7199 2.36486 10.9034ZM12.9429 10.9034C17.6384 12.2921 14.346 16.7595 11.6286 12.687C8.72872 8.34078 8.83434 8.86651 11.6286 4.67755C14.346 0.605016 17.6384 5.07243 12.9429 6.46236C9.12602 7.59061 8.94237 9.7199 12.9429 10.9034Z" fill="#B9B9B9"/>
</g>
<defs>
<clipPath id="clip0_197_806">
<rect width="112" height="17.9753" fill="white" transform="translate(0 0.0124512)"/>
</clipPath>
</defs>
</svg>
