<svg width="112" height="16" viewBox="0 0 112 16" fill="none" xmlns="http://www.w3.org/2000/svg">
<g clip-path="url(#clip0_197_994)">
<path d="M13.0891 11.3655C13.0891 12.6566 12.0308 13.7151 10.7399 13.7151H5.48039C6.08169 13.0014 6.44247 12.0872 6.44247 11.0848C6.44247 10.0825 6.08169 9.16828 5.48039 8.45453H10.7399C12.0308 8.45453 13.0891 9.51308 13.0891 10.8041V11.3575V11.3655ZM2.48983 5.15867V4.60535C2.48983 3.31426 3.54815 2.25573 4.83898 2.25573H10.1065C9.50518 2.96943 9.14441 3.88363 9.14441 4.88602C9.14441 5.88841 9.50518 6.80258 10.1065 7.51632H4.83898C3.54815 7.51632 2.48983 6.45777 2.48983 5.16669M12.8405 0.24292H2.73838C1.26314 0.24292 0.0524902 1.45381 0.0524902 2.92934V13.0335C0.0524902 14.517 1.26314 15.7199 2.73838 15.7199H12.8405C14.3238 15.7199 15.5264 14.509 15.5264 13.0335V2.92934C15.5264 1.4458 14.3158 0.24292 12.8405 0.24292Z" fill="#B9B9B9"/>
<path d="M63.2237 3.274H66.0374C67.4169 3.274 68.5392 4.38065 68.5713 5.75994C68.5474 7.13926 67.4245 8.24591 66.0374 8.24591H63.2237V3.274ZM66.8315 0.266808H60.698C60.4333 0.266808 60.217 0.483326 60.217 0.747959V15.7759H62.7421C63.0068 15.7759 63.2237 15.5594 63.2237 15.2947V11.237H64.7787C65.3559 11.237 65.8853 11.5498 66.1581 12.055L67.7212 14.9419C68.0017 15.4551 68.531 15.7679 69.1164 15.7679H71.5855L68.8838 10.7719C70.4714 10.0101 71.578 8.39021 71.5855 6.51373V5.00614C71.5855 2.38387 69.461 0.258789 66.8315 0.258789" fill="#B9B9B9"/>
<path d="M93.7785 0.266846H87.6456C87.381 0.266846 87.1641 0.483363 87.1641 0.747996V15.7759H89.6897C89.9544 15.7759 90.1707 15.5594 90.1707 15.2948V3.27403H92.985C94.3884 3.27403 95.5189 4.40474 95.5189 5.80809V15.7679H96.9537C97.8195 15.7679 98.5174 15.0622 98.5174 14.2042V5.02221C98.5174 2.39995 96.3923 0.274865 93.7628 0.274865" fill="#B9B9B9"/>
<path d="M76.6917 8.23789V3.27403H79.5059C80.9093 3.27403 82.0398 4.40474 82.0398 5.80809V8.23789H76.6917ZM80.3 0.266846H74.1665C73.9019 0.266846 73.6855 0.483363 73.6855 0.747996V15.7759H76.2107C76.4753 15.7759 76.6917 15.5594 76.6917 15.2948V11.2371H82.0398V15.7599H83.4746C84.3404 15.7599 85.0383 15.0542 85.0383 14.1962V5.02221C85.0383 2.39995 82.9137 0.274865 80.2837 0.274865" fill="#B9B9B9"/>
<path d="M52.5673 8.23786H49.7531V3.274H52.5673C53.9463 3.274 55.0688 4.38065 55.1009 5.75994C55.0768 7.13926 53.9544 8.24591 52.5673 8.24591M53.3531 0.266808H47.2196C46.955 0.266808 46.7385 0.483326 46.7385 0.747959V15.7759H49.2641C49.5287 15.7759 49.7451 15.5594 49.7451 15.2947V11.237H53.3531C55.9668 11.237 58.0834 9.12798 58.0994 6.51373V5.00614C58.0994 2.38387 55.9748 0.258789 53.345 0.258789" fill="#B9B9B9"/>
<path d="M41.6231 10.2427C41.6231 11.638 40.4926 12.7768 39.0895 12.7768H38.8089C37.4139 12.7768 36.2754 11.638 36.2754 10.2427V3.27403H39.0895C40.4926 3.27403 41.6231 4.40474 41.6231 5.80809V10.2427ZM39.8753 0.266846H33.7418C33.4772 0.266846 33.2607 0.483363 33.2607 0.747996V11.0286C33.2607 13.6509 35.3854 15.7759 38.0152 15.7759H39.8753C42.497 15.7759 44.6297 13.6509 44.6297 11.0286V5.02221C44.6297 2.39192 42.505 0.266846 39.8753 0.266846Z" fill="#B9B9B9"/>
<path d="M108.996 10.2427C108.996 11.638 107.865 12.7768 106.462 12.7768H106.182C104.786 12.7768 103.648 11.638 103.648 10.2427V3.27403H106.462C107.865 3.27403 108.996 4.40474 108.996 5.80809V10.2427ZM107.248 0.266846H101.267C100.922 0.266846 100.642 0.547517 100.642 0.892341V11.0286C100.642 13.6509 102.766 15.7759 105.388 15.7759H107.248C109.87 15.7759 111.994 13.6509 111.994 11.0286V5.02221C111.994 2.39995 109.87 0.274865 107.248 0.274865" fill="#B9B9B9"/>
<path d="M30.6867 9.28831C30.2298 8.4463 29.3238 7.54814 27.608 6.9868C27.6962 6.9868 25.6277 6.38534 23.7275 5.80798C23.0219 5.59146 22.7574 5.03814 22.7894 4.50086C22.8456 3.61073 23.5592 3.25789 24.5774 3.25789H28.3216C29.1875 3.25789 29.885 2.5522 29.885 1.69415V0.715807C29.885 0.459193 29.6765 0.242676 29.412 0.242676H24.0642C21.683 0.242676 19.7588 2.1753 19.7588 4.54897C19.7588 4.54897 19.7588 4.82162 19.7588 4.82964C19.863 6.73021 20.761 8.05333 23.2465 8.81518C25.2428 9.42462 25.9484 9.56898 27.0548 10.0581C27.6 10.2987 27.8726 10.5072 28.0169 10.836C28.1853 11.1969 28.1051 11.7823 27.9287 12.095C27.8084 12.3035 27.4637 12.6884 26.9345 12.7606C26.8704 12.7606 21.6349 12.7766 21.6349 12.7766C20.769 12.7766 20.0715 13.4823 20.0715 14.3404V15.7758H26.8223C29.2035 15.7758 31.1278 13.8512 31.1278 11.4695C31.1278 11.4695 31.1999 10.2426 30.6707 9.27227" fill="#B9B9B9"/>
</g>
<defs>
<clipPath id="clip0_197_994">
<rect width="112" height="15.6252" fill="white" transform="translate(0 0.1875)"/>
</clipPath>
</defs>
</svg>
