<svg width="110" height="30" viewBox="0 0 110 30" fill="none" xmlns="http://www.w3.org/2000/svg">
<path d="M44.0397 29.2234H38.195V2.19346H44.0397V29.2234ZM90.8244 9.49591H84.9797V21.3488C84.9797 23.624 85.2522 25.3542 85.8108 26.5259C86.8053 28.6512 88.7263 30 91.601 30C92.5955 30 93.4675 29.8638 94.2168 29.5913C94.9525 29.3188 95.5383 29.0191 96.3966 28.2153C96.4375 28.188 96.6146 27.9837 96.6827 27.9155C96.6827 28.6512 96.6691 29.2507 96.6691 29.2507H102.514V9.49591H96.6691V20.1771C96.6691 21.4578 96.6963 22.6431 96.3694 23.4332C95.729 24.8774 94.8299 25.3542 93.413 25.3542C92.3775 25.3542 91.5601 25.0409 91.0969 24.0327C90.838 23.4605 90.8108 22.4796 90.8108 21.3488V9.49591H90.8244ZM109.816 29.2507V2.28883H103.985V29.2507H109.816ZM34.9116 12.7384C35.7563 13.9237 36.3149 15.3134 36.5601 16.8665C36.71 17.7657 36.7645 19.0872 36.7372 20.7902V21.1989H22.0097C22.1323 22.97 22.7999 24.0191 24.0124 24.7411C24.789 25.2044 25.729 25.4496 26.8326 25.4496C27.9906 25.4496 28.9307 25.1635 29.6527 24.5913C30.007 24.3188 30.3067 23.8965 30.5928 23.4196C32.5955 23.4196 36.4647 23.4196 36.4647 23.4196C36.3149 24.6185 35.6337 25.8447 34.4484 27.0708C32.6091 29.0054 29.9933 29.9864 26.6963 29.9864C23.9715 29.9864 21.5329 29.1689 19.4484 27.5341C17.3503 25.8992 16.2876 23.2016 16.2876 19.5368C16.2876 16.1035 17.2413 13.4332 19.135 11.594C21.0288 9.75477 23.5083 8.82834 26.5056 8.82834C28.2903 8.82834 29.9116 9.14169 31.3421 9.76839C32.7726 10.3951 33.9715 11.3896 34.9116 12.7384ZM22.1596 17.6294H30.8244C30.7427 16.2534 30.2522 15.0954 29.5029 14.4687C28.6991 13.8011 27.6909 13.4605 26.492 13.4605C25.1977 13.4605 24.1759 13.8147 23.4675 14.5232C22.7999 15.1771 22.2277 16.3215 22.1596 17.6294ZM81.9007 19.3324C80.8244 18.3379 79.2032 17.5886 77.0642 17.1117C73.9307 16.4441 72.0914 15.9809 71.5873 15.7084C71.1378 15.4768 70.9198 15.1226 70.9198 14.6049C70.9198 14.1962 71.1378 13.8556 71.5737 13.5422C72.0233 13.2153 72.8135 13.0654 73.9171 13.0654C75.2522 13.0654 76.1923 13.3924 76.7372 14.0327C77.0233 14.3869 77.2004 14.8774 77.2685 15.4905L77.2822 15.6676H82.9906L82.9634 15.4496C82.7181 12.9973 81.7645 11.2534 80.1296 10.2452C78.5083 9.25068 76.3966 8.74659 73.8353 8.74659C71.0969 8.74659 68.8762 9.44142 67.3912 10.7493C65.9334 12.0436 65.2113 13.6104 65.2113 15.5586C65.2113 17.139 65.7154 18.3787 66.6963 19.2234C67.6909 20.0954 69.3939 20.6267 71.6555 21.1717C75.5928 22.0708 76.8053 22.4932 77.1323 22.6975C77.5546 22.9564 77.7726 23.3651 77.7726 23.8828C77.7726 24.4142 77.4865 24.8365 76.9688 25.0954C76.383 25.3815 75.5792 25.5177 74.571 25.5177C72.8544 25.5177 71.6827 25.1907 71.0696 24.5504C70.7154 24.1826 70.4974 23.624 70.4021 22.8065L70.3748 22.6294H64.6255V22.8338C64.6255 24.891 65.4157 26.6213 66.9688 27.9564C68.522 29.2779 70.947 29.9591 74.1623 29.9591C77.323 29.9591 79.6936 29.3188 81.2195 28.0654C82.759 26.7984 83.5356 25.1499 83.5356 23.1608C83.522 21.6349 82.977 20.3542 81.9007 19.3324ZM61.0424 10.0681C62.8544 11.0627 63.7263 12.6975 63.7263 15.0817V20.7493V29.2916H58.0724V27.4251C57.4457 27.9973 56.7645 28.5014 56.0151 28.9237C54.8435 29.5777 53.5083 29.9046 52.0506 29.9046C50.1705 29.9046 48.6037 29.3733 47.3775 28.3379C46.1378 27.2888 45.5111 25.7902 45.5111 23.8692C45.5111 21.3896 46.5192 19.564 48.5083 18.4469C49.5846 17.8474 51.1786 17.4114 53.2359 17.1662L55.0478 16.9482C56.0015 16.8256 56.6963 16.6894 57.0914 16.5123C57.7726 16.2262 58.0996 15.8174 58.0996 15.2316C58.0996 14.4959 57.7318 13.951 57.2141 13.6785C56.6691 13.3924 55.947 13.297 54.8707 13.297C53.6718 13.297 52.8271 13.5831 52.3367 14.1281C51.9824 14.5368 51.7508 15.109 51.6282 15.8311L51.601 15.9945H46.1241L46.1378 15.7766C46.2467 14.0191 46.7645 12.5613 47.6636 11.4305C49.0942 9.6594 51.5737 8.76022 55.0342 8.76022C57.4865 8.76022 59.4484 9.19619 61.0424 10.0681ZM58.086 21.4305V19.9728C57.8408 20.109 57.5819 20.218 57.3367 20.3134C56.9824 20.436 56.492 20.5586 55.8925 20.6676L54.6936 20.8856C53.5901 21.0763 52.7999 21.3079 52.3367 21.5668C51.5737 22.0027 51.1923 22.5477 51.1923 23.4605C51.1923 24.2643 51.4239 24.782 51.8735 25.1362C52.3367 25.5041 52.9225 25.6812 53.6037 25.6812C54.7072 25.6812 55.7427 25.3678 56.6691 24.7411C57.5683 24.1417 58.0451 23.079 58.086 21.4305ZM14.8162 0V5.84469H8.95792V0H0.184082V5.85831H8.95792V29.2643H14.8162V5.85831H23.5765V0H14.8162Z" fill="#B9B9B9"/>
</svg>
