<svg width="84" height="30" viewBox="0 0 84 30" fill="none" xmlns="http://www.w3.org/2000/svg">
<g clip-path="url(#clip0_197_787)">
<path d="M61.14 11.4667H58.2637V21.2854C58.2637 21.4729 58.115 21.6214 57.9266 21.6214H55.709C55.5206 21.6214 55.3719 21.4729 55.3719 21.2854V11.4667H52.4796C52.2917 11.4667 52.1426 11.3338 52.1426 11.1464V9.41234C52.1426 9.22484 52.2917 9.09204 52.4796 9.09204H61.14C61.3284 9.09204 61.493 9.22484 61.493 9.41234V11.1464C61.5008 11.3338 61.3284 11.4667 61.14 11.4667Z" fill="#B9B9B9"/>
<path d="M70.3727 21.559C69.777 21.6449 68.7818 21.7778 66.9555 21.7778C64.7688 21.7778 62.8408 21.2232 62.8408 18.1533V12.5526C62.8408 9.48281 64.7848 8.94385 66.9714 8.94385C68.7973 8.94385 69.777 9.07661 70.3727 9.16255C70.6076 9.1938 70.7098 9.27971 70.7098 9.49846V11.0685C70.7098 11.256 70.5606 11.4044 70.3727 11.4044H66.8068C66.0072 11.4044 65.7249 11.6778 65.7249 12.5526V14.0915H70.2395C70.4275 14.0915 70.5766 14.2398 70.5766 14.4273V16.0286C70.5766 16.2162 70.4275 16.3645 70.2395 16.3645H65.7249V18.1533C65.7249 19.0282 66.015 19.3016 66.8068 19.3016H70.3727C70.5606 19.3016 70.7098 19.45 70.7098 19.6374V21.2076C70.7175 21.4185 70.6158 21.5201 70.3727 21.559Z" fill="#B9B9B9"/>
<path d="M83.1481 21.6218H80.4598C80.2404 21.6218 80.1387 21.5515 80.021 21.3719L77.6852 17.6772L75.5693 21.286C75.4516 21.4891 75.3339 21.6218 75.146 21.6218H72.6382C72.4654 21.6218 72.3874 21.5202 72.3874 21.4032C72.3874 21.3719 72.4029 21.3171 72.4184 21.286L76.0865 15.1932L72.3792 9.40493C72.3637 9.37377 72.3481 9.33467 72.3481 9.30338C72.3481 9.18627 72.4654 9.08472 72.599 9.08472H75.3262C75.5145 9.08472 75.6477 9.25657 75.7494 9.40493L77.9128 12.8107L80.005 9.40493C80.0912 9.25657 80.2404 9.08472 80.4283 9.08472H82.9365C83.0697 9.08472 83.1874 9.18627 83.1874 9.30338C83.1874 9.33467 83.1714 9.37377 83.1559 9.40493L79.4723 15.2322L83.3124 21.286C83.3438 21.3563 83.3598 21.4032 83.3598 21.4578C83.3675 21.5593 83.2891 21.6218 83.1481 21.6218Z" fill="#B9B9B9"/>
<path d="M48.0832 9.12332C47.9578 9.12332 47.8561 9.20923 47.8246 9.33427L45.3638 18.4031C45.3324 18.5906 45.2776 18.6531 45.1285 18.6531C44.9798 18.6531 44.925 18.5828 44.8936 18.4031L42.4325 9.33427C42.4091 9.21703 42.2994 9.12332 42.174 9.12332H39.7522C39.5877 9.12332 39.4622 9.27953 39.5013 9.4435C39.5013 9.4435 42.5032 19.8404 42.5344 19.942C42.9341 21.1839 43.9061 21.7697 45.1444 21.7697C46.3199 21.7697 47.3544 21.1527 47.7543 19.942C47.8013 19.8013 50.7401 9.43582 50.7401 9.43582C50.7794 9.27173 50.6539 9.11548 50.4893 9.11548H48.0832V9.12332Z" fill="#B9B9B9"/>
<path d="M33.1831 0H6.88857C4.85085 0 3.542 2.16373 4.49816 3.95252L7.13155 8.91269H2.35855C1.03403 8.91269 0.187586 10.3109 0.806748 11.4748L9.26331 27.4254C9.92163 28.6674 11.7007 28.6674 12.3591 27.4254L14.6555 23.1136L17.5396 28.5502C18.5506 30.464 21.3016 30.464 22.3205 28.5581L35.5029 3.85878C36.4356 2.10906 35.166 0 33.1831 0ZM21.3721 10.5609L15.69 21.2233C15.2511 22.0435 14.0677 22.0435 13.6287 21.2233L8.0015 10.6077C7.59396 9.83442 8.15038 8.90485 9.03603 8.90485H20.3768C21.2233 8.89705 21.7718 9.81097 21.3721 10.5609Z" fill="#B9B9B9"/>
</g>
<defs>
<clipPath id="clip0_197_787">
<rect width="82.8017" height="30" fill="white" transform="translate(0.599121)"/>
</clipPath>
</defs>
</svg>
