<svg width="81" height="31" viewBox="0 0 81 31" fill="none" xmlns="http://www.w3.org/2000/svg">
<rect width="81" height="30" transform="translate(0 0.246826)" fill="white"/>
<mask id="mask0_218_1664" style="mask-type:luminance" maskUnits="userSpaceOnUse" x="0" y="10" width="81" height="12">
<path d="M81 10.2468H0V21.053H81V10.2468Z" fill="white"/>
</mask>
<g mask="url(#mask0_218_1664)">
<path fill-rule="evenodd" clip-rule="evenodd" d="M1.82067 21.0513L2.89277 18.3924L6.83906 18.3957L7.90311 21.0494H9.72629L5.3957 10.2654H4.35421L3.25449 12.6644L1.06205 18.2744L0 21.0513H1.82067ZM3.59712 16.6634L4.89329 13.396L6.1382 16.6624V16.6634H3.59712Z" fill="#2E2723"/>
<path fill-rule="evenodd" clip-rule="evenodd" d="M79.3791 21.0516H81.0004L80.9903 10.2656H79.3378L79.3791 21.0516Z" fill="#2E2723"/>
<path fill-rule="evenodd" clip-rule="evenodd" d="M53.9605 10.2656H52.332V21.053H58.7669L58.7564 19.4554H53.9605V10.2656Z" fill="#2E2723"/>
<path fill-rule="evenodd" clip-rule="evenodd" d="M46.6503 14.397H42.7143V11.958H47.462V10.2656H40.9336V21.0516L47.462 21.0366V19.4309H42.7143V16.0345H46.6503V14.397Z" fill="#2E2723"/>
<path fill-rule="evenodd" clip-rule="evenodd" d="M14.5996 21.0516H16.2916V13.777L22.7348 21.0511H23.6501V10.2671H21.9214V17.5671L15.6475 10.2656H14.581C14.5207 11.0955 14.5649 20.9818 14.599 21.0511" fill="#2E2723"/>
<path fill-rule="evenodd" clip-rule="evenodd" d="M34.1387 12.6877L35.3806 11.5927C34.5693 10.7291 33.1887 10.2468 32.1327 10.2468C30.4009 10.2468 28.8284 11.4175 28.6355 12.8466C28.5069 13.8001 28.9134 14.6357 29.3841 15.105C31.0756 16.7926 32.522 15.9609 33.6976 16.8648C33.9232 17.0386 34.2563 17.3572 34.3417 17.7567C34.5994 18.9587 32.193 20.0595 30.422 18.8759C30.003 18.5957 30.0171 18.4301 29.7664 18.0427L28.2467 18.8253C28.4311 19.5546 29.4288 20.3194 30.1156 20.6309C31.039 21.0491 32.2156 21.1738 33.3183 20.9225C35.7182 20.3752 36.93 18.0922 35.4173 16.1375C34.6512 15.1474 33.4952 14.8326 32.2779 14.6646C29.8352 14.3277 29.9438 12.5063 31.4509 12.0321C32.5954 11.5931 33.3595 12.164 34.1382 12.6887" fill="#2E2723"/>
<path fill-rule="evenodd" clip-rule="evenodd" d="M69.0513 18.4499H69.4331L72.7308 14.0471L72.73 21.0516H74.4669L74.4681 10.2656H73.3675L69.0513 16.2227L64.7351 10.2656H63.6344L63.6361 21.0516H65.3733L65.3717 14.0471L68.6695 18.4499H69.0513Z" fill="#2E2723"/>
</g>
</svg>
