<svg width="81" height="25" viewBox="0 0 81 25" fill="none" xmlns="http://www.w3.org/2000/svg">
<g clip-path="url(#clip0_218_939)">
<path d="M60.7454 0.309305C60.329 0.389355 59.9333 0.61578 59.5493 0.988583C59.1654 1.36138 58.9731 1.63584 58.4335 2.60329L58.1247 3.15449L57.7589 3.21624C57.2948 3.294 56.8169 3.34889 56.6131 3.34889C56.3089 3.3466 56.0187 3.25283 55.8428 3.09731C55.7398 3.00811 55.6255 2.78855 55.6048 2.63989C55.582 2.49122 55.5365 2.45234 55.4449 2.50266C55.3555 2.55297 55.266 2.69477 55.2045 2.88003C55.1614 3.0104 55.1521 3.08816 55.1542 3.29172C55.1542 3.64164 55.2483 3.94812 55.4264 4.19741L55.504 4.3072L55.4356 4.28204C55.3238 4.24316 55.1635 4.12194 55.0905 4.01902C55.0513 3.96641 55.0011 3.85892 54.9779 3.77887L54.9349 3.63479L54.9488 3.80403C54.9669 4.04418 55.0285 4.19512 55.1796 4.35751C55.3306 4.51989 55.5749 4.64797 55.8609 4.71429C56.0874 4.76462 56.8076 4.77149 57.1025 4.72572C57.2079 4.70973 57.2991 4.70058 57.3037 4.70518C57.3105 4.70973 57.2054 4.94303 57.0729 5.22206C56.6932 6.02252 56.4899 6.52114 56.2773 7.18441C56.0419 7.9094 55.8516 8.72362 55.7672 9.38002L55.7284 9.68423L55.5411 9.91753C54.5645 11.148 53.3317 12.0331 52.5315 12.0812C52.4218 12.0857 52.296 12.0857 52.248 12.0765C52.0585 12.0399 51.8459 11.7312 51.8387 11.4842L51.8366 11.3698L51.9552 11.3309C53.0828 10.9422 54.3219 9.7368 55.0057 8.35769C55.1728 8.02377 55.3032 7.68754 55.3694 7.43142L55.4103 7.27132L55.4264 7.3605C55.4517 7.4863 55.4242 7.79048 55.3694 8.00318C55.3213 8.18843 55.1382 8.59782 55.0488 8.72362C55.0218 8.76248 55.0058 8.79222 55.015 8.79222C55.0403 8.79222 55.3078 8.36456 55.3947 8.18387C55.4424 8.08094 55.5112 7.90712 55.5458 7.79507C55.6027 7.60751 55.6073 7.56178 55.6073 7.17981C55.6095 6.71782 55.5913 6.61492 55.4377 6.28784C55.1842 5.7389 54.6898 5.37528 54.0865 5.29293C53.8511 5.26091 53.6224 5.27694 53.3271 5.35242C53.0508 5.42101 52.9044 5.48505 52.6639 5.64288C51.7219 6.25582 50.7136 7.57549 50.2175 8.83799C50.0048 9.38002 49.8353 10.0936 49.8353 10.4527C49.8353 10.6288 49.8264 10.6334 49.6045 10.5876C49.4994 10.567 49.3391 10.519 49.2476 10.4801C49.1565 10.4435 49.0721 10.4184 49.0582 10.4275C49.0168 10.4527 49.0328 10.5625 49.1037 10.7111C49.1999 10.9124 49.4239 11.1319 49.6572 11.2486C49.7555 11.2989 49.831 11.3424 49.8285 11.347C49.8239 11.3515 49.742 11.3333 49.6458 11.3104C49.4353 11.2555 49.2476 11.1663 49.1265 11.0611C49.0147 10.9673 49.0101 10.9765 49.1151 11.1022C49.2822 11.3035 49.5134 11.4521 49.7897 11.5368L49.9133 11.5757L50.0302 11.9164C50.398 12.9868 50.9903 13.5815 51.8273 13.7118C52.0467 13.7462 52.4673 13.7233 52.7053 13.6661C53.4305 13.49 54.2375 12.9983 54.9463 12.3053L55.1977 12.0606L55.0032 12.2252C54.5805 12.582 54.089 12.8954 53.6768 13.0669C53.4735 13.1515 53.0871 13.275 53.0276 13.275C53.0137 13.275 53.1098 13.2178 53.2402 13.1492C54.0291 12.733 54.8092 12.0331 55.4791 11.1434L55.6622 10.8964L55.6782 11.0976C55.7398 11.9691 55.9136 12.5866 56.2267 13.06C56.446 13.3894 56.7388 13.6158 57.0502 13.6981C57.2442 13.7484 57.3037 13.7393 57.1438 13.6844C56.9291 13.6112 56.7595 13.474 56.5903 13.2407L56.5241 13.1492L56.611 13.2133C56.7435 13.3116 56.9721 13.4123 57.1278 13.4374C57.4455 13.4877 57.7863 13.3505 57.8867 13.1286C57.9644 12.9571 57.9353 12.9045 57.734 12.8633C57.5737 12.829 57.4412 12.7169 57.3404 12.5271C57.2265 12.3098 57.1965 12.1726 57.1826 11.8227C57.1417 10.7569 57.6146 9.0118 58.5136 6.90538C58.8064 6.22152 59.1401 5.51024 59.3502 5.1214C59.4397 4.95674 59.5126 4.8012 59.5126 4.77149C59.5152 4.6937 59.4278 4.61367 59.2363 4.51989L59.0667 4.43756L59.2701 4.39639C60.1003 4.23172 60.9078 4.0396 61.6828 3.82004C63.2332 3.37862 64.063 3.29172 64.5089 3.51585C64.7924 3.65994 64.9527 3.84749 65.0004 4.0945C65.0582 4.3964 65.1451 4.35523 65.4649 3.87493C65.7049 3.51585 65.8353 3.21624 65.9471 2.76567L65.9631 2.69706L65.9931 2.78855C66.0551 2.98752 66.007 3.36719 65.888 3.59819C65.8631 3.65079 65.8471 3.69196 65.8538 3.69196C65.8834 3.69196 66.0732 3.25512 66.1188 3.08587C66.185 2.82971 66.185 2.4775 66.1188 2.27166C65.9408 1.71131 65.3961 1.41856 64.6005 1.45744C63.9491 1.48718 63.2947 1.66328 61.3651 2.33112C61.1204 2.41346 60.9171 2.4775 60.9099 2.47292C60.8711 2.43175 61.2436 1.84626 61.4562 1.62211C61.7081 1.35223 61.8726 1.29277 62.0076 1.42314C62.1654 1.57637 62.2797 1.48718 62.2316 1.24931C62.1721 0.949699 61.8612 0.544879 61.5887 0.414513C61.3377 0.293296 61.0217 0.254414 60.7454 0.309305ZM53.9996 7.49314C54.1527 8.06035 53.4279 9.28623 52.5568 9.93811C52.3488 10.0959 52.0379 10.2857 52.01 10.2743C51.9805 10.2652 52.1087 9.95638 52.2914 9.59505C52.607 8.96835 53.1352 8.19071 53.5305 7.76533C53.7068 7.57777 53.9127 7.39708 53.954 7.39708C53.9629 7.39708 53.9835 7.44053 53.9996 7.49314Z" fill="#80CFD7"/>
<path d="M50.8414 0.675273C50.2352 0.833084 49.6273 1.32482 48.9894 2.17105C48.3287 3.05159 47.8849 3.95958 46.6066 7.05403C46.0464 8.41032 45.8726 8.81059 45.5068 9.60422C45.2026 10.2652 45.1065 10.4619 45.0904 10.4619C45.0862 10.4619 44.9647 10.3864 44.8229 10.2926C43.5881 9.48526 42.2504 9.00039 40.7916 8.83346C40.4533 8.79456 39.3579 8.79456 39.0081 8.83346C37.1902 9.03469 35.5369 9.74146 34.1398 10.917C33.8836 11.132 33.9179 11.164 33.8516 10.6448C33.7076 9.49445 33.7373 8.43546 33.9316 7.69904C34.1283 6.95341 34.4462 6.46623 34.9469 6.14379C35.1665 5.99972 35.354 5.9448 35.6124 5.9448C35.8685 5.9448 35.937 5.97222 36.0949 6.14147C36.2206 6.27647 36.3098 6.29242 36.3898 6.1918C36.4493 6.11637 36.4401 6.0363 36.3441 5.82815C36.1886 5.48508 35.8227 5.07797 35.4752 4.8607L35.2808 4.7395L35.3906 4.75321C35.5438 4.77152 35.7976 4.86298 35.9485 4.95444C36.0194 4.99566 36.1589 5.10771 36.2595 5.20145L36.4447 5.37303L36.3395 5.23579C36.216 5.07341 35.9394 4.80582 35.7861 4.7006C35.6307 4.59311 35.2854 4.4353 35.0978 4.38728C34.8554 4.32323 34.4027 4.33009 34.1512 4.39642C33.2388 4.64344 32.4133 5.51942 32.0383 6.64237C31.9423 6.93055 31.8531 7.34226 31.8142 7.67161C31.7799 7.98722 31.7799 8.70766 31.8165 9.06676L31.8439 9.35262L31.7593 9.69569C31.398 11.1503 30.6777 12.4974 29.7837 13.3894C29.4429 13.7279 29.1708 13.9154 29.0176 13.9154C28.6609 13.9154 29.0016 12.3762 29.7036 10.8164C29.978 10.2057 30.273 9.66827 30.6183 9.13991C30.7372 8.9615 30.8332 8.80372 30.8332 8.79001C30.8332 8.77853 30.808 8.72824 30.7783 8.68023C30.4948 8.23423 29.9049 7.8294 29.5298 7.82712C29.2509 7.8248 29.1045 7.96208 28.821 8.50178L28.7135 8.7031L28.654 8.61387C28.5282 8.42175 28.1167 8.17702 27.7576 8.08096C27.5107 8.01464 27.074 8.01009 26.843 8.06957C26.4062 8.18622 25.9923 8.44694 25.5647 8.87459C24.6455 9.79175 23.8749 11.2944 23.6417 12.6232C23.5342 13.2361 23.5914 14.0778 23.7789 14.6358C24.0167 15.3472 24.4328 15.7108 25.0388 15.7405C25.5739 15.7657 26.0061 15.5667 26.5114 15.0567C26.6189 14.9492 26.7561 14.7959 26.8201 14.7136L26.9322 14.5673L26.747 14.7411C26.5572 14.9241 26.3079 15.1024 26.1113 15.2008C25.8872 15.3151 25.8872 15.2968 26.1158 15.0659C26.5549 14.629 27.0145 13.9749 27.3484 13.3185L27.4375 13.1446V13.6501C27.4398 14.087 27.4467 14.1853 27.4879 14.366C27.5976 14.8302 27.76 15.1024 28.0343 15.2854C28.2905 15.4593 28.4574 15.5027 28.8049 15.4867C29.0908 15.4752 29.2691 15.4318 29.4978 15.3151C29.731 15.1962 30.2113 14.764 30.4445 14.4644C30.52 14.366 30.5154 14.3683 30.3645 14.5055C30.0443 14.7983 29.7173 14.9949 29.4704 15.0476C29.3355 15.075 29.2691 15.0773 29.3035 15.0521C30.2913 14.3019 31.1808 13.0623 31.7433 11.6489C31.8622 11.3515 32.0314 10.8415 32.0589 10.702C32.0657 10.6585 32.0795 10.622 32.0886 10.622C32.0978 10.622 32.1229 10.702 32.1458 10.798C32.1915 10.9994 32.4453 11.7884 32.562 12.0926C32.6054 12.2047 32.6397 12.3076 32.6397 12.3236C32.6397 12.3373 32.5528 12.4631 32.4453 12.6003C31.7753 13.4603 31.2105 14.5215 30.959 15.3861C30.7235 16.1957 30.7029 17.0053 30.9041 17.6091C31.0802 18.1352 31.3592 18.4462 31.8965 18.7184C32.2121 18.8785 32.3561 18.9105 32.7197 18.9082C33.0467 18.9082 33.2319 18.8739 33.5315 18.7664C33.9133 18.6246 34.2061 18.4302 34.5284 18.0963C34.963 17.6457 35.2602 17.0739 35.4089 16.4038C35.4637 16.1568 35.4912 15.4547 35.4569 15.2305C35.4363 15.1024 35.434 15.1139 35.4317 15.3792C35.4248 16.0425 35.2305 16.66 34.8646 17.1677C34.7938 17.2661 34.732 17.3461 34.7274 17.3461C34.7229 17.3461 34.7663 17.2523 34.8257 17.138C35.0521 16.6851 35.1436 16.2895 35.1413 15.7566C35.139 15.3403 35.0933 15.0681 34.9149 14.4415C34.8006 14.0389 34.1969 12.2779 34.1535 12.2229C34.142 12.2092 34.0643 12.2984 33.6115 12.8405C33.1062 13.4466 33.0582 13.5198 33.3852 13.2018C33.6412 12.9502 33.9614 12.6689 34.1146 12.5592C34.1535 12.5317 34.0666 12.6369 33.9225 12.7947C33.6687 13.076 33.3417 13.4694 33.2228 13.641L33.1633 13.7279L33.2136 14.0229C33.2845 14.4231 33.2845 15.0407 33.2159 15.425C33.097 16.0791 32.9003 16.5434 32.6077 16.8612C32.443 17.0374 32.3218 17.1243 32.1641 17.1746C32.0086 17.2249 31.908 17.2066 31.7913 17.1014C31.533 16.8681 31.4232 16.2895 31.5284 15.6994C31.6976 14.7433 32.5116 13.3368 33.4743 12.3396C34.7869 10.9787 36.2869 10.0868 37.7778 9.77804C38.0819 9.71627 38.1391 9.71855 37.915 9.78715C37.0598 10.0502 36.2023 10.5259 35.3105 11.2349C35.1733 11.3424 35.0636 11.4339 35.0636 11.4362C35.0636 11.4408 35.1939 11.3584 35.3562 11.2555C36.3852 10.5968 37.3296 10.1805 38.1414 10.0296C38.4021 9.97927 38.7474 9.93582 38.8777 9.93582H38.9555L38.8091 10.0433C38.3197 10.4093 37.8579 10.9787 37.5675 11.5757C37.2313 12.2572 37.0941 12.948 37.0941 13.9291C37.0964 14.7159 37.1947 15.2877 37.4348 15.8938C38.0751 17.5177 39.534 18.5011 41.0775 18.3524C42.0562 18.2587 42.9891 17.8035 43.7986 17.0282L43.9703 16.8636L43.7733 17.0328C43.1287 17.5931 42.5022 17.9202 41.7726 18.0826C41.4617 18.1512 40.7962 18.1558 40.5058 18.0917C40.1537 18.0162 39.7192 17.8356 39.4425 17.6549C39.3396 17.5863 39.3442 17.5885 39.6209 17.7006C40.14 17.9156 40.7025 17.9842 41.2832 17.9088C42.6802 17.7212 43.9611 16.7812 45.0427 15.1436C45.2849 14.7754 45.5823 14.2768 45.5823 14.2379C45.5823 14.2173 44.99 13.7462 44.7019 13.538C44.601 13.4648 44.5099 13.3962 44.496 13.3825C44.4846 13.3711 44.7521 13.5015 45.0904 13.673C45.4313 13.8445 45.692 13.9703 45.6739 13.9543C45.6553 13.936 45.2917 13.6615 44.8689 13.346C44.1096 12.7833 44.0961 12.7742 44.064 12.8244C44.0454 12.8519 43.9311 13.044 43.8054 13.2522C43.3962 13.9383 43.0418 14.3957 42.5617 14.8646C42.0173 15.3952 41.5462 15.6834 40.9654 15.8412C40.8214 15.8824 40.7231 15.8892 40.3801 15.8915C39.9067 15.8938 39.7306 15.8595 39.3991 15.6994C38.8937 15.4569 38.489 14.9606 38.3358 14.4026C38.226 13.9978 38.2169 13.4854 38.3106 13.0212C38.5004 12.0857 39.175 11.3241 40.0713 11.0359C41.1141 10.6997 42.4107 11.0154 43.8535 11.9577C44.5555 12.4151 45.8498 13.4466 46.6687 14.199C48.9459 16.2963 51.2051 17.9522 52.9339 18.7984C54.4565 19.5417 55.6204 19.7705 56.6932 19.5394C57.7197 19.3153 58.5179 18.6726 58.9912 17.6892C59.1055 17.449 59.2819 16.971 59.2772 16.9047C59.2772 16.8887 59.238 16.9893 59.1878 17.1243C58.7786 18.2701 57.9416 19.0043 56.8211 19.1987C56.4578 19.2604 56.1946 19.2741 55.8837 19.2467C55.6183 19.2215 55.0859 19.1301 55.1036 19.114C55.1083 19.1095 55.1977 19.1164 55.3032 19.1301C55.6183 19.1689 56.1081 19.1598 56.4093 19.1072C57.4269 18.9334 58.2002 18.3753 58.6617 17.4811C59.1076 16.6188 59.2338 15.4478 58.9773 14.5673C58.9182 14.3614 58.8313 14.1693 58.7718 14.1053C58.7056 14.0344 58.6094 14.0367 58.5499 14.1121C58.509 14.1647 58.5022 14.2059 58.5022 14.3935C58.5022 14.8875 58.3187 15.3129 57.969 15.6468C57.0864 16.4862 55.4673 16.445 53.2541 15.5278C52.7875 15.3357 51.7767 14.8371 51.2304 14.5329C50.0251 13.8605 48.8135 13.0669 47.5213 12.1017L47.0024 11.7152L47.0547 11.5986C47.4732 10.6494 49.0691 7.41081 49.6205 6.3908C50.7322 4.3278 51.4679 3.2803 51.8041 3.2803C52.0741 3.2803 51.8227 3.78347 51.0085 4.87674C50.7022 5.28836 50.652 5.37758 50.7182 5.40045C50.7499 5.41188 51.2692 5.04367 51.562 4.80126C52.2775 4.20888 52.6892 3.66225 52.863 3.06989L52.92 2.88006V3.05159C52.9221 3.49072 52.7027 4.04649 52.3505 4.49249C52.248 4.62513 52.2593 4.61597 52.4538 4.41472C52.9381 3.91384 53.2014 3.3695 53.2356 2.78857C53.2837 1.9675 52.9044 1.23333 52.234 0.85824C51.8497 0.643251 51.2599 0.565489 50.8414 0.675273ZM27.9498 9.3549C28.0503 9.39607 28.2242 9.53791 28.2516 9.6019C28.2699 9.6408 28.247 9.72771 28.151 10.0045C27.625 11.5094 26.8819 12.8862 26.2324 13.5632C25.9809 13.8239 25.7888 13.9086 25.6334 13.8263C25.5373 13.7736 25.5053 13.6707 25.5053 13.4145C25.5053 12.781 25.8392 11.8593 26.4154 10.9079C26.7241 10.3956 27.122 9.88097 27.3232 9.72999C27.3804 9.68881 27.4215 9.64768 27.4147 9.64308C27.3987 9.62481 27.1471 9.77572 27.0008 9.89236C26.7653 10.0776 26.5846 10.2835 26.2531 10.7363C26.1592 10.8644 26.4359 10.3658 26.564 10.176C26.7584 9.88781 27.1425 9.50816 27.3346 9.41438C27.577 9.29545 27.76 9.27715 27.9498 9.3549ZM38.1666 9.72087C38.1597 9.72771 38.1391 9.72999 38.1232 9.72311C38.1048 9.71627 38.1117 9.7094 38.1369 9.7094C38.162 9.70712 38.1757 9.71395 38.1666 9.72087Z" fill="#80CFD7"/>
<path d="M74.2116 0.864766C73.7037 0.97226 73.2624 1.23299 72.8325 1.67898C71.8352 2.71047 71.5496 4.17423 71.9934 5.93763L72.0617 6.20523L71.9799 6.4751C71.7166 7.34872 71.2707 8.2682 70.7813 8.95206C70.3038 9.61988 69.7292 10.1642 69.4048 10.2557C69.2537 10.2991 69.1829 10.0933 69.2263 9.73653C69.3681 8.58608 70.1228 6.73582 70.9779 5.45045C71.0834 5.29035 71.1703 5.14624 71.1703 5.13025C71.1703 5.11194 71.1429 5.05705 71.1087 5.00676C70.8067 4.5516 70.2392 4.17194 69.8646 4.17194C69.5874 4.17194 69.4436 4.30917 69.1575 4.85122L69.0597 5.03874L68.9981 4.95184C68.8538 4.75516 68.4467 4.51503 68.0898 4.41895C67.8388 4.35262 67.4131 4.35262 67.157 4.42124C66.6449 4.55848 66.0825 4.97015 65.5632 5.58992C65.2957 5.90557 64.9207 6.48421 64.7059 6.90503C64.1022 8.09206 63.855 9.11216 63.9419 10.059C64.0427 11.1477 64.4359 11.8475 65.0443 12.0168C65.5088 12.1448 66.0458 12.0191 66.4938 11.6805C66.6811 11.5365 67.0515 11.1705 67.1887 10.9876C67.2595 10.8938 67.2532 10.8984 67.1093 11.0356C66.8735 11.2597 66.5786 11.4656 66.3681 11.5548C66.2998 11.5822 66.3175 11.5571 66.5052 11.3627C66.9191 10.935 67.3287 10.3518 67.6717 9.70223L67.7835 9.49176L67.7696 9.83259C67.7493 10.3975 67.8248 10.8389 68.0075 11.2117C68.1016 11.4038 68.1999 11.5113 68.4011 11.6463C68.6091 11.7835 68.7985 11.8384 69.0778 11.8384C69.4643 11.8406 69.7617 11.7332 70.1089 11.4701C70.2966 11.3306 70.6695 10.9601 70.8045 10.7817C70.8729 10.6925 70.859 10.6994 70.7084 10.8434C70.4042 11.1294 70.0334 11.3513 69.7777 11.3993C69.7089 11.4107 69.6499 11.4175 69.6452 11.413C69.6406 11.4084 69.7115 11.3444 69.8026 11.2712C70.8248 10.4478 71.7761 8.98635 72.2744 7.46537C72.3275 7.30759 72.3731 7.20009 72.3773 7.22296C72.3959 7.31674 72.6401 7.96626 72.8072 8.36649L72.9814 8.78508L72.7528 9.11439C71.5133 10.9007 71.0353 12.4628 71.3416 13.7253C71.5268 14.4914 72.0255 15.1159 72.6064 15.3102C73.3358 15.5526 74.2985 15.2325 74.955 14.5257C75.6173 13.8145 75.9763 12.7464 75.8852 11.7606C75.8692 11.5936 75.8417 11.3993 75.8236 11.3306L75.7915 11.2049L75.8008 11.3078C75.8485 11.8018 75.8299 12.0808 75.7299 12.4971C75.6726 12.728 75.5536 13.0597 75.5148 13.0986C75.5055 13.1101 75.5148 13.0528 75.538 12.9728C75.6519 12.5588 75.6591 11.9138 75.5511 11.4587C75.4734 11.1317 75.2815 10.5599 75.0967 10.1185C74.9659 9.80741 74.5407 8.86283 74.5204 8.84224C74.5019 8.8217 73.7657 9.88292 73.6286 10.1299C73.5484 10.2717 73.5758 10.2443 73.864 9.90119C74.1082 9.60617 74.5542 9.1327 74.401 9.32942C74.1129 9.69532 73.8112 10.1207 73.6307 10.4112C73.5691 10.5073 73.5691 10.5119 73.5961 10.6971C73.6374 10.9761 73.6307 11.7034 73.5847 12.0007C73.5092 12.4879 73.3814 12.8905 73.2101 13.1718C73.0063 13.5103 72.6747 13.7504 72.5009 13.6841C72.206 13.572 72.0571 12.9934 72.1647 12.369C72.2904 11.6394 72.757 10.6331 73.475 9.54897C73.7885 9.07326 73.9918 8.82393 74.3555 8.46488C75.6612 7.17267 77.2736 6.5483 78.4329 6.88221C78.7573 6.97823 78.9881 7.11091 79.288 7.37623C79.6099 7.66209 79.8251 7.73528 79.9989 7.61864C80.0584 7.57978 80.0883 7.53633 80.12 7.43111C80.1592 7.31214 80.1613 7.27557 80.1385 7.12234C80.0584 6.56884 79.5876 6.08394 78.8763 5.82782L78.7278 5.77293L78.8417 5.78436C79.2239 5.82782 79.7428 6.0291 79.9736 6.2235C80.0972 6.32639 80.0445 6.23721 79.9141 6.116C79.3357 5.58992 78.2587 5.38181 77.255 5.60368C76.1872 5.83925 75.2085 6.37672 74.3647 7.18866C74.2546 7.29388 74.161 7.37623 74.1568 7.37163C74.1475 7.3602 74.0467 6.82045 73.9965 6.51623C73.8728 5.77293 73.8433 4.89467 73.9235 4.41209C74.0239 3.79914 74.2276 3.34858 74.5613 2.9895C74.8014 2.73334 75.1077 2.53665 75.3709 2.46804C75.538 2.42458 75.6131 2.42458 75.7683 2.47033C75.8717 2.50006 75.9173 2.53208 76.0434 2.66473C76.1759 2.80196 76.2054 2.82254 76.2784 2.82254C76.3906 2.82254 76.4408 2.74478 76.4201 2.61212C76.3632 2.2622 75.9742 1.70871 75.5928 1.43655C75.43 1.3199 75.1676 1.19183 74.9887 1.1415L74.863 1.1072L75.0803 1.11635C75.4439 1.13007 75.7527 1.2673 76.059 1.54861C76.2168 1.69499 76.2143 1.68355 76.0434 1.47771C75.8346 1.22841 75.4713 0.992843 75.149 0.901356C74.9296 0.837319 74.4335 0.819022 74.2116 0.864766ZM68.3349 5.71577C68.3918 5.74547 68.4813 5.81411 68.5336 5.86899L68.6323 5.96733L68.4653 6.42477C67.9868 7.72841 67.4312 8.82625 66.876 9.55812C66.7157 9.76851 66.3909 10.0933 66.2884 10.1459C66.1002 10.2443 65.9454 10.2008 65.8745 10.0338C65.8057 9.87145 65.8492 9.39114 65.9703 8.96345C66.2631 7.93652 67.1933 6.39503 67.7632 5.9948C67.7949 5.97421 67.7586 5.98564 67.6831 6.02222C67.3882 6.16401 67.0608 6.46135 66.7727 6.84787C66.5672 7.1269 66.5554 7.13605 66.6309 6.98511C66.8436 6.55969 67.187 6.11368 67.4658 5.89874C67.7974 5.64485 68.0763 5.58537 68.3349 5.71577Z" fill="#80CFD7"/>
<path d="M25.4712 3.47655C25.0276 3.53144 24.6663 3.69612 24.2661 4.02775C23.9551 4.28619 23.6304 4.67729 23.2577 5.24678C22.1509 6.93926 21.2431 9.51455 21.0144 11.6164C20.971 12.0144 20.9321 12.5999 20.9321 12.8766V13.087L20.8018 13.254C20.1112 14.1506 19.2537 14.9145 18.5151 15.2896C18.0098 15.5457 17.5067 15.6303 17.2849 15.4931C17.1385 15.4016 16.9762 15.0928 16.9762 14.9007C16.9762 14.8458 16.9899 14.8344 17.0997 14.8001C17.1683 14.7772 17.3444 14.6994 17.4953 14.6262C18.5563 14.1025 19.5578 13.0481 20.1776 11.7994C20.3216 11.5066 20.5434 10.9189 20.5434 10.8205C20.5434 10.7999 20.5548 10.7816 20.5686 10.7816C20.6097 10.7816 20.5777 11.2642 20.5228 11.4792C20.4954 11.5798 20.4131 11.7857 20.3399 11.9366C20.1981 12.2225 20.2347 12.2065 20.4153 11.9023C20.5525 11.669 20.6509 11.438 20.7195 11.1727C20.7675 10.992 20.7766 10.8983 20.7789 10.6444C20.7812 10.1961 20.6897 9.86678 20.4771 9.5397C20.1455 9.03653 19.6082 8.74607 19.0091 8.74607C18.7941 8.74607 18.4168 8.81698 18.2293 8.89246C17.5479 9.16689 16.6332 10.0635 15.9929 11.0836C15.7985 11.3946 15.4533 12.083 15.3458 12.3758C15.0897 13.0733 14.9776 13.6474 14.9799 14.2695C14.9822 14.6812 15.0279 14.9305 15.1835 15.3833C15.5265 16.3759 16.0501 16.9477 16.7932 17.1421C17.0425 17.2085 17.4884 17.213 17.7651 17.1535C18.5357 16.9866 19.3406 16.5109 20.1089 15.7675L20.349 15.5366L20.1089 15.7332C19.6036 16.1518 18.9885 16.5063 18.5082 16.655C18.1424 16.7693 18.1058 16.7625 18.3596 16.6344C18.865 16.3782 19.3201 16.0329 19.846 15.5068C20.2324 15.1203 20.5457 14.7475 20.8132 14.3541L20.9756 14.1162L20.987 14.194C20.9939 14.2352 21.0167 14.3724 21.0351 14.4982C21.0556 14.624 21.1059 14.8641 21.1494 15.0311C21.4901 16.3302 22.2195 17.1078 23.0084 17.0117L23.1617 16.9935L22.9787 16.9774C22.8781 16.9683 22.7386 16.9409 22.6677 16.9134C22.4253 16.8219 22.112 16.5017 21.9154 16.1518L21.8422 16.0192L22.048 16.2227C22.3933 16.5635 22.718 16.687 23.0861 16.6138C23.34 16.5635 23.5595 16.4125 23.5984 16.257C23.6304 16.1358 23.5046 16.0192 23.3423 16.0192C23.1045 16.0192 22.8598 15.6372 22.7432 15.0814C22.6677 14.7246 22.6403 14.4319 22.6403 13.9607C22.6403 12.7577 22.8987 11.7742 23.5527 10.4843C24.0008 9.59686 24.5017 8.84445 25.4232 7.67113C26.3218 6.53215 26.5688 6.14335 26.706 5.66532C26.786 5.38857 26.7883 5.38857 26.7746 5.63786C26.7563 6.03358 26.6579 6.39492 26.4636 6.78372C26.4018 6.9072 26.3584 7.0079 26.363 7.0079C26.3698 7.0079 26.4316 6.92323 26.4979 6.81806C26.9026 6.19592 27.0833 5.5464 27.0147 4.96088C26.9849 4.6956 26.8752 4.35023 26.7609 4.15583C26.6602 3.98429 26.4179 3.74414 26.2601 3.65266C26.0451 3.53144 25.6884 3.45139 25.4712 3.47655ZM25.7364 5.77054C25.7821 5.80716 25.7913 5.83458 25.789 5.94891C25.789 6.17993 25.6518 6.41095 24.9933 7.30292C24.2615 8.29323 23.8202 8.95878 23.4086 9.69297C23.1868 10.0863 23.1799 10.0658 23.3491 9.53742C23.7196 8.38018 24.4559 6.92555 25.0618 6.15023C25.2082 5.96038 25.3683 5.79796 25.4483 5.75451C25.5238 5.71338 25.677 5.72249 25.7364 5.77054ZM19.1508 10.944C19.208 11.1475 19.1417 11.5044 18.9816 11.8428C18.6935 12.4489 18.2407 13.007 17.7194 13.4004C17.5364 13.5376 17.1912 13.7549 17.1568 13.7549C17.1157 13.7549 17.3421 13.2426 17.5547 12.8515C17.9755 12.0784 18.6317 11.2093 18.9976 10.9372C19.1005 10.864 19.1303 10.864 19.1508 10.944Z" fill="#80CFD7"/>
<path d="M11.3853 4.28883C10.4226 4.32999 9.37537 4.49695 8.48125 4.75539C6.42554 5.35006 4.68307 6.2649 3.23335 7.50909C2.92465 7.77669 2.32554 8.37364 2.07858 8.66638C0.964976 9.97689 0.278973 11.3903 0.0388734 12.8678C0.0114333 13.0371 0 13.2475 0 13.618C0 14.0914 0.00457334 14.1555 0.0617397 14.4254C0.173787 14.9537 0.352147 15.434 0.585385 15.8411C0.647127 15.9532 0.702008 16.0424 0.706582 16.0424C0.71115 16.0424 0.665419 15.9349 0.601391 15.8045C0.46648 15.5186 0.306414 15.0406 0.2401 14.7227C0.0434468 13.7735 0.201226 12.6757 0.695145 11.5207C0.830064 11.2097 1.03357 10.8186 1.21193 10.5281C1.35142 10.304 1.39715 10.2559 1.29197 10.4435C1.17763 10.6448 0.953543 11.1754 0.843784 11.4956C0.352147 12.9273 0.388734 14.1052 0.958112 15.2396C1.30111 15.9188 1.74244 16.3099 2.29353 16.422C2.61366 16.486 2.77601 16.4266 2.77601 16.2482C2.77601 16.1133 2.7097 16.0561 2.36899 15.8891C2.08087 15.7496 2.03971 15.7222 1.86135 15.5415C1.63954 15.3196 1.53206 15.1298 1.44975 14.8188C1.2691 14.1463 1.47261 13.0966 1.97111 12.1199C2.54506 10.997 3.56949 9.91973 4.91408 9.02772C5.87444 8.39191 7.03835 7.81099 8.23201 7.37418C8.44007 7.29643 8.61616 7.23694 8.61844 7.2415C8.623 7.2461 8.54757 7.37646 8.45378 7.53424C6.55358 10.6813 5.0444 13.5288 4.29663 15.3791C3.8416 16.4998 3.64266 17.2842 3.67696 17.8058C3.69068 18.023 3.77757 18.4278 3.82788 18.5056C3.84846 18.5399 3.85304 18.5399 3.8416 18.5079C3.8073 18.3912 3.77757 18.0687 3.78901 17.9086C3.82331 17.4238 4.0474 16.6896 4.45901 15.7222C4.70593 15.1344 5.31191 13.8376 5.32794 13.8535C5.3325 13.8581 5.24332 14.0686 5.13131 14.3225C4.66935 15.3653 4.27608 16.438 4.116 17.0853C3.88505 18.0299 3.96508 18.4416 4.49103 18.9698C4.79971 19.2809 5.23644 19.5554 5.63891 19.688C6.03222 19.8207 6.29062 19.7109 6.04597 19.5188C5.85845 19.3701 5.78753 19.0888 5.83786 18.6886C5.90646 18.1328 6.24261 17.0487 6.70224 15.8937C6.8097 15.6238 6.81425 15.6192 6.91719 15.5689C7.27844 15.3951 8.27774 15.1778 9.08719 15.0955C10.4958 14.9491 11.5728 15.1069 12.0279 15.5209C12.4692 15.9257 12.332 16.6096 11.6231 17.5198C11.399 17.8103 10.8 18.4187 10.4706 18.6932C9.09179 19.839 7.39737 20.7127 5.68008 21.1632C4.70593 21.4194 3.53519 21.5452 2.65939 21.488C1.98254 21.4446 1.56179 21.3576 1.20736 21.1884C0.756886 20.9711 0.585385 20.6555 0.683712 20.2163C0.715728 20.0723 0.718014 20.0288 0.692858 19.9739C0.63798 19.8367 0.484777 19.8207 0.379587 19.9396C0.276687 20.0586 0.251533 20.2004 0.26754 20.6143C0.31556 21.9729 0.937537 23.1507 1.86135 23.6333C2.22264 23.8232 2.6068 23.9078 3.13045 23.9123C3.37969 23.917 3.40485 23.9192 3.29052 23.9329C3.06642 23.9626 2.75772 23.9581 2.49475 23.9215C1.66012 23.8117 0.9261 23.4183 0.45962 22.8351L0.395593 22.7551L0.434468 22.8351C0.63798 23.256 1.14562 23.7156 1.66241 23.9535C2.16548 24.1868 2.49475 24.2554 3.17847 24.2691C3.90791 24.2852 4.45901 24.2372 5.31879 24.0793C7.63978 23.6585 9.8121 22.611 11.6597 21.0237C12.6293 20.1912 13.6263 18.9676 14.111 18.0161C14.2002 17.8423 14.3077 17.609 14.3488 17.4947C14.4151 17.3209 14.4266 17.3003 14.4334 17.3597C14.4426 17.4627 14.358 17.8629 14.2642 18.1442C14.1613 18.453 13.9121 18.963 13.72 19.2489C13.6377 19.3724 13.576 19.473 13.5805 19.473C13.5851 19.473 13.6628 19.3747 13.752 19.2558C14.1819 18.6817 14.5044 18.0391 14.6667 17.4238C14.7925 16.9458 14.8199 16.3626 14.7353 15.9486C14.6896 15.7268 14.5409 15.2876 14.4197 15.0246C14.0424 14.1967 13.1026 13.5769 11.9958 13.4259C11.6643 13.3802 11.024 13.3779 10.7245 13.4236C10.4592 13.4625 10.4592 13.4625 10.4592 13.4396C10.4592 13.4282 10.5187 13.3961 10.5918 13.3687C10.9394 13.2292 11.678 12.8061 12.1514 12.479C13.72 11.3903 15.0577 10.0044 15.7254 8.76932C15.9403 8.37136 16.1233 7.84305 16.1713 7.47707L16.1919 7.33988L16.2102 7.45189C16.2354 7.61199 16.2102 7.9848 16.1553 8.25699C16.0936 8.56121 15.9518 8.966 15.7848 9.31822C15.7117 9.47604 15.6659 9.58354 15.6865 9.55835C15.7711 9.44858 16.1599 8.61837 16.2422 8.36676C16.4 7.88874 16.4366 7.67147 16.4366 7.21408C16.4343 6.85498 16.4297 6.79094 16.3748 6.5851C16.2994 6.30607 16.089 5.86694 15.9221 5.6474C15.6683 5.30889 15.3115 5.02071 14.9274 4.84229C14.6735 4.72569 14.0104 4.5061 13.6971 4.43521C13.0248 4.28654 12.396 4.24537 11.3853 4.28883ZM12.7802 6.62172C13.3976 6.68344 13.7726 6.86873 13.9281 7.18661C14.0081 7.35359 14.0265 7.61663 13.9693 7.86587C13.9167 8.10377 13.7269 8.47654 13.5097 8.7716C13.3107 9.03687 12.7573 9.60408 12.4258 9.87855C11.7169 10.4664 10.7679 11.0953 9.6703 11.7083C9.1101 12.0216 8.32347 12.415 8.33946 12.3761C8.34633 12.3555 8.49728 12.0947 8.67105 11.7952C9.82808 9.81451 10.6239 8.36676 10.8343 7.86587C11.0835 7.26668 11.0217 7.10886 10.4547 6.90531L10.2466 6.83211L10.4043 6.80465C11.4082 6.62856 12.2268 6.56679 12.7802 6.62172Z" fill="#80CFD7"/>
<path d="M63.5884 4.74184C63.1678 4.89279 62.6307 5.46684 61.8642 6.58523C61.7363 6.77279 61.6355 6.90775 61.6448 6.88256C61.8279 6.36568 61.8258 5.90369 61.6402 5.56062C61.5693 5.42794 61.3427 5.21299 61.1896 5.12837C61.0297 5.04374 60.7597 4.97282 60.5909 4.97282C60.4694 4.97282 60.4446 4.9797 60.4214 5.02083C60.4007 5.06205 60.4053 5.08031 60.4446 5.13064C60.604 5.32732 60.6023 5.3388 59.9915 6.6699C59.454 7.84545 59.2237 8.4241 58.9604 9.24979C58.7908 9.78726 58.6811 10.2035 58.6128 10.5808C58.544 10.9582 58.5373 11.6741 58.6014 11.9028C58.709 12.2962 58.9169 12.5729 59.2144 12.7193C59.4177 12.82 59.4519 12.8131 59.3009 12.7056C59.1502 12.5958 59.0701 12.4952 58.9832 12.3077C58.8554 12.0332 58.8663 12.0218 59.0654 12.2184C59.173 12.3237 59.2962 12.4197 59.3717 12.4563C59.5957 12.5661 59.9185 12.5707 60.0256 12.4631C60.1125 12.3762 60.0986 12.2893 59.9801 12.1567C59.875 12.0378 59.829 11.928 59.829 11.7885C59.829 11.6947 60.067 10.9765 60.2522 10.5077C60.7664 9.20625 61.4752 7.91637 62.2278 6.90543C62.4725 6.57839 62.8476 6.13239 62.8657 6.14842C62.8703 6.15525 62.8341 6.25587 62.7834 6.37484C62.6737 6.631 62.548 7.02208 62.4911 7.28512C62.459 7.42235 62.4472 7.5733 62.4472 7.82031C62.4472 8.11305 62.4544 8.18624 62.4999 8.32804C62.5598 8.52248 62.7037 8.74198 62.8455 8.85863L62.9459 8.94098L62.8522 8.79691C62.7126 8.57964 62.6624 8.41266 62.651 8.1176L62.6417 7.86604L62.6877 8.02614C62.8294 8.50413 63.0851 8.79459 63.3142 8.73742C63.385 8.71916 63.3779 8.73514 63.5289 8.26631C63.6685 7.83402 63.8491 7.38806 64.2355 6.5052C64.5832 5.71616 64.6152 5.62466 64.6173 5.43941C64.6173 5.19468 64.4941 5.05057 64.055 4.78302C63.89 4.68464 63.7761 4.6732 63.5884 4.74184Z" fill="#80CFD7"/>
<path d="M46.7298 5.01874C46.3523 5.28634 45.6367 5.67514 45.1128 5.89924C44.5618 6.13486 43.91 6.32238 43.3477 6.40705C43 6.45734 42.3255 6.45734 42.0374 6.40473C41.5184 6.30867 41.141 6.12798 41.045 5.92215C41.0153 5.85811 40.9924 5.84208 40.9421 5.84208C40.8483 5.84208 40.8026 5.90616 40.8026 6.0388C40.8026 6.30179 40.9513 6.60828 41.2005 6.85985C41.4634 7.12521 41.763 7.30358 42.2204 7.46828C42.5085 7.57345 42.4537 7.58261 42.042 7.50026C41.6784 7.42482 41.3629 7.30358 41.1136 7.1366C40.8826 6.98337 40.7386 6.82787 40.6265 6.60828C40.5419 6.44135 40.5396 6.48248 40.6243 6.70435C40.8278 7.25097 41.4452 7.68778 42.2499 7.85476C42.7418 7.95769 43.4527 7.97141 44.0589 7.8891C44.4019 7.84332 45.0972 7.71069 45.3533 7.64433C45.5313 7.59632 45.5498 7.58493 45.5861 7.51173C45.6068 7.46828 45.7713 7.0634 45.9498 6.61516C46.1308 6.1646 46.2814 5.80094 46.2839 5.8055C46.2885 5.8101 46.1924 6.16004 46.0734 6.58542C45.9523 7.01084 45.8582 7.36074 45.8629 7.36534C45.8654 7.3699 46.1029 6.82099 46.389 6.14625C46.6725 5.46931 46.9032 4.91581 46.8986 4.91121C46.8965 4.90897 46.8188 4.95698 46.7298 5.01874Z" fill="#80CFD7"/>
<path d="M80.1495 8.65467C79.9525 8.71648 79.8086 8.94746 79.7631 9.26534C79.7171 9.60845 79.8154 9.96523 79.9917 10.0842C80.0921 10.1528 80.2571 10.1596 80.3803 10.1025C80.4925 10.0499 80.6549 9.8852 80.7486 9.7297L80.8215 9.60389L80.8106 9.764C80.7945 9.97894 80.7439 10.1185 80.6321 10.242C80.5132 10.3769 80.552 10.3769 80.7051 10.242C80.9177 10.0499 81.0164 9.77315 80.9979 9.41861C80.9819 9.09153 80.8447 8.8514 80.5908 8.71416C80.4625 8.64556 80.2613 8.6181 80.1495 8.65467Z" fill="#80CFD7"/>
<path d="M75.7683 11.1613C75.7683 11.1862 75.7751 11.1931 75.7818 11.1749C75.7886 11.159 75.7865 11.1386 75.7797 11.1317C75.7725 11.1227 75.7658 11.1362 75.7683 11.1613Z" fill="#80CFD7"/>
<path d="M59.3051 16.7424C59.3051 16.7673 59.3118 16.7741 59.3186 16.7559C59.3253 16.7401 59.3232 16.7196 59.3165 16.7128C59.3093 16.7037 59.3025 16.7173 59.3051 16.7424Z" fill="#80CFD7"/>
<path d="M59.2823 16.8334C59.2823 16.8584 59.289 16.8652 59.2958 16.847C59.303 16.8311 59.3004 16.8107 59.2937 16.8039C59.2869 16.7948 59.2798 16.8084 59.2823 16.8334Z" fill="#80CFD7"/>
</g>
<defs>
<clipPath id="clip0_218_939">
<rect width="81" height="24.0469" fill="white" transform="translate(0 0.246826)"/>
</clipPath>
</defs>
</svg>
