<svg width="80" height="27" viewBox="0 0 80 27" fill="none" xmlns="http://www.w3.org/2000/svg">
<g clip-path="url(#clip0_218_884)">
<path d="M79.8861 18.8477H0.0570907C0.0499556 18.8486 0.0427066 18.8479 0.0358267 18.8458C0.0289469 18.8438 0.0225941 18.8402 0.017192 18.8355C0.0117898 18.8307 0.00746233 18.8248 0.00449786 18.8183C0.00153339 18.8117 0 18.8046 0 18.7975C0 18.7902 0.00153339 18.7831 0.00449786 18.7765C0.00746233 18.77 0.0117898 18.7642 0.017192 18.7594C0.0225941 18.7546 0.0289469 18.7511 0.0358267 18.749C0.0427066 18.7469 0.0499556 18.7463 0.0570907 18.7472H79.8911C79.8983 18.7463 79.9055 18.7469 79.9124 18.749C79.9192 18.7511 79.9256 18.7546 79.931 18.7594C79.9364 18.7642 79.9407 18.77 79.9437 18.7765C79.9466 18.7831 79.9482 18.7902 79.9482 18.7975C79.9482 18.8046 79.9466 18.8117 79.9437 18.8183C79.9407 18.8248 79.9364 18.8307 79.931 18.8355C79.9256 18.8402 79.9192 18.8438 79.9124 18.8458C79.9055 18.8479 79.8983 18.8486 79.8911 18.8477H79.8861Z" fill="#1D1D1B"/>
<path d="M35.3093 26.0286H34.8114V22.7091L33.6968 26.0286H33.2313L32.1192 22.7091V26.0286H31.628V22.1216H32.4105L33.4628 25.3772L34.5284 22.1216H35.3085L35.3093 26.0286Z" fill="#1D1D1B"/>
<path d="M37.2653 23.1306C37.4533 23.1278 37.6399 23.1619 37.8147 23.231C37.9744 23.2955 38.1179 23.3947 38.2346 23.5215C38.3551 23.6566 38.4459 23.8155 38.501 23.9879C38.5652 24.1898 38.5963 24.4009 38.5931 24.6128C38.5966 24.8259 38.5646 25.0382 38.4985 25.241C38.4413 25.4128 38.3499 25.5712 38.2296 25.7065C38.1151 25.8333 37.9732 25.9323 37.8147 25.9962C37.6409 26.0646 37.4553 26.0984 37.2686 26.0957C37.084 26.0977 36.9006 26.0645 36.7284 25.9978C36.5689 25.9347 36.4256 25.8367 36.3093 25.7107C36.1874 25.576 36.0947 25.4175 36.0371 25.2451C35.97 25.0412 35.9374 24.8274 35.9408 24.6128C35.9374 24.4006 35.9696 24.1893 36.0363 23.9879C36.0925 23.8154 36.1841 23.6566 36.3051 23.5215C36.4202 23.3952 36.562 23.2959 36.7201 23.231C36.8934 23.162 37.0788 23.1278 37.2653 23.1306ZM37.2653 25.6991C37.3777 25.7006 37.489 25.6773 37.5914 25.631C37.6911 25.5841 37.7783 25.5145 37.8462 25.4277C37.9228 25.3259 37.9792 25.2104 38.0122 25.0874C38.0907 24.7764 38.0907 24.4508 38.0122 24.1397C37.9788 24.0172 37.9225 23.902 37.8462 23.8003C37.7789 23.7126 37.6915 23.6424 37.5914 23.5953C37.4883 23.5505 37.377 23.5274 37.2645 23.5274C37.1519 23.5274 37.0407 23.5505 36.9375 23.5953C36.8372 23.6419 36.7497 23.7123 36.6827 23.8003C36.6058 23.9015 36.5495 24.0169 36.5168 24.1397C36.4371 24.4506 36.4371 24.7766 36.5168 25.0874C36.549 25.2107 36.6055 25.3264 36.6827 25.4277C36.7502 25.5148 36.8376 25.5845 36.9375 25.631C37.0405 25.6774 37.1524 25.7006 37.2653 25.6991ZM37.7632 22.0476L37.174 22.7995H36.7749L37.1325 22.0476H37.7632Z" fill="#1D1D1B"/>
<path d="M41.443 23.2029L40.3774 26.0245H39.9243L38.8588 23.2029H39.4023L40.1492 25.4112L40.9011 23.2029H41.443Z" fill="#1D1D1B"/>
<path d="M43.0878 26.0957C42.8957 26.0982 42.7048 26.0644 42.5251 25.9961C42.3599 25.9333 42.2108 25.8344 42.0886 25.7065C41.9632 25.5725 41.8668 25.414 41.8056 25.2409C41.7355 25.039 41.7015 24.8264 41.7052 24.6127C41.7022 24.4026 41.7348 24.1936 41.8015 23.9944C41.86 23.8221 41.9529 23.6634 42.0745 23.528C42.192 23.4007 42.3354 23.3002 42.4953 23.2334C42.6658 23.1633 42.8487 23.1283 43.033 23.1305C43.2212 23.1277 43.4082 23.1618 43.5832 23.2309C43.7413 23.2959 43.8831 23.3951 43.9982 23.5214C44.119 23.6563 44.2098 23.8153 44.2646 23.9878C44.3295 24.1896 44.3609 24.4007 44.3575 24.6127V24.7339H42.2305C42.2389 24.8794 42.2688 25.0228 42.3193 25.1596C42.3604 25.2707 42.4224 25.373 42.5019 25.4608C42.5747 25.5392 42.664 25.6004 42.7633 25.6401C42.8667 25.6803 42.9769 25.7003 43.0878 25.699C43.172 25.6991 43.2557 25.688 43.3368 25.6658C43.4157 25.6452 43.4906 25.6116 43.5583 25.5662C43.6228 25.5242 43.6778 25.4691 43.7193 25.4044C43.7618 25.3389 43.7846 25.2626 43.7849 25.1845H44.3127C44.2932 25.3221 44.2458 25.4543 44.1733 25.5729C44.1045 25.6851 44.0139 25.7825 43.9069 25.8592C43.7946 25.9387 43.6694 25.9983 43.5368 26.0351C43.3908 26.0765 43.2396 26.0969 43.0878 26.0957ZM43.8289 24.338C43.8119 24.2163 43.7781 24.0977 43.7285 23.9853C43.6868 23.8909 43.6283 23.8048 43.5559 23.7314C43.4889 23.6645 43.4086 23.6124 43.3202 23.5787C43.2286 23.5434 43.1312 23.526 43.033 23.5272C42.9362 23.5265 42.84 23.5433 42.7492 23.577C42.6608 23.6103 42.5804 23.6621 42.5135 23.7289C42.4413 23.8024 42.3827 23.8881 42.3401 23.982C42.2893 24.0952 42.2549 24.2151 42.238 24.338H43.8289Z" fill="#1D1D1B"/>
<path d="M45.4247 22.6676H44.9267V22.1216H45.4247V22.6676ZM45.4247 26.0286H44.9267V23.2071H45.4247V26.0286Z" fill="#1D1D1B"/>
<path d="M47.1774 26.0959C46.4085 26.0959 46.0026 25.7917 45.96 25.183H46.467C46.467 25.5255 46.7022 25.6971 47.1724 25.6976C47.2651 25.6992 47.3576 25.688 47.4471 25.6644C47.5189 25.6454 47.5866 25.6136 47.6471 25.5706C47.6981 25.5333 47.7398 25.4847 47.7691 25.4287C47.797 25.3734 47.8112 25.3122 47.8106 25.2503C47.8131 25.1932 47.802 25.1363 47.7783 25.0843C47.7498 25.0362 47.7076 24.9978 47.6571 24.9739C47.5775 24.9344 47.4941 24.903 47.4081 24.8801C47.3019 24.8494 47.1592 24.8121 46.9932 24.7664C46.8272 24.7208 46.6803 24.6835 46.5592 24.6436C46.4519 24.6094 46.3509 24.5585 46.2596 24.4926C46.1832 24.4366 46.1231 24.3613 46.0853 24.2743C46.0449 24.1685 46.026 24.0557 46.0297 23.9424C46.029 23.8298 46.0549 23.7186 46.1052 23.6179C46.1558 23.5171 46.2277 23.4284 46.316 23.3581C46.4147 23.2801 46.5274 23.2219 46.648 23.1864C46.7889 23.1434 46.9355 23.1224 47.0828 23.1241C47.828 23.1241 48.2065 23.3884 48.2181 23.9167H47.7202C47.7019 23.6528 47.5011 23.5208 47.1202 23.5208C47.0407 23.5203 46.9614 23.5284 46.8836 23.5449C46.8182 23.5586 46.7553 23.583 46.6978 23.6171C46.6475 23.6464 46.605 23.687 46.5733 23.7357C46.5431 23.7836 46.5275 23.8393 46.5285 23.8959C46.527 23.9425 46.534 23.9889 46.5492 24.0328C46.5701 24.0758 46.6053 24.1102 46.6488 24.1299C46.7224 24.1685 46.8001 24.1989 46.8803 24.2204C46.9827 24.2514 47.123 24.2884 47.3011 24.3316C47.4792 24.3747 47.6284 24.4185 47.7484 24.4627C47.8612 24.4996 47.9675 24.5536 48.0637 24.6229C48.1449 24.6823 48.2093 24.7618 48.2505 24.8536C48.2948 24.9611 48.3158 25.0768 48.3119 25.193C48.3118 25.3165 48.2834 25.4382 48.2289 25.549C48.1749 25.6595 48.097 25.7565 48.0007 25.8328C47.8939 25.9169 47.7727 25.9807 47.643 26.0212C47.4926 26.0699 47.3356 26.0952 47.1774 26.0959Z" fill="#1D1D1B"/>
<path d="M15.5085 14.5515H20.984V11.6951H17.4512H11.618H11.5168V14.5515H13.4479H15.5085Z" fill="#1D1D1B"/>
<path d="M19.413 5.75732H11.5168V8.61372H19.413V5.75732Z" fill="#1D1D1B"/>
<path d="M21.0454 0.248535H11.5168V3.10497H21.0454V0.248535Z" fill="#1D1D1B"/>
<path d="M78.5484 2.1697L79.9119 0.248535H76.4073L75.0454 2.1697L73.0861 4.93484L71.1268 2.1697L69.7649 0.248535H66.2604L67.623 2.1697L71.3343 7.4004L66.2604 14.5307H69.7649L73.0861 9.86517L76.4073 14.5307H79.9119L74.8379 7.4004L78.5484 2.1697Z" fill="#1D1D1B"/>
<path d="M59.0994 2.1697L58.1915 0.248535H57.3567L57.1866 0.581315L56.3783 2.1697L50.0828 14.5307H53.282L57.7027 5.85185L61.7783 14.5307H64.9359L61.609 7.48588L59.0994 2.1697Z" fill="#1D1D1B"/>
<path d="M44.9376 2.1697L41.0969 5.66845L37.243 2.1697L35.1268 0.248535H34.1492V2.1697V14.5307H37.0015V5.79044L41.0969 9.51912L45.1924 5.79044V13.6187V14.5307H48.0446V9.16559V2.1697V0.248535H47.0463L44.9376 2.1697Z" fill="#1D1D1B"/>
<path d="M7.37489 6.77712C7.85212 6.08727 8.10747 5.26823 8.10684 4.4294C8.10504 3.37858 7.70815 2.36685 6.99497 1.59509C6.28179 0.823336 5.30447 0.347988 4.25705 0.263424C4.14667 0.255125 4.0363 0.246826 3.9251 0.246826H0.0296631V14.529H2.5558V8.67504L4.70435 8.65512C4.93394 8.65006 5.16223 8.69098 5.37581 8.77537C5.58939 8.85969 5.78397 8.98591 5.94813 9.14649C6.11227 9.30707 6.24271 9.49886 6.33175 9.71056C6.42079 9.92218 6.46666 10.1496 6.46666 10.3792C6.46666 10.6088 6.42079 10.8362 6.33175 11.0478C6.24271 11.2595 6.11227 11.4513 5.94813 11.6119C5.78397 11.7725 5.58939 11.8987 5.37581 11.983C5.16223 12.0674 4.93394 12.1083 4.70435 12.1033H3.72261V14.5306H4.74252C5.64636 14.5316 6.52777 14.2492 7.26275 13.7233C7.99774 13.1972 8.5493 12.454 8.83984 11.5981C9.13046 10.7423 9.1454 9.81687 8.88257 8.95205C8.61983 8.08725 8.09251 7.32661 7.37489 6.77712ZM3.80642 5.89994H2.56161V2.63521H3.80642C4.60228 2.63521 5.45871 3.24766 5.45871 4.24766C5.45871 5.24766 4.59979 5.89994 3.80393 5.89994H3.80642Z" fill="#1D1D1B"/>
<path d="M31.8794 11.695H26.5541V0.248535H25.2205H23.6977V2.51161V14.5307H31.8794V11.695Z" fill="#1D1D1B"/>
</g>
<defs>
<clipPath id="clip0_218_884">
<rect width="80" height="25.8921" fill="white" transform="translate(0 0.246826)"/>
</clipPath>
</defs>
</svg>
