<svg width="71" height="31" viewBox="0 0 71 31" fill="none" xmlns="http://www.w3.org/2000/svg">
<g clip-path="url(#clip0_218_766)">
<path d="M23.5527 15.2553V25.241C23.5527 27.9984 25.8126 30.2333 28.6008 30.2333C31.3889 30.2333 33.6498 27.9984 33.6498 25.241V15.2553C33.6498 12.498 31.3889 10.263 28.6008 10.263C25.8126 10.263 23.5527 12.499 23.5527 15.2553ZM33.6498 5.27066C33.6498 8.02801 31.3889 10.263 28.6008 10.263C25.8126 10.263 23.5527 8.02801 23.5527 5.27066C23.5527 2.5133 25.8126 0.27832 28.6008 0.27832C31.3889 0.27832 33.6498 2.5133 33.6498 5.27066ZM15.1687 10.263C12.3806 10.263 10.1207 12.498 10.1207 15.2553V5.27066C10.1207 2.5133 7.86083 0.27832 5.07168 0.27832C2.28358 0.27832 0.0236816 2.5133 0.0236816 5.27066V25.241C0.0236816 27.9984 2.28358 30.2333 5.07168 30.2333H15.1687C17.9569 30.2333 20.2167 27.9984 20.2167 25.241V15.2553C20.2167 12.499 17.9569 10.263 15.1687 10.263ZM10.1197 22.3843C8.9276 22.3843 7.96024 21.4286 7.96024 20.2487C7.96024 19.0687 8.9276 18.1131 10.1197 18.1131C11.3128 18.1131 12.2791 19.0687 12.2791 20.2487C12.2791 21.4286 11.3128 22.3843 10.1197 22.3843ZM70.6117 5.27066C70.6117 2.5133 68.3511 0.27832 65.5629 0.27832C62.7746 0.27832 60.5147 2.5133 60.5147 5.27066C60.5147 8.02801 62.7746 10.263 65.5629 10.263C68.3511 10.263 70.6117 8.02801 70.6117 5.27066ZM52.1235 10.263C49.3356 10.263 47.0757 12.498 47.0757 15.2553V5.27066C47.0757 2.5133 44.8158 0.27832 42.0276 0.27832C39.2393 0.27832 36.9798 2.5133 36.9798 5.27066V25.241C36.9798 27.9984 39.2393 30.2333 42.0276 30.2333H52.1246C54.9128 30.2333 57.1735 27.9984 57.1735 25.241V15.2553C57.1728 12.499 54.9128 10.263 52.1235 10.263ZM47.089 22.3843C45.8959 22.3843 44.9298 21.4286 44.9298 20.2487C44.9298 19.0687 45.897 18.1131 47.089 18.1131C48.2812 18.1131 49.2485 19.0687 49.2485 20.2487C49.2496 21.4286 48.2823 22.3843 47.089 22.3843ZM65.5629 10.263C68.3511 10.263 70.6117 12.498 70.6117 15.2553V25.241C70.6117 27.9984 68.3511 30.2333 65.5629 30.2333C62.7746 30.2333 60.5147 27.9984 60.5147 25.241V15.2553C60.5147 12.499 62.7746 10.263 65.5629 10.263Z" fill="#EE661C"/>
</g>
<defs>
<clipPath id="clip0_218_766">
<rect width="70.625" height="30" fill="white" transform="translate(0 0.246826)"/>
</clipPath>
</defs>
</svg>
