<svg width="81" height="31" viewBox="0 0 81 31" fill="none" xmlns="http://www.w3.org/2000/svg">
<g clip-path="url(#clip0_320_1093)">
<rect width="81" height="30" transform="translate(0 0.246826)" fill="white"/>
<path fill-rule="evenodd" clip-rule="evenodd" d="M9.26773 14.2307H11.6959C11.3437 15.6023 10.6579 16.6217 9.65697 17.3446C8.65605 18.086 7.39565 18.4567 5.87574 18.4567C4.02219 18.4567 2.59496 17.8636 1.55698 16.6588C0.518992 15.4911 0 13.8229 0 11.6542C0 9.57826 0.500455 7.96567 1.50137 6.79794C2.53936 5.59313 3.98512 5 5.82013 5C7.76635 5 9.26773 5.59314 10.3428 6.74233C10.9174 7.44668 11.3437 8.28078 11.6032 9.22608H8.19267C8.02585 8.89245 7.87757 8.65149 7.71075 8.5032C7.28443 8.03982 6.6913 7.81739 5.91281 7.81739C5.20846 7.81739 4.61533 8.03982 4.17048 8.5032C3.57734 9.15194 3.29931 10.227 3.29931 11.7098C3.29931 13.1927 3.59588 14.2492 4.17048 14.8609C4.59679 15.3799 5.227 15.6394 6.06109 15.6394C6.61716 15.6394 7.08054 15.5281 7.46979 15.3057C7.56247 15.2686 7.65514 15.213 7.74782 15.1389C7.82196 15.0648 7.91464 14.9721 8.00732 14.8794C8.08146 14.7867 8.21121 14.657 8.39656 14.4902C8.58191 14.3233 8.87848 14.2307 9.26773 14.2307Z" fill="#45145B"/>
<path fill-rule="evenodd" clip-rule="evenodd" d="M19.7033 11.7098C19.2399 11.9323 18.6097 12.1547 17.8126 12.34C17.0712 12.5069 16.7005 12.581 16.7005 12.581C16.1259 12.7478 15.6996 12.9517 15.4401 13.2112C15.2177 13.5634 15.1065 13.9156 15.1065 14.2863C15.1065 14.7682 15.2548 15.1574 15.5513 15.454C15.8479 15.7135 16.2557 15.8432 16.8117 15.8432C17.72 15.8432 18.4243 15.5837 18.9433 15.0648C19.4623 14.5458 19.7218 13.8414 19.7218 12.9332V11.7098H19.7033ZM20.4817 17.6783C19.7959 18.0304 19.0731 18.2529 18.3316 18.3455C17.5717 18.4197 16.9044 18.4567 16.3113 18.4567C15.1435 18.4567 14.1241 18.1416 13.2529 17.5114C12.3818 16.8812 11.9369 15.8432 11.9369 14.3789C11.9369 13.0073 12.3262 12.0435 13.1232 11.4689C13.9202 10.8757 14.9211 10.4865 16.163 10.3011C16.3298 10.3011 16.5152 10.2826 16.7561 10.227C16.9786 10.1714 17.238 10.1343 17.5346 10.0972C18.9618 9.9119 19.6662 9.48558 19.6662 8.83684C19.6662 8.35492 19.4067 8.03982 18.9062 7.89153C18.4058 7.74325 17.9424 7.66911 17.5161 7.66911C17.0712 7.66911 16.6634 7.72471 16.2927 7.85446C15.9406 7.98421 15.6811 8.22517 15.5142 8.57734H12.252C12.3818 7.57643 12.8266 6.74233 13.6051 6.11213C14.4763 5.37071 15.7181 5 17.3493 5C19.1657 5 20.5188 5.3151 21.4271 5.92677C22.3724 6.57551 22.8358 7.48375 22.8358 8.65148V13.0629C22.8358 14.3604 22.5948 15.3799 22.1314 16.1027C21.6866 16.8256 21.1305 17.3631 20.4817 17.6783Z" fill="#45145B"/>
<path fill-rule="evenodd" clip-rule="evenodd" d="M23.0582 13.9526H26.3575C26.3946 14.6014 26.6355 15.0833 27.0804 15.4169C27.5623 15.732 28.211 15.8989 29.0266 15.8989C29.6197 15.8989 30.1202 15.7877 30.528 15.5652C30.9172 15.3428 31.1211 15.0277 31.1211 14.6385C31.1211 14.0639 30.4353 13.619 29.0822 13.3224C28.4891 13.2298 28.0628 13.1185 27.7662 13.0259C26.0424 12.5996 24.9117 12.0991 24.3186 11.5245C23.6698 10.9499 23.3547 10.1714 23.3547 9.18903C23.3547 7.96569 23.8181 6.94624 24.7634 6.13068C25.7273 5.38926 27.0062 5.01855 28.5447 5.01855C30.2314 5.01855 31.566 5.38926 32.5854 6.13068C33.5307 6.94624 34.0312 7.98423 34.0868 9.28171H31.9923C31.3806 9.28171 30.8987 9.00368 30.5836 8.46615C30.4538 8.3364 30.3241 8.20665 30.1943 8.0769C29.8051 7.78034 29.2676 7.65059 28.6003 7.65059C27.9515 7.65059 27.4696 7.74327 27.136 7.94716C26.8394 8.15105 26.7097 8.42908 26.7097 8.81832C26.7097 9.33732 27.5438 9.78216 29.2305 10.1343C29.4344 10.2085 29.6012 10.2456 29.7495 10.2826C29.8978 10.3197 30.0275 10.3197 30.1573 10.3197C31.8069 10.746 32.9561 11.2279 33.6049 11.784C34.2165 12.3586 34.5316 13.1371 34.5316 14.1195C34.5316 15.5467 34.0126 16.6403 32.9747 17.4188C32.0108 18.1231 30.5465 18.4938 28.6003 18.4938C26.7467 18.4938 25.3751 18.1231 24.4669 17.3817C23.5216 16.6403 23.0582 15.5467 23.0582 14.1195V13.9526Z" fill="#45145B"/>
<path fill-rule="evenodd" clip-rule="evenodd" d="M42.5389 11.7098C42.0755 11.9323 41.4453 12.1547 40.6483 12.34C39.9068 12.5069 39.5361 12.581 39.5361 12.581C38.9615 12.7478 38.5352 12.9517 38.2757 13.2112C38.0533 13.5634 37.9421 13.9156 37.9421 14.2863C37.9421 14.7682 38.0904 15.1574 38.3869 15.454C38.6835 15.7135 39.0913 15.8432 39.6473 15.8432C40.5556 15.8432 41.2599 15.5837 41.7789 15.0648C42.2979 14.5458 42.5574 13.8414 42.5574 12.9332V11.7098H42.5389ZM43.3174 17.6783C42.6316 18.0304 41.9087 18.2529 41.1673 18.3455C40.4073 18.4197 39.74 18.4567 39.1469 18.4567C37.9792 18.4567 36.9597 18.1416 36.0885 17.5114C35.2174 16.8812 34.7725 15.8432 34.7725 14.3789C34.7725 13.0073 35.1618 12.0435 35.9588 11.4689C36.7558 10.8757 37.7567 10.4865 38.9986 10.3011C39.1654 10.3011 39.3508 10.2826 39.5917 10.227C39.8142 10.1714 40.0737 10.1343 40.3702 10.0972C41.7975 9.9119 42.5018 9.48558 42.5018 8.83684C42.5018 8.35492 42.2423 8.03982 41.7419 7.89153C41.2414 7.74325 40.778 7.66911 40.3517 7.66911C39.9068 7.66911 39.4991 7.72471 39.1284 7.85446C38.7762 7.98421 38.5167 8.22517 38.3499 8.57734H35.0876C35.2174 7.57643 35.6622 6.74233 36.4407 6.11213C37.3119 5.37071 38.5538 5 40.1849 5C42.0014 5 43.3544 5.3151 44.2627 5.92677C45.208 6.57551 45.6714 7.48375 45.6714 8.65148V13.0629C45.6714 14.3604 45.4304 15.3799 44.967 16.1027C44.5222 16.8256 43.9661 17.3631 43.3174 17.6783Z" fill="#45145B"/>
<path fill-rule="evenodd" clip-rule="evenodd" d="M57.4414 18.2158H54.0865V10.6348V9.94897C54.0865 9.17048 53.8455 8.61441 53.3821 8.2437C52.9187 7.89153 52.3812 7.70618 51.8066 7.70618C51.232 7.70618 50.713 7.89153 50.2496 8.2437C49.8048 8.59588 49.5638 9.17048 49.5638 9.94897V18.2158H46.1718V10.6533C46.1718 8.44759 46.7464 6.98329 47.8956 6.24187C49.0448 5.50046 50.3238 5.09268 51.7139 5.01854C52.4553 5.01854 53.1782 5.09268 53.9011 5.2595C54.6055 5.42632 55.2542 5.74142 55.8473 6.22334C56.3293 5.79703 56.9039 5.50046 57.5711 5.3151C58.2384 5.12975 58.9242 5.03707 59.6286 5C61.0558 5 62.3718 5.37071 63.5581 6.11213C64.7629 6.85355 65.356 8.35492 65.356 10.6348V18.2158H63.6508C63.1688 18.2158 62.7611 18.0675 62.4645 17.7524C62.1494 17.4373 62.0011 17.048 62.0011 16.5661V9.9675C62.0011 9.18901 61.7601 8.63295 61.2968 8.26224C60.8334 7.91007 60.2958 7.72471 59.7212 7.72471C59.1281 7.72471 58.6091 7.91007 58.1457 8.26224C57.6823 8.61441 57.4414 9.18901 57.4414 9.9675V10.6533V18.2158Z" fill="#939598"/>
<path fill-rule="evenodd" clip-rule="evenodd" d="M65.9121 5H67.6544C68.1178 5 68.4885 5.16682 68.8221 5.48192C69.1558 5.79703 69.3041 6.18627 69.3041 6.64966V7.66911H65.8935V5H65.9121Z" fill="#939598"/>
<path fill-rule="evenodd" clip-rule="evenodd" d="M65.9121 8.13257H67.6544C68.1178 8.13257 68.4885 8.29939 68.8221 8.61449C69.1558 8.92959 69.3041 9.33737 69.3041 9.78222V18.2159H65.8935V8.13257H65.9121Z" fill="#939598"/>
<path fill-rule="evenodd" clip-rule="evenodd" d="M77.5523 11.7098C77.089 11.9323 76.4587 12.1547 75.6617 12.34C74.9203 12.5069 74.5496 12.581 74.5496 12.581C73.975 12.7478 73.5487 12.9517 73.2892 13.2112C73.0668 13.5634 72.9555 13.9156 72.9555 14.2863C72.9555 14.7682 73.1038 15.1574 73.4004 15.454C73.697 15.7135 74.1047 15.8432 74.6608 15.8432C75.569 15.8432 76.2734 15.5837 76.7924 15.0648C77.3114 14.5458 77.5709 13.8414 77.5709 12.9332V11.7098H77.5523ZM78.3308 17.6783C77.645 18.0304 76.9221 18.2529 76.1807 18.3455C75.4208 18.4197 74.7535 18.4567 74.1604 18.4567C72.9926 18.4567 71.9732 18.1416 71.102 17.5114C70.2308 16.8812 69.786 15.8432 69.786 14.3789C69.786 13.0073 70.1752 12.0435 70.9723 11.4689C71.7693 10.8757 72.7702 10.4865 74.0121 10.3011C74.1789 10.3011 74.3642 10.2826 74.6052 10.227C74.8276 10.1714 75.0871 10.1343 75.3837 10.0972C76.8109 9.9119 77.5153 9.48558 77.5153 8.83684C77.5153 8.35492 77.2558 8.03982 76.7553 7.89153C76.2549 7.74325 75.7915 7.66911 75.3652 7.66911C74.9203 7.66911 74.5125 7.72471 74.1418 7.85446C73.7896 7.98421 73.5301 8.22517 73.3633 8.57734H70.1011C70.2308 7.57643 70.6757 6.74233 71.4542 6.11213C72.3253 5.37071 73.5672 5 75.1983 5C77.0148 5 78.3679 5.3151 79.2761 5.92677C80.2214 6.57551 80.6848 7.48375 80.6848 8.65148V13.0629C80.6848 14.3604 80.4439 15.3799 79.9805 16.1027C79.5356 16.8256 78.961 17.3631 78.3308 17.6783Z" fill="#939598"/>
<path fill-rule="evenodd" clip-rule="evenodd" d="M13.8831 22.5716C13.9573 22.3492 14.0129 22.1267 14.0685 21.9414C14.1241 21.7375 14.1426 21.5892 14.1426 21.4965C14.1426 21.4224 14.1241 21.3668 14.087 21.3297C14.0499 21.2926 14.0129 21.2556 13.9573 21.2556C13.9017 21.237 13.8461 21.2185 13.7904 21.2185C13.7348 21.2185 13.6792 21.2185 13.6236 21.2185L13.6607 21.1073L14.8099 21.0146L13.2529 25.9636H13.3641C13.3827 25.9265 13.4197 25.8153 13.4568 25.6485C13.5124 25.4816 13.568 25.2778 13.6422 25.0368C13.7163 24.7958 13.809 24.5363 13.9202 24.2398C14.0314 23.9432 14.1426 23.6466 14.2538 23.3501C14.3836 23.0535 14.5133 22.7569 14.6431 22.4789C14.7914 22.2009 14.9396 21.9414 15.0879 21.7375C15.2362 21.5151 15.403 21.3482 15.5698 21.2185C15.7367 21.0887 15.9035 21.0146 16.0703 21.0146C16.1444 21.0146 16.2186 21.0331 16.2927 21.0702C16.3483 21.1073 16.4039 21.1629 16.441 21.237C16.4781 21.3112 16.5152 21.3853 16.5337 21.478C16.5522 21.5707 16.5708 21.6448 16.5708 21.7375C16.5708 21.9043 16.5522 22.1082 16.4966 22.2935C16.441 22.4974 16.3669 22.7013 16.2742 22.8867C16.1815 23.072 16.0703 23.2759 15.9406 23.4427C15.8108 23.6281 15.6811 23.7764 15.5328 23.9247C15.3845 24.0544 15.2362 24.1656 15.0879 24.2583C14.9396 24.3324 14.7728 24.388 14.6245 24.388C14.5319 24.388 14.4577 24.3695 14.3836 24.351C14.3094 24.3324 14.2724 24.3139 14.2168 24.2768C14.1797 24.2583 14.1426 24.2212 14.1241 24.1842C14.1055 24.1471 14.087 24.1286 14.0685 24.0915L14.365 23.8505C14.365 23.8691 14.3836 23.9061 14.4021 23.9432C14.4207 23.9803 14.4392 24.0359 14.4763 24.0729C14.5133 24.11 14.5504 24.1471 14.606 24.1842C14.6616 24.2212 14.7172 24.2212 14.7914 24.2212C14.9026 24.2212 15.0323 24.1842 15.1435 24.0915C15.2547 24.0173 15.3474 23.9061 15.4586 23.7578C15.5513 23.6281 15.644 23.4798 15.7181 23.2945C15.7923 23.1276 15.8664 22.9608 15.922 22.7755C15.9776 22.5901 16.0147 22.4233 16.0518 22.2565C16.0888 22.0897 16.0888 21.9414 16.0888 21.8116C16.0888 21.756 16.0888 21.7004 16.0703 21.6633C16.0703 21.6077 16.0518 21.5521 16.0332 21.5151C16.0147 21.478 15.9776 21.4409 15.9406 21.4038C15.9035 21.3668 15.8664 21.3668 15.8108 21.3668C15.6625 21.3668 15.4957 21.4409 15.3474 21.6077C15.1991 21.7746 15.0509 21.9599 14.9026 22.2009C14.7543 22.4418 14.6245 22.6828 14.5133 22.9423C14.4021 23.2018 14.2909 23.4427 14.2168 23.6466C14.1797 23.7393 14.1426 23.8505 14.087 23.9803C14.0314 24.11 13.9943 24.2583 13.9387 24.4251C13.8831 24.5734 13.8461 24.7402 13.7904 24.907C13.7348 25.0739 13.6978 25.2221 13.6422 25.3704C13.6051 25.5187 13.568 25.6485 13.531 25.7597C13.4939 25.8709 13.4753 25.945 13.4568 26.0006L12.771 26.0933L13.8831 22.5716ZM19.4252 22.2194C19.4067 22.275 19.3696 22.3492 19.3325 22.4789C19.2769 22.6086 19.2213 22.7569 19.1472 22.9052C19.0731 23.0535 18.9804 23.2203 18.8692 23.4057C18.7579 23.5725 18.6467 23.7393 18.517 23.8691C18.3872 24.0173 18.239 24.1286 18.0907 24.2212C17.9424 24.3139 17.7756 24.351 17.6087 24.351C17.4234 24.351 17.2751 24.2768 17.1824 24.1286C17.0712 23.9803 17.0342 23.7949 17.0342 23.591C17.0342 23.4427 17.0712 23.2574 17.1268 23.072C17.1824 22.8867 17.2751 22.6828 17.3863 22.4974C17.4975 22.3121 17.6088 22.1267 17.757 21.9414C17.9053 21.756 18.0536 21.5892 18.2019 21.4594C18.3502 21.3112 18.517 21.2 18.6838 21.1258C18.8506 21.0331 18.9989 20.9961 19.1657 20.9961C19.314 20.9961 19.4438 21.0517 19.5179 21.1443C19.592 21.237 19.6291 21.3853 19.6291 21.5521C19.6291 21.6263 19.6291 21.6819 19.6106 21.756C19.592 21.8302 19.592 21.8858 19.5735 21.9599L19.6476 21.9784L19.9442 21.0517L20.5003 20.9961C20.4817 21.0331 20.4447 21.1443 20.3891 21.2926C20.3335 21.4409 20.2593 21.6448 20.1852 21.8858L19.9442 22.6272C19.9071 22.7199 19.8886 22.8311 19.8515 22.9608C19.8145 23.072 19.7774 23.2018 19.7589 23.313C19.7218 23.4242 19.7033 23.5354 19.6847 23.6281C19.6662 23.7208 19.6476 23.7949 19.6476 23.8505C19.6476 23.8876 19.6662 23.9247 19.6847 23.9617C19.7033 23.9803 19.7403 23.9988 19.7774 23.9988C19.8701 23.9988 19.9813 23.9617 20.0925 23.8876C20.2037 23.8135 20.3335 23.7208 20.4632 23.591C20.593 23.4798 20.7227 23.3501 20.8525 23.2018C20.9822 23.0535 21.0934 22.9238 21.2046 22.794C21.3158 22.6643 21.4085 22.553 21.4827 22.4418C21.5568 22.3306 21.6124 22.275 21.6495 22.2194L21.5939 22.4048C21.5568 22.4418 21.5012 22.5345 21.4085 22.6457C21.3158 22.7569 21.2232 22.8867 21.112 23.035C21.0007 23.1832 20.871 23.3315 20.7227 23.4798C20.5744 23.6281 20.4447 23.7764 20.2964 23.8876C20.1481 24.0173 19.9998 24.11 19.8515 24.2027C19.7033 24.2768 19.555 24.3324 19.4252 24.3324C19.2955 24.3324 19.2213 24.2954 19.1657 24.2212C19.1101 24.1471 19.0916 24.0544 19.0916 23.9432C19.0916 23.8691 19.1101 23.7764 19.1287 23.6652C19.1657 23.554 19.1843 23.4613 19.2028 23.3686L19.5735 22.2009L19.4252 22.2194ZM17.479 23.4242C17.479 23.4984 17.479 23.554 17.4975 23.6281C17.5161 23.7022 17.5346 23.7578 17.5531 23.8135C17.5902 23.8691 17.6273 23.9247 17.6644 23.9617C17.7014 23.9988 17.757 24.0173 17.8312 24.0173C17.998 24.0173 18.1648 23.9432 18.3316 23.7949C18.517 23.6466 18.6653 23.4613 18.8136 23.2389C18.9618 23.0164 19.0916 22.7755 19.1843 22.5345C19.2769 22.2935 19.3325 22.0711 19.3325 21.8858C19.3325 21.7189 19.2955 21.5707 19.2028 21.4409C19.1101 21.3112 18.9989 21.2556 18.8321 21.2556C18.7023 21.2556 18.5726 21.2926 18.4614 21.3668C18.3502 21.4409 18.239 21.5521 18.1277 21.6819C18.0165 21.8116 17.9239 21.9414 17.8497 22.1082C17.757 22.275 17.7014 22.4233 17.6273 22.5901C17.5717 22.7569 17.5161 22.9052 17.4975 23.0535C17.479 23.2018 17.479 23.3315 17.479 23.4242ZM21.4271 22.3677L20.8154 24.351L21.5012 24.2398C21.5197 24.2027 21.5383 24.11 21.5939 23.9617C21.6495 23.8135 21.7236 23.6281 21.7978 23.4242C21.8904 23.2203 21.9831 22.9979 22.0943 22.7569C22.2055 22.516 22.3353 22.3121 22.4465 22.1082C22.5763 21.9043 22.706 21.756 22.8543 21.6263C23.0026 21.4965 23.1323 21.4409 23.2806 21.4409C23.3918 21.4409 23.466 21.4594 23.503 21.5151C23.5401 21.5707 23.5586 21.6263 23.5957 21.6819L23.8923 21.0517C23.8181 21.0146 23.744 20.9961 23.6884 20.9961C23.4845 20.9961 23.2991 21.0702 23.1138 21.2185C22.9284 21.3668 22.7616 21.5521 22.5948 21.7746C22.428 21.997 22.2797 22.2379 22.1499 22.516C22.0202 22.7755 21.8904 23.035 21.7978 23.2759C21.7051 23.5169 21.6124 23.7208 21.5568 23.8876C21.5012 24.0729 21.4641 24.1842 21.4456 24.2212H21.3529L22.3538 20.9961L21.2232 21.0887L21.1861 21.2H21.3344C21.5753 21.2 21.6865 21.2741 21.6865 21.4224C21.6865 21.478 21.6866 21.5521 21.668 21.6448C21.6495 21.7375 21.6309 21.8302 21.6124 21.9228C21.5939 22.0155 21.5568 22.1082 21.5383 22.2009C21.4641 22.2565 21.4456 22.3306 21.4271 22.3677ZM26.0795 22.2194C26.0609 22.275 26.0238 22.3492 25.9868 22.4789C25.9312 22.6086 25.8756 22.7569 25.8014 22.9052C25.7273 23.0535 25.6346 23.2203 25.5234 23.4057C25.4122 23.5725 25.301 23.7393 25.1712 23.8691C25.0415 24.0173 24.8932 24.1286 24.7449 24.2212C24.5966 24.3139 24.4298 24.351 24.263 24.351C24.0776 24.351 23.9293 24.2768 23.8367 24.1286C23.7254 23.9803 23.6884 23.7949 23.6884 23.591C23.6884 23.4427 23.7255 23.2574 23.7811 23.072C23.8367 22.8867 23.9293 22.6828 24.0406 22.4974C24.1518 22.3121 24.263 22.1267 24.4113 21.9414C24.5595 21.756 24.7078 21.5892 24.8561 21.4594C25.0044 21.3112 25.1712 21.2 25.338 21.1258C25.5049 21.0331 25.6531 20.9961 25.82 20.9961C25.9682 20.9961 26.098 21.0517 26.1721 21.1443C26.2463 21.237 26.2833 21.3853 26.2833 21.5521C26.2833 21.6263 26.2833 21.6819 26.2648 21.756C26.2463 21.8302 26.2463 21.8858 26.2277 21.9599L26.3019 21.9784L26.5984 21.0517L27.1545 20.9961C27.136 21.0331 27.0989 21.1443 27.0433 21.2926C26.9877 21.4409 26.9135 21.6448 26.8394 21.8858L26.5984 22.6272C26.5614 22.7199 26.5428 22.8311 26.5058 22.9608C26.4687 23.072 26.4316 23.2018 26.4131 23.313C26.376 23.4242 26.3575 23.5354 26.3389 23.6281C26.3204 23.7208 26.3019 23.7949 26.3019 23.8505C26.3019 23.8876 26.3204 23.9247 26.3389 23.9617C26.3575 23.9803 26.3946 23.9988 26.4316 23.9988C26.5243 23.9988 26.6355 23.9617 26.7467 23.8876C26.8579 23.8135 26.9877 23.7208 27.1174 23.591C27.2472 23.4798 27.3769 23.3501 27.5067 23.2018C27.6364 23.0535 27.7476 22.9238 27.8589 22.794C27.9701 22.6643 28.0627 22.553 28.1369 22.4418C28.211 22.3306 28.2666 22.275 28.3037 22.2194L28.2481 22.4048C28.211 22.4418 28.1554 22.5345 28.0627 22.6457C27.9701 22.7569 27.8774 22.8867 27.7662 23.035C27.655 23.1832 27.5252 23.3315 27.3769 23.4798C27.2287 23.6281 27.0989 23.7764 26.9506 23.8876C26.8023 24.0173 26.654 24.11 26.5058 24.2027C26.3575 24.2768 26.2092 24.3324 26.0795 24.3324C25.9497 24.3324 25.8756 24.2954 25.82 24.2212C25.7644 24.1471 25.7458 24.0544 25.7458 23.9432C25.7458 23.8691 25.7643 23.7764 25.7829 23.6652C25.82 23.554 25.8385 23.4613 25.857 23.3686L26.2277 22.2009L26.0795 22.2194ZM24.1332 23.4242C24.1332 23.4984 24.1332 23.554 24.1518 23.6281C24.1703 23.7022 24.1888 23.7578 24.2074 23.8135C24.2444 23.8691 24.2815 23.9247 24.3186 23.9617C24.3557 23.9988 24.4113 24.0173 24.4854 24.0173C24.6522 24.0173 24.819 23.9432 24.9859 23.7949C25.1712 23.6466 25.3195 23.4613 25.4678 23.2389C25.6161 23.0164 25.7458 22.7755 25.8385 22.5345C25.9312 22.2935 25.9868 22.0711 25.9868 21.8858C25.9868 21.7189 25.9497 21.5707 25.857 21.4409C25.7643 21.3112 25.6531 21.2556 25.4863 21.2556C25.3566 21.2556 25.2268 21.2926 25.1156 21.3668C25.0044 21.4409 24.8932 21.5521 24.782 21.6819C24.6708 21.8116 24.5781 21.9414 24.5039 22.1082C24.4113 22.275 24.3557 22.4233 24.2815 22.5901C24.2259 22.7569 24.1703 22.9052 24.1518 23.0535C24.1518 23.2018 24.1332 23.3315 24.1332 23.4242ZM33.8643 22.4604C33.8087 22.5345 33.7346 22.6457 33.6234 22.8125C33.5122 22.9608 33.401 23.1091 33.2527 23.2574C33.1044 23.4057 32.9376 23.5354 32.7708 23.6466C32.5854 23.7578 32.4186 23.8135 32.2147 23.8135C32.0108 23.8135 31.844 23.7393 31.6957 23.6096C31.6586 23.6466 31.603 23.7022 31.5289 23.7764C31.4362 23.8505 31.3435 23.9432 31.2138 24.0359C31.084 24.1286 30.9543 24.2027 30.806 24.2768C30.6577 24.351 30.5094 24.3695 30.3426 24.3695C30.1016 24.3695 29.9163 24.2768 29.7865 24.11C29.6568 23.9432 29.5827 23.7393 29.5827 23.4798C29.5827 23.2018 29.6383 22.9423 29.7309 22.7013C29.8236 22.4604 29.9348 22.2379 30.046 22.0526C30.1573 21.8672 30.2685 21.7004 30.3611 21.5892C30.4538 21.4595 30.5094 21.3668 30.5094 21.3297C30.5094 21.2926 30.4909 21.2556 30.4538 21.237C30.4167 21.2185 30.3611 21.2 30.3241 21.2C30.2685 21.2 30.1943 21.2185 30.1573 21.237L30.2129 21.0517L31.3806 21.0146C31.3065 21.0887 31.2138 21.2185 31.0655 21.3853C30.9357 21.5521 30.7875 21.756 30.6577 21.9599C30.528 22.1823 30.3982 22.4048 30.3055 22.6643C30.1943 22.9052 30.1573 23.1647 30.1573 23.4057C30.1573 23.5725 30.1943 23.7393 30.287 23.8505C30.3797 23.9803 30.5094 24.0359 30.7133 24.0359C30.8245 24.0359 30.9357 24.0173 31.0284 23.9803C31.1211 23.9432 31.2138 23.8876 31.3065 23.8505C31.3806 23.7949 31.4547 23.7393 31.5289 23.6837C31.603 23.6281 31.6586 23.5725 31.6957 23.5354C31.6772 23.4984 31.6586 23.4613 31.6216 23.4242C31.603 23.3871 31.5659 23.3315 31.5474 23.2574C31.5289 23.1832 31.4918 23.1091 31.4733 23.0164C31.4547 22.9237 31.4362 22.794 31.4362 22.6643C31.4362 22.516 31.4547 22.3491 31.5103 22.1638C31.5659 21.9784 31.6216 21.7931 31.7142 21.6263C31.8069 21.4594 31.8996 21.3112 32.0293 21.2C32.1591 21.0887 32.3074 21.0331 32.4556 21.0331C32.6039 21.0331 32.7151 21.0887 32.7708 21.2C32.8449 21.3112 32.8634 21.4409 32.8634 21.5892C32.8634 21.8116 32.8264 22.0341 32.7337 22.2379C32.641 22.4604 32.5483 22.6457 32.4186 22.8311C32.3074 23.0164 32.1962 23.1647 32.0664 23.2945C31.9552 23.4242 31.8625 23.5169 31.8069 23.5725C31.8254 23.6096 31.8811 23.6466 31.9552 23.6837C32.0293 23.7208 32.1405 23.7578 32.2703 23.7578C32.4556 23.7578 32.641 23.7022 32.8264 23.591C33.0117 23.4798 33.1785 23.3315 33.3268 23.1832C33.4751 23.0164 33.6049 22.8681 33.7161 22.7013C33.8273 22.5345 33.92 22.4048 33.9756 22.3306L33.8643 22.4604ZM31.4733 22.6828C31.4733 22.794 31.4733 22.9052 31.4918 22.9794C31.5103 23.0535 31.5289 23.1276 31.5474 23.2018C31.5659 23.2574 31.5845 23.313 31.6216 23.3501C31.6401 23.3871 31.6586 23.4242 31.6772 23.4427C31.7513 23.3686 31.8254 23.2574 31.9181 23.1276C32.0108 22.9979 32.0849 22.8681 32.1591 22.7013C32.2332 22.553 32.2888 22.3862 32.3444 22.2009C32.4 22.0155 32.4186 21.8302 32.4186 21.6448C32.4186 21.5892 32.4186 21.5336 32.4 21.478C32.4 21.4224 32.3815 21.3668 32.363 21.3297C32.3444 21.2741 32.3259 21.237 32.2888 21.2185C32.2518 21.1814 32.2147 21.1814 32.1776 21.1814C32.1035 21.1814 32.0293 21.237 31.9367 21.3297C31.8625 21.4224 31.7698 21.5521 31.6957 21.7004C31.6216 21.8487 31.5659 22.0155 31.5289 22.1823C31.5103 22.3492 31.4733 22.516 31.4733 22.6828ZM35.6623 22.4789L35.7179 22.2935C35.6808 22.3306 35.6437 22.4048 35.5696 22.516C35.4955 22.6272 35.4028 22.7384 35.2916 22.8681C35.1804 22.9979 35.0691 23.1276 34.9579 23.2574C34.8282 23.3871 34.717 23.5169 34.5872 23.6281C34.4575 23.7393 34.3463 23.832 34.2351 23.9061C34.1238 23.9803 34.0126 24.0173 33.9199 24.0173C33.8643 24.0173 33.8273 23.9988 33.8087 23.9432C33.7902 23.9061 33.7717 23.8505 33.7717 23.7764C33.7717 23.7393 33.7717 23.6837 33.7902 23.6096C33.8087 23.5354 33.8273 23.4427 33.8458 23.3501C33.8643 23.2574 33.9014 23.1462 33.9385 23.0535C33.9756 22.9423 33.9941 22.8681 34.0312 22.7755L34.6058 20.9961L33.438 21.0887L33.401 21.1814H33.5678C33.7161 21.1814 33.8087 21.2 33.8643 21.2556C33.92 21.3112 33.9385 21.3668 33.9385 21.4594C33.9385 21.5521 33.92 21.7004 33.8643 21.8672C33.8087 22.0526 33.7531 22.2379 33.6975 22.4604L33.4195 23.3501C33.3824 23.4427 33.3639 23.554 33.3268 23.6652C33.2897 23.7764 33.2712 23.8691 33.2712 23.9247C33.2712 24.0173 33.3083 24.11 33.3639 24.2027C33.4195 24.2954 33.5122 24.3324 33.6419 24.3324C33.7531 24.3324 33.9014 24.2954 34.0312 24.2212C34.1794 24.1471 34.3092 24.0359 34.4575 23.9061C34.6058 23.7764 34.7355 23.6466 34.8653 23.4983C34.995 23.3501 35.1248 23.2018 35.236 23.072C35.3472 22.9423 35.4399 22.8125 35.514 22.7013C35.5881 22.5901 35.6437 22.516 35.6623 22.4789ZM34.754 19.7913C34.6428 19.7913 34.5687 19.7542 34.4945 19.6986C34.4389 19.643 34.4019 19.5688 34.4019 19.4576C34.4019 19.3649 34.4389 19.2723 34.4945 19.1981C34.5502 19.124 34.6428 19.0869 34.754 19.0869C34.8467 19.0869 34.9209 19.1054 34.995 19.1611C35.0506 19.2167 35.0877 19.2908 35.0877 19.4205C35.0877 19.5132 35.0506 19.6059 34.995 19.68C34.9209 19.7542 34.8467 19.7913 34.754 19.7913ZM39.2767 22.4604C39.2211 22.5345 39.1469 22.6457 39.0357 22.8125C38.9245 22.9608 38.8133 23.1091 38.665 23.2574C38.5167 23.4057 38.3499 23.5354 38.1831 23.6466C37.9977 23.7578 37.8309 23.8135 37.627 23.8135C37.4231 23.8135 37.2563 23.7393 37.108 23.6096C37.071 23.6466 37.0154 23.7022 36.9412 23.7764C36.8486 23.8505 36.7559 23.9432 36.6261 24.0359C36.4964 24.1286 36.3666 24.2027 36.2183 24.2768C36.0701 24.351 35.9218 24.3695 35.755 24.3695C35.514 24.3695 35.3286 24.2768 35.1989 24.11C35.0692 23.9432 34.995 23.7393 34.995 23.4798C34.995 23.2018 35.0506 22.9423 35.1433 22.7013C35.236 22.4604 35.3472 22.2379 35.4584 22.0526C35.5696 21.8672 35.6808 21.7004 35.7735 21.5892C35.8662 21.4595 35.9218 21.3668 35.9218 21.3297C35.9218 21.2926 35.9032 21.2556 35.8662 21.237C35.8291 21.2185 35.7735 21.2 35.7364 21.2C35.6808 21.2 35.6067 21.2185 35.5696 21.237L35.6252 21.0517L36.7929 21.0146C36.7188 21.0887 36.6261 21.2185 36.4778 21.3853C36.3481 21.5521 36.1998 21.756 36.0701 21.9599C35.9403 22.1823 35.8106 22.4048 35.7179 22.6643C35.6067 22.9052 35.5696 23.1647 35.5696 23.4057C35.5696 23.5725 35.6067 23.7393 35.6994 23.8505C35.792 23.9803 35.9218 24.0359 36.1257 24.0359C36.2369 24.0359 36.3481 24.0173 36.4408 23.9803C36.5334 23.9432 36.6261 23.8876 36.7188 23.8505C36.7929 23.7949 36.8671 23.7393 36.9412 23.6837C37.0154 23.6281 37.071 23.5725 37.108 23.5354C37.0895 23.4984 37.071 23.4613 37.0339 23.4242C37.0154 23.3871 36.9783 23.3315 36.9598 23.2574C36.9412 23.1832 36.9042 23.1091 36.8856 23.0164C36.8671 22.9237 36.8486 22.794 36.8486 22.6643C36.8486 22.516 36.8671 22.3491 36.9227 22.1638C36.9783 21.9784 37.0339 21.7931 37.1266 21.6263C37.2193 21.4594 37.3119 21.3112 37.4417 21.2C37.5714 21.0887 37.7197 21.0331 37.868 21.0331C38.0163 21.0331 38.1275 21.0887 38.1831 21.2C38.2572 21.3112 38.2758 21.4409 38.2758 21.5892C38.2758 21.8116 38.2387 22.0341 38.146 22.2379C38.0534 22.4604 37.9607 22.6457 37.8309 22.8311C37.7197 23.0164 37.6085 23.1647 37.4788 23.2945C37.3675 23.4242 37.2749 23.5169 37.2193 23.5725C37.2378 23.6096 37.2934 23.6466 37.3675 23.6837C37.4417 23.7208 37.5529 23.7578 37.6826 23.7578C37.868 23.7578 38.0534 23.7022 38.2387 23.591C38.4241 23.4798 38.5909 23.3315 38.7392 23.1832C38.8874 23.0164 39.0172 22.8681 39.1284 22.7013C39.2396 22.5345 39.3323 22.4048 39.3879 22.3306L39.2767 22.4604ZM36.8856 22.6828C36.8856 22.794 36.8856 22.9052 36.9042 22.9794C36.9227 23.0535 36.9412 23.1276 36.9598 23.2018C36.9783 23.2574 36.9968 23.313 37.0339 23.3501C37.0524 23.3871 37.071 23.4242 37.0895 23.4427C37.1637 23.3686 37.2378 23.2574 37.3305 23.1276C37.4232 22.9979 37.4973 22.8681 37.5714 22.7013C37.6456 22.553 37.7012 22.3862 37.7568 22.2009C37.8124 22.0155 37.8309 21.8302 37.8309 21.6448C37.8309 21.5892 37.8309 21.5336 37.8124 21.478C37.8124 21.4224 37.7939 21.3668 37.7753 21.3297C37.7568 21.2741 37.7383 21.237 37.7012 21.2185C37.6641 21.1814 37.627 21.1814 37.59 21.1814C37.5158 21.1814 37.4417 21.237 37.349 21.3297C37.2749 21.4224 37.1822 21.5521 37.108 21.7004C37.0339 21.8487 36.9783 22.0155 36.9412 22.1823C36.9042 22.3492 36.8856 22.516 36.8856 22.6828ZM42.1312 22.4789L42.1868 22.2935C42.1126 22.4048 41.9829 22.553 41.8346 22.7384C41.6863 22.9237 41.501 23.1276 41.2971 23.313C41.0932 23.4983 40.8522 23.6837 40.5927 23.8135C40.3332 23.9617 40.0737 24.0359 39.7957 24.0359C39.5733 24.0359 39.4064 23.9803 39.2952 23.8876C39.184 23.7764 39.1099 23.6096 39.1099 23.3686C39.1099 23.2759 39.1284 23.1647 39.1469 23.072C39.1655 22.9794 39.184 22.8681 39.2211 22.7755C39.3694 22.8125 39.4991 22.8311 39.6474 22.8311C39.8698 22.8311 40.0737 22.794 40.2591 22.7013C40.4444 22.6087 40.6298 22.4974 40.7595 22.3491C40.9078 22.2009 41.019 22.0526 41.1117 21.9043C41.2044 21.756 41.2415 21.6077 41.2415 21.4594C41.2415 21.2926 41.2044 21.1629 41.1117 21.0887C41.019 21.0146 40.9078 20.959 40.7781 20.959C40.6112 20.959 40.4444 20.9961 40.2776 21.0702C40.1108 21.1443 39.944 21.2556 39.7772 21.3853C39.6103 21.5151 39.4621 21.6633 39.3323 21.8487C39.184 22.0155 39.0728 22.2009 38.9616 22.3862C38.8504 22.5716 38.7762 22.7569 38.7206 22.9423C38.665 23.1276 38.628 23.313 38.628 23.4613C38.628 23.7393 38.7021 23.9432 38.8504 24.0915C38.9987 24.2398 39.2211 24.3139 39.5177 24.3139C39.7401 24.3139 39.944 24.2768 40.1479 24.2027C40.3518 24.1286 40.5371 24.0359 40.7039 23.9247C40.8707 23.8134 41.0376 23.6837 41.1858 23.554C41.3341 23.4057 41.4639 23.2759 41.5936 23.1276C41.7048 22.9794 41.8161 22.8496 41.9087 22.7384C42.0014 22.6643 42.0756 22.5716 42.1312 22.4789ZM40.5186 21.1443C40.3703 21.1443 40.222 21.2 40.0923 21.3112C39.9625 21.4224 39.8328 21.5707 39.7215 21.7189C39.6103 21.8672 39.5177 22.0155 39.4435 22.1638C39.3694 22.3121 39.3138 22.4233 39.2952 22.4789C39.3138 22.4974 39.3508 22.516 39.3879 22.5345C39.425 22.553 39.4806 22.5716 39.5362 22.6087C39.5918 22.6272 39.6659 22.6457 39.7215 22.6643C39.7957 22.6828 39.8698 22.6828 39.944 22.6828C40.0552 22.6828 40.1849 22.6457 40.2776 22.5716C40.3888 22.4974 40.4815 22.4048 40.5556 22.2935C40.6298 22.1823 40.6854 22.0526 40.741 21.9228C40.7781 21.7746 40.8151 21.6448 40.8151 21.5151C40.8151 21.4224 40.7966 21.3297 40.741 21.237C40.7039 21.1814 40.6298 21.1443 40.5186 21.1443ZM42.057 22.3677C42.0756 22.3306 42.0941 22.2565 42.1126 22.1823C42.1312 22.0897 42.1682 22.0155 42.1868 21.9043C42.2053 21.8116 42.2238 21.7189 42.2424 21.6263C42.2609 21.5336 42.2609 21.4595 42.2609 21.4038C42.2609 21.2556 42.1497 21.1814 41.9087 21.1814H41.7604L41.7975 21.0702L42.9282 20.9775L41.9273 24.2027H42.0199C42.0385 24.1656 42.0756 24.0544 42.1312 23.8691C42.1868 23.6837 42.2794 23.4798 42.3721 23.2574C42.4833 23.0164 42.5945 22.7755 42.7243 22.4974C42.854 22.2379 43.0209 21.9784 43.1691 21.756C43.336 21.5336 43.5028 21.3482 43.6881 21.2C43.8735 21.0517 44.0588 20.9775 44.2627 20.9775C44.3183 20.9775 44.3925 20.9961 44.4666 21.0331L44.1701 21.6633C44.133 21.6077 44.1145 21.5336 44.0774 21.4965C44.0403 21.4409 43.9662 21.4224 43.855 21.4224C43.7067 21.4224 43.5769 21.478 43.4286 21.6077C43.2804 21.7375 43.1506 21.9043 43.0209 22.0897C42.8911 22.2935 42.7799 22.4974 42.6687 22.7384C42.5575 22.9794 42.4648 23.1832 42.3721 23.4057C42.2794 23.6096 42.2238 23.7949 42.1682 23.9432C42.1126 24.0915 42.0755 24.1842 42.0755 24.2212L41.3897 24.3324L42.057 22.3677ZM48.8039 22.2194C48.7854 22.275 48.7483 22.3492 48.7112 22.4789C48.6556 22.6086 48.6 22.7569 48.5259 22.9052C48.4517 23.0535 48.3591 23.2203 48.2479 23.4057C48.1366 23.5725 48.0254 23.7393 47.8957 23.8691C47.7659 24.0173 47.6176 24.1286 47.4694 24.2212C47.3211 24.3139 47.1543 24.351 46.9874 24.351C46.8021 24.351 46.6538 24.2768 46.5611 24.1286C46.4499 23.9803 46.4128 23.7949 46.4128 23.591C46.4128 23.4427 46.4499 23.2574 46.5055 23.072C46.5611 22.8867 46.6538 22.6828 46.765 22.4974C46.8762 22.3121 46.9874 22.1267 47.1357 21.9414C47.284 21.756 47.4323 21.5892 47.5806 21.4594C47.7289 21.3112 47.8957 21.2 48.0625 21.1258C48.2293 21.0331 48.3776 20.9961 48.5444 20.9961C48.6927 20.9961 48.8225 21.0517 48.8966 21.1443C48.9707 21.237 49.0078 21.3853 49.0078 21.5521C49.0078 21.6263 49.0078 21.6819 48.9893 21.756C48.9707 21.8302 48.9707 21.8858 48.9522 21.9599L49.0263 21.9784L49.3229 21.0517L49.879 20.9961C49.8604 21.0331 49.8234 21.1443 49.7678 21.2926C49.7122 21.4409 49.638 21.6448 49.5639 21.8858L49.3229 22.6272C49.2858 22.7199 49.2673 22.8311 49.2302 22.9608C49.1932 23.072 49.1561 23.2018 49.1376 23.313C49.1005 23.4242 49.082 23.5354 49.0634 23.6281C49.0449 23.7208 49.0263 23.7949 49.0263 23.8505C49.0263 23.8876 49.0449 23.9247 49.0634 23.9617C49.082 23.9803 49.119 23.9988 49.1561 23.9988C49.2488 23.9988 49.36 23.9617 49.4712 23.8876C49.5824 23.8135 49.7122 23.7208 49.8419 23.591C49.9717 23.4798 50.1014 23.3501 50.2311 23.2018C50.3609 23.0535 50.4721 22.9238 50.5833 22.794C50.6945 22.6643 50.7872 22.553 50.8614 22.4418C50.9355 22.3306 50.9911 22.275 51.0282 22.2194L50.9726 22.4048C50.9355 22.4418 50.8799 22.5345 50.7872 22.6457C50.6945 22.7569 50.6019 22.8867 50.4907 23.035C50.3794 23.1832 50.2497 23.3315 50.1014 23.4798C49.9531 23.6281 49.8234 23.7764 49.6751 23.8876C49.5268 24.0173 49.3785 24.11 49.2302 24.2027C49.082 24.2768 48.9337 24.3324 48.8039 24.3324C48.6742 24.3324 48.6 24.2954 48.5444 24.2212C48.4888 24.1471 48.4703 24.0544 48.4703 23.9432C48.4703 23.8691 48.4888 23.7764 48.5074 23.6652C48.5444 23.554 48.563 23.4613 48.5815 23.3686L48.9522 22.2009L48.8039 22.2194ZM46.8392 23.4242C46.8392 23.4984 46.8392 23.554 46.8577 23.6281C46.8762 23.7022 46.8948 23.7578 46.9133 23.8135C46.9504 23.8691 46.9874 23.9247 47.0245 23.9617C47.0616 23.9988 47.1172 24.0173 47.1913 24.0173C47.3582 24.0173 47.525 23.9432 47.6918 23.7949C47.8771 23.6466 48.0254 23.4613 48.1737 23.2389C48.322 23.0164 48.4517 22.7755 48.5444 22.5345C48.6371 22.2935 48.6927 22.0711 48.6927 21.8858C48.6927 21.7189 48.6556 21.5707 48.563 21.4409C48.4703 21.3112 48.3591 21.2556 48.1922 21.2556C48.0625 21.2556 47.9328 21.2926 47.8215 21.3668C47.7103 21.4409 47.5991 21.5521 47.4879 21.6819C47.3767 21.8116 47.284 21.9414 47.2099 22.1082C47.1172 22.275 47.0616 22.4233 46.9874 22.5901C46.9318 22.7569 46.8762 22.9052 46.8577 23.0535C46.8577 23.2018 46.8392 23.3315 46.8392 23.4242Z" fill="#939598" stroke="#939598" stroke-width="0.5669" stroke-miterlimit="22.9256"/>
<path fill-rule="evenodd" clip-rule="evenodd" d="M53.3266 21.0333L53.4749 20.5884C53.6602 19.9953 53.9012 19.5505 54.1977 19.2354C54.4943 18.9203 54.8465 18.772 55.2728 18.772C55.3655 18.772 55.4767 18.7905 55.5879 18.809C55.6991 18.8276 55.7918 18.8647 55.8845 18.9017L55.6991 19.5134C55.6806 19.4578 55.6806 19.4022 55.662 19.328C55.6435 19.2539 55.6064 19.1798 55.5694 19.1241C55.5323 19.05 55.4582 18.9944 55.384 18.9573C55.3099 18.9203 55.2172 18.8832 55.106 18.8832C54.9948 18.8832 54.8835 18.9203 54.7723 18.9944C54.6611 19.0685 54.587 19.1612 54.4943 19.2724C54.4202 19.3836 54.346 19.5134 54.2719 19.6802C54.2163 19.8285 54.1421 19.9953 54.0865 20.1621L53.8085 21.0333H55.3469L55.1245 21.2372C54.9392 21.2187 54.7723 21.2001 54.587 21.2001C54.4016 21.2001 54.2163 21.1816 54.0309 21.1816H53.7714L52.8261 24.2029C52.6408 24.8145 52.3998 25.2779 52.1032 25.593C51.8252 25.9081 51.4545 26.0749 51.0282 26.0749C50.8243 26.0749 50.6204 26.0193 50.4165 25.9267L50.6019 25.315C50.6204 25.3706 50.6204 25.4262 50.6389 25.5003C50.6575 25.5745 50.6945 25.6486 50.7316 25.7042C50.7687 25.7598 50.8428 25.834 50.917 25.871C50.9911 25.9267 51.0838 25.9452 51.195 25.9452C51.3247 25.9452 51.4545 25.9081 51.5472 25.834C51.6584 25.7598 51.7511 25.6486 51.8437 25.5003C51.9364 25.3521 52.0106 25.1852 52.0847 24.9813C52.1588 24.7775 52.233 24.555 52.3257 24.2955L53.308 21.1445H53.2154C53.1041 21.1445 52.9929 21.1445 52.8632 21.163C52.752 21.1816 52.6408 21.1816 52.511 21.2001L52.6778 20.9962H53.3266V21.0333ZM57.9234 22.4791L57.979 22.2937C57.9048 22.4049 57.7751 22.5532 57.6268 22.7386C57.4785 22.9239 57.2932 23.1278 57.0893 23.3132C56.8854 23.4985 56.6444 23.6839 56.3849 23.8136C56.1254 23.9619 55.8659 24.036 55.5879 24.036C55.3655 24.036 55.1987 23.9804 55.0874 23.8878C54.9762 23.7765 54.9021 23.6097 54.9021 23.3688C54.9021 23.2761 54.9206 23.1649 54.9392 23.0722C54.9577 22.9795 54.9762 22.8683 55.0133 22.7756C55.1616 22.8127 55.2913 22.8312 55.4396 22.8312C55.662 22.8312 55.8659 22.7942 56.0513 22.7015C56.2366 22.6088 56.422 22.4976 56.5517 22.3493C56.7 22.201 56.8112 22.0527 56.9039 21.9045C56.9966 21.7562 57.0337 21.6079 57.0337 21.4596C57.0337 21.2928 56.9966 21.163 56.9039 21.0889C56.8112 21.0148 56.7 20.9592 56.5703 20.9592C56.4035 20.9592 56.2366 20.9962 56.0698 21.0704C55.903 21.1445 55.7362 21.2557 55.5694 21.3855C55.4025 21.5152 55.2543 21.6635 55.1245 21.8489C54.9762 22.0157 54.865 22.201 54.7538 22.3864C54.6426 22.5717 54.5684 22.7571 54.5128 22.9424C54.4572 23.1278 54.4202 23.3132 54.4202 23.4614C54.4202 23.7395 54.4943 23.9434 54.6426 24.0917C54.7909 24.2399 55.0133 24.3141 55.3099 24.3141C55.5323 24.3141 55.7362 24.277 55.9401 24.2029C56.144 24.1287 56.3293 24.036 56.4961 23.9248C56.663 23.8136 56.8298 23.6839 56.9781 23.5541C57.1263 23.4058 57.2561 23.2761 57.3858 23.1278C57.497 22.9795 57.6083 22.8498 57.7009 22.7386C57.7936 22.6644 57.8678 22.5717 57.9234 22.4791ZM56.3293 21.1445C56.181 21.1445 56.0327 21.2001 55.903 21.3113C55.7733 21.4225 55.6435 21.5708 55.5323 21.7191C55.4211 21.8674 55.3284 22.0157 55.2543 22.164C55.1801 22.3122 55.1245 22.4235 55.106 22.4791C55.1245 22.4976 55.1616 22.5161 55.1987 22.5347C55.2357 22.5532 55.2913 22.5717 55.3469 22.6088C55.4025 22.6273 55.4767 22.6459 55.5323 22.6644C55.6064 22.683 55.6806 22.683 55.7547 22.683C55.8659 22.683 55.9957 22.6459 56.0884 22.5717C56.1996 22.4976 56.2922 22.4049 56.3664 22.2937C56.4405 22.1825 56.4961 22.0527 56.5517 21.923C56.5888 21.7747 56.6259 21.645 56.6259 21.5152C56.6259 21.4225 56.6073 21.3299 56.5517 21.2372C56.4961 21.1816 56.422 21.1445 56.3293 21.1445ZM59.8881 22.4791C59.8696 22.5161 59.814 22.5903 59.7398 22.7015C59.6657 22.8127 59.5545 22.9425 59.4433 23.0722C59.3321 23.2019 59.2023 23.3502 59.054 23.4985C58.9057 23.6468 58.776 23.7951 58.6277 23.9063C58.4794 24.036 58.3311 24.1287 58.1829 24.2214C58.0346 24.2955 57.8863 24.3326 57.7565 24.3326C57.6639 24.3326 57.5712 24.2955 57.5156 24.2214C57.46 24.1473 57.4414 24.0546 57.4414 23.9619C57.4414 23.9063 57.46 23.8136 57.4785 23.7209C57.5156 23.6283 57.5341 23.5356 57.5527 23.4429L58.535 20.3289C58.6092 20.1065 58.6648 19.8841 58.7204 19.6987C58.776 19.4949 58.7945 19.3466 58.7945 19.2539C58.7945 19.1798 58.776 19.1241 58.7389 19.0871C58.7019 19.05 58.6648 19.0315 58.6092 19.0129C58.5536 18.9944 58.498 18.9759 58.4424 18.9759C58.3868 18.9759 58.3311 18.9759 58.2755 18.9759L58.3126 18.8646L59.4618 18.772L58.2014 22.7756C58.1829 22.8498 58.1458 22.9424 58.1273 23.0351C58.0902 23.1463 58.0716 23.239 58.0346 23.3317C58.016 23.4244 57.979 23.517 57.9604 23.6097C57.9419 23.7024 57.9234 23.758 57.9234 23.7951C57.9234 23.9248 57.979 23.999 58.0716 23.999C58.1643 23.999 58.257 23.9619 58.3867 23.8878C58.498 23.8136 58.6277 23.7209 58.7575 23.6097C58.8872 23.4985 58.9984 23.3688 59.1282 23.239C59.2579 23.1093 59.3691 22.961 59.4803 22.8498C59.5916 22.72 59.6842 22.6088 59.7584 22.5161C59.8325 22.4235 59.8881 22.3493 59.9067 22.2937L59.8881 22.4791ZM61.7231 22.4791L61.7787 22.2937C61.7417 22.3308 61.7046 22.4049 61.6305 22.5161C61.5563 22.6273 61.4636 22.7386 61.3524 22.8683C61.2412 22.9981 61.13 23.1278 61.0188 23.2576C60.889 23.3873 60.7778 23.5171 60.6481 23.6283C60.5183 23.7395 60.4071 23.8322 60.2959 23.9063C60.1847 23.9804 60.0735 24.0175 59.9808 24.0175C59.9252 24.0175 59.8881 23.999 59.8696 23.9434C59.851 23.9063 59.8325 23.8507 59.8325 23.7765C59.8325 23.7395 59.8325 23.6839 59.8511 23.6097C59.8696 23.5356 59.8881 23.4429 59.9067 23.3502C59.9252 23.2576 59.9623 23.1463 59.9993 23.0537C60.0364 22.9425 60.0549 22.8683 60.092 22.7756L60.6666 20.9962L59.4989 21.0889L59.4618 21.2001H59.6286C59.7769 21.2001 59.8696 21.2187 59.9252 21.2743C59.9808 21.3299 59.9993 21.3855 59.9993 21.4781C59.9993 21.5708 59.9808 21.7191 59.9252 21.8859C59.8696 22.0713 59.814 22.2566 59.7584 22.4791L59.4803 23.3688C59.4433 23.4614 59.4247 23.5727 59.3877 23.6839C59.3506 23.7951 59.3321 23.8878 59.3321 23.9434C59.3321 24.036 59.3691 24.1287 59.4247 24.2214C59.4803 24.3141 59.573 24.3511 59.7028 24.3511C59.814 24.3511 59.9623 24.3141 60.092 24.2399C60.2403 24.1658 60.37 24.0546 60.5183 23.9248C60.6666 23.7951 60.7964 23.6653 60.9261 23.517C61.0559 23.3688 61.1856 23.2205 61.2968 23.0907C61.408 22.961 61.5007 22.8312 61.5748 22.72C61.6305 22.5903 61.6861 22.5161 61.7231 22.4791ZM60.7964 19.7914C60.6851 19.7914 60.611 19.7544 60.5369 19.6987C60.4813 19.6431 60.4442 19.569 60.4442 19.4578C60.4442 19.3651 60.4813 19.2724 60.5369 19.1983C60.5925 19.1241 60.6851 19.0871 60.7964 19.0871C60.889 19.0871 60.9632 19.1056 61.0373 19.1612C61.0929 19.2168 61.13 19.291 61.13 19.4207C61.13 19.5134 61.0929 19.6061 61.0373 19.6802C60.9632 19.7544 60.889 19.7914 60.7964 19.7914ZM64.5776 22.442C64.5405 22.5161 64.4664 22.6088 64.3737 22.7386C64.281 22.8683 64.1698 22.9981 64.0586 23.1463C63.9289 23.2946 63.7991 23.4244 63.6508 23.5727C63.5025 23.7209 63.3357 23.8507 63.1504 23.9619C62.965 24.0731 62.7797 24.1658 62.5758 24.2399C62.3719 24.3141 62.168 24.3511 61.9456 24.3511C61.7787 24.3511 61.649 24.3326 61.5378 24.277C61.4266 24.2399 61.3339 24.1658 61.2597 24.0917C61.1856 24.0175 61.13 23.9248 61.1115 23.8136C61.0744 23.7209 61.0559 23.6097 61.0559 23.4985C61.0559 23.3502 61.0744 23.2019 61.13 23.0166C61.1856 22.8312 61.2597 22.6459 61.371 22.4605C61.4636 22.2752 61.5934 22.0898 61.7231 21.923C61.8714 21.7376 62.0197 21.5894 62.1865 21.4411C62.3533 21.2928 62.5387 21.1816 62.724 21.1074C62.9094 21.0148 63.1133 20.9777 63.3172 20.9777C63.484 20.9777 63.6323 20.9962 63.7435 21.0333C63.8547 21.0704 63.9474 21.1074 64.0215 21.126L63.8176 21.5894C63.7991 21.5523 63.762 21.5152 63.725 21.4596C63.6879 21.404 63.6323 21.3669 63.5952 21.3113C63.5396 21.2743 63.4655 21.2372 63.3913 21.2001C63.3172 21.163 63.2245 21.163 63.1133 21.163C62.965 21.163 62.8353 21.2001 62.7055 21.2743C62.5758 21.3484 62.446 21.4411 62.3348 21.5708C62.2236 21.682 62.1124 21.8303 62.0197 21.9786C61.927 22.1269 61.8529 22.2937 61.7787 22.442C61.7231 22.6088 61.6675 22.7571 61.6305 22.9054C61.5934 23.0537 61.5748 23.2019 61.5748 23.3132C61.5748 23.3873 61.5748 23.48 61.5934 23.5541C61.6119 23.6468 61.6305 23.7209 61.6861 23.7765C61.7417 23.8507 61.7973 23.9063 61.89 23.9434C61.9826 23.9804 62.1124 24.0175 62.2607 24.0175C62.5202 24.0175 62.7797 23.9434 63.0392 23.7951C63.2801 23.6468 63.5211 23.48 63.725 23.2761C63.9288 23.0722 64.1142 22.8868 64.2625 22.683C64.4108 22.4791 64.5405 22.3308 64.6147 22.2196L64.5776 22.442ZM66.4311 22.4791L66.4867 22.2937C66.4497 22.3308 66.4126 22.4049 66.3385 22.5161C66.2643 22.6273 66.1716 22.7386 66.0604 22.8683C65.9492 22.9981 65.838 23.1278 65.7268 23.2576C65.597 23.3873 65.4858 23.5171 65.3561 23.6283C65.2263 23.7395 65.1151 23.8322 65.0039 23.9063C64.8927 23.9804 64.7815 24.0175 64.6888 24.0175C64.6332 24.0175 64.5961 23.999 64.5776 23.9434C64.5591 23.8878 64.5405 23.8507 64.5405 23.7765C64.5405 23.7395 64.5405 23.6839 64.5591 23.6097C64.5776 23.5356 64.5961 23.4429 64.6147 23.3502C64.6332 23.2576 64.6703 23.1463 64.7073 23.0537C64.7444 22.9425 64.763 22.8683 64.8 22.7756L65.3746 20.9962L64.2069 21.0889L64.1698 21.1816H64.3366C64.4849 21.1816 64.5776 21.2001 64.6332 21.2557C64.6888 21.3113 64.7073 21.3669 64.7073 21.4596C64.7073 21.5523 64.6888 21.7006 64.6332 21.8674C64.5776 22.0528 64.522 22.2381 64.4664 22.4605L64.1883 23.3502C64.1513 23.4429 64.1327 23.5541 64.0957 23.6653C64.0586 23.7765 64.0401 23.8692 64.0401 23.9248C64.0401 24.0175 64.0771 24.1102 64.1327 24.2029C64.1883 24.2955 64.281 24.3326 64.4108 24.3326C64.522 24.3326 64.6703 24.2955 64.8 24.2214C64.9483 24.1473 65.0781 24.036 65.2263 23.9063C65.3746 23.7765 65.5044 23.6468 65.6341 23.4985C65.7639 23.3502 65.8936 23.2019 66.0048 23.0722C66.116 22.9425 66.2087 22.8127 66.2829 22.7015C66.3385 22.5903 66.3941 22.5161 66.4311 22.4791ZM65.5044 19.7914C65.3932 19.7914 65.319 19.7544 65.2449 19.6987C65.1893 19.6431 65.1522 19.569 65.1522 19.4578C65.1522 19.3651 65.1893 19.2724 65.2449 19.1983C65.3005 19.1241 65.3932 19.0871 65.5044 19.0871C65.597 19.0871 65.6712 19.1056 65.7453 19.1612C65.8009 19.2168 65.838 19.291 65.838 19.4207C65.838 19.5134 65.8009 19.6061 65.7453 19.6802C65.6897 19.7544 65.597 19.7914 65.5044 19.7914ZM68.2291 22.2196C68.2105 22.2752 68.1735 22.3679 68.1179 22.4976C68.0623 22.6273 68.0067 22.7571 67.914 22.9239C67.8398 23.0722 67.7472 23.239 67.6359 23.4058C67.5247 23.5727 67.4135 23.7395 67.2838 23.8692C67.154 24.0175 67.0057 24.1287 66.8575 24.2214C66.7092 24.3141 66.5424 24.3511 66.3755 24.3511C66.1902 24.3511 66.0419 24.277 65.9307 24.1287C65.8195 23.9804 65.7639 23.8136 65.7639 23.5912C65.7639 23.4244 65.8009 23.2576 65.8565 23.0722C65.9121 22.8868 66.0048 22.683 66.116 22.4976C66.2272 22.3122 66.3385 22.1084 66.4867 21.9415C66.635 21.7562 66.7833 21.6079 66.9316 21.4596C67.0799 21.3113 67.2467 21.2001 67.4135 21.126C67.5803 21.0333 67.7286 20.9962 67.8769 20.9962C68.0252 20.9962 68.1364 21.0518 68.2105 21.1816C68.2847 21.3113 68.3218 21.4411 68.3218 21.6079C68.3218 21.6635 68.3218 21.7191 68.3032 21.7932C68.3032 21.8489 68.2847 21.923 68.2847 21.9786H68.3403L68.8407 20.3846C68.9149 20.1621 68.9705 19.9397 69.0261 19.7543C69.0817 19.5505 69.1002 19.4022 69.1002 19.3095C69.1002 19.2354 69.0817 19.1798 69.0446 19.1427C69.0076 19.1056 68.9705 19.0871 68.9149 19.0685C68.8593 19.05 68.8037 19.0315 68.7481 19.0315C68.6925 19.0315 68.6369 19.0315 68.5812 19.0315L68.6183 18.9203L69.7675 18.8276L68.47 22.9054C68.4515 22.9795 68.4144 23.0722 68.3959 23.1649C68.3774 23.2576 68.3403 23.3502 68.3218 23.4429C68.3032 23.5356 68.2847 23.6283 68.2661 23.7024C68.2476 23.7765 68.2476 23.8507 68.2476 23.8878C68.2476 23.9434 68.2661 23.9804 68.2847 23.999C68.3218 24.036 68.3403 24.036 68.3959 24.036C68.4886 24.036 68.5812 23.999 68.711 23.9248C68.8222 23.8507 68.952 23.758 69.0817 23.6468C69.2115 23.5356 69.3412 23.4058 69.4709 23.2576C69.6007 23.1093 69.7304 22.9795 69.8417 22.8498C69.9529 22.72 70.0456 22.6088 70.1382 22.4976C70.2124 22.3864 70.2865 22.3122 70.305 22.2752L70.2494 22.4605C70.2124 22.5161 70.1382 22.5903 70.0641 22.7015C69.9714 22.8127 69.8787 22.9424 69.749 23.0907C69.6378 23.239 69.4895 23.3873 69.3412 23.5356C69.1929 23.6839 69.0446 23.8136 68.8964 23.9434C68.7481 24.0731 68.5998 24.1658 68.4515 24.2585C68.3032 24.3326 68.1735 24.3697 68.0437 24.3697C67.9325 24.3697 67.8584 24.3326 67.8028 24.277C67.7472 24.2214 67.7286 24.1287 67.7286 24.0546C67.7286 23.9804 67.7472 23.9063 67.7657 23.8136C67.7842 23.7209 67.8028 23.6468 67.8213 23.5727L68.2291 22.2566V22.2196ZM66.2643 23.4244C66.2643 23.3132 66.2828 23.1834 66.3199 23.0351C66.357 22.8868 66.4126 22.7386 66.4682 22.5717C66.5238 22.4049 66.598 22.2566 66.6906 22.1084C66.7833 21.9601 66.876 21.8118 66.9687 21.7006C67.0799 21.5894 67.1726 21.4782 67.2838 21.404C67.395 21.3299 67.5062 21.2928 67.6174 21.2928C67.7842 21.2928 67.8954 21.3484 67.9881 21.4781C68.0808 21.6079 68.1179 21.7562 68.1179 21.923C68.1179 22.0342 68.0993 22.164 68.0437 22.3122C67.9881 22.4605 67.9325 22.6088 67.8584 22.7571C67.7842 22.9054 67.6916 23.0537 67.5803 23.2019C67.4691 23.3502 67.3764 23.48 67.2652 23.5912C67.154 23.7024 67.0428 23.7951 66.9316 23.8692C66.8204 23.9434 66.7092 23.9804 66.6165 23.9804C66.5424 23.9804 66.4867 23.9619 66.4497 23.9248C66.3941 23.8878 66.357 23.8507 66.3385 23.7951C66.3014 23.7395 66.2829 23.6839 66.2643 23.6097C66.2643 23.5541 66.2643 23.48 66.2643 23.4244ZM72.0845 22.2196L72.1586 22.2381L71.7879 23.4058C71.7693 23.4985 71.7323 23.5912 71.7137 23.7024C71.6767 23.8136 71.6767 23.9063 71.6767 23.9804C71.6767 24.0731 71.6952 24.1658 71.7508 24.2585C71.8064 24.3326 71.8991 24.3697 72.0103 24.3697C72.1401 24.3697 72.2883 24.3326 72.4366 24.2399C72.5849 24.1658 72.7332 24.0546 72.8815 23.9248C73.0298 23.7951 73.178 23.6653 73.3078 23.517C73.4561 23.3688 73.5673 23.2205 73.697 23.0722C73.8083 22.9239 73.9195 22.7942 73.9936 22.683C74.0863 22.5717 74.1419 22.4976 74.179 22.442L74.2346 22.2566C74.1975 22.2937 74.1419 22.3679 74.0677 22.4791C73.9936 22.5903 73.9009 22.7015 73.7897 22.8312C73.6785 22.961 73.5673 23.0907 73.4375 23.239C73.3078 23.3873 73.178 23.4985 73.0483 23.6283C72.9186 23.7395 72.7888 23.8507 72.6776 23.9248C72.5664 23.999 72.4552 24.036 72.3625 24.036C72.3254 24.036 72.2883 24.0175 72.2698 23.999C72.2513 23.9804 72.2327 23.9434 72.2327 23.8878C72.2327 23.8322 72.2513 23.758 72.2698 23.6653C72.2883 23.5727 72.3069 23.4614 72.3439 23.3502C72.381 23.239 72.3995 23.1093 72.4366 22.9981C72.4737 22.8868 72.5108 22.7756 72.5293 22.6644L72.7703 21.923C72.8444 21.682 72.9185 21.4781 72.9742 21.3299C73.0298 21.1816 73.0668 21.0704 73.0854 21.0333L72.5293 21.0889L72.2327 22.0157L72.1586 21.9971C72.1771 21.923 72.1771 21.8674 72.1957 21.7932C72.2142 21.7191 72.2142 21.6635 72.2142 21.5894C72.2142 21.404 72.1771 21.2743 72.103 21.1816C72.0288 21.0889 71.9176 21.0333 71.7508 21.0333C71.6025 21.0333 71.4357 21.0704 71.2689 21.163C71.1021 21.2557 70.9538 21.3669 70.787 21.4967C70.6387 21.645 70.4904 21.7932 70.3421 21.9786C70.1938 22.164 70.0826 22.3493 69.9714 22.5347C69.8602 22.72 69.7861 22.9239 69.7119 23.1093C69.6563 23.2946 69.6192 23.48 69.6192 23.6283C69.6192 23.8507 69.6748 24.036 69.7675 24.1658C69.8787 24.3141 70.0085 24.3882 70.1938 24.3882C70.3607 24.3882 70.5275 24.3511 70.6758 24.2585C70.824 24.1658 70.9723 24.0546 71.1021 23.9063C71.2318 23.758 71.3616 23.6097 71.4542 23.4429C71.5655 23.2761 71.6581 23.1093 71.7323 22.9424C71.8064 22.7942 71.8806 22.6459 71.9176 22.5161C72.0474 22.3493 72.0659 22.2566 72.0845 22.2196ZM70.1382 23.4244C70.1382 23.4985 70.1382 23.5541 70.1568 23.6283C70.1753 23.7024 70.1938 23.758 70.2124 23.8136C70.2494 23.8692 70.2865 23.9248 70.3236 23.9619C70.3607 23.999 70.4163 24.0175 70.4904 24.0175C70.6572 24.0175 70.824 23.9434 70.9909 23.7951C71.1762 23.6468 71.3245 23.4614 71.4728 23.239C71.6211 23.0166 71.7508 22.7756 71.8435 22.5347C71.9362 22.2937 71.9918 22.0713 71.9918 21.8859C71.9918 21.7191 71.9547 21.5708 71.862 21.4411C71.7693 21.3113 71.6581 21.2557 71.4913 21.2557C71.3616 21.2557 71.2318 21.2928 71.1206 21.3669C71.0094 21.4411 70.8982 21.5523 70.787 21.682C70.6758 21.8118 70.5831 21.9415 70.5089 22.1084C70.4163 22.2752 70.3607 22.4235 70.2865 22.5903C70.2309 22.7571 70.1753 22.9054 70.1568 23.0537C70.1568 23.2019 70.1382 23.3317 70.1382 23.4244ZM75.9954 22.2196C75.9769 22.2752 75.9398 22.3679 75.8842 22.4976C75.8286 22.6273 75.773 22.7571 75.6803 22.9239C75.6062 23.0722 75.5135 23.239 75.4023 23.4058C75.2911 23.5727 75.1799 23.7395 75.0501 23.8692C74.9204 24.0175 74.7721 24.1287 74.6238 24.2214C74.4755 24.3141 74.3087 24.3511 74.1419 24.3511C73.9565 24.3511 73.8083 24.277 73.697 24.1287C73.5858 23.9804 73.5302 23.8136 73.5302 23.5912C73.5302 23.4244 73.5673 23.2576 73.6229 23.0722C73.6785 22.8868 73.7712 22.683 73.8824 22.4976C73.9936 22.3122 74.1048 22.1084 74.2531 21.9415C74.4014 21.7562 74.5497 21.6079 74.6979 21.4596C74.8462 21.3113 75.0131 21.2001 75.1799 21.126C75.3467 21.0333 75.495 20.9962 75.6433 20.9962C75.7915 20.9962 75.9028 21.0518 75.9769 21.1816C76.051 21.3113 76.0881 21.4411 76.0881 21.6079C76.0881 21.6635 76.0881 21.7191 76.0696 21.7932C76.0696 21.8489 76.051 21.923 76.051 21.9786H76.1066L76.6071 20.3846C76.6812 20.1621 76.7368 19.9397 76.7925 19.7543C76.8481 19.5505 76.8666 19.4022 76.8666 19.3095C76.8666 19.2354 76.8481 19.1798 76.811 19.1427C76.7739 19.1056 76.7368 19.0871 76.6812 19.0685C76.6256 19.05 76.57 19.0315 76.5144 19.0315C76.4588 19.0315 76.4032 19.0315 76.3476 19.0315L76.3847 18.9203L77.5339 18.8276L76.2364 22.9054C76.2179 22.9795 76.1808 23.0722 76.1623 23.1649C76.1437 23.2576 76.1066 23.3502 76.0881 23.4429C76.0696 23.5356 76.051 23.6283 76.0325 23.7024C76.014 23.7765 76.014 23.8507 76.014 23.8878C76.014 23.9434 76.0325 23.9804 76.051 23.999C76.0881 24.036 76.1066 24.036 76.1623 24.036C76.2549 24.036 76.3476 23.999 76.4774 23.9248C76.5886 23.8507 76.7183 23.758 76.8481 23.6468C76.9778 23.5356 77.1076 23.4058 77.2373 23.2576C77.3671 23.1093 77.4968 22.9795 77.608 22.8498C77.7192 22.72 77.8119 22.6088 77.9046 22.4976C77.9787 22.3864 78.0529 22.3122 78.0714 22.2752L78.0158 22.4605C77.9787 22.5161 77.9046 22.5903 77.8304 22.7015C77.7378 22.8127 77.6451 22.9424 77.5153 23.0907C77.4041 23.239 77.2558 23.3873 77.1076 23.5356C76.9593 23.6839 76.811 23.8136 76.6627 23.9434C76.5144 24.0731 76.3661 24.1658 76.2179 24.2585C76.0696 24.3326 75.9398 24.3697 75.8101 24.3697C75.6989 24.3697 75.6247 24.3326 75.5691 24.277C75.5135 24.2214 75.495 24.1287 75.495 24.0546C75.495 23.9804 75.5135 23.9063 75.532 23.8136C75.5506 23.7209 75.5691 23.6468 75.5876 23.5727L75.9954 22.2566V22.2196ZM74.0307 23.4244C74.0307 23.3132 74.0492 23.1834 74.0863 23.0351C74.1234 22.8868 74.179 22.7386 74.2346 22.5717C74.2902 22.4049 74.3643 22.2566 74.457 22.1084C74.5497 21.9601 74.6423 21.8118 74.735 21.7006C74.8462 21.5894 74.9389 21.4782 75.0501 21.404C75.1613 21.3299 75.2725 21.2928 75.3838 21.2928C75.5506 21.2928 75.6618 21.3484 75.7545 21.4781C75.8471 21.6079 75.8842 21.7562 75.8842 21.923C75.8842 22.0342 75.8657 22.164 75.8101 22.3122C75.7545 22.4605 75.6989 22.6088 75.6247 22.7571C75.5506 22.9054 75.4579 23.0537 75.3467 23.2019C75.2355 23.3502 75.1428 23.48 75.0316 23.5912C74.9204 23.7024 74.8092 23.7951 74.6979 23.8692C74.5867 23.9434 74.4755 23.9804 74.3828 23.9804C74.3087 23.9804 74.2531 23.9619 74.216 23.9248C74.1604 23.8878 74.1233 23.8507 74.1048 23.7951C74.0677 23.7395 74.0492 23.6839 74.0307 23.6097C74.0307 23.5541 74.0307 23.48 74.0307 23.4244ZM80.9444 22.4791L81 22.2937C80.9259 22.4049 80.7961 22.5532 80.6478 22.7386C80.4996 22.9239 80.3142 23.1278 80.1103 23.3132C79.9064 23.4985 79.6655 23.6839 79.406 23.8136C79.1465 23.9619 78.887 24.036 78.6089 24.036C78.3865 24.036 78.2197 23.9804 78.1085 23.8878C77.9973 23.7765 77.9231 23.6097 77.9231 23.3688C77.9231 23.2761 77.9417 23.1649 77.9602 23.0722C77.9787 22.9795 77.9973 22.8683 78.0343 22.7756C78.1826 22.8127 78.3124 22.8312 78.4606 22.8312C78.6831 22.8312 78.887 22.7942 79.0723 22.7015C79.2577 22.6088 79.443 22.4976 79.5728 22.3493C79.7211 22.201 79.8323 22.0527 79.9249 21.9045C80.0176 21.7562 80.0547 21.6079 80.0547 21.4596C80.0547 21.2928 80.0176 21.163 79.9249 21.0889C79.8323 21.0148 79.7211 20.9592 79.5913 20.9592C79.4245 20.9592 79.2577 20.9962 79.0909 21.0704C78.924 21.1445 78.7572 21.2557 78.5904 21.3855C78.4236 21.5152 78.2753 21.6635 78.1455 21.8489C77.9973 22.0157 77.8861 22.201 77.7748 22.3864C77.6636 22.5717 77.5895 22.7571 77.5339 22.9424C77.4783 23.1278 77.4412 23.3132 77.4412 23.4614C77.4412 23.7395 77.5153 23.9434 77.6636 24.0917C77.8119 24.2399 78.0343 24.3141 78.3309 24.3141C78.5533 24.3141 78.7572 24.277 78.9611 24.2029C79.165 24.1287 79.3503 24.036 79.5172 23.9248C79.684 23.8136 79.8508 23.6839 79.9991 23.5541C80.1474 23.4058 80.2771 23.2761 80.4069 23.1278C80.5181 22.9795 80.6293 22.8498 80.722 22.7386C80.8146 22.6644 80.8888 22.5717 80.9444 22.4791ZM79.3318 21.1445C79.4245 21.1445 79.4986 21.1816 79.5542 21.2743C79.6098 21.3484 79.6284 21.4411 79.6284 21.5523C79.6284 21.682 79.6098 21.8118 79.5542 21.9601C79.5172 22.1084 79.443 22.2196 79.3689 22.3308C79.2947 22.442 79.2021 22.5347 79.0909 22.6088C78.9796 22.683 78.8684 22.72 78.7572 22.72C78.6831 22.72 78.6089 22.72 78.5348 22.7015C78.4606 22.683 78.405 22.6644 78.3494 22.6459C78.2938 22.6273 78.2382 22.5903 78.2012 22.5717C78.1641 22.5532 78.127 22.5347 78.1085 22.5161C78.127 22.4605 78.1826 22.3493 78.2568 22.201C78.3309 22.0527 78.4236 21.9045 78.5348 21.7562C78.646 21.6079 78.7757 21.4781 78.9055 21.3484C79.0352 21.2001 79.1835 21.1445 79.3318 21.1445Z" fill="#939598" stroke="#939598" stroke-width="0.5669" stroke-miterlimit="22.9256"/>
</g>
<defs>
<clipPath id="clip0_320_1093">
<rect width="81" height="30" fill="white" transform="translate(0 0.246826)"/>
</clipPath>
</defs>
</svg>
