<svg width="81" height="31" viewBox="0 0 81 31" fill="none" xmlns="http://www.w3.org/2000/svg">
<g clip-path="url(#clip0_315_1454)">
<rect width="81" height="30" transform="translate(0 0.246826)" fill="white"/>
<path d="M43.325 1.1471C42.3089 1.21485 41.3153 1.26001 40.2991 1.37292C39.5313 1.44067 38.7635 1.57616 37.9957 1.71165C37.5441 1.80198 37.1602 2.00521 36.9118 2.45685C36.6408 2.93107 36.2118 3.22463 35.6924 3.40529C35.5343 3.45045 35.3762 3.5182 35.2407 3.56336C34.4504 3.81176 33.8858 4.28598 33.5697 5.05376C33.389 5.46024 33.2084 5.86671 33.0503 6.29577C32.1244 8.75719 30.2953 9.99919 27.7661 10.3605C26.6596 10.5186 25.5531 10.6541 24.4692 10.8573C22.9562 11.1057 21.4884 11.5348 20.0431 12.0541C19.6592 12.1896 19.3431 12.1671 19.0269 11.9638C18.7108 11.7606 18.4172 11.5348 18.1237 11.2864C17.9882 11.1735 17.8753 10.9928 17.6946 10.767C18.2592 10.6992 18.7108 10.6541 19.185 10.5863C20.4948 10.4283 21.8045 10.225 23.0465 9.81854C23.6562 9.6153 24.2208 9.3669 24.7176 8.96043C25.0563 8.68945 25.3047 8.35072 25.5079 7.94424C25.7563 7.42486 25.7112 6.95064 25.3273 6.54417C25.0111 6.20544 24.6498 5.8893 24.2659 5.64089C23.2949 5.0086 22.2336 4.55696 21.1271 4.19565C19.2979 3.58594 17.4462 3.04398 15.6171 2.45685C15.2558 2.34394 14.8493 2.25361 14.488 1.98263C15.1203 1.48583 15.7977 1.28259 16.5204 1.16968C17.9656 0.943864 19.4334 0.966446 20.8787 1.23743C21.8497 1.41808 22.8207 1.50841 23.7917 1.6439C25.4402 1.8923 27.0661 2.18587 28.7146 2.36652C29.3694 2.45685 30.0469 2.3891 30.7018 2.32136C31.3792 2.25361 31.9212 1.93747 32.3277 1.35034C32.8696 0.605136 33.5697 0.108335 34.5181 0.0180077C35.0601 -0.0271561 35.6246 -0.00457487 36.0988 0.288989C36.9795 0.830954 37.9506 0.876119 38.9216 0.921283C40.3894 0.989028 41.8798 1.01161 43.3476 1.05677C43.325 1.07936 43.325 1.10194 43.325 1.1471Z" fill="#03CB7B"/>
<path d="M50.1674 18.3771C51.0706 17.4286 52.1094 16.7286 53.4192 16.5028C55.6773 16.1189 57.6194 16.6834 59.2001 18.4222C60.0356 19.3255 60.6002 20.3868 60.826 21.5837C61.0744 22.916 61.097 24.2709 60.5776 25.6033C60.2163 26.5291 59.7421 27.3421 59.0872 28.0873C58.2968 28.968 57.3258 29.5325 56.1516 29.8261C55.7451 29.9164 55.316 30.0293 54.887 29.9841C54.6612 29.9841 54.4579 29.9841 54.2321 29.9841C52.7643 29.939 51.4771 29.4196 50.4158 28.4034C50.2803 28.2905 50.1448 28.155 50.0319 28.0421C50.0093 28.0195 49.9867 27.9969 49.9641 27.9744C49.9641 27.9969 49.9641 28.0195 49.9641 28.0647C49.9641 28.6292 49.9641 29.1712 49.9641 29.7809C49.106 29.7809 48.3157 29.7809 47.4801 29.7809C47.4801 23.4806 47.4801 17.1351 47.4801 10.7896C48.2931 10.7896 49.106 10.7896 49.9867 10.7896C49.9867 10.9928 49.9867 11.1734 49.9867 11.3767C49.9867 13.5671 49.9867 15.735 49.9867 17.9254C49.9867 18.1287 50.0093 18.3093 50.0093 18.5126C50.0545 18.4448 50.1222 18.4222 50.1674 18.3771ZM54.2095 27.6808C54.5031 27.6808 54.7967 27.726 55.0676 27.6808C56.8064 27.2969 57.8452 26.213 58.2743 24.5193C58.4549 23.7515 58.4549 22.9612 58.2968 22.1708C57.9581 20.6127 57.1903 19.4158 55.6096 18.919C54.0966 18.4222 52.7417 18.6706 51.5223 19.7094C49.6706 21.2901 49.4447 24.0451 50.7771 25.9194C51.6126 27.0711 52.7191 27.7711 54.2095 27.6808Z" fill="#24242F"/>
<path d="M21.9851 23.3676C21.9851 23.2547 21.9851 23.1417 21.9851 23.0514C22.1206 22.9159 22.1206 22.7804 22.0077 22.6224C22.2109 19.6641 24.4465 17.2479 27.0886 16.6156C30.4081 15.8252 33.3212 17.3608 34.7213 19.9125C35.6471 21.6062 35.8504 23.4127 35.2407 25.2419C34.4277 27.6807 32.7567 29.2614 30.2501 29.826C27.0209 30.5486 24.1304 28.9453 22.7529 26.3935C22.3012 25.5354 22.0528 24.6322 21.9851 23.6837C22.0077 23.5708 21.9851 23.4579 21.9851 23.3676ZM28.7597 27.613C31.0179 27.6807 33.2083 25.8516 33.2083 23.2095C33.2083 20.6352 31.1985 18.7609 28.7597 18.7609C26.3208 18.7383 24.3788 20.7255 24.3336 23.1643C24.311 25.558 26.3434 27.6581 28.7597 27.613Z" fill="#24242F"/>
<path d="M19.0043 25.0613C19.6592 25.3323 20.3141 25.6258 20.9915 25.8968C20.3593 28.3583 17.0849 30.3229 13.8783 29.939C11.0329 29.6003 8.36828 27.2743 8.02955 23.729C7.7134 20.4546 9.97159 17.4286 12.9976 16.6383C16.1816 15.8027 19.5915 17.2706 20.9915 20.3643C20.7431 20.6804 20.3367 20.6804 20.0205 20.8611C19.7044 21.0417 19.3205 21.1546 18.9592 21.2901C18.3495 20.1159 17.4688 19.2803 16.2268 18.8739C15.3009 18.5577 14.3525 18.5351 13.4492 18.8513C11.6201 19.461 10.1974 21.1772 10.2652 23.3451C10.3329 25.3323 11.7104 27.0485 13.5395 27.5679C15.6622 28.1776 17.4914 27.3421 19.0043 25.0613Z" fill="#252530"/>
<path d="M37.2054 10.7444C38.0183 10.7444 38.8087 10.7444 39.6216 10.7444C39.6216 17.0899 39.6216 23.3902 39.6216 29.7357C38.8313 29.7357 38.0409 29.7357 37.2054 29.7357C37.2054 23.4128 37.2054 17.1125 37.2054 10.7444Z" fill="#22222D"/>
<path d="M65.252 29.7358C64.4164 29.7358 63.6261 29.7358 62.7905 29.7358C62.768 29.6003 62.7454 29.4648 62.7454 29.3293C62.7454 26.755 62.7454 24.2032 62.7454 21.6289C62.7454 19.4159 63.9422 17.6771 65.952 16.8867C66.6972 16.5931 67.4876 16.5254 68.3005 16.6383C68.3005 17.4512 68.3005 18.2416 68.3005 19.0094C67.8263 19.0997 67.3295 19.0997 66.923 19.2804C65.7714 19.7546 65.2294 20.6804 65.2068 21.9225C65.2068 23.2322 65.2068 24.5645 65.2068 25.8743C65.2068 26.9808 65.2068 28.0873 65.2068 29.1712C65.252 29.3745 65.252 29.5325 65.252 29.7358Z" fill="#23232E"/>
<path d="M44.8831 29.7357C44.0476 29.7357 43.2572 29.7357 42.4443 29.7357C42.4443 25.3548 42.4443 21.0191 42.4443 16.6382C43.2572 16.6382 44.0702 16.6382 44.8831 16.6382C44.8831 20.9965 44.8831 25.3548 44.8831 29.7357Z" fill="#22222D"/>
<path d="M69.7458 16.6382C70.5587 16.6382 71.3491 16.6382 72.1846 16.6382C72.1846 21.0191 72.1846 25.3774 72.1846 29.7583C71.3717 29.7583 70.5813 29.7583 69.7458 29.7583C69.7458 25.3774 69.7458 21.0191 69.7458 16.6382Z" fill="#22222D"/>
<path d="M70.8523 13.6124C70.2426 13.7027 69.4748 13.0027 69.52 12.1672C69.5651 11.3542 70.1748 10.7219 70.9426 10.7219C71.7782 10.7219 72.3879 11.3542 72.3653 12.2123C72.3653 13.0253 71.733 13.6124 70.8523 13.6124Z" fill="#262631"/>
<path d="M43.5282 13.6123C42.7604 13.5897 42.1959 12.98 42.2185 12.1444C42.2185 11.3315 42.8734 10.6992 43.6637 10.7218C44.4992 10.7444 45.109 11.3992 45.0864 12.2348C45.0638 13.0477 44.4089 13.6123 43.5282 13.6123Z" fill="#262631"/>
<path d="M43.325 1.14709C43.325 1.10193 43.325 1.07934 43.325 1.03418C43.4153 1.03418 43.5056 1.03418 43.596 1.03418C43.596 1.07934 43.596 1.10193 43.596 1.14709C43.5056 1.14709 43.4153 1.14709 43.325 1.14709Z" fill="#6CE0B2"/>
<path d="M50.1673 18.377C50.1221 18.3995 50.0544 18.4221 50.0092 18.4673C50.0544 18.4447 50.1221 18.4221 50.1673 18.377Z" fill="#ACACB0"/>
<path d="M49.9641 28.0195C49.9641 27.9969 49.9641 27.9744 49.9641 27.9292C49.9867 27.9518 50.0093 27.9744 50.0319 27.9969L49.9867 28.0195H49.9641Z" fill="#D6D6D8"/>
</g>
<defs>
<clipPath id="clip0_315_1454">
<rect width="81" height="30" fill="white" transform="translate(0 0.246826)"/>
</clipPath>
</defs>
</svg>
