<svg width="81" height="31" viewBox="0 0 81 31" fill="none" xmlns="http://www.w3.org/2000/svg">
<rect width="81" height="30" transform="translate(0 0.246826)" fill="white"/>
<path d="M13.3514 16.7015C13.5181 17.868 13.8822 18.9605 14.5303 19.948C14.5611 19.9974 14.5735 20.0653 14.5735 20.1208C14.5735 21.1824 14.5735 22.2378 14.5735 23.3364C14.4377 23.3364 14.3204 23.3364 14.197 23.3364C11.685 23.3364 9.17919 23.287 6.6672 23.3487C3.33433 23.4352 1.53829 21.454 0.62484 19.2197C0.124911 17.9976 -0.0540758 16.7201 0.0138159 15.4054C0.118739 13.4551 0.754452 11.7208 2.07525 10.2703C2.92081 9.34455 3.98239 8.79525 5.19827 8.52985C6.88322 8.25829 8.46941 8.52985 9.99389 9.40627C10.0001 9.25197 10.0124 9.14705 10.0124 9.03595C10.0124 7.59789 10.0062 6.15982 10.0186 4.71558C10.0186 4.60448 10.105 4.43167 10.1976 4.38229C11.6295 3.61079 13.0737 2.85164 14.5488 2.07397C14.555 2.16655 14.5735 2.24062 14.5735 2.31468C14.5735 5.34512 14.5735 8.38173 14.5673 11.4122C14.5673 11.5541 14.5118 11.7146 14.4377 11.838C13.9439 12.6651 13.5613 13.5353 13.4564 14.4981C13.3761 15.2326 13.3823 15.9732 13.3514 16.7015ZM8.4941 19.911C8.77184 19.911 9.04958 19.911 9.32731 19.911C9.99389 19.911 10.0001 19.911 9.99389 19.2444C9.98154 17.257 9.98154 15.2635 9.93834 13.2761C9.93217 12.9675 9.76552 12.6095 9.56185 12.3626C8.93231 11.5973 7.82135 11.3443 6.89556 11.7208C5.69203 12.2083 5.24764 13.2699 5.02545 14.4241C4.89584 15.1092 4.82795 15.8066 4.93287 16.5164C5.06248 17.4113 5.27233 18.263 5.81546 18.9975C6.25367 19.59 6.83384 19.9295 7.59916 19.9048C7.90159 19.9048 8.19784 19.911 8.4941 19.911Z" fill="#2E6076"/>
<path d="M45.816 12.3258C45.8222 12.0666 45.8345 11.8136 45.8345 11.5543C45.8345 10.2459 45.8345 8.94361 45.8345 7.63515C45.8345 6.9192 45.816 6.20943 46.0443 5.50582C46.2357 4.91949 46.0752 4.34549 45.816 3.79002C45.7234 3.58634 45.6925 3.34563 45.6802 3.11727C45.6555 2.77164 45.674 2.42601 45.674 2.03101C46.5751 2.50625 47.433 2.96297 48.2909 3.41353C48.8464 3.70978 49.3957 4.01221 49.9574 4.28995C50.1796 4.39487 50.2289 4.53682 50.2228 4.76519C50.2104 6.15388 50.2166 7.54257 50.2166 8.93126C50.2166 9.04236 50.2166 9.15345 50.2166 9.27689C50.7289 9.07322 51.2103 8.84486 51.7102 8.69056C52.5311 8.43751 53.3581 8.33876 54.2346 8.40665C55.1048 8.47454 55.9072 8.67821 56.6725 9.07939C57.7587 9.64721 58.5364 10.5113 59.1289 11.5667C59.1783 11.6531 59.1721 11.7765 59.1598 11.8753C59.0425 12.7702 59.1968 13.5602 59.9745 14.1342C60.0424 14.1836 60.1103 14.2762 60.1103 14.3564C60.1473 14.8625 60.172 15.3748 60.1843 15.8809C60.1843 15.9426 60.1226 16.0229 60.0609 16.0661C59.0795 16.7635 58.5056 17.7201 58.3451 18.9052C58.2648 19.4853 58.3636 20.0655 58.5796 20.6148C58.6599 20.8123 58.6166 20.9481 58.487 21.1086C57.8884 21.8554 57.1601 22.4232 56.296 22.8182C55.4875 23.1576 54.6419 23.2687 53.7717 23.2687C51.2658 23.2564 48.7538 23.2626 46.248 23.2626C46.1246 23.2626 46.0011 23.2626 45.8345 23.2626C45.8345 23.1206 45.8345 22.9972 45.8345 22.8799C45.8345 19.4792 45.8345 16.0784 45.8345 12.6715C45.8345 12.5666 45.8222 12.4431 45.816 12.3258ZM50.2351 19.8556C51.1177 19.8556 51.9509 19.8618 52.7841 19.8556C53.3581 19.8495 53.8395 19.6149 54.2222 19.1891C54.8826 18.4608 55.1789 17.5782 55.2406 16.6154C55.2776 16.0414 55.2653 15.455 55.2406 14.881C55.2035 14.0849 54.9937 13.3319 54.5431 12.6591C54.0741 11.9555 53.4137 11.5729 52.5805 11.5111C51.2782 11.4186 50.2598 12.3258 50.2413 13.6281C50.2228 14.881 50.2351 16.1339 50.2351 17.3869C50.2351 18.2016 50.2351 19.0101 50.2351 19.8556Z" fill="#2E6076"/>
<path d="M40.7241 20.0962C40.7241 21.1948 40.7241 22.2502 40.7241 23.3303C40.5266 23.3303 40.3353 23.3303 40.1439 23.3303C38.1874 23.3303 36.2371 23.3303 34.2806 23.3303C33.3177 23.3303 32.3549 23.2624 31.4415 22.9291C28.7011 21.9416 26.9791 20.0592 26.4915 17.1522C26.0842 14.7389 26.7693 12.622 28.4172 10.8259C29.5158 9.63472 30.9045 8.9126 32.4907 8.64104C34.2127 8.35095 35.9408 8.33861 37.6196 8.92495C38.8108 9.33847 39.823 10.0236 40.5945 11.0296C41.1006 11.69 41.2919 12.4245 41.1253 13.2577C40.9278 14.2452 40.0082 14.8315 39.1009 14.9735C38.317 15.0969 37.6505 14.8686 37.1073 14.3069C36.916 14.1032 36.7926 13.8317 36.6506 13.5848C36.4469 13.2268 36.2741 12.8565 36.0643 12.5047C35.5026 11.5604 34.5707 11.2641 33.5523 11.6776C32.682 12.0294 32.1636 12.7145 31.8426 13.5539C31.1329 15.3808 31.3057 17.1275 32.4845 18.7075C33.1696 19.6271 34.1448 20.0777 35.3051 20.0839C36.9901 20.0962 38.6812 20.0839 40.3661 20.0839C40.4711 20.0962 40.5822 20.0962 40.7241 20.0962Z" fill="#2E6076"/>
<path d="M20.2517 23.3056C19.6345 23.139 18.9865 23.0464 18.4001 22.7934C16.1597 21.8429 14.6414 20.2135 13.9501 17.8558C13.8452 17.4978 13.7897 17.1275 13.7094 16.7633C13.6909 16.4794 13.6477 16.1955 13.6539 15.9116C13.7403 12.9861 14.9747 10.7395 17.5916 9.3323C18.4001 8.90026 19.258 8.59783 20.19 8.55463C20.8874 8.52377 21.5848 8.44353 22.2761 8.49908C24.4116 8.67807 26.1336 9.59152 27.2692 11.4678C27.3186 11.5542 27.3186 11.7332 27.2631 11.8134C26.6829 12.7022 26.3434 13.6835 26.1398 14.7143C26.0595 15.1278 26.0719 15.566 26.041 16.0165C23.6093 16.0165 21.1775 16.0165 18.7457 16.0165C18.7334 17.6768 19.6592 19.5099 21.6034 20.0098C21.8194 20.0653 22.0539 20.053 22.2761 20.053C23.7265 20.0592 25.1769 20.053 26.6273 20.053C27.3124 20.053 27.3124 20.053 27.7013 20.6702C26.473 21.8058 25.109 22.7069 23.4611 23.102C22.6094 23.3056 21.7453 23.392 20.8751 23.355C20.6529 23.3612 20.4554 23.3303 20.2517 23.3056ZM18.9865 13.6033C20.5726 13.6033 22.1588 13.6033 23.7512 13.6033C23.5846 11.9183 22.5538 11.2147 21.4059 11.2209C20.1715 11.2333 19.0914 12.1405 18.9865 13.6033Z" fill="#2E6076"/>
<path d="M43.2114 9.85684C43.9582 9.50504 44.6988 9.14707 45.495 8.7644C45.495 9.96794 45.495 11.1159 45.495 12.2577C45.4889 12.3812 45.4827 12.5046 45.4827 12.6281C45.4827 16.072 45.4827 19.516 45.4827 22.9599C45.4827 23.071 45.4827 23.1821 45.4827 23.3179C44.0076 23.3179 42.551 23.3179 41.0574 23.3179C41.0574 23.2006 41.0574 23.0895 41.0574 22.9846C41.0574 20.1393 41.0574 17.2879 41.0636 14.4426C41.0636 14.2821 41.1253 14.1093 41.1932 13.9612C41.6129 13.1156 41.6129 12.2701 41.187 11.4307C41.1191 11.2949 41.0327 11.1653 40.9401 11.0048C41.7054 10.616 42.4584 10.2333 43.2114 9.85684Z" fill="#2E6076"/>
<path d="M60.5485 27.0706C60.5485 26.7003 60.5485 26.3361 60.5485 25.9473C60.6843 25.9473 60.7768 25.9473 60.8941 25.9473C60.9065 26.046 60.9126 26.1448 60.9311 26.3053C61.178 25.9905 61.4681 25.8856 61.8323 25.8856C62.2273 25.8856 62.4248 26.1078 62.6099 26.4164C62.8568 26.0584 63.1531 25.8794 63.5974 25.8794C63.9616 25.8794 64.3504 26.1695 64.3689 26.5645C64.3998 27.194 64.3751 27.8297 64.3751 28.484C64.301 28.4901 64.2023 28.4963 64.0603 28.5025C64.0603 28.2062 64.0603 27.9223 64.0603 27.6384C64.0603 27.373 64.0603 27.1014 64.0542 26.836C64.0418 26.5521 63.9492 26.2991 63.6468 26.2189C63.3382 26.1386 63.0481 26.225 62.8938 26.4966C62.7642 26.7126 62.684 26.9842 62.6593 27.2372C62.6223 27.6446 62.647 28.0581 62.647 28.484C62.5359 28.484 62.4371 28.484 62.3075 28.484C62.3075 28.0581 62.3075 27.6384 62.3075 27.2249C62.3075 27.1138 62.3075 26.9965 62.3013 26.8854C62.2705 26.4534 62.1223 26.2497 61.8137 26.2065C61.4619 26.1571 61.0854 26.3855 60.9929 26.7558C60.9188 27.0582 60.9065 27.373 60.8694 27.6878C60.8694 27.9408 60.8694 28.2001 60.8694 28.4778C60.7645 28.484 60.6843 28.4901 60.5485 28.5025C60.5485 28.0149 60.5485 27.5397 60.5485 27.0706Z" fill="#4B4949"/>
<path d="M67.5043 14.3934C67.4487 13.6527 67.4179 12.9245 67.3315 12.2085C67.2821 11.832 66.9735 11.5913 66.6279 11.4494C66.0847 11.2272 65.5231 11.1901 64.9553 11.3815C64.5047 11.5358 64.1776 11.8197 63.9616 12.2517C63.7641 12.6467 63.5913 13.0602 63.3567 13.4244C62.7457 14.3749 61.6101 14.6526 60.5732 14.2082C59.561 13.7762 59.24 12.585 59.561 11.6037C59.9436 10.4125 60.8879 9.81996 61.9125 9.31386C62.7025 8.92502 63.5604 8.69666 64.4307 8.59174C65.4182 8.47447 66.3995 8.45595 67.3932 8.59791C68.1277 8.70283 68.8251 8.86947 69.4855 9.18424C70.473 9.65949 71.3556 10.2767 71.621 11.4247C71.7629 12.0419 71.8494 12.6899 71.8494 13.3195C71.874 16.5597 71.8617 19.8 71.8617 23.0403C71.8617 23.1082 71.8494 23.1823 71.8432 23.2748C71.7197 23.2748 71.6086 23.2748 71.4976 23.2748C68.7202 23.2748 65.9428 23.2748 63.1654 23.2748C62.5482 23.2748 61.9372 23.207 61.357 22.9909C59.8881 22.4478 58.9499 21.3924 58.7278 19.8556C58.4624 18.0657 59.3882 16.5474 61.0669 15.7759C62.4124 15.1587 63.8381 14.8501 65.2947 14.665C65.9983 14.5785 66.7081 14.4921 67.5043 14.3934ZM67.4549 16.8005C66.381 16.9856 65.3256 17.0782 64.3628 17.5596C63.8999 17.788 63.5666 18.1398 63.4431 18.652C63.4061 18.8187 63.3814 19.0224 63.437 19.1767C63.7147 19.979 64.5171 20.4481 65.3256 20.195C66.0045 19.9852 66.6402 19.6519 67.2944 19.3618C67.3685 19.331 67.4487 19.2137 67.4487 19.1396C67.4611 18.3805 67.4549 17.6213 67.4549 16.8005Z" fill="#2E6076"/>
<path d="M71.8246 8.43119C71.8246 7.0857 71.8246 5.74021 71.8246 4.41324C73.3491 3.60471 74.8427 2.82087 76.3857 2C76.3857 2.14813 76.3857 2.25305 76.3857 2.36415C76.3857 5.88834 76.3857 9.41253 76.3857 12.9367C76.3857 13.0602 76.3981 13.1836 76.4042 13.307C76.3981 13.4305 76.3857 13.5539 76.3857 13.6774C76.3857 16.7387 76.3857 19.8061 76.3857 22.8674C76.3857 22.9909 76.3857 23.1081 76.3857 23.2439C74.9847 23.2439 73.6207 23.2439 72.2073 23.2439C72.2073 23.1266 72.2073 23.0094 72.2073 22.8921C72.2073 19.6765 72.2258 16.4547 72.1949 13.2392C72.1888 12.5973 72.016 11.9492 71.9172 11.3073C71.8864 11.1098 71.8431 10.9123 71.837 10.7148C71.8308 9.95567 71.8308 9.19651 71.8246 8.43119Z" fill="#2E6076"/>
<path d="M45.7419 5.03661C45.8468 6.40061 44.7112 7.69673 43.0941 7.67821C41.7055 7.65969 40.576 6.49319 40.539 5.04278C40.5143 3.8948 41.6437 2.29626 43.3349 2.42587C44.5014 2.51845 45.8592 3.58002 45.7419 5.03661Z" fill="#2E6076"/>
<path d="M73.4849 27.2556C72.7258 27.2556 71.9666 27.2556 71.2136 27.2556C71.1581 27.5827 71.4111 28.0085 71.7444 28.169C72.2073 28.3912 72.6579 28.2369 73.1578 27.6567C73.238 27.6999 73.3244 27.7493 73.4047 27.7925C73.0591 28.5887 72.4048 28.6504 71.7568 28.5208C71.2075 28.4097 70.7137 27.6814 70.8063 27.1383C70.9112 26.4902 71.3186 25.9533 71.9296 25.8977C72.8245 25.8113 73.4787 26.2187 73.4849 27.2556ZM73.0961 26.9408C72.9726 26.447 72.6394 26.194 72.1518 26.2002C71.695 26.2063 71.3803 26.4655 71.2692 26.9408C71.8679 26.9408 72.4727 26.9408 73.0961 26.9408Z" fill="#4B4949"/>
<path d="M66.3439 25.8977C67.0784 25.8977 67.6586 26.41 67.6586 27.0642C67.6586 28.0888 67.208 28.5578 66.2267 28.5578C65.5292 28.5578 64.9861 27.9777 64.9861 27.2309C64.9861 26.4285 65.5292 25.8977 66.3439 25.8977ZM67.2821 27.237C67.2821 26.626 66.8871 26.2001 66.3254 26.2001C65.807 26.2001 65.307 26.7062 65.307 27.2309C65.307 27.7246 65.8564 28.2801 66.2514 28.2554C66.9118 28.2184 67.2821 27.8851 67.2821 27.237Z" fill="#4B4949"/>
<path d="M70.4545 25.9967C70.0656 26.8423 69.683 27.6755 69.2633 28.6013C68.8374 27.6755 68.4424 26.8299 68.0536 25.9906C68.3375 25.898 68.4733 26.0214 68.5782 26.2806C68.7757 26.7682 69.0164 27.2435 69.2633 27.7866C69.5225 27.225 69.757 26.7312 69.9669 26.2313C70.0533 26.0029 70.1706 25.9103 70.4545 25.9967Z" fill="#4B4949"/>
<path d="M76.4228 26.2003C76.2932 26.3052 76.2191 26.3731 76.1389 26.4348C75.7438 26.1385 75.4538 26.12 75.2809 26.3854C75.1575 26.5767 75.2686 26.7372 75.7006 27.015C75.8179 27.089 75.9414 27.1631 76.0586 27.2433C76.361 27.4532 76.4598 27.879 76.2932 28.1876C76.1142 28.5209 75.676 28.6937 75.3365 28.5456C75.1637 28.4715 75.0032 28.3666 74.8057 28.2555C74.8983 28.1383 74.96 28.058 75.0217 27.9778C75.1575 28.058 75.2748 28.1444 75.3982 28.2C75.6389 28.2987 75.9043 28.2123 76.0092 27.9901C76.1265 27.7432 76.0031 27.5766 75.7994 27.447C75.6019 27.3174 75.3797 27.2186 75.2007 27.0705C74.8304 26.7619 74.7995 26.2558 75.1884 26.0028C75.3859 25.8731 75.7192 25.9287 75.9907 25.9472C76.1265 25.9657 76.2438 26.0892 76.4228 26.2003Z" fill="#4B4949"/>
<path d="M74.3983 28.4838C74.2934 28.4838 74.1947 28.4838 74.0774 28.4838C74.0774 27.6567 74.0774 26.8297 74.0774 25.9841C74.1761 25.9841 74.2811 25.9841 74.3983 25.9841C74.3983 26.8173 74.3983 27.6444 74.3983 28.4838Z" fill="#4B4949"/>
<path d="M67.0476 24.7437C66.6464 24.9967 66.5353 25.5028 66.0107 25.472C66.2575 24.8609 66.4489 24.7067 67.0476 24.7437Z" fill="#4B4949"/>
<path d="M74.2934 24.8611C74.3613 24.9537 74.5033 25.0648 74.4848 25.1388C74.4601 25.2437 74.3243 25.398 74.2379 25.398C74.1453 25.398 73.9972 25.2623 73.9663 25.1573C73.9478 25.0833 74.0836 24.966 74.1515 24.8673C74.2009 24.8673 74.2502 24.8611 74.2934 24.8611Z" fill="#4B4949"/>
<path d="M80.9962 3.76523C80.99 4.62931 80.3111 5.28353 79.447 5.28971C78.6138 5.29588 77.8794 4.56141 77.8917 3.68499C77.904 2.89498 78.62 2.19138 79.4347 2.19755C80.4963 2.20372 81.0517 3.05545 80.9962 3.76523ZM80.737 3.75289C80.737 2.93819 80.237 2.44443 79.41 2.44443C78.7187 2.44443 78.1509 3.01842 78.1448 3.7282C78.1386 4.40094 78.7434 5.10455 79.3668 5.08603C80.0457 5.06751 80.7987 4.6293 80.737 3.75289Z" fill="#4B4949"/>
<path d="M78.8113 2.87646C79.1446 2.87646 79.4408 2.87646 79.7371 2.87646C80.1012 2.87646 80.3358 3.25295 80.1321 3.56155C80.0395 3.70351 80.0951 3.7714 80.1259 3.88867C80.1815 4.11086 80.1877 4.35156 80.2185 4.59227C80.0025 4.66634 79.8852 4.59844 79.8667 4.34539C79.8359 3.9257 79.8359 3.9257 79.3915 3.9257C79.2927 3.9257 79.1878 3.9257 79.0705 3.9257C79.0705 4.16023 79.0705 4.37008 79.0705 4.5861C78.8915 4.64165 78.8051 4.62313 78.8051 4.42563C78.8175 3.9257 78.8113 3.4196 78.8113 2.87646ZM79.1446 3.12334C79.1446 3.3085 79.1446 3.45663 79.1446 3.60476C79.3359 3.60476 79.5149 3.63562 79.6754 3.59241C79.768 3.56773 79.8605 3.42577 79.8791 3.32085C79.8914 3.27147 79.7371 3.14803 79.6445 3.12952C79.4902 3.10483 79.3236 3.12334 79.1446 3.12334Z" fill="#4B4949"/>
</svg>
