<svg width="81" height="31" viewBox="0 0 81 31" fill="none" xmlns="http://www.w3.org/2000/svg">
<g clip-path="url(#clip0_863_1506)">
<rect width="81" height="30" transform="translate(0 0.246826)" fill="white"/>
<path d="M35.7429 0.246826C42.7828 0.470105 49.0083 2.04619 54.6166 5.6712C56.1664 6.66938 57.5717 7.87772 58.5174 9.49321C59.6995 11.4896 59.8308 13.6961 59.6207 15.9158C59.2529 19.6852 58.0446 23.1658 55.7855 26.2391C54.6166 27.8284 53.2244 29.2337 51.2674 29.7853C50.1773 30.1006 48.9952 30.2319 47.8525 30.245C44.4902 30.2844 41.1936 29.6671 37.9494 28.8528C34.2456 27.9203 30.6338 26.7251 27.2977 24.8601C26.0631 24.164 24.9073 23.3365 23.7909 22.4565C22.1754 21.1694 21.3742 19.37 21.3086 17.3605C21.1247 11.5684 23.0948 6.60372 27.3502 2.62409C28.5717 1.48143 30.069 0.864128 31.7108 0.653983C33.1818 0.456972 34.6659 0.351899 35.7429 0.246826ZM39.8801 12.6191C39.5912 12.6191 39.3022 12.6454 39.0264 12.6191C38.3697 12.5272 38.2121 12.8161 38.2253 13.4334C38.2647 15.3379 38.2253 17.2423 38.2384 19.1468C38.2384 20.3814 38.0939 20.1843 39.3154 20.2369C39.8802 20.2631 40.064 20.1187 40.0246 19.5014C39.959 18.2405 39.9852 16.9665 40.0115 15.6925C40.0115 15.4823 40.2085 15.2459 40.3792 15.0883C40.4318 15.0358 40.7601 15.1803 40.8389 15.2985C40.944 15.4692 40.944 15.7188 40.944 15.9289C40.9571 17.1372 41.0097 18.3324 40.9571 19.5408C40.9309 20.2763 41.3512 20.1843 41.824 20.2237C42.3625 20.2631 42.612 20.1318 42.5989 19.5145C42.5464 18.293 42.5726 17.0716 42.5858 15.837C42.5858 15.5218 42.5332 15.0752 43.0192 15.1409C43.1899 15.1671 43.4132 15.5612 43.4263 15.8107C43.492 16.7958 43.4789 17.7808 43.492 18.7659C43.492 19.2387 43.492 19.6984 43.492 20.1843C44.0699 20.1843 44.5165 20.1843 45.0287 20.1843C45.0418 19.9348 45.0681 19.7247 45.0681 19.5145C45.0681 18.096 45.0812 16.6644 45.0418 15.2459C45.0287 14.7074 44.9105 14.1558 44.7529 13.6436C44.5559 12.9737 43.9648 12.514 43.3869 12.6585C43.0061 12.7505 42.6908 13.0788 42.4019 13.2758C42.0473 13.0657 41.6795 12.6717 41.2986 12.6848C40.8915 12.6979 40.5106 13.0788 40.0772 13.3152C40.0378 13.1051 39.959 12.8818 39.8801 12.6191ZM28.204 13.0788C27.1401 12.3827 26.5622 12.5009 25.9843 13.5254C25.7742 13.8931 25.6166 14.3265 25.5246 14.7468C25.1963 16.3229 25.2225 17.8859 25.9449 19.3569C26.444 20.3814 27.2058 20.4864 28.0332 19.7115C28.1252 19.6327 28.2302 19.5802 28.3616 19.4882C28.4404 19.7641 28.506 19.9742 28.5849 20.2106C28.9263 20.2106 29.2284 20.1843 29.5305 20.2106C30.0033 20.25 30.1215 20.0399 30.1215 19.6064C30.1084 16.3492 30.1215 13.0919 30.1084 9.82156C30.1084 9.65082 30.0427 9.34873 29.9902 9.34873C29.4911 9.30933 28.9789 9.2568 28.506 9.34873C28.3616 9.375 28.2171 9.84783 28.2171 10.1105C28.1777 11.0693 28.204 12.0281 28.204 13.0788ZM46.2896 14.2477C46.9463 14.3528 47.5504 14.3922 48.1283 14.5498C48.3254 14.6024 48.4436 14.9176 48.6012 15.1146C48.4304 15.2328 48.2728 15.4035 48.0889 15.4429C46.6705 15.745 45.8956 17.1635 46.0926 18.7002C46.2764 20.1843 47.4716 20.6703 48.6406 19.7641C48.7851 19.6458 48.9427 19.5539 49.1134 19.4357C49.363 20.2369 49.9146 20.3945 51.0966 20.0661C51.1755 18.2274 50.939 16.428 50.4925 14.6418C49.954 12.514 48.1021 12.2251 46.6573 12.6191C46.5129 12.6585 46.329 12.8555 46.3158 13C46.2633 13.4334 46.2896 13.8931 46.2896 14.2477ZM55.5622 18.2274C55.2602 18.2274 55.0369 18.2142 54.8267 18.2274C54.1832 18.2668 53.9336 17.991 53.973 17.3343C54.0255 16.5068 53.9861 15.6662 53.9861 14.8388C53.9861 13.7749 53.9861 13.7881 55.0237 13.7092C55.2207 13.6961 55.536 13.4991 55.5622 13.3546C55.6279 12.9212 55.5885 12.4615 55.5885 11.9755C55.1813 11.9755 54.9055 11.9624 54.6166 11.9755C54.1963 12.0018 53.9861 11.7917 54.0387 11.3845C54.1306 10.6621 53.7629 10.5177 53.1587 10.5965C52.988 10.6227 52.8041 10.6227 52.6333 10.6096C52.1999 10.5965 51.9766 10.7541 52.0292 11.2269C52.0817 11.6735 51.9635 11.9887 51.4119 12.015C51.2937 12.015 51.1098 12.2645 51.0704 12.4352C51.0047 12.6585 51.0704 12.9081 51.0441 13.1576C51.0047 13.5385 51.1492 13.7486 51.5563 13.7092C52.1474 13.6436 52.2262 13.9457 52.2262 14.4579C52.213 15.64 52.213 16.822 52.2787 18.0041C52.3575 19.3438 53.6315 20.4208 54.8661 20.1975C55.1157 20.1581 55.4703 19.8823 55.536 19.659C55.641 19.2124 55.5622 18.7396 55.5622 18.2274ZM37.3453 13.2758C37.1877 13.0131 37.0826 12.5666 36.8724 12.514C35.3489 12.1726 33.9304 13.6698 34.2982 15.1803C34.4558 15.7976 34.6922 16.3886 34.8761 16.9928C35.0468 17.5707 35.0337 18.0698 34.377 18.3718C34.2456 18.4375 34.1406 18.7002 34.1406 18.8841C34.1406 19.1205 34.2456 19.3438 34.3113 19.5802C34.4952 20.2763 34.6003 20.342 35.3095 20.1187C36.8856 19.6196 37.4503 18.293 36.8199 16.5987C36.6229 16.0734 36.3996 15.548 36.2814 14.9964C36.242 14.7994 36.4128 14.3791 36.5441 14.366C37.1877 14.2477 37.2402 13.8406 37.3453 13.2758ZM31.3036 16.4017C31.3036 17.2948 31.2905 18.188 31.3036 19.0811C31.3167 20.3814 31.1329 20.1712 32.4594 20.2237C33.0504 20.25 33.1949 20.0267 33.1818 19.4751C33.1292 17.5969 33.1292 15.7188 33.103 13.8537C33.0898 12.5666 33.103 12.5797 31.8158 12.6454C31.4218 12.6717 31.2773 12.803 31.2905 13.197C31.3167 14.2609 31.3036 15.3247 31.3036 16.4017ZM33.0767 9.19113C32.4463 9.28307 31.6714 9.17799 31.4087 9.49321C31.1329 9.80843 31.146 10.7541 31.4349 11.0693C31.7108 11.3845 32.4857 11.2532 33.0898 11.3188C33.0767 10.5702 33.0767 9.97917 33.0767 9.19113Z" fill="#ED1C24"/>
<path d="M39.8803 12.6192C39.9722 12.8819 40.0379 13.1051 40.1036 13.289C40.5239 13.0526 40.9179 12.6717 41.325 12.6586C41.6928 12.6454 42.0737 13.0526 42.4283 13.2496C42.7172 13.0657 43.0325 12.7242 43.4133 12.6323C43.9912 12.501 44.5691 12.9475 44.7793 13.6174C44.9369 14.1296 45.0551 14.6812 45.0682 15.2197C45.1076 16.6382 45.0945 18.0567 45.0945 19.4883C45.0945 19.6984 45.0682 19.9086 45.0551 20.1581C44.556 20.1581 44.0963 20.1581 43.5184 20.1581C43.5184 19.6853 43.5184 19.2125 43.5184 18.7397C43.5053 17.7546 43.5184 16.7695 43.4527 15.7845C43.4396 15.5481 43.2163 15.1409 43.0456 15.1147C42.5596 15.0621 42.6122 15.4955 42.6122 15.8108C42.599 17.0322 42.5859 18.2668 42.6253 19.4883C42.6516 20.1056 42.402 20.2369 41.8504 20.1975C41.3776 20.1713 40.9441 20.2632 40.9835 19.5146C41.0361 18.3194 40.9835 17.111 40.9704 15.9027C40.9704 15.6926 40.9573 15.443 40.8653 15.2723C40.7865 15.1409 40.4582 15.0096 40.4056 15.0621C40.2349 15.2197 40.051 15.4561 40.0379 15.6663C40.0116 16.9403 39.9854 18.2012 40.051 19.4752C40.0904 20.0793 39.9066 20.2238 39.3418 20.2107C38.1203 20.1581 38.2648 20.3551 38.2648 19.1205C38.2517 17.2161 38.2911 15.3117 38.2517 13.4072C38.2385 12.7899 38.3961 12.501 39.0528 12.5929C39.3024 12.6586 39.5913 12.6192 39.8803 12.6192Z" fill="white"/>
<path d="M28.2038 13.079C28.2038 12.0283 28.1775 11.0695 28.2169 10.1107C28.2301 9.8349 28.3614 9.37521 28.5059 9.34894C28.9787 9.257 29.4909 9.30954 29.99 9.34894C30.0426 9.34894 30.1082 9.65102 30.1082 9.82177C30.1082 13.079 30.1082 16.3363 30.1214 19.6066C30.1214 20.0532 30.0032 20.2634 29.5303 20.2108C29.2282 20.1845 28.9262 20.2108 28.5847 20.2108C28.519 19.9744 28.4533 19.7643 28.3614 19.4884C28.2301 19.5804 28.1118 19.6329 28.033 19.7117C27.2056 20.4866 26.4438 20.3816 25.9447 19.3571C25.2355 17.8861 25.1961 16.3231 25.5244 14.747C25.6164 14.3268 25.774 13.9065 25.9841 13.5256C26.562 12.5011 27.1399 12.3829 28.2038 13.079ZM28.1775 14.9572C27.4683 15.0754 27.1137 15.4957 27.0217 16.1655C26.9429 16.6909 27.2844 17.5315 27.6784 17.6365C27.8098 17.6759 28.1512 17.4658 28.1512 17.3607C28.2038 16.5727 28.1775 15.7978 28.1775 14.9572Z" fill="white"/>
<path d="M46.2894 14.2478C46.2894 13.8932 46.2631 13.4335 46.3025 12.9869C46.3156 12.8424 46.4995 12.6454 46.644 12.606C48.0756 12.212 49.9406 12.4878 50.4791 14.6287C50.9257 16.4149 51.1621 18.2274 51.0833 20.053C49.9012 20.3814 49.3496 20.2238 49.1001 19.4226C48.9293 19.5408 48.7717 19.6328 48.6272 19.751C47.4583 20.6441 46.2631 20.1581 46.0792 18.6871C45.8822 17.1635 46.6703 15.7451 48.0756 15.4299C48.2595 15.3904 48.4171 15.2197 48.5878 15.1015C48.4302 14.9045 48.312 14.5893 48.115 14.5367C47.5502 14.3923 46.9592 14.3397 46.2894 14.2478ZM49.0738 17.4131C49.0738 17.308 49.1001 17.1898 49.0738 17.0847C48.995 16.8483 48.8768 16.625 48.7717 16.3886C48.601 16.5856 48.4039 16.7827 48.2595 16.9928C48.1938 17.0847 48.1675 17.2686 48.2201 17.3737C48.3777 17.702 48.5747 18.0173 48.7454 18.3325C48.8636 18.0435 48.9687 17.7546 49.0869 17.4656C49.0738 17.4525 49.0738 17.4262 49.0738 17.4131Z" fill="white"/>
<path d="M55.5621 18.2274C55.5621 18.7528 55.6409 19.2256 55.5358 19.6459C55.4833 19.8692 55.1287 20.1318 54.866 20.1844C53.6314 20.4077 52.3574 19.3307 52.2786 17.991C52.2129 16.8089 52.1998 15.6269 52.226 14.4448C52.2392 13.9326 52.1472 13.6305 51.5562 13.6962C51.149 13.7487 51.0046 13.5385 51.044 13.1445C51.0702 12.9081 51.0046 12.6586 51.0702 12.4222C51.1096 12.2514 51.2804 12.0019 51.4117 12.0019C51.9633 11.9756 52.0815 11.6735 52.029 11.2138C51.9765 10.741 52.2129 10.5834 52.6332 10.5965C52.8039 10.5965 52.9878 10.6097 53.1585 10.5834C53.7627 10.5046 54.1305 10.6622 54.0385 11.3714C53.986 11.7786 54.1961 11.9756 54.6164 11.9625C54.8922 11.9493 55.1812 11.9625 55.5883 11.9625C55.5883 12.4484 55.6409 12.9081 55.5621 13.3415C55.5358 13.486 55.2206 13.683 55.0236 13.6962C53.986 13.775 53.986 13.7618 53.986 14.8257C53.986 15.6531 54.0254 16.4937 53.9729 17.3212C53.9335 17.9779 54.183 18.2537 54.8266 18.2143C55.0499 18.2143 55.26 18.2274 55.5621 18.2274Z" fill="white"/>
<path d="M37.3453 13.2757C37.2402 13.8405 37.1745 14.2476 36.5441 14.3527C36.4128 14.379 36.242 14.7993 36.2814 14.9831C36.3996 15.5348 36.6229 16.0601 36.8199 16.5855C37.4503 18.2798 36.8856 19.6063 35.3095 20.1054C34.6003 20.3287 34.482 20.263 34.3113 19.5669C34.2456 19.3305 34.1406 19.1072 34.1406 18.8708C34.1406 18.6869 34.2456 18.4243 34.377 18.3586C35.0337 18.0565 35.0468 17.5574 34.8761 16.9795C34.6922 16.3753 34.4558 15.7843 34.2982 15.167C33.9173 13.6566 35.3358 12.1593 36.8724 12.5008C37.0826 12.5533 37.2008 13.013 37.3453 13.2757Z" fill="white"/>
<path d="M31.3038 16.4016C31.3038 15.3377 31.3169 14.2607 31.3038 13.1969C31.2907 12.8029 31.4351 12.6715 31.8292 12.6453C33.1032 12.5796 33.1032 12.5665 33.1163 13.8536C33.1294 15.7318 33.1426 17.6099 33.1951 19.475C33.2082 20.0266 33.0638 20.2499 32.4727 20.2236C31.1462 20.1711 31.3301 20.3681 31.3169 19.0809C31.3038 18.1878 31.3038 17.2947 31.3038 16.4016Z" fill="white"/>
<path d="M33.0765 9.19116C33.0765 9.97921 33.0765 10.5702 33.0765 11.3189C32.4724 11.2532 31.6975 11.3714 31.4216 11.0693C31.1458 10.7541 31.1327 9.80846 31.3954 9.49324C31.6712 9.17803 32.4461 9.2831 33.0765 9.19116Z" fill="white"/>
<path d="M28.1777 14.957C28.1777 15.7976 28.2039 16.5725 28.1514 17.3474C28.1514 17.4525 27.8099 17.6626 27.6786 17.6232C27.2845 17.5182 26.9562 16.6776 27.0219 16.1522C27.1269 15.4955 27.4684 15.0884 28.1777 14.957Z" fill="#ED1C24"/>
<path d="M49.074 17.4129C49.074 17.4392 49.074 17.4523 49.074 17.4786C48.9689 17.7676 48.8507 18.0565 48.7325 18.3455C48.5486 18.0302 48.3647 17.715 48.2071 17.3867C48.1546 17.2816 48.1808 17.1109 48.2465 17.0058C48.391 16.7825 48.588 16.5986 48.7587 16.4016C48.8638 16.6249 48.982 16.8613 49.0608 17.0977C49.1002 17.1765 49.074 17.2947 49.074 17.4129Z" fill="#ED1C24"/>
</g>
<defs>
<clipPath id="clip0_863_1506">
<rect width="81" height="30" fill="white" transform="translate(0 0.246826)"/>
</clipPath>
</defs>
</svg>
