<svg width="74" height="29" viewBox="0 0 74 29" fill="none" xmlns="http://www.w3.org/2000/svg">
<g clip-path="url(#clip0_218_1299)">
<path fill-rule="evenodd" clip-rule="evenodd" d="M29.2394 14.5618C29.2394 6.65758 22.8298 0.246826 14.9272 0.246826C7.02463 0.246826 0.615234 6.65758 0.615234 14.5618C0.615234 22.4659 7.02463 28.8767 14.9272 28.8767C22.8298 28.8767 29.2394 22.4659 29.2394 14.5618ZM18.1243 13.804V13.651C18.117 12.653 18.0004 11.6841 17.4832 10.7662C16.9661 9.82647 16.1941 8.98139 15.1963 8.53699C14.4752 8.2092 13.572 8.06347 12.7781 8.06347H10.2216H7.09697V19.5155H8.85967C8.74315 19.5228 8.8159 19.5445 12.7708 19.5445C13.5647 19.5445 14.4679 19.3988 15.189 19.071C16.1868 18.6193 16.9515 17.7743 17.4759 16.8418C17.9858 15.9167 18.1024 14.9551 18.117 13.957V13.804H18.1243ZM15.0579 13.8164C15.0579 13.9725 15.0573 14.1285 15.0361 14.2775C14.8686 15.8219 13.5429 16.8564 12.006 16.8564H10.2216V10.759H12.006C13.5429 10.759 14.8613 11.8006 15.0361 13.345C15.0506 13.4901 15.0579 13.6496 15.0579 13.8164ZM19.6757 10.5113H22.7494H22.7566V14.9552C22.7566 15.0135 22.753 15.0699 22.7494 15.1264C22.7457 15.1828 22.742 15.2393 22.742 15.2976C22.7129 15.8221 22.6111 17.0095 22.1522 18.3063C21.3074 20.7103 19.6976 22.3712 17.498 22.9322L16.7405 19.9527C19.6466 19.2096 19.6757 15.0645 19.6757 15.0207V10.5113Z" fill="#D92032"/>
<path d="M34.6216 10.1692C34.6434 10.0745 34.7454 10.0017 34.8401 10.0017H35.0368C35.1242 10.0017 35.2189 10.06 35.2408 10.1329L37.6298 16.6674H37.6879L40.0403 10.1329C40.0622 10.06 40.1645 10.0017 40.2445 10.0017H40.4339C40.5286 10.0017 40.6233 10.0745 40.6524 10.1692L42.2108 18.139C42.2474 18.3066 42.1746 18.4232 41.9927 18.4232H41.5116C41.4172 18.4232 41.3154 18.3429 41.2935 18.2555L40.2154 12.1435H40.1645L37.9429 18.4085C37.921 18.4814 37.8118 18.5396 37.7389 18.5396H37.5204C37.4476 18.5396 37.3383 18.4814 37.3164 18.4085L35.0732 12.1435H35.0222L33.9734 18.2555C33.9589 18.3356 33.8496 18.4232 33.7549 18.4232H33.2742C33.0922 18.4232 33.0193 18.3066 33.0557 18.139L34.6143 10.1692H34.6216Z" fill="#D92032"/>
<path d="M46.8151 10.0016C49.233 10.0016 51.156 11.9102 51.156 14.2851C51.156 16.66 49.2259 18.5468 46.8151 18.5468C44.4042 18.5468 42.4813 16.66 42.4813 14.2851C42.4813 11.9102 44.3967 10.0016 46.8151 10.0016ZM46.8151 17.7163C48.7304 17.7163 50.3183 16.1719 50.3183 14.2851C50.3183 12.3983 48.738 10.832 46.8151 10.832C44.8921 10.832 43.3262 12.3983 43.3262 14.2851C43.3262 16.1719 44.8921 17.7163 46.8151 17.7163ZM45.7298 8.87962C45.6789 8.78494 45.7298 8.69027 45.8027 8.65386L47.6162 7.65583C47.689 7.60482 47.8712 7.58289 47.9293 7.69217L48.1478 8.12207C48.1988 8.21675 48.1697 8.33331 48.075 8.36972L46.1306 9.16375C45.963 9.23662 45.9045 9.23658 45.8536 9.14187L45.7298 8.87962Z" fill="#D92032"/>
<path d="M51.0896 10.4312C51.0167 10.2782 51.1114 10.1252 51.2933 10.1252H51.7741C51.8835 10.1252 51.9563 10.1981 51.9782 10.2563L54.986 16.9002H55.0369L58.0454 10.2563C58.0669 10.1981 58.1545 10.1252 58.2492 10.1252H58.7299C58.9118 10.1252 59.0065 10.2782 58.9337 10.4312L55.2629 18.4155C55.2263 18.4884 55.1535 18.5466 55.0588 18.5466H54.935C54.8479 18.5466 54.7675 18.4884 54.7313 18.4155L51.0896 10.4312Z" fill="#D92032"/>
<path d="M59.5235 10.3442C59.5235 10.2276 59.6182 10.1184 59.7495 10.1184H64.5055C64.6368 10.1184 64.7386 10.2276 64.7386 10.3442V10.6867C64.7386 10.8032 64.6439 10.9124 64.5055 10.9124H60.4559V13.8118H63.9153C64.0394 13.8118 64.1413 13.9212 64.1413 14.0377V14.3801C64.1413 14.5112 64.0319 14.6059 63.9153 14.6059H60.4559V17.6291H64.5055C64.6368 17.6291 64.7386 17.7385 64.7386 17.855V18.1974C64.7386 18.3139 64.6439 18.4233 64.5055 18.4233H59.7495C59.6182 18.4233 59.5235 18.3139 59.5235 18.1974V10.3442Z" fill="#D92032"/>
<path d="M65.9408 10.3442C65.9408 10.2276 66.0503 10.1184 66.174 10.1184H66.6544C66.7785 10.1184 66.8804 10.2276 66.8804 10.3442V18.1974C66.8804 18.3139 66.771 18.4233 66.6544 18.4233H66.174C66.0503 18.4233 65.9408 18.3139 65.9408 18.1974V10.3442Z" fill="#D92032"/>
<path d="M67.8347 17.1771C67.8928 17.1042 67.9585 17.0241 68.017 16.9513C68.1407 16.7983 68.2717 16.7036 68.4392 16.842C68.5192 16.9148 69.4007 17.7453 70.4787 17.7453C71.4545 17.7453 72.0956 17.1406 72.0956 16.4413C72.0956 15.6181 71.3745 15.1373 69.9833 14.5618C68.6577 13.9936 67.8638 13.4618 67.8638 12.1068C67.8638 11.2981 68.512 9.99414 70.4349 9.99414C71.6149 9.99414 72.496 10.5988 72.496 10.5988C72.5688 10.6352 72.7148 10.7809 72.5692 10.9994C72.5179 11.0723 72.4745 11.1525 72.4235 11.2253C72.3141 11.3929 72.1975 11.4365 72.0009 11.3345C71.9134 11.2908 71.156 10.7882 70.4202 10.7882C69.1384 10.7882 68.7524 11.5968 68.7524 12.0922C68.7524 12.8863 69.3716 13.3525 70.384 13.7605C72.0156 14.4161 73.0642 15.0208 73.0642 16.3976C73.0642 17.6288 71.8696 18.5321 70.4568 18.5321C69.0437 18.5321 68.0675 17.7162 67.9075 17.5705C67.8128 17.4903 67.6891 17.3883 67.8347 17.1698V17.1771Z" fill="#D92032"/>
</g>
<defs>
<clipPath id="clip0_218_1299">
<rect width="72.449" height="28.64" fill="white" transform="translate(0.615234 0.246826)"/>
</clipPath>
</defs>
</svg>
