<svg width="78" height="31" viewBox="0 0 78 31" fill="none" xmlns="http://www.w3.org/2000/svg">
<g clip-path="url(#clip0_218_809)">
<path d="M75.7364 0.47716C76.1323 0.47716 76.4778 0.628316 76.7585 0.909034C77.0465 1.18975 77.176 1.53526 77.176 1.93114C77.1688 2.33423 77.0321 2.67253 76.7441 2.95325C76.4562 3.23397 76.1179 3.37792 75.7076 3.37792C75.3046 3.37073 74.9591 3.21957 74.6855 2.93885C74.4048 2.65093 74.2753 2.31263 74.2753 1.90955C74.2825 1.50647 74.4192 1.16816 74.7071 0.887441C74.9878 0.621118 75.3333 0.47716 75.7364 0.47716ZM77.4063 1.93834C77.4135 1.47767 77.248 1.08179 76.9241 0.750681C76.6002 0.419577 76.1971 0.254024 75.7364 0.246826C75.2686 0.246826 74.8799 0.40518 74.5416 0.729087C74.2105 1.05299 74.0449 1.44168 74.0377 1.90955C74.0377 2.37741 74.1961 2.7733 74.52 3.1044C74.8439 3.43551 75.2398 3.60106 75.7076 3.60826C76.1683 3.61546 76.5714 3.4499 76.9025 3.1188C77.2336 2.80209 77.3991 2.39901 77.4063 1.93834ZM76.1683 1.56405C76.1683 1.70081 76.0963 1.80158 75.974 1.84477C75.9092 1.87356 75.794 1.88796 75.6573 1.88796L75.3549 1.88076L75.3621 1.21855H75.6429C75.83 1.22574 75.9596 1.24734 76.0387 1.29053C76.1251 1.34091 76.1683 1.43449 76.1683 1.56405ZM75.0454 0.995409L75.031 2.84528H75.3549V2.11829L75.6141 2.12549C75.794 2.12549 75.9164 2.14708 75.9884 2.18307C76.1035 2.25505 76.1611 2.39181 76.1539 2.60775V2.7589L76.1611 2.81649C76.1611 2.82368 76.1611 2.83808 76.1611 2.83808C76.1611 2.84528 76.1611 2.85248 76.1611 2.85248L76.4706 2.85967L76.4634 2.83808C76.449 2.82368 76.449 2.80209 76.4418 2.74451C76.4346 2.69412 76.4346 2.65093 76.4346 2.60775L76.4418 2.47099C76.4418 2.37741 76.4058 2.28384 76.3411 2.18307C76.2763 2.0823 76.1683 2.02472 76.0243 2.00312C76.1467 1.98153 76.2331 1.95274 76.2979 1.90955C76.4202 1.83757 76.4778 1.71521 76.485 1.54246C76.485 1.31212 76.3914 1.15376 76.1971 1.06739C76.0891 1.0314 75.9236 1.00261 75.6932 1.00261L75.0454 0.995409Z" fill="#960F28"/>
<path d="M28.2374 0.786621H24.0842V20.293H28.2374V0.786621Z" fill="#960F28"/>
<path d="M51.0476 11.3533C49.9535 9.89216 47.9525 8.92764 45.2677 8.57494C44.7638 8.48137 43.353 8.32302 41.9782 8.17186C40.733 8.0279 39.4446 7.89114 38.9623 7.80477C37.3356 7.58883 36.551 7.06338 36.5078 6.15644C36.4934 5.78215 36.6518 5.42226 36.9757 5.08395C37.7962 4.2346 39.5094 3.70915 41.4456 3.70915H41.5392C44.3823 3.75234 46.6857 4.38576 49.0034 5.76776L49.1114 5.83254L50.7525 2.82381L50.6589 2.76622C48.4348 1.31944 45.7428 0.46289 42.878 0.29014C42.5181 0.261348 42.1438 0.25415 41.7695 0.25415C39.2214 0.25415 36.9109 0.80839 35.4281 1.77291C34.0461 2.57908 32.4482 4.27059 32.4986 6.40117C32.5634 8.3734 33.679 10.871 38.6168 11.526C39.1926 11.6052 40.4235 11.7276 41.5104 11.8355C42.2302 11.9075 42.8492 11.9723 43.1731 12.0083C44.3392 12.1379 47.8949 12.5337 47.9093 14.4412C47.9165 14.7075 47.8229 17.018 42.2806 17.1764C42.151 17.1836 42.0286 17.1836 41.9063 17.1836C38.9623 17.1836 36.0256 16.1831 33.6431 14.3692L33.5279 14.2828L31.8508 17.5147L31.9371 17.5723C35.0538 19.782 38.1993 20.7682 42.1294 20.7682C42.4317 20.7682 42.7412 20.761 43.0579 20.7538C48.0821 20.5666 51.4651 18.3425 51.897 14.9522C52.0985 13.5774 51.8178 12.3682 51.0476 11.3533Z" fill="#960F28"/>
<path d="M72.8429 11.3533C71.7488 9.89216 69.7478 8.92764 67.063 8.57494C66.5591 8.48137 65.1483 8.32302 63.7807 8.17186C62.5355 8.0279 61.2399 7.89114 60.7648 7.80477C59.1309 7.58883 58.3535 7.06338 58.3031 6.15644C58.2959 5.78215 58.4471 5.42226 58.7782 5.08395C59.5987 4.2346 61.3118 3.70915 63.2481 3.70915H63.3345C66.1776 3.75234 68.481 4.38576 70.7987 5.76776L70.9067 5.83254L72.5406 2.82381L72.4542 2.76622C70.2229 1.31944 67.5308 0.46289 64.6733 0.29014C64.3134 0.261348 63.9391 0.25415 63.5648 0.25415C61.0167 0.25415 58.699 0.80839 57.2234 1.77291C55.8414 2.57908 54.2435 4.27059 54.2939 6.40117C54.3587 8.3734 55.4815 10.871 60.4121 11.526C60.9807 11.6052 62.2188 11.7276 63.3057 11.8355C64.0255 11.9075 64.6445 11.9723 64.9684 12.0083C66.1344 12.1379 69.683 12.5337 69.6974 14.4412C69.7046 14.7075 69.611 17.018 64.0686 17.1764C63.9463 17.1836 63.8167 17.1836 63.6943 17.1836C60.7432 17.1836 57.8136 16.1831 55.4311 14.3692L55.3232 14.2828L53.6461 17.5147L53.7324 17.5723C56.8491 19.782 59.9946 20.7682 63.9247 20.7682C64.227 20.7682 64.5365 20.761 64.8532 20.7538C69.8774 20.5666 73.2604 18.3425 73.6923 14.9522C73.8938 13.5774 73.6131 12.3682 72.8429 11.3533Z" fill="#960F28"/>
<path d="M21.5218 20.293L14.1151 11.7707C14.8061 10.9717 15.4755 10.1295 16.1089 9.23697C18.549 5.81796 19.967 2.57891 20.5932 0.944975L20.658 0.786621H16.4256L16.3968 0.8586C15.7274 2.37017 14.5758 4.6735 12.8627 7.05601C10.365 10.5326 7.43543 13.1887 4.13878 14.9953V0.786621H0.0647583V20.7897L0.215915 20.7465C4.30433 19.6236 8.07604 17.5218 11.3655 14.5707L16.3321 20.293H21.5218Z" fill="#960F28"/>
<path d="M0 24.511H0.647813L4.28276 28.9521H4.29716V24.511H4.837V29.7151H4.21078L0.55424 25.2668H0.539844V29.7079H0V24.511Z" fill="#960F28"/>
<path d="M10.4802 24.511H14.619V25.0077H11.02V26.7712H14.4894V27.2678H11.02V29.2185H14.6765V29.7151H10.4802V24.511Z" fill="#960F28"/>
<path d="M26.6827 24.511H27.2657L25.5166 29.7151H24.8904L23.3212 25.274H23.3069L21.7593 29.7151H21.1403L19.4128 24.511H20.0174L21.457 28.9953H21.4714L23.0117 24.511H23.6739L25.2143 28.9953H25.2287L26.6827 24.511Z" fill="#960F28"/>
<path d="M40.625 27.5269L38.2857 24.511H38.9839L40.8914 26.9871L42.7988 24.511H43.497L41.1577 27.5269V29.7151H40.6178V27.5269H40.625Z" fill="#960F28"/>
<path d="M51.0836 24.3813C52.5592 24.3813 53.9124 25.2739 53.9124 27.1166C53.9124 28.952 52.5664 29.8518 51.0836 29.8518C49.608 29.8518 48.2548 28.9592 48.2548 27.1166C48.262 25.2739 49.608 24.3813 51.0836 24.3813ZM51.0836 29.3479C52.2281 29.3479 53.3294 28.6785 53.3294 27.1094C53.3294 25.5402 52.2281 24.8708 51.0836 24.8708C49.9391 24.8708 48.8379 25.5402 48.8379 27.1094C48.8451 28.6785 49.9391 29.3479 51.0836 29.3479Z" fill="#960F28"/>
<path d="M59.3468 24.511H62.1828C63.0609 24.511 63.8743 24.8277 63.8743 25.9146C63.8743 26.4689 63.5288 27.0231 62.8522 27.1742V27.1886C63.5864 27.3038 63.7375 27.7789 63.7807 28.6282C63.7951 28.9593 63.8383 29.5927 63.9607 29.7079H63.3776C63.2841 29.5999 63.2481 29.2113 63.2409 28.6426C63.2265 27.7213 62.8738 27.419 61.9812 27.419H59.8938V29.7079H59.354V24.511H59.3468ZM59.8866 26.9295H62.1684C62.7586 26.9295 63.2913 26.7136 63.2913 25.9146C63.2913 25.1516 62.7154 25.0005 62.2188 25.0005H59.8866V26.9295Z" fill="#960F28"/>
<path d="M69.3375 24.511H69.8774V27.3254L73.2388 24.511H74.0162L71.4393 26.6632L74.1961 29.7151H73.4331L71.0218 27.0303L69.8846 27.966V29.7223H69.3447V24.511H69.3375Z" fill="#960F28"/>
</g>
<defs>
<clipPath id="clip0_218_809">
<rect width="78" height="30" fill="white" transform="translate(0 0.246826)"/>
</clipPath>
</defs>
</svg>
