<svg width="76" height="31" viewBox="0 0 76 31" fill="none" xmlns="http://www.w3.org/2000/svg">
<g clip-path="url(#clip0_218_854)">
<path d="M5.06926 24.4917V30.1392H4.56164V27.5362H1.0052V30.1392H0.506897V24.4917H1.0052V27.0621H4.56164V24.4917H5.06926Z" fill="#F08D13"/>
<path d="M9.47949 27.3169C9.47949 25.6556 10.7462 24.3953 12.415 24.3953C14.0915 24.3953 15.3582 25.6556 15.3582 27.3169C15.3582 28.9783 14.0915 30.2386 12.415 30.2386C10.7478 30.2386 9.47949 28.9783 9.47949 27.3169ZM14.8351 27.3169C14.8351 25.926 13.7966 24.8864 12.415 24.8864C11.0411 24.8864 9.99488 25.926 9.99488 27.3169C9.99488 28.7078 11.0411 29.7475 12.415 29.7475C13.7966 29.7475 14.8351 28.7078 14.8351 27.3169Z" fill="#F08D13"/>
<path d="M24.9846 24.4917V30.1392H24.4863V25.3014L22.2618 30.1392H21.8613L19.6368 25.3014V30.1392H19.1384V24.4917H19.8091L22.0662 29.4197L24.3233 24.4917H24.9846Z" fill="#F08D13"/>
<path d="M33.5007 29.6652V30.1407H29.9117V24.4932H33.4604V24.9687H30.41V27.0636H33.1902V27.5376H30.41V29.6652H33.5007Z" fill="#F08D13"/>
<path d="M43.6328 28.5929H44.148C44.148 29.2643 44.7613 29.7802 45.5469 29.7802C46.3152 29.7802 46.9129 29.3218 46.9129 28.6831C46.9129 28.0941 46.3895 27.7009 45.4242 27.488C44.3934 27.2673 43.7398 26.7513 43.7398 25.9246C43.7398 25.0325 44.516 24.3938 45.5312 24.3938C46.5527 24.3938 47.3305 25.0729 47.3305 25.9743H46.8148C46.8148 25.3356 46.2594 24.8523 45.5312 24.8523C44.8203 24.8523 44.2645 25.2858 44.2645 25.8919C44.2645 26.4483 44.7473 26.8415 45.6539 27.0373C46.7172 27.2751 47.4359 27.7661 47.4359 28.6411C47.4359 29.5736 46.6102 30.2372 45.5391 30.2372C44.4586 30.2387 43.6328 29.5269 43.6328 28.5929Z" fill="#F08D13"/>
<path d="M56.8348 24.4917V30.1392H56.3269V27.5362H52.7707V30.1392H52.2723V24.4917H52.7707V27.0621H56.3269V24.4917H56.8348Z" fill="#F08D13"/>
<path d="M60.6277 27.3169C60.6277 25.6556 61.8945 24.3953 63.5633 24.3953C65.2398 24.3953 66.5066 25.6556 66.5066 27.3169C66.5066 28.9783 65.2398 30.2386 63.5633 30.2386C61.8961 30.2386 60.6277 28.9783 60.6277 27.3169ZM65.9836 27.3169C65.9836 25.926 64.9449 24.8864 63.5633 24.8864C62.1895 24.8864 61.1434 25.926 61.1434 27.3169C61.1434 28.7078 62.1895 29.7475 63.5633 29.7475C64.9465 29.7475 65.9836 28.7078 65.9836 27.3169Z" fill="#F08D13"/>
<path d="M74.5711 26.1949C74.5711 27.1693 73.8273 27.9059 72.8465 27.9059H71.0969V30.1407H70.5984V24.4932H72.8465C73.8273 24.4916 74.5711 25.2282 74.5711 26.1949ZM74.048 26.1949C74.048 25.4909 73.5324 24.9672 72.8387 24.9672H71.0969V27.4304H72.8387C73.5324 27.4304 74.048 26.8989 74.048 26.1949Z" fill="#F08D13"/>
<path d="M12.1506 14.6154V19.5589H0.025177V0.608398H5.26438V14.6154H12.1506Z" fill="#F08D13"/>
<path d="M55.6055 5.55192H51.0508V19.5589H45.8101V5.55192H41.2555V0.608398H55.6039V5.55192H55.6055Z" fill="#F08D13"/>
<path d="M60.5152 13.6814H65.8926C65.8926 14.533 66.7715 15.2199 67.8953 15.2199C68.8562 15.2199 69.6512 14.7257 69.6512 14.0668C69.6512 13.1048 67.9777 12.6666 66.523 12.3091C63.8621 11.6502 60.7887 10.0573 60.7887 6.37719C60.7887 2.72509 63.7785 0.280518 67.7293 0.280518C71.7344 0.280518 74.752 2.83543 74.752 6.24043H69.3746C69.3746 5.49914 68.6621 4.94898 67.6734 4.94898C66.8504 4.94898 66.1645 5.33285 66.1645 5.96535C66.1645 6.89937 67.6453 7.33918 69.0719 7.69504C71.8707 8.40836 75.0254 9.75422 75.0254 13.5446C75.0254 17.335 71.8973 19.8884 67.8098 19.8884C63.6156 19.8884 60.5152 17.1703 60.5152 13.6814Z" fill="#F08D13"/>
<path fill-rule="evenodd" clip-rule="evenodd" d="M35.935 10.0897C35.935 15.3648 31.6634 19.6411 26.3942 19.6411C21.125 19.6411 16.8535 15.3648 16.8535 10.0897C16.8535 4.81462 21.125 0.53833 26.3942 0.53833C31.6634 0.53833 35.935 4.81462 35.935 10.0897ZM26.9218 10.6056H29.0858V9.57525H26.9218V7.39642H25.8662V9.57525H23.7022V10.6056H25.8662V12.7844H26.9218V10.6056Z" fill="#D30D1C"/>
</g>
<defs>
<clipPath id="clip0_218_854">
<rect width="75.0391" height="30" fill="white" transform="translate(0 0.246826)"/>
</clipPath>
</defs>
</svg>
