<svg width="81" height="31" viewBox="0 0 81 31" fill="none" xmlns="http://www.w3.org/2000/svg">
<rect width="81" height="30" transform="translate(0 0.246826)" fill="white"/>
<path d="M8.25108 5.47996C8.54059 8.37508 8.80598 11.2461 9.09549 14.1171C9.11961 14.1171 9.14374 14.1171 9.14374 14.1171C9.62626 13.1279 10.1329 12.1629 10.6154 11.1737C11.5322 9.34011 12.4249 7.50654 13.3417 5.67297C13.3899 5.57646 13.5105 5.47996 13.607 5.47996C14.6927 5.45583 15.8025 5.47996 16.9364 5.47996C16.9123 5.72122 16.864 5.96248 16.864 6.20374C16.8399 7.33766 16.8158 8.49571 16.7917 9.62963C16.7675 10.281 16.7434 10.9324 16.7434 11.5838C16.7193 12.2352 16.6952 12.8625 16.6952 13.5139C16.671 14.1653 16.6469 14.8167 16.6469 15.4681C16.6228 16.1195 16.6228 16.795 16.5987 17.4464C16.5745 17.9531 16.5504 18.4839 16.5263 19.0146C15.4647 19.0146 14.3791 19.0146 13.2452 19.0146C13.2693 18.6769 13.2934 18.315 13.3175 17.9531C13.3175 17.9048 13.3175 17.8566 13.3175 17.8083C13.3417 17.2052 13.3417 16.602 13.3658 15.9989C13.3899 15.251 13.4382 14.5031 13.4864 13.7793C13.5347 13.0555 13.5588 12.3559 13.607 11.6321C13.6312 11.3426 13.6553 11.0531 13.6794 10.7635C13.6553 10.7635 13.607 10.7394 13.5829 10.7394C12.2319 13.4657 10.9291 16.2401 9.60213 18.9905C8.6371 18.9905 7.67206 18.9905 6.65877 18.9905C6.36926 16.216 6.10387 13.4415 5.81436 10.667C5.79023 10.667 5.74198 10.667 5.71785 10.667C5.47659 11.4632 5.23533 12.2594 4.99407 13.0555C4.4633 14.8167 3.93253 16.5779 3.37764 18.315C3.30526 18.5321 3.30526 18.8457 3.1605 18.9664C3.01575 19.087 2.72623 19.0146 2.48497 19.0146C1.66469 19.0146 0.844409 19.0146 0 19.0146C0.265386 18.2426 0.506645 17.4706 0.772031 16.7227C1.06154 15.9024 1.35105 15.1062 1.64057 14.2859C2.26784 12.5006 2.87099 10.7153 3.49827 8.92997C3.88428 7.84431 4.2703 6.78276 4.65631 5.72122C4.68044 5.62472 4.82519 5.50409 4.89757 5.50409C6.03149 5.47996 7.14129 5.47996 8.25108 5.47996Z" fill="black"/>
<path d="M63.1858 14.3579C63.8372 15.902 64.4886 17.446 65.14 18.9901C63.9337 18.9901 62.7757 18.9901 61.6176 18.9901C61.0869 17.4943 60.532 16.0226 60.0012 14.5268C59.9771 14.5268 59.9288 14.5268 59.9047 14.5268C59.6152 15.9985 59.3257 17.4943 59.0362 18.966C58.047 18.966 57.0578 18.966 56.0445 18.966C56.7442 15.2747 57.4438 11.5834 58.1435 7.89214C58.5778 7.86802 59.012 7.84389 59.4463 7.81976C60.532 7.79564 61.5935 7.77151 62.6792 7.79564C63.596 7.81976 64.4886 7.94039 65.2848 8.44704C65.9362 8.88131 66.2498 9.53271 66.2981 10.3047C66.3463 11.1733 66.1774 11.9936 65.6467 12.7173C65.1883 13.3446 64.6093 13.803 63.8614 14.0684C63.6442 14.1649 63.4271 14.2614 63.1858 14.3579ZM60.2183 12.9345C60.6285 12.9345 60.9662 12.9827 61.304 12.9345C61.5935 12.8862 61.9071 12.7897 62.1725 12.645C62.7033 12.3554 62.9446 11.8488 63.0169 11.2698C63.0411 10.9079 62.9204 10.4977 62.5103 10.3047C61.9313 10.0394 61.3523 10.1117 60.725 10.0876C60.5802 11.0285 60.4113 11.9453 60.2183 12.9345Z" fill="black"/>
<path d="M30.1814 14.4787C30.0125 15.3955 29.8195 16.3364 29.6506 17.2532C29.5541 17.7599 29.4576 18.2906 29.3611 18.7973C29.337 18.8697 29.2405 18.9903 29.1681 18.9903C28.2272 19.0144 27.3104 18.9903 26.3212 18.9903C26.3695 18.6766 26.4177 18.3871 26.466 18.0735C26.6349 17.205 26.8038 16.3606 26.9726 15.492C27.1415 14.6235 27.3104 13.755 27.4793 12.8623C27.6482 11.9696 27.7929 11.077 27.9618 10.1602C28.0824 9.4364 28.2272 8.71262 28.372 8.01297C28.372 7.96472 28.4685 7.89234 28.5167 7.86822C28.7097 7.84409 28.9269 7.81996 29.144 7.79584C30.4227 7.77171 31.7255 7.74759 33.0041 7.77171C33.8003 7.77171 34.5723 7.91647 35.2961 8.27836C35.9716 8.61612 36.4059 9.14689 36.5265 9.8948C36.7195 11.1976 36.4059 12.3556 35.4167 13.2724C34.9101 13.7308 34.3311 14.0445 33.6555 14.2133C33.5832 14.2375 33.5349 14.2616 33.4625 14.2857C34.1139 15.8298 34.7653 17.3738 35.4167 18.942C34.2828 18.942 33.1489 18.942 32.015 18.942C31.9426 18.942 31.8461 18.8455 31.822 18.7973C31.4842 17.8805 31.1706 16.9637 30.8328 16.0469C30.6398 15.5161 30.4227 14.9854 30.2297 14.4305C30.2297 14.4787 30.2055 14.4787 30.1814 14.4787ZM30.495 12.9347C30.8328 12.9347 31.1223 12.9347 31.4118 12.9347C32.208 12.9588 33.0524 12.4763 33.2936 11.5354C33.4384 11.0046 33.1489 10.3291 32.6664 10.2326C32.208 10.1361 31.7013 10.1361 31.2429 10.1119C31.1223 10.1119 31.0258 10.1361 31.0017 10.3049C30.9776 10.5703 30.9052 10.8116 30.8569 11.077C30.7363 11.6801 30.6157 12.2833 30.495 12.9347Z" fill="black"/>
<path d="M49.5548 7.89233C49.3377 9.00213 49.1447 10.0878 48.9275 11.1735C48.7104 12.2591 48.4933 13.3448 48.3003 14.4305C48.2037 15.0336 48.1314 15.6609 48.5656 16.1917C48.7828 16.4571 49.0482 16.6501 49.3618 16.6742C49.8443 16.6983 50.351 16.6983 50.8335 16.6259C51.6296 16.5053 52.1363 15.9504 52.3775 15.2266C52.6429 14.4546 52.7877 13.6343 52.9807 12.814C53.1978 11.849 53.3667 10.884 53.5597 9.91891C53.6803 9.33989 53.7527 8.78499 53.8492 8.20597C53.8733 8.10947 53.8975 8.01296 53.9216 7.89233C54.8866 7.89233 55.8758 7.89233 56.865 7.89233C56.7926 8.27835 56.7443 8.64024 56.672 9.00213C56.5272 9.77416 56.3583 10.5462 56.2136 11.3182C56.0688 12.0903 55.9241 12.8864 55.7552 13.6584C55.6104 14.3581 55.4898 15.0577 55.2727 15.7574C54.9349 16.9154 54.1629 17.7599 53.1254 18.363C52.3052 18.8455 51.4125 19.135 50.4475 19.1592C49.8926 19.1833 49.3618 19.2315 48.8069 19.2074C47.9142 19.1592 47.0457 18.9903 46.3219 18.4595C45.6946 18.0011 45.2845 17.398 45.1397 16.5777C44.995 15.7091 45.2121 14.8889 45.3569 14.0686C45.5258 13.2 45.6705 12.3556 45.8394 11.4871C46.0324 10.5221 46.2254 9.58115 46.3943 8.61611C46.4184 8.47136 46.4667 8.35073 46.4667 8.20597C46.4426 7.91646 46.5873 7.89233 46.8286 7.89233C47.7454 7.89233 48.638 7.89233 49.5548 7.89233Z" fill="black"/>
<path d="M75.2246 4.24931C78.2886 4.15281 81.1837 6.87904 80.9907 10.4497C80.846 13.2965 78.3851 16.0952 74.8869 15.9987C71.7746 15.9263 69.5068 13.3689 69.2414 10.8357C69.0484 8.85737 69.6274 7.16855 71.0508 5.84162C72.1606 4.80421 73.4634 4.22518 75.2246 4.24931ZM72.3778 12.2109C72.4019 12.2591 72.426 12.3074 72.4502 12.3315C72.4743 12.3315 72.4743 12.3074 72.4984 12.3074C72.4743 12.2591 72.4502 12.2109 72.426 12.1626C72.3295 11.5595 72.233 10.9563 72.1365 10.3532C71.9194 11.0046 72.0883 11.6319 72.3778 12.2109ZM73.1498 11.463C73.3428 11.4871 73.4876 11.5354 73.6323 11.5112C74.0425 11.4388 74.4044 11.6077 74.8145 11.6319C74.8145 11.6319 74.8145 11.656 74.8386 11.7042C74.2596 11.7284 73.6806 11.7766 73.1015 11.8007C73.1015 11.849 73.1015 11.8731 73.1015 11.9214C73.3669 11.9455 73.6323 12.0179 73.8977 12.0179C74.2837 12.042 74.3079 12.042 74.2837 12.428C74.1148 12.4039 73.9218 12.3798 73.753 12.3798C73.5358 12.3798 73.1257 12.7416 73.1739 12.9347C73.2222 13.0794 73.4152 13.2242 73.5599 13.3448C73.6082 13.3931 73.7047 13.3689 73.7771 13.3689C74.3079 13.3448 74.8386 13.3207 75.3453 13.2965C75.7072 13.2724 76.0208 13.1277 76.2621 12.8623C76.4309 12.6693 76.5998 12.4763 76.817 12.235C76.7928 12.428 76.7928 12.5728 76.7204 12.6693C76.5516 12.9588 76.3827 13.3689 76.1173 13.4413C75.3935 13.6584 74.8869 14.0445 74.5974 14.7682C74.2596 14.5993 73.946 14.4546 73.6565 14.2375C73.4876 14.1168 73.3669 14.1651 73.2463 14.2616C73.0533 14.4305 72.8844 14.6476 72.619 14.913C73.0292 15.0819 73.3911 15.2266 73.753 15.3714C74.4044 15.6126 75.104 15.5403 75.7795 15.5403C76.1414 15.5403 76.5274 15.4438 76.8893 15.3714C77.01 15.3473 77.1788 15.2025 77.203 15.106C77.2995 14.6717 77.3477 14.2133 77.396 13.7549C77.4201 13.5378 77.396 13.2965 77.396 13.007C78.1198 13.5137 78.7953 13.4654 79.3502 12.8864C79.8809 12.3315 79.9292 11.6319 79.7121 10.9081C79.6397 10.6427 79.4949 10.4979 79.3261 10.4738C79.5914 11.077 79.6156 11.656 79.3019 12.2591C79.0607 12.7175 78.3851 12.8864 77.975 12.6451C77.3718 12.2833 77.0582 11.7525 77.0341 11.077C77.01 10.136 77.0582 9.21926 77.0341 8.27835C77.01 7.79583 76.8893 7.31331 76.4068 7.04792C76.1655 6.90317 75.8519 6.87904 75.5865 6.78254C75.7554 6.5654 76.1655 6.4689 76.6239 6.68603C76.9858 6.83079 77.2995 7.07205 77.6131 7.26506C77.5649 6.78254 77.2995 6.3724 76.7928 6.10701C76.817 6.08288 76.8169 6.05876 76.8411 6.01051C77.203 6.10701 77.5649 6.22764 77.9509 6.34827C77.9267 6.08288 77.7337 5.93813 77.5407 5.79337C76.9617 5.38323 76.3103 5.28673 75.6348 5.33498C75.2729 5.3591 74.9834 5.52799 74.7662 5.76925C74.718 5.8175 74.6939 5.93813 74.718 5.98638C74.7421 6.03463 74.8386 6.05876 74.911 6.05876C75.0558 6.05876 75.1764 6.05876 75.4176 6.05876C75.2005 6.27589 75.0316 6.44477 74.8869 6.58953C74.5009 6.99967 73.9701 7.07205 73.4634 7.2168C72.9327 7.38569 72.4743 7.81995 72.4984 8.4231C72.6914 8.44723 72.8844 8.44723 73.0533 8.49548C73.1498 8.51961 73.3187 8.64024 73.3187 8.71261C73.3669 9.24338 73.2946 9.77416 73.0533 10.2808C73.005 10.4014 72.9568 10.5462 72.9809 10.6427C73.0292 10.8357 73.1981 10.9081 73.3911 10.9081C73.6806 10.884 73.946 10.8598 74.2596 10.8357C74.1148 11.1493 73.8736 11.0046 73.7047 11.0528C73.5841 11.1735 73.3911 11.3182 73.1498 11.463ZM71.7264 6.05876C69.555 7.89233 69.1931 12.0661 71.8711 14.334C72.3054 14.141 72.7155 13.9479 73.1257 13.7791C72.8362 13.5137 72.4984 13.2724 72.2089 12.9588C71.7505 12.4763 71.4127 11.9214 71.4851 11.2217C71.5334 10.7633 71.7022 10.3291 71.847 9.91891C71.9918 9.5329 72.1365 9.19513 71.847 8.80912C71.7988 8.76087 71.8229 8.64024 71.847 8.56786C71.9435 8.18184 71.9194 7.79583 71.6781 7.43394C71.5816 7.28918 71.5092 7.07205 71.5334 6.87904C71.5816 6.61365 71.6781 6.34827 71.7264 6.05876Z" fill="black"/>
<path d="M26.7312 7.91643C26.5865 8.68846 26.4417 9.46049 26.2729 10.2325C25.1631 10.2325 24.0533 10.2325 22.9435 10.2325C22.3644 10.2325 22.3403 10.2325 22.2197 10.7874C22.1232 11.2458 22.0508 11.7283 21.9543 12.235C23.2089 12.235 24.4393 12.235 25.6938 12.235C25.5491 12.9829 25.4043 13.7308 25.2837 14.4787C24.0533 14.4787 22.7987 14.4787 21.52 14.4787C21.3753 15.2025 21.2305 15.9021 21.0858 16.6259C22.4127 16.6259 23.7155 16.6259 25.0666 16.6259C24.9218 17.4462 24.777 18.2182 24.6323 19.0144C22.2921 19.0144 19.9518 19.0144 17.6358 19.0144C17.7805 18.2182 17.9253 17.4221 18.0942 16.65C18.2389 15.9263 18.3837 15.1783 18.5284 14.4546C18.6973 13.5619 18.8421 12.6934 19.0109 11.8007C19.1798 10.8598 19.3728 9.91889 19.5417 8.97797C19.59 8.71259 19.6623 8.42308 19.7106 8.15769C19.7347 8.01294 19.783 7.94056 19.9277 7.94056C22.1714 7.94056 24.4152 7.94056 26.6589 7.94056C26.683 7.89231 26.7071 7.91643 26.7312 7.91643Z" fill="black"/>
<path d="M43.7645 18.8455C42.6788 19.0868 41.6173 19.2316 40.5557 19.1592C38.9634 19.0386 37.5882 18.5319 36.8645 16.9637C36.6473 16.4812 36.5026 15.9263 36.4784 15.3955C36.3819 13.5378 36.8645 11.8249 37.9742 10.305C38.7221 9.26754 39.7354 8.54376 40.9417 8.13362C41.7138 7.86824 42.5099 7.67523 43.3302 7.72348C44.1264 7.77173 44.8984 7.79586 45.7428 7.84411C45.6704 8.13362 45.6463 8.35076 45.5981 8.54376C45.4292 9.12279 45.2362 9.72594 45.0914 10.305C45.0432 10.498 44.9225 10.5462 44.7536 10.498C44.3676 10.4256 44.0057 10.305 43.6197 10.2808C43.2578 10.2567 42.8718 10.305 42.5341 10.4015C41.3519 10.691 40.6281 11.4871 40.1456 12.5728C39.9043 13.1277 39.8078 13.7308 39.7596 14.3099C39.6631 15.2025 40.4351 16.2158 41.3519 16.3847C42.1722 16.5295 42.9924 16.5053 43.8127 16.2641C43.861 16.2399 43.9092 16.2399 43.9575 16.2399C43.9816 16.2399 44.0057 16.2399 44.054 16.2641C43.9816 17.1085 43.861 17.977 43.7645 18.8455Z" fill="black"/>
<path d="M17.7082 22.6575C17.9735 22.6816 18.2631 22.7057 18.5284 22.754C18.9868 22.8264 19.2763 23.1159 19.3246 23.5501C19.4694 24.5393 19.0592 25.6732 17.9253 25.9627C17.4428 26.0834 16.9361 26.0592 16.4295 26.0834C16.3812 26.0834 16.3089 25.9386 16.3089 25.8662C16.4777 24.9012 16.6707 23.9361 16.8637 22.9952C16.912 22.7781 16.9603 22.6575 17.2256 22.6816C17.3945 22.7057 17.5634 22.6816 17.7082 22.6816C17.7082 22.6816 17.7082 22.6816 17.7082 22.6575ZM16.8396 25.6732C17.2739 25.7938 17.7082 25.7215 18.07 25.5043C18.6732 25.1666 18.8662 24.5875 18.8903 23.9361C18.8903 23.3571 18.6008 23.0917 18.0218 23.0917C17.8529 23.0917 17.684 23.0917 17.5393 23.0917C17.3704 23.0676 17.3221 23.1641 17.298 23.333C17.1291 24.105 16.9844 24.8771 16.8396 25.6732Z" fill="black"/>
<path d="M30.7609 27.0724C30.7609 26.614 30.7609 26.5898 31.1469 26.6381C31.75 26.6863 32.2567 26.3003 32.5462 25.5283C32.4256 25.5766 32.3049 25.6007 32.2084 25.6489C31.8224 25.8419 31.4605 25.8178 31.1469 25.5042C30.8332 25.1905 30.8815 24.8045 31.0262 24.3944C31.3158 23.5982 31.9672 23.3087 32.7392 23.5258C32.8839 23.5741 33.0287 23.7189 33.1252 23.8395C33.3906 24.2738 33.2941 24.7321 33.1735 25.1664C33.0046 25.8419 32.7151 26.421 32.1119 26.7829C31.7018 27.0482 31.2675 27.1447 30.7609 27.0724ZM31.9672 25.287C32.4979 25.2388 32.7874 24.9252 32.7874 24.3703C32.7874 23.936 32.3532 23.6947 31.9672 23.9119C31.6053 24.1049 31.4605 24.4426 31.4605 24.8286C31.4605 25.1182 31.6777 25.3112 31.9672 25.287Z" fill="black"/>
<path d="M25.3566 26.1075C25.2118 26.1075 25.0671 26.1075 24.8982 26.1075C24.9464 25.9144 24.9706 25.7214 25.0188 25.5526C24.9947 25.5526 24.9947 25.5284 24.9706 25.5284C24.9223 25.5767 24.8982 25.6249 24.8499 25.6732C24.6328 25.9145 24.4157 26.1075 24.0538 26.1316C23.6919 26.1557 23.4989 25.8662 23.4748 25.5767C23.4265 24.9735 23.5471 24.3945 23.9573 23.9602C24.1503 23.7431 24.4881 23.6707 24.8017 23.5742C24.9706 23.526 25.1636 23.5742 25.3807 23.5742C25.429 23.3571 25.4772 23.1158 25.5013 22.8987C25.5496 22.4162 25.5737 22.3679 26.0804 22.4403C25.815 23.6466 25.5978 24.8529 25.3566 26.1075ZM25.3325 23.912C25.1153 23.9361 24.8982 23.8879 24.7293 23.9602C24.1985 24.1291 23.7643 24.9735 23.9573 25.5043C24.0055 25.6249 24.0779 25.8421 24.2709 25.7214C24.4157 25.6491 24.5122 25.5526 24.6328 25.4319C25.0429 25.0459 25.1877 24.5151 25.3325 23.912Z" fill="black"/>
<path d="M38.1673 25.7213C38.1673 26.1073 38.1673 26.1073 37.54 26.1073C37.4918 26.3968 37.4435 26.7105 37.3712 27.0241C37.2023 27.0241 37.0575 27.0241 36.8886 27.0241C36.961 26.7105 37.0093 26.4209 37.0817 26.0832C36.575 26.0832 36.1166 26.0832 35.6582 26.0832C35.4652 25.7213 35.7547 25.5524 35.8995 25.3353C36.3579 24.7321 36.8404 24.1531 37.2988 23.5741C37.347 23.5258 37.4194 23.5017 37.4918 23.5017C37.6607 23.5017 37.8296 23.5017 37.9984 23.5017C37.8537 24.2255 37.7331 24.9493 37.5883 25.6972C37.8296 25.6972 37.9984 25.6972 38.1673 25.7213ZM37.4677 24.1049C37.4435 24.1049 37.4194 24.0807 37.3953 24.0807C36.9851 24.5874 36.575 25.1181 36.1407 25.6489C36.5026 25.6489 36.8404 25.6489 37.1782 25.6489C37.2747 25.1181 37.3712 24.6115 37.4677 24.1049Z" fill="black"/>
<path d="M21.1826 25.6491C21.255 25.8904 21.2067 26.0592 20.9172 26.0592C20.6518 26.0592 20.3864 26.0834 20.121 26.0834C19.8074 26.0834 19.6144 25.8904 19.5662 25.625C19.4214 24.9977 19.6385 24.0809 20.2658 23.6708C20.5794 23.4536 20.9655 23.5019 21.2791 23.5743C21.641 23.6466 21.7616 24.2257 21.4721 24.5152C21.3032 24.6841 21.0861 24.8047 20.869 24.8771C20.6036 24.9736 20.2899 24.9736 20.0004 25.0218C19.9039 25.7215 20.0487 25.818 21.1826 25.6491ZM20.1452 24.6599C20.4106 24.6117 20.7001 24.5634 20.9655 24.4669C21.062 24.4187 21.1102 24.2257 21.1343 24.0809C21.1343 24.0568 20.9413 23.9362 20.8448 23.9362C20.3864 23.8879 20.2658 24.2257 20.1452 24.6599Z" fill="black"/>
<path d="M27.7451 25.6731C27.7451 25.7696 27.7451 25.8661 27.7451 26.0591C27.3591 26.0832 26.9731 26.1073 26.5871 26.1315C26.3458 26.1315 26.0563 25.8178 26.0322 25.5283C26.0081 24.8769 26.1528 24.2979 26.6354 23.8154C26.9249 23.55 27.6728 23.5259 27.914 23.6947C28.2035 23.8877 28.2518 24.3703 27.914 24.6356C27.6245 24.8769 27.2626 24.9975 26.8766 24.9975C26.6836 24.9975 26.4665 24.9493 26.4665 25.2629C26.4665 25.5766 26.6112 25.7937 26.8766 25.7937C27.1661 25.7454 27.4556 25.6972 27.7451 25.6731ZM26.5871 24.6839C26.949 24.5874 27.2385 24.5391 27.528 24.4185C27.6004 24.3944 27.6728 24.2014 27.6728 24.1049C27.6728 24.0325 27.5039 23.936 27.4074 23.936C27.0214 23.8877 26.8284 24.0566 26.5871 24.6839Z" fill="black"/>
<path d="M35.441 25.6972C35.4169 25.7937 35.3928 25.842 35.3686 25.8902C35.3686 25.9385 35.3445 26.0108 35.3445 26.0591C34.7414 26.0591 34.1382 26.0591 33.5351 26.0591C33.4627 25.6972 33.5351 25.6007 33.9693 25.3353C34.3795 25.0941 34.7655 24.8528 35.0068 24.4185C35.1515 24.129 34.9585 23.7913 34.6449 23.8395C34.4277 23.8636 34.2347 23.9119 34.0176 23.9601C33.897 23.6948 33.9211 23.6465 34.2106 23.5259C34.5001 23.4052 34.7655 23.4052 35.055 23.4776C35.6582 23.6224 35.7064 24.1773 35.4169 24.5633C35.2239 24.8287 34.9344 25.0458 34.6931 25.2629C34.5484 25.3836 34.3795 25.4801 34.2347 25.6731C34.4277 25.6731 34.5966 25.6731 34.7896 25.6731C35.0309 25.6972 35.2239 25.6972 35.441 25.6972Z" fill="black"/>
<path d="M21.689 25.6973C21.9303 25.6973 22.1474 25.7214 22.3646 25.6973C22.4611 25.6732 22.5576 25.5525 22.6058 25.456C22.6299 25.3837 22.6058 25.2389 22.5576 25.1907C22.4369 25.0459 22.2681 24.9253 22.1233 24.8046C21.882 24.6116 21.8338 24.3221 21.9303 24.0567C22.0268 23.7914 22.2681 23.5742 22.6058 23.5742C22.8471 23.5742 23.0883 23.5742 23.3296 23.5742C23.3055 23.6948 23.3055 23.7914 23.2813 23.9361C23.1125 23.9361 22.9436 23.912 22.7988 23.9361C22.6541 23.9844 22.4852 24.0809 22.4128 24.2015C22.3887 24.2497 22.4852 24.4428 22.5576 24.5393C22.6541 24.6599 22.7988 24.7564 22.9195 24.8529C23.1607 25.0459 23.1848 25.2872 23.1125 25.5525C23.0401 25.8179 22.8471 26.0351 22.5576 26.0833C22.3887 26.1074 22.1957 26.1316 22.0268 26.1316C21.6167 26.1074 21.6167 26.1074 21.689 25.6973Z" fill="black"/>
<path d="M30.1092 26.1072C29.9403 26.1072 29.8197 26.1072 29.6508 26.1072C29.7714 25.4076 29.9162 24.732 30.0368 23.9841C29.8197 24.0565 29.6508 24.1289 29.4819 24.1771C29.3613 23.8394 29.3854 23.767 29.699 23.6705C29.9644 23.5981 30.2539 23.5257 30.5193 23.4534C30.5434 23.4775 30.5676 23.5016 30.5917 23.5257C30.4469 24.3702 30.2781 25.2387 30.1092 26.1072Z" fill="black"/>
<path d="M73.15 11.4631C73.4154 11.3183 73.5843 11.1736 73.8014 11.1012C73.9944 11.0529 74.2357 11.1977 74.3563 10.8841C74.0427 10.9082 73.7532 10.9323 73.4878 10.9564C73.2948 10.9806 73.1259 10.8841 73.0776 10.6911C73.0535 10.5704 73.1018 10.4257 73.15 10.3292C73.3671 9.82253 73.4636 9.29175 73.4154 8.76098C73.4154 8.68861 73.2465 8.56798 73.15 8.54385C72.9811 8.4956 72.7881 8.4956 72.5951 8.47147C72.5469 7.8442 73.0294 7.40993 73.5601 7.26517C74.0668 7.12042 74.5976 7.04804 74.9836 6.6379C75.1283 6.46902 75.2972 6.32426 75.5143 6.10713C75.2731 6.10713 75.1525 6.10713 75.0077 6.10713C74.9353 6.10713 74.8388 6.083 74.8147 6.03475C74.7906 5.96237 74.8147 5.86587 74.8629 5.81762C75.1042 5.57636 75.3696 5.38335 75.7315 5.38335C76.407 5.35922 77.0584 5.45573 77.6374 5.84174C77.8304 5.9865 78.0234 6.13125 78.0476 6.39664C77.6616 6.27601 77.2997 6.1795 76.9378 6.05888C76.9137 6.083 76.9137 6.10713 76.8895 6.15538C77.372 6.42077 77.6374 6.83091 77.7098 7.31343C77.3962 7.12042 77.0584 6.90328 76.7206 6.7344C76.2623 6.5414 75.8521 6.61377 75.6832 6.83091C75.9486 6.90328 76.2623 6.95154 76.5035 7.09629C76.9619 7.36168 77.1067 7.8442 77.1308 8.32672C77.1549 9.26763 77.1308 10.1844 77.1308 11.1253C77.1549 11.825 77.4686 12.3316 78.0717 12.6935C78.4818 12.9348 79.1574 12.7659 79.3986 12.3075C79.7123 11.7044 79.6881 11.1253 79.4228 10.5222C79.5675 10.5463 79.7123 10.6911 79.8088 10.9564C80.0259 11.6802 80.0018 12.3799 79.4469 12.9348C78.892 13.5138 78.2165 13.562 77.4927 13.0554C77.4927 13.3449 77.5168 13.562 77.4927 13.8033C77.4444 14.2617 77.3962 14.696 77.2997 15.1544C77.2755 15.275 77.1067 15.3956 76.986 15.4198C76.6241 15.5163 76.2381 15.5886 75.8762 15.5886C75.2007 15.6128 74.5011 15.6851 73.8497 15.4198C73.4878 15.275 73.15 15.1302 72.7157 14.9614C72.957 14.696 73.1259 14.4788 73.343 14.31C73.4395 14.2135 73.5601 14.1652 73.7532 14.2858C74.0427 14.503 74.3804 14.6477 74.6941 14.8166C74.9836 14.0928 75.4902 13.7068 76.214 13.4897C76.4794 13.4173 76.6241 12.983 76.8172 12.7176C76.8895 12.6211 76.8654 12.4764 76.9137 12.2834C76.6965 12.5246 76.5518 12.7176 76.3588 12.9106C76.1175 13.176 75.8039 13.3208 75.442 13.3449C74.9112 13.369 74.3804 13.3932 73.8738 13.4173C73.8014 13.4173 73.7049 13.4173 73.6567 13.3932C73.5119 13.2725 73.3189 13.1519 73.2706 12.983C73.2224 12.79 73.6325 12.4281 73.8497 12.4281C74.0185 12.4281 74.2115 12.4764 74.3804 12.4764C74.4287 12.0904 74.3804 12.0904 73.9944 12.0662C73.729 12.0662 73.4636 11.9939 73.1983 11.9697C73.1983 11.9215 73.1983 11.8974 73.1983 11.8491C73.7773 11.825 74.3563 11.7767 74.9353 11.7526C74.9112 11.7044 74.9112 11.6802 74.9112 11.6802C74.5252 11.6561 74.1392 11.4872 73.729 11.5596C73.4878 11.5596 73.3189 11.4872 73.15 11.4631ZM74.1633 8.92987C74.4287 8.90574 74.5011 9.00224 74.5011 9.19525C74.5011 9.43651 74.6941 9.50889 74.8629 9.48476C75.0077 9.46064 75.2972 9.55714 75.3213 9.21938C75.3213 9.07462 75.4661 8.90574 75.5385 8.76098C75.442 8.73686 75.2972 8.68861 75.1525 8.64035C75.1525 8.61623 75.1525 8.5921 75.1766 8.56798C75.4902 8.54385 75.828 8.51972 76.1416 8.4956C75.3696 8.23021 74.5734 8.35084 73.8014 8.39909C73.8014 8.42322 73.7773 8.44735 73.7773 8.47147C73.9703 8.54385 74.1633 8.5921 74.3563 8.66448C74.2839 8.76098 74.2598 8.83336 74.1633 8.92987Z" fill="white"/>
<path d="M71.7261 6.05884C71.6537 6.32422 71.5814 6.61374 71.5572 6.87912C71.5572 7.07213 71.6055 7.26514 71.702 7.43402C71.9432 7.79591 71.9433 8.1578 71.8709 8.56794C71.8467 8.64032 71.8226 8.76095 71.8709 8.8092C72.1845 9.17109 72.0398 9.53298 71.8709 9.91899C71.702 10.3533 71.5572 10.7875 71.509 11.2218C71.4366 11.8973 71.7744 12.4763 72.2328 12.9589C72.5223 13.2484 72.8359 13.5138 73.1495 13.7791C72.7394 13.9722 72.3293 14.141 71.895 14.334C69.1929 12.0903 69.5789 7.89241 71.7261 6.05884Z" fill="black"/>
<path d="M72.3778 12.211C72.0882 11.6319 71.9194 11.0288 72.1124 10.3533C72.2089 10.9564 72.3054 11.5596 72.4019 12.1627C72.4019 12.1868 72.4019 12.1868 72.3778 12.211Z" fill="black"/>
<path d="M72.4262 12.1626C72.4503 12.2108 72.4744 12.2591 72.4986 12.3074C72.4744 12.3074 72.4744 12.3315 72.4503 12.3315C72.4262 12.2832 72.4021 12.235 72.3779 12.2108C72.4021 12.1867 72.4021 12.1867 72.4262 12.1626Z" fill="black"/>
<path d="M74.1629 8.92969C74.2353 8.80906 74.2835 8.76081 74.3077 8.68843C74.1147 8.61606 73.9217 8.54368 73.7286 8.49543C73.7286 8.4713 73.7528 8.44717 73.7528 8.42305C74.5248 8.3748 75.321 8.25417 76.093 8.51955C75.7794 8.54368 75.4416 8.5678 75.128 8.59193C75.128 8.61606 75.128 8.64018 75.1038 8.66431C75.2486 8.71256 75.3933 8.76081 75.4898 8.78494C75.4175 8.95382 75.2727 9.09858 75.2727 9.24333C75.2486 9.58109 74.9832 9.46047 74.8143 9.50872C74.6454 9.55697 74.4283 9.46047 74.4524 9.21921C74.5248 9.00207 74.4524 8.90557 74.1629 8.92969Z" fill="black"/>
</svg>
