<svg width="59" height="29" viewBox="0 0 59 29" fill="none" xmlns="http://www.w3.org/2000/svg">
<g clip-path="url(#clip0_218_1346)">
<path fill-rule="evenodd" clip-rule="evenodd" d="M48.9614 20.1653C48.9614 20.0646 48.9327 19.9926 48.8895 19.9206L42.4419 10.3356L48.3282 0.995208C48.4002 0.894464 48.4002 0.822505 48.4002 0.707369C48.4002 0.462706 48.2275 0.246826 47.9684 0.246826H43.1903C42.8017 0.246826 42.5858 0.462706 42.2692 0.995208L39.3476 5.91726L36.1814 0.995208C35.8648 0.534665 35.6489 0.246826 35.2603 0.246826H29.9497C29.6618 0.246826 29.4172 0.491489 29.4172 0.779329C29.4172 0.851288 29.4459 0.923248 29.4891 0.995208C34.5839 8.62295 37.0449 11.8755 42.1828 19.935C42.4995 20.4675 42.7153 20.6834 43.1039 20.6834H48.4865C48.7456 20.669 48.9614 20.41 48.9614 20.1653Z" fill="#F58220"/>
<path fill-rule="evenodd" clip-rule="evenodd" d="M30.7556 17.1142H26.913V8.37831C26.913 3.70092 25.4882 0.563477 20.782 0.563477C18.4649 0.563477 17.0401 1.13915 14.9676 2.3049C13.9746 1.09598 12.6505 0.563477 10.7652 0.563477C7.48382 0.563477 1.81339 4.04633 0 6.57932V20.5395C0 20.9281 0.359799 21.2879 0.748382 21.2879H5.06597C5.45455 21.2879 5.78557 20.9281 5.78557 20.5395V6.34904C6.89375 5.77337 7.81483 5.42796 8.49126 5.42796C10.1319 5.42796 10.5637 6.10438 10.5637 8.3927V20.5539C10.5637 20.9425 10.9235 21.3023 11.3121 21.3023H15.6297C16.0183 21.3023 16.3493 20.9425 16.3493 20.5539V8.37831C16.3493 7.58675 16.3205 6.7808 16.2485 6.06121C17.3135 5.55749 18.3929 5.41357 18.9974 5.41357C20.6381 5.41357 21.1706 6.08999 21.1706 8.37831V20.5395C21.1706 20.9281 21.4872 21.2879 21.8902 21.2879H26.2078C26.2653 21.2879 26.3229 21.2735 26.3805 21.2591H28.9422H31.5616H33.7204C34.1089 21.2591 34.3248 21.0864 34.6414 20.5395L37.9372 15.0274L34.8573 10.6378L30.7556 17.1142Z" fill="#004730"/>
<path fill-rule="evenodd" clip-rule="evenodd" d="M45.6369 24.9146H45.7664C45.9247 24.9146 46.0543 25.0441 46.0543 25.2024V28.4694C46.0543 28.6277 45.9247 28.7572 45.7664 28.7572H45.6369C45.4786 28.7572 45.3491 28.6277 45.3491 28.4694V25.2024C45.3635 25.0441 45.493 24.9146 45.6369 24.9146Z" fill="#F58220"/>
<path d="M45.709 24.5405C45.9315 24.5405 46.112 24.3472 46.112 24.1088C46.112 23.8703 45.9315 23.677 45.709 23.677C45.4864 23.677 45.306 23.8703 45.306 24.1088C45.306 24.3472 45.4864 24.5405 45.709 24.5405Z" fill="#004730"/>
<path fill-rule="evenodd" clip-rule="evenodd" d="M35.4186 25.0008L35.8504 24.2812C35.9367 24.1373 35.8935 23.9502 35.7496 23.8782L35.6345 23.8063C35.4906 23.7199 35.3035 23.7631 35.2315 23.907L34.6271 24.9001C33.6484 24.972 32.8712 25.8068 32.8712 26.8142C32.8712 27.8792 33.7204 28.7283 34.771 28.7283C35.8216 28.7283 36.6707 27.8648 36.6707 26.8142C36.6707 26.0802 36.2533 25.4326 35.6489 25.1159L35.3035 25.778C35.6777 25.9795 35.9223 26.368 35.9223 26.8142C35.9223 27.4618 35.4042 27.9943 34.7566 27.9943C34.1089 27.9943 33.5908 27.4618 33.5908 26.8142C33.5908 26.4112 33.7923 26.0514 34.0945 25.8499C34.1521 25.9075 34.3104 26.0226 34.3968 26.0802C34.5407 26.1665 34.7134 26.109 34.7998 25.9795L35.4186 25.0008Z" fill="#F58220"/>
<path fill-rule="evenodd" clip-rule="evenodd" d="M37.1458 25.001L37.2609 24.9434C37.4048 24.8859 37.5776 24.9434 37.6351 25.0874L38.8296 27.7931C38.844 27.8218 38.8584 27.8362 38.8728 27.7931L40.0242 25.0874C40.0818 24.9434 40.2545 24.8859 40.3984 24.9434L40.5135 25.001C40.6574 25.0586 40.715 25.2313 40.6574 25.3752L39.3334 28.3543C39.2758 28.4983 39.1175 28.6422 38.8728 28.6566C38.7289 28.6566 38.4842 28.6997 38.3259 28.3543L37.0019 25.3752C36.9443 25.2457 37.0019 25.073 37.1458 25.001Z" fill="#F58220"/>
<path fill-rule="evenodd" clip-rule="evenodd" d="M44.4713 26.3683L41.9383 27.534C41.9383 27.534 41.8376 27.5772 41.9239 27.7067C42.4276 28.3976 43.5934 28.0234 43.8237 27.5196C43.9244 27.3182 44.1835 26.9008 44.4857 27.0735C44.6728 27.1742 44.6296 27.4045 44.5289 27.6348C44.4281 27.8651 43.8812 28.6278 43.2336 28.6854C42.5716 28.743 41.9383 28.671 41.5497 28.2824C40.7582 27.4909 40.6862 26.2675 41.5209 25.4184C41.9671 24.9579 42.6723 24.8283 43.1616 24.9147C43.6654 25.0154 44.241 25.5048 44.3849 25.7638C44.5289 26.0373 44.6296 26.21 44.4713 26.3683ZM43.7085 26.0085C43.4063 25.5336 42.7299 25.404 42.2118 25.6919C41.9815 25.807 41.6073 26.3107 41.5929 26.5842C41.5785 26.8576 41.5929 27.0159 41.5929 27.0159L43.7085 26.0085Z" fill="#F58220"/>
<path fill-rule="evenodd" clip-rule="evenodd" d="M46.6733 28.4407V28.3112C46.6733 28.1529 46.8028 28.0233 46.9611 28.0233H47.839C48.0405 28.0233 48.17 28.0377 48.2852 27.8218C48.4147 27.5916 48.2996 27.3037 48.0837 27.2174C47.8678 27.1166 47.5512 27.0591 47.177 26.9439C46.8028 26.8288 46.702 26.4834 46.6877 26.0229C46.6733 25.5479 47.0043 25.0154 47.4936 24.9291C47.6231 24.8859 48.2708 24.9147 48.4579 24.9147C48.6162 24.9147 48.7457 25.0442 48.7457 25.2025V25.332C48.7457 25.4904 48.6162 25.6199 48.4579 25.6199C48.2132 25.6199 47.7239 25.6055 47.5368 25.6199C47.3785 25.7206 47.2921 25.8789 47.3065 26.0516C47.3209 26.2819 47.3785 26.3683 47.7671 26.4834C48.17 26.5985 48.4147 26.6561 48.7025 26.8576C48.9904 27.0591 48.976 27.4189 48.976 27.8075C48.976 28.7285 47.6807 28.7285 47.6087 28.7142L46.9755 28.6998C46.7884 28.7141 46.6733 28.599 46.6733 28.4407Z" fill="#F58220"/>
<path fill-rule="evenodd" clip-rule="evenodd" d="M27.0137 25.0585H27.1432C27.244 25.0585 27.3303 25.116 27.3879 25.188C27.647 25.0009 27.8628 24.9001 28.2658 24.9001C28.6688 24.9001 29.2445 25.1448 29.5467 25.5334C29.8489 25.1448 30.3239 24.9001 30.8132 24.9001C31.6479 24.9001 32.3963 25.7637 32.3963 26.3681V28.4694C32.3963 28.6277 32.2668 28.7572 32.1085 28.7572H31.9789C31.8206 28.7572 31.6911 28.6277 31.6911 28.4694V26.4113C31.7055 26.0947 31.4176 25.6054 30.7124 25.6054C30.3095 25.6054 29.8921 25.9076 29.8921 26.2818V28.4694C29.8921 28.6277 29.7626 28.7572 29.6043 28.7572H29.4747C29.3164 28.7572 29.1869 28.6277 29.1869 28.4694V26.4113C29.0574 25.9508 28.64 25.6197 28.237 25.6197C27.8772 25.6197 27.6038 25.8068 27.4311 26.0947C27.4167 26.1235 27.4023 26.253 27.4023 26.2962V28.4694C27.4023 28.6277 27.2728 28.7572 27.1144 28.7572H26.9849C26.8266 28.7572 26.6971 28.6277 26.6971 28.4694V25.3463C26.7403 25.1736 26.8698 25.0585 27.0137 25.0585Z" fill="#F58220"/>
<path fill-rule="evenodd" clip-rule="evenodd" d="M50.9763 21.9354V20.6401H51.3505V21.9354C51.3505 22.0793 51.3793 22.1945 51.4513 22.252C51.5232 22.324 51.624 22.3528 51.7679 22.3528C51.9118 22.3528 52.0125 22.324 52.0845 22.252C52.1565 22.1801 52.1853 22.0793 52.1853 21.9354V20.6401H52.5594V21.9354C52.5594 22.1945 52.4875 22.3816 52.358 22.5111C52.2284 22.6406 52.0269 22.6982 51.7679 22.6982C51.5088 22.6982 51.3217 22.6406 51.1778 22.5111C51.0483 22.396 50.9763 22.1945 50.9763 21.9354ZM52.9768 22.6694V20.6545H53.3942L53.9123 21.9354L53.9842 22.1369H53.9986L54.0706 21.9354L54.5887 20.6545H55.0061V22.6694H54.6607V21.5037V21.2878H54.6463L54.5743 21.4893L54.0994 22.6694H53.8547L53.3798 21.4893L53.3078 21.2878V21.5037V22.6694H52.9768ZM55.2507 22.6694L55.9559 20.6545H56.4021L57.1217 22.6694H56.7043L56.5748 22.2376H55.7688L55.6393 22.6694H55.2507ZM55.8696 21.921H56.4884L56.2438 21.1295L56.1862 20.9136H56.1718L56.1143 21.1295L55.8696 21.921ZM51.0195 25.6773V23.6624H51.3361L52.1421 24.8426L52.2572 25.0153V24.7994V23.6624H52.5882V25.6773H52.3292L51.4657 24.454L51.3505 24.2669V24.4828V25.6773H51.0195ZM52.948 24.6699C52.948 24.4828 52.9624 24.3389 52.9912 24.195C53.02 24.0654 53.0776 23.9503 53.1495 23.8783C53.2215 23.792 53.3078 23.7344 53.423 23.6912C53.5381 23.6481 53.6676 23.6337 53.8115 23.6337C53.9699 23.6337 54.0994 23.6481 54.2001 23.6912C54.3153 23.7344 54.4016 23.792 54.4736 23.8783C54.5455 23.9647 54.5887 24.0654 54.6319 24.195C54.6607 24.3245 54.6751 24.4828 54.6751 24.6699C54.6751 24.857 54.6607 25.0153 54.6319 25.1448C54.6031 25.2743 54.5455 25.3895 54.4736 25.4758C54.4016 25.5622 54.3153 25.6198 54.2001 25.6629C54.085 25.7061 53.9555 25.7205 53.8115 25.7205C53.6532 25.7205 53.5237 25.7061 53.423 25.6629C53.3078 25.6198 53.2215 25.5622 53.1495 25.4758C53.0776 25.3895 53.0344 25.2887 52.9912 25.1448C52.9624 25.0153 52.948 24.857 52.948 24.6699ZM53.3366 24.6699C53.3366 24.8138 53.351 24.9289 53.3654 25.0153C53.3798 25.1016 53.4086 25.1736 53.4517 25.2312C53.4949 25.2887 53.5381 25.3175 53.5957 25.3463C53.6532 25.3751 53.7252 25.3751 53.8115 25.3751C53.8979 25.3751 53.9699 25.3607 54.0274 25.3463C54.085 25.3175 54.1426 25.2887 54.1713 25.2312C54.2145 25.1736 54.2433 25.1016 54.2577 25.0153C54.2721 24.9289 54.2865 24.8138 54.2865 24.6699C54.2865 24.526 54.2721 24.4108 54.2577 24.3245C54.2433 24.2381 54.2145 24.1662 54.1713 24.1086C54.1282 24.051 54.085 24.0222 54.0274 23.9935C53.9699 23.9791 53.8979 23.9647 53.8115 23.9647C53.7252 23.9647 53.6532 23.9791 53.5957 23.9935C53.5381 24.0079 53.4805 24.051 53.4517 24.1086C53.4086 24.1662 53.3798 24.2381 53.3654 24.3245C53.351 24.4252 53.3366 24.5404 53.3366 24.6699ZM54.7758 23.6624H55.1788L55.6249 25.116L55.6825 25.3175H55.6969L55.7545 25.116L56.2006 23.6624H56.5892L55.884 25.6773H55.4666L54.7758 23.6624ZM56.5028 25.6773H56.8914L57.021 25.2456H57.8269L57.9564 25.6773H58.3738L57.6542 23.6624H57.208L56.5028 25.6773ZM57.1361 24.9289L57.3808 24.1374L57.4383 23.9215H57.4527L57.5103 24.1374L57.7549 24.9289H57.1361ZM52.214 26.6848L51.8111 28.052L51.7535 28.2679H51.7391L51.6815 28.052L51.2929 26.6848H50.7892L51.48 28.6996H51.9838L52.6746 26.6848H52.214ZM52.9192 28.6996H53.3798V26.6848H52.9192V28.6996ZM55.078 28.0952C55.078 27.4187 54.1569 27.5627 54.1569 27.246C54.1569 27.1453 54.2289 27.059 54.4736 27.059C54.6319 27.059 54.7902 27.0877 54.9629 27.1453L55.0205 26.7711C54.8622 26.7135 54.6463 26.6704 54.4592 26.6704C53.9555 26.6704 53.7252 26.9438 53.7252 27.2892C53.7252 27.9656 54.6463 27.8217 54.6463 28.1383C54.6463 28.2823 54.5455 28.3542 54.3297 28.3542C54.1282 28.3542 53.9555 28.2967 53.7684 28.2103L53.7108 28.5989C53.8835 28.6996 54.0994 28.7428 54.3297 28.7428C54.7902 28.7428 55.078 28.4981 55.078 28.0952ZM56.546 28.6996H57.0497L56.3445 26.6848H55.812L55.1212 28.6996H55.5961L55.7113 28.3111H56.4453L56.546 28.6996ZM56.0711 27.0302L56.1286 27.246L56.3157 27.9369H55.7976L55.9991 27.246L56.0711 27.0302ZM55.812 26.5696C55.8264 26.5264 55.8552 26.4833 55.8984 26.4833C55.9847 26.4833 56.0855 26.5984 56.2726 26.5984C56.4309 26.5984 56.546 26.4689 56.5604 26.2818H56.3733C56.3589 26.3394 56.3445 26.3681 56.287 26.3681C56.2006 26.3681 56.0855 26.253 55.9128 26.253C55.7401 26.253 55.6393 26.3825 55.6393 26.5696H55.812ZM58.8919 27.6922C58.8919 26.9726 58.6328 26.656 57.9996 26.656C57.3664 26.656 57.1073 26.9726 57.1073 27.6922C57.1073 28.4118 57.3807 28.7428 57.9996 28.7428C58.6328 28.7428 58.8919 28.4262 58.8919 27.6922ZM58.417 27.6922C58.417 28.1959 58.3162 28.3254 57.9996 28.3254C57.6974 28.3254 57.5822 28.1959 57.5822 27.6922C57.5822 27.1885 57.683 27.059 57.9996 27.059C58.3162 27.059 58.417 27.1885 58.417 27.6922Z" fill="#F58220"/>
</g>
<defs>
<clipPath id="clip0_218_1346">
<rect width="59.007" height="28.64" fill="white" transform="translate(0 0.246826)"/>
</clipPath>
</defs>
</svg>
