<svg width="81" height="20" viewBox="0 0 81 20" fill="none" xmlns="http://www.w3.org/2000/svg">
<g clip-path="url(#clip0_218_952)">
<path d="M0.0271759 19.7652V0.246826H2.51508V19.7652H0.0271759Z" fill="#070707"/>
<path d="M13.1084 19.7652V0.246826H15.5944V19.7652H13.1084Z" fill="#070707"/>
<path d="M26.1835 19.7652V0.246826H28.6715V19.7652H26.1835Z" fill="#070707"/>
<path d="M39.2628 19.7652V0.246826H41.7488V19.7652H39.2628Z" fill="#070707"/>
<path d="M52.3426 19.7652V0.246826H54.83V19.7652H52.3426Z" fill="#070707"/>
<path d="M65.4203 19.7652V0.246826H67.9068V19.7652H65.4203Z" fill="#070707"/>
<path d="M78.4971 19.7652V0.246826H80.9848V19.7652H78.4971Z" fill="#070707"/>
<path d="M12.0199 19.7652L2.51461 0.246826H3.59905L13.108 19.7652H12.0199Z" fill="#070707"/>
<path d="M64.3353 19.7652L54.83 0.246826H55.9145L65.4215 19.7726L64.3353 19.7652Z" fill="#070707"/>
</g>
<defs>
<clipPath id="clip0_218_952">
<rect width="81" height="19.5648" fill="white" transform="translate(0 0.246826)"/>
</clipPath>
</defs>
</svg>
