<svg width="81" height="30" viewBox="0 0 81 30" fill="none" xmlns="http://www.w3.org/2000/svg">
<g clip-path="url(#clip0_218_1031)">
<path d="M9.46399 0.246826H0V20.8221H4.51166V14.0336H9.4535C13.7868 14.0336 16.819 11.1902 16.819 7.11924C16.8295 3.06924 13.7973 0.246826 9.46399 0.246826ZM12.2234 7.1612C12.2234 8.95537 11.0168 10.12 9.13873 10.12H4.51166V4.25486H9.13873C11.0378 4.25486 12.2234 5.36703 12.2234 7.1612Z" fill="#302F2E"/>
<path d="M23.1983 5.80762H18.886V20.8115H23.1983V5.80762Z" fill="#302F2E"/>
<path d="M32.8825 11.3791L32.7042 11.3476C30.6897 11.0014 30.1441 10.802 30.1441 10.0571C30.1441 9.42755 31.0569 8.96589 32.2635 8.96589C33.659 8.96589 34.5823 9.53247 34.6347 10.4033L34.6662 11.0328H39.1254V10.3718C39.1254 7.53895 36.3345 5.56641 32.3264 5.56641C28.245 5.56641 25.496 7.48648 25.496 10.3404C25.496 14.254 30.1441 14.873 32.1481 15.1353L32.211 15.1458C34.4878 15.5025 34.8551 15.7648 34.8551 16.4049C34.8551 17.1288 33.8793 17.6429 32.4838 17.6429C30.9415 17.6429 29.8713 17.0239 29.8293 16.1006L29.7978 15.4711H25.2022L25.2127 16.1321C25.2442 19.0384 28.203 21.0634 32.3894 21.0634C36.5758 21.0634 39.5031 19.0804 39.5031 16.2265C39.5031 12.4598 35.1908 11.7568 32.8825 11.3791Z" fill="#302F2E"/>
<path d="M80.9264 5.80762H76.6141V20.8115H80.9264V5.80762Z" fill="#302F2E"/>
<path d="M23.1983 4.55913L18.886 0.246826H23.1983V4.55913Z" fill="#D4273B"/>
<path d="M76.6141 0.246826L80.9264 4.55913H76.6141V0.246826Z" fill="#D4273B"/>
<path d="M57.0462 5.80772V20.8116H52.6395V19.2693C51.6742 20.3815 50.2263 21.0635 48.2642 21.0635C44.4136 21.0635 41.2449 17.685 41.2449 13.3097C41.2449 8.93441 44.4136 5.55591 48.2642 5.55591C50.2368 5.55591 51.6742 6.22741 52.6395 7.35008V5.80772H57.0462ZM52.6395 13.3097C52.6395 11.1063 51.1706 9.72132 49.1456 9.72132C47.1206 9.72132 45.6517 11.1063 45.6517 13.3097C45.6517 15.5131 47.1206 16.898 49.1456 16.898C51.1706 16.898 52.6395 15.5131 52.6395 13.3097Z" fill="#302F2E"/>
<path d="M68.3777 5.45093C67.7482 5.45093 67.1711 5.52437 66.6465 5.66077C65.5134 5.95455 64.632 6.42671 64.0759 7.18215V5.96505V5.77619H59.5643V5.80766V12.145V20.8221H63.8661H63.8976H64.0654V12.6067C64.0654 10.4662 65.2091 9.51142 66.8669 9.51142C68.3148 9.51142 69.4794 10.3823 69.4794 12.2499V20.8221H69.6473H73.9911V12.145V11.5784C74.0016 7.5179 71.41 5.45093 68.3777 5.45093Z" fill="#302F2E"/>
<path d="M7.19754 26.2467C6.7149 26.0893 6.4421 25.9844 6.4421 25.6486C6.4421 25.3129 6.7149 25.0925 7.1136 25.0925C7.57526 25.0925 7.7956 25.3758 7.89003 25.6172L7.932 25.7116L8.29923 25.5017L8.26775 25.4283C8.0684 24.9561 7.63822 24.6729 7.1136 24.6729C6.46309 24.6729 6.01192 25.082 6.01192 25.6591C6.01192 26.2991 6.54703 26.4775 7.1241 26.6664H7.13459C7.68019 26.8343 7.94249 26.9811 7.94249 27.2959C7.94249 27.6631 7.6592 27.873 7.18705 27.873C6.70441 27.873 6.37915 27.6526 6.26373 27.2644L6.23226 27.149L5.85454 27.3694L5.87552 27.4323C6.0434 27.9674 6.53653 28.2822 7.18705 28.2822C7.90052 28.2822 8.37267 27.873 8.37267 27.2749C8.37267 26.6349 7.75363 26.4251 7.19754 26.2467Z" fill="#302F2E"/>
<path d="M11.1321 24.6729C10.1144 24.6729 9.31697 25.4703 9.31697 26.488C9.31697 27.5058 10.1144 28.3032 11.1321 28.3032C12.1499 28.3032 12.9473 27.5058 12.9473 26.488C12.9473 25.4703 12.1499 24.6729 11.1321 24.6729ZM11.1321 27.873C10.3557 27.873 9.74715 27.2644 9.74715 26.4775C9.74715 25.7011 10.3557 25.082 11.1321 25.082C11.9086 25.082 12.5171 25.6906 12.5171 26.4775C12.5171 27.2644 11.9086 27.873 11.1321 27.873Z" fill="#302F2E"/>
<path d="M14.5631 24.7251H14.1329V28.2505H16.1369V27.8308H14.5631V24.7251Z" fill="#302F2E"/>
<path d="M19.3055 27.0334C19.3055 27.558 18.9697 27.8728 18.4137 27.8728C17.8576 27.8728 17.5323 27.558 17.5323 27.0334V24.7146H17.1021V27.0334C17.1021 27.7888 17.6267 28.2924 18.4137 28.2924C19.2006 28.2924 19.7357 27.7888 19.7357 27.0334V24.7146H19.3055V27.0334Z" fill="#302F2E"/>
<path d="M23.8801 27.1595L23.8381 27.2434C23.6283 27.6317 23.1876 27.8835 22.705 27.8835C21.9076 27.8835 21.3095 27.2854 21.3095 26.488C21.3095 25.6906 21.9076 25.0925 22.705 25.0925C23.1876 25.0925 23.6283 25.3444 23.8381 25.7326L23.8801 25.8165L23.8906 25.827L24.2683 25.6067L24.2263 25.5332C24.1844 25.4598 24.1424 25.3968 24.1004 25.3339C24.0899 25.3234 24.09 25.3234 24.0795 25.3129C24.0375 25.2604 23.9955 25.2184 23.9536 25.1765C23.9431 25.166 23.9326 25.1555 23.9221 25.145C23.8801 25.103 23.8381 25.0716 23.7962 25.0401C23.7857 25.0296 23.7647 25.0191 23.7542 25.0086C23.7122 24.9771 23.6703 24.9561 23.6283 24.9247C23.6073 24.9142 23.5863 24.9037 23.5653 24.8827C23.5339 24.8617 23.4919 24.8512 23.4604 24.8302C23.4289 24.8197 23.3975 24.7988 23.366 24.7883H23.3555C23.1561 24.7148 22.9358 24.6729 22.7155 24.6729C22.3482 24.6729 22.002 24.7778 21.7187 24.9456C21.7082 24.9561 21.6872 24.9666 21.6767 24.9666C21.6662 24.9771 21.6558 24.9771 21.6453 24.9876C21.6138 25.0086 21.5718 25.0401 21.5403 25.0611C21.5298 25.0716 21.5298 25.0716 21.5194 25.082C21.4879 25.1135 21.4459 25.145 21.4144 25.1765C21.4039 25.187 21.4039 25.187 21.3934 25.1975C21.362 25.2289 21.3305 25.2604 21.299 25.3024C21.2885 25.3129 21.2885 25.3234 21.278 25.3234C21.2466 25.3548 21.2256 25.3968 21.1941 25.4388C21.1836 25.4493 21.1836 25.4598 21.1731 25.4703C21.1521 25.5122 21.1207 25.5437 21.0997 25.5857C21.0892 25.5962 21.0892 25.6067 21.0787 25.6172C21.0577 25.6591 21.0367 25.7011 21.0262 25.7326C21.0157 25.7431 21.0157 25.7536 21.0052 25.7745C20.9843 25.8165 20.9738 25.8585 20.9633 25.9004C20.9633 25.9109 20.9528 25.9319 20.9528 25.9424C20.9423 25.9844 20.9318 26.0263 20.9213 26.0683C20.9213 26.0893 20.9108 26.0998 20.9108 26.1208C20.9003 26.1627 20.9003 26.2047 20.8898 26.2572C20.8898 26.2677 20.8898 26.2887 20.8793 26.2991C20.8688 26.3621 20.8688 26.4251 20.8688 26.488C20.8688 26.551 20.8688 26.6139 20.8793 26.6769C20.8793 26.6874 20.8793 26.7083 20.8898 26.7188C20.9003 26.7608 20.9003 26.8133 20.9108 26.8552C20.9108 26.8762 20.9213 26.8867 20.9213 26.9077C20.9318 26.9497 20.9423 26.9916 20.9528 27.0336C20.9528 27.0441 20.9633 27.0651 20.9633 27.0756C20.9738 27.1175 20.9947 27.1595 21.0052 27.2015C21.0157 27.212 21.0157 27.2225 21.0262 27.2434C21.0472 27.2854 21.0577 27.3274 21.0787 27.3589C21.0892 27.3694 21.0892 27.3798 21.0997 27.3903C21.1207 27.4323 21.1416 27.4638 21.1731 27.5058C21.1836 27.5162 21.1836 27.5267 21.1941 27.5372C21.2151 27.5792 21.2466 27.6107 21.278 27.6526C21.2885 27.6631 21.2885 27.6736 21.299 27.6736C21.3305 27.7051 21.362 27.7471 21.3934 27.7786C21.4039 27.789 21.4039 27.789 21.4144 27.7995C21.4459 27.831 21.4879 27.8625 21.5194 27.894C21.5298 27.9045 21.5298 27.9045 21.5403 27.915C21.5718 27.9464 21.6138 27.9674 21.6453 27.9884C21.6558 27.9989 21.6662 27.9989 21.6767 28.0094C21.6872 28.0199 21.7082 28.0304 21.7187 28.0304C22.002 28.2087 22.3377 28.3032 22.7155 28.3032C22.9358 28.3032 23.1561 28.2612 23.3555 28.1877H23.366C23.3975 28.1773 23.4289 28.1563 23.4604 28.1458C23.4919 28.1248 23.5339 28.1143 23.5653 28.0933C23.5863 28.0828 23.6073 28.0723 23.6283 28.0513C23.6703 28.0304 23.7122 27.9989 23.7542 27.9674C23.7647 27.9569 23.7857 27.9464 23.7962 27.9359C23.8381 27.9045 23.8801 27.8625 23.9221 27.831C23.9326 27.8205 23.9431 27.81 23.9536 27.7995C23.9955 27.7576 24.0375 27.7051 24.0795 27.6631C24.09 27.6526 24.0899 27.6526 24.1004 27.6422C24.1529 27.5792 24.1949 27.5162 24.2263 27.4428L24.2683 27.3694L23.8906 27.149L23.8801 27.1595Z" fill="#302F2E"/>
<path d="M26.9963 24.6729C25.9785 24.6729 25.1811 25.4703 25.1811 26.488C25.1811 27.5058 25.9785 28.3032 26.9963 28.3032C28.014 28.3032 28.8114 27.5058 28.8114 26.488C28.8114 25.4703 28.014 24.6729 26.9963 24.6729ZM26.9963 27.873C26.2199 27.873 25.6113 27.2644 25.6113 26.4775C25.6113 25.7011 26.2199 25.082 26.9963 25.082C27.7727 25.082 28.3813 25.6906 28.3813 26.4775C28.3813 27.2644 27.7727 27.873 26.9963 27.873Z" fill="#302F2E"/>
<path d="M30.4272 26.6767H31.9591V26.257H30.4272V25.1343H32.0745V24.7251H29.9971V28.2505H32.0955V27.8308H30.4272V26.6767Z" fill="#302F2E"/>
<path d="M34.3933 26.2467C33.9107 26.0893 33.6379 25.9844 33.6379 25.6486C33.6379 25.3129 33.9107 25.0925 34.3094 25.0925C34.771 25.0925 34.9914 25.3758 35.0858 25.6172L35.1278 25.7116L35.495 25.5017L35.4635 25.4283C35.2642 24.9561 34.834 24.6729 34.3094 24.6729C33.6589 24.6729 33.2077 25.082 33.2077 25.6591C33.2077 26.2991 33.7428 26.4775 34.3199 26.6664H34.3304C34.876 26.8343 35.1383 26.9811 35.1383 27.2959C35.1383 27.6631 34.855 27.873 34.3828 27.873C33.9002 27.873 33.5749 27.6526 33.4595 27.2644L33.428 27.149L33.0503 27.3694L33.0713 27.4323C33.2392 27.9674 33.7323 28.2822 34.3828 28.2822C35.0963 28.2822 35.5684 27.873 35.5684 27.2749C35.558 26.6349 34.9389 26.4251 34.3933 26.2467Z" fill="#302F2E"/>
<path d="M39.1463 26.6767H40.6782V26.257H39.1463V25.1343H40.7936V24.7251H38.7161V28.2505H40.825V27.8308H39.1463V26.6767Z" fill="#302F2E"/>
<path d="M43.5847 26.6137L42.4411 24.7251H41.9794V28.2505H42.4096V25.5015L43.5113 27.3272H43.6582L44.7598 25.5015V28.2505H45.19V24.7251H44.7284L43.5847 26.6137Z" fill="#302F2E"/>
<path d="M49.7855 24.7251H48.5579V28.2505H48.9881V26.9704H49.7855C50.4255 26.9704 50.9187 26.4878 50.9187 25.8478C50.9082 25.2077 50.4255 24.7251 49.7855 24.7251ZM49.7855 26.5507H48.9881V25.1343H49.7855C50.1947 25.1343 50.4885 25.4281 50.4885 25.8478C50.478 26.257 50.1842 26.5507 49.7855 26.5507Z" fill="#302F2E"/>
<path d="M52.5135 24.7251H52.0728V28.2505H54.0873V27.8308H52.5135V24.7251Z" fill="#302F2E"/>
<path d="M56.2381 24.7251L54.8636 28.2505H55.3253L55.6506 27.4006H57.2034L57.5287 28.2505H57.9903L56.6263 24.7251H56.2381ZM55.8079 26.9809L56.427 25.3756L57.046 26.9809H55.8079Z" fill="#302F2E"/>
<path d="M60.0051 26.2467C59.5224 26.0893 59.2496 25.9844 59.2496 25.6486C59.2496 25.3129 59.5224 25.0925 59.9211 25.0925C60.3828 25.0925 60.6031 25.3758 60.6975 25.6172L60.7395 25.7116L61.1067 25.5017L61.0753 25.4283C60.8759 24.9561 60.4457 24.6729 59.9211 24.6729C59.2706 24.6729 58.8194 25.082 58.8194 25.6591C58.8194 26.2991 59.3545 26.4775 59.9316 26.6664H59.9421C60.4877 26.8343 60.75 26.9811 60.75 27.2959C60.75 27.6631 60.4667 27.873 59.9946 27.873C59.5119 27.873 59.1867 27.6526 59.0712 27.2644L59.0398 27.149L58.662 27.3694L58.683 27.4323C58.8509 27.9674 59.344 28.2822 59.9946 28.2822C60.708 28.2822 61.1802 27.873 61.1802 27.2749C61.1802 26.6349 60.5611 26.4251 60.0051 26.2467Z" fill="#302F2E"/>
<path d="M61.9146 25.1343H62.9638V28.2505H63.4045V25.1343H64.4537V24.7251H61.9146V25.1343Z" fill="#302F2E"/>
<path d="M65.9539 24.7251H65.5238V28.2505H65.9539V24.7251Z" fill="#302F2E"/>
<path d="M70.0985 27.2222C69.8886 27.6209 69.4375 27.8727 68.9548 27.8727C68.1574 27.8727 67.5593 27.2747 67.5593 26.4773C67.5593 25.6799 68.1574 25.0818 68.9548 25.0818C69.4375 25.0818 69.8781 25.3336 70.088 25.7218L70.1299 25.8058L70.5077 25.5854L70.4657 25.512C70.1719 24.9874 69.5843 24.6621 68.9548 24.6621C67.9161 24.6621 67.1292 25.4385 67.1292 26.4773C67.1292 27.516 67.9161 28.2924 68.9548 28.2924C69.5948 28.2924 70.1824 27.9567 70.4762 27.4321L70.5182 27.3586L70.1404 27.1383L70.0985 27.2222Z" fill="#302F2E"/>
<path d="M73.2565 24.6729C72.2388 24.6729 71.4414 25.4703 71.4414 26.488C71.4414 27.5058 72.2388 28.3032 73.2565 28.3032C74.2743 28.3032 75.0717 27.5058 75.0717 26.488C75.0717 25.4703 74.2743 24.6729 73.2565 24.6729ZM73.2565 27.873C72.4801 27.873 71.8715 27.2644 71.8715 26.4775C71.8715 25.7011 72.4801 25.082 73.2565 25.082C74.0329 25.082 74.6415 25.6906 74.6415 26.4775C74.6415 27.2644 74.0329 27.873 73.2565 27.873Z" fill="#302F2E"/>
<path d="M27.6784 24.0012H26.3144V24.4209H27.6784V24.0012Z" fill="#302F2E"/>
<path d="M56.4587 23.9487L56.2488 24.4733H56.637L56.8364 23.9487H56.4587Z" fill="#302F2E"/>
<path d="M22.4847 28.5967L22.2749 29.1213H22.6631L22.8625 28.5967H22.4847Z" fill="#302F2E"/>
</g>
<defs>
<clipPath id="clip0_218_1031">
<rect width="81" height="28.9585" fill="white" transform="translate(0 0.246826)"/>
</clipPath>
</defs>
</svg>
