<svg width="81" height="30" viewBox="0 0 81 30" fill="none" xmlns="http://www.w3.org/2000/svg">
<g clip-path="url(#clip0_218_994)">
<path d="M54.9737 29.4397C54.7794 29.1475 54.5601 28.8724 54.3185 28.6176C54.0389 28.2742 53.7556 27.9382 53.4663 27.6004C53.4554 27.5895 53.4436 27.5794 53.4309 27.5704C53.3613 27.5985 53.3913 27.6605 53.3913 27.7055C53.3913 28.1184 53.3913 28.5313 53.3913 28.9423C53.3913 29.1056 53.4533 29.2013 53.6202 29.2145C53.6898 29.2145 53.7632 29.2145 53.7535 29.3196C53.7442 29.4247 53.6544 29.3909 53.5979 29.3927C53.3879 29.3927 53.1775 29.3927 52.9671 29.3927C52.9165 29.3927 52.8566 29.4059 52.8473 29.3271C52.8376 29.2482 52.879 29.2201 52.9523 29.2164C53.14 29.2164 53.1775 29.0812 53.1775 28.9217C53.1775 28.4337 53.1775 27.9457 53.1775 27.4578C53.1775 27.2926 53.1324 27.1613 52.9523 27.1181C52.8903 27.1012 52.8376 27.0786 52.8511 26.9979C52.8642 26.9172 52.9333 26.9285 52.9899 26.9229C52.9974 26.9238 53.005 26.9238 53.0122 26.9229C53.183 26.8868 53.3605 26.905 53.5199 26.975C53.6797 27.045 53.8129 27.1634 53.9019 27.3133C54.2118 27.7412 54.5774 28.1259 54.9569 28.5726C54.9569 28.1184 54.9569 27.7261 54.9569 27.332C54.9573 27.3017 54.9514 27.2715 54.94 27.2433C54.9286 27.2152 54.9118 27.1897 54.8903 27.1683C54.8688 27.1469 54.843 27.1301 54.8148 27.1189C54.7865 27.1077 54.7562 27.1023 54.7258 27.1031C54.6583 27.1031 54.6077 27.0862 54.617 26.9998C54.6263 26.9135 54.6752 26.9247 54.7296 26.9247H55.4051C55.4709 26.9247 55.5253 26.9341 55.5253 27.0186C55.5253 27.1031 55.473 27.0974 55.4186 27.1031C55.1968 27.1181 55.1631 27.2701 55.1631 27.4522C55.1631 28.0302 55.1631 28.6064 55.1631 29.1844C55.1787 29.2734 55.1605 29.3651 55.1125 29.4416L54.9737 29.4397Z" fill="#EF7699"/>
<path d="M9.25466 29.4396C9.2359 29.3983 9.19648 29.3983 9.1627 29.387C8.88361 29.2905 8.64647 29.1004 8.49151 28.849C8.33655 28.5976 8.2733 28.3003 8.31248 28.0076C8.3422 27.7252 8.46676 27.4613 8.66582 27.2588C8.86489 27.0563 9.12673 26.9273 9.40853 26.8928C9.67843 26.8531 9.95339 26.9153 10.1799 27.0673C10.27 27.1236 10.347 27.1931 10.3807 27.0223C10.3957 26.9491 10.4558 26.9603 10.5065 26.966C10.5572 26.9716 10.5665 27.0223 10.5684 27.0673C10.5684 27.255 10.5853 27.4558 10.5928 27.651C10.5928 27.7035 10.5928 27.758 10.5215 27.7674C10.5087 27.7704 10.4954 27.7709 10.4824 27.7688C10.4694 27.7666 10.4569 27.7619 10.4457 27.7549C10.4345 27.748 10.4249 27.7388 10.4173 27.7281C10.4097 27.7173 10.4043 27.7051 10.4014 27.6923C10.3551 27.5412 10.2704 27.4048 10.1555 27.2963C10.076 27.2174 9.97881 27.1586 9.87197 27.1251C9.76512 27.0915 9.65178 27.084 9.54147 27.1034C9.43113 27.1227 9.32706 27.1682 9.23797 27.236C9.14887 27.3039 9.07736 27.3921 9.02942 27.4933C8.92978 27.7046 8.87813 27.9354 8.87813 28.169C8.87813 28.4026 8.92978 28.6333 9.02942 28.8447C9.06998 28.9273 9.12648 29.0011 9.19572 29.0618C9.26491 29.1226 9.3454 29.169 9.43264 29.1985C9.51984 29.228 9.61206 29.2399 9.7039 29.2336C9.79573 29.2273 9.88546 29.2029 9.96785 29.1618C10.0691 29.0966 10.1449 28.9985 10.1824 28.884C10.22 28.7696 10.2171 28.6457 10.1743 28.5331C10.1274 28.443 10.0429 28.443 9.9641 28.4299C9.95069 28.4298 9.93745 28.4267 9.92548 28.4207C9.91354 28.4146 9.90313 28.4059 9.89512 28.3951C9.8871 28.3844 9.88171 28.3719 9.87935 28.3588C9.87698 28.3456 9.8777 28.332 9.8815 28.3192C9.8815 28.2591 9.93968 28.2591 9.98286 28.2591H10.8668C10.9119 28.2591 10.9607 28.2591 10.9682 28.321C10.9757 28.383 10.9682 28.4224 10.9156 28.4299C10.7279 28.4581 10.7279 28.595 10.7279 28.7358C10.7279 28.9066 10.7749 29.1112 10.6979 29.2406C10.621 29.3702 10.392 29.282 10.2343 29.3364C10.118 29.3777 9.98662 29.3626 9.87964 29.4396H9.25466Z" fill="#EF7699"/>
<path d="M57.7659 29.4396C57.7246 29.3739 57.6496 29.3795 57.5897 29.3533C57.2882 29.2279 57.0462 28.9915 56.9138 28.6929C56.7814 28.3943 56.7687 28.0563 56.8784 27.7486C56.9749 27.4491 57.1807 27.1971 57.4548 27.0429C57.7293 26.8888 58.0514 26.8439 58.3571 26.9172C58.4596 26.9407 58.5574 26.9793 58.648 27.0316C58.7606 27.0992 58.853 27.2193 58.9352 26.9941C58.9618 26.9284 59.0836 26.9378 59.0912 27.0467C59.1081 27.2925 59.1098 27.5403 59.1157 27.7974C59.1157 27.8387 59.1005 27.8706 59.0537 27.8725C59.0069 27.8743 58.9521 27.8725 58.928 27.8087C58.8935 27.7017 58.8479 27.5986 58.7927 27.5009C58.7185 27.3582 58.6017 27.2425 58.4583 27.17C58.3145 27.0976 58.1518 27.0722 57.9932 27.0973C57.6593 27.163 57.5146 27.407 57.4451 27.713C57.3633 28.0425 57.3789 28.3887 57.4902 28.7095C57.6985 29.2726 58.2652 29.3908 58.6856 28.9535C58.8011 28.835 58.8875 28.691 58.9373 28.5331C58.9398 28.5184 58.9453 28.5043 58.9529 28.4917C58.9609 28.4791 58.9715 28.4682 58.9837 28.4596C58.9959 28.4511 59.0098 28.445 59.0242 28.4419C59.0389 28.4387 59.0541 28.4385 59.0684 28.4412C59.1587 28.4412 59.1494 28.5143 59.1494 28.5725C59.1494 28.7827 59.1494 28.9929 59.1494 29.2031C59.1494 29.2594 59.1701 29.3307 59.0874 29.3514C59.0714 29.3571 59.0541 29.3592 59.0368 29.3574C59.0199 29.3556 59.0035 29.3499 58.9887 29.341C58.9744 29.3319 58.9618 29.3198 58.9525 29.3053C58.9432 29.2909 58.9373 29.2746 58.9352 29.2576C58.8867 29.0867 58.8095 29.1224 58.7008 29.2125C58.5877 29.2941 58.4701 29.3687 58.3478 29.4358L57.7659 29.4396Z" fill="#EF7699"/>
<path d="M71.6397 29.4396C71.4651 29.3666 71.304 29.2651 71.1628 29.1393C71.0894 29.1731 71.1008 29.2331 71.0822 29.2801C71.0738 29.3053 71.0561 29.3263 71.0325 29.3386C71.0093 29.3509 70.9819 29.3534 70.9562 29.3458C70.8963 29.3458 70.8908 29.2932 70.8908 29.2482V28.6176C70.8908 28.5631 70.8908 28.5106 70.9697 28.5031C71.0485 28.4956 71.0763 28.5369 71.097 28.6026C71.1387 28.7626 71.218 28.9105 71.3281 29.0342C71.3951 29.1106 71.4807 29.1682 71.5768 29.2011C71.673 29.234 71.7763 29.2412 71.8758 29.2219C71.9441 29.2156 72.0086 29.1884 72.0605 29.144C72.1128 29.0997 72.1499 29.0404 72.1667 28.9742C72.1899 28.9096 72.1908 28.8391 72.1688 28.7742C72.1469 28.7091 72.1039 28.6533 72.0466 28.6157C71.926 28.5389 71.8007 28.4693 71.6713 28.4074C71.4997 28.3321 71.3378 28.2364 71.1889 28.1221C70.8849 27.865 70.8136 27.5215 71.0013 27.225C71.0983 27.0763 71.245 26.9668 71.4149 26.916C71.5853 26.8651 71.7679 26.8762 71.9302 26.9472C72.031 26.9931 72.1225 27.0567 72.2005 27.1349C72.2831 27.1349 72.2662 27.0767 72.2814 27.0392C72.2899 27.0145 72.3071 26.9937 72.3299 26.981C72.3531 26.9681 72.3797 26.9642 72.4054 26.9697C72.4821 26.9697 72.4783 27.0335 72.4783 27.0842C72.4783 27.2269 72.4783 27.3695 72.4783 27.5122C72.4783 27.5703 72.4914 27.6397 72.4033 27.6491C72.3738 27.6555 72.343 27.6503 72.3173 27.6346C72.2911 27.6188 72.2726 27.5938 72.2646 27.5647C72.2321 27.4895 72.1929 27.4173 72.1482 27.3488C72.0841 27.2455 71.9858 27.1678 71.8703 27.1292C71.7784 27.0851 71.6734 27.076 71.5756 27.1036C71.4773 27.1312 71.3926 27.1938 71.3373 27.2794C71.2602 27.4577 71.3373 27.6172 71.5794 27.7449C71.7839 27.8537 71.996 27.9494 72.2005 28.0602C72.456 28.199 72.6622 28.3849 72.6474 28.7058C72.6436 28.8571 72.5947 29.004 72.5062 29.1269C72.4176 29.2498 72.2941 29.3431 72.152 29.3945C72.1237 29.4077 72.0938 29.4115 72.0879 29.4471L71.6397 29.4396Z" fill="#EF7699"/>
<path d="M64.8379 29.4397C64.6916 29.3252 64.4964 29.2896 64.3708 29.1075C64.3438 29.1619 64.321 29.2184 64.3033 29.2764C64.2881 29.3478 64.243 29.3496 64.1869 29.3478C64.1304 29.3459 64.1194 29.299 64.1194 29.2539V28.5989C64.1194 28.5539 64.1194 28.5069 64.1848 28.5013C64.2105 28.495 64.2375 28.4989 64.2603 28.5122C64.283 28.5255 64.2999 28.5472 64.3071 28.5726C64.3467 28.6857 64.3948 28.7955 64.4513 28.9011C64.5091 29.0164 64.6027 29.1099 64.7182 29.1675C64.8337 29.225 64.9644 29.2435 65.0914 29.2201C65.163 29.215 65.2313 29.1868 65.2857 29.1398C65.3401 29.0928 65.3781 29.0295 65.3937 28.9592C65.4135 28.894 65.4114 28.8239 65.3874 28.76C65.3633 28.6962 65.3186 28.6421 65.2604 28.6064C65.1479 28.5331 65.0306 28.4673 64.9096 28.4094C64.7524 28.338 64.6022 28.2525 64.461 28.1541C64.106 27.8914 64.0237 27.5516 64.232 27.2157C64.3366 27.0578 64.4968 26.9453 64.6811 26.9007C64.8654 26.8562 65.0593 26.8828 65.2246 26.9755C65.3018 27.0214 65.3764 27.0715 65.4481 27.1256C65.5101 27.105 65.5008 27.043 65.5231 26.998C65.5455 26.953 65.5982 26.9586 65.6412 26.9642C65.6846 26.9698 65.6956 27.0262 65.6956 27.0693C65.6956 27.2195 65.6956 27.3696 65.6956 27.5179C65.6956 27.5685 65.7091 27.6286 65.6302 27.6398C65.6007 27.6466 65.5699 27.6416 65.5442 27.6258C65.5185 27.6099 65.5004 27.5847 65.4932 27.5554C65.4561 27.4572 65.4021 27.3663 65.3334 27.287C65.2469 27.1825 65.123 27.1153 64.9881 27.0993C64.8004 27.0825 64.6128 27.0993 64.5529 27.3208C64.4926 27.5423 64.6242 27.6436 64.7857 27.73C65.0032 27.8463 65.2284 27.9477 65.4443 28.0678C65.7108 28.2123 65.9098 28.4131 65.8702 28.7453C65.8575 28.8959 65.7997 29.0392 65.7044 29.1564C65.6092 29.2736 65.4805 29.3593 65.3355 29.4022C65.3165 29.4022 65.3035 29.4303 65.2887 29.4435L64.8379 29.4397Z" fill="#EF7699"/>
<path d="M61.6005 29.3946C61.2851 29.3946 60.9697 29.3946 60.6619 29.3946C60.6113 29.3946 60.5345 29.4246 60.5231 29.3289C60.5118 29.2332 60.5721 29.22 60.6471 29.2162C60.8196 29.2069 60.8778 29.098 60.8778 28.9441C60.8778 28.4261 60.8778 27.9081 60.8778 27.3901C60.8778 27.2175 60.8065 27.118 60.6319 27.103C60.5662 27.103 60.5118 27.0917 60.5194 27.0035C60.5269 26.9153 60.5944 26.9266 60.6526 26.9266H62.432C62.4501 26.9229 62.4691 26.9237 62.4872 26.9287C62.5053 26.9337 62.5218 26.9429 62.5357 26.9555C62.5496 26.9681 62.5602 26.9837 62.5669 27.0012C62.5737 27.0186 62.5762 27.0374 62.5745 27.0561C62.5745 27.1912 62.5859 27.3263 62.5897 27.4614C62.5897 27.5046 62.6028 27.5572 62.5425 27.5722C62.4826 27.5872 62.4358 27.5722 62.413 27.5159C62.3607 27.3732 62.3135 27.2137 62.1541 27.1687C61.9399 27.1312 61.7215 27.1217 61.5048 27.1405C61.4053 27.1405 61.4036 27.21 61.4036 27.2794C61.3939 27.4219 61.3939 27.5648 61.4036 27.7073C61.4166 27.8068 61.3079 27.9625 61.4993 28.002C61.7468 28.0507 61.8746 27.9907 61.9458 27.7918C61.9665 27.7242 61.985 27.6848 62.0622 27.6923C62.1389 27.6998 62.1318 27.758 62.1335 27.8086V28.3942C62.1335 28.4487 62.1335 28.5012 62.0567 28.5068C61.9795 28.5125 61.972 28.4787 61.9513 28.4205C61.9079 28.3332 61.8337 28.2647 61.7434 28.2278C61.6528 28.1908 61.552 28.188 61.4596 28.2197C61.3939 28.2497 61.3998 28.3004 61.3998 28.3511C61.3998 28.5537 61.3998 28.7564 61.3998 28.9591C61.3956 29.0004 61.404 29.0419 61.4242 29.0782C61.444 29.1144 61.4748 29.1436 61.5124 29.1618C61.6076 29.2038 61.7105 29.2254 61.8147 29.2254C61.9188 29.2254 62.0221 29.2036 62.1174 29.1616C62.2127 29.1196 62.2983 29.0582 62.3683 28.9813C62.4387 28.9045 62.4923 28.8138 62.5256 28.7152C62.5484 28.6495 62.5463 28.5782 62.6441 28.5875C62.7415 28.5969 62.7153 28.6851 62.717 28.7433C62.7377 29.3983 62.736 29.3983 62.0921 29.3983L61.6005 29.3946Z" fill="#EF7699"/>
<path d="M22.6908 29.3947C22.3829 29.3947 22.0752 29.3947 21.7674 29.3947C21.7092 29.3947 21.621 29.4322 21.606 29.3252C21.591 29.2183 21.666 29.222 21.7374 29.2183C21.9119 29.2183 21.9626 29.1 21.9626 28.9442C21.9626 28.4262 21.9626 27.9082 21.9626 27.3903C21.9626 27.2176 21.8988 27.12 21.7242 27.1031C21.6623 27.1031 21.5985 27.1031 21.6041 27.0093C21.6097 26.9154 21.6717 26.9267 21.7317 26.9267C22.3323 26.9267 22.9329 26.9267 23.5334 26.9267C23.586 26.9267 23.6498 26.9267 23.6554 26.9923C23.6554 27.165 23.6686 27.3377 23.6723 27.5103C23.6723 27.5554 23.6386 27.5723 23.5954 27.5742C23.5726 27.5754 23.5502 27.5688 23.5318 27.5555C23.5133 27.5422 23.5 27.5229 23.4941 27.501C23.4471 27.3564 23.3964 27.2007 23.2313 27.1632C23.0091 27.1281 22.7834 27.1212 22.5594 27.1425C22.4825 27.1425 22.4918 27.2119 22.4918 27.2626C22.4815 27.4201 22.4815 27.5781 22.4918 27.7356C22.5031 27.8257 22.3961 27.9927 22.5913 27.9964C22.7865 28.0002 22.9948 28.0828 23.0323 27.79C23.0436 27.7149 23.0774 27.683 23.1506 27.6924C23.2238 27.7018 23.2163 27.7637 23.2182 27.8125C23.2182 28.0002 23.2182 28.2029 23.2182 28.3981C23.2182 28.4431 23.2182 28.4919 23.16 28.5032C23.1018 28.5144 23.068 28.4863 23.0417 28.4281C23.0013 28.3397 22.93 28.2691 22.8411 28.2297C22.7523 28.1903 22.652 28.1847 22.5594 28.2142C22.4749 28.2404 22.49 28.3024 22.49 28.3587C22.49 28.5464 22.49 28.749 22.49 28.9442C22.4835 28.9931 22.4946 29.0426 22.5215 29.0839C22.5484 29.1252 22.5891 29.1556 22.6363 29.1694C22.7324 29.2106 22.8363 29.2305 22.9408 29.2278C23.0453 29.2251 23.148 29.1997 23.2418 29.1535C23.3356 29.1073 23.4182 29.0414 23.4841 28.9603C23.55 28.8791 23.5976 28.7846 23.6235 28.6834C23.6479 28.6177 23.6742 28.5783 23.7474 28.5858C23.8206 28.5933 23.8131 28.6721 23.8093 28.7228C23.7962 28.9386 23.89 29.2126 23.7624 29.3534C23.6348 29.4942 23.3645 29.3853 23.1562 29.3947C23.0061 29.4003 22.8484 29.3947 22.6908 29.3947Z" fill="#EF7699"/>
<path d="M19.3838 26.9227C19.6616 26.9227 19.9469 26.9227 20.2172 26.9227C20.3466 26.9227 20.3898 26.9659 20.3823 27.0916C20.3748 27.2173 20.3823 27.3319 20.3823 27.4519C20.3823 27.5026 20.3823 27.5627 20.3166 27.5721C20.3039 27.5757 20.2906 27.5765 20.2774 27.5746C20.2644 27.5728 20.2519 27.5681 20.2407 27.561C20.2295 27.5539 20.22 27.5446 20.2127 27.5335C20.2054 27.5225 20.2005 27.5101 20.1984 27.497C20.1552 27.3487 20.0933 27.2005 19.9319 27.1629C19.7244 27.1257 19.5125 27.1193 19.3031 27.1441C19.2168 27.1441 19.2356 27.2305 19.2356 27.2868C19.2356 27.4519 19.2262 27.6171 19.2356 27.7804C19.2356 27.8573 19.1718 27.9869 19.3181 27.9944C19.4645 28.0019 19.6278 28.0525 19.7123 27.8705C19.7277 27.8366 19.7379 27.8005 19.7423 27.7635C19.7423 27.7053 19.7874 27.6922 19.838 27.6941C19.8492 27.6931 19.8604 27.6947 19.8709 27.6987C19.8814 27.7027 19.8908 27.7089 19.8985 27.717C19.9063 27.7251 19.9121 27.7348 19.9156 27.7455C19.9191 27.7561 19.9202 27.7674 19.9187 27.7785V28.4317C19.9195 28.443 19.9179 28.4543 19.9142 28.465C19.9104 28.4756 19.9044 28.4854 19.8966 28.4937C19.8889 28.502 19.8795 28.5086 19.8691 28.5131C19.8587 28.5176 19.8475 28.5199 19.8361 28.5199C19.7686 28.5292 19.7554 28.488 19.7348 28.4298C19.7234 28.3875 19.7033 28.3481 19.6759 28.3139C19.6485 28.2797 19.6144 28.2515 19.5757 28.2311C19.537 28.2107 19.4944 28.1985 19.4508 28.1952C19.4071 28.1919 19.3633 28.1976 19.3219 28.2121C19.2243 28.2327 19.2337 28.2984 19.2337 28.3641C19.2337 28.5367 19.2337 28.7094 19.2337 28.8821C19.2337 29.0547 19.2675 29.2312 19.5115 29.2218C19.5697 29.2218 19.6109 29.2405 19.6128 29.31C19.6147 29.3794 19.549 29.3944 19.4908 29.3963H18.4774C18.421 29.3963 18.3535 29.4094 18.3516 29.3156C18.3497 29.2218 18.4098 29.2237 18.4717 29.2199C18.6594 29.2087 18.7082 29.0885 18.7082 28.9271C18.7082 28.4185 18.7082 27.908 18.7082 27.3975C18.7156 27.362 18.7151 27.3253 18.7069 27.29C18.6987 27.2547 18.6828 27.2216 18.6605 27.193C18.6382 27.1644 18.6099 27.141 18.5776 27.1245C18.5453 27.108 18.5098 27.0986 18.4736 27.0973C18.4135 27.0973 18.3497 27.0973 18.3572 27.0034C18.3647 26.9096 18.4454 26.9208 18.5074 26.9208L19.3838 26.9227Z" fill="#EF7699"/>
<path d="M51.0283 29.3945H50.5105C50.4616 29.3945 50.3996 29.4058 50.3904 29.3289C50.3811 29.2519 50.4224 29.22 50.4953 29.22C50.7074 29.22 50.7547 29.0923 50.7509 28.9084C50.7509 28.4204 50.7509 27.9325 50.7509 27.4464C50.7509 27.2475 50.7095 27.1029 50.4768 27.0992C50.4093 27.0992 50.3828 27.0654 50.3887 26.9997C50.3941 26.934 50.4317 26.9265 50.4823 26.9265H51.5389C51.5988 26.9265 51.6384 26.9453 51.6384 27.0147C51.6384 27.0842 51.5954 27.0992 51.5373 27.1011C51.3382 27.1123 51.2741 27.2287 51.2762 27.4182C51.2762 27.9118 51.2762 28.4073 51.2762 28.9028C51.2762 29.0905 51.3268 29.2125 51.5335 29.2181C51.6085 29.2181 51.6439 29.25 51.6384 29.3289C51.633 29.4077 51.571 29.3945 51.5204 29.3945H51.0283Z" fill="#EF7699"/>
<path d="M16.5158 29.3946H16.0278C15.9772 29.3946 15.919 29.404 15.9115 29.327C15.904 29.2501 15.9471 29.2201 16.0185 29.2182C16.2324 29.2182 16.2718 29.0681 16.2718 28.8935C16.2718 28.4149 16.2718 27.9345 16.2718 27.4559C16.2718 27.2682 16.2268 27.1106 15.996 27.1012C15.9303 27.1012 15.9021 27.0655 15.9096 26.9998C15.9108 26.9888 15.9141 26.978 15.9195 26.9683C15.9249 26.9586 15.9322 26.9501 15.941 26.9433C15.9497 26.9364 15.9598 26.9314 15.9705 26.9286C15.9812 26.9257 15.9925 26.925 16.0035 26.9266H17.0601C17.0712 26.9254 17.0825 26.9268 17.093 26.9305C17.1036 26.9342 17.1132 26.9403 17.1211 26.9482C17.129 26.9561 17.1351 26.9657 17.1388 26.9763C17.1425 26.9868 17.1439 26.9981 17.1426 27.0092C17.1426 27.0636 17.1239 27.0955 17.0657 27.0974C16.8067 27.1068 16.7767 27.2851 16.7786 27.4878C16.7786 27.9513 16.7786 28.4149 16.7786 28.8804C16.7786 29.0681 16.8199 29.2126 17.0432 29.2182C17.1051 29.2182 17.1408 29.2463 17.1408 29.312C17.1408 29.4077 17.0695 29.3927 17.0132 29.3927L16.5158 29.3946Z" fill="#EF7699"/>
<path d="M21.3657 12.5314C21.3657 12.9837 21.0578 13.3629 20.7088 13.3554C20.3334 13.3554 20.0575 13.0194 20.065 12.5858C20.065 12.2105 20.4404 11.8258 20.7613 11.8351C20.9283 11.8606 21.0808 11.9445 21.1916 12.0721C21.3023 12.1997 21.364 12.3625 21.3657 12.5314Z" fill="#EF7699"/>
<path d="M51.9066 12.5615C51.8914 13.0081 51.5912 13.3685 51.2442 13.3572C51.151 13.3486 51.0604 13.3215 50.9777 13.2775C50.8946 13.2335 50.8217 13.1736 50.7622 13.1011C50.7028 13.0287 50.6585 12.9451 50.632 12.8554C50.605 12.7657 50.5961 12.6715 50.6058 12.5784C50.6155 12.203 50.9815 11.8276 51.3138 11.8276C51.485 11.8564 51.6401 11.9469 51.7493 12.0821C51.8586 12.2173 51.9146 12.3878 51.9066 12.5615Z" fill="#EF7699"/>
<path d="M51.2834 19.9844C51.2914 19.9575 51.3053 19.9327 51.3243 19.9119C51.3433 19.8912 51.3665 19.8749 51.3926 19.8643C51.3973 19.8947 51.3943 19.9259 51.3842 19.9551C51.3741 19.9842 51.3568 20.0104 51.3344 20.0313L51.2834 19.9844Z" fill="#EF7699"/>
<path d="M38.4857 19.8434L38.5965 19.7083C38.6035 19.7416 38.6022 19.7761 38.5927 19.8089C38.5832 19.8416 38.5658 19.8715 38.5421 19.8959L38.4857 19.8434Z" fill="#EF7699"/>
<path d="M54.0765 17.9312C54.0744 17.9538 54.0659 17.9752 54.0516 17.9926C54.0368 18.0101 54.0174 18.0227 53.9955 18.0288C53.9926 17.9967 53.9972 17.9643 54.0103 17.9347C54.0229 17.9051 54.0432 17.8793 54.0689 17.8599L54.0765 17.9312Z" fill="#EF7699"/>
<path d="M80.5543 17.6044C80.2221 16.666 79.9218 15.7126 80.1883 14.686C80.2334 14.5292 80.2398 14.3639 80.2073 14.2041C80.1744 14.0442 80.1036 13.8947 80.0007 13.7682C79.813 13.5355 79.7342 13.5392 79.6254 13.8095C79.1017 15.0629 78.4802 16.2728 77.7655 17.428C77.7427 17.4821 77.7031 17.5273 77.6521 17.5565C77.601 17.5856 77.542 17.5972 77.4838 17.5894C77.2996 17.5726 77.114 17.6074 76.9483 17.69C76.7826 17.7725 76.643 17.8995 76.5456 18.0567C76.2762 18.3873 76.1379 18.8055 76.1569 19.2316C76.178 19.4036 76.1548 19.5782 76.089 19.7386C76.0232 19.8989 75.9174 20.0397 75.7816 20.1475C75.7103 20.2131 75.6522 20.292 75.5826 20.3614C75.2693 20.6748 74.9615 20.9976 74.5356 21.1609C74.057 21.3486 73.6834 21.0708 73.7117 20.5641C73.7378 20.31 73.8095 20.0627 73.9238 19.834C74.1991 19.2591 74.5048 18.699 74.8396 18.1562C75.1698 17.5762 75.4814 16.9869 75.5902 16.3131C75.642 16.069 75.6176 15.8147 75.5198 15.585C75.4224 15.3553 75.2562 15.1613 75.0441 15.0294C74.8131 14.883 74.7684 14.8962 74.6688 15.1514C74.3834 15.9415 74.0532 16.7129 73.7134 17.4805C73.1926 18.6743 72.4375 19.7516 71.4929 20.6486C71.2817 20.8703 71.0257 21.0449 70.7424 21.1609C70.2486 21.3392 69.8772 21.0521 69.924 20.5341C69.9438 20.3706 69.9851 20.2103 70.0462 20.0574C70.3064 19.4423 70.6172 18.8497 70.9752 18.2857C71.3268 17.735 71.592 17.1337 71.7615 16.5027C71.9154 15.8289 71.724 15.3166 71.2248 15.0125C71.0578 14.9093 70.9676 14.9168 70.8925 15.1176C70.6117 15.8615 70.2638 16.5783 69.8527 17.2591C69.1873 18.4443 68.3668 19.5356 67.413 20.504C67.155 20.7777 66.8467 20.9989 66.5048 21.1553C66.0599 21.343 65.6939 21.0802 65.7032 20.6054C65.7112 20.4708 65.7382 20.3381 65.7837 20.2113C65.9971 19.634 66.272 19.0816 66.6043 18.5634C66.9644 17.9403 67.3358 17.3229 67.5239 16.6172C67.7394 15.8045 67.5049 15.2246 66.8349 14.9281C66.6119 14.8271 66.3677 14.7821 66.1232 14.7972C65.879 14.8122 65.6421 14.8868 65.4329 15.0144C65.0551 15.233 64.7136 15.5084 64.4197 15.8308C63.7977 16.5029 63.2192 17.2137 62.6871 17.9591L62.4244 18.2763C62.4067 18.1916 62.4227 18.1033 62.4695 18.0304C62.9451 16.8557 63.4806 15.7062 64.0743 14.5865C64.6372 13.4604 65.2508 12.3737 65.7032 11.2082C65.9077 10.6753 66.0899 10.1347 66.054 9.54915C66.0515 9.39469 66.0106 9.24332 65.9351 9.10843C65.86 8.97354 65.7525 8.85932 65.6227 8.77591C65.4797 8.6802 65.4068 8.69335 65.3258 8.86602C64.3876 10.9017 63.4241 12.9255 62.4358 14.9374C61.8353 16.1518 61.3095 17.4073 60.4671 18.5034C59.9037 19.2391 59.3708 20.0048 58.6932 20.6523C58.4516 20.9097 58.1497 21.1032 57.8149 21.2153C57.7284 21.2474 57.6348 21.257 57.5433 21.2432C57.4518 21.2294 57.3654 21.1927 57.292 21.1365C57.2186 21.0803 57.1605 21.0064 57.1233 20.9217C57.0862 20.8371 57.0711 20.7444 57.0795 20.6523C57.0905 20.4192 57.1465 20.1904 57.2444 19.9785C57.5146 19.3848 57.8229 18.8093 58.1678 18.2557C58.4984 17.7272 58.7514 17.1539 58.9188 16.5534C59.1325 15.6394 58.7084 14.9788 57.7925 14.823C57.3941 14.7744 56.9922 14.8776 56.6663 15.112C56.1982 15.4244 55.7783 15.8038 55.4203 16.2381C54.9417 16.7786 54.523 17.3641 54.0744 17.9272C54.0166 17.9084 54.0634 17.8803 54.0744 17.8559C54.3324 17.3906 54.5222 16.8906 54.6377 16.3713C54.7465 15.7633 54.5289 15.2452 54.0406 14.9844C53.8964 14.9037 53.8214 14.9206 53.7535 15.0857C52.9338 17.0498 51.7679 18.8508 50.3115 20.4027C50.0416 20.727 49.6997 20.984 49.313 21.1534C48.8235 21.3411 48.4461 21.0615 48.4836 20.5416C48.5127 20.2955 48.584 20.0561 48.6936 19.834C48.969 19.2554 49.2738 18.6916 49.6078 18.1449C49.9168 17.6474 50.153 17.1083 50.3098 16.544C50.4861 15.8195 50.2946 15.2903 49.7465 14.9806C49.6116 14.9037 49.5272 14.8962 49.4539 15.0651C49.0908 15.8814 48.6628 16.6672 48.1737 17.4148C47.4421 18.5522 46.6726 19.667 45.6965 20.6054C45.4823 20.8312 45.2276 21.0151 44.9459 21.1478C44.87 21.1857 44.7857 21.2035 44.701 21.1995C44.6166 21.1955 44.5344 21.1699 44.4623 21.1251C44.3902 21.0803 44.3312 21.0178 44.2903 20.9435C44.2494 20.8693 44.2283 20.7858 44.2287 20.7011C44.2224 20.4752 44.2667 20.2508 44.3586 20.0442C44.5753 19.5237 44.8338 19.0216 45.1315 18.5428C45.5072 17.9066 45.8824 17.2778 46.0587 16.5515C46.2653 15.7032 45.9482 15.0857 45.1766 14.8417C44.814 14.7302 44.4227 14.7638 44.0845 14.9356C43.6595 15.1657 43.28 15.471 42.9637 15.8365C42.2979 16.559 41.6762 17.3211 41.1021 18.1186C41.0608 18.1712 41.042 18.2575 40.9351 18.2575C41.3673 17.1464 41.8617 16.0606 42.416 15.005C43.0126 13.8283 43.6544 12.6759 44.1574 11.4522C44.3978 10.8704 44.6213 10.2792 44.6061 9.6336C44.6154 9.45992 44.5766 9.287 44.4931 9.13424C44.41 8.98143 44.286 8.85481 44.1351 8.76841C44.0187 8.70271 43.9475 8.70836 43.8948 8.84161C43.7936 9.08372 43.681 9.32208 43.5701 9.55855C42.3372 12.2086 41.1021 14.8549 39.7039 17.4298C39.024 18.7429 38.0193 19.86 36.7855 20.6748C36.3992 20.9471 35.9619 21.1386 35.4998 21.2379C34.7323 21.3767 34.3963 21.0389 34.5446 20.2732C34.7323 19.3066 35.1789 18.4508 35.6838 17.6213C36.1492 16.8574 36.6635 16.1198 37.3729 15.5568C37.5583 15.3906 37.7853 15.2777 38.0298 15.2302C38.1311 15.2152 38.2269 15.2133 38.2756 15.3297C38.3044 15.3784 38.3138 15.4361 38.302 15.4914C38.2902 15.5466 38.258 15.5955 38.2119 15.6281C38.0587 15.7503 37.9344 15.9048 37.8478 16.0804C37.7636 16.2378 37.7446 16.422 37.7947 16.5932C37.8449 16.7645 37.9603 16.9092 38.1161 16.9963C38.3526 17.1352 38.5103 17.0864 38.6172 16.833C38.7114 16.5879 38.7708 16.3308 38.7937 16.0692C38.8406 15.6675 38.7936 15.2922 38.4033 15.0651C37.9393 14.777 37.3846 14.6719 36.8474 14.7704C36.0404 14.9281 35.4736 15.4442 34.9706 16.0485C34.4995 16.6116 34.1936 17.2759 33.8182 17.8991C33.2402 18.8581 32.6377 19.7984 31.8138 20.5735C31.5561 20.8447 31.2329 21.0451 30.8754 21.1553C30.7871 21.1841 30.6928 21.1894 30.6018 21.1709C30.5108 21.1523 30.4262 21.1104 30.3562 21.0493C30.2862 20.9882 30.2332 20.91 30.2025 20.8223C30.1719 20.7347 30.1644 20.6405 30.181 20.5491C30.2154 20.2811 30.2933 20.0205 30.4119 19.7777C30.6746 19.1865 31.0237 18.6516 31.339 18.0886C31.6483 17.5824 31.8816 17.0335 32.0315 16.4595C32.1742 15.8064 31.9827 15.2828 31.4854 14.99C31.2977 14.8736 31.2414 14.8924 31.1588 15.1064C30.9899 15.5399 30.8247 15.9753 30.6502 16.4051C30.0759 17.8146 29.4134 19.1734 28.3267 20.2769C27.9795 20.6298 27.6398 20.9995 27.1519 21.159C27.0551 21.1999 26.9487 21.2129 26.8449 21.1965C26.7411 21.1801 26.644 21.1349 26.5645 21.0662C26.4851 20.9975 26.4264 20.9079 26.3952 20.8075C26.364 20.7072 26.3615 20.6001 26.388 20.4984C26.425 20.2839 26.4881 20.0746 26.5757 19.8753C26.8795 19.2411 27.2179 18.6239 27.5891 18.0267C27.8945 17.5264 28.1187 16.9811 28.2535 16.4107C28.3793 15.7802 28.1766 15.2847 27.6905 14.99C27.5291 14.8943 27.4446 14.9168 27.3733 15.1007C26.9343 16.2106 26.3742 17.2687 25.703 18.2557C25.1061 19.149 24.4699 20.0123 23.6385 20.7142C23.413 20.9253 23.1429 21.0831 22.8483 21.176C22.5781 21.251 22.4467 21.176 22.4035 20.8926C22.3745 20.5627 22.4194 20.2306 22.5349 19.9204C23.0079 18.3364 23.7849 16.8893 24.5619 15.4423C24.6163 15.341 24.6932 15.3391 24.7852 15.3391C25.1831 15.3391 25.581 15.3391 25.9789 15.3391C26.0633 15.3391 26.1947 15.3879 26.2228 15.3015C26.2326 15.242 26.2246 15.1809 26.1999 15.1258C26.1752 15.0708 26.1349 15.0242 26.0839 14.9919C25.9961 14.9192 25.8844 14.8817 25.7705 14.8868C25.5378 14.8868 25.3051 14.8774 25.0724 14.8868C24.8847 14.8868 24.8678 14.8474 24.9485 14.6879C25.1606 14.2656 25.3708 13.8433 25.5622 13.4116C25.8493 12.766 26.1252 12.1147 26.1778 11.3997C26.2078 11.0243 26.1478 10.6621 25.8212 10.4069C25.6035 10.2361 25.5416 10.253 25.4346 10.5101C24.8434 11.9458 24.1452 13.3253 23.447 14.7197C23.427 14.7749 23.3887 14.8215 23.3385 14.8519C23.2884 14.8823 23.2293 14.8946 23.1711 14.8868C22.8652 14.8868 22.5556 14.8868 22.2497 14.8868C22.1145 14.8868 22.092 14.9299 22.1408 15.0445C22.1778 15.1354 22.2421 15.2127 22.3247 15.2658C22.4073 15.3189 22.5043 15.3451 22.6025 15.341C22.7639 15.341 22.9234 15.341 23.1111 15.341C23.0754 15.4198 23.0604 15.4611 23.0398 15.4986C22.4993 16.5102 21.9268 17.5068 21.2906 18.4621C20.7814 19.2779 20.1731 20.0275 19.4795 20.6936C19.2666 20.9048 19.0105 21.0675 18.7288 21.1703C18.2671 21.3167 17.9274 21.0577 17.9555 20.5791C17.9633 20.4595 17.9847 20.3411 18.0193 20.2263C18.1283 19.8749 18.2736 19.5359 18.4529 19.2147C18.7532 18.6779 19.0647 18.1468 19.3575 17.6063C19.5927 17.1863 19.7498 16.7272 19.8211 16.2512C19.8599 16.0089 19.8251 15.7605 19.721 15.5383C19.6169 15.3161 19.4484 15.1303 19.2374 15.005C19.0741 14.9056 18.969 14.9037 18.8958 15.1045C18.8339 15.2734 18.7513 15.4329 18.6781 15.5981C18.2051 16.6585 17.6421 17.6701 17.218 18.7436C17.0182 19.1734 16.9145 19.6416 16.9139 20.1155C16.9477 20.8081 17.3643 21.2417 17.933 21.5457C18.436 21.8178 18.8902 21.6433 19.3181 21.3392C19.7558 21.0098 20.155 20.6321 20.508 20.2131C20.6957 19.9973 20.8833 19.7759 21.1123 19.5094C21.0521 20.0387 21.1854 20.572 21.4876 21.0108C21.8987 21.6376 22.4692 21.814 23.1655 21.525C23.7463 21.2554 24.256 20.8537 24.6538 20.352C24.8809 20.0912 25.093 19.8153 25.3295 19.5244C25.3501 20.2507 25.4233 20.5397 25.6823 20.9545C26.1196 21.6526 26.7314 21.8347 27.4803 21.4837C27.9912 21.2259 28.4445 20.8671 28.8128 20.429L29.1319 20.063C29.2066 20.4708 29.3799 20.8542 29.6367 21.1797C29.784 21.3788 29.9898 21.5269 30.2254 21.6032C30.4609 21.6796 30.7144 21.6805 30.9505 21.6057C31.311 21.4996 31.6453 21.3194 31.9321 21.0765C32.4816 20.6086 32.9663 20.0696 33.3734 19.4737L33.625 19.1396C33.5799 20.0067 33.6925 20.5191 34.0191 20.992C34.4301 21.5869 34.9105 21.7728 35.6143 21.6114C35.841 21.5592 36.0622 21.4857 36.275 21.3918C37.1052 21.0186 37.8587 20.4941 38.4971 19.8453C38.5647 19.8134 38.5628 19.8547 38.5534 19.9016C38.5309 19.9804 38.5084 20.0592 38.484 20.1381C38.2869 20.7837 38.4145 21.099 38.9832 21.465C39.1709 21.5869 39.2704 21.5738 39.4036 21.3824C40.3195 20.0574 41.2523 18.7417 42.2882 17.503C42.8086 16.8424 43.401 16.2418 44.0541 15.7126C44.2422 15.5506 44.4653 15.4344 44.7056 15.3729C44.8932 15.3354 44.9906 15.4104 44.9927 15.6056C44.9898 15.7414 44.9531 15.8742 44.8856 15.9922C44.6773 16.407 44.469 16.8218 44.2515 17.2328C43.9129 17.8071 43.6131 18.4034 43.3542 19.0176C43.1889 19.4118 43.148 19.8471 43.2374 20.2651C43.3268 20.6831 43.5418 21.0638 43.8534 21.3561C43.9837 21.4932 44.1473 21.5937 44.3286 21.6477C44.5095 21.7018 44.7018 21.7073 44.8856 21.6639C45.231 21.5886 45.5561 21.4387 45.8373 21.2247C46.391 20.8001 46.8771 20.2939 47.2785 19.7233C47.3237 19.6632 47.3557 19.5863 47.4345 19.5619C47.4046 19.8819 47.4451 20.2046 47.5522 20.5075C47.6597 20.8105 47.8313 21.0866 48.0556 21.3167C48.1758 21.4439 48.3242 21.5408 48.4891 21.5995C48.6536 21.6582 48.8298 21.6771 49.0035 21.6545C49.2645 21.6246 49.5167 21.5402 49.7431 21.4068C50.3448 21.0356 50.8681 20.5504 51.2838 19.9785C51.3568 19.9335 51.3399 19.9785 51.3344 20.0255C51.1169 20.8306 51.2126 21.0877 51.8206 21.4781C52.0082 21.5982 52.1153 21.5869 52.2203 21.3899C52.2929 21.267 52.3738 21.1491 52.4624 21.0371C53.519 19.5356 54.5757 18.0473 55.82 16.6979C56.2088 16.249 56.6578 15.8562 57.1546 15.5305C57.3422 15.4217 57.5581 15.2528 57.7474 15.4311C57.9371 15.6093 57.7849 15.8308 57.6951 16.0147C57.5071 16.4201 57.2933 16.8199 57.0829 17.2177C56.7422 17.8012 56.4377 18.4054 56.1729 19.027C56.0426 19.3439 55.9916 19.6879 56.0245 20.029C56.057 20.3701 56.1725 20.6981 56.3606 20.9845C56.794 21.6864 57.408 21.8685 58.1547 21.5213C58.6982 21.2438 59.1777 20.8558 59.5622 20.3821C59.6693 20.2619 59.7705 20.1381 59.8776 20.0067C59.9413 20.0667 59.9113 20.108 59.9021 20.1494C59.7351 20.8212 59.8569 21.0877 60.4464 21.4631C60.6341 21.5776 60.7108 21.5325 60.8217 21.3749C61.4656 20.4365 62.1166 19.5169 62.8094 18.6198C63.5599 17.6457 64.3218 16.6772 65.2621 15.8702C65.4987 15.6378 65.785 15.462 66.0991 15.356C66.3243 15.2922 66.4276 15.3785 66.42 15.6112C66.4162 15.7171 66.3892 15.8208 66.3412 15.9153C66.2138 16.1855 66.0844 16.4558 65.9473 16.7223C65.5906 17.4167 65.1778 18.0792 64.8624 18.7868C64.4871 19.6482 64.5622 20.4515 65.1534 21.191C65.26 21.3329 65.3979 21.4484 65.5565 21.5285C65.715 21.6086 65.8896 21.6511 66.0675 21.6526C66.4065 21.647 66.7375 21.5448 67.0209 21.358C67.5475 21.0221 68.0105 20.5958 68.3891 20.0987L68.8525 19.515C68.8032 20.0113 68.9204 20.51 69.1865 20.9319C69.6296 21.6545 70.2524 21.8385 71.0165 21.4725C71.5039 21.2192 71.9378 20.8745 72.2945 20.4571C72.4109 20.3333 72.5218 20.2037 72.6491 20.0611C72.72 20.4545 72.8823 20.8256 73.1239 21.144C73.2496 21.3238 73.4224 21.4651 73.6236 21.5519C73.8251 21.6388 74.0465 21.6678 74.2632 21.6358C74.7608 21.5738 75.1529 21.3017 75.532 20.9995C75.8183 20.7451 76.0886 20.4731 76.3411 20.185C76.444 20.3445 76.5288 20.4946 76.6355 20.6298C76.7421 20.7636 76.8589 20.8891 76.9846 21.0051C78.3621 22.2589 80.5375 21.4293 80.8828 19.9298C80.8959 19.8772 80.8828 19.804 80.9578 19.7777V18.8769C80.8398 18.464 80.7027 18.0323 80.5543 17.6044ZM79.3007 20.703C79.2265 20.8428 79.1304 20.9696 79.0153 21.0783C78.5763 21.4706 77.9438 21.3786 77.5138 20.8587C77.1385 20.4139 77.1237 19.9035 77.2456 19.3686C77.2983 19.1176 77.3881 18.876 77.5121 18.6516C77.9101 17.961 78.1952 17.2084 78.6661 16.559C78.7151 16.4933 78.7564 16.4239 78.8201 16.3263C79.2198 17.2102 79.5558 18.068 79.633 19.0007C79.6971 19.5887 79.5811 20.1823 79.3007 20.703Z" fill="#EF7699"/>
<path d="M19.0347 10.6416C18.9221 8.81731 18.0062 7.49415 16.4072 6.64212C15.0934 5.94019 13.6595 5.84257 12.2031 5.99087C12.0155 6.01149 11.9948 5.95895 11.9967 5.80319C12.0155 4.84224 12.0286 3.8832 12.0417 2.92228C12.0417 2.7346 12.0417 2.54692 12.0417 2.35924C12.0417 2.29355 12.0305 2.2335 12.1243 2.20159C12.2247 2.17686 12.3179 2.12931 12.397 2.06263C12.4759 1.99595 12.5385 1.91195 12.5797 1.81716C12.6209 1.72236 12.6397 1.61934 12.6346 1.51609C12.6295 1.41285 12.6007 1.31218 12.5503 1.2219C12.5129 1.13482 12.4517 1.06007 12.3736 1.00628C12.2956 0.952488 12.204 0.921837 12.1093 0.917861C12.0186 0.910596 11.9279 0.932303 11.8503 0.979861C11.7727 1.02742 11.7123 1.09836 11.6776 1.18249C11.6053 1.28825 11.5639 1.41214 11.5583 1.54016C11.5526 1.66818 11.5829 1.79522 11.6457 1.90693C11.6697 1.94078 11.6817 1.9816 11.68 2.02302C11.6783 2.06444 11.6629 2.10413 11.6363 2.1359C11.3471 2.51116 11.008 2.84519 10.6285 3.12873C9.463 4.02584 8.16987 4.14971 6.99501 3.48157C6.93657 3.45932 6.88783 3.41724 6.8573 3.36269C6.82677 3.30814 6.8164 3.24459 6.82795 3.18316C6.88357 2.68298 6.86775 2.17744 6.78102 1.68172C6.69095 1.1412 6.50888 0.651354 5.97966 0.367957C5.8635 0.299403 5.73304 0.258706 5.59849 0.249061C5.46394 0.239415 5.32901 0.261084 5.20428 0.312366C5.07951 0.363647 4.96837 0.443147 4.87948 0.544622C4.79064 0.646097 4.7265 0.766786 4.69214 0.897213C4.53452 1.3758 4.66587 1.79808 4.91924 2.19971C5.24775 2.69714 5.65174 3.14037 6.11666 3.51347C6.19547 3.57916 6.25555 3.63547 6.22363 3.75558C6.10228 4.3164 5.82513 4.83161 5.42409 5.24201C4.46693 6.15413 3.28831 6.3193 2.04587 6.22544C1.99157 6.22674 1.93861 6.20849 1.8966 6.17404C1.85459 6.13963 1.82631 6.09127 1.8169 6.03776C1.75733 5.89043 1.65256 5.76583 1.51765 5.68184C1.38274 5.59789 1.22466 5.55888 1.06618 5.57044C1.00628 5.57516 0.948257 5.5935 0.896536 5.62407C0.844816 5.65468 0.80077 5.69668 0.767767 5.74686C0.691953 5.86399 0.661206 6.00462 0.681222 6.14267C0.701243 6.28071 0.770672 6.40683 0.876622 6.49757C1.12624 6.75845 1.41339 6.8279 1.64987 6.65713C1.75309 6.58017 1.80376 6.59519 1.88822 6.67589C2.76406 7.50917 3.6399 8.33936 4.51572 9.1664C4.61708 9.26211 4.63585 9.31465 4.51572 9.40662C4.36186 9.52674 4.21921 9.65999 4.07469 9.79323C2.37055 11.3604 1.07181 13.1903 0.396161 15.433C0.101503 16.4521 -0.114329 17.4881 0.0658441 18.5579C0.334226 20.1476 1.77936 22.0713 4.16102 22.1858C6.50328 22.3002 8.38947 21.3449 9.89279 19.6014C10.8875 18.4472 11.6119 17.1109 12.3214 15.7709C13.2898 13.941 14.1569 12.0623 15.1103 10.2249C15.4199 9.62621 15.7409 9.03501 16.0749 8.40628C15.7175 8.43432 15.3746 8.56031 15.084 8.77038C14.6051 9.10969 14.1843 9.52417 13.8378 9.99782C13.0383 11.0263 12.4114 12.1637 11.7733 13.2972C10.9869 14.7142 10.255 16.1612 9.33347 17.4994C8.55838 18.6255 7.6969 19.6878 6.57648 20.5023C5.85013 21.0315 5.05624 21.4144 4.13662 21.4576C2.57513 21.5289 1.08683 20.3728 0.683314 18.7962C0.468329 17.9005 0.511274 16.9623 0.807179 16.0899C1.67614 13.3291 3.32022 11.0939 5.56674 9.32216C7.52537 7.78316 9.87154 6.81596 12.3457 6.52764C13.4348 6.37432 14.5446 6.47712 15.587 6.8279C17.1635 7.37217 18.6349 9.04627 18.359 10.985C18.1526 12.432 17.5877 13.6932 16.4935 14.6804C15.7672 15.3373 14.9113 15.6752 13.911 15.525C13.7703 15.5043 13.6333 15.465 13.4944 15.4368C13.457 15.4222 13.4156 15.4216 13.3779 15.4353C13.3401 15.449 13.3087 15.4759 13.2894 15.5111C13.27 15.5463 13.2642 15.5873 13.2729 15.6265C13.2816 15.6656 13.3043 15.7003 13.3367 15.7239C13.4257 15.8189 13.5416 15.8844 13.6689 15.9116C15.251 16.2739 16.6436 15.9529 17.7303 14.6992C18.7325 13.5337 19.1304 12.1561 19.0347 10.6416ZM5.23831 1.8206C5.13842 1.64424 5.0909 1.44307 5.10131 1.24067C5.09912 1.14628 5.12577 1.05346 5.17776 0.974646C5.22975 0.895826 5.30455 0.834761 5.39221 0.799621C5.47435 0.76176 5.5661 0.749747 5.65524 0.765163C5.74438 0.780579 5.82677 0.822702 5.89145 0.885955C6.06627 1.03037 6.18893 1.22817 6.2405 1.449C6.36582 1.99126 6.40634 2.54966 6.36063 3.10433C5.92122 2.73535 5.54249 2.29963 5.23831 1.81309V1.8206ZM11.5537 4.33551C11.5537 4.861 11.5537 5.38651 11.5537 5.91016C11.5537 6.0284 11.5256 6.08469 11.3998 6.09784C9.12808 6.49939 6.99003 7.45401 5.17451 8.87735C5.04313 8.97682 4.97178 8.98623 4.84794 8.86424C4.12912 8.16421 3.41594 7.47354 2.66897 6.75284C3.06522 6.73433 3.45936 6.68411 3.8476 6.60269C5.26083 6.27612 6.24801 5.47662 6.64778 4.04649C6.66844 3.96766 6.66279 3.85881 6.81294 3.93763C8.38757 4.80096 9.80079 4.43123 11.1296 3.37459C11.2628 3.26574 11.3905 3.14938 11.5612 2.99923L11.5537 4.33551Z" fill="#EF7699"/>
<path d="M36.41 29.2201C36.1753 29.1638 36.0946 28.9536 35.9764 28.7865C35.8503 28.5699 35.6942 28.3721 35.5128 28.1991C35.541 28.171 35.5485 28.1578 35.5616 28.1503C35.9051 27.9776 36.0308 27.7994 36.0027 27.5216C35.9815 27.3763 35.9127 27.2422 35.8071 27.1403C35.7014 27.0384 35.5649 26.9745 35.419 26.9585C34.9141 26.8516 34.4018 26.9116 33.8932 26.921C33.8443 26.921 33.8068 26.9341 33.805 26.9961C33.8031 27.058 33.8181 27.0993 33.8875 27.0993C34.1446 27.0993 34.1634 27.2739 34.1616 27.4747C34.1616 27.9476 34.1616 28.4206 34.1616 28.8935C34.1616 29.0812 34.124 29.2238 33.8988 29.2276C33.8858 29.2257 33.8725 29.2269 33.86 29.231C33.8476 29.2351 33.8362 29.2421 33.8269 29.2515C33.8177 29.2607 33.8107 29.2721 33.8065 29.2846C33.8023 29.297 33.8012 29.3103 33.8031 29.3233C33.8031 29.4003 33.8556 29.404 33.91 29.404H34.946C34.9911 29.404 35.0399 29.404 35.0436 29.3402C35.0474 29.2764 35.0286 29.2314 34.9611 29.2314C34.7002 29.2314 34.6814 29.0624 34.6908 28.856C34.6908 28.7584 34.6908 28.6683 34.6908 28.5651C34.6908 28.4619 34.627 28.3436 34.7621 28.3155C34.8262 28.2939 34.8948 28.29 34.9609 28.3042C35.027 28.3184 35.088 28.3502 35.1375 28.3962C35.1953 28.465 35.2474 28.5384 35.2932 28.6158C35.4303 28.8316 35.5635 29.0493 35.7005 29.2633C35.7399 29.3233 35.77 29.3984 35.8638 29.3984H36.3593C36.4043 29.3984 36.4531 29.3984 36.455 29.3346C36.4569 29.2708 36.47 29.2332 36.41 29.2201ZM35.4246 27.7187C35.4228 27.7919 35.397 27.8626 35.3513 27.9198C35.3055 27.9771 35.2423 28.0178 35.1713 28.0358L35.1281 28.0471C34.7415 28.1616 34.6927 28.1259 34.6927 27.7318V27.5985C34.6889 27.5611 34.6889 27.5234 34.6927 27.4859C34.7171 27.3602 34.612 27.1687 34.7509 27.12C34.8448 27.0914 34.9444 27.0866 35.0407 27.106C35.1369 27.1253 35.227 27.1681 35.3026 27.2307C35.4716 27.3546 35.4415 27.5478 35.4265 27.7262L35.4246 27.7187Z" fill="#EF7699"/>
<path d="M49.2063 29.2105C49.047 29.1711 48.9681 29.0397 48.8796 28.9177C48.7248 28.6495 48.5355 28.4028 48.3166 28.1839C48.5608 28.075 48.7784 27.9568 48.8083 27.6678C48.8517 27.2736 48.6059 26.9921 48.1366 26.9283C47.6736 26.8836 47.2077 26.8792 46.7439 26.9152C46.6933 26.9152 46.6368 26.9152 46.6313 26.9902C46.6258 27.0653 46.6671 27.0935 46.7384 27.0972C46.926 27.0972 46.969 27.2248 46.969 27.3881C46.969 27.9061 46.969 28.4223 46.969 28.9403C46.969 29.0942 46.9222 29.2067 46.746 29.2161C46.6802 29.2161 46.6258 29.233 46.6313 29.3175C46.6368 29.4019 46.7085 29.3926 46.7628 29.3926C47.0854 29.3926 47.4084 29.3926 47.731 29.3926C47.7892 29.3926 47.857 29.4057 47.857 29.31C47.857 29.2424 47.8212 29.2199 47.7592 29.218C47.5341 29.218 47.491 29.0679 47.4982 28.8802C47.4982 28.7751 47.4982 28.67 47.4982 28.5668C47.4982 28.4635 47.4329 28.3416 47.5602 28.3134C47.6277 28.2875 47.701 28.2815 47.7714 28.2962C47.8419 28.3108 47.9068 28.3455 47.9582 28.396C48.0114 28.4595 48.059 28.5273 48.1008 28.5987C48.2378 28.8126 48.3694 29.0322 48.5064 29.2462C48.5532 29.3212 48.5983 29.4001 48.7109 29.3963C48.861 29.3963 49.0111 29.3963 49.1612 29.3963C49.2118 29.3963 49.2721 29.4076 49.2793 29.3287C49.2835 29.3162 49.2848 29.3029 49.2831 29.2898C49.2814 29.2767 49.2768 29.2641 49.27 29.2529C49.2628 29.2417 49.2536 29.2321 49.2426 29.2248C49.2316 29.2175 49.2194 29.2126 49.2063 29.2105ZM48.1459 27.9362C48.0674 27.9984 47.9768 28.0439 47.8798 28.0697C47.7833 28.0955 47.6821 28.1012 47.583 28.0863C47.491 28.0863 47.5058 28.0112 47.5058 27.953C47.5058 27.833 47.5058 27.7147 47.5058 27.5946C47.4982 27.5498 47.4982 27.5042 47.5058 27.4594C47.5492 27.3431 47.3877 27.1535 47.6036 27.1029C47.728 27.074 47.8587 27.0883 47.9738 27.1436C48.0894 27.1989 48.1821 27.2917 48.2378 27.4069C48.2728 27.495 48.2825 27.5911 48.2665 27.6845C48.2504 27.7779 48.2087 27.865 48.1459 27.9362Z" fill="#EF7699"/>
<path d="M14.7405 29.2199C14.4984 29.1635 14.4158 28.9458 14.2919 28.7713C14.1672 28.5522 14.0074 28.3551 13.819 28.1876C14.2826 27.9662 14.4346 27.6678 14.2732 27.328C14.138 27.0428 13.8771 26.9527 13.5919 26.9208C13.1509 26.8861 12.7079 26.8861 12.2668 26.9208C12.2106 26.9208 12.1411 26.9057 12.1355 26.9996C12.1299 27.0935 12.1768 27.101 12.2462 27.1028C12.417 27.1028 12.4864 27.2173 12.4864 27.3694C12.4864 27.9011 12.4864 28.4335 12.4864 28.9665C12.4904 28.9986 12.4876 29.0312 12.478 29.0621C12.4684 29.093 12.4523 29.1214 12.4308 29.1456C12.4093 29.1698 12.3828 29.1891 12.3533 29.2022C12.3237 29.2153 12.2917 29.222 12.2593 29.2217C12.1974 29.2217 12.1355 29.2217 12.1355 29.3137C12.1355 29.4057 12.22 29.3982 12.28 29.3982C12.5953 29.3982 12.9081 29.3982 13.2184 29.3982C13.2728 29.3982 13.3441 29.4188 13.3516 29.325C13.3591 29.2311 13.3066 29.2255 13.2391 29.2217C13.0514 29.2217 13.0007 29.0904 12.9969 28.9308C12.9969 28.8126 12.9969 28.6906 12.9969 28.5724C12.9969 28.4842 12.935 28.3471 13.0626 28.3171C13.1257 28.2941 13.1938 28.2884 13.2598 28.3006C13.3258 28.3128 13.3874 28.3425 13.438 28.3866C13.4931 28.4444 13.5428 28.5072 13.5862 28.5742C13.7308 28.8013 13.8715 29.0322 14.016 29.2593C14.0555 29.3212 14.0911 29.3906 14.1831 29.3906H14.6785C14.7217 29.3906 14.7743 29.3906 14.7743 29.3268C14.7743 29.263 14.7987 29.233 14.7405 29.2199ZM13.6576 27.9342C13.5786 27.9959 13.4881 28.0411 13.3914 28.0672C13.2947 28.0933 13.1938 28.0998 13.0945 28.0863C13.0063 28.0863 13.0101 28.0169 13.0101 27.9568C13.0101 27.8292 13.0101 27.7015 13.0101 27.5814C13.0035 27.5442 13.0035 27.5061 13.0101 27.4688C13.0514 27.3506 12.8975 27.1629 13.1077 27.1085C13.3666 27.0428 13.697 27.2023 13.7439 27.4069C13.777 27.4946 13.7865 27.5895 13.7713 27.6821C13.7562 27.7747 13.717 27.8616 13.6576 27.9342Z" fill="#EF7699"/>
<path d="M45.3267 27.3205C45.2626 27.2004 45.1673 27.0998 45.0505 27.0298C44.9337 26.9597 44.8005 26.9227 44.6643 26.9226C44.3754 26.8813 44.082 26.8813 43.7931 26.9226C43.6375 26.9226 43.4651 26.9226 43.2939 26.9226C43.2433 26.9226 43.1834 26.9114 43.1758 26.9921C43.1682 27.0728 43.2041 27.099 43.2791 27.1028C43.4874 27.1028 43.5342 27.2398 43.5326 27.4237C43.5326 27.9098 43.5326 28.3978 43.5326 28.8858C43.5326 29.0734 43.4988 29.2179 43.2737 29.2236C43.2096 29.2236 43.1758 29.2517 43.1758 29.3193C43.1758 29.3869 43.2264 29.3981 43.2829 29.4H44.3168C44.3733 29.4 44.4239 29.3906 44.4222 29.3156C44.4201 29.2405 44.3995 29.2255 44.3451 29.2274C44.0503 29.2274 44.0541 29.0397 44.0617 28.8276C44.0617 28.715 44.0617 28.6024 44.0617 28.4897C44.0617 28.3771 44.0862 28.3021 44.2325 28.3021C44.4501 28.3049 44.6668 28.2804 44.8781 28.2289C44.9733 28.2082 45.0623 28.1664 45.1391 28.1065C45.2158 28.0465 45.2782 27.9701 45.3212 27.8828C45.3646 27.7955 45.3874 27.6996 45.3883 27.6023C45.3891 27.5049 45.368 27.4086 45.3267 27.3205ZM44.1368 28.0881C44.0672 28.0675 44.0634 28.0243 44.0634 27.9717C44.0634 27.7184 44.0634 27.4631 44.0634 27.2098C44.0634 27.1535 44.0748 27.116 44.1423 27.0971C44.2211 27.0736 44.3046 27.0691 44.3856 27.0841C44.4661 27.099 44.5424 27.1331 44.6074 27.1833C44.6727 27.2336 44.725 27.2986 44.76 27.3731C44.795 27.4475 44.8114 27.5292 44.8085 27.6114C44.8076 27.6916 44.7874 27.7705 44.7499 27.8415C44.7128 27.9125 44.6592 27.9737 44.5934 28.0202C44.5281 28.0666 44.4526 28.097 44.3733 28.1088C44.2941 28.1206 44.2131 28.1135 44.1368 28.0881Z" fill="#EF7699"/>
<path d="M28.5482 26.921C28.2674 26.8824 27.9826 26.8824 27.7018 26.921H27.2007C27.1463 26.921 27.0731 26.9023 27.0674 26.9961C27.0618 27.0899 27.1087 27.0993 27.1782 27.1031C27.3659 27.1125 27.4203 27.2157 27.4184 27.3864C27.4184 27.9045 27.4184 28.4225 27.4184 28.9405C27.4184 29.1075 27.364 29.2182 27.1782 29.222C27.1087 29.222 27.0637 29.252 27.0674 29.3289C27.0712 29.4059 27.1331 29.3984 27.1838 29.3984C27.5198 29.3984 27.8576 29.3984 28.1954 29.3984C28.248 29.3984 28.3042 29.3984 28.3061 29.3252C28.308 29.252 28.2855 29.2257 28.2179 29.2239C27.9796 29.2239 27.9382 29.0737 27.9458 28.8766C27.9458 28.734 27.9458 28.5914 27.9458 28.4487C27.9458 28.3436 27.9758 28.3061 28.0846 28.3023C28.3174 28.3057 28.5496 28.2786 28.7753 28.2216C28.9097 28.1961 29.0313 28.1254 29.12 28.0213C29.2087 27.9172 29.2593 27.7859 29.2633 27.6492C29.2783 27.2269 29.0305 26.9679 28.5482 26.921ZM28.6121 27.9289C28.4619 28.1034 28.2367 28.0903 28.0265 28.0865C27.9326 28.0865 27.9495 28.0133 27.9477 27.9551C27.9477 27.8294 27.9477 27.7018 27.9477 27.5798C27.941 27.5431 27.941 27.5057 27.9477 27.4691C27.9908 27.3489 27.835 27.1631 28.0415 27.1087C28.1619 27.0781 28.289 27.0883 28.4031 27.1375C28.5171 27.1867 28.6117 27.2723 28.6721 27.3808C28.712 27.4692 28.7275 27.5667 28.7169 27.6631C28.7063 27.7594 28.6701 27.8512 28.6121 27.9289Z" fill="#EF7699"/>
<path d="M32.5757 29.2219C32.3693 29.1994 32.3224 29.0343 32.2623 28.8803C32.0221 28.2741 31.7856 27.6679 31.5454 27.0617C31.5154 26.9847 31.5135 26.874 31.384 26.874C31.2545 26.874 31.2601 26.9885 31.232 27.0617C31.0049 27.6416 30.7872 28.2234 30.5582 28.8015C30.4906 28.9723 30.4362 29.1656 30.2147 29.2125C30.1565 29.2238 30.1509 29.2651 30.1509 29.3139C30.1509 29.3908 30.2091 29.3871 30.2617 29.3871C30.4493 29.3871 30.652 29.3871 30.8453 29.3871C30.8997 29.3871 30.9767 29.4152 30.9936 29.3289C31.0105 29.2425 30.9523 29.2163 30.8735 29.2069C30.7252 29.1881 30.7027 29.0961 30.7308 28.9629C30.7684 28.7902 30.8303 28.6739 31.0424 28.702C31.1963 28.7227 31.3577 28.702 31.5135 28.702C31.7312 28.7208 31.7011 28.9254 31.7443 29.0586C31.7875 29.1919 31.673 29.2032 31.5754 29.205C31.5172 29.205 31.474 29.2219 31.4722 29.2932C31.4703 29.3645 31.5341 29.3795 31.5942 29.3814H32.5326C32.5776 29.3814 32.6245 29.3814 32.6245 29.3139C32.6245 29.2463 32.6358 29.2275 32.5757 29.2219ZM31.0968 27.987C31.1306 27.8969 31.1681 27.7993 31.2151 27.6848C31.2826 27.8481 31.3408 27.9832 31.3915 28.1202C31.4542 28.2466 31.5009 28.3802 31.5304 28.5181C30.8791 28.5725 30.8791 28.5725 31.0968 27.987Z" fill="#EF7699"/>
<path d="M69.5453 29.2201C69.3387 29.1995 69.2881 29.0324 69.2278 28.8804C68.9858 28.2686 68.7475 27.653 68.5055 27.0412C68.4773 26.968 68.4697 26.8741 68.3533 26.876C68.2369 26.8779 68.2352 26.9755 68.207 27.0468C67.9818 27.6342 67.7604 28.2235 67.5294 28.8091C67.4619 28.9799 67.402 29.1694 67.1824 29.2183C67.1149 29.2333 67.1052 29.2821 67.1128 29.3383C67.1204 29.3947 67.1748 29.3928 67.2178 29.3947C67.4054 29.3947 67.6082 29.3947 67.8035 29.3947C67.8562 29.3947 67.9329 29.4247 67.9498 29.3365C67.9666 29.2483 67.9144 29.2258 67.8355 29.2126C67.6926 29.1882 67.6647 29.1 67.7001 28.963C67.7436 28.7941 67.8035 28.6777 68.0156 28.7096C68.1648 28.72 68.3149 28.72 68.4642 28.7096C68.6969 28.7096 68.6649 28.918 68.71 29.0493C68.7551 29.1807 68.648 29.2145 68.5371 29.2145C68.4718 29.2145 68.4435 29.2464 68.4452 29.3121C68.4473 29.3778 68.4979 29.389 68.5523 29.3909H69.4909C69.5415 29.3909 69.5997 29.3909 69.6014 29.3196C69.609 29.2727 69.6035 29.2258 69.5453 29.2201ZM68.3592 28.5332C67.8503 28.5632 67.8503 28.5689 68.0286 28.0921C68.0737 27.9683 68.1226 27.8444 68.1863 27.6774C68.2896 27.9401 68.374 28.156 68.4621 28.368C68.5034 28.4788 68.5034 28.5257 68.3592 28.5332Z" fill="#EF7699"/>
<path d="M39.9629 29.2202C39.7753 29.1976 39.719 29.0325 39.6608 28.8936C39.4187 28.2818 39.1803 27.6662 38.9382 27.0525C38.9101 26.983 38.9119 26.8835 38.7955 26.8779C38.6792 26.8723 38.6604 26.9793 38.6304 27.0562C38.3996 27.6493 38.1762 28.2461 37.9435 28.8391C37.8797 29.0043 37.8178 29.1845 37.6019 29.2145C37.5437 29.2239 37.5419 29.2708 37.5437 29.3178C37.5456 29.3647 37.585 29.3872 37.6338 29.3872H38.2869C38.3414 29.3872 38.3921 29.3872 38.3921 29.3065C38.3921 29.2258 38.362 29.2126 38.2982 29.2089C38.2344 29.2051 38.1499 29.1901 38.1237 29.0982C38.1122 29.053 38.1109 29.0059 38.1199 28.9601C38.1289 28.9144 38.1478 28.8712 38.1755 28.8337C38.2031 28.7962 38.2387 28.7653 38.2797 28.7432C38.3208 28.7211 38.3662 28.7084 38.4127 28.7059C38.5778 28.7059 38.743 28.6965 38.9082 28.7059C39.124 28.7209 39.0958 28.9255 39.1465 29.0587C39.1972 29.192 39.0789 29.2051 38.9814 29.2089C38.9176 29.2089 38.8819 29.2371 38.8837 29.3028C38.8837 29.3985 38.9551 29.3834 39.0114 29.3834H39.9122C39.9629 29.3834 40.023 29.3834 40.0249 29.3121C40.0267 29.2746 40.0192 29.2277 39.9629 29.2202ZM38.8162 28.5314C38.2701 28.5783 38.2682 28.5764 38.4615 28.0697C38.5028 27.9589 38.5478 27.8482 38.6135 27.6793C38.728 27.9664 38.8143 28.1954 38.9082 28.43C38.9532 28.5276 38.8913 28.5257 38.8162 28.5314Z" fill="#EF7699"/>
</g>
<defs>
<clipPath id="clip0_218_994">
<rect width="81" height="29.2207" fill="white" transform="translate(0 0.246826)"/>
</clipPath>
</defs>
</svg>
