<svg width="81" height="31" viewBox="0 0 81 31" fill="none" xmlns="http://www.w3.org/2000/svg">
<rect width="81" height="30" transform="translate(0 0.246826)" fill="white"/>
<path fill-rule="evenodd" clip-rule="evenodd" d="M62.0732 23.0732L62.6534 20.2994H63.7997L64.2101 22.1392L65.3423 20.2994H66.531L65.9508 23.0732H65.1158L65.5829 20.8655L64.196 23.0732H63.6299L63.177 20.8655L62.7383 23.0732H62.0732ZM67.8189 22.7052C67.9887 22.7052 68.1444 22.6486 68.2576 22.5354C68.3708 22.4222 68.4557 22.2524 68.4982 22.0401C68.5406 21.8278 68.5265 21.658 68.4698 21.5448C68.3991 21.4316 68.2859 21.3749 68.1019 21.3749C67.9321 21.3749 67.7764 21.4316 67.6632 21.5448C67.55 21.658 67.4651 21.8278 67.4226 22.0401C67.3802 22.2665 67.3801 22.4222 67.4509 22.5354C67.5217 22.6486 67.6349 22.7052 67.8189 22.7052ZM67.7339 23.1298C67.3094 23.1298 66.9981 23.0307 66.7858 22.8326C66.5735 22.6345 66.5027 22.3656 66.5593 22.0542C66.6301 21.7288 66.8141 21.474 67.1113 21.2759C67.4085 21.0778 67.7623 20.9787 68.1868 20.9787C68.6114 20.9787 68.9227 21.0778 69.135 21.2759C69.3473 21.474 69.418 21.7429 69.3614 22.0542C69.2907 22.3797 69.1067 22.6345 68.8095 22.8326C68.5123 23.0307 68.1585 23.1298 67.7339 23.1298ZM67.8189 20.7381L68.4982 20.0305H69.1491L68.1868 20.7381H67.8189ZM70.1256 23.0732L69.5454 21.0212H70.3804L70.6917 22.408L71.5833 21.0212H72.2201L70.7908 23.0732H70.1256ZM74.725 22.4363C74.5835 22.6486 74.3853 22.8184 74.1306 22.9458C73.8617 23.059 73.5645 23.1298 73.2249 23.1298C72.8003 23.1298 72.4607 23.0307 72.2484 22.8326C72.022 22.6345 71.9512 22.3797 72.022 22.0542C72.0927 21.7429 72.2767 21.474 72.6022 21.2759C72.9277 21.0778 73.2957 20.9645 73.7202 20.9645C74.1448 20.9645 74.442 21.0636 74.6401 21.2617C74.8382 21.4599 74.8948 21.7288 74.8241 22.0684L74.8099 22.1533H72.8569C72.8145 22.3373 72.8428 22.4647 72.9277 22.5637C73.0126 22.6628 73.1541 22.7052 73.3381 22.7052C73.4796 22.7052 73.5928 22.6769 73.7061 22.6203C73.8193 22.5637 73.89 22.493 73.9608 22.3939L74.725 22.4363ZM72.9277 21.8137H74.0316C74.0599 21.6721 74.0316 21.5589 73.9608 21.474C73.8759 21.3891 73.7627 21.3608 73.5787 21.3608C73.4089 21.3608 73.2815 21.4033 73.1683 21.4882C73.0551 21.5589 72.9702 21.6721 72.9277 21.8137ZM74.9514 23.0732L75.376 21.0212H76.2109L75.7864 23.0732H74.9514ZM75.4467 20.7523L75.5458 20.2994H76.3808L76.2817 20.7523H75.4467ZM76.1826 22.493L76.8761 22.4222C76.8902 22.5213 76.9468 22.592 77.0601 22.6345C77.1733 22.6911 77.3148 22.7052 77.4846 22.7052C77.6261 22.7052 77.7535 22.6911 77.8526 22.6486C77.9516 22.6062 78.0082 22.5496 78.0224 22.4788C78.0365 22.3797 77.9092 22.309 77.5978 22.2665C77.5129 22.2524 77.4422 22.2382 77.3856 22.2382C77.0176 22.1816 76.777 22.1108 76.6355 22.0118C76.494 21.9127 76.4515 21.7712 76.4798 21.6014C76.5223 21.4033 76.6638 21.2334 76.9044 21.1202C77.145 20.9928 77.4422 20.9362 77.796 20.9362C78.0932 20.9362 78.3337 20.9787 78.5177 21.0778C78.7017 21.1627 78.8149 21.3042 78.8715 21.474L78.1922 21.5589C78.1639 21.474 78.1073 21.4174 78.0224 21.3891C77.9375 21.3466 77.8243 21.3325 77.6828 21.3325C77.5412 21.3325 77.4422 21.3466 77.3573 21.3891C77.2723 21.4174 77.2299 21.474 77.2157 21.5448C77.2016 21.6438 77.3573 21.7146 77.6969 21.7571C77.8101 21.7712 77.9092 21.7854 77.9658 21.7995C78.2913 21.8561 78.5177 21.9269 78.6451 22.0118C78.7724 22.1108 78.8149 22.2382 78.7724 22.408C78.73 22.6203 78.5743 22.7901 78.3054 22.9175C78.0365 23.0449 77.7111 23.1156 77.3148 23.1156C76.9893 23.1156 76.7204 23.059 76.5081 22.9458C76.3242 22.8468 76.2109 22.6911 76.1826 22.493Z" fill="#2389CB"/>
<path fill-rule="evenodd" clip-rule="evenodd" d="M36.4583 16.3937C36.5149 14.6955 37.9018 13.2095 40.4916 13.1529C42.3455 13.1246 43.5201 13.903 43.5343 15.304C43.4211 17.257 41.5672 18.5024 39.4444 18.4882C37.9443 18.5165 36.5008 17.8655 36.4583 16.3937ZM61.4789 18.3467H63.6442L64.1536 16.0116C64.4084 15.021 65.0311 14.554 66.333 14.6813L66.6727 13.1671C65.6254 13.068 64.9178 13.3652 64.3942 13.8464L64.5216 13.2803C63.163 13.0822 62.4554 13.6765 62.2007 14.7945L61.4789 18.3467ZM66.0783 18.3467H68.2435L68.8662 15.3748C68.9794 14.3275 70.8616 13.9454 70.7343 14.9927L70.055 18.3325H72.2485L72.9703 14.7945C73.1259 13.6907 72.5033 13.1388 71.0881 13.1388C70.2814 13.0963 69.6446 13.3652 69.0927 13.7898L69.1917 13.252C67.8048 13.0539 67.0831 13.6482 66.8142 14.7662L66.0783 18.3467ZM46.3647 18.3608H48.629L49.6904 13.2661H47.4402L46.3647 18.3608ZM49.7753 12.8557L50.0442 11.5679H49.4498C47.9638 11.5255 47.5959 12.0915 47.5251 12.8557H49.7753ZM50.3697 17.0306C50.2848 18.7712 52.45 18.5731 53.7944 18.3891L54.035 17.1013L53.1576 17.2004C52.733 17.2287 52.5632 17.0589 52.634 16.7051L53.1151 14.4124H54.502L54.7285 13.2661L53.3557 13.2803L53.6671 11.8368L53.0727 11.8226C51.7849 11.8226 51.4311 12.5302 51.2188 13.2803H50.1149L49.8602 14.4408H50.9216L50.3697 17.0306ZM43.5484 18.3608H45.8128L47.2279 11.5679H46.6336C45.275 11.6528 44.8929 12.3887 44.6381 13.1812L43.5484 18.3608ZM28.9012 18.3467L30.2881 11.5679H33.9251C36.2461 11.5538 37.2791 12.3463 37.1235 13.5633C36.982 14.6247 35.8781 15.7569 33.6421 15.8559H31.7882L31.2646 18.3608H28.9012V18.3467ZM31.9297 15.2191L32.3826 12.9407H33.5147C34.3072 12.9407 34.6752 13.2378 34.6186 13.6765C34.562 14.087 34.2082 14.4832 33.4157 14.4974C32.7788 14.5257 32.2977 14.7945 31.9297 15.2191ZM73.1543 16.3937C73.2109 14.6955 74.5977 13.2095 77.1876 13.1529C79.0415 13.1246 80.2161 13.903 80.2302 15.304C80.117 17.257 78.2631 18.5024 76.1403 18.4882C74.6261 18.5165 73.1967 17.8655 73.1543 16.3937ZM75.4893 16.139C75.6025 15.1483 76.0695 14.3417 76.947 14.3275C77.5838 14.2992 77.9942 14.653 77.881 15.5446C77.7536 16.7334 77.1026 17.3277 76.3809 17.3277C75.8714 17.3277 75.4044 17.0872 75.4893 16.139ZM54.4737 16.3937C54.5303 14.6955 55.9172 13.2095 58.507 13.1529C60.3609 13.1246 61.5355 13.903 61.5497 15.304C61.4365 17.257 59.5826 18.5024 57.4598 18.4882C55.9597 18.5165 54.5162 17.8655 54.4737 16.3937ZM56.8088 16.139C56.922 15.1483 57.389 14.3417 58.2664 14.3275C58.9033 14.2992 59.3137 14.653 59.2005 15.5446C59.0731 16.7334 58.4221 17.3277 57.7004 17.3277C57.205 17.3277 56.7239 17.0872 56.8088 16.139ZM38.7934 16.139C38.9066 15.1483 39.3736 14.3417 40.251 14.3275C40.8879 14.2992 41.2983 14.653 41.1851 15.5446C41.0577 16.7334 40.4067 17.3277 39.685 17.3277C39.1897 17.3277 38.7085 17.0872 38.7934 16.139Z" fill="#26374A"/>
<path fill-rule="evenodd" clip-rule="evenodd" d="M0.116127 20.9931C9.90925 21.7714 26.1981 19.4788 26.4811 14.1294C26.3255 11.3839 20.7496 9.33187 14.5652 8.63843C18.8391 9.57245 17.3107 15.5021 12.4 15.3606L4.81456 15.304C3.22955 15.4313 2.5078 15.403 1.78605 16.422C1.70114 16.5493 1.67284 16.6343 1.61623 16.7899L0.342556 20.71C0.271797 20.894 0.186887 20.9789 0.116127 20.9931Z" fill="#2389CB"/>
<path fill-rule="evenodd" clip-rule="evenodd" d="M0.016939 20.6958L0.965117 16.4078C0.993421 16.3087 1.03588 16.1106 1.1774 15.8558C2.05481 14.3982 3.39925 14.384 4.9135 14.2284L12.4282 14.0303C15.4142 14.0586 16.4898 10.1809 13.1358 9.68561C10.3054 9.13369 6.55512 8.92141 2.55013 8.77989C2.40861 8.76574 2.38031 8.56761 2.53598 8.53931C5.47958 8.18551 9.11662 8.11475 13.9849 8.53931C18.9381 9.06293 17.4946 15.5021 12.3857 15.3605L4.80029 15.3039C3.21527 15.4313 2.49352 15.403 1.77178 16.4219C1.68686 16.5493 1.65856 16.6342 1.60195 16.7899L0.328281 20.71C0.186762 21.0921 -0.0679725 21.0921 0.016939 20.6958Z" fill="#26374A"/>
</svg>
