<svg width="81" height="31" viewBox="0 0 81 31" fill="none" xmlns="http://www.w3.org/2000/svg">
<g clip-path="url(#clip0_863_1347)">
<rect width="81" height="30" transform="translate(0 0.246826)" fill="white"/>
<path d="M4.32856 24.5576C4.32856 22.9648 4.32856 21.3721 4.32856 19.8212C4.32856 19.3182 4.4543 19.1086 4.9992 19.1086C6.80155 19.1506 8.64582 19.1086 10.4482 19.1506C12.2086 19.1925 13.4661 20.2404 13.7595 21.7912C14.0948 23.4678 13.2146 25.0606 11.538 25.5636C10.9092 25.7312 10.2805 25.8151 9.60987 25.857C8.64582 25.8989 7.63986 25.8989 6.67581 25.857C6.21474 25.857 6.00517 25.9827 6.00517 26.4857C6.04708 27.4079 5.96325 28.33 6.00517 29.294C6.04708 29.9228 5.79559 30.0904 5.20878 30.0485C4.66388 30.0066 4.24473 30.0904 4.28664 29.294C4.37047 27.7432 4.32856 26.1504 4.32856 24.5576ZM8.39433 24.4738C8.89731 24.4738 9.35838 24.4738 9.86136 24.4738C11.2026 24.4738 11.999 23.7612 12.041 22.5876C12.0829 21.3721 11.2865 20.5338 9.9452 20.4499C8.81349 20.408 7.72369 20.4499 6.59198 20.4499C6.17283 20.4499 6.00517 20.6176 6.04708 21.0367C6.04708 22.0008 6.04708 23.0068 6.04708 23.9708C6.04708 24.348 6.21474 24.5157 6.59198 24.4738C7.17879 24.4319 7.7656 24.4738 8.39433 24.4738Z" fill="#56555A"/>
<path d="M44.8606 18.6475C44.8606 19.9887 44.8606 21.2043 44.8606 22.5456C45.4893 22.2522 45.9504 21.9588 46.4534 21.833C48.9683 21.2881 50.9383 22.2941 51.0221 25.312C51.0641 26.6533 51.0221 27.9946 51.0221 29.3778C51.0221 29.8807 50.8545 30.1322 50.3515 30.0484C50.1838 30.0484 49.9743 30.0484 49.8066 30.0484C49.3455 30.0903 49.2198 29.8807 49.2198 29.4197C49.2198 28.0365 49.2198 26.6114 49.2198 25.2281C49.2198 23.7611 48.4653 22.9228 47.124 22.9228C45.7408 22.9228 44.9025 23.7611 44.9025 25.2281C44.9025 26.6114 44.8606 27.9526 44.9025 29.3358C44.9025 29.9226 44.651 30.0484 44.1481 30.0065C43.687 29.9646 43.1421 30.1741 43.1421 29.3358C43.184 26.1922 43.1421 23.0486 43.184 19.9049C43.184 19.6534 43.4355 19.3181 43.687 19.1504C43.9804 18.9828 44.3576 18.857 44.8606 18.6475Z" fill="#56555A"/>
<path d="M40.1242 27.4498C40.5853 27.7012 41.0044 27.9527 41.4655 28.1623C40.5433 29.8389 38.0703 30.4677 35.9746 30.0904C33.5016 29.6293 31.825 27.8689 31.6154 25.5636C31.322 22.5457 32.4537 20.1984 34.7171 19.3182C37.232 18.3122 39.9984 18.8991 41.4655 20.7852C41.0463 20.9948 40.6272 21.2882 40.208 21.4559C40.0404 21.4978 39.747 21.3721 39.6212 21.2463C38.4057 20.1146 36.9805 20.0727 35.5135 20.6595C34.0884 21.2044 33.5435 22.4199 33.4597 23.887C33.4178 24.5995 33.4178 25.3121 33.5854 26.0246C34.2141 29.2102 38.0703 29.4198 39.705 27.8689C39.8308 27.7432 39.9565 27.6174 40.1242 27.4498Z" fill="#56555A"/>
<path d="M61.4171 26.4018C61.3333 27.6592 62.1296 28.749 63.3033 28.8748C63.9739 28.9586 64.6446 28.8748 65.2733 28.7071C66.3212 28.4137 66.2792 28.3299 67.0756 29.3778C66.3212 29.6293 65.6505 29.9646 64.896 30.1322C62.0039 30.7191 59.5728 29.0005 59.5309 26.1084C59.4471 23.0486 61.5847 21.4139 64.435 21.7492C66.7403 22.0426 67.9139 23.5516 67.9139 25.7311C67.9139 26.276 67.7463 26.4856 67.2014 26.4437C65.5248 26.4018 63.8482 26.4437 62.1716 26.4437C61.962 26.4018 61.7105 26.4018 61.4171 26.4018ZM63.7643 25.2701C64.3511 25.2701 64.9799 25.2701 65.5667 25.2701C66.1116 25.312 66.3212 25.1443 66.1535 24.5156C65.8182 23.4677 64.938 22.839 63.6805 22.8809C62.5488 22.9228 61.6267 23.6354 61.4171 24.6833C61.3333 25.1024 61.5009 25.2282 61.8781 25.2282C62.5069 25.2701 63.1356 25.2701 63.7643 25.2701Z" fill="#56555A"/>
<path d="M29.5197 25.9829C29.5197 28.5816 27.8431 30.2163 25.1605 30.2163C22.7294 30.2163 20.969 28.4139 20.969 25.9409C20.969 23.426 22.8133 21.5818 25.3282 21.6656C27.9688 21.7494 29.6454 23.5518 29.5197 25.9829ZM27.8012 25.8571C27.8012 25.6894 27.8012 25.5218 27.8012 25.3541C27.6754 24.1386 26.7952 23.1745 25.7054 23.0488C24.2384 22.8811 23.2743 23.426 22.8552 24.6835C22.5618 25.5637 22.6037 26.4858 22.939 27.3241C23.3162 28.3301 24.5318 29.0007 25.5797 28.7912C27.0886 28.5816 27.8431 27.5337 27.8012 25.8571Z" fill="#56555A"/>
<path d="M59.6566 6.07304C60.3691 5.19282 60.956 4.48026 61.5428 3.7677C61.8362 3.43238 61.8362 3.18089 61.5847 2.84557C60.956 2.00726 60.3272 1.16896 59.6147 0.246826C60.5368 0.665978 61.3332 1.0013 62.1296 1.42045C62.6745 1.71386 63.0098 1.71386 63.387 1.21088C63.5547 0.959384 63.8062 0.749809 64.1415 0.414488C64.4349 1.21088 64.6445 1.92343 64.9379 2.55216C65.1056 2.88748 65.3151 3.22281 65.6086 3.4743C66.4888 4.18686 67.369 4.8575 68.2492 5.57006C68.2073 5.61197 68.2073 5.6958 68.1654 5.73772C67.5366 5.6958 66.9079 5.65389 66.2373 5.57006C65.7343 5.52814 65.5247 5.6958 65.5666 6.2407C65.6505 7.33049 65.6924 8.4622 65.6086 9.59391C65.0217 8.50412 64.4349 7.45624 63.89 6.36645C63.6385 5.86346 63.3451 5.65389 62.8002 5.73772C61.8362 5.86346 60.8721 5.94729 59.6566 6.07304Z" fill="#56555A"/>
<path d="M17.0289 22.5458C18.8732 21.5398 19.6276 21.456 20.8013 22.0428C20.6755 22.42 20.5498 22.8392 20.424 23.2583C19.963 23.2164 19.5438 23.0907 19.1247 23.0907C17.7834 23.0487 16.987 23.8032 16.9451 25.1445C16.9451 26.5277 16.9032 27.9528 16.9451 29.336C16.9451 29.9648 16.6936 30.0905 16.1487 30.0486C15.6457 30.0067 15.1846 30.1324 15.1846 29.336C15.2265 27.1564 15.1846 24.9768 15.1846 22.7553C15.1846 22.42 15.017 21.917 15.6038 21.917C16.1487 21.917 16.8612 21.5817 17.0289 22.5458Z" fill="#56555A"/>
<path d="M58.1059 18.6895C58.1059 19.0248 58.1478 19.2343 58.1478 19.4439C58.1478 22.7133 58.1478 25.9827 58.1478 29.294C58.1478 29.9227 57.9801 30.1323 57.3514 30.0904C56.8065 30.0485 56.3873 30.0904 56.3873 29.294C56.4292 26.3599 56.4292 23.4259 56.3873 20.4918C56.3873 19.6535 56.5969 19.1505 57.3933 18.9829C57.6029 18.9409 57.8124 18.8152 58.1059 18.6895Z" fill="#56555A"/>
<path d="M75.1654 15.0011C75.2911 15.8813 75.4588 16.7196 75.5426 17.5998C75.5845 18.2285 75.8779 18.6058 76.4228 18.8573C76.5486 18.8992 76.6324 19.0249 76.7163 19.0668C76.339 19.8632 75.836 20.6177 75.6265 21.4141C75.4169 22.2524 75.4588 23.1745 75.333 24.0128C75.1654 23.3422 74.9558 22.6296 74.7462 21.8332C74.1594 22.2105 73.6564 22.5458 73.1954 22.8392C73.1115 22.8392 73.0696 22.8392 72.9858 22.8392C74.3271 20.9111 74.2433 19.1088 72.5666 17.4321C72.6086 17.3902 72.6505 17.3483 72.6924 17.3064C73.1954 17.4321 73.6564 17.5579 74.1594 17.7256C74.5367 17.8513 74.7043 17.7675 74.7462 17.3902C74.872 16.5519 74.9558 15.7136 75.0396 14.9172C75.0816 14.9592 75.1235 15.0011 75.1654 15.0011Z" fill="#56555A"/>
<path d="M52.8245 26.2762C52.8245 25.2283 52.8665 24.1804 52.8245 23.1325C52.8245 22.5457 53.1179 22.4619 53.579 22.5038C53.9982 22.5457 54.585 22.2942 54.585 23.0906C54.585 25.2283 54.585 27.366 54.585 29.5036C54.585 30.3 53.9562 30.0066 53.579 30.0485C53.1599 30.0905 52.8665 30.0066 52.8665 29.4617C52.8665 28.4138 52.8245 27.3241 52.8245 26.2762Z" fill="#56555A"/>
<path d="M71.3091 14.8332C69.9678 16.0906 70.1355 17.4319 70.9319 18.857C70.8899 18.857 70.8061 18.899 70.7642 18.899C70.345 18.5636 69.9259 18.2702 69.4229 17.893C68.9618 18.4798 68.5846 18.9828 68.0816 19.6534C68.1235 18.899 68.1235 18.3122 68.2493 17.7253C68.3331 17.3062 68.1655 17.0966 67.8301 16.887C67.411 16.6775 66.9918 16.426 66.405 16.0906C66.8242 15.9649 67.0757 15.7972 67.3691 15.7553C68.1235 15.5877 68.5008 15.2104 68.375 14.3721C68.3331 13.9949 68.375 13.6177 68.375 13.0728C68.7104 13.6177 69.0038 13.9949 69.2133 14.456C69.4648 15.0009 69.8002 15.0847 70.345 14.917C70.5965 14.8332 70.8899 14.7913 71.1414 14.7074C71.1834 14.7494 71.2253 14.7913 71.3091 14.8332Z" fill="#56555A"/>
<path d="M72.1893 11.6897C72.0635 10.6419 71.5186 10.0131 70.345 9.84547C70.8061 9.67781 71.0995 9.55207 71.3929 9.42632C71.351 9.21674 71.2671 9.00717 71.2671 8.92334C71.6863 9.04909 72.1893 9.17483 72.6503 9.30058C72.7342 9.88739 72.818 10.5999 72.9018 11.2706C72.6503 11.1448 72.315 11.1029 72.1893 11.6897Z" fill="#56555A"/>
<path d="M64.6865 12.9051C64.6445 12.8632 64.3931 12.7794 64.1416 12.6536C64.0158 12.9051 63.8901 13.1566 63.7643 13.4081C62.9679 11.8991 62.9679 11.8991 61.962 11.3962C62.2135 11.3123 62.423 11.2704 62.6745 11.2285C62.5907 10.977 62.5488 10.7674 62.5069 10.6836C62.9679 10.8932 63.5128 11.1027 64.0158 11.3542C64.1416 11.3962 64.2673 11.5638 64.3092 11.6896C64.435 12.0668 64.6026 12.5279 64.6865 12.9051Z" fill="#56555A"/>
<path d="M73.1952 26.2761C73.4887 26.4857 73.6982 26.6114 74.0336 26.8629C73.9916 26.6953 73.9916 26.7372 73.9916 26.7372C74.0336 27.7012 73.8659 28.5395 72.8599 28.9168C72.7761 28.7491 72.6084 28.4976 72.4408 28.2461C73.1533 27.827 73.321 27.1563 73.1952 26.2761Z" fill="#56555A"/>
<path d="M54.5012 20.3242C54.5012 20.6176 54.5012 20.8272 54.5431 21.0368C54.585 21.4978 54.3755 21.7493 53.9144 21.6655C53.5791 21.6236 52.9503 21.5817 52.9084 21.414C52.7827 20.8691 53.3695 20.8691 53.7048 20.7015C53.9144 20.5338 54.1659 20.4919 54.5012 20.3242Z" fill="#56555A"/>
</g>
<defs>
<clipPath id="clip0_863_1347">
<rect width="81" height="30" fill="white" transform="translate(0 0.246826)"/>
</clipPath>
</defs>
</svg>
