<svg width="81" height="28" viewBox="0 0 81 28" fill="none" xmlns="http://www.w3.org/2000/svg">
<g clip-path="url(#clip0_218_823)">
<path d="M15.4838 6.45332C18.211 6.45332 18.863 7.36241 19.7245 8.97115C21.1524 11.5889 22.3756 14.873 24.446 14.873C24.5597 14.8745 24.6724 14.8526 24.7772 14.8086C24.8822 14.7646 24.9768 14.6995 25.0553 14.6174C25.1339 14.5352 25.1947 14.4377 25.234 14.3311C25.2733 14.2244 25.2902 14.1108 25.2836 13.9972C25.283 13.8074 25.2254 13.6221 25.1186 13.4652C25.0116 13.3083 24.8604 13.187 24.684 13.1167C24.6822 12.949 24.7154 12.7829 24.7811 12.6286C24.8466 12.4744 24.9436 12.3354 25.0657 12.2204C25.1878 12.1055 25.3323 12.0172 25.4902 11.9609C25.6483 11.9046 25.8161 11.8817 25.9834 11.8935C26.1653 11.8853 26.347 11.9152 26.5167 11.9813C26.6866 12.0474 26.8406 12.1482 26.9692 12.2772C27.0978 12.4062 27.1979 12.5606 27.2634 12.7305C27.329 12.9006 27.3582 13.0823 27.3493 13.2643C27.3493 14.516 26.0499 15.0063 24.3271 15.0063C17.4447 15.0063 16.5927 6.48187 14.7127 6.48187H14.4462V11.0701H15.6408V11.1653H10.2863V11.0701H11.7142V1.94602H10.2863V1.85083H14.3177C16.5452 1.85083 19.6341 1.90794 19.6341 4.07355C19.6341 5.97736 17.0592 6.36288 15.4838 6.45332ZM14.846 6.40099C16.1453 6.40099 16.7165 5.92503 16.7165 4.2068C16.7165 2.679 16.2786 1.94602 14.846 1.94602H14.4462V6.40099H14.846Z" fill="#C27E59"/>
<path d="M25.9836 5.93438C25.9836 5.09668 25.9836 4.17809 25.0031 4.17809C24.713 4.18537 24.4369 4.30418 24.2322 4.50986C24.0273 4.7155 23.9097 4.99215 23.9038 5.28229C23.9048 5.44269 23.9497 5.59975 24.0336 5.73645C24.1176 5.8732 24.2373 5.98443 24.3797 6.05814C24.3799 6.21014 24.349 6.36063 24.2889 6.50028C24.2289 6.63998 24.1408 6.7658 24.0303 6.8702C23.9196 6.97452 23.7888 7.0551 23.646 7.10696C23.5031 7.15887 23.3511 7.18096 23.1994 7.17185C23.0327 7.18231 22.866 7.15722 22.71 7.09827C22.5539 7.03929 22.4123 6.94779 22.2943 6.82985C22.1763 6.71191 22.0847 6.57019 22.0259 6.41414C21.9669 6.25813 21.9419 6.09132 21.9523 5.92485C21.9523 4.30184 24.1703 4.08765 25.3887 4.08765C26.9021 4.08765 28.4633 4.56362 28.4633 6.12476V9.56593C28.4633 10.2465 28.7157 10.9652 29.6579 10.1799L29.7104 10.2465C29.0855 10.8529 28.2619 11.2115 27.3925 11.2555C26.569 11.2555 26.0789 10.6178 26.0121 9.72772C25.7075 10.6796 24.6082 11.2555 23.5609 11.2555C22.314 11.2555 21.5144 10.6606 21.5144 9.51356C21.5144 7.4146 24.4987 7.87627 25.9979 6.65781L25.9836 5.93438ZM25.9836 6.74826C25.1221 7.45268 24.3416 7.46693 24.3416 9.09945C24.3416 9.68492 24.432 10.4036 25.1079 10.4036C25.7836 10.4036 25.9836 9.63255 25.9836 9.28987V6.74826Z" fill="#C27E59"/>
<path d="M29.6436 4.17836H30.7955C30.5718 2.33165 30.9191 0.760986 33.0658 0.760986C34.0176 0.760986 35.2266 1.07035 35.2266 2.33165C35.2328 2.5118 35.2014 2.69128 35.1347 2.85874C35.0679 3.0262 34.9672 3.17801 34.8388 3.30459C34.7105 3.43115 34.5572 3.52973 34.3889 3.59411C34.2205 3.65848 34.0406 3.68726 33.8605 3.67859C33.6933 3.69045 33.5254 3.6675 33.3675 3.61124C33.2096 3.55496 33.065 3.46657 32.9429 3.35165C32.8208 3.23673 32.7239 3.09776 32.6582 2.94351C32.5925 2.78924 32.5595 2.62304 32.5612 2.4554C32.7443 2.37308 32.8994 2.23921 33.0076 2.07015C33.1158 1.9011 33.1724 1.70418 33.1704 1.50348C33.1704 1.13223 32.9848 0.879973 32.6279 0.879973C30.724 0.879973 30.7859 4.14979 33.5417 4.14979H34.5222V4.24499H33.2514V11.0702H34.6793V11.1654H29.6293V11.0702H30.7859V4.27354H29.6436V4.17836Z" fill="#C27E59"/>
<path d="M42.9945 14.9014C43.1096 14.8997 43.2235 14.8746 43.3289 14.8277C43.4339 14.7808 43.5288 14.713 43.6068 14.6285C43.6852 14.544 43.7455 14.4444 43.7843 14.3359C43.8231 14.2273 43.8391 14.112 43.8319 13.9971C43.8294 13.8045 43.7683 13.6172 43.6569 13.46C43.546 13.3027 43.3896 13.183 43.2087 13.1166C43.207 12.9489 43.2399 12.7827 43.3057 12.6285C43.3711 12.4742 43.4685 12.3352 43.5903 12.2203C43.7126 12.1053 43.8568 12.017 44.0149 11.9607C44.173 11.9044 44.3409 11.8815 44.5083 11.8933C44.6879 11.8854 44.8675 11.9147 45.0358 11.9793C45.2036 12.0439 45.3566 12.1425 45.4848 12.269C45.613 12.3954 45.7138 12.5469 45.7808 12.7141C45.8479 12.8812 45.8795 13.0604 45.874 13.2403C45.874 14.5159 44.4033 15.0061 43.237 15.0061C42.2107 14.9873 41.2338 14.5625 40.5202 13.8247C39.8065 13.0869 39.4144 12.0963 39.4296 11.0699V9.72772C39.125 10.6796 38.0017 11.2555 36.9737 11.2555C35.7267 11.2555 34.9317 10.6606 34.9317 9.51356C34.9317 7.4146 37.916 7.87627 39.4154 6.65781V5.93438C39.4154 5.09668 39.4154 4.17809 38.4349 4.17809C38.1443 4.1842 37.8676 4.30266 37.6625 4.50855C37.4576 4.71445 37.3402 4.99181 37.3353 5.28229C37.3365 5.44269 37.3815 5.59975 37.4653 5.73645C37.5491 5.8732 37.6688 5.98443 37.8114 6.05814C37.8116 6.21014 37.7807 6.36063 37.7207 6.50028C37.6605 6.63998 37.5725 6.7658 37.4619 6.8702C37.3514 6.97452 37.2205 7.0551 37.0777 7.10696C36.9347 7.15887 36.7827 7.18096 36.6309 7.17185C36.4644 7.18231 36.2976 7.15722 36.1415 7.09827C35.9857 7.03929 35.8438 6.94779 35.726 6.82985C35.608 6.71191 35.5165 6.57019 35.4575 6.41414C35.3987 6.25813 35.3734 6.09132 35.384 5.92485C35.384 4.30184 37.5972 4.08765 38.8204 4.08765C40.3292 4.08765 41.8951 4.56362 41.8951 6.12476V11.1651C41.8951 12.4931 41.8951 14.9014 42.9945 14.9014ZM39.4392 6.74826C38.5777 7.45268 37.797 7.46693 37.797 9.09945C37.797 9.68492 37.8875 10.4036 38.5633 10.4036C39.2392 10.4036 39.4392 9.63255 39.4392 9.28987V6.74826Z" fill="#C27E59"/>
<path d="M45.8074 6.90531C45.836 8.23795 46.2834 10.237 48.0632 10.237C48.9917 10.237 49.9198 9.43739 50.3292 8.46645L50.4102 8.50925C49.7579 9.93714 48.4727 11.246 46.5642 11.246C46.1084 11.2568 45.6552 11.174 45.2331 11.0027C44.8106 10.8313 44.4277 10.5751 44.1081 10.2498C43.7889 9.92458 43.5393 9.53724 43.3757 9.11179C43.2121 8.6863 43.1374 8.2318 43.1564 7.77628C43.1564 5.59641 44.7604 4.07812 47.1495 4.07812C49.3341 4.07812 50.5434 5.21089 50.1146 6.89578L45.8074 6.90531ZM45.8074 6.77203H47.7685C47.9827 5.94862 47.9827 4.17807 47.0403 4.17807C45.979 4.17807 45.8074 5.62972 45.8074 6.77203Z" fill="#C27E59"/>
<path d="M51.8805 1.04168L53.0607 0.737064C51.9471 0.670425 49.905 -0.214853 49.905 1.12259C49.9189 1.30528 49.9851 1.48015 50.0956 1.6262C50.2061 1.77226 50.3566 1.88329 50.5287 1.94599C50.5295 2.11344 50.4962 2.27931 50.43 2.43324C50.3646 2.58716 50.2672 2.72583 50.1454 2.84063C50.0239 2.95541 49.8789 3.04381 49.7216 3.10036C49.5639 3.15688 49.3965 3.18032 49.2291 3.16919C49.0486 3.17794 48.8677 3.14892 48.6987 3.08398C48.5296 3.01903 48.3761 2.91957 48.2475 2.79198C48.1189 2.66436 48.0185 2.51139 47.9523 2.34279C47.8861 2.17419 47.8558 1.99367 47.8634 1.81272C47.8634 0.551439 49.1865 0.246826 50.1433 0.246826C51.3901 0.246826 52.5231 0.64187 53.3656 0.64187C53.6949 0.647545 54.0208 0.575813 54.3172 0.432449V11.07H55.4738V11.1653H50.7146V11.07H51.8661L51.8805 1.04168Z" fill="#C27E59"/>
<path d="M60.9237 11.1651C62.1187 12.7072 65.1787 12.7596 65.1787 11.0699C65.1652 10.8872 65.099 10.7124 64.9885 10.5663C64.878 10.4203 64.7275 10.3092 64.5554 10.2465C64.5542 10.0791 64.5875 9.9132 64.6537 9.7593C64.7195 9.60535 64.8164 9.46667 64.9383 9.3519C65.0602 9.23712 65.2048 9.1487 65.3625 9.09216C65.5202 9.03565 65.6876 9.01217 65.8546 9.02334C66.0355 9.01457 66.2163 9.04358 66.3854 9.10856C66.5545 9.17349 66.708 9.27292 66.8366 9.40056C66.9652 9.52815 67.0656 9.68112 67.1318 9.84974C67.198 10.0183 67.2283 10.1988 67.2207 10.3798C67.2207 12.9071 60.3764 13.6115 60.3764 9.72772C60.0766 10.6796 58.9487 11.2555 57.9253 11.2555C56.6785 11.2555 55.8833 10.6606 55.8833 9.51356C55.8833 7.4146 58.8677 7.87627 60.3667 6.65781V5.93438C60.3667 5.09668 60.3667 4.17809 59.3864 4.17809C59.0954 4.18416 58.8184 4.30245 58.6126 4.50821C58.4064 4.71402 58.2884 4.99135 58.2821 5.28229C58.2825 5.44281 58.3276 5.60005 58.4115 5.73688C58.4954 5.87375 58.6152 5.98481 58.7581 6.05814C58.7585 6.21014 58.7277 6.36063 58.667 6.50028C58.6071 6.63998 58.5194 6.7658 58.409 6.8702C58.2985 6.97452 58.1674 7.0551 58.0248 7.10696C57.8815 7.15887 57.7297 7.18096 57.5779 7.17185C57.4113 7.18231 57.2444 7.15722 57.0883 7.09827C56.9323 7.03928 56.7907 6.94779 56.673 6.82985C56.555 6.71191 56.4635 6.57019 56.4044 6.41414C56.3458 6.25813 56.3205 6.09132 56.3306 5.92485C56.3306 4.30184 58.5439 4.08765 59.7671 4.08765C61.2758 4.08765 62.8418 4.56362 62.8418 6.12476V11.1651H60.9237ZM60.3815 6.74826C59.5196 7.45268 58.7345 7.46693 58.7345 9.09945C58.7345 9.68492 58.8298 10.4036 59.5053 10.4036C60.1812 10.4036 60.3815 9.63255 60.3815 9.28987V6.74826Z" fill="#C27E59"/>
<path d="M3.79447 14.2733L5.17 14.1496C4.05626 14.0829 2.00964 13.1977 2.00964 14.5351C2.0237 14.7183 2.0905 14.8936 2.20199 15.0397C2.31347 15.1858 2.46487 15.2965 2.6379 15.3585C2.6355 15.522 2.60034 15.6834 2.5345 15.8331C2.46863 15.9828 2.37343 16.1178 2.25452 16.2301C2.13559 16.3423 1.99536 16.4296 1.84212 16.4867C1.68887 16.5439 1.52573 16.5697 1.36234 16.5627C1.18184 16.5708 1.00163 16.5412 0.833145 16.4759C0.664655 16.4107 0.511569 16.3112 0.383584 16.1836C0.2556 16.0561 0.155514 15.9033 0.0896722 15.735C0.0238309 15.5668 -0.00632955 15.3867 0.00110434 15.2062C0.00110434 13.9401 1.32426 13.6355 2.28093 13.6355C3.52794 13.6355 4.78448 14.0591 5.61261 14.0591H9.74871L10.0819 17.2004H9.98665C9.74871 15.1919 9.07284 14.1496 6.52647 14.1496V23.288H7.95436V23.3783H2.36185V23.288H3.78971L3.79447 14.2733Z" fill="#C27E59"/>
<path d="M13.6469 16.2961C15.8078 16.2961 17.4926 17.8097 17.4926 19.8849C17.4926 21.9601 15.8078 23.4784 13.6469 23.4784C11.4861 23.4784 9.80118 21.9601 9.80118 19.8849C9.80118 17.8097 11.4861 16.2961 13.6469 16.2961ZM13.6469 23.3832C14.8416 23.3832 14.8511 21.9886 14.8511 19.8849C14.8511 17.7811 14.8511 16.3865 13.6469 16.3865C12.4428 16.3865 12.438 17.7811 12.438 19.8849C12.438 21.9886 12.4523 23.3832 13.6469 23.3832Z" fill="#C27E59"/>
<path d="M17.7827 16.8909V16.8004L21.5903 16.296L21.5475 18.0474C21.679 17.5384 21.9785 17.0886 22.3975 16.7708C22.8164 16.4529 23.3302 16.2856 23.8559 16.296C24.9553 16.296 25.7596 16.8814 25.874 18.038C26.0056 17.5306 26.3047 17.0826 26.7228 16.7664C27.141 16.4503 27.6535 16.2845 28.1774 16.296C29.3436 16.296 30.205 16.948 30.205 18.2474V23.3687C30.205 24.768 30.205 27.1097 31.3331 27.1097C31.4458 27.1043 31.5565 27.0764 31.6584 27.0278C31.7604 26.9793 31.8515 26.911 31.9268 26.8267C32.0021 26.7427 32.0599 26.6444 32.0969 26.5376C32.1339 26.431 32.1494 26.318 32.1423 26.2053C32.1396 26.0126 32.0786 25.8255 31.9673 25.6681C31.856 25.5111 31.6996 25.3912 31.5188 25.3249C31.5176 25.1574 31.5512 24.9914 31.6171 24.8376C31.6831 24.6838 31.7801 24.545 31.902 24.4303C32.0239 24.3155 32.1681 24.227 32.3258 24.1704C32.4835 24.1141 32.651 24.0904 32.818 24.1017C32.9981 24.0904 33.1784 24.1167 33.3479 24.1786C33.5171 24.2406 33.6718 24.3371 33.8018 24.4618C33.932 24.5867 34.0348 24.7371 34.104 24.9035C34.1729 25.0702 34.2067 25.2492 34.2033 25.4295C34.2033 26.7193 32.7039 27.2144 31.6472 27.2144C31.1333 27.2144 30.6244 27.1122 30.1501 26.9136C29.676 26.715 29.2463 26.4243 28.8855 26.0578C28.525 25.6916 28.2409 25.2572 28.0499 24.7798C27.859 24.3027 27.7648 23.7922 27.7729 23.2782V18.1855C27.7729 17.6619 27.7729 16.8528 27.1114 16.8528C26.4498 16.8528 25.9311 17.8047 25.9024 18.5805V23.2782H26.5879V23.3687H22.7136V23.2782H23.4323V18.1855C23.4323 17.6619 23.4323 16.8528 22.7706 16.8528C22.1091 16.8528 21.5618 17.8523 21.5618 18.6329V23.2782H22.3042V23.3687H17.954V23.2782H19.1106V16.7195L17.7827 16.8909Z" fill="#C27E59"/>
<path d="M35.9499 18.1427C35.9499 17.3051 35.9499 16.3865 34.9647 16.3865C34.6758 16.3925 34.4005 16.5097 34.1956 16.7135C33.9909 16.9174 33.8727 17.1923 33.8654 17.4812C33.8658 17.6411 33.9103 17.7978 33.9944 17.9339C34.0784 18.07 34.1985 18.1801 34.3413 18.2522C34.3429 18.4063 34.3128 18.559 34.2528 18.701C34.1928 18.8429 34.1043 18.971 33.9926 19.0773C33.881 19.1835 33.7488 19.2657 33.6039 19.3186C33.4592 19.3716 33.3052 19.3941 33.1514 19.385C32.9845 19.3955 32.8173 19.3703 32.6608 19.3111C32.5046 19.2518 32.3625 19.1599 32.2445 19.0414C32.1265 18.9229 32.0351 18.7806 31.9764 18.6241C31.9178 18.4674 31.8931 18.3001 31.9043 18.1333C31.9043 16.5102 34.1175 16.3008 35.3361 16.3008C36.8495 16.3008 38.4154 16.7767 38.4154 18.3331V21.7649C38.4154 22.4455 38.6677 23.1593 39.6102 22.3741L39.6625 22.4455C39.0352 23.0506 38.2103 23.4089 37.3399 23.4545C36.5211 23.4545 36.0262 22.8166 35.9644 21.9266C35.6549 22.8785 34.5364 23.4545 33.5083 23.4545C32.2614 23.4545 31.4665 22.8547 31.4665 21.7124C31.4665 19.6087 34.4508 20.0751 35.9499 18.8567V18.1427ZM35.9499 18.9567C35.0884 19.6611 34.3032 19.6753 34.3032 21.3079C34.3032 21.8933 34.3985 22.6119 35.0742 22.6119C35.7501 22.6119 35.9499 21.841 35.9499 21.4934V18.9567Z" fill="#C27E59"/>
<path d="M42.58 23.3831C43.2943 23.4211 44.5795 23.9969 45.3882 23.9969C45.4873 24.0114 45.5881 24.0031 45.683 23.9725C45.7778 23.9418 45.8647 23.8899 45.9364 23.8204C46.0081 23.7509 46.0629 23.6659 46.0966 23.5719C46.1303 23.4779 46.1422 23.3776 46.1308 23.2783C46.1173 23.0956 46.0511 22.9208 45.9406 22.7747C45.8297 22.6286 45.6796 22.5175 45.5071 22.4549C45.5059 22.287 45.5388 22.1207 45.6045 21.9661C45.6699 21.8117 45.7669 21.6725 45.8887 21.5571C46.0106 21.4418 46.1552 21.353 46.3133 21.2963C46.471 21.2393 46.6393 21.2159 46.8067 21.2269C46.988 21.2181 47.1689 21.2472 47.3384 21.3126C47.5079 21.3779 47.6622 21.4776 47.7904 21.6058C47.919 21.734 48.0194 21.8876 48.0851 22.0567C48.1513 22.2257 48.1809 22.4068 48.1724 22.5881C48.1724 23.8494 46.8497 24.154 45.893 24.154C44.0507 24.154 43.7463 23.4116 41.2381 23.3688H39.7292L44.0128 16.4817H43.5085C41.2523 16.4817 40.5099 17.4669 40.2718 19.2327H40.1766L40.4812 16.377H46.9302L42.58 23.3688V23.3831Z" fill="#C27E59"/>
<path d="M50.3338 23.3831C51.0523 23.4211 52.3376 23.9969 53.1467 23.9969C53.2454 24.0114 53.3462 24.0031 53.4414 23.9725C53.5363 23.9418 53.6232 23.8899 53.6949 23.8204C53.7665 23.7509 53.8218 23.6659 53.8551 23.5719C53.8888 23.4779 53.9006 23.3776 53.8892 23.2783C53.872 23.0966 53.8049 22.9234 53.6944 22.7778C53.5844 22.6325 53.436 22.5206 53.2656 22.4549C53.2635 22.287 53.2972 22.1207 53.3626 21.9661C53.4284 21.8117 53.5249 21.6725 53.6472 21.5571C53.7695 21.4418 53.9133 21.353 54.0714 21.2963C54.2295 21.2393 54.3973 21.2159 54.5652 21.2269C54.7465 21.2181 54.9278 21.2472 55.0969 21.3126C55.266 21.3779 55.4203 21.4776 55.5489 21.6058C55.6771 21.734 55.7778 21.8876 55.8436 22.0567C55.9094 22.2257 55.9389 22.4068 55.9309 22.5881C55.9309 23.8494 54.6031 24.154 53.651 24.154C51.8092 24.154 51.5048 23.4116 48.9964 23.3688H47.483L51.7662 16.4817H51.2476C48.9964 16.4817 48.2538 17.4669 48.016 19.2327H47.9207L48.2251 16.377H54.6697L50.3195 23.3593L50.3338 23.3831Z" fill="#C27E59"/>
<path d="M59.2198 16.2961C61.3808 16.2961 63.0657 17.8097 63.0657 19.8849C63.0657 21.9601 61.3808 23.4784 59.2198 23.4784C57.0588 23.4784 55.3739 21.9601 55.3739 19.8849C55.3739 17.8097 57.0496 16.2961 59.2198 16.2961ZM59.2198 23.3832C60.4144 23.3832 60.4241 21.9886 60.4241 19.8849C60.4241 17.7811 60.4241 16.3865 59.2198 16.3865C58.0156 16.3865 58.0017 17.7811 58.0017 19.8849C58.0017 21.9886 58.0253 23.3832 59.2198 23.3832Z" fill="#C27E59"/>
<path d="M67.1212 18.0476C67.2705 17.5349 67.5842 17.0855 68.0143 16.769C68.4448 16.4525 68.9668 16.2862 69.5006 16.2961C70.6669 16.2961 71.5806 16.9481 71.5806 18.2475V23.2783H72.7562V23.3688H68.43V23.2783H69.1485V18.1856C69.1485 17.6621 69.1203 16.8529 68.43 16.8529C67.7398 16.8529 67.1448 17.8524 67.1448 18.633V23.2783H67.873V23.3688H63.5371V23.2783H64.6651V16.7197L63.3373 16.891V16.8006L67.1448 16.2961L67.1212 18.0476Z" fill="#C27E59"/>
<path d="M72.7558 16.8909V16.8005L76.5638 16.296V23.3688H74.6596C75.8545 24.9109 78.9149 24.9679 78.9149 23.2783C78.9014 23.0961 78.8361 22.9216 78.7264 22.7757C78.6168 22.6296 78.4675 22.5183 78.2959 22.4548C78.2938 22.2867 78.3263 22.1201 78.3916 21.9653C78.457 21.8104 78.554 21.6708 78.6758 21.5555C78.7981 21.4401 78.9427 21.3512 79.1013 21.2946C79.2594 21.238 79.4281 21.2151 79.5955 21.2269C79.7764 21.2189 79.9573 21.2485 80.1255 21.3139C80.2946 21.3795 80.4481 21.4796 80.5758 21.6076C80.704 21.7355 80.8039 21.8889 80.8697 22.0579C80.9351 22.2265 80.9646 22.4072 80.9566 22.5881C80.9566 25.1107 74.1173 25.8198 74.1173 21.9362V16.7006L72.7558 16.8909ZM76.735 14.2875C76.735 14.5699 76.6511 14.846 76.4942 15.0808C76.3378 15.3156 76.1143 15.4986 75.8537 15.6067C75.5927 15.7147 75.3055 15.743 75.0285 15.6879C74.7515 15.6328 74.4968 15.4968 74.2978 15.2971C74.0975 15.0975 73.9613 14.843 73.9069 14.5661C73.8517 14.289 73.8795 14.002 73.9879 13.741C74.0958 13.4802 74.2792 13.2572 74.5137 13.1003C74.7485 12.9433 75.0247 12.8596 75.3068 12.8596C75.6859 12.8596 76.0489 13.0101 76.3167 13.2778C76.5844 13.5456 76.735 13.9087 76.735 14.2875Z" fill="#C27E59"/>
</g>
<defs>
<clipPath id="clip0_218_823">
<rect width="81" height="26.9859" fill="white" transform="translate(0 0.246826)"/>
</clipPath>
</defs>
</svg>
