<svg width="81" height="31" viewBox="0 0 81 31" fill="none" xmlns="http://www.w3.org/2000/svg">
<rect width="81" height="30" transform="translate(0 0.246826)" fill="white"/>
<path d="M32.1954 7.8938C32.5313 7.95486 32.8824 8.00066 33.2182 8.09225C34.8211 8.55023 36.0271 9.48144 36.7904 10.9927C36.8057 11.0233 36.8362 11.0691 36.8667 11.1301C37.2637 10.0157 37.9353 9.11506 38.9581 8.55023C39.981 7.97013 41.0801 7.83274 42.2403 8.03119C42.2403 9.37458 42.2403 10.7027 42.2403 12.0766C42.1182 12.0766 42.0113 12.0766 41.9044 12.0613C41.3701 12.0003 40.9732 12.1987 40.6984 12.6414C40.4389 13.0384 40.3321 13.4963 40.3321 13.9696C40.3168 15.5267 40.2863 17.0685 40.2863 18.6256C40.2863 18.8088 40.2405 18.8546 40.0573 18.8546C37.3705 18.8546 34.6685 18.8546 31.9817 18.8546C31.0505 18.8546 30.1498 18.7325 29.2797 18.3508C28.4248 17.9844 27.7378 17.4043 27.2493 16.6258C27.2188 16.58 27.2035 16.5495 27.1577 16.4731C27.1425 16.5342 27.1272 16.58 27.1272 16.6105C27.1272 16.7174 27.1272 16.8243 27.1272 16.9464C27.2188 18.1676 26.7761 19.2362 26.1197 20.198C24.9747 21.8772 23.3413 22.671 21.311 22.5947C19.4638 22.5184 17.983 21.7398 16.9602 20.1522C16.6549 19.6789 16.4717 19.1599 16.3496 18.6103C16.2733 18.2898 16.3496 18.3508 16.0138 18.3508C15.1741 18.3508 14.3345 18.3508 13.5102 18.3508C13.4491 18.3508 13.3728 18.3661 13.3117 18.3966C11.1898 19.2973 8.53354 18.0913 7.84659 15.893C7.72446 15.4961 7.67866 15.084 7.6634 14.6718C7.63287 13.939 7.64813 13.2063 7.64813 12.4735C7.64813 12.3972 7.64813 12.3361 7.64813 12.2445C7.34282 12.2445 7.0375 12.2293 6.76272 12.2598C6.67113 12.2751 6.56427 12.3972 6.53373 12.504C6.48794 12.6109 6.5032 12.7636 6.51847 12.8857C6.61006 13.7253 6.53373 14.5649 6.27422 15.374C6.04523 16.0915 5.58726 16.6716 5.03769 17.1906C4.24387 17.9234 3.28213 18.3356 2.21353 18.473C1.54184 18.5645 0.854881 18.5645 0.167923 18.6103C0.122126 18.6103 0.0763287 18.5951 0 18.5951C0 17.2364 0 15.8778 0 14.4886C0.198455 14.5039 0.381643 14.5497 0.564832 14.5497C0.854881 14.5497 1.14493 14.5649 1.41971 14.5191C2.07614 14.397 2.42725 13.9238 2.53411 13.3131C2.62571 12.8552 2.65624 12.3819 2.64097 11.9087C2.64097 9.90888 3.7401 8.51969 5.64832 8.12278C6.42687 7.95486 7.20543 7.95486 7.99924 8.00066C8.57934 8.03119 9.14417 8.01593 9.72427 8.01593C10.2128 8.01593 10.7165 8.01593 11.2356 8.01593C11.2356 8.09225 11.2356 8.15332 11.2356 8.21438C11.2203 9.77148 11.205 11.3286 11.1745 12.8857C11.1593 13.3589 11.1135 13.8322 11.2661 14.2901C11.3424 14.5649 11.4646 14.8397 11.6325 15.0534C11.9836 15.5114 12.5179 15.4961 12.869 15.0534C13.1591 14.7023 13.2812 14.2749 13.2965 13.8322C13.327 13.1147 13.3117 12.4125 13.327 11.695C13.3423 10.5653 13.3575 9.43564 13.3728 8.30597C13.3728 8.22964 13.3728 8.16858 13.3728 8.07699C14.5482 8.07699 15.7084 8.07699 16.8839 8.07699C16.8839 9.05399 16.8839 10.0157 16.8839 10.9927C16.8992 10.9927 16.9144 11.008 16.9297 11.008C16.9602 10.9622 16.9908 10.9317 17.006 10.8859C17.8762 9.34404 19.2348 8.50443 20.9446 8.18385C21.8453 8.01592 22.7154 8.19911 23.5245 8.62655C23.5856 8.65709 23.6466 8.68762 23.7229 8.73341C23.7382 8.65709 23.7382 8.61129 23.7535 8.55023C24.8679 8.55023 25.967 8.55023 27.0967 8.55023C27.0967 9.22192 27.0967 9.90888 27.0967 10.6264C27.1577 10.55 27.1883 10.5195 27.2188 10.4737C28.1195 8.99293 29.4323 8.15332 31.1421 7.9396C31.1726 7.9396 31.2032 7.92433 31.249 7.90906C31.5695 7.8938 31.8749 7.8938 32.1954 7.8938ZM24.5931 10.489C24.5168 10.4279 24.471 10.3974 24.4252 10.3516C24.1809 10.1379 23.9367 9.92414 23.6924 9.72569C23.1581 9.31351 22.5628 9.03873 21.8911 8.99293C20.5782 8.90134 19.4638 9.40511 18.5326 10.2753C17.0976 11.6186 16.6702 14.107 17.5403 15.8778C18.151 17.1143 19.2043 17.8013 20.4713 18.1829C21.6621 18.5493 22.7612 18.2745 23.7229 17.4807C23.9825 17.267 24.2267 17.038 24.4862 16.8243C24.5931 16.7327 24.6847 16.6563 24.8068 16.5495C24.8068 16.6105 24.8068 16.6411 24.7916 16.6716C24.6847 17.099 24.5778 17.5265 24.4557 17.9387C24.3336 18.3661 24.1351 18.7477 23.8451 19.0683C22.7459 20.3048 20.7003 20.3506 19.4638 19.1599C19.3569 19.0683 19.2654 19.0225 19.128 19.0225C18.6089 19.0225 18.1052 19.0225 17.5861 19.0225C17.5251 19.0225 17.4487 19.0225 17.3724 19.0225C17.4029 19.0988 17.4182 19.1599 17.4487 19.221C17.6777 19.5873 17.8609 19.969 18.1357 20.2896C19.4485 21.7703 21.7384 22.1825 23.5703 21.2971C24.9137 20.656 25.7075 19.5568 26.1349 18.1676C26.196 17.9692 26.2723 17.7707 26.2723 17.557C26.2876 14.8855 26.2723 12.214 26.2876 9.5425C26.2876 9.40511 26.2418 9.37457 26.1197 9.37457C25.6922 9.37457 25.2495 9.38984 24.8221 9.37457C24.6694 9.37457 24.6084 9.40511 24.6084 9.57303C24.6084 9.86308 24.5931 10.1531 24.5931 10.489ZM36.5156 17.9692C36.5156 17.9081 36.5309 17.8623 36.5309 17.8165C36.5309 16.3815 36.5309 14.9466 36.5309 13.5116C36.5309 13.2215 36.5004 12.9315 36.4546 12.6567C35.9203 9.80201 33.3404 8.50443 31.1726 8.76395C28.8675 9.05399 27.0814 11.2217 27.2341 13.5574C27.2646 13.9085 27.2951 14.2749 27.3715 14.626C27.7226 16.3052 28.6996 17.3891 30.3941 17.8013C31.2795 18.015 32.1802 17.9692 33.0961 17.9539C33.1114 17.9539 33.1114 17.9387 33.1114 17.9387C33.1114 17.328 33.1114 16.7021 33.1114 16.0915C32.6687 16.0915 32.226 16.0915 31.7985 16.0915C31.7222 16.0915 31.6459 16.0915 31.5695 16.0762C29.8903 15.7862 29.0965 14.0154 29.4323 12.7483C29.814 11.2828 31.2795 10.4432 32.6687 10.9011C33.8594 11.2981 34.3632 12.4583 34.3784 13.4963C34.3937 14.9313 34.3784 16.351 34.3784 17.786C34.3784 17.8471 34.3937 17.9081 34.3937 17.9844C35.1112 17.9692 35.7981 17.9692 36.5156 17.9692ZM14.2277 8.9166C14.2277 8.97767 14.2124 9.02346 14.2124 9.06926C14.1971 10.1226 14.1971 11.1759 14.1819 12.2445C14.1666 12.8399 14.1819 13.4353 14.1361 14.0154C14.0903 14.5955 13.9071 15.1298 13.5254 15.5725C12.8385 16.4273 11.7088 16.4426 10.9913 15.6335C10.686 15.2977 10.5181 14.8855 10.4112 14.4428C10.2738 13.878 10.3044 13.3131 10.3196 12.7483C10.3502 11.5118 10.3502 10.2753 10.3654 9.05399C10.3654 8.99293 10.3654 8.93187 10.3502 8.87081C9.72427 8.87081 9.11364 8.87081 8.50301 8.87081C8.50301 8.93187 8.48775 8.99293 8.48775 9.03873C8.48775 10.9317 8.48775 12.8246 8.48775 14.7176C8.48775 14.9008 8.50301 15.0687 8.53354 15.2519C8.88466 17.1906 11.0219 18.1524 12.5484 17.7402C13.098 17.6028 13.5254 17.267 13.9071 16.8853C14.0292 16.7632 14.1513 16.6563 14.304 16.5037C14.304 16.8548 14.304 17.1601 14.304 17.4654C14.3803 17.4654 14.4261 17.4807 14.4872 17.4807C14.9299 17.4807 15.3726 17.4807 15.8306 17.4807C15.9985 17.4807 16.029 17.4196 16.029 17.267C16.029 14.5497 16.029 11.8171 16.029 9.09979C16.029 9.03873 16.029 8.97767 16.0138 8.90134C15.4184 8.9166 14.823 8.9166 14.2277 8.9166ZM7.63287 11.3439C7.64813 11.2981 7.64813 11.2828 7.64813 11.2675C7.64813 10.5042 7.64813 9.72569 7.64813 8.9624C7.64813 8.82501 7.5718 8.80974 7.46494 8.82501C6.90011 8.87081 6.32001 8.87081 5.75518 8.97767C4.68658 9.17612 3.90803 9.77148 3.63324 10.8706C3.54165 11.2217 3.54165 11.5881 3.51112 11.9392C3.46532 12.443 3.48059 12.962 3.37373 13.4505C3.14474 14.5497 2.45778 15.1908 1.38918 15.3587C1.20599 15.3893 1.0228 15.3893 0.854881 15.4045C0.854881 16.1831 0.854881 16.9464 0.854881 17.7555C1.32812 17.6944 1.78609 17.6639 2.2288 17.5723C3.23634 17.3891 4.13701 16.9616 4.79344 16.1373C5.05296 15.8014 5.31248 15.4351 5.44987 15.0229C5.66359 14.4275 5.70938 13.7864 5.66359 13.1452C5.64832 12.962 5.63306 12.7788 5.63306 12.5956C5.66359 11.8171 6.15209 11.3439 6.93064 11.3439C7.17489 11.3439 7.40388 11.3439 7.63287 11.3439ZM41.4007 8.80974C41.3701 8.79448 41.3701 8.79448 41.3549 8.79448C41.3243 8.79448 41.2938 8.77921 41.2633 8.79448C40.3779 8.80974 39.5688 9.05399 38.8818 9.63409C37.859 10.489 37.4468 11.6492 37.401 12.9468C37.3553 14.5649 37.3858 16.1831 37.3858 17.8013C37.3858 17.8623 37.3858 17.9234 37.401 17.9844C38.088 17.9844 38.7444 17.9844 39.4314 17.9844C39.4314 17.9081 39.4314 17.8471 39.4314 17.7707C39.4467 16.5037 39.4619 15.2366 39.4924 13.9848C39.5077 13.6184 39.5535 13.2521 39.6604 12.901C39.9046 12.0919 40.3931 11.4812 41.248 11.2675C41.3854 11.237 41.4159 11.1912 41.4159 11.0538C41.4159 10.3668 41.4159 9.67989 41.4312 8.97767C41.4007 8.9166 41.4007 8.85554 41.4007 8.80974ZM33.5083 14.2443C33.5236 14.2443 33.5388 14.2443 33.5388 14.2443C33.5083 13.8169 33.5083 13.3742 33.432 12.962C33.2946 12.3209 32.9282 11.8476 32.2718 11.6797C31.6611 11.527 31.1116 11.695 30.6841 12.1529C29.7682 13.1299 30.2262 14.5344 31.1574 15.0382C31.3558 15.145 31.6001 15.2213 31.8291 15.2366C32.3328 15.2671 32.8366 15.2366 33.3404 15.2519C33.4625 15.2519 33.5083 15.2213 33.493 15.0992C33.5083 14.8092 33.5083 14.5344 33.5083 14.2443ZM16.8992 16.58C16.8992 17.099 16.8992 17.6181 16.8992 18.1371C17.3877 18.1371 17.8762 18.1371 18.4105 18.1371C17.7846 17.7097 17.2961 17.1906 16.8992 16.58Z" fill="#373435"/>
<path d="M63.1391 7.8938C63.3833 7.9396 63.6276 7.98539 63.8718 8.04646C66.009 8.56549 67.7035 10.5348 67.902 12.733C68.0241 14.1375 67.7799 15.4656 66.925 16.6258C65.7342 18.244 64.1313 19.0073 62.101 18.9004C59.46 18.763 57.4755 16.6105 57.1549 14.2749C56.8038 11.7408 58.0403 9.34404 60.3302 8.33651C60.7729 8.13805 61.2614 8.06172 61.7346 7.9396C61.7804 7.92433 61.8415 7.90906 61.8873 7.8938C62.3147 7.8938 62.7269 7.8938 63.1391 7.8938ZM65.948 13.2368C65.9632 12.3972 65.6274 11.5881 64.9862 10.9011C63.994 9.86308 62.4674 9.52723 61.2309 10.0921C59.1242 11.0385 58.5288 13.6795 59.7501 15.4809C60.9713 17.267 63.1085 17.2822 64.2993 16.4884C65.3984 15.7404 65.948 14.687 65.948 13.2368Z" fill="#373435"/>
<path d="M46.2246 7.8938C46.4078 7.9396 46.591 7.97013 46.7742 8.01593C47.8428 8.35177 48.4382 9.11506 48.6672 10.1684C48.7588 10.5806 48.774 10.9927 48.8198 11.4354C48.1481 11.4354 47.5375 11.4354 46.8963 11.4354C46.8658 11.2065 46.8505 10.9775 46.82 10.7485C46.6979 10.0463 46.301 9.74095 45.6293 9.83255C45.0492 9.90888 44.6828 10.4126 44.7286 11.0385C44.7439 11.3897 44.9118 11.6339 45.2171 11.7713C45.5682 11.924 45.9193 12.0461 46.2704 12.1835C46.7284 12.3667 47.2017 12.5346 47.6291 12.7636C48.5145 13.2521 48.9114 14.0459 48.9572 15.0382C48.9877 15.6488 48.9267 16.2594 48.713 16.8395C48.1939 18.2287 46.8658 19.0225 45.4003 18.9004C43.9348 18.7783 42.8051 17.7249 42.5761 16.1678C42.5151 15.7709 42.5151 15.374 42.4845 14.9618C42.5456 14.9466 42.5761 14.9313 42.6067 14.9313C43.1715 14.9313 43.7363 14.9313 44.2859 14.9313C44.408 14.9313 44.4233 14.9771 44.4386 15.084C44.4538 15.3587 44.4691 15.6488 44.5302 15.9236C44.6828 16.58 45.1866 16.9464 45.8125 16.9006C46.5147 16.8548 46.9574 16.4121 47.0185 15.7099C47.0795 15.1908 46.8811 14.7939 46.4689 14.5039C46.072 14.2138 45.614 14.0612 45.156 13.9085C44.4996 13.6948 43.889 13.4047 43.4158 12.8704C42.8815 12.2751 42.7288 11.5576 42.7746 10.7943C42.8204 10.0157 43.0952 9.34404 43.6447 8.77921C44.118 8.30597 44.6675 8.03119 45.324 7.9396C45.3698 7.9396 45.4156 7.90906 45.4614 7.90906C45.7056 7.8938 45.9651 7.8938 46.2246 7.8938Z" fill="#373435"/>
<path d="M80.9847 15.8474C80.9389 16.0763 80.8931 16.3053 80.8321 16.5191C80.4352 17.8014 79.6261 18.6563 78.2522 18.87C76.2524 19.1753 74.8632 17.9388 74.5731 16.1679C74.5121 15.771 74.5121 15.3741 74.4815 14.9619C75.1532 14.9619 75.7791 14.9619 76.405 14.9619C76.4203 15.2062 76.4355 15.4352 76.4508 15.6794C76.4508 15.7405 76.4661 15.8168 76.4813 15.8779C76.634 16.5648 77.1072 16.9618 77.7637 16.916C78.4812 16.8854 78.9086 16.458 78.9849 15.7252C79.046 15.2215 78.8781 14.8246 78.4659 14.5192C78.069 14.2292 77.611 14.0765 77.1683 13.9086C76.8172 13.7712 76.4661 13.6338 76.1302 13.4506C75.1074 12.8705 74.6953 11.9699 74.7563 10.8249C74.8021 10.0159 75.0769 9.31363 75.6723 8.74879C76.1302 8.29082 76.6798 8.03131 77.321 7.93971C77.3668 7.93971 77.4125 7.90918 77.4583 7.90918C77.7179 7.90918 77.9774 7.90918 78.2216 7.90918C78.2522 7.92445 78.2827 7.93971 78.3285 7.93971C80.1451 8.18396 80.8931 9.80213 80.771 11.4508C80.1604 11.4508 79.5345 11.4508 78.9086 11.4508C78.8933 11.2524 78.8781 11.0845 78.8628 10.9013C78.8017 10.1532 78.4048 9.78687 77.7026 9.84793C77.2446 9.87846 76.8783 10.2143 76.7867 10.6723C76.6798 11.2371 76.8325 11.6035 77.321 11.8172C77.611 11.9546 77.9163 12.0462 78.2064 12.1531C78.7407 12.3362 79.275 12.5042 79.7482 12.8095C80.2978 13.1606 80.6947 13.6491 80.8779 14.2903C80.9237 14.4582 80.9542 14.6261 81 14.7788C80.9847 15.1299 80.9847 15.4962 80.9847 15.8474Z" fill="#373435"/>
<path d="M51.2929 18.7171C50.6517 18.7171 50.0411 18.7171 49.4305 18.7171C49.3999 18.7171 49.3541 18.6561 49.3236 18.6103C49.3083 18.5797 49.3236 18.5339 49.3236 18.5034C49.3236 15.0991 49.3236 11.6949 49.3236 8.30589C49.3236 8.22956 49.3236 8.1685 49.3236 8.0769C49.9953 8.0769 50.6212 8.0769 51.2929 8.0769C51.2929 8.15323 51.2929 8.22956 51.2929 8.30589C51.2929 9.60348 51.2929 10.9011 51.2929 12.1834C51.2929 12.3513 51.3387 12.3971 51.5066 12.3971C52.5447 12.3971 53.598 12.3971 54.6361 12.3971C54.6971 12.3971 54.7582 12.3971 54.8345 12.3971C54.8345 10.9469 54.8345 9.52715 54.8345 8.0769C55.5062 8.0769 56.1474 8.0769 56.8038 8.0769C56.8038 11.6186 56.8038 15.1602 56.8038 18.7171C56.1474 18.7171 55.5062 18.7171 54.8498 18.7171C54.8498 17.2669 54.8498 15.8166 54.8498 14.3511C53.6591 14.3511 52.4989 14.3511 51.3081 14.3511C51.2929 15.8014 51.2929 17.2516 51.2929 18.7171Z" fill="#373435"/>
<path d="M74.2678 12.382C74.2678 13.0384 74.2678 13.6337 74.2678 14.2444C74.2678 14.2749 74.2067 14.3207 74.1609 14.3512C74.1151 14.3665 74.0693 14.3512 74.0235 14.3512C72.8328 14.3512 71.6573 14.3512 70.4666 14.3512C70.3903 14.3512 70.3292 14.3512 70.2376 14.3512C70.2376 15.1603 70.2376 15.9389 70.2376 16.748C71.581 16.748 72.9091 16.748 74.2678 16.748C74.2678 16.8243 74.283 16.8701 74.283 16.9311C74.283 17.4654 74.283 17.9997 74.283 18.5493C74.283 18.6714 74.2525 18.7325 74.1151 18.7325C72.2222 18.7325 70.314 18.7325 68.421 18.7325C68.3752 18.7325 68.3294 18.7172 68.2683 18.7172C68.2683 15.1756 68.2683 11.6492 68.2683 8.09229C70.2682 8.09229 72.268 8.09229 74.283 8.09229C74.283 8.24494 74.283 8.3976 74.283 8.55026C74.283 8.9777 74.2678 9.40514 74.283 9.83258C74.283 10.0158 74.222 10.0463 74.0693 10.0463C72.8786 10.0463 71.6726 10.0463 70.4819 10.0463C70.4056 10.0463 70.3292 10.0463 70.2376 10.0463C70.2376 10.8401 70.2376 11.6034 70.2376 12.3972C71.5657 12.382 72.8939 12.382 74.2678 12.382Z" fill="#373435"/>
<path d="M24.4252 13.8017C24.4099 14.5955 24.1504 15.3435 23.5398 15.9542C22.517 16.9922 20.9141 16.977 19.8913 15.9389C18.7005 14.7176 18.7463 12.6568 19.9981 11.4966C21.1431 10.428 22.8834 10.6112 23.8298 11.8935C24.2267 12.443 24.4099 13.0689 24.4252 13.8017ZM19.9218 13.7254C19.9371 14.4123 20.1355 14.9772 20.624 15.4199C21.2652 16 22.1201 16.0152 22.7765 15.4504C23.784 14.5955 23.7535 12.8552 22.7307 12.0156C22.1353 11.5271 21.3568 11.5118 20.7614 11.9851C20.1813 12.4431 19.9371 13.0537 19.9218 13.7254Z" fill="#373435"/>
</svg>
