<svg width="81" height="31" viewBox="0 0 81 31" fill="none" xmlns="http://www.w3.org/2000/svg">
<rect width="81" height="30" transform="translate(0 0.246826)" fill="white"/>
<path d="M32.402 25.5913H28.0838V5.6206H32.402V25.5913ZM66.9682 11.0159H62.6499V19.7732C62.6499 21.4542 62.8512 22.7326 63.2639 23.5982C63.9988 25.1685 65.418 26.165 67.5419 26.165C68.2767 26.165 68.921 26.0644 69.4746 25.8631C70.0181 25.6617 70.451 25.4403 71.0851 24.8464C71.1153 24.8263 71.2462 24.6753 71.2965 24.625C71.2965 25.1685 71.2864 25.6114 71.2864 25.6114H75.6047V11.0159H71.2864V18.9075C71.2864 19.8537 71.3066 20.7295 71.065 21.3133C70.5919 22.3803 69.9275 22.7326 68.8807 22.7326C68.1157 22.7326 67.5117 22.5011 67.1695 21.7562C66.9782 21.3334 66.9581 20.6087 66.9581 19.7732V11.0159H66.9682ZM81 25.6114V5.69106H76.6918V25.6114H81ZM25.6579 13.4116C26.282 14.2873 26.6947 15.314 26.8759 16.4615C26.9866 17.1259 27.0268 18.1023 27.0067 19.3605V19.6625H16.1255C16.2161 20.971 16.7093 21.7461 17.6052 22.2796C18.1789 22.6218 18.8735 22.803 19.6888 22.803C20.5444 22.803 21.239 22.5916 21.7725 22.1689C22.0342 21.9676 22.2556 21.6555 22.467 21.3032C23.9467 21.3032 26.8054 21.3032 26.8054 21.3032C26.6947 22.189 26.1914 23.0949 25.3156 24.0009C23.9568 25.4302 22.0241 26.155 19.5882 26.155C17.575 26.155 15.7732 25.551 14.2331 24.3431C12.683 23.1352 11.8978 21.1422 11.8978 18.4344C11.8978 15.8978 12.6025 13.9249 14.0016 12.566C15.4008 11.2072 17.2328 10.5227 19.4472 10.5227C20.7659 10.5227 21.9637 10.7542 23.0206 11.2172C24.0775 11.6803 24.9633 12.4151 25.6579 13.4116ZM16.2362 17.0252H22.6381C22.5777 16.0086 22.2154 15.153 21.6617 14.6899C21.0679 14.1967 20.323 13.9451 19.4372 13.9451C18.4809 13.9451 17.726 14.2068 17.2026 14.7302C16.7093 15.2134 16.2866 16.0589 16.2362 17.0252ZM60.375 18.2835C59.5798 17.5487 58.382 16.995 56.8017 16.6427C54.4865 16.1495 53.1276 15.8073 52.7552 15.6059C52.423 15.4348 52.262 15.1731 52.262 14.7906C52.262 14.4886 52.423 14.237 52.7451 14.0055C53.0773 13.7639 53.6611 13.6532 54.4764 13.6532C55.4629 13.6532 56.1574 13.8947 56.5601 14.3678C56.7715 14.6296 56.9023 14.9919 56.9526 15.4449L56.9627 15.5757H61.1803L61.1602 15.4147C60.979 13.6028 60.2744 12.3144 59.0665 11.5695C57.8686 10.8347 56.3084 10.4623 54.416 10.4623C52.3928 10.4623 50.7521 10.9756 49.6549 11.942C48.5779 12.8982 48.0444 14.0558 48.0444 15.4952C48.0444 16.6629 48.4168 17.5788 49.1415 18.2029C49.8764 18.8471 51.1346 19.2397 52.8055 19.6424C55.7145 20.3067 56.6104 20.6187 56.852 20.7697C57.164 20.961 57.3251 21.263 57.3251 21.6455C57.3251 22.038 57.1137 22.3501 56.7312 22.5413C56.2984 22.7527 55.7045 22.8534 54.9596 22.8534C53.6913 22.8534 52.8256 22.6118 52.3727 22.1387C52.111 21.8669 51.9499 21.4542 51.8795 20.8503L51.8593 20.7194H47.6115V20.8704C47.6115 22.3903 48.1954 23.6687 49.3429 24.6551C50.4904 25.6315 52.2821 26.1348 54.6576 26.1348C56.9929 26.1348 58.7444 25.6617 59.8717 24.7357C61.0092 23.7996 61.5829 22.5816 61.5829 21.112C61.5729 19.9846 61.1702 19.0384 60.375 18.2835ZM44.9642 11.4387C46.303 12.1735 46.9472 13.3814 46.9472 15.1429V19.3303V25.6416H42.7698V24.2626C42.3068 24.6853 41.8035 25.0578 41.2499 25.3698C40.3842 25.853 39.3978 26.0946 38.3207 26.0946C36.9317 26.0946 35.7741 25.702 34.8681 24.937C33.9522 24.1619 33.4891 23.0547 33.4891 21.6354C33.4891 19.8034 34.234 18.4546 35.7036 17.6292C36.4988 17.1863 37.6765 16.8642 39.1965 16.683L40.5352 16.5219C41.2398 16.4313 41.7532 16.3307 42.0451 16.1998C42.5484 15.9884 42.79 15.6865 42.79 15.2536C42.79 14.7101 42.5182 14.3074 42.1357 14.1061C41.7331 13.8947 41.1996 13.8243 40.4044 13.8243C39.5186 13.8243 38.8945 14.0357 38.5321 14.4383C38.2704 14.7403 38.0993 15.163 38.0087 15.6965L37.9886 15.8173H33.9421L33.9522 15.6563C34.0327 14.3578 34.4152 13.2807 35.0795 12.4453C36.1364 11.1367 37.9684 10.4724 40.5252 10.4724C42.337 10.4724 43.7865 10.7945 44.9642 11.4387ZM42.7799 19.8336V18.7566C42.5987 18.8572 42.4075 18.9377 42.2263 19.0082C41.9646 19.0988 41.6022 19.1894 41.1593 19.2699L40.2735 19.431C39.4582 19.5719 38.8744 19.743 38.5321 19.9343C37.9684 20.2564 37.6866 20.659 37.6866 21.3334C37.6866 21.9273 37.8577 22.3098 38.1899 22.5715C38.5321 22.8433 38.965 22.9742 39.4682 22.9742C40.2836 22.9742 41.0486 22.7426 41.7331 22.2796C42.3974 21.8367 42.7497 21.0516 42.7799 19.8336ZM10.8107 4V8.31825H6.48242V4H0V8.32832H6.48242V25.6215H10.8107V8.32832H17.2831V4H10.8107Z" fill="black"/>
</svg>
