<svg width="81" height="30" viewBox="0 0 81 30" fill="none" xmlns="http://www.w3.org/2000/svg">
<g clip-path="url(#clip0_218_877)">
<path d="M59.2236 11.4641H56.4099V21.0692C56.4099 21.2526 56.2644 21.3978 56.0802 21.3978H53.9107C53.7265 21.3978 53.581 21.2526 53.581 21.0692V11.4641H50.7517C50.5679 11.4641 50.422 11.3341 50.422 11.1507V9.45445C50.422 9.27103 50.5679 9.14111 50.7517 9.14111H59.2236C59.4079 9.14111 59.5689 9.27103 59.5689 9.45445V11.1507C59.5765 11.3341 59.4079 11.4641 59.2236 11.4641Z" fill="#FF3366"/>
<path d="M68.2555 21.3368C67.6727 21.4208 66.6991 21.5508 64.9126 21.5508C62.7735 21.5508 60.8875 21.0083 60.8875 18.0052V12.5264C60.8875 9.52333 62.7891 8.99609 64.9282 8.99609C66.7143 8.99609 67.6727 9.12596 68.2555 9.21004C68.4853 9.24061 68.5852 9.32465 68.5852 9.53864V11.0745C68.5852 11.2579 68.4393 11.4031 68.2555 11.4031H64.7671C63.9849 11.4031 63.7087 11.6705 63.7087 12.5264V14.0317H68.1252C68.309 14.0317 68.4549 14.1768 68.4549 14.3602V15.9267C68.4549 16.1102 68.309 16.2553 68.1252 16.2553H63.7087V18.0052C63.7087 18.861 63.9925 19.1285 64.7671 19.1285H68.2555C68.4393 19.1285 68.5852 19.2736 68.5852 19.457V20.993C68.5928 21.1993 68.4933 21.2986 68.2555 21.3368Z" fill="#FF3366"/>
<path d="M80.7529 21.3981H78.123C77.9084 21.3981 77.8089 21.3293 77.6938 21.1536L75.4089 17.5393L73.3389 21.0695C73.2238 21.2682 73.1087 21.3981 72.9249 21.3981H70.4717C70.3026 21.3981 70.2263 21.2987 70.2263 21.1842C70.2263 21.1536 70.2415 21.1 70.2566 21.0695L73.8449 15.1094L70.2183 9.44704C70.2031 9.41655 70.1879 9.37831 70.1879 9.34769C70.1879 9.23313 70.3026 9.13379 70.4333 9.13379H73.1011C73.2854 9.13379 73.4157 9.3019 73.5152 9.44704L75.6315 12.7787L77.6782 9.44704C77.7625 9.3019 77.9084 9.13379 78.0923 9.13379H80.5459C80.6762 9.13379 80.7913 9.23313 80.7913 9.34769C80.7913 9.37831 80.7757 9.41655 80.7605 9.44704L77.157 15.1475L80.9136 21.0695C80.9443 21.1383 80.9599 21.1842 80.9599 21.2376C80.9675 21.337 80.8908 21.3981 80.7529 21.3981Z" fill="#FF3366"/>
<path d="M46.4508 9.17174C46.3281 9.17174 46.2286 9.25577 46.1978 9.37809L43.7906 18.2496C43.7598 18.433 43.7063 18.4942 43.5604 18.4942C43.4149 18.4942 43.3614 18.4253 43.3306 18.2496L40.9231 9.37809C40.9002 9.2634 40.7929 9.17174 40.6702 9.17174H38.3011C38.1401 9.17174 38.0174 9.32454 38.0557 9.48494C38.0557 9.48494 40.9922 19.6556 41.0228 19.755C41.4138 20.9699 42.3646 21.543 43.576 21.543C44.7258 21.543 45.7378 20.9394 46.1291 19.755C46.1751 19.6174 49.0499 9.47744 49.0499 9.47744C49.0883 9.31691 48.9656 9.16406 48.8045 9.16406H46.4508V9.17174Z" fill="#FF3366"/>
<path d="M31.8749 0.246826H6.15252C4.15914 0.246826 2.87877 2.36347 3.81413 4.11334L6.39021 8.96558H1.72107C0.425374 8.96558 -0.402651 10.3333 0.203039 11.472L8.47559 27.0755C9.11959 28.2905 10.86 28.2905 11.504 27.0755L13.7504 22.8574L16.5718 28.1758C17.5608 30.048 20.2519 30.048 21.2486 28.1835L34.1442 4.02164C35.0566 2.30999 33.8146 0.246826 31.8749 0.246826ZM20.3209 10.5779L14.7625 21.0083C14.3331 21.8106 13.1754 21.8106 12.746 21.0083L7.24124 10.6237C6.84256 9.86725 7.38688 8.95791 8.25325 8.95791H19.3472C20.1753 8.95028 20.7119 9.84431 20.3209 10.5779Z" fill="#FF3366"/>
</g>
<defs>
<clipPath id="clip0_218_877">
<rect width="81" height="29.3472" fill="white" transform="translate(0 0.246826)"/>
</clipPath>
</defs>
</svg>
