<svg width="112" height="16" viewBox="0 0 112 16" fill="none" xmlns="http://www.w3.org/2000/svg">
<g clip-path="url(#clip0_197_1018)">
<mask id="mask0_197_1018" style="mask-type:luminance" maskUnits="userSpaceOnUse" x="0" y="0" width="112" height="16">
<path d="M112 0.50415H0V15.446H112V0.50415Z" fill="white"/>
</mask>
<g mask="url(#mask0_197_1018)">
<path fill-rule="evenodd" clip-rule="evenodd" d="M2.51746 15.4437L3.99988 11.7671L9.45647 11.7718L10.9278 15.441H13.4487L7.46072 0.529785H6.02064L4.50004 3.84694L1.46852 11.6041L0 15.4437H2.51746ZM4.9738 9.37642L6.76603 4.8586L8.48738 9.37508V9.37642H4.9738Z" fill="#B9B9B9"/>
<path fill-rule="evenodd" clip-rule="evenodd" d="M109.759 15.4439H112.001L111.987 0.530029H109.702L109.759 15.4439Z" fill="#B9B9B9"/>
<path fill-rule="evenodd" clip-rule="evenodd" d="M74.612 0.530029H72.3604V15.4459H81.2579L81.2434 13.2369H74.612V0.530029Z" fill="#B9B9B9"/>
<path fill-rule="evenodd" clip-rule="evenodd" d="M64.5042 6.24254H59.0617V2.87014H65.6265V0.530029H56.5996V15.4439L65.6265 15.4233V13.203H59.0617V8.50677H64.5042V6.24254Z" fill="#B9B9B9"/>
<path fill-rule="evenodd" clip-rule="evenodd" d="M20.187 15.4439H22.5267V5.3853L31.4357 15.4432H32.7014V0.532026H30.3111V10.6259L21.6361 0.530029H20.1614C20.078 1.67745 20.1391 15.3474 20.1863 15.4432" fill="#B9B9B9"/>
<path fill-rule="evenodd" clip-rule="evenodd" d="M47.2041 3.87921L48.9214 2.36506C47.7995 1.17104 45.8905 0.50415 44.4304 0.50415C42.0359 0.50415 39.8615 2.1228 39.5948 4.09885C39.417 5.41732 39.979 6.57274 40.6299 7.22164C42.9688 9.55509 44.9687 8.40505 46.5943 9.65496C46.9062 9.89523 47.3667 10.3358 47.4848 10.8882C47.8412 12.5502 44.5137 14.0723 42.065 12.4356C41.4857 12.0483 41.5051 11.8194 41.1585 11.2836L39.0571 12.3658C39.3121 13.3741 40.6917 14.4317 41.6413 14.8623C42.9181 15.4407 44.545 15.6131 46.0698 15.2656C49.3882 14.5089 51.0637 11.3521 48.9721 8.64929C47.9127 7.28021 46.3143 6.84493 44.6311 6.61264C41.2537 6.14678 41.4037 3.6283 43.4877 2.97272C45.0701 2.36572 46.1267 3.15508 47.2035 3.88054" fill="#B9B9B9"/>
<path fill-rule="evenodd" clip-rule="evenodd" d="M95.4783 11.8466H96.0062L100.566 5.75868L100.565 15.4439H102.967L102.968 0.530029H101.446L95.4783 8.76703L89.5102 0.530029H87.9883L87.9906 15.4439H90.3928L90.3905 5.75868L94.9504 11.8466H95.4783Z" fill="#B9B9B9"/>
</g>
</g>
<defs>
<clipPath id="clip0_197_1018">
<rect width="112" height="14.9917" fill="white" transform="translate(0 0.50415)"/>
</clipPath>
</defs>
</svg>

