<svg width="113" height="30" viewBox="0 0 113 30" fill="none" xmlns="http://www.w3.org/2000/svg">
<path fill-rule="evenodd" clip-rule="evenodd" d="M12.8146 13.1804H16.1721C15.6851 15.0769 14.7368 16.4865 13.3528 17.4861C11.9689 18.5113 10.2261 19.0238 8.12448 19.0238C5.56155 19.0238 3.5881 18.2037 2.15286 16.5378C0.717618 14.9232 0 12.6165 0 9.6179C0 6.74742 0.691988 4.51767 2.07597 2.90303C3.51121 1.23713 5.51029 0.416992 8.04759 0.416992C10.7387 0.416992 12.8146 1.23713 14.3011 2.82615C15.0956 3.80006 15.6851 4.95337 16.0439 6.26047H11.3281C11.0975 5.79914 10.8924 5.46596 10.6618 5.26093C10.0723 4.62019 9.25216 4.31264 8.17574 4.31264C7.20182 4.31264 6.38169 4.62019 5.76659 5.26093C4.94645 6.15795 4.56201 7.64445 4.56201 9.69479C4.56201 11.7451 4.97208 13.206 5.76659 14.0518C6.35606 14.7694 7.22745 15.1282 8.38077 15.1282C9.14965 15.1282 9.79038 14.9744 10.3286 14.6669C10.4567 14.6156 10.5849 14.5387 10.713 14.4362C10.8156 14.3337 10.9437 14.2055 11.0718 14.0774C11.1744 13.9492 11.3538 13.7698 11.6101 13.5392C11.8664 13.3085 12.2764 13.1804 12.8146 13.1804Z" fill="#B9B9B9"/>
<path fill-rule="evenodd" clip-rule="evenodd" d="M27.244 9.69479C26.6033 10.0023 25.7319 10.3099 24.6298 10.5662C23.6047 10.7968 23.0921 10.8994 23.0921 10.8994C22.2976 11.13 21.7081 11.412 21.3493 11.7708C21.0418 12.2577 20.888 12.7447 20.888 13.2573C20.888 13.9236 21.093 14.4618 21.5031 14.8719C21.9132 15.2307 22.477 15.4101 23.2459 15.4101C24.5017 15.4101 25.4756 15.0513 26.1932 14.3337C26.9109 13.6161 27.2697 12.6422 27.2697 11.3863V9.69479H27.244ZM28.3205 17.9474C27.3722 18.4344 26.3726 18.7419 25.3475 18.8701C24.2967 18.9726 23.374 19.0238 22.5539 19.0238C20.9392 19.0238 19.5296 18.5881 18.3251 17.7168C17.1205 16.8454 16.5054 15.4101 16.5054 13.3854C16.5054 11.4888 17.0436 10.1561 18.1456 9.36161C19.2477 8.54147 20.6317 8.00326 22.3488 7.74696C22.5795 7.74696 22.8358 7.72133 23.169 7.64445C23.4765 7.56756 23.8353 7.5163 24.2454 7.46504C26.2189 7.20875 27.1928 6.61927 27.1928 5.72225C27.1928 5.05589 26.834 4.62019 26.142 4.41516C25.45 4.21013 24.8093 4.10761 24.2198 4.10761C23.6047 4.10761 23.0408 4.1845 22.5283 4.3639C22.0413 4.54331 21.6825 4.87649 21.4518 5.36344H16.9411C17.1205 3.97946 17.7356 2.82614 18.812 1.95475C20.0166 0.929578 21.7337 0.416992 23.9891 0.416992C26.5008 0.416992 28.3717 0.85269 29.6276 1.69846C30.9346 2.59548 31.5754 3.85131 31.5754 5.46596V11.5657C31.5754 13.3598 31.2422 14.7694 30.6015 15.7689C29.9864 16.7685 29.2175 17.5117 28.3205 17.9474Z" fill="#B9B9B9"/>
<path fill-rule="evenodd" clip-rule="evenodd" d="M31.8828 12.7959H36.4448C36.4961 13.693 36.8293 14.3593 37.4444 14.8206C38.1107 15.2563 39.0077 15.487 40.1354 15.487C40.9556 15.487 41.6476 15.3332 42.2114 15.0257C42.7496 14.7181 43.0315 14.2824 43.0315 13.7442C43.0315 12.9497 42.0833 12.3346 40.2123 11.9245C39.3922 11.7964 38.8027 11.6426 38.3926 11.5145C36.0091 10.925 34.4457 10.233 33.6256 9.4385C32.7286 8.64399 32.2929 7.56756 32.2929 6.20921C32.2929 4.51768 32.9336 3.10807 34.2407 1.98038C35.5734 0.955212 37.3418 0.442627 39.4691 0.442627C41.8013 0.442627 43.6466 0.955212 45.0563 1.98038C46.3633 3.10807 47.0553 4.54331 47.1322 6.33736H44.2361C43.3904 6.33736 42.724 5.95292 42.2883 5.20967C42.1089 5.03026 41.9295 4.85086 41.7501 4.67146C41.2119 4.26139 40.4686 4.08198 39.546 4.08198C38.6489 4.08198 37.9826 4.21013 37.5213 4.49205C37.1112 4.77397 36.9318 5.15841 36.9318 5.69663C36.9318 6.41425 38.0851 7.02935 40.4174 7.5163C40.6993 7.61882 40.9299 7.67008 41.135 7.72134C41.34 7.7726 41.5194 7.7726 41.6988 7.7726C43.9798 8.36207 45.5688 9.02843 46.4659 9.79731C47.3116 10.5918 47.7473 11.6682 47.7473 13.0266C47.7473 15 47.0297 16.5122 45.5945 17.5886C44.2618 18.5625 42.237 19.0751 39.546 19.0751C36.983 19.0751 35.0865 18.5625 33.8306 17.5373C32.5235 16.5122 31.8828 15 31.8828 13.0266V12.7959Z" fill="#B9B9B9"/>
<path fill-rule="evenodd" clip-rule="evenodd" d="M58.8192 9.69479C58.1785 10.0023 57.3071 10.3099 56.205 10.5662C55.1799 10.7968 54.6673 10.8994 54.6673 10.8994C53.8728 11.13 53.2833 11.412 52.9245 11.7708C52.6169 12.2577 52.4632 12.7447 52.4632 13.2573C52.4632 13.9236 52.6682 14.4618 53.0783 14.8719C53.4883 15.2307 54.0522 15.4101 54.8211 15.4101C56.0769 15.4101 57.0508 15.0513 57.7684 14.3337C58.4861 13.6161 58.8449 12.6422 58.8449 11.3863V9.69479H58.8192ZM59.8957 17.9474C58.9474 18.4344 57.9478 18.7419 56.9227 18.8701C55.8719 18.9726 54.9492 19.0238 54.1291 19.0238C52.5144 19.0238 51.1048 18.5881 49.9002 17.7168C48.6957 16.8454 48.0806 15.4101 48.0806 13.3854C48.0806 11.4888 48.6188 10.1561 49.7208 9.36161C50.8229 8.54147 52.2069 8.00326 53.924 7.74696C54.1547 7.74696 54.411 7.72133 54.7442 7.64445C55.0517 7.56756 55.4105 7.5163 55.8206 7.46504C57.7941 7.20875 58.768 6.61927 58.768 5.72225C58.768 5.05589 58.4092 4.62019 57.7172 4.41516C57.0252 4.21013 56.3845 4.10761 55.795 4.10761C55.1799 4.10761 54.616 4.1845 54.1034 4.3639C53.6165 4.54331 53.2577 4.87649 53.027 5.36344H48.5163C48.6957 3.97946 49.3108 2.82614 50.3872 1.95475C51.5918 0.929578 53.3089 0.416992 55.5643 0.416992C58.076 0.416992 59.9469 0.85269 61.2028 1.69846C62.5098 2.59548 63.1506 3.85131 63.1506 5.46596V11.5657C63.1506 13.3598 62.8174 14.7694 62.1767 15.7689C61.5616 16.7685 60.7927 17.5117 59.8957 17.9474Z" fill="#B9B9B9"/>
<path fill-rule="evenodd" clip-rule="evenodd" d="M79.4254 18.6907H74.7865V8.20829V7.26001C74.7865 6.18358 74.4533 5.4147 73.8126 4.90211C73.1718 4.41516 72.4286 4.15887 71.6341 4.15887C70.8396 4.15887 70.1219 4.41516 69.4812 4.90211C68.8661 5.38907 68.5329 6.18358 68.5329 7.26001V18.6907H63.8428V8.23392C63.8428 5.18404 64.6373 3.15932 66.2263 2.13415C67.8153 1.10898 69.5837 0.54514 71.5059 0.442623C72.5311 0.442623 73.5306 0.545141 74.5302 0.775804C75.5041 1.00647 76.4011 1.44216 77.2213 2.10853C77.8876 1.51905 78.6821 1.10898 79.6048 0.852689C80.5274 0.596396 81.4757 0.468251 82.4496 0.416992C84.4231 0.416992 86.2428 0.929578 87.883 1.95475C89.5489 2.97992 90.3691 5.05589 90.3691 8.20829V18.6907H88.0112C87.3448 18.6907 86.781 18.4856 86.3709 18.0499C85.9352 17.6142 85.7302 17.076 85.7302 16.4097V7.28564C85.7302 6.20921 85.397 5.44033 84.7563 4.92774C84.1155 4.44079 83.3723 4.18449 82.5778 4.18449C81.7576 4.18449 81.04 4.44079 80.3993 4.92774C79.7585 5.4147 79.4254 6.20921 79.4254 7.28564V8.23392V18.6907Z" fill="#B9B9B9"/>
<path fill-rule="evenodd" clip-rule="evenodd" d="M91.1375 0.416992H93.5466C94.1873 0.416992 94.6999 0.647657 95.1612 1.08335C95.6226 1.51905 95.8276 2.05727 95.8276 2.698V4.10761H91.1118V0.416992H91.1375Z" fill="#B9B9B9"/>
<path fill-rule="evenodd" clip-rule="evenodd" d="M91.1375 4.74854H93.5466C94.1873 4.74854 94.6999 4.9792 95.1612 5.41489C95.6226 5.85059 95.8276 6.41444 95.8276 7.02954V18.6909H91.1118V4.74854H91.1375Z" fill="#B9B9B9"/>
<path fill-rule="evenodd" clip-rule="evenodd" d="M107.233 9.69479C106.592 10.0023 105.721 10.3099 104.619 10.5662C103.593 10.7968 103.081 10.8994 103.081 10.8994C102.286 11.13 101.697 11.412 101.338 11.7708C101.031 12.2577 100.877 12.7447 100.877 13.2573C100.877 13.9236 101.082 14.4618 101.492 14.8719C101.902 15.2307 102.466 15.4101 103.235 15.4101C104.49 15.4101 105.464 15.0513 106.182 14.3337C106.9 13.6161 107.258 12.6422 107.258 11.3863V9.69479H107.233ZM108.309 17.9474C107.361 18.4344 106.361 18.7419 105.336 18.8701C104.285 18.9726 103.363 19.0238 102.543 19.0238C100.928 19.0238 99.5184 18.5881 98.3138 17.7168C97.1093 16.8454 96.4941 15.4101 96.4941 13.3854C96.4941 11.4888 97.0324 10.1561 98.1344 9.36161C99.2365 8.54147 100.62 8.00326 102.338 7.74696C102.568 7.74696 102.825 7.72133 103.158 7.64445C103.465 7.56756 103.824 7.5163 104.234 7.46504C106.208 7.20875 107.182 6.61927 107.182 5.72225C107.182 5.05589 106.823 4.62019 106.131 4.41516C105.439 4.21013 104.798 4.10761 104.209 4.10761C103.593 4.10761 103.03 4.1845 102.517 4.3639C102.03 4.54331 101.671 4.87649 101.441 5.36344H96.9298C97.1092 3.97946 97.7243 2.82614 98.8008 1.95475C100.005 0.929578 101.723 0.416992 103.978 0.416992C106.49 0.416992 108.36 0.85269 109.616 1.69846C110.923 2.59548 111.564 3.85131 111.564 5.46596V11.5657C111.564 13.3598 111.231 14.7694 110.59 15.7689C109.975 16.7685 109.181 17.5117 108.309 17.9474Z" fill="#B9B9B9"/>
<path fill-rule="evenodd" clip-rule="evenodd" d="M19.1964 24.7136C19.299 24.406 19.3759 24.0985 19.4527 23.8422C19.5296 23.5602 19.5553 23.3552 19.5553 23.2271C19.5553 23.1246 19.5296 23.0477 19.4784 22.9964C19.4271 22.9451 19.3759 22.8939 19.299 22.8939C19.2221 22.8683 19.1452 22.8426 19.0683 22.8426C18.9914 22.8426 18.9145 22.8426 18.8376 22.8426L18.8889 22.6889L20.4779 22.5607L18.3251 29.4037H18.4788C18.5045 29.3525 18.5557 29.1987 18.607 28.968C18.6839 28.7374 18.7607 28.4554 18.8633 28.1223C18.9658 27.7891 19.0939 27.4303 19.2477 27.0202C19.4015 26.6101 19.5553 26.2001 19.709 25.79C19.8884 25.3799 20.0678 24.9699 20.2472 24.5854C20.4523 24.201 20.6573 23.8422 20.8624 23.5602C21.0674 23.2527 21.298 23.022 21.5287 22.8426C21.7594 22.6632 21.99 22.5607 22.2207 22.5607C22.3232 22.5607 22.4257 22.5863 22.5283 22.6376C22.6051 22.6888 22.682 22.7657 22.7333 22.8683C22.7845 22.9708 22.8358 23.0733 22.8614 23.2014C22.8871 23.3296 22.9127 23.4321 22.9127 23.5602C22.9127 23.7909 22.8871 24.0728 22.8102 24.3291C22.7333 24.611 22.6308 24.893 22.5026 25.1493C22.3745 25.4056 22.2207 25.6875 22.0413 25.9181C21.8619 26.1744 21.6825 26.3795 21.4775 26.5845C21.2724 26.7639 21.0674 26.9177 20.8624 27.0458C20.6573 27.1483 20.4267 27.2252 20.2216 27.2252C20.0935 27.2252 19.991 27.1996 19.8884 27.174C19.7859 27.1483 19.7347 27.1227 19.6578 27.0715C19.6065 27.0458 19.5553 26.9946 19.5296 26.9433C19.504 26.8921 19.4784 26.8664 19.4527 26.8152L19.8628 26.482C19.8628 26.5076 19.8884 26.5589 19.9141 26.6101C19.9397 26.6614 19.9653 26.7383 20.0166 26.7895C20.0678 26.8408 20.1191 26.8921 20.196 26.9433C20.2729 26.9946 20.3498 26.9946 20.4523 26.9946C20.6061 26.9946 20.7855 26.9433 20.9392 26.8152C21.093 26.7126 21.2212 26.5589 21.3749 26.3538C21.5031 26.1744 21.6312 25.9694 21.7337 25.7131C21.8363 25.4824 21.9388 25.2518 22.0157 24.9955C22.0926 24.7392 22.1438 24.5085 22.1951 24.2779C22.2463 24.0472 22.2463 23.8422 22.2463 23.6628C22.2463 23.5859 22.2463 23.509 22.2207 23.4577C22.2207 23.3808 22.1951 23.304 22.1694 23.2527C22.1438 23.2014 22.0926 23.1502 22.0413 23.0989C21.99 23.0477 21.9388 23.0477 21.8619 23.0477C21.6569 23.0477 21.4262 23.1502 21.2212 23.3808C21.0161 23.6115 20.8111 23.8678 20.6061 24.201C20.401 24.5342 20.2216 24.8673 20.0678 25.2261C19.9141 25.585 19.7603 25.9181 19.6578 26.2001C19.6065 26.3282 19.5553 26.482 19.4784 26.6614C19.4015 26.8408 19.3502 27.0458 19.2733 27.2765C19.1964 27.4815 19.1452 27.7122 19.0683 27.9429C18.9914 28.1735 18.9402 28.3786 18.8633 28.5836C18.812 28.7886 18.7608 28.968 18.7095 29.1218C18.6582 29.2756 18.6326 29.3781 18.607 29.455L17.6587 29.5831L19.1964 24.7136ZM26.8596 24.2266C26.834 24.3035 26.7827 24.406 26.7315 24.5854C26.6546 24.7648 26.5777 24.9699 26.4752 25.1749C26.3726 25.3799 26.2445 25.6106 26.0907 25.8669C25.9369 26.0975 25.7832 26.3282 25.6038 26.5076C25.4244 26.7126 25.2193 26.8664 25.0143 26.9946C24.8093 27.1227 24.5786 27.174 24.3479 27.174C24.0916 27.174 23.8866 27.0715 23.7585 26.8664C23.6047 26.6614 23.5534 26.4051 23.5534 26.1232C23.5534 25.9181 23.6047 25.6618 23.6816 25.4056C23.7585 25.1493 23.8866 24.8673 24.0404 24.611C24.1942 24.3548 24.3479 24.0985 24.553 23.8422C24.758 23.5859 24.963 23.3552 25.1681 23.1758C25.3731 22.9708 25.6038 22.817 25.8344 22.7145C26.0651 22.5863 26.2701 22.5351 26.5008 22.5351C26.7058 22.5351 26.8852 22.612 26.9877 22.7401C27.0903 22.8683 27.1415 23.0733 27.1415 23.304C27.1415 23.4065 27.1415 23.4834 27.1159 23.5859C27.0903 23.6884 27.0903 23.7653 27.0646 23.8678L27.1671 23.8934L27.5772 22.612L28.3461 22.5351C28.3205 22.5863 28.2692 22.7401 28.1923 22.9451C28.1154 23.1502 28.0129 23.4321 27.9104 23.7653L27.5772 24.7904C27.526 24.9186 27.5003 25.0724 27.4491 25.2518C27.3978 25.4056 27.3466 25.585 27.3209 25.7387C27.2697 25.8925 27.244 26.0463 27.2184 26.1744C27.1928 26.3026 27.1671 26.4051 27.1671 26.482C27.1671 26.5332 27.1928 26.5845 27.2184 26.6358C27.244 26.6614 27.2953 26.687 27.3466 26.687C27.4747 26.687 27.6285 26.6358 27.7823 26.5332C27.936 26.4307 28.1154 26.3026 28.2948 26.1232C28.4742 25.9694 28.6536 25.79 28.8331 25.585C29.0125 25.3799 29.1662 25.2005 29.32 25.0211C29.4738 24.8417 29.6019 24.6879 29.7045 24.5342C29.807 24.3804 29.8839 24.3035 29.9351 24.2266L29.8582 24.4829C29.807 24.5342 29.7301 24.6623 29.6019 24.8161C29.4738 24.9699 29.3456 25.1493 29.1919 25.3543C29.0381 25.5593 28.8587 25.7644 28.6537 25.9694C28.4486 26.1744 28.2692 26.3795 28.0642 26.5332C27.8591 26.7126 27.6541 26.8408 27.4491 26.9689C27.244 27.0715 27.039 27.1483 26.8596 27.1483C26.6802 27.1483 26.5777 27.0971 26.5008 26.9946C26.4239 26.892 26.3983 26.7639 26.3983 26.6101C26.3983 26.5076 26.4239 26.3795 26.4495 26.2257C26.5008 26.0719 26.5264 25.9438 26.552 25.8156L27.0646 24.201L26.8596 24.2266ZM24.1685 25.8925C24.1685 25.995 24.1685 26.0719 24.1942 26.1744C24.2198 26.277 24.2454 26.3538 24.271 26.4307C24.3223 26.5076 24.3736 26.5845 24.4248 26.6358C24.4761 26.687 24.553 26.7126 24.6555 26.7126C24.8861 26.7126 25.1168 26.6101 25.3475 26.4051C25.6038 26.2001 25.8088 25.9438 26.0138 25.6362C26.2189 25.3287 26.3983 24.9955 26.5264 24.6623C26.6546 24.3291 26.7315 24.0216 26.7315 23.7653C26.7315 23.5346 26.6802 23.3296 26.552 23.1502C26.4239 22.9708 26.2701 22.8939 26.0395 22.8939C25.8601 22.8939 25.6807 22.9451 25.5269 23.0477C25.3731 23.1502 25.2193 23.304 25.0656 23.4834C24.9118 23.6628 24.7836 23.8422 24.6811 24.0728C24.553 24.3035 24.4761 24.5085 24.3736 24.7392C24.2967 24.9699 24.2198 25.1749 24.1942 25.3799C24.1685 25.585 24.1685 25.7644 24.1685 25.8925ZM29.6276 24.4316L28.7818 27.174L29.7301 27.0202C29.7557 26.9689 29.7813 26.8408 29.8582 26.6358C29.9351 26.4307 30.0376 26.1744 30.1401 25.8925C30.2683 25.6106 30.3964 25.303 30.5502 24.9699C30.704 24.6367 30.8834 24.3548 31.0372 24.0728C31.2166 23.7909 31.396 23.5859 31.601 23.4065C31.8061 23.2271 31.9855 23.1502 32.1905 23.1502C32.3443 23.1502 32.4468 23.1758 32.498 23.2527C32.5493 23.3296 32.5749 23.4065 32.6262 23.4834L33.0363 22.612C32.9337 22.5607 32.8312 22.5351 32.7543 22.5351C32.4724 22.5351 32.2161 22.6376 31.9598 22.8426C31.7035 23.0477 31.4729 23.304 31.2422 23.6115C31.0115 23.9191 30.8065 24.2522 30.6271 24.6367C30.4477 24.9955 30.2683 25.3543 30.1401 25.6875C30.012 26.0207 29.8839 26.3026 29.807 26.5332C29.7301 26.7895 29.6788 26.9433 29.6532 26.9946H29.525L30.909 22.5351L29.3456 22.6632L29.2944 22.817H29.4994C29.8326 22.817 29.9864 22.9195 29.9864 23.1245C29.9864 23.2014 29.9864 23.304 29.9607 23.4321C29.9351 23.5602 29.9095 23.6884 29.8839 23.8165C29.8582 23.9447 29.807 24.0728 29.7813 24.201C29.6788 24.2779 29.6532 24.3804 29.6276 24.4316ZM36.0605 24.2266C36.0349 24.3035 35.9836 24.406 35.9324 24.5854C35.8555 24.7648 35.7786 24.9699 35.6761 25.1749C35.5736 25.3799 35.4454 25.6106 35.2916 25.8669C35.1379 26.0975 34.9841 26.3282 34.8047 26.5076C34.6253 26.7126 34.4202 26.8664 34.2152 26.9946C34.0102 27.1227 33.7795 27.174 33.5488 27.174C33.2926 27.174 33.0875 27.0715 32.9594 26.8664C32.8056 26.6614 32.7543 26.4051 32.7543 26.1232C32.7543 25.9181 32.8056 25.6618 32.8825 25.4056C32.9594 25.1493 33.0875 24.8673 33.2413 24.611C33.3951 24.3548 33.5488 24.0985 33.7539 23.8422C33.9589 23.5859 34.1639 23.3552 34.369 23.1758C34.574 22.9708 34.8047 22.817 35.0353 22.7145C35.266 22.5863 35.471 22.5351 35.7017 22.5351C35.9067 22.5351 36.0861 22.612 36.1887 22.7401C36.2912 22.8683 36.3424 23.0733 36.3424 23.304C36.3424 23.4065 36.3424 23.4834 36.3168 23.5859C36.2912 23.6884 36.2912 23.7653 36.2655 23.8678L36.3681 23.8934L36.7781 22.612L37.547 22.5351C37.5214 22.5863 37.4701 22.7401 37.3932 22.9451C37.3163 23.1502 37.2138 23.4321 37.1113 23.7653L36.7781 24.7904C36.7269 24.9186 36.7012 25.0724 36.65 25.2518C36.5987 25.4056 36.5475 25.585 36.5218 25.7387C36.4706 25.8925 36.4449 26.0463 36.4193 26.1744C36.3937 26.3026 36.3681 26.4051 36.3681 26.482C36.3681 26.5332 36.3937 26.5845 36.4193 26.6358C36.4449 26.6614 36.4962 26.687 36.5475 26.687C36.6756 26.687 36.8294 26.6358 36.9832 26.5332C37.1369 26.4307 37.3163 26.3026 37.4957 26.1232C37.6752 25.9694 37.8546 25.79 38.034 25.585C38.2134 25.3799 38.3671 25.2005 38.5209 25.0211C38.6747 24.8417 38.8028 24.6879 38.9054 24.5342C39.0079 24.3804 39.0848 24.3035 39.136 24.2266L39.0591 24.4829C39.0079 24.5342 38.931 24.6623 38.8028 24.8161C38.6747 24.9699 38.5465 25.1493 38.3928 25.3543C38.239 25.5593 38.0596 25.7644 37.8546 25.9694C37.6495 26.1744 37.4701 26.3795 37.2651 26.5332C37.0601 26.7126 36.855 26.8408 36.65 26.9689C36.4449 27.0715 36.2399 27.1483 36.0605 27.1483C35.8811 27.1483 35.7786 27.0971 35.7017 26.9946C35.6248 26.892 35.5992 26.7639 35.5992 26.6101C35.5992 26.5076 35.6248 26.3795 35.6504 26.2257C35.7017 26.0719 35.7273 25.9438 35.753 25.8156L36.2655 24.201L36.0605 24.2266ZM33.3694 25.8925C33.3694 25.995 33.3694 26.0719 33.3951 26.1744C33.4207 26.277 33.4463 26.3538 33.472 26.4307C33.5232 26.5076 33.5745 26.5845 33.6257 26.6358C33.677 26.687 33.7539 26.7126 33.8564 26.7126C34.0871 26.7126 34.3177 26.6101 34.5484 26.4051C34.8047 26.2001 35.0097 25.9438 35.2147 25.6362C35.4198 25.3287 35.5992 24.9955 35.7273 24.6623C35.8555 24.3291 35.9324 24.0216 35.9324 23.7653C35.9324 23.5346 35.8811 23.3296 35.753 23.1502C35.6248 22.9708 35.471 22.8939 35.2404 22.8939C35.061 22.8939 34.8816 22.9451 34.7278 23.0477C34.574 23.1502 34.4202 23.304 34.2665 23.4834C34.1127 23.6628 33.9845 23.8422 33.882 24.0728C33.7539 24.3035 33.677 24.5085 33.5745 24.7392C33.4976 24.9699 33.4207 25.1749 33.3951 25.3799C33.3951 25.585 33.3694 25.7644 33.3694 25.8925ZM46.8248 24.5598C46.7479 24.6623 46.6454 24.8161 46.4916 25.0467C46.3378 25.2518 46.1841 25.4568 45.979 25.6618C45.774 25.8669 45.5433 26.0463 45.3127 26.2001C45.0564 26.3538 44.8257 26.4307 44.5438 26.4307C44.2619 26.4307 44.0312 26.3282 43.8262 26.1488C43.7749 26.2001 43.698 26.2769 43.5955 26.3795C43.4674 26.482 43.3392 26.6101 43.1598 26.7383C42.9804 26.8664 42.801 26.9689 42.596 27.0715C42.3909 27.174 42.1859 27.1996 41.9552 27.1996C41.6221 27.1996 41.3658 27.0715 41.1864 26.8408C41.007 26.6101 40.9044 26.3282 40.9044 25.9694C40.9044 25.585 40.9813 25.2262 41.1095 24.893C41.2376 24.5598 41.3914 24.2522 41.5452 23.9959C41.6989 23.7397 41.8527 23.509 41.9809 23.3552C42.109 23.1758 42.1859 23.0477 42.1859 22.9964C42.1859 22.9451 42.1603 22.8939 42.109 22.8683C42.0578 22.8426 41.9809 22.817 41.9296 22.817C41.8527 22.817 41.7502 22.8426 41.6989 22.8683L41.7758 22.612L43.3905 22.5607C43.288 22.6632 43.1598 22.8426 42.9548 23.0733C42.7754 23.304 42.5703 23.5859 42.3909 23.8678C42.2115 24.1754 42.0321 24.4829 41.904 24.8417C41.7502 25.1749 41.6989 25.5337 41.6989 25.8669C41.6989 26.0975 41.7502 26.3282 41.8784 26.482C42.0065 26.6614 42.1859 26.7383 42.4678 26.7383C42.6216 26.7383 42.7754 26.7126 42.9035 26.6614C43.0317 26.6101 43.1598 26.5332 43.288 26.482C43.3905 26.4051 43.493 26.3282 43.5955 26.2513C43.698 26.1744 43.7749 26.0975 43.8262 26.0463C43.8005 25.995 43.7749 25.9438 43.7237 25.8925C43.698 25.8413 43.6468 25.7644 43.6211 25.6618C43.5955 25.5593 43.5443 25.4568 43.5186 25.3287C43.493 25.2005 43.4674 25.0211 43.4674 24.8417C43.4674 24.6367 43.493 24.406 43.5699 24.1497C43.6468 23.8934 43.7237 23.6371 43.8518 23.4065C43.98 23.1758 44.1081 22.9708 44.2875 22.817C44.4669 22.6632 44.6719 22.5863 44.877 22.5863C45.082 22.5863 45.2358 22.6632 45.3127 22.817C45.4152 22.9708 45.4408 23.1502 45.4408 23.3552C45.4408 23.6628 45.3896 23.9703 45.2614 24.2522C45.1333 24.5598 45.0051 24.8161 44.8257 25.0724C44.6719 25.3287 44.5182 25.5337 44.3388 25.7131C44.185 25.8925 44.0568 26.0207 43.98 26.0975C44.0056 26.1488 44.0825 26.2001 44.185 26.2513C44.2875 26.3026 44.4413 26.3538 44.6207 26.3538C44.877 26.3538 45.1333 26.2769 45.3896 26.1232C45.6459 25.9694 45.8765 25.7644 46.0816 25.5593C46.2866 25.3287 46.466 25.1236 46.6198 24.893C46.7735 24.6623 46.9017 24.4829 46.9786 24.3804L46.8248 24.5598ZM43.5186 24.8673C43.5186 25.0211 43.5186 25.1749 43.5443 25.2774C43.5699 25.3799 43.5955 25.4824 43.6211 25.585C43.6468 25.6618 43.6724 25.7387 43.7237 25.79C43.7493 25.8413 43.7749 25.8925 43.8006 25.9181C43.9031 25.8156 44.0056 25.6618 44.1337 25.4824C44.2619 25.303 44.3644 25.1236 44.4669 24.893C44.5694 24.6879 44.6463 24.4573 44.7232 24.201C44.8001 23.9447 44.8257 23.6884 44.8257 23.4321C44.8257 23.3552 44.8257 23.2783 44.8001 23.2014C44.8001 23.1246 44.7745 23.0477 44.7488 22.9964C44.7232 22.9195 44.6976 22.8683 44.6463 22.8426C44.5951 22.7914 44.5438 22.7914 44.4925 22.7914C44.39 22.7914 44.2875 22.8683 44.1594 22.9964C44.0568 23.1245 43.9287 23.304 43.8262 23.509C43.7237 23.714 43.6468 23.9447 43.5955 24.1753C43.5699 24.406 43.5186 24.6367 43.5186 24.8673ZM49.3108 24.5854L49.3877 24.3291C49.3365 24.3804 49.2852 24.4829 49.1827 24.6367C49.0802 24.7905 48.952 24.9442 48.7983 25.1236C48.6445 25.303 48.4907 25.4824 48.3369 25.6618C48.1575 25.8413 48.0037 26.0207 47.8243 26.1744C47.6449 26.3282 47.4912 26.4564 47.3374 26.5589C47.1836 26.6614 47.0298 26.7126 46.9017 26.7126C46.8248 26.7126 46.7735 26.687 46.7479 26.6101C46.7223 26.5589 46.6967 26.482 46.6967 26.3795C46.6967 26.3282 46.6967 26.2513 46.7223 26.1488C46.7479 26.0463 46.7735 25.9181 46.7992 25.79C46.8248 25.6618 46.8761 25.5081 46.9273 25.3799C46.9786 25.2262 47.0042 25.1236 47.0555 24.9955L47.85 22.5351L46.2353 22.6632L46.1841 22.7914H46.4147C46.6198 22.7914 46.7479 22.817 46.8248 22.8939C46.9017 22.9708 46.9273 23.0477 46.9273 23.1758C46.9273 23.304 46.9017 23.509 46.8248 23.7397C46.7479 23.9959 46.671 24.2522 46.5941 24.5598L46.2097 25.79C46.1584 25.9181 46.1328 26.0719 46.0816 26.2257C46.0303 26.3795 46.0047 26.5076 46.0047 26.5845C46.0047 26.7126 46.0559 26.8408 46.1328 26.9689C46.2097 27.0971 46.3378 27.1483 46.5172 27.1483C46.671 27.1483 46.8761 27.0971 47.0555 26.9946C47.2605 26.892 47.4399 26.7383 47.6449 26.5589C47.85 26.3795 48.0294 26.2001 48.2088 25.995C48.3882 25.79 48.5676 25.585 48.7214 25.4056C48.8751 25.2262 49.0033 25.0467 49.1058 24.893C49.2083 24.7392 49.2852 24.6367 49.3108 24.5854ZM48.055 20.8692C47.9012 20.8692 47.7987 20.8179 47.6962 20.741C47.6193 20.6641 47.568 20.5616 47.568 20.4078C47.568 20.2797 47.6193 20.1516 47.6962 20.049C47.7731 19.9465 47.9012 19.8953 48.055 19.8953C48.1831 19.8953 48.2857 19.9209 48.3882 19.9978C48.4651 20.0747 48.5163 20.1772 48.5163 20.3566C48.5163 20.4847 48.4651 20.6129 48.3882 20.7154C48.2857 20.8179 48.1831 20.8692 48.055 20.8692ZM54.3086 24.5598C54.2317 24.6623 54.1291 24.8161 53.9754 25.0467C53.8216 25.2518 53.6678 25.4568 53.4628 25.6618C53.2577 25.8669 53.0271 26.0463 52.7964 26.2001C52.5401 26.3538 52.3095 26.4307 52.0275 26.4307C51.7456 26.4307 51.515 26.3282 51.3099 26.1488C51.2587 26.2001 51.1818 26.2769 51.0793 26.3795C50.9511 26.482 50.823 26.6101 50.6436 26.7383C50.4642 26.8664 50.2848 26.9689 50.0797 27.0715C49.8747 27.174 49.6697 27.1996 49.439 27.1996C49.1058 27.1996 48.8495 27.0715 48.6701 26.8408C48.4907 26.6101 48.3882 26.3282 48.3882 25.9694C48.3882 25.585 48.4651 25.2262 48.5932 24.893C48.7214 24.5598 48.8751 24.2522 49.0289 23.9959C49.1827 23.7397 49.3365 23.509 49.4646 23.3552C49.5928 23.1758 49.6697 23.0477 49.6697 22.9964C49.6697 22.9451 49.644 22.8939 49.5928 22.8683C49.5415 22.8426 49.4646 22.817 49.4134 22.817C49.3365 22.817 49.234 22.8426 49.1827 22.8683L49.2596 22.612L50.8742 22.5607C50.7717 22.6632 50.6436 22.8426 50.4385 23.0733C50.2591 23.304 50.0541 23.5859 49.8747 23.8678C49.6953 24.1754 49.5159 24.4829 49.3877 24.8417C49.234 25.1749 49.1827 25.5337 49.1827 25.8669C49.1827 26.0975 49.234 26.3282 49.3621 26.482C49.4902 26.6614 49.6697 26.7383 49.9516 26.7383C50.1054 26.7383 50.2591 26.7126 50.3873 26.6614C50.5154 26.6101 50.6436 26.5332 50.7717 26.482C50.8742 26.4051 50.9767 26.3282 51.0793 26.2513C51.1818 26.1744 51.2587 26.0975 51.3099 26.0463C51.2843 25.995 51.2587 25.9438 51.2074 25.8925C51.1818 25.8413 51.1305 25.7644 51.1049 25.6618C51.0793 25.5593 51.028 25.4568 51.0024 25.3287C50.9767 25.2005 50.9511 25.0211 50.9511 24.8417C50.9511 24.6367 50.9767 24.406 51.0536 24.1497C51.1305 23.8934 51.2074 23.6371 51.3356 23.4065C51.4637 23.1758 51.5918 22.9708 51.7712 22.817C51.9507 22.6632 52.1557 22.5863 52.3607 22.5863C52.5658 22.5863 52.7195 22.6632 52.7964 22.817C52.8989 22.9708 52.9246 23.1502 52.9246 23.3552C52.9246 23.6628 52.8733 23.9703 52.7452 24.2522C52.617 24.5598 52.4889 24.8161 52.3095 25.0724C52.1557 25.3287 52.0019 25.5337 51.8225 25.7131C51.6687 25.8925 51.5406 26.0207 51.4637 26.0975C51.4893 26.1488 51.5662 26.2001 51.6687 26.2513C51.7712 26.3026 51.925 26.3538 52.1044 26.3538C52.3607 26.3538 52.617 26.2769 52.8733 26.1232C53.1296 25.9694 53.3603 25.7644 53.5653 25.5593C53.7703 25.3287 53.9497 25.1236 54.1035 24.893C54.2573 24.6623 54.3854 24.4829 54.4623 24.3804L54.3086 24.5598ZM51.0024 24.8673C51.0024 25.0211 51.0024 25.1749 51.028 25.2774C51.0536 25.3799 51.0793 25.4824 51.1049 25.585C51.1305 25.6618 51.1562 25.7387 51.2074 25.79C51.233 25.8413 51.2587 25.8925 51.2843 25.9181C51.3868 25.8156 51.4893 25.6618 51.6175 25.4824C51.7456 25.303 51.8481 25.1236 51.9507 24.893C52.0532 24.6879 52.1301 24.4573 52.2069 24.201C52.2838 23.9447 52.3095 23.6884 52.3095 23.4321C52.3095 23.3552 52.3095 23.2783 52.2838 23.2014C52.2838 23.1246 52.2582 23.0477 52.2326 22.9964C52.207 22.9195 52.1813 22.8683 52.1301 22.8426C52.0788 22.7914 52.0275 22.7914 51.9763 22.7914C51.8738 22.7914 51.7712 22.8683 51.6431 22.9964C51.5406 23.1245 51.4124 23.304 51.3099 23.509C51.2074 23.714 51.1305 23.9447 51.0793 24.1753C51.028 24.406 51.0024 24.6367 51.0024 24.8673ZM58.2555 24.5854L58.3323 24.3291C58.2298 24.4829 58.0504 24.6879 57.8454 24.9442C57.6404 25.2005 57.3841 25.4824 57.1021 25.7387C56.8202 25.995 56.487 26.2513 56.1282 26.4307C55.7694 26.6358 55.4106 26.7383 55.0262 26.7383C54.7186 26.7383 54.4879 26.6614 54.3342 26.5332C54.1804 26.3795 54.0779 26.1488 54.0779 25.8156C54.0779 25.6875 54.1035 25.5337 54.1291 25.4056C54.1548 25.2774 54.1804 25.1236 54.2317 24.9955C54.4367 25.0467 54.6161 25.0724 54.8211 25.0724C55.1287 25.0724 55.4106 25.0211 55.6669 24.893C55.9232 24.7648 56.1795 24.611 56.3589 24.406C56.5639 24.201 56.7177 23.9959 56.8458 23.7909C56.974 23.5859 57.0252 23.3808 57.0252 23.1758C57.0252 22.9451 56.974 22.7657 56.8458 22.6632C56.7177 22.5607 56.5639 22.4838 56.3845 22.4838C56.1539 22.4838 55.9232 22.5351 55.6925 22.6376C55.4619 22.7401 55.2312 22.8939 55.0005 23.0733C54.7699 23.2527 54.5648 23.4577 54.3854 23.714C54.1804 23.9447 54.0266 24.201 53.8729 24.4573C53.7191 24.7136 53.6166 24.9699 53.5397 25.2261C53.4628 25.4824 53.4115 25.7387 53.4115 25.9438C53.4115 26.3282 53.514 26.6101 53.7191 26.8152C53.9241 27.0202 54.2317 27.1227 54.6417 27.1227C54.9493 27.1227 55.2312 27.0715 55.5131 26.9689C55.795 26.8664 56.0513 26.7383 56.282 26.5845C56.5127 26.4307 56.7433 26.2513 56.9484 26.0719C57.1534 25.8669 57.3328 25.6875 57.5122 25.4824C57.666 25.2774 57.8198 25.098 57.9479 24.9442C58.076 24.8417 58.1786 24.7136 58.2555 24.5854ZM56.0257 22.7401C55.8207 22.7401 55.6156 22.817 55.4362 22.9708C55.2568 23.1246 55.0774 23.3296 54.9237 23.5346C54.7699 23.7396 54.6417 23.9447 54.5392 24.1497C54.4367 24.3548 54.3598 24.5085 54.3342 24.5854C54.3598 24.611 54.4111 24.6367 54.4623 24.6623C54.5136 24.6879 54.5905 24.7136 54.6674 24.7648C54.7442 24.7905 54.8468 24.8161 54.9237 24.8417C55.0262 24.8673 55.1287 24.8673 55.2312 24.8673C55.385 24.8673 55.5644 24.8161 55.6925 24.7136C55.8463 24.611 55.9745 24.4829 56.077 24.3291C56.1795 24.1753 56.2564 23.9959 56.3333 23.8165C56.3845 23.6115 56.4358 23.4321 56.4358 23.2527C56.4358 23.1245 56.4101 22.9964 56.3333 22.8683C56.282 22.7914 56.1795 22.7401 56.0257 22.7401ZM58.1529 24.4316C58.1786 24.3804 58.2042 24.2779 58.2298 24.1753C58.2555 24.0472 58.3067 23.9447 58.3323 23.7909C58.358 23.6628 58.3836 23.5346 58.4092 23.4065C58.4349 23.2783 58.4349 23.1758 58.4349 23.0989C58.4349 22.8939 58.2811 22.7914 57.9479 22.7914H57.7429L57.7941 22.6376L59.3575 22.5094L57.9735 26.9689H58.1017C58.1273 26.9177 58.1786 26.7639 58.2555 26.5076C58.3323 26.2513 58.4605 25.9694 58.5886 25.6618C58.7424 25.3287 58.8962 24.9955 59.0756 24.611C59.255 24.2522 59.4857 23.8934 59.6907 23.5859C59.9214 23.2783 60.152 23.022 60.4083 22.817C60.6646 22.612 60.9209 22.5094 61.2028 22.5094C61.2797 22.5094 61.3822 22.5351 61.4847 22.5863L61.0747 23.4577C61.0234 23.3808 60.9978 23.2783 60.9465 23.2271C60.8953 23.1502 60.7928 23.1245 60.639 23.1245C60.4339 23.1245 60.2545 23.2014 60.0495 23.3808C59.8445 23.5602 59.6651 23.7909 59.4857 24.0472C59.3063 24.3291 59.1525 24.611 58.9987 24.9442C58.8449 25.2774 58.7168 25.5593 58.5886 25.8669C58.4605 26.1488 58.3836 26.4051 58.3067 26.6101C58.2298 26.8152 58.1786 26.9433 58.1786 26.9946L57.2303 27.1483L58.1529 24.4316ZM67.482 24.2266C67.4564 24.3035 67.4051 24.406 67.3538 24.5854C67.277 24.7648 67.2001 24.9699 67.0976 25.1749C66.995 25.3799 66.8669 25.6106 66.7131 25.8669C66.5593 26.0975 66.4056 26.3282 66.2262 26.5076C66.0468 26.7126 65.8417 26.8664 65.6367 26.9946C65.4316 27.1227 65.201 27.174 64.9703 27.174C64.714 27.174 64.509 27.0715 64.3809 26.8664C64.2271 26.6614 64.1758 26.4051 64.1758 26.1232C64.1758 25.9181 64.2271 25.6618 64.304 25.4056C64.3809 25.1493 64.509 24.8673 64.6628 24.611C64.8166 24.3548 64.9703 24.0985 65.1754 23.8422C65.3804 23.5859 65.5854 23.3552 65.7905 23.1758C65.9955 22.9708 66.2262 22.817 66.4568 22.7145C66.6875 22.5863 66.8925 22.5351 67.1232 22.5351C67.3282 22.5351 67.5076 22.612 67.6101 22.7401C67.7127 22.8683 67.7639 23.0733 67.7639 23.304C67.7639 23.4065 67.7639 23.4834 67.7383 23.5859C67.7127 23.6884 67.7127 23.7653 67.687 23.8678L67.7895 23.8934L68.1996 22.612L68.9685 22.5351C68.9429 22.5863 68.8916 22.7401 68.8147 22.9451C68.7378 23.1502 68.6353 23.4321 68.5328 23.7653L68.1996 24.7904C68.1484 24.9186 68.1227 25.0724 68.0715 25.2518C68.0202 25.4056 67.9689 25.585 67.9433 25.7387C67.8921 25.8925 67.8664 26.0463 67.8408 26.1744C67.8152 26.3026 67.7895 26.4051 67.7895 26.482C67.7895 26.5332 67.8152 26.5845 67.8408 26.6358C67.8664 26.6614 67.9177 26.687 67.9689 26.687C68.0971 26.687 68.2509 26.6358 68.4047 26.5332C68.5584 26.4307 68.7378 26.3026 68.9172 26.1232C69.0966 25.9694 69.276 25.79 69.4554 25.585C69.6348 25.3799 69.7886 25.2005 69.9424 25.0211C70.0962 24.8417 70.2243 24.6879 70.3268 24.5342C70.4294 24.3804 70.5062 24.3035 70.5575 24.2266L70.4806 24.4829C70.4294 24.5342 70.3525 24.6623 70.2243 24.8161C70.0962 24.9699 69.968 25.1493 69.8143 25.3543C69.6605 25.5593 69.4811 25.7644 69.276 25.9694C69.071 26.1744 68.8916 26.3795 68.6866 26.5332C68.4815 26.7126 68.2765 26.8408 68.0715 26.9689C67.8664 27.0715 67.6614 27.1483 67.482 27.1483C67.3026 27.1483 67.2001 27.0971 67.1232 26.9946C67.0463 26.892 67.0207 26.7639 67.0207 26.6101C67.0207 26.5076 67.0463 26.3795 67.0719 26.2257C67.1232 26.0719 67.1488 25.9438 67.1744 25.8156L67.687 24.201L67.482 24.2266ZM64.7653 25.8925C64.7653 25.995 64.7653 26.0719 64.7909 26.1744C64.8166 26.277 64.8422 26.3538 64.8678 26.4307C64.9191 26.5076 64.9703 26.5845 65.0216 26.6358C65.0728 26.687 65.1497 26.7126 65.2522 26.7126C65.4829 26.7126 65.7136 26.6101 65.9442 26.4051C66.2005 26.2001 66.4056 25.9438 66.6106 25.6362C66.8156 25.3287 66.995 24.9955 67.1232 24.6623C67.2513 24.3291 67.3282 24.0216 67.3282 23.7653C67.3282 23.5346 67.277 23.3296 67.1488 23.1502C67.0207 22.9708 66.8669 22.8939 66.6362 22.8939C66.4568 22.8939 66.2774 22.9451 66.1236 23.0477C65.9699 23.1502 65.8161 23.304 65.6623 23.4834C65.5085 23.6628 65.3804 23.8422 65.2779 24.0728C65.1497 24.3035 65.0728 24.5085 64.9703 24.7392C64.8934 24.9699 64.8166 25.1749 64.7909 25.3799C64.7909 25.585 64.7653 25.7644 64.7653 25.8925Z" fill="#B9B9B9" stroke="#B9B9B9" stroke-width="0.5669" stroke-miterlimit="22.9256"/>
<path fill-rule="evenodd" clip-rule="evenodd" d="M73.7357 22.5862L73.9407 21.9711C74.197 21.151 74.5302 20.5359 74.9403 20.1002C75.3504 19.6645 75.8373 19.4595 76.4268 19.4595C76.5549 19.4595 76.7087 19.4851 76.8625 19.5107C77.0163 19.5364 77.1444 19.5876 77.2725 19.6389L77.0163 20.4846C76.9906 20.4078 76.9906 20.3309 76.965 20.2284C76.9394 20.1258 76.8881 20.0233 76.8369 19.9464C76.7856 19.8439 76.6831 19.767 76.5806 19.7158C76.478 19.6645 76.3499 19.6132 76.1961 19.6132C76.0423 19.6132 75.8886 19.6645 75.7348 19.767C75.581 19.8695 75.4785 19.9977 75.3504 20.1515C75.2478 20.3052 75.1453 20.4846 75.0428 20.7153C74.9659 20.9203 74.8634 21.151 74.7865 21.3817L74.4021 22.5862H76.5293L76.2218 22.8682C75.9655 22.8425 75.7348 22.8169 75.4785 22.8169C75.2222 22.8169 74.9659 22.7913 74.7096 22.7913H74.3508L73.0437 26.9688C72.7874 27.8146 72.4542 28.4553 72.0442 28.891C71.6597 29.3267 71.1472 29.5574 70.5577 29.5574C70.2758 29.5574 69.9938 29.4805 69.7119 29.3524L69.9682 28.5066C69.9938 28.5835 69.9938 28.6604 70.0195 28.7629C70.0451 28.8654 70.0964 28.9679 70.1476 29.0448C70.1989 29.1217 70.3014 29.2242 70.4039 29.2755C70.5064 29.3524 70.6346 29.378 70.7883 29.378C70.9678 29.378 71.1472 29.3267 71.2753 29.2242C71.4291 29.1217 71.5572 28.9679 71.6854 28.7629C71.8135 28.5579 71.916 28.3272 72.0185 28.0453C72.1211 27.7634 72.2236 27.4558 72.3517 27.097L73.7101 22.74H73.5819C73.4282 22.74 73.2744 22.74 73.095 22.7656C72.9412 22.7913 72.7874 22.7913 72.608 22.8169L72.8387 22.535H73.7357V22.5862ZM80.0918 24.5853L80.1687 24.329C80.0661 24.4828 79.8867 24.6878 79.6817 24.9441C79.4767 25.2004 79.2204 25.4824 78.9385 25.7386C78.6565 25.9949 78.3234 26.2512 77.9645 26.4306C77.6057 26.6357 77.2469 26.7382 76.8625 26.7382C76.5549 26.7382 76.3243 26.6613 76.1705 26.5332C76.0167 26.3794 75.9142 26.1487 75.9142 25.8155C75.9142 25.6874 75.9398 25.5336 75.9655 25.4055C75.9911 25.2773 76.0167 25.1235 76.068 24.9954C76.273 25.0467 76.4524 25.0723 76.6574 25.0723C76.965 25.0723 77.2469 25.021 77.5032 24.8929C77.7595 24.7647 78.0158 24.611 78.1952 24.4059C78.4002 24.2009 78.554 23.9959 78.6822 23.7908C78.8103 23.5858 78.8616 23.3808 78.8616 23.1757C78.8616 22.9451 78.8103 22.7656 78.6822 22.6631C78.554 22.5606 78.4002 22.4837 78.2208 22.4837C77.9902 22.4837 77.7595 22.535 77.5288 22.6375C77.2982 22.74 77.0675 22.8938 76.8369 23.0732C76.6062 23.2526 76.4012 23.4576 76.2218 23.7139C76.0167 23.9446 75.8629 24.2009 75.7092 24.4572C75.5554 24.7135 75.4529 24.9698 75.376 25.2261C75.2991 25.4824 75.2478 25.7386 75.2478 25.9437C75.2478 26.3281 75.3504 26.61 75.5554 26.8151C75.7604 27.0201 76.068 27.1226 76.478 27.1226C76.7856 27.1226 77.0675 27.0714 77.3494 26.9688C77.6314 26.8663 77.8877 26.7382 78.1183 26.5844C78.349 26.4306 78.5796 26.2512 78.7847 26.0718C78.9897 25.8668 79.1691 25.6874 79.3485 25.4824C79.5023 25.2773 79.6561 25.0979 79.7842 24.9441C79.9124 24.8416 80.0149 24.7135 80.0918 24.5853ZM77.8877 22.74C77.6826 22.74 77.4776 22.8169 77.2982 22.9707C77.1188 23.1245 76.9394 23.3295 76.7856 23.5345C76.6318 23.7396 76.5037 23.9446 76.4012 24.1496C76.2986 24.3547 76.2218 24.5084 76.1961 24.5853C76.2218 24.611 76.273 24.6366 76.3243 24.6622C76.3755 24.6878 76.4524 24.7135 76.5293 24.7647C76.6062 24.7904 76.7087 24.816 76.7856 24.8416C76.8881 24.8672 76.9906 24.8672 77.0931 24.8672C77.2469 24.8672 77.4263 24.816 77.5545 24.7135C77.7082 24.611 77.8364 24.4828 77.9389 24.329C78.0414 24.1753 78.1183 23.9959 78.1952 23.8164C78.2465 23.6114 78.2977 23.432 78.2977 23.2526C78.2977 23.1245 78.2721 22.9963 78.1952 22.8682C78.1183 22.7913 78.0158 22.74 77.8877 22.74ZM82.8085 24.5853C82.7828 24.6366 82.706 24.7391 82.6034 24.8929C82.5009 25.0467 82.3471 25.2261 82.1934 25.4055C82.0396 25.5849 81.8602 25.7899 81.6552 25.9949C81.4501 26.2 81.2707 26.405 81.0657 26.5588C80.8607 26.7382 80.6556 26.8663 80.4506 26.9945C80.2456 27.097 80.0405 27.1483 79.8611 27.1483C79.733 27.1483 79.6048 27.097 79.5279 26.9945C79.451 26.892 79.4254 26.7638 79.4254 26.6357C79.4254 26.5588 79.451 26.4306 79.4767 26.3025C79.5279 26.1743 79.5536 26.0462 79.5792 25.9181L80.9375 21.6123C81.0401 21.3048 81.1169 20.9972 81.1938 20.7409C81.2707 20.459 81.2963 20.254 81.2963 20.1258C81.2963 20.0233 81.2707 19.9464 81.2195 19.8952C81.1682 19.8439 81.1169 19.8183 81.0401 19.7927C80.9632 19.767 80.8863 19.7414 80.8094 19.7414C80.7325 19.7414 80.6556 19.7414 80.5787 19.7414L80.63 19.5876L82.219 19.4595L80.4762 24.9954C80.4506 25.0979 80.3993 25.2261 80.3737 25.3542C80.3224 25.508 80.2968 25.6361 80.2455 25.7643C80.2199 25.8924 80.1687 26.0206 80.143 26.1487C80.1174 26.2769 80.0918 26.3537 80.0918 26.405C80.0918 26.5844 80.1687 26.6869 80.2968 26.6869C80.425 26.6869 80.5531 26.6357 80.7325 26.5332C80.8863 26.4306 81.0657 26.3025 81.2451 26.1487C81.4245 25.9949 81.5783 25.8155 81.7577 25.6361C81.9371 25.4567 82.0909 25.2517 82.2446 25.0979C82.3984 24.9185 82.5266 24.7647 82.6291 24.6366C82.7316 24.5084 82.8085 24.4059 82.8341 24.329L82.8085 24.5853ZM85.3458 24.5853L85.4227 24.329C85.3714 24.3803 85.3201 24.4828 85.2176 24.6366C85.1151 24.7904 84.987 24.9441 84.8332 25.1235C84.6794 25.3029 84.5256 25.4824 84.3719 25.6618C84.1925 25.8412 84.0387 26.0206 83.8593 26.1743C83.6799 26.3281 83.5261 26.4563 83.3723 26.5588C83.2185 26.6613 83.0648 26.7126 82.9366 26.7126C82.8597 26.7126 82.8085 26.6869 82.7828 26.61C82.7572 26.5588 82.7316 26.4819 82.7316 26.3794C82.7316 26.3281 82.7316 26.2512 82.7572 26.1487C82.7828 26.0462 82.8085 25.9181 82.8341 25.7899C82.8597 25.6618 82.911 25.508 82.9622 25.3798C83.0135 25.2261 83.0391 25.1235 83.0904 24.9954L83.8849 22.535L82.2703 22.6631L82.219 22.8169H82.4497C82.6547 22.8169 82.7828 22.8425 82.8597 22.9194C82.9366 22.9963 82.9622 23.0732 82.9622 23.2013C82.9622 23.3295 82.9366 23.5345 82.8597 23.7652C82.7828 24.0215 82.706 24.2778 82.6291 24.5853L82.2446 25.8155C82.1934 25.9437 82.1677 26.0975 82.1165 26.2512C82.0652 26.405 82.0396 26.5331 82.0396 26.61C82.0396 26.7382 82.0909 26.8663 82.1677 26.9945C82.2446 27.1226 82.3728 27.1739 82.5522 27.1739C82.706 27.1739 82.911 27.1226 83.0904 27.0201C83.2954 26.9176 83.4748 26.7638 83.6799 26.5844C83.8849 26.405 84.0643 26.2256 84.2437 26.0206C84.4231 25.8155 84.6025 25.6105 84.7563 25.4311C84.9101 25.2517 85.0382 25.0723 85.1407 24.9185C85.2176 24.7391 85.2945 24.6366 85.3458 24.5853ZM84.0643 20.8691C83.9105 20.8691 83.808 20.8178 83.7055 20.7409C83.6286 20.664 83.5774 20.5615 83.5774 20.4078C83.5774 20.2796 83.6286 20.1515 83.7055 20.0489C83.7824 19.9464 83.9105 19.8952 84.0643 19.8952C84.1925 19.8952 84.295 19.9208 84.3975 19.9977C84.4744 20.0746 84.5256 20.1771 84.5256 20.3565C84.5256 20.4846 84.4744 20.6128 84.3975 20.7153C84.295 20.8178 84.1925 20.8691 84.0643 20.8691ZM89.2927 24.5341C89.2414 24.6366 89.1389 24.7647 89.0108 24.9441C88.8826 25.1235 88.7288 25.3029 88.5751 25.508C88.3957 25.713 88.2163 25.8924 88.0112 26.0975C87.8062 26.3025 87.5755 26.4819 87.3192 26.6357C87.0629 26.7894 86.8066 26.9176 86.5247 27.0201C86.2428 27.1226 85.9609 27.1739 85.6533 27.1739C85.4227 27.1739 85.2433 27.1483 85.0895 27.0714C84.9357 27.0201 84.8076 26.9176 84.705 26.8151C84.6025 26.7126 84.5256 26.5844 84.5 26.4306C84.4487 26.3025 84.4231 26.1487 84.4231 25.9949C84.4231 25.7899 84.4487 25.5849 84.5256 25.3286C84.6025 25.0723 84.705 24.816 84.8588 24.5597C84.987 24.3034 85.1664 24.0471 85.3458 23.8164C85.5508 23.5602 85.7558 23.3551 85.9865 23.1501C86.2172 22.9451 86.4735 22.7913 86.7298 22.6888C86.986 22.5606 87.268 22.5094 87.5499 22.5094C87.7806 22.5094 87.9856 22.535 88.1394 22.5862C88.2931 22.6375 88.4213 22.6888 88.5238 22.7144L88.2419 23.3551C88.2162 23.3039 88.165 23.2526 88.1137 23.1757C88.0625 23.0988 87.9856 23.0476 87.9343 22.9707C87.8574 22.9194 87.7549 22.8682 87.6524 22.8169C87.5499 22.7656 87.4217 22.7656 87.268 22.7656C87.0629 22.7656 86.8835 22.8169 86.7041 22.9194C86.5247 23.0219 86.3453 23.1501 86.1915 23.3295C86.0378 23.4833 85.884 23.6883 85.7558 23.8933C85.6277 24.0984 85.5252 24.329 85.4227 24.5341C85.3458 24.7647 85.2689 24.9698 85.2176 25.1748C85.1664 25.3798 85.1407 25.5849 85.1407 25.7386C85.1407 25.8412 85.1407 25.9693 85.1664 26.0718C85.192 26.2 85.2176 26.3025 85.2945 26.3794C85.3714 26.4819 85.4483 26.5588 85.5764 26.61C85.7046 26.6613 85.884 26.7126 86.089 26.7126C86.4478 26.7126 86.8066 26.61 87.1655 26.405C87.4986 26.2 87.8318 25.9693 88.1137 25.6874C88.3956 25.4055 88.6519 25.1492 88.857 24.8672C89.062 24.5853 89.2414 24.3803 89.3439 24.2265L89.2927 24.5341ZM91.8556 24.5853L91.9325 24.329C91.8812 24.3803 91.83 24.4828 91.7275 24.6366C91.6249 24.7904 91.4968 24.9441 91.343 25.1235C91.1892 25.3029 91.0355 25.4824 90.8817 25.6618C90.7023 25.8412 90.5485 26.0206 90.3691 26.1743C90.1897 26.3281 90.0359 26.4563 89.8822 26.5588C89.7284 26.6613 89.5746 26.7126 89.4465 26.7126C89.3696 26.7126 89.3183 26.6869 89.2927 26.61C89.2671 26.5331 89.2414 26.4819 89.2414 26.3794C89.2414 26.3281 89.2414 26.2512 89.267 26.1487C89.2927 26.0462 89.3183 25.9181 89.3439 25.7899C89.3696 25.6618 89.4208 25.508 89.4721 25.3798C89.5233 25.2261 89.549 25.1235 89.6002 24.9954L90.3947 22.535L88.7801 22.6631L88.7288 22.7913H88.9595C89.1645 22.7913 89.2927 22.8169 89.3696 22.8938C89.4465 22.9707 89.4721 23.0476 89.4721 23.1757C89.4721 23.3039 89.4465 23.5089 89.3696 23.7396C89.2927 23.9959 89.2158 24.2521 89.1389 24.5597L88.7545 25.7899C88.7032 25.9181 88.6776 26.0718 88.6263 26.2256C88.5751 26.3794 88.5494 26.5075 88.5494 26.5844C88.5494 26.7126 88.6007 26.8407 88.6776 26.9688C88.7545 27.097 88.8826 27.1483 89.062 27.1483C89.2158 27.1483 89.4208 27.097 89.6002 26.9945C89.8053 26.892 89.9847 26.7382 90.1897 26.5588C90.3947 26.3794 90.5742 26.2 90.7536 25.9949C90.933 25.7899 91.1124 25.5849 91.2661 25.4055C91.4199 25.2261 91.5481 25.0467 91.6506 24.8929C91.7275 24.7391 91.8044 24.6366 91.8556 24.5853ZM90.5741 20.8691C90.4204 20.8691 90.3178 20.8178 90.2153 20.7409C90.1384 20.664 90.0872 20.5615 90.0872 20.4078C90.0872 20.2796 90.1384 20.1515 90.2153 20.0489C90.2922 19.9464 90.4204 19.8952 90.5741 19.8952C90.7023 19.8952 90.8048 19.9208 90.9073 19.9977C90.9842 20.0746 91.0355 20.1771 91.0355 20.3565C91.0355 20.4846 90.9842 20.6128 90.9073 20.7153C90.8304 20.8178 90.7023 20.8691 90.5741 20.8691ZM94.3417 24.2265C94.316 24.3034 94.2648 24.4316 94.1879 24.611C94.111 24.7904 94.0341 24.9698 93.906 25.2004C93.8034 25.4055 93.6753 25.6361 93.5215 25.8668C93.3677 26.0975 93.214 26.3281 93.0345 26.5075C92.8551 26.7126 92.6501 26.8663 92.4451 26.9945C92.24 27.1226 92.0094 27.1739 91.7787 27.1739C91.5224 27.1739 91.3174 27.0714 91.1636 26.8663C91.0098 26.6613 90.9329 26.4306 90.9329 26.1231C90.9329 25.8924 90.9842 25.6618 91.0611 25.4055C91.138 25.1492 91.2661 24.8672 91.4199 24.611C91.5737 24.3547 91.7275 24.0727 91.9325 23.8421C92.1375 23.5858 92.3426 23.3808 92.5476 23.1757C92.7526 22.9707 92.9833 22.8169 93.214 22.7144C93.4446 22.5862 93.6497 22.535 93.8547 22.535C94.0597 22.535 94.2135 22.6119 94.316 22.7913C94.4185 22.9707 94.4698 23.1501 94.4698 23.3807C94.4698 23.4576 94.4698 23.5345 94.4442 23.637C94.4442 23.7139 94.4185 23.8164 94.4185 23.8933H94.4954L95.1874 21.6892C95.2899 21.3817 95.3668 21.0741 95.4437 20.8178C95.5206 20.5359 95.5462 20.3309 95.5462 20.2027C95.5462 20.1002 95.5206 20.0233 95.4693 19.9721C95.4181 19.9208 95.3668 19.8952 95.2899 19.8695C95.213 19.8439 95.1362 19.8183 95.0593 19.8183C94.9824 19.8183 94.9055 19.8183 94.8286 19.8183L94.8799 19.6645L96.4689 19.5364L94.6748 25.1748C94.6492 25.2773 94.5979 25.4055 94.5723 25.5336C94.5467 25.6618 94.4954 25.7899 94.4698 25.9181C94.4442 26.0462 94.4185 26.1743 94.3929 26.2769C94.3673 26.3794 94.3673 26.4819 94.3673 26.5332C94.3673 26.61 94.3929 26.6613 94.4185 26.6869C94.4698 26.7382 94.4954 26.7382 94.5723 26.7382C94.7005 26.7382 94.8286 26.6869 95.008 26.5844C95.1618 26.4819 95.3412 26.3537 95.5206 26.2C95.7 26.0462 95.8794 25.8668 96.0588 25.6618C96.2382 25.4567 96.4176 25.2773 96.5714 25.0979C96.7252 24.9185 96.8533 24.7647 96.9815 24.611C97.084 24.4572 97.1865 24.3547 97.2121 24.3034L97.1352 24.5597C97.084 24.6366 96.9815 24.7391 96.8789 24.8929C96.7508 25.0467 96.6226 25.2261 96.4432 25.4311C96.2895 25.6361 96.0844 25.8412 95.8794 26.0462C95.6744 26.2512 95.4693 26.4306 95.2643 26.61C95.0593 26.7894 94.8542 26.9176 94.6492 27.0457C94.4442 27.1483 94.2648 27.1995 94.0854 27.1995C93.9316 27.1995 93.8291 27.1483 93.7522 27.0714C93.6753 26.9945 93.6497 26.8663 93.6497 26.7638C93.6497 26.6613 93.6753 26.5588 93.7009 26.4306C93.7265 26.3025 93.7522 26.2 93.7778 26.0975L94.3417 24.2778V24.2265ZM91.6249 25.8924C91.6249 25.7386 91.6506 25.5592 91.7018 25.3542C91.7531 25.1492 91.83 24.9441 91.9069 24.7135C91.9838 24.4828 92.0863 24.2778 92.2144 24.0727C92.3426 23.8677 92.4707 23.6627 92.5988 23.5089C92.7526 23.3551 92.8808 23.2013 93.0345 23.0988C93.1883 22.9963 93.3421 22.9451 93.4959 22.9451C93.7265 22.9451 93.8803 23.0219 94.0085 23.2013C94.1366 23.3808 94.1879 23.5858 94.1879 23.8164C94.1879 23.9702 94.1622 24.1496 94.0854 24.3547C94.0085 24.5597 93.9316 24.7647 93.8291 24.9698C93.7265 25.1748 93.5984 25.3798 93.4446 25.5849C93.2909 25.7899 93.1627 25.9693 93.0089 26.1231C92.8552 26.2769 92.7014 26.405 92.5476 26.5075C92.3938 26.61 92.24 26.6613 92.1119 26.6613C92.0094 26.6613 91.9325 26.6357 91.8812 26.5844C91.8043 26.5331 91.7531 26.4819 91.7275 26.405C91.6762 26.3281 91.6506 26.2512 91.6249 26.1487C91.6249 26.0718 91.6249 25.9693 91.6249 25.8924ZM99.6725 24.2265L99.775 24.2521L99.2625 25.8668C99.2368 25.9949 99.1856 26.1231 99.16 26.2769C99.1087 26.4306 99.1087 26.5588 99.1087 26.6613C99.1087 26.7894 99.1343 26.9176 99.2112 27.0457C99.2881 27.1483 99.4162 27.1995 99.57 27.1995C99.7494 27.1995 99.9544 27.1483 100.159 27.0201C100.365 26.9176 100.57 26.7638 100.775 26.5844C100.98 26.405 101.185 26.2256 101.364 26.0206C101.569 25.8155 101.723 25.6105 101.902 25.4055C102.056 25.2004 102.21 25.021 102.312 24.8672C102.44 24.7135 102.517 24.611 102.569 24.5341L102.646 24.2778C102.594 24.329 102.517 24.4316 102.415 24.5853C102.312 24.7391 102.184 24.8929 102.03 25.0723C101.877 25.2517 101.723 25.4311 101.543 25.6361C101.364 25.8412 101.185 25.9949 101.005 26.1743C100.826 26.3281 100.646 26.4819 100.493 26.5844C100.339 26.6869 100.185 26.7382 100.057 26.7382C100.006 26.7382 99.9545 26.7126 99.9288 26.6869C99.9032 26.6613 99.8776 26.61 99.8776 26.5332C99.8776 26.4563 99.9032 26.3537 99.9288 26.2256C99.9545 26.0975 99.9801 25.9437 100.031 25.7899C100.083 25.6361 100.108 25.4567 100.159 25.3029C100.211 25.1492 100.262 24.9954 100.288 24.8416L100.621 23.8164C100.723 23.4833 100.826 23.2013 100.903 22.9963C100.98 22.7913 101.031 22.6375 101.057 22.5862L100.288 22.6631L99.8776 23.9446L99.775 23.919C99.8007 23.8164 99.8007 23.7396 99.8263 23.637C99.8519 23.5345 99.8519 23.4576 99.8519 23.3551C99.8519 23.0988 99.8007 22.9194 99.6982 22.7913C99.5956 22.6631 99.4419 22.5862 99.2112 22.5862C99.0062 22.5862 98.7755 22.6375 98.5448 22.7656C98.3142 22.8938 98.1092 23.0476 97.8785 23.227C97.6735 23.432 97.4684 23.637 97.2634 23.8933C97.0583 24.1496 96.9046 24.4059 96.7508 24.6622C96.597 24.9185 96.4945 25.2004 96.392 25.4567C96.3151 25.713 96.2638 25.9693 96.2638 26.1743C96.2638 26.4819 96.3407 26.7382 96.4689 26.9176C96.6227 27.1226 96.8021 27.2251 97.0583 27.2251C97.289 27.2251 97.5197 27.1739 97.7247 27.0457C97.9297 26.9176 98.1348 26.7638 98.3142 26.5588C98.4936 26.3537 98.673 26.1487 98.8011 25.9181C98.9549 25.6874 99.0831 25.4567 99.1856 25.2261C99.2881 25.021 99.3906 24.816 99.4419 24.6366C99.6213 24.4059 99.6469 24.2778 99.6725 24.2265ZM96.9815 25.8924C96.9815 25.9949 96.9815 26.0718 97.0071 26.1743C97.0327 26.2769 97.0583 26.3537 97.084 26.4306C97.1352 26.5075 97.1865 26.5844 97.2378 26.6357C97.289 26.6869 97.3659 26.7126 97.4684 26.7126C97.6991 26.7126 97.9297 26.61 98.1604 26.405C98.4167 26.2 98.6217 25.9437 98.8268 25.6361C99.0318 25.3286 99.2112 24.9954 99.3394 24.6622C99.4675 24.329 99.5444 24.0215 99.5444 23.7652C99.5444 23.5345 99.4931 23.3295 99.365 23.1501C99.2368 22.9707 99.0831 22.8938 98.8524 22.8938C98.673 22.8938 98.4936 22.9451 98.3398 23.0476C98.186 23.1501 98.0323 23.3039 97.8785 23.4833C97.7247 23.6627 97.5966 23.8421 97.494 24.0727C97.3659 24.3034 97.289 24.5084 97.1865 24.7391C97.1096 24.9698 97.0327 25.1748 97.0071 25.3798C97.0071 25.5849 96.9815 25.7643 96.9815 25.8924ZM105.08 24.2265C105.055 24.3034 105.003 24.4316 104.927 24.611C104.85 24.7904 104.773 24.9698 104.645 25.2004C104.542 25.4055 104.414 25.6361 104.26 25.8668C104.106 26.0975 103.953 26.3281 103.773 26.5075C103.594 26.7126 103.389 26.8663 103.184 26.9945C102.979 27.1226 102.748 27.1739 102.517 27.1739C102.261 27.1739 102.056 27.0714 101.902 26.8663C101.749 26.6613 101.672 26.4306 101.672 26.1231C101.672 25.8924 101.723 25.6618 101.8 25.4055C101.877 25.1492 102.005 24.8672 102.159 24.611C102.312 24.3547 102.466 24.0727 102.671 23.8421C102.876 23.5858 103.081 23.3808 103.286 23.1757C103.491 22.9707 103.722 22.8169 103.953 22.7144C104.183 22.5862 104.388 22.535 104.593 22.535C104.798 22.535 104.952 22.6119 105.055 22.7913C105.157 22.9707 105.208 23.1501 105.208 23.3807C105.208 23.4576 105.208 23.5345 105.183 23.637C105.183 23.7139 105.157 23.8164 105.157 23.8933H105.234L105.926 21.6892C106.029 21.3817 106.105 21.0741 106.182 20.8178C106.259 20.5359 106.285 20.3309 106.285 20.2027C106.285 20.1002 106.259 20.0233 106.208 19.9721C106.157 19.9208 106.105 19.8952 106.029 19.8695C105.952 19.8439 105.875 19.8183 105.798 19.8183C105.721 19.8183 105.644 19.8183 105.567 19.8183L105.619 19.6645L107.208 19.5364L105.413 25.1748C105.388 25.2773 105.337 25.4055 105.311 25.5336C105.285 25.6618 105.234 25.7899 105.208 25.9181C105.183 26.0462 105.157 26.1743 105.132 26.2769C105.106 26.3794 105.106 26.4819 105.106 26.5332C105.106 26.61 105.132 26.6613 105.157 26.6869C105.208 26.7382 105.234 26.7382 105.311 26.7382C105.439 26.7382 105.567 26.6869 105.747 26.5844C105.9 26.4819 106.08 26.3537 106.259 26.2C106.439 26.0462 106.618 25.8668 106.797 25.6618C106.977 25.4567 107.156 25.2773 107.31 25.0979C107.464 24.9185 107.592 24.7647 107.72 24.611C107.823 24.4572 107.925 24.3547 107.951 24.3034L107.874 24.5597C107.823 24.6366 107.72 24.7391 107.618 24.8929C107.489 25.0467 107.361 25.2261 107.182 25.4311C107.028 25.6361 106.823 25.8412 106.618 26.0462C106.413 26.2512 106.208 26.4306 106.003 26.61C105.798 26.7894 105.593 26.9176 105.388 27.0457C105.183 27.1483 105.003 27.1995 104.824 27.1995C104.67 27.1995 104.568 27.1483 104.491 27.0714C104.414 26.9945 104.388 26.8663 104.388 26.7638C104.388 26.6613 104.414 26.5588 104.44 26.4306C104.465 26.3025 104.491 26.2 104.516 26.0975L105.08 24.2778V24.2265ZM102.364 25.8924C102.364 25.7386 102.389 25.5592 102.44 25.3542C102.492 25.1492 102.569 24.9441 102.646 24.7135C102.722 24.4828 102.825 24.2778 102.953 24.0727C103.081 23.8677 103.209 23.6627 103.338 23.5089C103.491 23.3551 103.619 23.2013 103.773 23.0988C103.927 22.9963 104.081 22.9451 104.235 22.9451C104.465 22.9451 104.619 23.0219 104.747 23.2013C104.875 23.3808 104.927 23.5858 104.927 23.8164C104.927 23.9702 104.901 24.1496 104.824 24.3547C104.747 24.5597 104.67 24.7647 104.568 24.9698C104.465 25.1748 104.337 25.3798 104.183 25.5849C104.03 25.7899 103.901 25.9693 103.748 26.1231C103.594 26.2769 103.44 26.405 103.286 26.5075C103.132 26.61 102.979 26.6613 102.851 26.6613C102.748 26.6613 102.671 26.6357 102.62 26.5844C102.543 26.5331 102.492 26.4819 102.466 26.405C102.415 26.3281 102.389 26.2512 102.364 26.1487C102.364 26.0718 102.364 25.9693 102.364 25.8924ZM111.923 24.5853L112 24.329C111.898 24.4828 111.718 24.6878 111.513 24.9441C111.308 25.2004 111.052 25.4824 110.77 25.7386C110.488 25.9949 110.155 26.2512 109.796 26.4306C109.437 26.6357 109.078 26.7382 108.694 26.7382C108.386 26.7382 108.156 26.6613 108.002 26.5332C107.848 26.3794 107.746 26.1487 107.746 25.8155C107.746 25.6874 107.771 25.5336 107.797 25.4055C107.823 25.2773 107.848 25.1235 107.9 24.9954C108.105 25.0467 108.284 25.0723 108.489 25.0723C108.797 25.0723 109.078 25.021 109.335 24.8929C109.591 24.7647 109.847 24.611 110.027 24.4059C110.232 24.2009 110.386 23.9959 110.514 23.7908C110.642 23.5858 110.693 23.3808 110.693 23.1757C110.693 22.9451 110.642 22.7656 110.514 22.6631C110.386 22.5606 110.232 22.4837 110.052 22.4837C109.822 22.4837 109.591 22.535 109.36 22.6375C109.13 22.74 108.899 22.8938 108.668 23.0732C108.438 23.2526 108.233 23.4576 108.053 23.7139C107.848 23.9446 107.694 24.2009 107.541 24.4572C107.387 24.7135 107.284 24.9698 107.208 25.2261C107.131 25.4824 107.079 25.7386 107.079 25.9437C107.079 26.3281 107.182 26.61 107.387 26.8151C107.592 27.0201 107.9 27.1226 108.31 27.1226C108.617 27.1226 108.899 27.0714 109.181 26.9688C109.463 26.8663 109.719 26.7382 109.95 26.5844C110.181 26.4306 110.411 26.2512 110.616 26.0718C110.821 25.8668 111.001 25.6874 111.18 25.4824C111.334 25.2773 111.488 25.0979 111.616 24.9441C111.744 24.8416 111.846 24.7135 111.923 24.5853ZM109.694 22.74C109.822 22.74 109.924 22.7913 110.001 22.9194C110.078 23.0219 110.104 23.1501 110.104 23.3039C110.104 23.4833 110.078 23.6627 110.001 23.8677C109.95 24.0727 109.847 24.2265 109.745 24.3803C109.642 24.5341 109.514 24.6622 109.36 24.7647C109.207 24.8673 109.053 24.9185 108.899 24.9185C108.797 24.9185 108.694 24.9185 108.592 24.8929C108.489 24.8673 108.412 24.8416 108.335 24.816C108.258 24.7904 108.181 24.7391 108.13 24.7135C108.079 24.6878 108.028 24.6622 108.002 24.6366C108.028 24.5597 108.105 24.4059 108.207 24.2009C108.31 23.9959 108.438 23.7908 108.592 23.5858C108.745 23.3808 108.925 23.2013 109.104 23.0219C109.284 22.8169 109.489 22.74 109.694 22.74Z" fill="#B9B9B9" stroke="#B9B9B9" stroke-width="0.5669" stroke-miterlimit="22.9256"/>
</svg>
