<svg width="46" height="30" viewBox="0 0 46 30" fill="none" xmlns="http://www.w3.org/2000/svg">
<path d="M2.73465 8.79685C2.73465 8.89741 2.73465 8.9836 2.73465 9.08416C2.73465 13.4081 2.73465 17.7321 2.73465 22.0561C2.73465 22.1423 2.73465 22.2141 2.73465 22.3003C2.73465 22.7887 2.33242 23.3777 1.61415 23.3777C0.895882 23.3777 0.493652 22.7887 0.493652 22.3003C0.493652 22.2284 0.493652 22.171 0.493652 22.0992C0.493652 16.7409 0.493652 11.397 0.493652 6.03871C0.493652 5.88069 0.493653 5.72267 0.536749 5.56465C0.78096 4.77456 1.74344 4.50162 2.36115 5.0475C2.43297 5.11933 2.5048 5.19115 2.57663 5.27734C4.84635 7.61889 7.11607 9.97481 9.40016 12.3164C9.47199 12.3882 9.52945 12.4456 9.61564 12.5318C9.70184 12.4887 9.7593 12.4169 9.81676 12.3451C11.2389 10.8798 12.6467 9.41456 14.0689 7.9493C14.9596 7.04428 15.8358 6.1249 16.7265 5.21988C16.7839 5.16242 16.827 5.11933 16.8845 5.06186C17.5022 4.50162 18.4791 4.76019 18.7233 5.56465C18.752 5.66521 18.7664 5.76577 18.7664 5.88069C18.7807 5.98125 18.7664 6.09617 18.7664 6.19673C18.7664 10.1616 18.7664 14.1408 18.7664 18.1056C18.7664 18.2492 18.7664 18.3929 18.752 18.5366C18.6945 19.0681 18.2636 19.4703 17.7177 19.5134C17.1718 19.5565 16.7121 19.2117 16.5685 18.7233C16.5397 18.6227 16.5254 18.5078 16.511 18.3929C16.4966 18.3067 16.511 18.2349 16.511 18.1487C16.511 15.1176 16.511 12.0865 16.511 9.05543C16.511 8.95487 16.511 8.86868 16.4966 8.76812C16.4966 8.75376 16.4966 8.73939 16.4966 8.72503C16.4823 8.73939 16.4679 8.75376 16.4535 8.75376C16.3961 8.81122 16.3386 8.85431 16.2812 8.91178C14.3849 10.8655 12.4887 12.8191 10.5925 14.7728C10.535 14.8303 10.4919 14.8734 10.4345 14.9309C9.97478 15.3762 9.27088 15.3762 8.82555 14.9309C8.43769 14.543 8.06419 14.1551 7.69069 13.7673C6.1105 12.144 4.53031 10.5063 2.95013 8.88304C2.90703 8.83995 2.86393 8.81122 2.8352 8.76812C2.80647 8.75376 2.79211 8.73939 2.76338 8.71066C2.74901 8.76812 2.74901 8.78249 2.73465 8.79685Z" fill="#B9B9B9"/>
<path d="M37.9008 23.3921C37.4842 23.3633 37.1825 23.1622 36.9814 22.8031C36.9383 22.7313 36.9096 22.6594 36.8809 22.5876C34.6542 17.962 32.4276 13.3507 30.1866 8.72505C30.1435 8.63886 30.1148 8.56703 30.0717 8.48084C29.9855 8.50957 29.9711 8.59576 29.9424 8.65322C29.6407 9.2853 29.3247 9.91737 29.023 10.5494C27.0837 14.5717 25.1444 18.5797 23.205 22.602C23.1763 22.6738 23.1332 22.7456 23.1045 22.8174C22.8746 23.2197 22.4437 23.4495 21.984 23.3777C21.5243 23.3059 21.2083 23.0473 21.0502 22.602C20.9641 22.3434 20.9784 22.0848 21.079 21.8406C21.1077 21.7688 21.1364 21.7113 21.1652 21.6395C23.7653 16.2525 26.3654 10.8799 28.9655 5.49285C28.9799 5.46412 28.9943 5.43539 29.0086 5.40666C29.2672 4.74585 30.201 4.5591 30.7756 4.99006C30.9192 5.10498 31.0198 5.24864 31.0916 5.40666C31.4077 6.08183 31.7381 6.74263 32.0541 7.4178C34.3382 12.144 36.6079 16.8558 38.892 21.582C38.9782 21.7688 39.0787 21.9555 39.0931 22.171C39.05 22.2141 39.05 22.2716 39.0931 22.3147C39.0357 22.9036 38.6622 23.3059 38.0732 23.3777C38.0301 23.349 37.9726 23.349 37.9008 23.3921Z" fill="#B9B9B9"/>
<path d="M22.6162 2.24617C23.1477 1.88704 23.7223 1.59973 24.297 1.32679C25.3313 0.852736 26.4087 0.507968 27.5148 0.278123C28.075 0.1632 28.6353 0.077008 29.1955 0.0482773C29.3966 0.033912 29.5978 0.0195466 29.7989 0.0051813C29.8276 0.0482773 29.8707 0.033912 29.8994 0.0051813C30.5315 -0.00918404 31.178 0.00518124 31.81 0.0626426C33.9361 0.263757 35.9472 0.867102 37.8004 1.93014C40.0701 3.23738 41.8945 5.01868 43.2736 7.24531C44.2648 8.8686 44.9256 10.6068 45.2704 12.4743C45.3853 13.1351 45.4715 13.7959 45.4858 14.4711C45.5002 14.8446 45.5146 15.2324 45.5002 15.6059C45.4715 16.3386 45.414 17.0568 45.2847 17.7751C45.0118 19.4415 44.4659 21.036 43.6614 22.53C43.4747 22.8892 43.2592 23.2339 43.0437 23.5787C42.8713 23.866 42.5984 24.0384 42.2536 24.0959C41.7077 24.182 41.1044 23.7942 41.0326 23.1477C41.0038 22.8604 41.0757 22.5875 41.2481 22.3433C41.5928 21.8692 41.8945 21.3808 42.1674 20.8637C42.7564 19.7575 43.173 18.5939 43.446 17.3729C43.7189 16.1375 43.8051 14.8877 43.7333 13.6379C43.6471 12.1726 43.331 10.7505 42.7851 9.37138C42.0094 7.40333 40.8315 5.67949 39.2656 4.24296C37.3694 2.50475 35.1572 1.34116 32.6145 0.824006C31.8531 0.665987 31.0774 0.579795 30.3017 0.536699C30.0718 0.522334 29.8563 0.507968 29.6265 0.507968C27.8308 0.507968 26.107 0.838371 24.4406 1.48481C23.8804 1.70029 23.3201 1.95887 22.7886 2.24617C22.7599 2.26054 22.7168 2.2749 22.6737 2.30364C22.6593 2.28927 22.6449 2.26054 22.6162 2.24617Z" fill="#B9B9B9"/>
<path d="M38.1453 27.0407C37.6138 27.4573 37.0392 27.8164 36.4359 28.1469C34.9419 28.9657 33.3473 29.5116 31.6666 29.7989C31.1207 29.8851 30.5604 29.9569 30.0002 29.9713C29.6698 29.9856 29.3394 30 29.009 30C27.9603 29.9856 26.926 29.8707 25.9061 29.6408C23.9955 29.2099 22.2285 28.4485 20.5909 27.3568C20.5047 27.2993 20.4329 27.2562 20.3467 27.1844C19.6859 26.6672 19.8295 25.6329 20.6052 25.3169C20.9931 25.1589 21.3666 25.2163 21.697 25.4749C21.7976 25.5467 21.8838 25.6329 21.97 25.7047C23.78 27.2131 25.8342 28.2043 28.1614 28.664C28.8222 28.7933 29.483 28.8651 30.1582 28.9082C30.9339 28.9513 31.7097 28.9226 32.4854 28.8364C34.0081 28.664 35.459 28.2618 36.8524 27.601C37.2547 27.4142 37.6569 27.1844 38.0591 26.9833C38.1022 26.9976 38.131 27.012 38.1453 27.0407Z" fill="#B9B9B9"/>
<path d="M2.10269 28.4054C2.10269 28.7358 2.10269 29.0662 2.08832 29.3966C2.08832 29.411 2.07396 29.4254 2.05959 29.4397C2.0165 29.4397 1.9734 29.4397 1.91594 29.4397C1.87284 29.2673 1.90157 29.1093 1.88721 28.9369C1.88721 28.7789 1.88721 28.6209 1.88721 28.4485C1.88721 28.2761 1.88721 28.1181 1.88721 27.9314C1.95903 27.9314 2.0165 27.917 2.08832 27.917C2.26071 28.2187 2.43309 28.506 2.60547 28.7933C2.61984 28.8076 2.61984 28.8076 2.63421 28.822C2.64857 28.8076 2.64857 28.7933 2.66294 28.7789C2.82096 28.4916 2.99334 28.2043 3.15136 27.917C3.20882 27.917 3.26628 27.917 3.32374 27.917C3.35247 28.1037 3.36684 29.1955 3.32374 29.411C3.28065 29.4541 3.22318 29.4397 3.15136 29.3966C3.13699 29.2386 3.15136 29.0519 3.15136 28.8795C3.15136 28.7071 3.15136 28.5347 3.15136 28.3767C3.18009 28.348 3.19445 28.3192 3.15136 28.3049C3.13699 28.3049 3.10826 28.3192 3.0939 28.3336C3.07953 28.348 3.0939 28.3623 3.07953 28.3767C2.96461 28.5778 2.84969 28.7789 2.73476 28.9944C2.7204 29.0088 2.7204 29.0231 2.70603 29.0375C2.63421 29.138 2.56238 29.138 2.50492 29.0375C2.41873 28.8795 2.33253 28.7358 2.24634 28.5778C2.20324 28.506 2.16015 28.4485 2.11705 28.3767C2.11705 28.3623 2.10269 28.348 2.10269 28.3336C2.11705 28.3767 2.11705 28.391 2.10269 28.4054Z" fill="#B9B9B9"/>
<path d="M16.1804 28.1182C16.1373 28.1613 16.0942 28.2044 16.0655 28.2475C15.7064 28.0464 15.4478 28.0464 15.2323 28.2332C15.0456 28.4055 14.9881 28.7072 15.0887 28.9514C15.1892 29.1956 15.4191 29.3106 15.7064 29.2818C15.965 29.2531 16.0942 29.1238 16.1661 28.8509C16.0799 28.8221 15.9937 28.8365 15.9075 28.8365C15.8213 28.8365 15.7495 28.8365 15.6489 28.8365C15.6345 28.779 15.6345 28.7216 15.6345 28.6785C15.8213 28.6354 16.123 28.6354 16.3528 28.6641C16.4677 29.0663 16.123 29.4686 15.7207 29.4973C15.534 29.5117 15.3472 29.4829 15.1892 29.3824C14.8875 29.1813 14.7583 28.8221 14.8588 28.463C14.9306 28.2188 15.1749 27.9171 15.6058 27.9171C15.8213 27.9028 16.0224 27.9458 16.1804 28.1182Z" fill="#B9B9B9"/>
<path d="M3.42437 26.0496C3.42437 26.5093 3.06524 26.8397 2.61991 26.8397C2.17458 26.8397 1.82982 26.4662 1.84418 26.0208C1.85855 25.5468 2.24641 25.2451 2.63428 25.2451C3.00778 25.2308 3.43874 25.5324 3.42437 26.0496ZM3.22325 26.0065C3.22325 25.8772 3.18016 25.7335 3.0796 25.6186C2.92158 25.4319 2.64864 25.3744 2.4188 25.475C2.20332 25.5755 2.05966 25.791 2.07403 26.0639C2.10276 26.4805 2.46189 26.7248 2.83539 26.5955C3.06524 26.5236 3.22325 26.2938 3.22325 26.0065Z" fill="#B9B9B9"/>
<path d="M8.79661 25.2307C9.18447 25.202 9.5867 25.5324 9.5867 26.0208C9.5867 26.4805 9.24193 26.8253 8.79661 26.8253C8.30819 26.8253 8.02088 26.4374 8.02088 26.0352C8.00652 25.5468 8.40874 25.2164 8.79661 25.2307ZM9.38559 26.0496C9.38559 25.791 9.28503 25.6042 9.06955 25.5037C8.8828 25.4031 8.68169 25.4175 8.49494 25.5324C8.15017 25.7623 8.1358 26.3081 8.48057 26.5524C8.66732 26.6816 8.86844 26.696 9.08392 26.5811C9.28503 26.4518 9.38559 26.265 9.38559 26.0496Z" fill="#B9B9B9"/>
<path d="M8.69623 28.4054C8.69623 28.7502 8.69623 29.0806 8.69623 29.4397C8.62441 29.4541 8.58131 29.4541 8.53821 29.4685C8.52385 29.4397 8.50948 29.4254 8.50948 29.4254C8.49512 28.937 8.50948 28.4629 8.49512 27.9745C8.58131 27.9458 8.65314 27.9458 8.73933 27.9601C8.96918 28.3049 9.18465 28.6784 9.42886 29.0375C9.50069 29.0232 9.47196 28.9657 9.47196 28.937C9.47196 28.664 9.47196 28.4054 9.47196 28.1325C9.47196 28.075 9.47196 28.0176 9.48633 27.9601C9.54379 27.9601 9.60125 27.9601 9.65871 27.9601C9.67308 27.9889 9.67308 28.0176 9.67308 28.0319C9.67308 28.4773 9.67308 28.937 9.67308 29.3823C9.67308 29.411 9.65871 29.4254 9.65871 29.4541C9.54379 29.5116 9.4576 29.4685 9.40013 29.3536C9.24212 29.095 9.0841 28.8508 8.92608 28.5922C8.88298 28.5347 8.83989 28.4773 8.79679 28.4198C8.76806 28.3767 8.75369 28.3336 8.69623 28.2331C8.69623 28.3193 8.69623 28.3623 8.69623 28.4054Z" fill="#B9B9B9"/>
<path d="M14.5717 28.6928C14.586 29.1238 14.2413 29.4973 13.7816 29.4973C13.3219 29.4973 13.0059 29.1094 13.0059 28.7072C13.0059 28.2475 13.3506 27.9171 13.796 27.9027C14.2556 27.8884 14.6004 28.2906 14.5717 28.6928ZM14.3706 28.6784C14.3706 28.4055 14.1982 28.1757 13.954 28.1182C13.6954 28.0464 13.4368 28.1469 13.2932 28.3624C13.1639 28.5779 13.1639 28.8077 13.2932 29.0232C13.3794 29.1669 13.5086 29.2531 13.681 29.2818C14.0833 29.3393 14.3706 29.0663 14.3706 28.6784Z" fill="#B9B9B9"/>
<path d="M11.5838 28.6929C11.5838 29.1669 11.2103 29.4973 10.7794 29.483C10.3628 29.4686 10.0036 29.1382 10.018 28.6785C10.018 28.2476 10.3628 27.8884 10.8225 27.8884C11.2103 27.9028 11.5838 28.2188 11.5838 28.6929ZM11.3683 28.6929C11.3827 28.3625 11.0954 28.0321 10.6788 28.1039C10.4202 28.147 10.2335 28.3625 10.2191 28.6498C10.2047 28.9515 10.3484 29.1526 10.5782 29.2531C10.8225 29.3537 11.0954 29.2675 11.2534 29.0664C11.3396 28.9515 11.3683 28.8222 11.3683 28.6929Z" fill="#B9B9B9"/>
<path d="M7.23078 26.897C7.25951 26.9114 7.28824 26.9257 7.31697 26.9401C7.40316 27.0407 7.40316 27.1556 7.30261 27.2418C7.21641 27.3136 7.08712 27.3136 7.00093 27.213C6.98657 27.1987 6.9722 27.1556 6.98657 27.1556C7.00093 27.1412 7.04403 27.1125 7.07276 27.1269C7.10149 27.1269 7.13022 27.1556 7.15895 27.1699C7.20205 27.1843 7.24514 27.1412 7.23078 27.0981C7.23078 27.0694 7.20205 27.0407 7.18768 27.0263C7.18768 27.0263 7.17332 27.0119 7.15895 27.0119C7.10149 27.0263 7.04403 27.055 7.0153 26.9832C7.00093 26.9401 7.0153 26.897 7.0153 26.8395C6.5987 26.7246 6.35449 26.466 6.35449 26.0064C6.35449 25.676 6.55561 25.3886 6.87165 25.2881C7.17332 25.1732 7.47499 25.245 7.69047 25.4892C7.66174 25.5323 7.61864 25.561 7.57555 25.6185C7.44626 25.5179 7.33134 25.4317 7.15895 25.4317C7.05839 25.4317 6.95784 25.4317 6.87165 25.4892C6.79982 25.5323 6.72799 25.5898 6.67053 25.6616C6.48378 25.8914 6.51251 26.2506 6.71363 26.466C6.94347 26.7103 7.24514 26.6959 7.58991 26.4373C7.63301 26.4804 7.6761 26.5235 7.7192 26.5666C7.57555 26.7534 7.3888 26.8108 7.18768 26.8539C7.17332 26.8683 7.13022 26.8826 7.13022 26.8826C7.17332 26.9114 7.20205 26.897 7.23078 26.897Z" fill="#B9B9B9"/>
<path d="M0.709288 26.3512C0.766749 26.4374 0.809845 26.4949 0.852941 26.5523C0.967864 26.6673 1.12588 26.6816 1.25517 26.5954C1.39882 26.5092 1.41319 26.3225 1.29827 26.2219C1.24081 26.1788 1.16898 26.1501 1.11152 26.1214C1.02533 26.0783 0.924769 26.0496 0.838577 26.0065C0.651828 25.9203 0.565635 25.7479 0.594366 25.5755C0.623097 25.4031 0.781115 25.2738 0.967865 25.2451C1.16898 25.2164 1.35573 25.2738 1.48502 25.4462C1.54248 25.518 1.52811 25.5611 1.42756 25.6042C1.41319 25.6042 1.39883 25.6042 1.37009 25.6186C1.327 25.5755 1.2839 25.5324 1.24081 25.4893C1.12588 25.4175 0.9535 25.4318 0.867308 25.518C0.795481 25.5899 0.79548 25.7048 0.881672 25.7766C0.939133 25.8197 1.02533 25.8484 1.09715 25.8915C1.19771 25.9346 1.29827 25.9634 1.38446 26.0208C1.54248 26.107 1.6143 26.2507 1.59994 26.423C1.59994 26.5667 1.52811 26.6816 1.39882 26.7678C1.24081 26.8684 1.06842 26.8827 0.881672 26.8109C0.709288 26.7535 0.608731 26.6242 0.55127 26.4374C0.594366 26.3943 0.651827 26.3656 0.709288 26.3512Z" fill="#B9B9B9"/>
<path d="M12.1009 25.5467C12.0434 25.5754 12.0003 25.5898 11.9572 25.6185C11.9285 25.6041 11.9141 25.5898 11.8998 25.5754C11.8279 25.4605 11.713 25.4174 11.5837 25.4461C11.5406 25.4605 11.4975 25.4749 11.4544 25.5036C11.3539 25.5754 11.3539 25.7191 11.4544 25.7909C11.5263 25.834 11.5981 25.8627 11.6699 25.8914C11.7705 25.9345 11.871 25.9633 11.9572 26.0207C12.1152 26.1213 12.1727 26.2649 12.1583 26.4517C12.1296 26.6384 12.0147 26.739 11.8567 26.7965C11.713 26.8539 11.555 26.8396 11.4113 26.7677C11.2677 26.6959 11.1671 26.581 11.124 26.4086C11.1815 26.3799 11.2246 26.3655 11.282 26.3224C11.3251 26.3799 11.3682 26.4517 11.4113 26.4948C11.5119 26.6097 11.6555 26.6384 11.7848 26.581C11.871 26.5523 11.9428 26.4948 11.9428 26.3942C11.9572 26.2937 11.9141 26.2219 11.8279 26.1644C11.7705 26.1213 11.6986 26.1069 11.6268 26.0782C11.5406 26.0495 11.4544 26.0207 11.3826 25.9776C11.2246 25.8914 11.1384 25.7622 11.1528 25.5898C11.1671 25.4174 11.2677 25.3168 11.4257 25.2594C11.555 25.2163 11.6843 25.2163 11.7992 25.2594C11.9428 25.3168 12.0434 25.3887 12.1009 25.5467Z" fill="#B9B9B9"/>
<path d="M18.5941 29.4397C18.5222 29.4397 18.4648 29.4397 18.393 29.4397C18.3355 29.3104 18.2924 29.1811 18.2349 29.0375C18.0338 29.0375 17.8327 29.0375 17.6172 29.0375C17.5598 29.1668 17.5167 29.2961 17.4592 29.4254C17.4017 29.4254 17.3443 29.4254 17.2725 29.4397C17.2725 29.3966 17.2725 29.3823 17.2725 29.3535C17.4448 28.8938 17.6029 28.4485 17.7752 28.0032C17.7896 27.9745 17.804 27.9457 17.8327 27.917C17.8902 27.917 17.962 27.917 18.0051 27.917C18.0626 27.9745 18.4935 29.0949 18.5941 29.4397ZM17.9045 28.2474C17.8183 28.4341 17.7465 28.6209 17.7034 28.8364C17.8614 28.8507 18.0051 28.8651 18.1487 28.8364C18.1057 28.6353 18.0195 28.4485 17.9476 28.2618C17.9333 28.2474 17.9333 28.233 17.9189 28.2187C17.9189 28.2187 17.9189 28.233 17.9045 28.2474Z" fill="#B9B9B9"/>
<path d="M8.02112 29.0806C8.06422 29.1237 8.09295 29.1524 8.13605 29.1955C8.04985 29.3679 7.89184 29.4253 7.73382 29.4684C7.50397 29.5115 7.28849 29.4972 7.08738 29.3679C6.69951 29.1093 6.62769 28.5491 6.91499 28.1899C7.2023 27.8308 7.71945 27.8021 8.06422 28.1325C8.06422 28.2043 8.00676 28.233 7.93493 28.2761C7.80564 28.1468 7.63326 28.075 7.43215 28.1037C7.28849 28.1181 7.17357 28.1899 7.07301 28.2905C6.8719 28.5203 6.88626 28.8938 7.08738 29.1093C7.33159 29.3535 7.64763 29.3392 8.02112 29.0806Z" fill="#B9B9B9"/>
<path d="M6.0241 25.2883C6.0241 25.6331 6.03846 25.9778 6.0241 26.3082C6.00973 26.6099 5.80862 26.7967 5.52131 26.8254C5.26274 26.8397 5.01853 26.7248 4.93233 26.3944C4.91797 26.3513 4.91797 26.2939 4.91797 26.2508C4.91797 25.9491 4.91797 25.6474 4.91797 25.3601C4.91797 25.3314 4.93233 25.317 4.93233 25.2739C4.9898 25.2739 5.03289 25.2739 5.10472 25.2739C5.10472 25.3458 5.11908 25.4176 5.11908 25.475C5.11908 25.7049 5.11908 25.9491 5.11908 26.1789C5.11908 26.2508 5.13345 26.3226 5.14782 26.3944C5.20528 26.5524 5.33456 26.6386 5.49258 26.6386C5.66497 26.6243 5.79425 26.5237 5.82299 26.3513C5.83735 26.2939 5.83735 26.222 5.83735 26.1646C5.83735 25.9347 5.83735 25.7193 5.83735 25.4894C5.83735 25.4319 5.83735 25.3745 5.83735 25.3458C5.89481 25.2596 5.95227 25.2739 6.0241 25.2883Z" fill="#B9B9B9"/>
<path d="M1.45635 28.6067C1.45635 28.6785 1.45635 28.7072 1.45635 28.7647C1.25523 28.8221 1.05412 28.7647 0.853005 28.8078C0.853005 28.8796 0.838641 28.9514 0.838641 29.0233C0.838641 29.0951 0.838641 29.1669 0.838641 29.2531C1.06849 29.3106 1.28397 29.2531 1.49945 29.2818C1.54254 29.3393 1.54254 29.3824 1.49945 29.4399C1.29833 29.4686 0.853006 29.4686 0.666256 29.4399C0.637526 29.2675 0.623161 28.2763 0.651891 27.9746C0.80991 27.9315 1.11158 27.9171 1.48508 27.9459C1.52818 27.989 1.52818 28.0464 1.51381 28.1039C1.29833 28.147 1.08285 28.1039 0.853005 28.1326C0.824274 28.2763 0.838641 28.4199 0.838641 28.5779C0.896102 28.5923 0.953562 28.5923 0.996658 28.5923C1.14031 28.6067 1.28396 28.5923 1.45635 28.6067Z" fill="#B9B9B9"/>
<path d="M5.79427 28.1181C5.7799 28.2905 5.7799 28.4341 5.79427 28.5921C5.99538 28.6209 6.1965 28.5921 6.36888 28.6065C6.42634 28.664 6.41198 28.7071 6.38324 28.7789C6.1965 28.7789 6.00975 28.7932 5.80863 28.7932C5.76554 28.9369 5.79427 29.0806 5.7799 29.2386C5.83736 29.2529 5.88046 29.2673 5.92355 29.2673C6.05284 29.2673 6.18213 29.2673 6.31142 29.2673C6.35451 29.2673 6.41198 29.2817 6.45507 29.2817C6.45507 29.3391 6.45507 29.3822 6.45507 29.4253C6.28269 29.4684 5.85173 29.4684 5.59315 29.4397C5.56442 29.3248 5.57879 29.1955 5.57879 29.0662C5.57879 28.9513 5.57879 28.822 5.57879 28.7071C5.57879 28.5778 5.57879 28.4485 5.57879 28.3192C5.57879 28.2043 5.56442 28.075 5.59315 27.9601C5.79427 27.917 6.22523 27.917 6.44071 27.9601C6.44071 27.9744 6.45507 27.9888 6.45507 28.0032C6.45507 28.0319 6.45507 28.0606 6.45507 28.1037C6.42634 28.1181 6.41198 28.1324 6.39761 28.1324C6.21086 28.1181 6.00975 28.1181 5.79427 28.1181Z" fill="#B9B9B9"/>
<path d="M10.7648 26.1213C10.5493 26.1213 10.3626 26.1357 10.1471 26.1357C10.1184 26.2937 10.1327 26.4374 10.1471 26.581C10.3626 26.6385 10.578 26.581 10.7935 26.6098C10.8366 26.6672 10.8366 26.7103 10.8079 26.7678C10.6355 26.7965 10.2189 26.7965 9.96034 26.7678C9.93161 26.6529 9.94597 26.5236 9.94597 26.3943C9.94597 26.2794 9.94597 26.1501 9.94597 26.0351C9.94597 25.9059 9.94597 25.7766 9.94597 25.6473C9.94597 25.5324 9.93161 25.4031 9.96034 25.2881C10.1615 25.2594 10.6068 25.2594 10.8223 25.2881C10.8223 25.3312 10.8223 25.3743 10.8366 25.4318C10.6211 25.4893 10.4057 25.4318 10.1902 25.4605C10.1327 25.5324 10.1615 25.6042 10.1615 25.676C10.1615 25.7478 10.1615 25.8197 10.1615 25.9059C10.2189 25.9202 10.262 25.9346 10.3051 25.9346C10.4631 25.9346 10.6068 25.9346 10.7792 25.949C10.7504 26.0064 10.7648 26.0495 10.7648 26.1213Z" fill="#B9B9B9"/>
<path d="M4.61638 28.1181C4.47273 28.1181 4.34344 28.1181 4.22852 28.1181C4.22852 28.0607 4.22852 28.0176 4.22852 27.9601C4.38653 27.917 4.55892 27.9458 4.7313 27.9314C4.90369 27.9314 5.06171 27.9314 5.24846 27.9314C5.24846 27.9889 5.24845 28.0463 5.26282 28.1181C5.13353 28.1181 5.00424 28.1181 4.87496 28.1181C4.86059 28.19 4.84623 28.2331 4.84623 28.2905C4.84623 28.6066 4.84623 28.9226 4.84623 29.2386C4.84623 29.2961 4.84622 29.3536 4.83186 29.411C4.81749 29.4541 4.78876 29.4685 4.74567 29.4685C4.70257 29.4685 4.65948 29.4541 4.65948 29.411C4.64511 29.3679 4.64511 29.3105 4.64511 29.2674C4.64511 28.9657 4.64511 28.6784 4.64511 28.3767C4.63075 28.2905 4.61638 28.2187 4.61638 28.1181Z" fill="#B9B9B9"/>
<path d="M3.98441 26.5954C4.21426 26.5954 4.40101 26.5954 4.61649 26.5954C4.63085 26.6529 4.63085 26.7103 4.63085 26.7534C4.60212 26.7678 4.58776 26.7821 4.58776 26.7821C4.32918 26.7965 4.0706 26.7821 3.82639 26.7821C3.7833 26.581 3.76893 25.7622 3.79766 25.2881C3.88385 25.2594 3.88385 25.2594 3.98441 25.2881C3.98441 25.7191 3.98441 26.1501 3.98441 26.5954Z" fill="#B9B9B9"/>
<path d="M11.9571 29.4542C11.9284 29.1812 11.9284 28.1326 11.9571 27.9458C12.0002 27.9171 12.0577 27.9171 12.1295 27.9602C12.1582 28.3768 12.1295 28.8077 12.1438 29.2531C12.3593 29.2674 12.5604 29.253 12.7472 29.2674C12.7903 29.3249 12.7903 29.3823 12.7472 29.4398C12.7185 29.4398 12.6754 29.4542 12.6323 29.4542C12.4168 29.4542 12.1869 29.4542 11.9571 29.4542Z" fill="#B9B9B9"/>
<path d="M16.9131 29.4398C16.8556 29.4398 16.8125 29.4398 16.7551 29.4398C16.7407 29.4111 16.7407 29.3823 16.7407 29.3536C16.7407 28.9514 16.7407 28.5635 16.7407 28.1613C16.7407 28.0895 16.7407 28.0176 16.7551 27.9602C16.8125 27.9171 16.87 27.9171 16.9131 27.9458C16.9418 28.1182 16.9418 29.1094 16.9131 29.4398Z" fill="#B9B9B9"/>
<path d="M9.17053 24.9003C9.08434 25.1733 9.01251 25.1876 8.69647 25.0584C8.68211 25.0584 8.65338 25.0727 8.63901 25.0871C8.55282 25.1302 8.48099 25.1302 8.46663 25.0871C8.45226 25.0296 8.48099 24.9722 8.52409 24.9434C8.59592 24.8716 8.66774 24.8429 8.7683 24.886C8.82576 24.9147 8.86886 24.9291 8.94068 24.9578C8.96941 24.9434 8.99814 24.9147 9.04124 24.9003C9.05561 24.9003 9.0987 24.9003 9.17053 24.9003Z" fill="#B9B9B9"/>
<path d="M38.1454 27.0406C38.131 27.0263 38.1023 26.9976 38.0879 26.9832C38.2172 26.897 38.3608 26.8108 38.4901 26.7246C38.5045 26.739 38.5189 26.7533 38.5189 26.7533C38.4039 26.8683 38.289 26.9688 38.1454 27.0406Z" fill="#B9B9B9"/>
<path d="M38.4756 26.7248C38.5187 26.6674 38.5761 26.6243 38.6623 26.6243C38.6336 26.7248 38.5761 26.7392 38.5043 26.7679C38.5043 26.7536 38.49 26.7392 38.4756 26.7248Z" fill="#B9B9B9"/>
<path d="M37.9009 23.392C37.9583 23.3345 38.0302 23.3345 38.0876 23.392C38.0302 23.392 37.9727 23.392 37.9009 23.392Z" fill="#B9B9B9"/>
<path d="M39.1075 22.329C39.0644 22.2859 39.0644 22.2284 39.1075 22.1853C39.1075 22.2428 39.1075 22.2859 39.1075 22.329Z" fill="#B9B9B9"/>
<path d="M3.1084 28.4056C3.1084 28.3912 3.1084 28.3625 3.12276 28.3625C3.13713 28.3481 3.16586 28.3337 3.18023 28.3337C3.22332 28.3481 3.20896 28.3768 3.18023 28.4056C3.15149 28.4056 3.13713 28.4056 3.1084 28.4056Z" fill="#B9B9B9"/>
<path d="M2.10254 28.4054C2.10254 28.391 2.11691 28.3767 2.11691 28.3623C2.11691 28.3767 2.13127 28.391 2.13127 28.4054L2.11691 28.4198L2.10254 28.4054Z" fill="#B9B9B9"/>
<path d="M2.67709 28.7932C2.66272 28.8076 2.66272 28.8219 2.64836 28.8363C2.63399 28.8219 2.63399 28.8219 2.61963 28.8076C2.63399 28.7932 2.66272 28.7932 2.67709 28.7932Z" fill="#B9B9B9"/>
<path d="M18.7519 22.2716C18.7663 22.8893 18.2492 23.4064 17.6314 23.3921C16.9419 23.3921 16.4966 22.8175 16.4966 22.2429C16.4966 21.7401 16.8844 21.1224 17.6314 21.1367C18.3066 21.1367 18.7663 21.6826 18.7519 22.2716Z" fill="#B9B9B9"/>
<path d="M22.6161 2.24609C22.6448 2.27482 22.6592 2.28919 22.6879 2.31792C22.6736 2.33229 22.6736 2.34665 22.6592 2.36102C22.3719 2.5334 22.0846 2.70578 21.8117 2.8638C21.7973 2.84944 21.7829 2.83507 21.7686 2.82071C22.0271 2.60523 22.3001 2.38975 22.6161 2.24609Z" fill="#B9B9B9"/>
<path d="M21.7973 2.84949C21.6968 2.92132 21.5962 3.00751 21.4957 3.07934C21.4813 3.0937 21.4526 3.0937 21.4238 3.0937C21.4813 2.97878 21.5675 2.90695 21.7542 2.8064C21.7686 2.82076 21.783 2.83513 21.7973 2.84949Z" fill="#B9B9B9"/>
<path d="M2.73486 8.79672C2.73486 8.78235 2.74923 8.75362 2.74923 8.73926C2.77796 8.75362 2.79232 8.76799 2.82105 8.79672C2.79232 8.79672 2.76359 8.79672 2.73486 8.79672Z" fill="#B9B9B9"/>
<path d="M21.2658 3.20874C21.2658 3.20874 21.2658 3.22311 21.2515 3.22311C21.2515 3.22311 21.2515 3.22311 21.2658 3.20874Z" fill="#B9B9B9"/>
<path d="M21.2661 3.22303C21.2805 3.20866 21.2948 3.1943 21.3092 3.17993C21.2948 3.17993 21.2805 3.1943 21.2661 3.22303Z" fill="#B9B9B9"/>
<path d="M21.3091 3.16569C21.3234 3.15133 21.3234 3.15133 21.3378 3.13696V3.15133C21.3234 3.16569 21.3091 3.16569 21.3091 3.16569Z" fill="#B9B9B9"/>
<path d="M16.439 8.78239C16.4533 8.76803 16.4677 8.75366 16.4821 8.75366C16.4821 8.76803 16.4821 8.78239 16.4821 8.79676C16.4821 8.79676 16.4533 8.79676 16.439 8.78239Z" fill="#B9B9B9"/>
</svg>
