<svg width="108" height="30" viewBox="0 0 108 30" fill="none" xmlns="http://www.w3.org/2000/svg">
<path d="M11.6582 1.61906C12.0383 5.42027 12.3867 9.1898 12.7668 12.9593C12.7985 12.9593 12.8302 12.9593 12.8302 12.9593C13.4637 11.6606 14.1289 10.3935 14.7625 9.09477C15.9662 6.68734 17.1382 4.2799 18.3419 1.87247C18.4053 1.74577 18.5637 1.61906 18.6904 1.61906C20.1158 1.58738 21.573 1.61906 23.0618 1.61906C23.0301 1.93583 22.9667 2.25259 22.9667 2.56936C22.9351 4.05817 22.9034 5.57865 22.8717 7.06746C22.84 7.92273 22.8084 8.778 22.8084 9.63327C22.7767 10.4885 22.745 11.3121 22.745 12.1674C22.7133 13.0227 22.6817 13.878 22.6817 14.7332C22.65 15.5885 22.65 16.4754 22.6183 17.3307C22.5866 17.9959 22.555 18.6928 22.5233 19.3897C21.1295 19.3897 19.704 19.3897 18.2152 19.3897C18.2469 18.9462 18.2786 18.4711 18.3103 17.9959C18.3103 17.9326 18.3103 17.8692 18.3103 17.8059C18.3419 17.014 18.3419 16.222 18.3736 15.4301C18.4053 14.4481 18.4687 13.4662 18.532 12.5159C18.5954 11.5656 18.627 10.6469 18.6904 9.69663C18.7221 9.31651 18.7537 8.93638 18.7854 8.55626C18.7537 8.55626 18.6904 8.52459 18.6587 8.52459C16.8848 12.1041 15.1743 15.7469 13.432 19.358C12.165 19.358 10.8979 19.358 9.56749 19.358C9.18737 15.7152 8.83892 12.0724 8.4588 8.42956C8.42713 8.42956 8.36377 8.42956 8.33209 8.42956C8.01533 9.47489 7.69856 10.5202 7.38179 11.5656C6.6849 13.878 5.98802 16.1904 5.25945 18.4711C5.16442 18.7562 5.16442 19.168 4.97436 19.3264C4.7843 19.4847 4.40418 19.3897 4.08741 19.3897C3.0104 19.3897 1.93339 19.3897 0.824707 19.3897C1.17315 18.3761 1.48992 17.3624 1.83836 16.3804C2.21848 15.3034 2.5986 14.2581 2.97872 13.1811C3.80232 10.837 4.59424 8.49291 5.41783 6.14883C5.92466 4.72338 6.43149 3.3296 6.93832 1.93583C6.96999 1.80912 7.16005 1.65074 7.25508 1.65074C8.74389 1.61906 10.201 1.61906 11.6582 1.61906Z" fill="#B9B9B9"/>
<path d="M83.7862 13.2757C84.6415 15.303 85.4968 17.3303 86.352 19.3576C84.7682 19.3576 83.2477 19.3576 81.7272 19.3576C81.0304 17.3937 80.3018 15.4614 79.6049 13.4974C79.5732 13.4974 79.5099 13.4974 79.4782 13.4974C79.0981 15.4297 78.7179 17.3937 78.3378 19.3259C77.0391 19.3259 75.7403 19.3259 74.4099 19.3259C75.3285 14.4794 76.2472 9.63285 77.1658 4.78631C77.736 4.75464 78.3062 4.72296 78.8763 4.69128C80.3018 4.65961 81.6956 4.62793 83.121 4.65961C84.3247 4.69128 85.4968 4.84967 86.5421 5.51488C87.3974 6.08506 87.8092 6.94033 87.8725 7.95399C87.9359 9.09435 87.7141 10.1714 87.0172 11.1217C86.4154 11.9453 85.6552 12.5471 84.6732 12.8956C84.3881 13.0223 84.103 13.149 83.7862 13.2757ZM79.89 11.4067C80.4285 11.4067 80.872 11.4701 81.3154 11.4067C81.6956 11.3434 82.1074 11.2167 82.4558 11.0266C83.1527 10.6465 83.4695 9.9813 83.5645 9.22106C83.5962 8.7459 83.4378 8.2074 82.8993 7.95399C82.139 7.60554 81.3788 7.70057 80.5552 7.6689C80.3651 8.90429 80.1434 10.108 79.89 11.4067Z" fill="#B9B9B9"/>
<path d="M40.4521 13.4342C40.2303 14.638 39.9769 15.8734 39.7552 17.0771C39.6285 17.7423 39.5018 18.4392 39.3751 19.1044C39.3434 19.1994 39.2167 19.3578 39.1216 19.3578C37.8863 19.3895 36.6825 19.3578 35.3838 19.3578C35.4471 18.946 35.5105 18.5659 35.5739 18.1541C35.7956 17.0137 36.0173 15.905 36.2391 14.7647C36.4608 13.6243 36.6825 12.4839 36.9043 11.3119C37.126 10.1399 37.3161 8.96782 37.5378 7.76411C37.6962 6.81381 37.8863 5.8635 38.0763 4.94488C38.0763 4.88153 38.203 4.78649 38.2664 4.75482C38.5198 4.72314 38.8049 4.69146 39.09 4.65979C40.7688 4.62811 42.4794 4.59643 44.1582 4.62811C45.2036 4.62811 46.2172 4.81817 47.1675 5.29332C48.0545 5.7368 48.6247 6.43369 48.783 7.41566C49.0365 9.12621 48.6247 10.6467 47.3259 11.8504C46.6607 12.4523 45.9005 12.8641 45.0135 13.0858C44.9185 13.1175 44.8551 13.1492 44.7601 13.1808C45.6154 15.2081 46.4707 17.2355 47.3259 19.2944C45.8371 19.2944 44.3483 19.2944 42.8595 19.2944C42.7645 19.2944 42.6378 19.1677 42.6061 19.1044C42.1626 17.9007 41.7508 16.6969 41.3073 15.4932C41.0539 14.7963 40.7688 14.0995 40.5154 13.3709C40.5154 13.4342 40.4837 13.4342 40.4521 13.4342ZM40.8639 11.4069C41.3073 11.4069 41.6875 11.4069 42.0676 11.4069C43.1129 11.4386 44.2216 10.8051 44.5384 9.56968C44.7284 8.87279 44.3483 7.98585 43.7148 7.85914C43.1129 7.73243 42.4477 7.73243 41.8458 7.70076C41.6875 7.70076 41.5608 7.73243 41.5291 7.95417C41.4974 8.30261 41.4024 8.61938 41.339 8.96782C41.1806 9.75974 41.0222 10.5517 40.8639 11.4069Z" fill="#B9B9B9"/>
<path d="M65.8888 4.78638C65.6037 6.24351 65.3503 7.66896 65.0652 9.09441C64.7801 10.5199 64.495 11.9453 64.2416 13.3708C64.1149 14.1627 64.0199 14.9863 64.5901 15.6832C64.8752 16.0316 65.2236 16.285 65.6354 16.3167C66.2689 16.3484 66.9342 16.3484 67.5677 16.2534C68.613 16.095 69.2782 15.3664 69.595 14.4161C69.9434 13.4024 70.1335 12.3254 70.3869 11.2484C70.672 9.98136 70.8937 8.71429 71.1472 7.44722C71.3055 6.68698 71.4006 5.95842 71.5273 5.19817C71.559 5.07147 71.5906 4.94476 71.6223 4.78638C72.8894 4.78638 74.1881 4.78638 75.4869 4.78638C75.3918 5.2932 75.3285 5.76836 75.2335 6.24351C75.0434 7.25716 74.8217 8.27082 74.6316 9.28447C74.4415 10.2981 74.2515 11.3435 74.0297 12.3571C73.8397 13.2757 73.6813 14.1944 73.3962 15.113C72.9527 16.6335 71.9391 17.7422 70.577 18.5341C69.5 19.1676 68.3279 19.5477 67.0609 19.5794C66.3323 19.6111 65.6354 19.6744 64.9068 19.6428C63.7348 19.5794 62.5944 19.3577 61.6441 18.6608C60.8205 18.0589 60.282 17.267 60.092 16.19C59.9019 15.0496 60.187 13.9726 60.3771 12.8956C60.5988 11.7553 60.7889 10.6466 61.0106 9.50621C61.264 8.23914 61.5174 7.00375 61.7392 5.73668C61.7708 5.54662 61.8342 5.38823 61.8342 5.19817C61.8025 4.81805 61.9926 4.78638 62.3093 4.78638C63.5131 4.78638 64.6851 4.78638 65.8888 4.78638Z" fill="#B9B9B9"/>
<path d="M99.5926 0.00326199C103.616 -0.123445 107.417 3.45603 107.163 8.14418C106.973 11.882 103.742 15.5565 99.1491 15.4298C95.0628 15.3348 92.0852 11.9771 91.7368 8.65101C91.4834 6.05352 92.2436 3.83615 94.1125 2.09393C95.5697 0.731827 97.2802 -0.0284147 99.5926 0.00326199ZM95.8548 10.4566C95.8864 10.5199 95.9181 10.5833 95.9498 10.615C95.9815 10.615 95.9815 10.5833 96.0131 10.5833C95.9815 10.5199 95.9498 10.4566 95.9181 10.3932C95.7914 9.60131 95.6647 8.80939 95.538 8.01748C95.2529 8.87275 95.4746 9.69634 95.8548 10.4566ZM96.8684 9.47461C97.1218 9.50628 97.3119 9.56964 97.502 9.53796C98.0405 9.44293 98.5156 9.66467 99.0541 9.69634C99.0541 9.69634 99.0541 9.72802 99.0858 9.79137C98.3256 9.82305 97.5653 9.8864 96.8051 9.91808C96.8051 9.98143 96.8051 10.0131 96.8051 10.0765C97.1535 10.1081 97.502 10.2032 97.8504 10.2032C98.3572 10.2348 98.3889 10.2348 98.3572 10.7417C98.1355 10.71 97.8821 10.6783 97.6603 10.6783C97.3752 10.6783 96.8367 11.1535 96.9001 11.4069C96.9635 11.5969 97.2169 11.787 97.4069 11.9454C97.4703 12.0087 97.597 11.9771 97.692 11.9771C98.3889 11.9454 99.0858 11.9137 99.751 11.882C100.226 11.8504 100.638 11.6603 100.955 11.3119C101.176 11.0584 101.398 10.805 101.683 10.4883C101.652 10.7417 101.652 10.9317 101.557 11.0584C101.335 11.4386 101.113 11.9771 100.765 12.0721C99.8144 12.3572 99.1491 12.864 98.769 13.8143C98.3256 13.5926 97.9138 13.4025 97.5336 13.1174C97.3119 12.959 97.1535 13.0224 96.9951 13.1491C96.7417 13.3708 96.52 13.6559 96.1715 14.0044C96.71 14.2261 97.1852 14.4162 97.6603 14.6062C98.5156 14.923 99.4342 14.828 100.321 14.828C100.796 14.828 101.303 14.7013 101.778 14.6062C101.937 14.5746 102.158 14.3845 102.19 14.2578C102.317 13.6876 102.38 13.0858 102.444 12.4839C102.475 12.1988 102.444 11.882 102.444 11.5019C103.394 12.1671 104.281 12.1038 105.009 11.3435C105.706 10.615 105.77 9.69634 105.484 8.74604C105.389 8.3976 105.199 8.20754 104.978 8.17586C105.326 8.96778 105.358 9.72802 104.946 10.5199C104.629 11.1218 103.742 11.3435 103.204 11.0268C102.412 10.5516 102 9.85473 101.968 8.96778C101.937 7.73239 102 6.52867 101.968 5.29328C101.937 4.65974 101.778 4.02621 101.145 3.67776C100.828 3.4877 100.416 3.45603 100.068 3.32932C100.29 3.04423 100.828 2.91752 101.43 3.20261C101.905 3.39267 102.317 3.70944 102.729 3.96285C102.665 3.32932 102.317 2.79081 101.652 2.44237C101.683 2.41069 101.683 2.37902 101.715 2.31566C102.19 2.44237 102.665 2.60075 103.172 2.75914C103.14 2.41069 102.887 2.22063 102.634 2.03057C101.873 1.49207 101.018 1.36536 100.131 1.42872C99.656 1.46039 99.2759 1.68213 98.9908 1.9989C98.9274 2.06225 98.8957 2.22063 98.9274 2.28399C98.9591 2.34734 99.0858 2.37902 99.1808 2.37902C99.3709 2.37902 99.5293 2.37902 99.846 2.37902C99.5609 2.66411 99.3392 2.88584 99.1491 3.07591C98.6423 3.61441 97.9454 3.70944 97.2802 3.8995C96.5833 4.12124 95.9815 4.69142 96.0131 5.48334C96.2666 5.51501 96.52 5.51501 96.7417 5.57837C96.8684 5.61004 97.0902 5.76843 97.0902 5.86346C97.1535 6.56035 97.0585 7.25723 96.7417 7.92245C96.6784 8.08083 96.615 8.27089 96.6467 8.3976C96.71 8.65101 96.9318 8.74604 97.1852 8.74604C97.5653 8.71437 97.9138 8.68269 98.3256 8.65101C98.1355 9.06281 97.8187 8.87275 97.597 8.9361C97.4386 9.09449 97.1852 9.28455 96.8684 9.47461ZM94.9995 2.37902C92.1486 4.78645 91.6734 10.2665 95.1896 13.2441C95.7597 12.9907 96.2982 12.7373 96.8367 12.5156C96.4566 12.1671 96.0131 11.8504 95.633 11.4386C95.0312 10.805 94.5877 10.0765 94.6827 9.15784C94.7461 8.55598 94.9678 7.9858 95.1579 7.44729C95.3479 6.94047 95.538 6.49699 95.1579 5.99017C95.0945 5.92681 95.1262 5.76843 95.1579 5.6734C95.2846 5.16657 95.2529 4.65974 94.9361 4.18459C94.8094 3.99453 94.7144 3.70944 94.7461 3.45603C94.8094 3.10758 94.9361 2.75914 94.9995 2.37902Z" fill="#B9B9B9"/>
<path d="M35.9224 4.81822C35.7323 5.83188 35.5422 6.84553 35.3205 7.85919C33.8634 7.85919 32.4062 7.85919 30.9491 7.85919C30.1889 7.85919 30.1572 7.85919 29.9988 8.58775C29.8721 9.18961 29.7771 9.82315 29.6504 10.4884C31.2976 10.4884 32.9131 10.4884 34.5603 10.4884C34.3702 11.4703 34.1801 12.4523 34.0218 13.4343C32.4062 13.4343 30.759 13.4343 29.0802 13.4343C28.8901 14.3846 28.7001 15.3032 28.51 16.2535C30.2522 16.2535 31.9628 16.2535 33.7367 16.2535C33.5466 17.3305 33.3565 18.3442 33.1665 19.3895C30.0938 19.3895 27.0212 19.3895 23.9802 19.3895C24.1703 18.3442 24.3603 17.2989 24.5821 16.2852C24.7721 15.3349 24.9622 14.3529 25.1523 13.4026C25.374 12.2306 25.5641 11.0902 25.7858 9.91818C26.0075 8.68278 26.261 7.44739 26.4827 6.212C26.546 5.86355 26.6411 5.48343 26.7044 5.13499C26.7361 4.94493 26.7995 4.8499 26.9895 4.8499C29.9355 4.8499 32.8814 4.8499 35.8273 4.8499C35.859 4.78655 35.8907 4.81822 35.9224 4.81822Z" fill="#B9B9B9"/>
<path d="M58.2865 19.1676C56.8611 19.4844 55.4673 19.6745 54.0735 19.5794C51.9828 19.4211 50.1773 18.7558 49.227 16.6969C48.9419 16.0633 48.7518 15.3348 48.7201 14.6379C48.5934 12.1988 49.227 9.94971 50.6841 7.95408C51.6661 6.59198 52.9965 5.64168 54.5803 5.10317C55.594 4.75473 56.6393 4.50132 57.7163 4.56467C58.7617 4.62802 59.7753 4.6597 60.884 4.72305C60.789 5.10317 60.7573 5.38826 60.694 5.64168C60.4722 6.40192 60.2188 7.19384 60.0287 7.95408C59.9654 8.20749 59.807 8.27085 59.5853 8.20749C59.0784 8.11246 58.6033 7.95408 58.0965 7.9224C57.6213 7.89073 57.1145 7.95408 56.671 8.08079C55.1189 8.46091 54.1685 9.50624 53.535 10.9317C53.2182 11.6603 53.0915 12.4522 53.0282 13.2124C52.9015 14.3845 53.9151 15.7149 55.1188 15.9366C56.1959 16.1267 57.2729 16.095 58.3499 15.7782C58.4132 15.7466 58.4766 15.7466 58.5399 15.7466C58.5716 15.7466 58.6033 15.7466 58.6666 15.7782C58.5716 16.8869 58.4132 18.0273 58.2865 19.1676Z" fill="#B9B9B9"/>
<path d="M24.075 24.1726C24.4235 24.2043 24.8036 24.236 25.1521 24.2993C25.7539 24.3943 26.134 24.7745 26.1974 25.3446C26.3874 26.6434 25.8489 28.1322 24.3601 28.5123C23.7266 28.6707 23.0614 28.639 22.3962 28.6707C22.3328 28.6707 22.2378 28.4806 22.2378 28.3856C22.4595 27.1185 22.7129 25.8515 22.9664 24.6161C23.0297 24.331 23.0931 24.1726 23.4415 24.2043C23.6632 24.236 23.885 24.2043 24.075 24.2043C24.075 24.2043 24.075 24.2043 24.075 24.1726ZM22.9347 28.1322C23.5049 28.2906 24.075 28.1956 24.5502 27.9105C25.3421 27.467 25.5955 26.7067 25.6272 25.8515C25.6272 25.0912 25.2471 24.7428 24.4868 24.7428C24.2651 24.7428 24.0434 24.7428 23.8533 24.7428C23.6316 24.7111 23.5682 24.8378 23.5365 25.0596C23.3148 26.0732 23.1247 27.0869 22.9347 28.1322Z" fill="#B9B9B9"/>
<path d="M41.2129 29.9693C41.2129 29.3674 41.2129 29.3358 41.7197 29.3991C42.5116 29.4625 43.1768 28.9557 43.557 27.942C43.3986 28.0054 43.2402 28.037 43.1135 28.1004C42.6067 28.3538 42.1315 28.3221 41.7197 27.9103C41.3079 27.4985 41.3713 26.9917 41.5613 26.4532C41.9415 25.4079 42.7967 25.0277 43.8104 25.3128C44.0004 25.3762 44.1905 25.5662 44.3172 25.7246C44.6657 26.2948 44.5389 26.8967 44.3806 27.4668C44.1588 28.3538 43.7787 29.114 42.9868 29.5892C42.4483 29.9376 41.8781 30.0643 41.2129 29.9693ZM42.7967 27.6252C43.4936 27.5619 43.8737 27.1501 43.8737 26.4215C43.8737 25.8513 43.3036 25.5346 42.7967 25.8197C42.3216 26.0731 42.1315 26.5165 42.1315 27.0234C42.1315 27.4035 42.4166 27.6569 42.7967 27.6252Z" fill="#B9B9B9"/>
<path d="M34.1172 28.7023C33.9272 28.7023 33.7371 28.7023 33.5154 28.7023C33.5787 28.4489 33.6104 28.1955 33.6738 27.9738C33.6421 27.9738 33.6421 27.9421 33.6104 27.9421C33.5471 28.0055 33.5154 28.0688 33.452 28.1322C33.1669 28.4489 32.8818 28.7023 32.4067 28.734C31.9315 28.7657 31.6781 28.3856 31.6464 28.0055C31.5831 27.2135 31.7415 26.4533 32.28 25.8831C32.5334 25.598 32.9769 25.503 33.3887 25.3763C33.6104 25.3129 33.8638 25.3763 34.1489 25.3763C34.2123 25.0912 34.2756 24.7744 34.3073 24.4893C34.3706 23.8558 34.4023 23.7924 35.0675 23.8875C34.7191 25.4713 34.434 27.0551 34.1172 28.7023ZM34.0856 25.8198C33.8005 25.8514 33.5154 25.7881 33.2936 25.8831C32.5967 26.1048 32.0266 27.2135 32.28 27.9104C32.3433 28.0688 32.4384 28.3539 32.6918 28.1955C32.8818 28.1005 33.0085 27.9738 33.1669 27.8154C33.7054 27.3086 33.8955 26.6117 34.0856 25.8198Z" fill="#B9B9B9"/>
<path d="M50.9371 28.1953C50.9371 28.7021 50.9371 28.7021 50.1135 28.7021C50.0502 29.0822 49.9868 29.494 49.8918 29.9058C49.67 29.9058 49.48 29.9058 49.2582 29.9058C49.3533 29.494 49.4166 29.1139 49.5117 28.6704C48.8465 28.6704 48.2446 28.6704 47.6427 28.6704C47.3893 28.1953 47.7694 27.9735 47.9595 27.6884C48.5614 26.8965 49.1949 26.1363 49.7968 25.376C49.8601 25.3127 49.9551 25.281 50.0502 25.281C50.2719 25.281 50.4936 25.281 50.7154 25.281C50.5253 26.2313 50.3669 27.1816 50.1769 28.1636C50.4936 28.1636 50.7154 28.1636 50.9371 28.1953ZM50.0185 26.0729C49.9868 26.0729 49.9551 26.0412 49.9235 26.0412C49.385 26.7065 48.8465 27.4033 48.2763 28.1002C48.7514 28.1002 49.1949 28.1002 49.6384 28.1002C49.7651 27.4033 49.8918 26.7381 50.0185 26.0729Z" fill="#B9B9B9"/>
<path d="M28.6369 28.1005C28.7319 28.4173 28.6685 28.6391 28.2884 28.6391C27.94 28.6391 27.5915 28.6707 27.2431 28.6707C26.8313 28.6707 26.5779 28.4173 26.5145 28.0689C26.3245 27.2453 26.6096 26.0416 27.4332 25.5031C27.845 25.218 28.3518 25.2813 28.7636 25.3763C29.2387 25.4714 29.3971 26.2316 29.017 26.6117C28.7953 26.8335 28.5102 26.9919 28.2251 27.0869C27.8766 27.2136 27.4648 27.2136 27.0847 27.277C26.958 28.1956 27.1481 28.3223 28.6369 28.1005ZM27.2748 26.8018C27.6232 26.7384 28.0033 26.6751 28.3518 26.5484C28.4785 26.485 28.5418 26.2316 28.5735 26.0416C28.5735 26.0099 28.3201 25.8515 28.1934 25.8515C27.5915 25.7881 27.4332 26.2316 27.2748 26.8018Z" fill="#B9B9B9"/>
<path d="M37.2533 28.1321C37.2533 28.2588 37.2533 28.3856 37.2533 28.639C36.7465 28.6706 36.2397 28.7023 35.7329 28.734C35.4161 28.734 35.036 28.3222 35.0043 27.9421C34.9726 27.0868 35.1627 26.3266 35.7962 25.693C36.1763 25.3446 37.1583 25.3129 37.4751 25.5346C37.8552 25.7881 37.9186 26.4216 37.4751 26.77C37.095 27.0868 36.6198 27.2452 36.113 27.2452C35.8596 27.2452 35.5745 27.1818 35.5745 27.5936C35.5745 28.0054 35.7645 28.2905 36.113 28.2905C36.4931 28.2272 36.8732 28.1638 37.2533 28.1321ZM35.7329 26.8334C36.208 26.7067 36.5881 26.6433 36.9683 26.4849C37.0633 26.4533 37.1583 26.1999 37.1583 26.0732C37.1583 25.9781 36.9366 25.8514 36.8099 25.8514C36.303 25.7881 36.0496 26.0098 35.7329 26.8334Z" fill="#B9B9B9"/>
<path d="M47.3578 28.1637C47.3261 28.2904 47.2945 28.3537 47.2628 28.4171C47.2628 28.4805 47.2311 28.5755 47.2311 28.6388C46.4392 28.6388 45.6473 28.6388 44.8553 28.6388C44.7603 28.1637 44.8553 28.037 45.4255 27.6885C45.964 27.3718 46.4709 27.055 46.7876 26.4848C46.9777 26.1047 46.7243 25.6612 46.3125 25.7246C46.0274 25.7563 45.774 25.8196 45.4889 25.883C45.3305 25.5345 45.3622 25.4712 45.7423 25.3128C46.1224 25.1544 46.4709 25.1544 46.851 25.2494C47.6429 25.4395 47.7063 26.1681 47.3261 26.6749C47.0727 27.0233 46.6926 27.3084 46.3758 27.5935C46.1858 27.7519 45.964 27.8786 45.774 28.132C46.0274 28.132 46.2491 28.132 46.5025 28.132C46.8193 28.1637 47.0727 28.1637 47.3578 28.1637Z" fill="#B9B9B9"/>
<path d="M29.3016 28.1638C29.6183 28.1638 29.9034 28.1955 30.1885 28.1638C30.3152 28.1321 30.4419 27.9737 30.5053 27.847C30.537 27.752 30.5053 27.5619 30.4419 27.4986C30.2836 27.3085 30.0618 27.1501 29.8718 26.9917C29.555 26.7383 29.4916 26.3582 29.6183 26.0098C29.745 25.6613 30.0618 25.3762 30.5053 25.3762C30.8221 25.3762 31.1388 25.3762 31.4556 25.3762C31.4239 25.5346 31.4239 25.6613 31.3922 25.8514C31.1705 25.8514 30.9488 25.8197 30.7587 25.8514C30.5686 25.9147 30.3469 26.0414 30.2519 26.1998C30.2202 26.2632 30.3469 26.5166 30.4419 26.6433C30.5686 26.8017 30.7587 26.9284 30.9171 27.0551C31.2339 27.3085 31.2655 27.6253 31.1705 27.9737C31.0755 28.3222 30.8221 28.6072 30.4419 28.6706C30.2202 28.7023 29.9668 28.734 29.745 28.734C29.2065 28.7023 29.2065 28.7023 29.3016 28.1638Z" fill="#B9B9B9"/>
<path d="M40.3572 28.7022C40.1355 28.7022 39.9771 28.7022 39.7554 28.7022C39.9138 27.7836 40.1038 26.8966 40.2622 25.9147C39.9771 26.0097 39.7554 26.1047 39.5336 26.1681C39.3752 25.7246 39.4069 25.6296 39.8187 25.5029C40.1672 25.4078 40.5473 25.3128 40.8957 25.2178C40.9274 25.2495 40.9591 25.2811 40.9908 25.3128C40.8007 26.4215 40.579 27.5619 40.3572 28.7022Z" fill="#B9B9B9"/>
<path d="M96.8687 9.47464C97.2171 9.28458 97.4389 9.09452 97.724 8.99949C97.9774 8.93613 98.2941 9.12619 98.4525 8.71439C98.0407 8.74607 97.6606 8.77775 97.3122 8.80943C97.0587 8.8411 96.837 8.7144 96.7737 8.46098C96.742 8.3026 96.8053 8.11254 96.8687 7.98583C97.1538 7.32062 97.2805 6.62373 97.2171 5.92684C97.2171 5.83181 96.9954 5.67343 96.8687 5.64175C96.6469 5.5784 96.3935 5.5784 96.1401 5.54672C96.0768 4.72313 96.7103 4.15294 97.4072 3.96288C98.0724 3.77282 98.7693 3.67779 99.2761 3.13929C99.4662 2.91755 99.6879 2.72749 99.973 2.4424C99.6562 2.4424 99.4979 2.4424 99.3078 2.4424C99.2128 2.4424 99.0861 2.41072 99.0544 2.34737C99.0227 2.25234 99.0544 2.12563 99.1177 2.06228C99.4345 1.74551 99.7829 1.4921 100.258 1.4921C101.145 1.46042 102 1.58713 102.761 2.09396C103.014 2.28402 103.267 2.47408 103.299 2.82252C102.792 2.66414 102.317 2.53743 101.842 2.37905C101.81 2.41072 101.81 2.4424 101.779 2.50575C102.412 2.8542 102.761 3.3927 102.856 4.02624C102.444 3.77282 102 3.48773 101.557 3.266C100.955 3.01258 100.416 3.10761 100.195 3.3927C100.543 3.48773 100.955 3.55109 101.272 3.74115C101.874 4.08959 102.064 4.72313 102.095 5.35666C102.127 6.59205 102.095 7.79577 102.095 9.03116C102.127 9.94979 102.539 10.615 103.331 11.0901C103.869 11.4069 104.756 11.1852 105.073 10.5833C105.485 9.7914 105.453 9.03116 105.105 8.23924C105.295 8.27092 105.485 8.46098 105.611 8.80943C105.897 9.75973 105.865 10.6784 105.136 11.4069C104.408 12.1672 103.521 12.2305 102.57 11.5653C102.57 11.9454 102.602 12.2305 102.57 12.5473C102.507 13.1491 102.444 13.7193 102.317 14.3212C102.285 14.4796 102.064 14.6379 101.905 14.6696C101.43 14.7963 100.923 14.8914 100.448 14.8914C99.5612 14.923 98.6426 15.0181 97.7873 14.6696C97.3122 14.4796 96.8687 14.2895 96.2985 14.0678C96.6153 13.7193 96.837 13.4342 97.1221 13.2125C97.2488 13.0858 97.4072 13.0224 97.6606 13.1808C98.0407 13.4659 98.4842 13.656 98.896 13.8777C99.2761 12.9274 99.9413 12.4206 100.892 12.1355C101.24 12.0405 101.43 11.4703 101.684 11.1218C101.779 10.9951 101.747 10.8051 101.81 10.5516C101.525 10.8684 101.335 11.1218 101.082 11.3752C100.765 11.7237 100.353 11.9137 99.878 11.9454C99.1811 11.9771 98.4842 12.0088 97.819 12.0405C97.724 12.0405 97.5973 12.0405 97.5339 12.0088C97.3438 11.8504 97.0904 11.692 97.0271 11.4703C96.9637 11.2169 97.5022 10.7417 97.7873 10.7417C98.009 10.7417 98.2625 10.8051 98.4842 10.8051C98.5476 10.2982 98.4842 10.2982 97.9774 10.2666C97.6289 10.2666 97.2805 10.1715 96.932 10.1398C96.932 10.0765 96.932 10.0448 96.932 9.98146C97.6923 9.94979 98.4525 9.88643 99.2128 9.85476C99.1811 9.7914 99.1811 9.75973 99.1811 9.75973C98.6743 9.72805 98.1674 9.50631 97.6289 9.60134C97.3122 9.60134 97.0904 9.50631 96.8687 9.47464ZM98.1991 6.14858C98.5476 6.1169 98.6426 6.24361 98.6426 6.49702C98.6426 6.81379 98.896 6.90882 99.1177 6.87714C99.3078 6.84547 99.6879 6.97217 99.7196 6.5287C99.7196 6.33864 99.9096 6.1169 100.005 5.92684C99.878 5.89517 99.6879 5.83181 99.4978 5.76846C99.4978 5.73678 99.4979 5.70511 99.5295 5.67343C99.9413 5.64175 100.385 5.61007 100.797 5.5784C99.7829 5.22995 98.7376 5.38834 97.724 5.45169C97.724 5.48337 97.6923 5.51504 97.6923 5.54672C97.9457 5.64175 98.1991 5.70511 98.4525 5.80014C98.3575 5.92684 98.3258 6.02187 98.1991 6.14858Z" fill="white"/>
<path d="M94.9992 2.37915C94.9041 2.72759 94.8091 3.10772 94.7774 3.45616C94.7774 3.70957 94.8408 3.96299 94.9675 4.18472C95.2842 4.65988 95.2842 5.13503 95.1892 5.67353C95.1575 5.76856 95.1259 5.92695 95.1892 5.9903C95.601 6.46545 95.411 6.9406 95.1892 7.44743C94.9675 8.01761 94.7774 8.58779 94.7141 9.15797C94.619 10.0449 95.0625 10.8052 95.6644 11.4387C96.0445 11.8188 96.4563 12.1673 96.8681 12.5157C96.3296 12.7691 95.7911 12.9909 95.2209 13.2443C91.6731 10.2983 92.1799 4.78658 94.9992 2.37915Z" fill="#B9B9B9"/>
<path d="M95.8547 10.4567C95.4746 9.69644 95.2529 8.90453 95.5063 8.01758C95.633 8.8095 95.7597 9.60141 95.8864 10.3933C95.8864 10.425 95.8864 10.425 95.8547 10.4567Z" fill="#B9B9B9"/>
<path d="M95.9183 10.3933C95.95 10.4567 95.9817 10.52 96.0134 10.5834C95.9817 10.5834 95.9817 10.615 95.95 10.615C95.9183 10.5517 95.8867 10.4883 95.855 10.4567C95.8867 10.425 95.8867 10.425 95.9183 10.3933Z" fill="#B9B9B9"/>
<path d="M98.1986 6.1486C98.2936 5.99021 98.357 5.92686 98.3887 5.83183C98.1352 5.7368 97.8818 5.64177 97.6284 5.57842C97.6284 5.54674 97.6601 5.51506 97.6601 5.48339C98.6738 5.42003 99.7191 5.26165 100.733 5.61009C100.321 5.64177 99.8775 5.67344 99.4657 5.70512C99.4657 5.7368 99.4657 5.76848 99.434 5.80015C99.6241 5.86351 99.8141 5.92686 99.9408 5.95854C99.8458 6.18027 99.6557 6.37033 99.6557 6.56039C99.6241 7.00387 99.2756 6.84548 99.0539 6.90884C98.8321 6.97219 98.547 6.84548 98.5787 6.52872C98.6738 6.24363 98.5787 6.11692 98.1986 6.1486Z" fill="#B9B9B9"/>
</svg>
