<svg width="84" height="30" viewBox="0 0 84 30" fill="none" xmlns="http://www.w3.org/2000/svg">
<g clip-path="url(#clip0_197_826)">
<path d="M9.8478 0H0.043457V21.3152H4.71737V14.2826H9.83694C14.3261 14.2826 17.4674 11.337 17.4674 7.11956C17.4782 2.92391 14.3369 0 9.8478 0ZM12.7065 7.16304C12.7065 9.02174 11.4565 10.2283 9.51085 10.2283H4.71737V4.15217H9.51085C11.4782 4.15217 12.7065 5.30435 12.7065 7.16304Z" fill="#B9B9B9"/>
<path d="M24.0763 5.76099H19.6089V21.3045H24.0763V5.76099Z" fill="#B9B9B9"/>
<path d="M34.1084 11.5327L33.9236 11.5001C31.8366 11.1414 31.2714 10.9349 31.2714 10.1632C31.2714 9.51099 32.2171 9.03273 33.4671 9.03273C34.9127 9.03273 35.8692 9.61968 35.9236 10.5219L35.9562 11.174H40.5758V10.4892C40.5758 7.55446 37.6845 5.51099 33.5323 5.51099C29.304 5.51099 26.4562 7.50012 26.4562 10.4566C26.4562 14.511 31.2714 15.1523 33.3475 15.424L33.4127 15.4349C35.7714 15.8044 36.1519 16.0762 36.1519 16.7392C36.1519 17.4892 35.141 18.0218 33.6953 18.0218C32.0975 18.0218 30.9888 17.3805 30.9453 16.424L30.9127 15.7718H26.1519L26.1627 16.4566C26.1953 19.4675 29.2606 21.5653 33.5975 21.5653C37.9345 21.5653 40.9671 19.511 40.9671 16.5544C40.9671 12.6523 36.4997 11.924 34.1084 11.5327Z" fill="#B9B9B9"/>
<path d="M83.8805 5.76099H79.4131V21.3045H83.8805V5.76099Z" fill="#B9B9B9"/>
<path d="M24.0763 4.46739L19.6089 0H24.0763V4.46739Z" fill="#B9B9B9"/>
<path d="M79.4131 0L83.8805 4.46739H79.4131V0Z" fill="#B9B9B9"/>
<path d="M59.1411 5.76087V21.3044H54.5758V19.7066C53.5758 20.8587 52.0758 21.5653 50.0432 21.5653C46.0541 21.5653 42.7715 18.0653 42.7715 13.5327C42.7715 9 46.0541 5.5 50.0432 5.5C52.0867 5.5 53.5758 6.19565 54.5758 7.3587V5.76087H59.1411ZM54.5758 13.5327C54.5758 11.25 53.0541 9.81522 50.9563 9.81522C48.8584 9.81522 47.3367 11.25 47.3367 13.5327C47.3367 15.8153 48.8584 17.25 50.9563 17.25C53.0541 17.25 54.5758 15.8153 54.5758 13.5327Z" fill="#B9B9B9"/>
<path d="M70.8804 5.39136C70.2283 5.39136 69.6304 5.46744 69.087 5.60875C67.913 5.9131 67 6.40223 66.4239 7.18484V5.92397V5.72831H61.75V5.76092V12.3262V21.3153H66.2065H66.2391H66.413V12.8044C66.413 10.587 67.5978 9.59788 69.3152 9.59788C70.8152 9.59788 72.0217 10.5001 72.0217 12.4349V21.3153H72.1957H76.6957V12.3262V11.7392C76.7065 7.53266 74.0217 5.39136 70.8804 5.39136Z" fill="#B9B9B9"/>
<path d="M7.4997 26.9349C6.9997 26.7718 6.71709 26.6631 6.71709 26.3153C6.71709 25.9675 6.9997 25.7392 7.41275 25.7392C7.89101 25.7392 8.11927 26.0327 8.21709 26.2827L8.26057 26.3805L8.64101 26.1631L8.6084 26.0871C8.40188 25.5979 7.95622 25.3044 7.41275 25.3044C6.73883 25.3044 6.27144 25.7284 6.27144 26.3262C6.27144 26.9892 6.82579 27.174 7.42362 27.3697H7.43449C7.9997 27.5436 8.27144 27.6957 8.27144 28.0218C8.27144 28.4023 7.97796 28.6197 7.48883 28.6197C6.98883 28.6197 6.65188 28.3914 6.53231 27.9892L6.4997 27.8697L6.1084 28.0979L6.13014 28.1631C6.30405 28.7175 6.81492 29.0436 7.48883 29.0436C8.22796 29.0436 8.71709 28.6197 8.71709 28.0001C8.71709 27.3371 8.07579 27.1197 7.4997 26.9349Z" fill="#B9B9B9"/>
<path d="M11.5758 25.3044C10.5214 25.3044 9.69531 26.1305 9.69531 27.1849C9.69531 28.2392 10.5214 29.0653 11.5758 29.0653C12.6301 29.0653 13.4562 28.2392 13.4562 27.1849C13.4562 26.1305 12.6301 25.3044 11.5758 25.3044ZM11.5758 28.6197C10.7714 28.6197 10.141 27.9892 10.141 27.174C10.141 26.3697 10.7714 25.7284 11.5758 25.7284C12.3801 25.7284 13.0106 26.3588 13.0106 27.174C13.0106 27.9892 12.3801 28.6197 11.5758 28.6197Z" fill="#B9B9B9"/>
<path d="M15.1302 25.3586H14.6846V29.0108H16.7607V28.576H15.1302V25.3586Z" fill="#B9B9B9"/>
<path d="M20.0434 27.7498C20.0434 28.2933 19.6955 28.6194 19.1194 28.6194C18.5434 28.6194 18.2064 28.2933 18.2064 27.7498V25.3477H17.7607V27.7498C17.7607 28.5324 18.3042 29.0542 19.1194 29.0542C19.9347 29.0542 20.489 28.5324 20.489 27.7498V25.3477H20.0434V27.7498Z" fill="#B9B9B9"/>
<path d="M24.7822 27.8805L24.7387 27.9675C24.5213 28.3697 24.0648 28.6305 23.5648 28.6305C22.7387 28.6305 22.1191 28.011 22.1191 27.1849C22.1191 26.3588 22.7387 25.7392 23.5648 25.7392C24.0648 25.7392 24.5213 26.0001 24.7387 26.4023L24.7822 26.4892L24.793 26.5001L25.1843 26.2718L25.1409 26.1957C25.0974 26.1197 25.0539 26.0544 25.0104 25.9892C24.9996 25.9784 24.9996 25.9784 24.9887 25.9675C24.9452 25.9131 24.9017 25.8697 24.8583 25.8262C24.8474 25.8153 24.8365 25.8044 24.8256 25.7936C24.7822 25.7501 24.7387 25.7175 24.6952 25.6849C24.6843 25.674 24.6626 25.6631 24.6517 25.6523C24.6082 25.6197 24.5648 25.5979 24.5213 25.5653C24.4996 25.5544 24.4778 25.5436 24.4561 25.5218C24.4235 25.5001 24.38 25.4892 24.3474 25.4675C24.3148 25.4566 24.2822 25.4349 24.2496 25.424H24.2387C24.0322 25.3479 23.8039 25.3044 23.5756 25.3044C23.1952 25.3044 22.8365 25.4131 22.543 25.5871C22.5322 25.5979 22.5104 25.6088 22.4996 25.6088C22.4887 25.6197 22.4778 25.6197 22.4669 25.6305C22.4343 25.6523 22.3909 25.6849 22.3583 25.7066C22.3474 25.7175 22.3474 25.7175 22.3365 25.7284C22.3039 25.761 22.2604 25.7936 22.2278 25.8262C22.2169 25.8371 22.2169 25.8371 22.2061 25.8479C22.1735 25.8805 22.1409 25.9131 22.1083 25.9566C22.0974 25.9675 22.0974 25.9784 22.0865 25.9784C22.0539 26.011 22.0322 26.0544 21.9996 26.0979C21.9887 26.1088 21.9887 26.1197 21.9778 26.1305C21.9561 26.174 21.9235 26.2066 21.9017 26.2501C21.8909 26.261 21.8909 26.2718 21.88 26.2827C21.8582 26.3262 21.8365 26.3697 21.8256 26.4023C21.8148 26.4131 21.8148 26.424 21.8039 26.4457C21.7822 26.4892 21.7713 26.5327 21.7604 26.5762C21.7604 26.5871 21.7496 26.6088 21.7496 26.6197C21.7387 26.6631 21.7278 26.7066 21.7169 26.7501C21.7169 26.7718 21.7061 26.7827 21.7061 26.8044C21.6952 26.8479 21.6952 26.8914 21.6843 26.9457C21.6843 26.9566 21.6843 26.9784 21.6735 26.9892C21.6626 27.0544 21.6626 27.1197 21.6626 27.1849C21.6626 27.2501 21.6626 27.3153 21.6735 27.3805C21.6735 27.3914 21.6735 27.4131 21.6843 27.424C21.6952 27.4675 21.6952 27.5218 21.7061 27.5653C21.7061 27.5871 21.7169 27.5979 21.7169 27.6197C21.7278 27.6631 21.7387 27.7066 21.7496 27.7501C21.7496 27.761 21.7604 27.7827 21.7604 27.7936C21.7713 27.8371 21.793 27.8805 21.8039 27.924C21.8148 27.9349 21.8148 27.9457 21.8256 27.9675C21.8474 28.011 21.8582 28.0544 21.88 28.0871C21.8909 28.0979 21.8909 28.1088 21.9017 28.1197C21.9235 28.1631 21.9452 28.1957 21.9778 28.2392C21.9887 28.2501 21.9887 28.261 21.9996 28.2718C22.0213 28.3153 22.0539 28.3479 22.0865 28.3914C22.0974 28.4023 22.0974 28.4131 22.1083 28.4131C22.1409 28.4457 22.1735 28.4892 22.2061 28.5218C22.2169 28.5327 22.2169 28.5327 22.2278 28.5436C22.2604 28.5762 22.3039 28.6088 22.3365 28.6414C22.3474 28.6523 22.3474 28.6523 22.3583 28.6631C22.3909 28.6957 22.4343 28.7175 22.4669 28.7392C22.4778 28.7501 22.4887 28.7501 22.4996 28.761C22.5104 28.7718 22.5322 28.7827 22.543 28.7827C22.8365 28.9675 23.1843 29.0653 23.5756 29.0653C23.8039 29.0653 24.0322 29.0218 24.2387 28.9457H24.2496C24.2822 28.9349 24.3148 28.9131 24.3474 28.9023C24.38 28.8805 24.4235 28.8697 24.4561 28.8479C24.4778 28.8371 24.4996 28.8262 24.5213 28.8044C24.5648 28.7827 24.6082 28.7501 24.6517 28.7175C24.6626 28.7066 24.6843 28.6957 24.6952 28.6849C24.7387 28.6523 24.7822 28.6088 24.8256 28.5762C24.8365 28.5653 24.8474 28.5544 24.8583 28.5436C24.9017 28.5001 24.9452 28.4457 24.9887 28.4023C24.9996 28.3914 24.9996 28.3914 25.0104 28.3805C25.0648 28.3153 25.1082 28.2501 25.1409 28.174L25.1843 28.0979L24.793 27.8697L24.7822 27.8805Z" fill="#B9B9B9"/>
<path d="M28.0108 25.3044C26.9565 25.3044 26.1304 26.1305 26.1304 27.1849C26.1304 28.2392 26.9565 29.0653 28.0108 29.0653C29.0652 29.0653 29.8912 28.2392 29.8912 27.1849C29.8912 26.1305 29.0652 25.3044 28.0108 25.3044ZM28.0108 28.6197C27.2065 28.6197 26.576 27.9892 26.576 27.174C26.576 26.3697 27.2065 25.7284 28.0108 25.7284C28.8152 25.7284 29.4456 26.3588 29.4456 27.174C29.4456 27.9892 28.8152 28.6197 28.0108 28.6197Z" fill="#B9B9B9"/>
<path d="M31.5648 27.3804H33.1517V26.9456H31.5648V25.7826H33.2713V25.3586H31.1191V29.0108H33.2931V28.576H31.5648V27.3804Z" fill="#B9B9B9"/>
<path d="M35.6735 26.9349C35.1735 26.7718 34.8909 26.6631 34.8909 26.3153C34.8909 25.9675 35.1735 25.7392 35.5866 25.7392C36.0648 25.7392 36.2931 26.0327 36.3909 26.2827L36.4344 26.3805L36.8148 26.1631L36.7822 26.0871C36.5757 25.5979 36.1301 25.3044 35.5866 25.3044C34.9127 25.3044 34.4453 25.7284 34.4453 26.3262C34.4453 26.9892 34.9996 27.174 35.5974 27.3697H35.6083C36.1735 27.5436 36.4453 27.6957 36.4453 28.0218C36.4453 28.4023 36.1518 28.6197 35.6627 28.6197C35.1627 28.6197 34.8257 28.3914 34.7061 27.9892L34.6735 27.8697L34.2822 28.0979L34.304 28.1631C34.4779 28.7175 34.9887 29.0436 35.6627 29.0436C36.4018 29.0436 36.8909 28.6197 36.8909 28.0001C36.8801 27.3371 36.2388 27.1197 35.6735 26.9349Z" fill="#B9B9B9"/>
<path d="M40.5975 27.3804H42.1845V26.9456H40.5975V25.7826H42.304V25.3586H40.1519V29.0108H42.3366V28.576H40.5975V27.3804Z" fill="#B9B9B9"/>
<path d="M45.1958 27.3152L44.011 25.3586H43.5327V29.0108H43.9784V26.163L45.1197 28.0543H45.2718L46.4131 26.163V29.0108H46.8588V25.3586H46.3805L45.1958 27.3152Z" fill="#B9B9B9"/>
<path d="M51.6194 25.3586H50.3477V29.0108H50.7933V27.6847H51.6194C52.2824 27.6847 52.7933 27.1847 52.7933 26.5217C52.7824 25.8586 52.2824 25.3586 51.6194 25.3586ZM51.6194 27.2499H50.7933V25.7826H51.6194C52.0433 25.7826 52.3477 26.0869 52.3477 26.5217C52.3368 26.9456 52.0324 27.2499 51.6194 27.2499Z" fill="#B9B9B9"/>
<path d="M54.4453 25.3586H53.9888V29.0108H56.0757V28.576H54.4453V25.3586Z" fill="#B9B9B9"/>
<path d="M58.3043 25.3586L56.8804 29.0108H57.3586L57.6956 28.1304H59.3043L59.6412 29.0108H60.1195L58.7065 25.3586H58.3043ZM57.8586 27.6956L58.4999 26.0326L59.1412 27.6956H57.8586Z" fill="#B9B9B9"/>
<path d="M62.2067 26.9349C61.7067 26.7718 61.4241 26.6631 61.4241 26.3153C61.4241 25.9675 61.7067 25.7392 62.1198 25.7392C62.598 25.7392 62.8263 26.0327 62.9241 26.2827L62.9676 26.3805L63.348 26.1631L63.3154 26.0871C63.1089 25.5979 62.6633 25.3044 62.1198 25.3044C61.4459 25.3044 60.9785 25.7284 60.9785 26.3262C60.9785 26.9892 61.5328 27.174 62.1307 27.3697H62.1415C62.7067 27.5436 62.9785 27.6957 62.9785 28.0218C62.9785 28.4023 62.685 28.6197 62.1959 28.6197C61.6959 28.6197 61.3589 28.3914 61.2393 27.9892L61.2067 27.8697L60.8154 28.0979L60.8372 28.1631C61.0111 28.7175 61.522 29.0436 62.1959 29.0436C62.935 29.0436 63.4241 28.6197 63.4241 28.0001C63.4241 27.3371 62.7828 27.1197 62.2067 26.9349Z" fill="#B9B9B9"/>
<path d="M64.1846 25.7826H65.2715V29.0108H65.728V25.7826H66.815V25.3586H64.1846V25.7826Z" fill="#B9B9B9"/>
<path d="M68.3695 25.3586H67.9238V29.0108H68.3695V25.3586Z" fill="#B9B9B9"/>
<path d="M72.663 27.9456C72.4456 28.3587 71.9782 28.6195 71.4782 28.6195C70.6521 28.6195 70.0326 28 70.0326 27.1739C70.0326 26.3478 70.6521 25.7282 71.4782 25.7282C71.9782 25.7282 72.4347 25.9891 72.6521 26.3913L72.6956 26.4782L73.0869 26.25L73.0434 26.1739C72.7391 25.6304 72.1304 25.2935 71.4782 25.2935C70.4021 25.2935 69.5869 26.0978 69.5869 27.1739C69.5869 28.25 70.4021 29.0543 71.4782 29.0543C72.1413 29.0543 72.75 28.7065 73.0543 28.163L73.0978 28.0869L72.7065 27.8587L72.663 27.9456Z" fill="#B9B9B9"/>
<path d="M75.9346 25.3044C74.8803 25.3044 74.0542 26.1305 74.0542 27.1849C74.0542 28.2392 74.8803 29.0653 75.9346 29.0653C76.989 29.0653 77.8151 28.2392 77.8151 27.1849C77.8151 26.1305 76.989 25.3044 75.9346 25.3044ZM75.9346 28.6197C75.1303 28.6197 74.4998 27.9892 74.4998 27.174C74.4998 26.3697 75.1303 25.7284 75.9346 25.7284C76.739 25.7284 77.3694 26.3588 77.3694 27.174C77.3694 27.9892 76.739 28.6197 75.9346 28.6197Z" fill="#B9B9B9"/>
<path d="M28.7172 24.6086H27.3042V25.0434H28.7172V24.6086Z" fill="#B9B9B9"/>
<path d="M58.5328 24.5542L58.3154 25.0977H58.7176L58.9241 24.5542H58.5328Z" fill="#B9B9B9"/>
<path d="M23.337 29.3694L23.1196 29.9129H23.5218L23.7283 29.3694H23.337Z" fill="#B9B9B9"/>
</g>
<defs>
<clipPath id="clip0_197_826">
<rect width="83.913" height="30" fill="white" transform="translate(0.043457)"/>
</clipPath>
</defs>
</svg>
