<svg width="86" height="36" viewBox="0 0 86 36" fill="none" xmlns="http://www.w3.org/2000/svg">
<path d="M0.799833 28.7409C0.799833 26.8827 0.799833 25.0244 0.799833 23.2151C0.799833 22.6283 0.946535 22.3838 1.58225 22.3838C3.68499 22.4327 5.83664 22.3838 7.93939 22.4327C9.99323 22.4816 11.4603 23.7041 11.8026 25.5135C12.1938 27.4695 11.1669 29.3277 9.21081 29.9146C8.4773 30.1102 7.74378 30.208 6.96137 30.2569C5.83664 30.3058 4.66302 30.3058 3.53829 30.2569C3.00038 30.2569 2.75588 30.4036 2.75588 30.9904C2.80478 32.0662 2.70697 33.142 2.75588 34.2667C2.80478 35.0003 2.51137 35.1959 1.82675 35.147C1.19104 35.0981 0.702029 35.1959 0.75093 34.2667C0.848733 32.4574 0.799833 30.5992 0.799833 28.7409ZM5.54323 28.6431C6.13005 28.6431 6.66796 28.6431 7.25477 28.6431C8.81961 28.6431 9.74873 27.8118 9.79763 26.4426C9.84653 25.0244 8.91741 24.0464 7.35258 23.9486C6.03225 23.8997 4.76082 23.9486 3.44049 23.9486C2.95148 23.9486 2.75587 24.1442 2.80478 24.6332C2.80478 25.758 2.80478 26.9316 2.80478 28.0563C2.80478 28.4964 3.00038 28.692 3.44049 28.6431C4.1251 28.5942 4.80972 28.6431 5.54323 28.6431Z" fill="#B9B9B9"/>
<path d="M48.0875 21.8459C48.0875 23.4108 48.0875 24.8289 48.0875 26.3937C48.821 26.0514 49.3589 25.7091 49.9457 25.5624C52.8798 24.9267 55.1781 26.1003 55.2759 29.6212C55.3248 31.1861 55.2759 32.7509 55.2759 34.3646C55.2759 34.9514 55.0803 35.2448 54.4935 35.147C54.2979 35.147 54.0534 35.147 53.8578 35.147C53.3199 35.1959 53.1732 34.9514 53.1732 34.4135C53.1732 32.7998 53.1732 31.1372 53.1732 29.5234C53.1732 27.8119 52.293 26.8339 50.7281 26.8339C49.1144 26.8339 48.1364 27.8119 48.1364 29.5234C48.1364 31.1372 48.0875 32.702 48.1364 34.3157C48.1364 35.0003 47.843 35.147 47.2561 35.0981C46.7182 35.0492 46.0825 35.2937 46.0825 34.3157C46.1314 30.6481 46.0825 26.9806 46.1314 23.313C46.1314 23.0196 46.4248 22.6284 46.7182 22.4328C47.0605 22.2372 47.5007 22.0905 48.0875 21.8459Z" fill="#B9B9B9"/>
<path d="M42.5612 32.1153C43.0991 32.4087 43.5881 32.7021 44.126 32.9466C43.0502 34.9027 40.1651 35.6362 37.72 35.1961C34.8348 34.6581 32.8788 32.6043 32.6343 29.9147C32.292 26.3939 33.6123 23.6554 36.253 22.6285C39.187 21.4549 42.4145 22.1395 44.126 24.34C43.637 24.5845 43.148 24.9268 42.659 25.1224C42.4634 25.1713 42.1211 25.0246 41.9744 24.8779C40.5563 23.5576 38.8936 23.5087 37.1821 24.1933C35.5195 24.829 34.8837 26.2472 34.7859 27.9587C34.737 28.79 34.737 29.6213 34.9326 30.4527C35.6662 34.1691 40.1651 34.4136 42.0722 32.6043C42.2189 32.4576 42.3656 32.3109 42.5612 32.1153Z" fill="#B9B9B9"/>
<path d="M67.403 30.8927C67.3052 32.3597 68.2344 33.6311 69.6036 33.7778C70.386 33.8756 71.1684 33.7778 71.9019 33.5822C73.1245 33.2399 73.0756 33.1421 74.0047 34.3646C73.1245 34.658 72.342 35.0493 71.4618 35.2449C68.0876 35.9295 65.2514 33.9245 65.2025 30.5504C65.1047 26.9806 67.5986 25.0734 70.9239 25.4646C73.6135 25.807 74.9827 27.5674 74.9827 30.1102C74.9827 30.746 74.7871 30.9905 74.1514 30.9416C72.1953 30.8927 70.2393 30.9416 68.2832 30.9416C68.0387 30.8927 67.7453 30.8927 67.403 30.8927ZM70.1415 29.5723C70.8261 29.5723 71.5596 29.5723 72.2442 29.5723C72.88 29.6212 73.1245 29.4256 72.9288 28.6921C72.5376 27.4696 71.5107 26.7361 70.0437 26.785C68.7234 26.8339 67.6475 27.6652 67.403 28.8877C67.3052 29.3767 67.5008 29.5234 67.9409 29.5234C68.6745 29.5723 69.408 29.5723 70.1415 29.5723Z" fill="#B9B9B9"/>
<path d="M30.1897 30.4038C30.1897 33.4356 28.2336 35.3428 25.104 35.3428C22.2677 35.3428 20.2139 33.24 20.2139 30.3549C20.2139 27.4208 22.3655 25.2692 25.2996 25.367C28.3803 25.4648 30.3364 27.5675 30.1897 30.4038ZM28.1847 30.2571C28.1847 30.0615 28.1847 29.8659 28.1847 29.6703C28.038 28.2521 27.0111 27.1274 25.7397 26.9807C24.0282 26.7851 22.9034 27.4208 22.4144 28.8878C22.0721 29.9148 22.121 30.9906 22.5122 31.9686C22.9523 33.1422 24.3705 33.9247 25.593 33.6802C27.3534 33.4356 28.2336 32.2131 28.1847 30.2571Z" fill="#B9B9B9"/>
<path d="M65.3492 7.17567C66.1805 6.14875 66.8651 5.31743 67.5497 4.48611C67.892 4.0949 67.892 3.80149 67.5986 3.41028C66.8651 2.43226 66.1316 1.45424 65.3003 0.378418C66.3761 0.867429 67.3052 1.25864 68.2344 1.74765C68.8701 2.08995 69.2613 2.08996 69.7014 1.50314C69.897 1.20974 70.1904 0.965232 70.5816 0.574023C70.9239 1.50314 71.1684 2.33446 71.5107 3.06798C71.7063 3.45919 71.9508 3.85039 72.2931 4.1438C73.3201 4.97512 74.347 5.75754 75.3739 6.58885C75.325 6.63776 75.325 6.73556 75.2761 6.78446C74.5426 6.73556 73.8091 6.68666 73.0267 6.58885C72.4399 6.53995 72.1953 6.73556 72.2442 7.37127C72.342 8.6427 72.3909 9.96303 72.2931 11.2834C71.6085 10.0119 70.9239 8.7894 70.2882 7.51798C69.9948 6.93116 69.6525 6.68666 69.0168 6.78446C67.892 6.93116 66.7673 7.02896 65.3492 7.17567Z" fill="#B9B9B9"/>
<path d="M15.617 26.3938C17.7686 25.2201 18.6488 25.1223 20.0181 25.807C19.8714 26.2471 19.7247 26.7361 19.578 27.2251C19.04 27.1762 18.551 27.0295 18.062 27.0295C16.4972 26.9806 15.5681 27.8608 15.5192 29.4256C15.5192 31.0394 15.4703 32.702 15.5192 34.3157C15.5192 35.0493 15.2258 35.196 14.59 35.1471C14.0032 35.0982 13.4653 35.2449 13.4653 34.3157C13.5142 31.7729 13.4653 29.23 13.4653 26.6383C13.4653 26.2471 13.2697 25.6602 13.9543 25.6602C14.59 25.6602 15.4214 25.269 15.617 26.3938Z" fill="#B9B9B9"/>
<path d="M63.5401 21.8948C63.5401 22.286 63.589 22.5305 63.589 22.775C63.589 26.5893 63.589 30.4036 63.589 34.2667C63.589 35.0003 63.3934 35.2448 62.6599 35.1959C62.0242 35.147 61.5352 35.1959 61.5352 34.2667C61.5841 30.8437 61.5841 27.4206 61.5352 23.9975C61.5352 23.0195 61.7797 22.4327 62.7088 22.2371C62.9533 22.1882 63.1978 22.0415 63.5401 21.8948Z" fill="#B9B9B9"/>
<path d="M83.443 17.5917C83.5897 18.6186 83.7853 19.5966 83.8831 20.6236C83.932 21.3571 84.2743 21.7972 84.91 22.0906C85.0567 22.1395 85.1545 22.2862 85.2523 22.3351C84.8122 23.2642 84.2254 24.1444 83.9809 25.0736C83.7364 26.0516 83.7853 27.1274 83.6386 28.1054C83.443 27.323 83.1985 26.4917 82.954 25.5626C82.2694 26.0027 81.6826 26.3939 81.1446 26.7362C81.0468 26.7362 80.9979 26.7362 80.9001 26.7362C82.465 24.4867 82.3672 22.384 80.4111 20.428C80.46 20.3791 80.5089 20.3302 80.5578 20.2813C81.1447 20.428 81.6826 20.5747 82.2694 20.7703C82.7095 20.917 82.9051 20.8192 82.954 20.3791C83.1007 19.401 83.1985 18.423 83.2963 17.4939C83.3452 17.5428 83.3941 17.5917 83.443 17.5917Z" fill="#B9B9B9"/>
<path d="M57.3784 30.746C57.3784 29.5235 57.4273 28.301 57.3784 27.0785C57.3784 26.3938 57.7207 26.296 58.2586 26.3449C58.7476 26.3938 59.4323 26.1004 59.4323 27.0296C59.4323 29.5235 59.4323 32.0175 59.4323 34.5114C59.4323 35.4405 58.6987 35.0982 58.2586 35.1471C57.7696 35.196 57.4273 35.0982 57.4273 34.4625C57.4273 33.24 57.3784 31.9686 57.3784 30.746Z" fill="#B9B9B9"/>
<path d="M78.9436 17.3959C77.3788 18.8629 77.5744 20.4277 78.5035 22.0904C78.4546 22.0904 78.3568 22.1393 78.3079 22.1393C77.8189 21.7481 77.3299 21.4058 76.743 20.9657C76.2051 21.6503 75.765 22.2371 75.1782 23.0195C75.2271 22.1393 75.2271 21.4547 75.3738 20.7701C75.4716 20.281 75.276 20.0365 74.8848 19.792C74.3958 19.5475 73.9068 19.2541 73.2222 18.8629C73.7112 18.7162 74.0046 18.5206 74.3469 18.4717C75.2271 18.2761 75.6672 17.836 75.5205 16.858C75.4716 16.4179 75.5205 15.9778 75.5205 15.342C75.9117 15.9778 76.254 16.4179 76.4985 16.9558C76.7919 17.5915 77.1832 17.6893 77.8189 17.4937C78.1123 17.3959 78.4546 17.347 78.748 17.2492C78.7969 17.2981 78.8458 17.347 78.9436 17.3959Z" fill="#B9B9B9"/>
<path d="M79.9705 13.7284C79.8238 12.5059 79.1881 11.7724 77.8188 11.5768C78.3568 11.3812 78.6991 11.2345 79.0414 11.0878C78.9925 10.8433 78.8947 10.5988 78.8947 10.501C79.3837 10.6477 79.9705 10.7944 80.5084 10.9411C80.6062 11.6257 80.704 12.457 80.8018 13.2394C80.5084 13.0927 80.1172 13.0438 79.9705 13.7284Z" fill="#B9B9B9"/>
<path d="M71.2171 15.1464C71.1682 15.0975 70.8748 14.9997 70.5814 14.853C70.4347 15.1464 70.288 15.4399 70.1413 15.7333C69.2122 13.9728 69.2122 13.9728 68.0386 13.386C68.332 13.2882 68.5765 13.2393 68.8699 13.1904C68.7721 12.897 68.7232 12.6525 68.6743 12.5547C69.2122 12.7992 69.8479 13.0437 70.4347 13.3371C70.5814 13.386 70.7281 13.5816 70.777 13.7283C70.9237 14.1684 71.1193 14.7063 71.2171 15.1464Z" fill="#B9B9B9"/>
<path d="M81.1444 30.7458C81.4867 30.9904 81.7312 31.1371 82.1224 31.4305C82.0735 31.2349 82.0735 31.2838 82.0735 31.2838C82.1224 32.4085 81.9268 33.3865 80.7532 33.8266C80.6554 33.631 80.4598 33.3376 80.2642 33.0442C81.0955 32.5552 81.2911 31.7728 81.1444 30.7458Z" fill="#B9B9B9"/>
<path d="M59.3346 23.802C59.3346 24.1443 59.3346 24.3888 59.3835 24.6333C59.4324 25.1712 59.1879 25.4646 58.6499 25.3668C58.2587 25.3179 57.5252 25.269 57.4763 25.0734C57.3296 24.4377 58.0142 24.4377 58.4054 24.2421C58.6499 24.0465 58.9434 23.9976 59.3346 23.802Z" fill="#B9B9B9"/>
</svg>
