<svg width="113" height="34" viewBox="0 0 113 34" fill="none" xmlns="http://www.w3.org/2000/svg">
<path d="M76.9197 23.9291H29.3062C29.3062 23.9291 30.5454 21.1366 33.7568 21.1366C35.4149 21.1366 80.3232 21.1366 81.4576 21.1366C81.4576 21.1191 80.2882 23.9291 76.9197 23.9291Z" fill="#B9B9B9"/>
<path d="M25.1174 20.4907C24.14 20.4907 23.3022 21.0492 22.8833 21.8696C23.1975 21.4856 23.6687 21.2412 24.2098 21.2412C25.1697 21.2412 25.9377 22.0092 25.9377 22.9691C25.9377 23.9291 25.1697 24.6971 24.2098 24.6971C23.6687 24.6971 23.1975 24.4527 22.8833 24.0687C23.2847 24.889 24.14 25.465 25.1174 25.465C26.4962 25.465 27.6132 24.348 27.6132 22.9691C27.6132 21.6078 26.4962 20.4907 25.1174 20.4907Z" fill="#B9B9B9"/>
<path d="M19.4797 20.4907C18.5023 20.4907 17.6645 21.0492 17.2456 21.8696C17.5598 21.4856 18.031 21.2412 18.5721 21.2412C19.532 21.2412 20.3 22.0092 20.3 22.9691C20.3 23.9291 19.532 24.6971 18.5721 24.6971C18.031 24.6971 17.5598 24.4527 17.2456 24.0687C17.647 24.889 18.5023 25.465 19.4797 25.465C20.8585 25.465 21.9755 24.348 21.9755 22.9691C21.9755 21.6078 20.8585 20.4907 19.4797 20.4907Z" fill="#B9B9B9"/>
<path d="M95.9792 0.71582C90.6209 0.71582 85.8735 3.31641 82.9238 7.3133H87.5141C89.7831 5.34104 92.7502 4.11928 95.9966 4.11928C103.135 4.11928 108.912 9.89644 108.912 17.035C108.912 24.1735 103.135 29.9507 95.9966 29.9507C93.0295 29.9507 90.3067 28.9384 88.125 27.2628H83.4649C86.4495 30.8757 90.9525 33.1796 95.9966 33.1796C104.968 33.1796 112.228 25.9189 112.228 16.9477C112.211 7.97654 104.95 0.71582 95.9792 0.71582Z" fill="#B9B9B9"/>
<path d="M7.71591 29.9506C7.71591 29.8459 7.69846 29.7586 7.6461 29.6888C7.59374 29.619 7.52393 29.5666 7.4192 29.5317C7.3843 29.5142 7.33194 29.5142 7.29703 29.5142C7.24467 29.5142 7.1923 29.5142 7.13994 29.5142H6.73851L6.49416 30.7883H6.89559C7.01777 30.7883 7.10504 30.7709 7.19231 30.7534C7.27957 30.736 7.34939 30.7011 7.40175 30.6487C7.45411 30.6138 7.50647 30.5615 7.55883 30.4916C7.59374 30.4393 7.62865 30.3695 7.66355 30.3171C7.68101 30.2647 7.71591 30.1949 7.71591 30.1251C7.69846 30.0728 7.71591 30.0204 7.71591 29.9506ZM8.15226 29.9157C8.15226 30.0029 8.1348 30.0902 8.11735 30.1949C8.0999 30.2822 8.06499 30.3869 8.01263 30.4742C7.96027 30.5615 7.9079 30.6487 7.83809 30.736C7.76828 30.8233 7.68101 30.8931 7.59374 30.9454C7.48902 31.0153 7.38429 31.0502 7.26212 31.0851C7.13994 31.12 6.98286 31.1374 6.82578 31.1374H6.38944L6.16254 32.2719C6.16254 32.2894 6.14509 32.2894 6.14509 32.3068C6.14509 32.3243 6.12763 32.3243 6.11018 32.3243C6.09273 32.3243 6.07527 32.3417 6.04036 32.3417C6.00546 32.3417 5.988 32.3417 5.93564 32.3417C5.90074 32.3417 5.86583 32.3417 5.84838 32.3417C5.83092 32.3417 5.79601 32.3417 5.77856 32.3243C5.76111 32.3243 5.76111 32.3068 5.74365 32.3068C5.74365 32.2894 5.74365 32.2894 5.74365 32.2719L6.31962 29.3572C6.33708 29.2873 6.35453 29.2524 6.40689 29.2175C6.4418 29.1826 6.49416 29.1826 6.54652 29.1826H7.17485C7.26212 29.1826 7.33194 29.1826 7.3843 29.1826C7.45411 29.1826 7.50647 29.2001 7.55883 29.2175C7.6461 29.235 7.73337 29.2699 7.80318 29.3048C7.873 29.3397 7.92536 29.3921 7.97772 29.4619C8.03008 29.5142 8.06499 29.584 8.08244 29.6713C8.1348 29.7411 8.15226 29.8284 8.15226 29.9157Z" fill="#B9B9B9"/>
<path d="M9.77553 30.5616C9.77553 30.4743 9.74062 30.4045 9.67081 30.3521C9.601 30.2998 9.51373 30.2823 9.39155 30.2823C9.28683 30.2823 9.19956 30.2998 9.11229 30.3347C9.02503 30.3696 8.95521 30.4219 8.90285 30.4743C8.83304 30.5441 8.78067 30.6139 8.74577 30.6837C8.69341 30.771 8.6585 30.8583 8.64105 30.9455H8.8854C9.05993 30.9455 9.19956 30.9281 9.32174 30.9106C9.44391 30.8932 9.53118 30.8583 9.601 30.8234C9.67081 30.7885 9.72317 30.7361 9.74063 30.7012C9.75808 30.6663 9.77553 30.6139 9.77553 30.5616ZM10.1944 30.5266C10.1944 30.6314 10.177 30.7361 10.1246 30.8234C10.0722 30.9106 9.98498 30.9979 9.88025 31.0503C9.77553 31.1201 9.6359 31.155 9.46137 31.1899C9.28683 31.2248 9.07739 31.2422 8.83303 31.2422H8.57123C8.55378 31.2946 8.55378 31.347 8.55378 31.3993C8.55378 31.4517 8.55378 31.5041 8.55378 31.539C8.55378 31.696 8.58868 31.8182 8.67595 31.9055C8.76322 31.9928 8.8854 32.0277 9.05993 32.0277C9.16465 32.0277 9.25192 32.0277 9.33919 32.0102C9.42646 31.9928 9.49627 31.9753 9.54864 31.9578C9.61845 31.9404 9.65336 31.9229 9.70572 31.9055C9.74062 31.888 9.77553 31.888 9.79299 31.888C9.81044 31.888 9.81044 31.888 9.82789 31.9055C9.82789 31.9229 9.84535 31.9229 9.84535 31.9578C9.84535 31.9753 9.84535 31.9928 9.84535 32.0102C9.84535 32.0277 9.84535 32.0626 9.82789 32.08C9.82789 32.0975 9.81044 32.1324 9.81044 32.1498C9.79299 32.1673 9.79299 32.1847 9.77553 32.2022C9.75808 32.2197 9.72317 32.2371 9.67081 32.2546C9.61845 32.272 9.56609 32.2895 9.49627 32.3069C9.42646 32.3244 9.35664 32.3418 9.26938 32.3418C9.18211 32.3593 9.11229 32.3593 9.02503 32.3593C8.8854 32.3593 8.74577 32.3418 8.64105 32.3069C8.53632 32.272 8.44906 32.2197 8.36179 32.1498C8.29197 32.08 8.23961 31.9928 8.20471 31.888C8.1698 31.7833 8.15234 31.6611 8.15234 31.539C8.15234 31.4342 8.1698 31.3121 8.18725 31.1899C8.2047 31.0677 8.23961 30.9455 8.29197 30.8234C8.34433 30.7012 8.3967 30.5965 8.46651 30.4743C8.53632 30.3696 8.62359 30.2648 8.71086 30.1776C8.81558 30.0903 8.92031 30.0205 9.04248 29.9856C9.16466 29.9332 9.32174 29.9158 9.47882 29.9158C9.61845 29.9158 9.74063 29.9332 9.82789 29.9681C9.91516 30.003 10.0024 30.0379 10.0548 30.1078C10.1246 30.1601 10.1595 30.2125 10.1944 30.2823C10.177 30.387 10.1944 30.4568 10.1944 30.5266Z" fill="#B9B9B9"/>
<path d="M10.9273 32.3593C10.7528 32.3244 10.6306 32.2546 10.5259 32.1324C10.4211 32.0102 10.3862 31.8182 10.3862 31.5913C10.3862 31.4866 10.3862 31.3819 10.4037 31.2597C10.4211 31.1375 10.456 31.0154 10.491 30.9106C10.5259 30.7885 10.5782 30.6663 10.648 30.5616C10.7178 30.4568 10.7877 30.3521 10.8749 30.2648C10.9622 30.1776 11.0669 30.1078 11.1891 30.0554C11.3113 30.003 11.4509 29.9856 11.608 29.9856C11.6778 29.9856 11.7302 29.9856 11.8 30.003C11.8523 30.0205 11.9221 30.0205 11.9745 30.038C12.0269 30.0554 12.0792 30.0729 12.1141 30.1078C12.149 30.1427 12.184 30.1601 12.2189 30.1776C12.2363 30.195 12.2538 30.2125 12.2712 30.2299C12.2712 30.2474 12.2712 30.2649 12.2712 30.2823C12.2712 30.3172 12.2712 30.3347 12.2712 30.3696C12.2712 30.4045 12.2538 30.4219 12.2538 30.4568C12.2363 30.4917 12.2363 30.5092 12.2189 30.5267C12.2014 30.5441 12.184 30.5616 12.1665 30.5616C12.149 30.5616 12.1141 30.5441 12.0967 30.5267C12.0792 30.5092 12.0443 30.4743 11.992 30.4394C11.9571 30.4045 11.9047 30.387 11.8349 30.3521C11.7825 30.3347 11.6953 30.3172 11.608 30.3172C11.5033 30.3172 11.416 30.3347 11.3287 30.387C11.2415 30.4219 11.1716 30.4917 11.1193 30.5616C11.0669 30.6314 11.0146 30.7012 10.9797 30.8059C10.9447 30.8932 10.9098 30.9805 10.8924 31.0677C10.8749 31.155 10.8575 31.2423 10.84 31.3295C10.8226 31.4168 10.8226 31.4866 10.8226 31.5564C10.8226 31.731 10.8575 31.8531 10.9273 31.9404C10.9971 32.0277 11.1018 32.0626 11.2589 32.0626C11.3636 32.0626 11.4509 32.0451 11.5382 32.0277C11.608 32.0102 11.6778 31.9753 11.7302 31.9404C11.7825 31.9055 11.8349 31.8706 11.8523 31.8531C11.8872 31.8357 11.9222 31.8182 11.9396 31.8182C11.9571 31.8182 11.9571 31.8182 11.9745 31.8357C11.9745 31.8531 11.992 31.8706 11.992 31.888C11.992 31.9055 11.992 31.9229 11.992 31.9579C11.992 31.9928 11.992 32.0102 11.9745 32.0451C11.9745 32.08 11.9571 32.0975 11.9396 32.1324C11.9222 32.1498 11.9221 32.1848 11.8872 32.2022C11.8698 32.2197 11.8349 32.2546 11.7825 32.2895C11.7302 32.3244 11.6603 32.3593 11.5731 32.3767C11.4858 32.4116 11.3985 32.4291 11.2938 32.4291L11.3287 32.5687C11.3462 32.6211 11.3462 32.6735 11.3636 32.7084C11.3636 32.7433 11.3811 32.7782 11.3811 32.8131C11.3811 32.9004 11.3636 32.9702 11.3462 33.0225C11.3287 33.0749 11.2764 33.1272 11.2415 33.1622C11.1891 33.1971 11.1367 33.232 11.0669 33.2494C10.9971 33.2669 10.9273 33.2843 10.84 33.2843C10.8051 33.2843 10.7528 33.2843 10.7178 33.2843C10.6829 33.2843 10.6306 33.2843 10.5957 33.2669C10.5608 33.2669 10.5259 33.2494 10.5084 33.2494C10.491 33.2494 10.4735 33.232 10.456 33.232C10.4386 33.232 10.4386 33.2145 10.4386 33.2145C10.4386 33.2145 10.4386 33.1971 10.4386 33.1796C10.4386 33.1622 10.4386 33.1447 10.4386 33.1273C10.4386 33.1098 10.4386 33.0923 10.456 33.0749C10.456 33.0574 10.4735 33.04 10.491 33.0225C10.5084 33.0051 10.5259 33.0051 10.5433 33.0051H10.84C10.8749 33.0051 10.8924 33.0051 10.9098 33.0051C10.9273 33.0051 10.9622 32.9876 10.9797 32.9702C10.9971 32.9527 11.0146 32.9353 11.032 32.9178C11.0495 32.9004 11.0495 32.8654 11.0495 32.8305C11.0495 32.8131 11.0495 32.7956 11.0495 32.7607C11.0495 32.7258 11.0495 32.7084 11.032 32.6909L10.9273 32.3593Z" fill="#B9B9B9"/>
<path d="M14.0515 30.6488C13.9817 30.5441 13.8944 30.4568 13.8072 30.387C13.7199 30.3347 13.6152 30.2998 13.5105 30.2998C13.4232 30.2998 13.3359 30.3172 13.2661 30.3696C13.1963 30.4045 13.1265 30.4743 13.0741 30.5267C13.0218 30.5965 12.9694 30.6663 12.9345 30.7536C12.8996 30.8408 12.8647 30.9281 12.8298 31.0154C12.8123 31.1026 12.7774 31.2073 12.7774 31.2946C12.7599 31.3819 12.7599 31.4692 12.7599 31.539C12.7599 31.5913 12.7599 31.6611 12.7774 31.7135C12.7949 31.7659 12.7949 31.8182 12.8298 31.8706C12.8472 31.9229 12.8821 31.9579 12.9345 31.9753C12.9868 32.0102 13.0392 32.0102 13.109 32.0102C13.1963 32.0102 13.2836 31.9928 13.3708 31.9404C13.4581 31.888 13.5454 31.8182 13.6152 31.731C13.685 31.6437 13.7548 31.539 13.8246 31.4168C13.877 31.2946 13.9293 31.1724 13.9642 31.0154L14.0515 30.6488ZM14.1213 32.272C14.1213 32.3069 14.1039 32.3244 14.069 32.3244C14.0341 32.3418 13.9992 32.3418 13.9293 32.3418C13.8944 32.3418 13.877 32.3418 13.8421 32.3418C13.8246 32.3418 13.8072 32.3418 13.7897 32.3244C13.7723 32.3244 13.7723 32.3069 13.7548 32.3069C13.7548 32.2895 13.7548 32.2895 13.7548 32.272L13.8421 31.8531C13.8246 31.9055 13.7897 31.9579 13.7199 32.0277C13.6675 32.0975 13.5977 32.1498 13.5279 32.2022C13.4581 32.2546 13.3708 32.2895 13.2661 32.3244C13.1788 32.3593 13.0741 32.3767 12.9868 32.3767C12.8647 32.3767 12.7425 32.3593 12.6552 32.3069C12.568 32.2546 12.4981 32.2022 12.4458 32.1324C12.3934 32.0626 12.3585 31.9753 12.3411 31.8706C12.3236 31.7833 12.3062 31.6786 12.3062 31.5739C12.3062 31.4866 12.3062 31.3819 12.3236 31.2597C12.3411 31.1375 12.376 31.0328 12.4109 30.9106C12.4458 30.7885 12.4981 30.6663 12.568 30.5616C12.6203 30.4394 12.7076 30.3521 12.7949 30.2474C12.8821 30.1601 12.9868 30.0903 13.0916 30.038C13.2137 29.9856 13.3359 29.9507 13.4755 29.9507C13.6152 29.9507 13.7374 29.9856 13.8421 30.038C13.9468 30.0903 14.0341 30.1776 14.1213 30.2823L14.1737 30.0554C14.1737 30.038 14.1911 30.003 14.2261 30.003C14.261 29.9856 14.3133 29.9856 14.3657 29.9856C14.4006 29.9856 14.418 29.9856 14.453 29.9856C14.4704 29.9856 14.4879 29.9856 14.5053 30.003C14.5228 30.003 14.5228 30.0205 14.5228 30.0205C14.5228 30.038 14.5228 30.038 14.5228 30.0554L14.1213 32.272Z" fill="#B9B9B9"/>
<path d="M16.4253 30.1949C16.4253 30.2124 16.4253 30.2298 16.4253 30.2647C16.4253 30.2996 16.4078 30.3171 16.4078 30.352C16.3904 30.3869 16.3904 30.4044 16.3729 30.4218C16.3555 30.4393 16.3555 30.4567 16.338 30.4567C16.3206 30.4567 16.3031 30.4567 16.2682 30.4393C16.2333 30.4218 16.2158 30.4044 16.1635 30.3869C16.1286 30.3695 16.0762 30.352 16.0239 30.3346C15.9715 30.3171 15.9017 30.3171 15.8319 30.3171C15.7621 30.3171 15.6922 30.3345 15.6399 30.352C15.5875 30.3695 15.5352 30.4044 15.5002 30.4393C15.4653 30.4742 15.4304 30.5091 15.413 30.5614C15.3955 30.6138 15.3781 30.6487 15.3781 30.7011C15.3781 30.7709 15.3955 30.8233 15.4479 30.8582C15.4828 30.8931 15.5526 30.9454 15.605 30.9803C15.6748 31.0152 15.7446 31.0502 15.8144 31.0851C15.8842 31.12 15.954 31.1549 16.0239 31.2072C16.0937 31.2596 16.146 31.312 16.1809 31.3818C16.2158 31.4516 16.2508 31.5389 16.2508 31.6436C16.2508 31.7658 16.2333 31.8705 16.1809 31.9577C16.1286 32.0625 16.0762 32.1497 15.9889 32.2195C15.9017 32.2894 15.797 32.3417 15.6922 32.3941C15.5701 32.429 15.4479 32.4464 15.2908 32.4464C15.221 32.4464 15.1337 32.4464 15.0814 32.429C15.0115 32.4115 14.9592 32.3941 14.9068 32.3766C14.8545 32.3592 14.8021 32.3417 14.7672 32.3243C14.7323 32.3068 14.6974 32.2894 14.6799 32.2545C14.6625 32.237 14.6625 32.2195 14.645 32.2195C14.645 32.2021 14.645 32.1846 14.645 32.1672C14.645 32.1497 14.645 32.1323 14.645 32.1148C14.645 32.0974 14.645 32.0799 14.6625 32.0625C14.6625 32.045 14.6799 32.0276 14.6799 32.0101C14.6799 31.9926 14.6974 31.9752 14.6974 31.9577C14.6974 31.9403 14.7148 31.9228 14.7148 31.9228C14.7148 31.9054 14.7323 31.9054 14.7497 31.9054C14.7672 31.9054 14.7846 31.9228 14.8196 31.9403C14.8545 31.9577 14.8894 31.9926 14.9243 32.0101C14.9766 32.0276 15.029 32.0625 15.0988 32.0799C15.1686 32.0974 15.2559 32.1148 15.3432 32.1148C15.4304 32.1148 15.5177 32.0974 15.5701 32.0799C15.6399 32.0625 15.6922 32.0276 15.7271 31.9926C15.7621 31.9577 15.797 31.9054 15.8144 31.8705C15.8319 31.8181 15.8493 31.7658 15.8493 31.7134C15.8493 31.6436 15.8319 31.5912 15.7795 31.5389C15.7446 31.5039 15.6922 31.4516 15.6224 31.4167C15.5526 31.3818 15.4828 31.3469 15.413 31.312C15.3432 31.277 15.2734 31.2421 15.2035 31.1898C15.1337 31.1374 15.0814 31.0851 15.0465 31.0152C15.0115 30.9454 14.9766 30.8582 14.9766 30.7534C14.9766 30.6487 14.9941 30.544 15.0465 30.4567C15.0814 30.3695 15.1512 30.2822 15.221 30.2124C15.2908 30.1426 15.3955 30.0902 15.5002 30.0553C15.605 30.0204 15.7271 30.0029 15.8668 30.0029C15.9366 30.0029 15.989 30.0029 16.0413 30.0204C16.0937 30.0378 16.146 30.0378 16.1984 30.0553C16.2508 30.0727 16.2857 30.0902 16.3206 30.1077C16.3555 30.1251 16.3904 30.1426 16.4078 30.16C16.4078 30.1426 16.4253 30.16 16.4253 30.1949Z" fill="#B9B9B9"/>
<path d="M19.41 30.7883C19.41 30.7185 19.41 30.6487 19.3925 30.5963C19.3751 30.544 19.3576 30.4916 19.3402 30.4393C19.3053 30.4044 19.2704 30.3695 19.2355 30.3345C19.2006 30.3171 19.1307 30.2996 19.0784 30.2996C18.9911 30.2996 18.9038 30.3171 18.8166 30.3694C18.7293 30.4218 18.642 30.4916 18.5548 30.5789C18.485 30.6662 18.4151 30.7709 18.3453 30.8931C18.293 31.0152 18.2406 31.1374 18.2057 31.277L18.1184 31.6785C18.1882 31.8006 18.2755 31.8705 18.3628 31.9403C18.4501 31.9926 18.5548 32.0275 18.6595 32.0275C18.7468 32.0275 18.8166 32.0101 18.9038 31.9577C18.9737 31.9228 19.0435 31.8705 19.0958 31.8007C19.1482 31.7308 19.2006 31.661 19.2355 31.5737C19.2704 31.4865 19.3053 31.3992 19.3402 31.3119C19.3751 31.2247 19.3925 31.12 19.3925 31.0327C19.41 30.9454 19.41 30.8582 19.41 30.7883ZM19.8289 30.7534C19.8289 30.8407 19.8114 30.9629 19.794 31.0676C19.7765 31.1898 19.7416 31.3119 19.7067 31.4341C19.6718 31.5563 19.6194 31.6785 19.5496 31.7832C19.4798 31.8879 19.41 31.9926 19.3227 32.0799C19.2355 32.1672 19.1307 32.237 19.026 32.2894C18.9213 32.3417 18.7817 32.3766 18.642 32.3766C18.5722 32.3766 18.5024 32.3766 18.4501 32.3592C18.3977 32.3417 18.3279 32.3243 18.2755 32.3068C18.2232 32.2719 18.1708 32.2544 18.1359 32.2195C18.101 32.1846 18.0486 32.1497 18.0137 32.0974L17.8043 33.162C17.8043 33.1795 17.8043 33.1795 17.7868 33.1969C17.7868 33.2144 17.7694 33.2144 17.7519 33.2144C17.7345 33.2144 17.717 33.2318 17.6821 33.2318C17.6472 33.2318 17.6297 33.2318 17.5774 33.2318C17.5425 33.2318 17.5076 33.2318 17.4901 33.2318C17.4726 33.2318 17.4377 33.2318 17.4377 33.2144C17.4203 33.2144 17.4203 33.1969 17.4028 33.1969C17.4028 33.1795 17.4028 33.1795 17.4028 33.162L18.0137 30.0902C18.0137 30.0727 18.0312 30.0378 18.0661 30.0378C18.101 30.0204 18.1359 30.0204 18.2057 30.0204C18.2406 30.0204 18.2755 30.0204 18.293 30.0204C18.3104 30.0204 18.3279 30.0204 18.3453 30.0378C18.3628 30.0378 18.3628 30.0553 18.3628 30.0553C18.3628 30.0727 18.3628 30.0727 18.3628 30.0902L18.2755 30.5091C18.293 30.4567 18.3453 30.4044 18.3977 30.3345C18.4501 30.2647 18.5199 30.2124 18.5897 30.16C18.6595 30.1076 18.7468 30.0553 18.834 30.0204C18.9213 29.9855 19.026 29.968 19.1133 29.968C19.2355 29.968 19.3402 29.9855 19.4275 30.0378C19.5147 30.0727 19.5845 30.1426 19.6369 30.2124C19.6893 30.2822 19.7242 30.3694 19.7416 30.4567C19.8289 30.544 19.8289 30.6487 19.8289 30.7534Z" fill="#B9B9B9"/>
<path d="M21.8186 30.6488C21.7488 30.5441 21.6615 30.4568 21.5743 30.387C21.487 30.3347 21.3823 30.2998 21.2775 30.2998C21.1903 30.2998 21.103 30.3172 21.0332 30.3696C20.9634 30.4045 20.8936 30.4743 20.8412 30.5267C20.7888 30.5965 20.7365 30.6663 20.7016 30.7536C20.6667 30.8408 20.6318 30.9281 20.5969 31.0154C20.5794 31.1026 20.5445 31.2073 20.5445 31.2946C20.527 31.3819 20.527 31.4692 20.527 31.539C20.527 31.5913 20.527 31.6611 20.5445 31.7135C20.5619 31.7659 20.5619 31.8182 20.5969 31.8706C20.6143 31.9229 20.6492 31.9579 20.7016 31.9753C20.7539 32.0102 20.8063 32.0102 20.8761 32.0102C20.9634 32.0102 21.0506 31.9928 21.1379 31.9404C21.2252 31.888 21.3125 31.8182 21.3823 31.731C21.4521 31.6437 21.5219 31.539 21.5917 31.4168C21.6441 31.2946 21.6964 31.1724 21.7313 31.0154L21.8186 30.6488ZM21.8884 32.272C21.8884 32.3069 21.871 32.3244 21.8361 32.3244C21.8012 32.3418 21.7662 32.3418 21.6964 32.3418C21.6615 32.3418 21.6441 32.3418 21.6092 32.3418C21.5917 32.3418 21.5743 32.3418 21.5568 32.3244C21.5393 32.3244 21.5393 32.3069 21.5219 32.3069C21.5219 32.2895 21.5219 32.2895 21.5219 32.272L21.6092 31.8531C21.5917 31.9055 21.5568 31.9579 21.487 32.0277C21.4346 32.0975 21.3648 32.1498 21.295 32.2022C21.2252 32.2546 21.1379 32.2895 21.0332 32.3244C20.9459 32.3593 20.8412 32.3767 20.7539 32.3767C20.6318 32.3767 20.5096 32.3593 20.4223 32.3069C20.335 32.2546 20.2652 32.2022 20.2129 32.1324C20.1605 32.0626 20.1256 31.9753 20.1081 31.8706C20.0907 31.7833 20.0732 31.6786 20.0732 31.5739C20.0732 31.4866 20.0732 31.3819 20.0907 31.2597C20.1081 31.1375 20.1431 31.0328 20.178 30.9106C20.2129 30.7885 20.2652 30.6663 20.335 30.5616C20.4049 30.4394 20.4747 30.3521 20.5619 30.2474C20.6492 30.1601 20.7539 30.0903 20.8587 30.038C20.9808 29.9856 21.103 29.9507 21.2426 29.9507C21.3823 29.9507 21.5044 29.9856 21.6092 30.038C21.7139 30.0903 21.8012 30.1776 21.8884 30.2823L21.9408 30.0554C21.9408 30.038 21.9582 30.003 21.9931 30.003C22.0281 29.9856 22.0804 29.9856 22.1328 29.9856C22.1677 29.9856 22.1851 29.9856 22.22 29.9856C22.2375 29.9856 22.2549 29.9856 22.2724 30.003C22.2899 30.003 22.2899 30.0205 22.2899 30.0205C22.2899 30.038 22.2899 30.038 22.2899 30.0554L21.8884 32.272Z" fill="#B9B9B9"/>
<path d="M24.2097 30.0729C24.2097 30.0729 24.2097 30.0903 24.2097 30.1078C24.2097 30.1252 24.2097 30.1427 24.2097 30.1776C24.2097 30.195 24.2097 30.2299 24.1923 30.2474C24.1923 30.2649 24.1748 30.2998 24.1748 30.3172C24.1574 30.3347 24.1574 30.3521 24.1399 30.3696C24.1225 30.387 24.1225 30.387 24.105 30.387C24.0876 30.387 24.0701 30.387 24.0701 30.387C24.0526 30.387 24.0352 30.3696 24.0177 30.3696C24.0003 30.3696 23.9828 30.3521 23.9479 30.3521C23.9305 30.3521 23.8956 30.3521 23.8607 30.3521C23.8083 30.3521 23.7385 30.3696 23.6687 30.4219C23.5989 30.4743 23.529 30.5441 23.4592 30.6139C23.3894 30.7012 23.3196 30.8059 23.2672 30.9106C23.2149 31.0328 23.1625 31.155 23.1451 31.2946L22.9531 32.272C22.9531 32.2895 22.9356 32.2895 22.9356 32.3069C22.9356 32.3244 22.9182 32.3244 22.9007 32.3244C22.8833 32.3244 22.8658 32.3418 22.8309 32.3418C22.796 32.3418 22.7785 32.3418 22.7262 32.3418C22.6913 32.3418 22.6564 32.3418 22.6214 32.3418C22.604 32.3418 22.5691 32.3418 22.5691 32.3244C22.5516 32.3244 22.5516 32.3069 22.5342 32.3069C22.5342 32.2895 22.5342 32.2895 22.5342 32.272L22.9705 30.0729C22.9705 30.0554 22.9705 30.0554 22.988 30.038C22.988 30.0205 23.0054 30.0205 23.0229 30.0205C23.0403 30.0205 23.0578 30.003 23.0752 30.003C23.0927 30.003 23.1276 30.003 23.1625 30.003C23.1974 30.003 23.2323 30.003 23.2498 30.003C23.2672 30.003 23.2847 30.003 23.3021 30.0205C23.3196 30.0205 23.3196 30.038 23.3196 30.038C23.3196 30.0554 23.3196 30.0554 23.3196 30.0729L23.2323 30.4743C23.2672 30.4045 23.3196 30.3347 23.372 30.2823C23.4243 30.2125 23.4767 30.1601 23.5465 30.1252C23.5989 30.0729 23.6687 30.038 23.7385 30.0205C23.8083 29.9856 23.8607 29.9856 23.9305 29.9856C23.9654 29.9856 23.9828 29.9856 24.0177 29.9856C24.0526 29.9856 24.0701 30.003 24.105 30.003C24.1225 30.003 24.1574 30.0205 24.1748 30.0205C24.1923 30.0205 24.2097 30.038 24.2097 30.038C24.2097 30.038 24.2097 30.0554 24.2097 30.0729Z" fill="#B9B9B9"/>
<path d="M25.8855 30.6488C25.8157 30.5441 25.7284 30.4568 25.6411 30.387C25.5539 30.3347 25.4492 30.2998 25.3444 30.2998C25.2572 30.2998 25.1699 30.3172 25.1001 30.3696C25.0303 30.4045 24.9605 30.4743 24.9081 30.5267C24.8557 30.5965 24.8034 30.6663 24.7685 30.7536C24.7336 30.8408 24.6987 30.9281 24.6637 31.0154C24.6463 31.1026 24.6114 31.2073 24.6114 31.2946C24.5939 31.3819 24.5939 31.4692 24.5939 31.539C24.5939 31.5913 24.5939 31.6611 24.6114 31.7135C24.6288 31.7659 24.6288 31.8182 24.6637 31.8706C24.6812 31.9229 24.7161 31.9579 24.7685 31.9753C24.8208 32.0102 24.8732 32.0102 24.943 32.0102C25.0303 32.0102 25.1175 31.9928 25.2048 31.9404C25.2921 31.888 25.3793 31.8182 25.4492 31.731C25.519 31.6437 25.5888 31.539 25.6586 31.4168C25.711 31.2946 25.7633 31.1724 25.7982 31.0154L25.8855 30.6488ZM25.9553 32.272C25.9553 32.3069 25.9379 32.3244 25.903 32.3244C25.868 32.3418 25.8331 32.3418 25.7633 32.3418C25.7284 32.3418 25.711 32.3418 25.6761 32.3418C25.6586 32.3418 25.6412 32.3418 25.6237 32.3244C25.6062 32.3244 25.6062 32.3069 25.5888 32.3069C25.5888 32.2895 25.5888 32.2895 25.5888 32.272L25.6761 31.8531C25.6586 31.9055 25.6237 31.9579 25.5539 32.0277C25.5015 32.0975 25.4317 32.1498 25.3619 32.2022C25.2921 32.2546 25.2048 32.2895 25.1001 32.3244C25.0128 32.3593 24.9081 32.3767 24.8208 32.3767C24.6987 32.3767 24.5765 32.3593 24.4892 32.3069C24.4019 32.2546 24.3321 32.2022 24.2798 32.1324C24.2274 32.0626 24.1925 31.9753 24.175 31.8706C24.1576 31.7833 24.1401 31.6786 24.1401 31.5739C24.1401 31.4866 24.1401 31.3819 24.1576 31.2597C24.175 31.1375 24.2099 31.0328 24.2449 30.9106C24.2798 30.7885 24.3321 30.6663 24.4019 30.5616C24.4543 30.4394 24.5416 30.3521 24.6288 30.2474C24.7161 30.1601 24.8208 30.0903 24.9256 30.038C25.0477 29.9856 25.1699 29.9507 25.3095 29.9507C25.4492 29.9507 25.5713 29.9856 25.6761 30.038C25.7808 30.0903 25.868 30.1776 25.9553 30.2823L26.0077 30.0554C26.0077 30.038 26.0251 30.003 26.06 30.003C26.0949 29.9856 26.1473 29.9856 26.1997 29.9856C26.2346 29.9856 26.252 29.9856 26.2869 29.9856C26.3044 29.9856 26.3218 29.9856 26.3393 30.003C26.3567 30.003 26.3567 30.0205 26.3567 30.0205C26.3567 30.038 26.3567 30.038 26.3567 30.0554L25.9553 32.272Z" fill="#B9B9B9"/>
<path d="M29.5334 30.2649C29.5334 30.2998 29.5334 30.3172 29.5334 30.3521C29.5334 30.387 29.516 30.4045 29.516 30.4394C29.4985 30.4743 29.4985 30.4918 29.4811 30.5092C29.4636 30.5267 29.4462 30.5441 29.4287 30.5441C29.4113 30.5441 29.3763 30.5267 29.3589 30.5092C29.3414 30.4918 29.3065 30.4569 29.2542 30.4219C29.2193 30.387 29.1669 30.3696 29.0971 30.3347C29.0447 30.3172 28.9575 30.2998 28.8702 30.2998C28.7655 30.2998 28.6782 30.3172 28.5909 30.3696C28.5037 30.4045 28.4338 30.4743 28.3815 30.5441C28.3291 30.6139 28.2768 30.6837 28.2419 30.7885C28.207 30.8757 28.172 30.963 28.1546 31.0503C28.1371 31.1375 28.1197 31.2248 28.1022 31.3121C28.0848 31.3993 28.0848 31.4692 28.0848 31.539C28.0848 31.7135 28.1197 31.8357 28.1895 31.923C28.2593 32.0102 28.364 32.0451 28.5211 32.0451C28.6258 32.0451 28.7131 32.0277 28.8004 32.0102C28.8702 31.9928 28.94 31.9579 28.9924 31.923C29.0447 31.888 29.0971 31.8531 29.1145 31.8357C29.1494 31.8182 29.1844 31.8008 29.2018 31.8008C29.2193 31.8008 29.2193 31.8008 29.2367 31.8182C29.2367 31.8357 29.2542 31.8531 29.2542 31.8706C29.2542 31.888 29.2542 31.9055 29.2542 31.9404C29.2542 31.9753 29.2542 31.9928 29.2367 32.0277C29.2367 32.0626 29.2193 32.08 29.2018 32.1149C29.1844 32.1324 29.1844 32.1673 29.1494 32.1848C29.132 32.2022 29.0971 32.2371 29.0447 32.2546C28.9924 32.2895 28.94 32.3069 28.8702 32.3418C28.8004 32.3593 28.7306 32.3768 28.6607 32.3942C28.5909 32.4117 28.5037 32.4117 28.4339 32.4117C28.172 32.4117 27.9801 32.3418 27.8404 32.2197C27.7182 32.08 27.6484 31.888 27.6484 31.6262C27.6484 31.5215 27.6484 31.4168 27.6659 31.2946C27.6833 31.1725 27.7182 31.0503 27.7532 30.9456C27.7881 30.8234 27.8404 30.7012 27.9102 30.5965C27.9801 30.4918 28.0499 30.387 28.1371 30.2998C28.2244 30.2125 28.3291 30.1427 28.4513 30.0903C28.5735 30.038 28.7131 30.0205 28.8702 30.0205C28.94 30.0205 28.9924 30.0205 29.0622 30.038C29.1145 30.0554 29.1844 30.0554 29.2367 30.0729C29.2891 30.0903 29.3414 30.1078 29.3763 30.1427C29.4113 30.1776 29.4462 30.195 29.4811 30.2125C29.4985 30.23 29.516 30.2474 29.5334 30.2649C29.5334 30.2474 29.5334 30.23 29.5334 30.2649Z" fill="#B9B9B9"/>
<path d="M31.2961 30.6488C31.2263 30.5441 31.1391 30.4568 31.0518 30.387C30.9645 30.3347 30.8598 30.2998 30.7551 30.2998C30.6678 30.2998 30.5805 30.3172 30.5107 30.3696C30.4409 30.4045 30.3711 30.4743 30.3187 30.5267C30.2664 30.5965 30.214 30.6663 30.1791 30.7536C30.1442 30.8408 30.1093 30.9281 30.0744 31.0154C30.0569 31.1026 30.022 31.2073 30.022 31.2946C30.0046 31.3819 30.0046 31.4692 30.0046 31.539C30.0046 31.5913 30.0046 31.6611 30.022 31.7135C30.0395 31.7659 30.0395 31.8182 30.0744 31.8706C30.0918 31.9229 30.1268 31.9579 30.1791 31.9753C30.2315 32.0102 30.2838 32.0102 30.3536 32.0102C30.4409 32.0102 30.5282 31.9928 30.6155 31.9404C30.7027 31.888 30.79 31.8182 30.8598 31.731C30.9296 31.6437 30.9994 31.539 31.0692 31.4168C31.1216 31.2946 31.174 31.1724 31.2089 31.0154L31.2961 30.6488ZM31.366 32.272C31.366 32.3069 31.3485 32.3244 31.3136 32.3244C31.2787 32.3418 31.2438 32.3418 31.174 32.3418C31.1391 32.3418 31.1216 32.3418 31.0867 32.3418C31.0692 32.3418 31.0518 32.3418 31.0343 32.3244C31.0169 32.3244 31.0169 32.3069 30.9994 32.3069C30.9994 32.2895 30.9994 32.2895 30.9994 32.272L31.0867 31.8531C31.0692 31.9055 31.0343 31.9579 30.9645 32.0277C30.9122 32.0975 30.8424 32.1498 30.7725 32.2022C30.7027 32.2546 30.6155 32.2895 30.5107 32.3244C30.4235 32.3593 30.3187 32.3767 30.2315 32.3767C30.1093 32.3767 29.9871 32.3593 29.8999 32.3069C29.8126 32.2546 29.7428 32.2022 29.6904 32.1324C29.638 32.0626 29.6031 31.9753 29.5857 31.8706C29.5682 31.7833 29.5508 31.6786 29.5508 31.5739C29.5508 31.4866 29.5508 31.3819 29.5682 31.2597C29.5857 31.1375 29.6206 31.0328 29.6555 30.9106C29.6904 30.7885 29.7428 30.6663 29.8126 30.5616C29.8649 30.4394 29.9522 30.3521 30.0395 30.2474C30.1267 30.1601 30.2315 30.0903 30.3362 30.038C30.4584 29.9856 30.5805 29.9507 30.7202 29.9507C30.8598 29.9507 30.982 29.9856 31.0867 30.038C31.1914 30.0903 31.2787 30.1776 31.366 30.2823L31.4183 30.0554C31.4183 30.038 31.4358 30.003 31.4707 30.003C31.5056 29.9856 31.5579 29.9856 31.6103 29.9856C31.6452 29.9856 31.6627 29.9856 31.6976 29.9856C31.715 29.9856 31.7325 29.9856 31.7499 30.003C31.7674 30.003 31.7674 30.0205 31.7674 30.0205C31.7674 30.038 31.7674 30.038 31.7674 30.0554L31.366 32.272Z" fill="#B9B9B9"/>
<path d="M35.2232 32.272C35.2232 32.2895 35.2232 32.2895 35.2057 32.3069C35.2057 32.3244 35.1883 32.3244 35.1708 32.3244C35.1534 32.3244 35.1359 32.3418 35.101 32.3418C35.0661 32.3418 35.0486 32.3418 34.9963 32.3418C34.9614 32.3418 34.9265 32.3418 34.8916 32.3418C34.8741 32.3418 34.8392 32.3418 34.8392 32.3244C34.8217 32.3244 34.8218 32.3069 34.8043 32.3069C34.8043 32.2895 34.8043 32.2895 34.8043 32.272L35.0836 30.9106C35.0836 30.8583 35.101 30.8234 35.101 30.771C35.101 30.7361 35.101 30.6837 35.101 30.6488C35.101 30.5441 35.0836 30.4568 35.0486 30.4045C35.0137 30.3347 34.9439 30.3172 34.8392 30.3172C34.7519 30.3172 34.6647 30.3347 34.5949 30.387C34.5076 30.4394 34.4203 30.5092 34.3505 30.5965C34.2807 30.6837 34.2109 30.7885 34.1411 30.9106C34.0887 31.0328 34.0363 31.155 34.0014 31.2946L33.8094 32.272C33.8094 32.2895 33.792 32.2895 33.792 32.3069C33.792 32.3244 33.7745 32.3244 33.7571 32.3244C33.7396 32.3244 33.7222 32.3418 33.6873 32.3418C33.6524 32.3418 33.6349 32.3418 33.5825 32.3418C33.5302 32.3418 33.5127 32.3418 33.4778 32.3418C33.4604 32.3418 33.4255 32.3418 33.4255 32.3244C33.408 32.3244 33.408 32.3069 33.3906 32.3069C33.3906 32.2895 33.3906 32.2895 33.3906 32.272L33.6698 30.9106C33.6873 30.8583 33.6873 30.8059 33.6873 30.771C33.6873 30.7186 33.6873 30.6837 33.6873 30.6314C33.6873 30.5267 33.6698 30.4568 33.6174 30.387C33.5825 30.3347 33.5127 30.2998 33.408 30.2998C33.3207 30.2998 33.2335 30.3172 33.1462 30.3696C33.0589 30.4219 32.9717 30.4917 32.9018 30.579C32.832 30.6663 32.7622 30.771 32.6924 30.8932C32.64 31.0154 32.5877 31.1375 32.5528 31.2772L32.3608 32.2546C32.3608 32.272 32.3433 32.272 32.3433 32.2895C32.3433 32.3069 32.3259 32.3069 32.3084 32.3069C32.291 32.3069 32.2735 32.3244 32.2386 32.3244C32.2037 32.3244 32.1862 32.3244 32.1339 32.3244C32.099 32.3244 32.0641 32.3244 32.0292 32.3244C32.0117 32.3244 31.9768 32.3244 31.9768 32.3069C31.9594 32.3069 31.9593 32.2895 31.9419 32.2895C31.9419 32.272 31.9419 32.272 31.9419 32.2546L32.3782 30.0554C32.3782 30.038 32.3782 30.038 32.3957 30.0205C32.3957 30.003 32.4131 30.003 32.4306 30.003C32.4481 30.003 32.4655 29.9856 32.483 29.9856C32.5004 29.9856 32.5353 29.9856 32.5702 29.9856C32.6051 29.9856 32.64 29.9856 32.6575 29.9856C32.6749 29.9856 32.6924 29.9856 32.7099 30.003C32.7273 30.003 32.7273 30.0205 32.7273 30.0205C32.7273 30.038 32.7273 30.038 32.7273 30.0554L32.64 30.4743C32.6575 30.4219 32.7099 30.3521 32.7622 30.2998C32.8146 30.2299 32.8844 30.1776 32.9542 30.1252C33.024 30.0729 33.1113 30.0379 33.1986 30.003C33.2858 29.9681 33.3731 29.9507 33.4778 29.9507C33.5825 29.9507 33.6524 29.9681 33.7222 29.9856C33.792 30.0205 33.8443 30.0554 33.8967 30.0903C33.9491 30.1427 33.9665 30.195 34.0014 30.2648C34.0189 30.3347 34.0363 30.4045 34.0363 30.4743C34.0712 30.4219 34.1061 30.3521 34.176 30.2998C34.2283 30.2299 34.2981 30.1776 34.368 30.1252C34.4378 30.0729 34.525 30.0379 34.6123 30.003C34.6996 29.9681 34.7868 29.9507 34.8741 29.9507C34.9788 29.9507 35.0661 29.9681 35.1534 30.003C35.2232 30.0379 35.293 30.0729 35.3279 30.1252C35.3803 30.1776 35.3977 30.2474 35.4326 30.3172C35.4501 30.387 35.4675 30.4743 35.4675 30.5441C35.4675 30.5965 35.4675 30.6663 35.4501 30.7186C35.4501 30.771 35.4326 30.8234 35.4152 30.8932L35.2232 32.272Z" fill="#B9B9B9"/>
<path d="M36.8812 29.3398C36.8812 29.3922 36.8637 29.4271 36.8463 29.462C36.8288 29.4969 36.8114 29.5143 36.7939 29.5318C36.7765 29.5493 36.7416 29.5667 36.7067 29.5667C36.6718 29.5667 36.6368 29.5842 36.5845 29.5842C36.5321 29.5842 36.4972 29.5842 36.4623 29.5667C36.4274 29.5667 36.41 29.5493 36.3925 29.5318C36.375 29.5143 36.375 29.4969 36.375 29.462C36.375 29.4271 36.375 29.3922 36.3925 29.3398C36.41 29.2874 36.41 29.2525 36.4274 29.2176C36.4449 29.1827 36.4623 29.1653 36.4798 29.1478C36.4972 29.1304 36.5321 29.1129 36.567 29.1129C36.6019 29.1129 36.6369 29.0955 36.6892 29.0955C36.7416 29.0955 36.7765 29.0955 36.8114 29.1129C36.8463 29.1129 36.8637 29.1304 36.8812 29.1478C36.8987 29.1653 36.8987 29.2002 36.8987 29.2176C36.8987 29.2525 36.8987 29.2874 36.8812 29.3398ZM36.2529 32.272C36.2529 32.2895 36.2354 32.2895 36.2354 32.3069C36.2354 32.3244 36.218 32.3244 36.2005 32.3244C36.1831 32.3244 36.1656 32.3418 36.1307 32.3418C36.0958 32.3418 36.0783 32.3418 36.026 32.3418C35.9911 32.3418 35.9562 32.3418 35.9213 32.3418C35.9038 32.3418 35.8689 32.3418 35.8689 32.3244C35.8514 32.3244 35.8514 32.3069 35.834 32.3069C35.834 32.2895 35.834 32.2895 35.834 32.272L36.2703 30.0729C36.2703 30.0554 36.2703 30.0554 36.2878 30.038C36.2878 30.0205 36.3052 30.0205 36.3227 30.0205C36.3401 30.0205 36.3576 30.003 36.3925 30.003C36.4274 30.003 36.4449 30.003 36.4972 30.003C36.5321 30.003 36.567 30.003 36.6019 30.003C36.6194 30.003 36.6543 30.003 36.6543 30.0205C36.6718 30.0205 36.6718 30.038 36.6892 30.038C36.6892 30.0554 36.6892 30.0554 36.6892 30.0729L36.2529 32.272Z" fill="#B9B9B9"/>
<path d="M39.0278 30.5616C39.0278 30.6139 39.0278 30.6837 39.0103 30.7361C39.0103 30.7885 38.9929 30.8408 38.9754 30.9106L38.6962 32.2895C38.6962 32.3069 38.6962 32.3069 38.6787 32.3244C38.6787 32.3418 38.6613 32.3418 38.6438 32.3418C38.6263 32.3418 38.6089 32.3593 38.574 32.3593C38.5565 32.3593 38.5216 32.3593 38.4693 32.3593C38.4344 32.3593 38.3994 32.3593 38.3645 32.3593C38.3471 32.3593 38.3122 32.3593 38.3122 32.3418C38.2947 32.3418 38.2947 32.3244 38.2773 32.3244C38.2773 32.3069 38.2773 32.3069 38.2773 32.2895L38.5565 30.9281C38.574 30.8757 38.574 30.8234 38.574 30.7885C38.574 30.7361 38.574 30.7012 38.574 30.6663C38.574 30.5616 38.5565 30.4918 38.5042 30.4219C38.4693 30.3696 38.3994 30.3347 38.2947 30.3347C38.2075 30.3347 38.1202 30.3521 38.0329 30.4045C37.9457 30.4568 37.8584 30.5267 37.7886 30.6139C37.7187 30.7012 37.6489 30.8059 37.5791 30.9281C37.5093 31.0503 37.4744 31.1724 37.4395 31.3121L37.2475 32.2895C37.2475 32.3069 37.2301 32.3069 37.2301 32.3244C37.2301 32.3418 37.2126 32.3418 37.1951 32.3418C37.1777 32.3418 37.1602 32.3593 37.1253 32.3593C37.0904 32.3593 37.073 32.3593 37.0206 32.3593C36.9857 32.3593 36.9508 32.3593 36.9159 32.3593C36.8984 32.3593 36.8635 32.3593 36.8635 32.3418C36.8461 32.3418 36.8461 32.3244 36.8286 32.3244C36.8286 32.3069 36.8286 32.3069 36.8286 32.2895L37.265 30.0903C37.265 30.0729 37.265 30.0729 37.2824 30.0554C37.2824 30.038 37.2999 30.038 37.3173 30.038C37.3348 30.038 37.3522 30.0205 37.3697 30.0205C37.3871 30.0205 37.422 30.0205 37.4569 30.0205C37.4919 30.0205 37.5268 30.0205 37.5442 30.0205C37.5617 30.0205 37.5791 30.0205 37.5966 30.038C37.614 30.038 37.614 30.0554 37.614 30.0554C37.614 30.0729 37.614 30.0729 37.614 30.0903L37.5268 30.5092C37.5442 30.4568 37.5966 30.387 37.6489 30.3347C37.7013 30.2649 37.7711 30.2125 37.8409 30.1601C37.9107 30.1078 37.998 30.0729 38.0853 30.038C38.1725 30.003 38.2773 29.9856 38.3645 29.9856C38.4693 29.9856 38.5565 30.003 38.6438 30.038C38.7136 30.0729 38.7834 30.1078 38.8183 30.1776C38.8707 30.2299 38.8881 30.2998 38.9231 30.3696C39.0278 30.4045 39.0278 30.4743 39.0278 30.5616Z" fill="#B9B9B9"/>
<path d="M41.1747 32.2719C41.1747 32.2893 41.1572 32.2893 41.1572 32.3068C41.1572 32.3242 41.1398 32.3242 41.1223 32.3242C41.1049 32.3242 41.0874 32.3417 41.0525 32.3417C41.035 32.3417 41.0001 32.3417 40.9478 32.3417C40.9129 32.3417 40.878 32.3417 40.843 32.3417C40.8256 32.3417 40.7907 32.3417 40.7907 32.3242C40.7732 32.3242 40.7732 32.3068 40.7558 32.3068C40.7558 32.2893 40.7558 32.2893 40.7558 32.2719L41.035 30.9105C41.035 30.8756 41.0525 30.8232 41.0525 30.7709C41.0525 30.7185 41.0525 30.6661 41.0525 30.6312C41.0525 30.5789 41.0525 30.544 41.035 30.5091C41.0176 30.4742 41.0176 30.4392 40.9827 30.4043C40.9652 30.3694 40.9303 30.352 40.8954 30.3345C40.8605 30.3171 40.8256 30.3171 40.7732 30.3171C40.686 30.3171 40.5987 30.3345 40.5114 30.3869C40.4242 30.4392 40.3369 30.5091 40.2671 30.5963C40.1973 30.6836 40.1274 30.7883 40.0576 30.9105C39.9878 31.0327 39.9529 31.1548 39.918 31.2945L39.726 32.2719C39.726 32.2893 39.7086 32.2893 39.7086 32.3068C39.7086 32.3242 39.6911 32.3242 39.6737 32.3242C39.6562 32.3242 39.6388 32.3417 39.6038 32.3417C39.5689 32.3417 39.5515 32.3417 39.4991 32.3417C39.4642 32.3417 39.4293 32.3417 39.3944 32.3417C39.3769 32.3417 39.342 32.3417 39.342 32.3242C39.3246 32.3242 39.3246 32.3068 39.3071 32.3068C39.3071 32.2893 39.3071 32.2893 39.3071 32.2719L39.9529 29.008C39.9529 28.9906 39.9529 28.9906 39.9704 28.9731C39.9704 28.9557 39.9878 28.9557 40.0053 28.9557C40.0227 28.9557 40.0402 28.9382 40.0751 28.9382C40.11 28.9382 40.1275 28.9382 40.1798 28.9382C40.2147 28.9382 40.2496 28.9382 40.2845 28.9382C40.302 28.9382 40.3369 28.9382 40.3369 28.9557C40.3543 28.9557 40.3543 28.9731 40.3543 28.9731C40.3543 28.9906 40.3543 28.9906 40.3543 29.008L40.1624 30.0029C40.1624 30.0378 40.1449 30.0902 40.1275 30.1251C40.11 30.1774 40.11 30.2123 40.0925 30.2647C40.0751 30.2996 40.0751 30.352 40.0576 30.3869C40.0402 30.4218 40.0402 30.4567 40.0227 30.4916C40.0402 30.4392 40.0925 30.3694 40.1449 30.3171C40.1973 30.2647 40.2671 30.1949 40.3369 30.1425C40.4067 30.0902 40.494 30.0553 40.5812 30.0204C40.6685 29.9854 40.7732 29.968 40.8605 29.968C40.9652 29.968 41.0525 29.9854 41.1223 30.0204C41.1921 30.0553 41.2619 30.0902 41.2968 30.1425C41.3492 30.1949 41.3841 30.2647 41.4016 30.3345C41.419 30.4043 41.4365 30.4916 41.4365 30.5789C41.4365 30.6312 41.4365 30.701 41.419 30.7534C41.419 30.8058 41.4016 30.8581 41.3841 30.9279L41.1747 32.2719Z" fill="#B9B9B9"/>
<path d="M44.0894 29.0954C44.0894 29.1129 44.0894 29.1304 44.0894 29.1478C44.0894 29.1827 44.072 29.2176 44.072 29.2525C44.0545 29.2874 44.0371 29.3398 44.0196 29.3922C44.0021 29.4445 43.9672 29.4794 43.9323 29.5143C43.8974 29.5492 43.8451 29.5842 43.7927 29.6191C43.7403 29.6365 43.6705 29.654 43.5833 29.654C43.5309 29.654 43.4611 29.654 43.4262 29.6365C43.3738 29.6191 43.3389 29.6016 43.304 29.5841C43.2691 29.5667 43.2342 29.5318 43.1993 29.5143C43.1644 29.4794 43.1295 29.462 43.112 29.4445C43.0771 29.4271 43.0596 29.3922 43.0247 29.3922C42.9898 29.3747 42.9549 29.3747 42.92 29.3747C42.8502 29.3747 42.8153 29.3922 42.7804 29.4445C42.7455 29.4969 42.728 29.5492 42.7106 29.6365C42.7106 29.654 42.7106 29.654 42.6931 29.6714C42.6931 29.6889 42.6757 29.6889 42.6757 29.6889C42.6582 29.6889 42.6408 29.6889 42.6233 29.7063C42.6059 29.7063 42.5709 29.7063 42.5535 29.7063C42.5186 29.7063 42.5011 29.7063 42.4837 29.7063C42.4662 29.7063 42.4488 29.7063 42.4488 29.6889L42.4313 29.6714C42.4313 29.654 42.4313 29.654 42.4313 29.6365C42.4313 29.6191 42.4313 29.6016 42.4313 29.5667C42.4313 29.5318 42.4488 29.4969 42.4488 29.462C42.4662 29.4271 42.4837 29.3747 42.5011 29.3223C42.5186 29.27 42.5535 29.2351 42.5884 29.2002C42.6233 29.1653 42.6757 29.1304 42.728 29.1129C42.7804 29.0954 42.8502 29.078 42.9375 29.078C42.9898 29.078 43.0596 29.078 43.0946 29.0954C43.1469 29.1129 43.1818 29.1304 43.2167 29.1478C43.2516 29.1653 43.2865 29.2002 43.3215 29.2176C43.3564 29.2525 43.3913 29.27 43.4087 29.2874C43.4436 29.3049 43.4611 29.3398 43.496 29.3398C43.5309 29.3573 43.5658 29.3573 43.6007 29.3573C43.6531 29.3573 43.7054 29.3398 43.7403 29.2874C43.7752 29.2525 43.7927 29.1827 43.8102 29.0954C43.8102 29.078 43.8276 29.0605 43.8451 29.0431C43.8625 29.0256 43.8974 29.0256 43.9672 29.0256C44.0196 29.0256 44.072 29.0256 44.0894 29.0431C44.0894 29.0431 44.0894 29.0605 44.0894 29.0954ZM43.6007 30.8234C43.6007 30.7361 43.6007 30.6663 43.5833 30.5965C43.5658 30.5266 43.5309 30.4743 43.496 30.4394C43.4611 30.387 43.4087 30.3521 43.3389 30.3347C43.2691 30.3172 43.1993 30.2997 43.112 30.2997C43.0073 30.2997 42.92 30.3172 42.8502 30.3521C42.7629 30.387 42.6931 30.4394 42.6408 30.4917C42.5709 30.5441 42.5186 30.6139 42.4837 30.7012C42.4313 30.7884 42.3964 30.8583 42.3615 30.963C42.3266 31.0503 42.3091 31.155 42.2917 31.2422C42.2742 31.3295 42.2742 31.4342 42.2742 31.5215C42.2742 31.6088 42.2917 31.6786 42.3091 31.7484C42.3266 31.8182 42.3615 31.8706 42.3964 31.9229C42.4313 31.9753 42.4837 32.0102 42.5535 32.0277C42.6233 32.0451 42.6931 32.0626 42.7804 32.0626C42.8851 32.0626 42.9724 32.0451 43.0422 32.0102C43.1295 31.9753 43.1993 31.9229 43.2516 31.8706C43.3215 31.8182 43.3738 31.7484 43.4087 31.6611C43.4611 31.5739 43.496 31.504 43.5309 31.3993C43.5658 31.3121 43.5833 31.2073 43.6007 31.1201C43.6007 31.0154 43.6007 30.9106 43.6007 30.8234ZM44.0371 30.8059C44.0371 30.9281 44.0196 31.0503 44.0021 31.1724C43.9847 31.2946 43.9498 31.4168 43.8974 31.539C43.8451 31.6611 43.7927 31.7659 43.7229 31.8706C43.6531 31.9753 43.5658 32.0626 43.4785 32.1324C43.3738 32.2022 43.2691 32.272 43.1469 32.3069C43.0247 32.3593 42.8851 32.3767 42.728 32.3767C42.5709 32.3767 42.4313 32.3593 42.3266 32.3244C42.2219 32.2895 42.1172 32.2371 42.0473 32.1673C41.9775 32.0975 41.9252 32.0102 41.8902 31.9055C41.8553 31.8008 41.8379 31.6786 41.8379 31.5564C41.8379 31.4342 41.8553 31.3121 41.8728 31.1899C41.8903 31.0677 41.9252 30.9455 41.9775 30.8234C42.0299 30.7012 42.0822 30.5965 42.1521 30.4917C42.2219 30.387 42.3091 30.2997 42.3964 30.2299C42.5011 30.1601 42.6059 30.0903 42.728 30.0554C42.8502 30.003 42.9898 29.9856 43.1469 29.9856C43.304 29.9856 43.4436 30.003 43.5483 30.0379C43.6531 30.0729 43.7578 30.1252 43.8276 30.195C43.8974 30.2648 43.9498 30.3521 43.9847 30.4568C44.0196 30.5616 44.0371 30.6663 44.0371 30.8059Z" fill="#B9B9B9"/>
<path d="M45.9396 30.5616C45.9396 30.4743 45.9047 30.4045 45.8349 30.3521C45.7651 30.2998 45.6778 30.2823 45.5556 30.2823C45.4509 30.2823 45.3636 30.2998 45.2764 30.3347C45.1891 30.3696 45.1193 30.4219 45.0669 30.4743C44.9971 30.5441 44.9447 30.6139 44.9098 30.6837C44.8575 30.771 44.8226 30.8583 44.8051 30.9455H45.0495C45.224 30.9455 45.3636 30.9281 45.4858 30.9106C45.608 30.8932 45.6952 30.8583 45.7651 30.8234C45.8349 30.7885 45.8872 30.7361 45.9047 30.7012C45.9221 30.6663 45.9396 30.6139 45.9396 30.5616ZM46.3585 30.5266C46.3585 30.6314 46.341 30.7361 46.2887 30.8234C46.2363 30.9106 46.149 30.9979 46.0443 31.0503C45.9396 31.1201 45.8 31.155 45.6254 31.1899C45.4509 31.2248 45.2414 31.2422 44.9971 31.2422H44.7353C44.7178 31.2946 44.7178 31.347 44.7178 31.3993C44.7178 31.4517 44.7178 31.5041 44.7178 31.539C44.7178 31.696 44.7527 31.8182 44.84 31.9055C44.9273 31.9928 45.0495 32.0277 45.224 32.0277C45.3287 32.0277 45.416 32.0277 45.5033 32.0102C45.5905 31.9928 45.6603 31.9753 45.7127 31.9578C45.7651 31.9404 45.8174 31.9229 45.8698 31.9055C45.9047 31.888 45.9396 31.888 45.957 31.888C45.9745 31.888 45.9745 31.888 45.992 31.9055C45.992 31.9229 46.0094 31.9229 46.0094 31.9578C46.0094 31.9753 46.0094 31.9928 46.0094 32.0102C46.0094 32.0277 46.0094 32.0626 45.992 32.08C45.992 32.0975 45.9745 32.1324 45.9745 32.1498C45.957 32.1673 45.957 32.1847 45.9396 32.2022C45.9221 32.2197 45.8872 32.2371 45.8349 32.2546C45.7825 32.272 45.7301 32.2895 45.6603 32.3069C45.5905 32.3244 45.5207 32.3418 45.4334 32.3418C45.3462 32.3593 45.2764 32.3593 45.1891 32.3593C45.0495 32.3593 44.9098 32.3418 44.8051 32.3069C44.7004 32.272 44.6131 32.2197 44.5258 32.1498C44.456 32.08 44.4037 31.9928 44.3688 31.888C44.3339 31.7833 44.3164 31.6611 44.3164 31.539C44.3164 31.4342 44.3339 31.3121 44.3513 31.1899C44.3688 31.0677 44.4037 30.9455 44.456 30.8234C44.5084 30.7012 44.5608 30.5965 44.6306 30.4743C44.7004 30.3696 44.7877 30.2648 44.8749 30.1776C44.9796 30.0903 45.0844 30.0205 45.2065 29.9856C45.3287 29.9332 45.4858 29.9158 45.6429 29.9158C45.7825 29.9158 45.9047 29.9332 45.992 29.9681C46.0792 30.003 46.1665 30.0379 46.2189 30.1078C46.2887 30.1601 46.3236 30.2125 46.3585 30.2823C46.341 30.387 46.3585 30.4568 46.3585 30.5266Z" fill="#B9B9B9"/>
<path d="M48.1913 30.1949C48.1913 30.2124 48.1913 30.2298 48.1913 30.2647C48.1913 30.2996 48.1738 30.3171 48.1738 30.352C48.1564 30.3869 48.1564 30.4044 48.1389 30.4218C48.1215 30.4393 48.1215 30.4567 48.104 30.4567C48.0866 30.4567 48.0691 30.4567 48.0342 30.4393C47.9993 30.4218 47.9818 30.4044 47.9295 30.3869C47.8946 30.3695 47.8422 30.352 47.7898 30.3346C47.7375 30.3171 47.6677 30.3171 47.5979 30.3171C47.528 30.3171 47.4582 30.3345 47.4059 30.352C47.3535 30.3695 47.3011 30.4044 47.2662 30.4393C47.2313 30.4742 47.1964 30.5091 47.179 30.5614C47.1615 30.6138 47.1441 30.6487 47.1441 30.7011C47.1441 30.7709 47.1615 30.8233 47.2139 30.8582C47.2488 30.8931 47.3186 30.9454 47.371 30.9803C47.4408 31.0152 47.5106 31.0502 47.5804 31.0851C47.6502 31.12 47.72 31.1549 47.7898 31.2072C47.8597 31.2596 47.912 31.312 47.9469 31.3818C47.9818 31.4516 48.0167 31.5389 48.0167 31.6436C48.0167 31.7658 47.9993 31.8705 47.9469 31.9577C47.8946 32.0625 47.8422 32.1497 47.7549 32.2195C47.6677 32.2894 47.563 32.3417 47.4582 32.3941C47.3361 32.429 47.2139 32.4464 47.0568 32.4464C46.987 32.4464 46.8997 32.4464 46.8474 32.429C46.7775 32.4115 46.7252 32.3941 46.6554 32.3766C46.603 32.3592 46.5506 32.3417 46.5157 32.3243C46.4808 32.3068 46.4459 32.2894 46.4285 32.2545C46.411 32.237 46.411 32.2195 46.3936 32.2195C46.3936 32.2021 46.3936 32.1846 46.3936 32.1672C46.3936 32.1497 46.3936 32.1323 46.3936 32.1148C46.3936 32.0974 46.3936 32.0799 46.411 32.0625C46.411 32.045 46.4285 32.0276 46.4285 32.0101C46.4285 31.9926 46.4459 31.9752 46.4459 31.9577C46.4459 31.9403 46.4634 31.9228 46.4634 31.9228C46.4634 31.9054 46.4808 31.9054 46.4983 31.9054C46.5157 31.9054 46.5332 31.9228 46.5681 31.9403C46.603 31.9577 46.6379 31.9926 46.6728 32.0101C46.7252 32.0276 46.7775 32.0625 46.8474 32.0799C46.9172 32.0974 47.0044 32.1148 47.0917 32.1148C47.179 32.1148 47.2662 32.0974 47.3186 32.0799C47.3884 32.0625 47.4408 32.0276 47.4757 31.9926C47.5106 31.9577 47.5455 31.9054 47.5629 31.8705C47.5804 31.8181 47.5979 31.7658 47.5979 31.7134C47.5979 31.6436 47.5804 31.5912 47.528 31.5389C47.4931 31.5039 47.4408 31.4516 47.371 31.4167C47.3011 31.3818 47.2313 31.3469 47.1615 31.312C47.0917 31.277 47.0219 31.2421 46.9521 31.1898C46.8823 31.1374 46.8299 31.0851 46.795 31.0152C46.7601 30.9454 46.7252 30.8582 46.7252 30.7534C46.7252 30.6487 46.7426 30.544 46.795 30.4567C46.8299 30.3695 46.8997 30.2822 46.9695 30.2124C47.0393 30.1426 47.1441 30.0902 47.2488 30.0553C47.3535 30.0204 47.4757 30.0029 47.6153 30.0029C47.6851 30.0029 47.7375 30.0029 47.7898 30.0204C47.8422 30.0378 47.8946 30.0378 47.9469 30.0553C47.9993 30.0727 48.0342 30.0902 48.0691 30.1077C48.104 30.1251 48.1389 30.1426 48.1564 30.16C48.1913 30.1426 48.1913 30.16 48.1913 30.1949Z" fill="#B9B9B9"/>
<path d="M52.6068 32.272C52.6068 32.2895 52.6068 32.2895 52.5894 32.3069C52.5894 32.3244 52.5719 32.3244 52.5545 32.3244C52.537 32.3244 52.5196 32.3418 52.4847 32.3418C52.4498 32.3418 52.4323 32.3418 52.3799 32.3418C52.345 32.3418 52.3101 32.3418 52.2752 32.3418C52.2578 32.3418 52.2229 32.3418 52.2229 32.3244C52.2054 32.3244 52.2054 32.3069 52.188 32.3069C52.188 32.2895 52.188 32.2895 52.188 32.272L52.4672 30.9106C52.4672 30.8583 52.4847 30.8234 52.4847 30.771C52.4847 30.7361 52.4847 30.6837 52.4847 30.6488C52.4847 30.5441 52.4672 30.4568 52.4323 30.4045C52.3974 30.3347 52.3276 30.3172 52.2229 30.3172C52.1356 30.3172 52.0483 30.3347 51.9611 30.387C51.8738 30.4394 51.7865 30.5092 51.7167 30.5965C51.6469 30.6837 51.5771 30.7885 51.5073 30.9106C51.4549 31.0328 51.4025 31.155 51.3676 31.2946L51.1756 32.272C51.1756 32.2895 51.1582 32.2895 51.1582 32.3069C51.1582 32.3244 51.1407 32.3244 51.1233 32.3244C51.1058 32.3244 51.0884 32.3418 51.0535 32.3418C51.0186 32.3418 51.0011 32.3418 50.9488 32.3418C50.9138 32.3418 50.8789 32.3418 50.844 32.3418C50.8266 32.3418 50.7917 32.3418 50.7917 32.3244C50.7742 32.3244 50.7742 32.3069 50.7568 32.3069C50.7568 32.2895 50.7568 32.2895 50.7568 32.272L51.036 30.9106C51.0535 30.8583 51.0535 30.8059 51.0535 30.771C51.0535 30.7186 51.0535 30.6837 51.0535 30.6314C51.0535 30.5267 51.036 30.4568 50.9837 30.387C50.9487 30.3347 50.8789 30.2998 50.7742 30.2998C50.6869 30.2998 50.5997 30.3172 50.5124 30.3696C50.4251 30.4219 50.3379 30.4917 50.2681 30.579C50.1982 30.6663 50.1284 30.771 50.0586 30.8932C50.0063 31.0154 49.9539 31.1375 49.919 31.2772L49.727 32.2546C49.727 32.272 49.7095 32.272 49.7095 32.2895C49.7095 32.3069 49.6921 32.3069 49.6746 32.3069C49.6572 32.3069 49.6397 32.3244 49.6048 32.3244C49.5699 32.3244 49.5525 32.3244 49.5001 32.3244C49.4652 32.3244 49.4303 32.3244 49.3954 32.3244C49.3779 32.3244 49.343 32.3244 49.343 32.3069C49.3256 32.3069 49.3256 32.2895 49.3081 32.2895C49.3081 32.272 49.3081 32.272 49.3081 32.2546L49.7444 30.0554C49.7444 30.038 49.7444 30.038 49.7619 30.0205C49.7619 30.003 49.7794 30.003 49.7968 30.003C49.8143 30.003 49.8317 29.9856 49.8492 29.9856C49.8666 29.9856 49.9015 29.9856 49.9364 29.9856C49.9713 29.9856 50.0063 29.9856 50.0237 29.9856C50.0412 29.9856 50.0586 29.9856 50.0761 30.003C50.0935 30.003 50.0935 30.0205 50.0935 30.0205C50.0935 30.038 50.0935 30.038 50.0935 30.0554L50.0063 30.4743C50.0237 30.4219 50.0761 30.3521 50.1284 30.2998C50.1808 30.2299 50.2506 30.1776 50.3204 30.1252C50.3902 30.0729 50.4775 30.0379 50.5648 30.003C50.652 29.9681 50.7393 29.9507 50.844 29.9507C50.9488 29.9507 51.0186 29.9681 51.0884 29.9856C51.1582 30.0205 51.2106 30.0554 51.2629 30.0903C51.3153 30.1427 51.3327 30.195 51.3676 30.2648C51.3851 30.3347 51.4025 30.4045 51.4025 30.4743C51.4375 30.4219 51.4724 30.3521 51.5422 30.2998C51.5945 30.2299 51.6644 30.1776 51.7342 30.1252C51.804 30.0729 51.8912 30.0379 51.9785 30.003C52.0658 29.9681 52.1531 29.9507 52.2403 29.9507C52.345 29.9507 52.4323 29.9681 52.5196 30.003C52.5894 30.0379 52.6592 30.0729 52.6941 30.1252C52.7465 30.1776 52.7639 30.2474 52.7988 30.3172C52.8163 30.387 52.8337 30.4743 52.8337 30.5441C52.8337 30.5965 52.8337 30.6663 52.8163 30.7186C52.8163 30.771 52.7988 30.8234 52.7814 30.8932L52.6068 32.272Z" fill="#B9B9B9"/>
<path d="M55.0503 32.272C55.0503 32.2895 55.0503 32.2895 55.0328 32.3069C55.0328 32.3244 55.0154 32.3244 54.9979 32.3244C54.9805 32.3244 54.963 32.3418 54.9456 32.3418C54.9281 32.3418 54.8932 32.3418 54.8583 32.3418C54.8234 32.3418 54.806 32.3418 54.771 32.3418C54.7536 32.3418 54.7361 32.3418 54.7187 32.3244C54.7012 32.3244 54.7012 32.3069 54.7012 32.3069C54.7012 32.2895 54.7012 32.2895 54.7012 32.272L54.7885 31.8531C54.7536 31.9055 54.7187 31.9579 54.6663 32.0277C54.614 32.0975 54.5441 32.1498 54.4743 32.2022C54.4045 32.2546 54.3172 32.2895 54.23 32.3244C54.1427 32.3593 54.0554 32.3767 53.9507 32.3767C53.846 32.3767 53.7413 32.3593 53.6715 32.3244C53.6016 32.2895 53.5318 32.2546 53.4795 32.2022C53.4271 32.1498 53.3922 32.08 53.3748 32.0102C53.3573 31.9404 53.3398 31.8531 53.3398 31.7659C53.3398 31.7135 53.3398 31.6611 53.3573 31.6088C53.3573 31.5564 53.3748 31.5041 53.3922 31.4342L53.6715 30.0554C53.6715 30.038 53.6889 30.038 53.6889 30.0205C53.6889 30.003 53.7064 30.003 53.7238 30.003C53.7413 30.003 53.7587 29.9856 53.7936 29.9856C53.8285 29.9856 53.846 29.9856 53.8984 29.9856C53.9333 29.9856 53.9682 29.9856 54.0031 29.9856C54.0205 29.9856 54.0554 29.9856 54.0554 30.003C54.0729 30.003 54.0729 30.0205 54.0904 30.0205C54.0904 30.038 54.0904 30.038 54.0904 30.0554L53.8285 31.4168C53.8111 31.4517 53.8111 31.5041 53.8111 31.5564C53.8111 31.6088 53.8111 31.6437 53.8111 31.6961C53.8111 31.7484 53.8111 31.7833 53.8285 31.8357C53.846 31.8706 53.846 31.9055 53.8809 31.9404C53.8984 31.9753 53.9333 31.9928 53.9682 32.0102C54.0031 32.0277 54.038 32.0277 54.0904 32.0277C54.1776 32.0277 54.2649 32.0102 54.3522 31.9579C54.4394 31.9055 54.5267 31.8357 54.5965 31.7484C54.6663 31.6611 54.7361 31.5564 54.8059 31.4342C54.8758 31.3121 54.9107 31.1724 54.9456 31.0328L55.1376 30.0554C55.1376 30.038 55.1376 30.038 55.155 30.0205C55.1725 30.003 55.1725 30.003 55.1899 30.003C55.2074 30.003 55.2248 29.9856 55.2597 29.9856C55.2947 29.9856 55.3121 29.9856 55.3645 29.9856C55.3994 29.9856 55.4343 29.9856 55.4692 29.9856C55.4866 29.9856 55.5215 29.9856 55.5215 30.003C55.539 30.003 55.539 30.0205 55.5565 30.0205C55.5565 30.038 55.5565 30.038 55.5565 30.0554L55.0503 32.272Z" fill="#B9B9B9"/>
<path d="M56.08 32.2719C56.08 32.2893 56.0626 32.2893 56.0626 32.3068C56.0626 32.3242 56.0451 32.3242 56.0277 32.3242C56.0102 32.3242 55.9927 32.3417 55.9578 32.3417C55.9229 32.3417 55.9055 32.3417 55.8531 32.3417C55.8182 32.3417 55.7833 32.3417 55.7484 32.3417C55.7309 32.3417 55.696 32.3417 55.696 32.3242C55.6786 32.3242 55.6786 32.3068 55.6611 32.3068C55.6611 32.2893 55.6611 32.2893 55.6611 32.2719L56.3069 29.008C56.3069 28.9906 56.3069 28.9906 56.3244 28.9731C56.3244 28.9557 56.3418 28.9557 56.3593 28.9557C56.3767 28.9557 56.3942 28.9382 56.4291 28.9382C56.464 28.9382 56.4815 28.9382 56.5338 28.9382C56.5687 28.9382 56.6036 28.9382 56.6385 28.9382C56.656 28.9382 56.6909 28.9382 56.6909 28.9557C56.7084 28.9557 56.7084 28.9731 56.7084 28.9731C56.7084 28.9906 56.7084 28.9906 56.7084 29.008L56.08 32.2719Z" fill="#B9B9B9"/>
<path d="M59.3965 29.3398C59.3965 29.3922 59.379 29.4271 59.3616 29.462C59.3441 29.4969 59.3267 29.5143 59.3092 29.5318C59.2918 29.5493 59.2569 29.5667 59.222 29.5667C59.1871 29.5667 59.1521 29.5842 59.0998 29.5842C59.0474 29.5842 59.0125 29.5842 58.9776 29.5667C58.9427 29.5667 58.9252 29.5493 58.9078 29.5318C58.8903 29.5143 58.8903 29.4969 58.8903 29.462C58.8903 29.4271 58.8903 29.3922 58.9078 29.3398C58.9078 29.2874 58.9253 29.2525 58.9427 29.2176C58.9602 29.1827 58.9776 29.1653 58.9951 29.1478C59.0125 29.1304 59.0474 29.1129 59.0823 29.1129C59.1172 29.1129 59.1521 29.0955 59.2045 29.0955C59.2569 29.0955 59.2918 29.0955 59.3267 29.1129C59.3616 29.1129 59.379 29.1304 59.3965 29.1478C59.414 29.1653 59.414 29.2002 59.414 29.2176C59.414 29.2525 59.3965 29.2874 59.3965 29.3398ZM58.7682 32.272C58.7682 32.2895 58.7507 32.2895 58.7507 32.3069C58.7507 32.3244 58.7333 32.3244 58.7158 32.3244C58.6984 32.3244 58.6809 32.3418 58.646 32.3418C58.6111 32.3418 58.5936 32.3418 58.5413 32.3418C58.5064 32.3418 58.4715 32.3418 58.4366 32.3418C58.4191 32.3418 58.3842 32.3418 58.3842 32.3244C58.3667 32.3244 58.3667 32.3069 58.3493 32.3069C58.3493 32.2895 58.3493 32.2895 58.3493 32.272L58.7333 30.3347H57.5988L57.3544 31.5564C57.3544 31.5913 57.337 31.6262 57.337 31.6786C57.337 31.7135 57.337 31.7484 57.337 31.7833C57.337 31.8706 57.3544 31.9229 57.3893 31.9579C57.4242 31.9928 57.4766 32.0102 57.5639 32.0102C57.6162 32.0102 57.6511 32.0102 57.686 31.9928C57.7209 31.9928 57.7384 31.9753 57.7733 31.9753C57.7908 31.9753 57.8257 31.9579 57.8431 31.9579C57.8606 31.9579 57.878 31.9404 57.8955 31.9404C57.9129 31.9404 57.9129 31.9404 57.9304 31.9579C57.9304 31.9753 57.9478 31.9753 57.9478 32.0102C57.9478 32.0277 57.9478 32.0626 57.9478 32.08C57.9478 32.0975 57.9304 32.1324 57.9304 32.1498C57.9304 32.1673 57.9129 32.2022 57.9129 32.2197C57.8955 32.2371 57.8955 32.2546 57.878 32.272C57.8606 32.2895 57.8431 32.2895 57.8257 32.3069C57.8082 32.3244 57.7733 32.3244 57.7384 32.3418C57.7035 32.3593 57.6686 32.3593 57.6337 32.3593C57.5988 32.3593 57.5639 32.3593 57.5115 32.3593C57.4242 32.3593 57.337 32.3418 57.2672 32.3244C57.1973 32.3069 57.145 32.272 57.0926 32.2371C57.0403 32.2022 57.0053 32.1498 56.9879 32.08C56.9704 32.0102 56.953 31.9404 56.953 31.8531C56.953 31.8357 56.953 31.8182 56.953 31.7833C56.953 31.7659 56.953 31.731 56.953 31.7135C56.953 31.6961 56.953 31.6611 56.9704 31.6437C56.9704 31.6262 56.9704 31.5913 56.9879 31.5739L57.2323 30.3347H56.9181C56.9006 30.3347 56.8832 30.3347 56.8832 30.3172C56.8657 30.2998 56.8657 30.2823 56.8657 30.2474C56.8657 30.2299 56.8657 30.195 56.8657 30.1601C56.8657 30.1252 56.8832 30.1078 56.8832 30.0729C56.9006 30.0554 56.9006 30.0205 56.9181 30.003C56.9355 29.9856 56.953 29.9681 56.9704 29.9681H57.2846L57.3893 29.4445C57.3893 29.4271 57.3893 29.4271 57.4068 29.4096C57.4242 29.3922 57.4242 29.3922 57.4417 29.3922C57.4591 29.3922 57.4766 29.3747 57.5115 29.3747C57.5464 29.3747 57.5639 29.3747 57.6162 29.3747C57.6511 29.3747 57.686 29.3747 57.721 29.3747C57.7384 29.3747 57.7733 29.3747 57.7733 29.3922C57.7908 29.3922 57.7908 29.4096 57.8082 29.4096C57.8082 29.4271 57.8082 29.4271 57.8082 29.4445L57.7035 29.9681H59.1172C59.1696 29.9681 59.2045 29.9856 59.2045 30.003C59.222 30.0205 59.222 30.0554 59.2045 30.1078L58.7682 32.272Z" fill="#B9B9B9"/>
<path d="M62.6077 32.272C62.6077 32.2895 62.6077 32.2895 62.5903 32.3069C62.5903 32.3244 62.5728 32.3244 62.5553 32.3244C62.5379 32.3244 62.5204 32.3418 62.4855 32.3418C62.4506 32.3418 62.4332 32.3418 62.3808 32.3418C62.3459 32.3418 62.311 32.3418 62.2761 32.3418C62.2586 32.3418 62.2237 32.3418 62.2237 32.3244C62.2063 32.3244 62.2063 32.3069 62.1888 32.3069C62.1888 32.2895 62.1888 32.2895 62.1888 32.272L62.4681 30.9106C62.4681 30.8583 62.4855 30.8234 62.4855 30.771C62.4855 30.7361 62.503 30.6837 62.503 30.6488C62.503 30.5441 62.4855 30.4568 62.4506 30.4045C62.4157 30.3347 62.3459 30.3172 62.2412 30.3172C62.1539 30.3172 62.0841 30.3347 61.9968 30.387C61.9096 30.4394 61.8223 30.5092 61.7525 30.5965C61.6827 30.6837 61.6128 30.7885 61.543 30.9106C61.4907 31.0328 61.4383 31.155 61.4034 31.2946L61.2114 32.272C61.2114 32.2895 61.194 32.2895 61.194 32.3069C61.194 32.3244 61.1765 32.3244 61.1591 32.3244C61.1416 32.3244 61.1241 32.3418 61.0892 32.3418C61.0543 32.3418 61.0369 32.3418 60.9845 32.3418C60.9322 32.3418 60.9147 32.3418 60.8798 32.3418C60.8623 32.3418 60.8274 32.3418 60.8274 32.3244C60.81 32.3244 60.81 32.3069 60.7925 32.3069C60.7925 32.2895 60.7925 32.2895 60.7925 32.272L61.0718 30.9106C61.0892 30.8583 61.0892 30.8059 61.0892 30.771C61.0892 30.7186 61.0892 30.6837 61.0892 30.6314C61.0892 30.5267 61.0718 30.4568 61.0369 30.387C61.002 30.3347 60.9322 30.2998 60.8274 30.2998C60.7402 30.2998 60.6529 30.3172 60.5656 30.3696C60.4784 30.4219 60.3911 30.4917 60.3213 30.579C60.2515 30.6663 60.1817 30.771 60.1118 30.8932C60.0595 31.0154 60.0071 31.1375 59.9722 31.2772L59.7802 32.2546C59.7802 32.272 59.7628 32.272 59.7628 32.2895C59.7628 32.3069 59.7453 32.3069 59.7279 32.3069C59.7104 32.3069 59.6929 32.3244 59.658 32.3244C59.6231 32.3244 59.6057 32.3244 59.5533 32.3244C59.5184 32.3244 59.4835 32.3244 59.4486 32.3244C59.4311 32.3244 59.3962 32.3244 59.3962 32.3069C59.3788 32.3069 59.3788 32.2895 59.3613 32.2895C59.3613 32.272 59.3613 32.272 59.3613 32.2546L59.7977 30.0554C59.7977 30.038 59.7977 30.038 59.8151 30.0205C59.8151 30.003 59.8326 30.003 59.85 30.003C59.8675 30.003 59.8849 29.9856 59.9024 29.9856C59.9198 29.9856 59.9548 29.9856 59.9897 29.9856C60.0246 29.9856 60.0595 29.9856 60.0769 29.9856C60.0944 29.9856 60.1118 29.9856 60.1293 30.003C60.1467 30.003 60.1467 30.0205 60.1467 30.0205C60.1467 30.038 60.1467 30.038 60.1467 30.0554L60.0595 30.4743C60.0769 30.4219 60.1293 30.3521 60.1817 30.2998C60.234 30.2299 60.3038 30.1776 60.3736 30.1252C60.4435 30.0729 60.5307 30.0379 60.618 30.003C60.7053 29.9681 60.7925 29.9507 60.8973 29.9507C61.002 29.9507 61.0718 29.9681 61.1416 29.9856C61.2114 30.0205 61.2638 30.0554 61.3161 30.0903C61.3685 30.1427 61.386 30.195 61.4209 30.2648C61.4383 30.3347 61.4558 30.4045 61.4558 30.4743C61.4907 30.4219 61.5256 30.3521 61.5954 30.2998C61.6478 30.2299 61.7176 30.1776 61.7874 30.1252C61.8572 30.0729 61.9445 30.0379 62.0317 30.003C62.119 29.9681 62.2063 29.9507 62.2935 29.9507C62.3983 29.9507 62.4855 29.9681 62.5728 30.003C62.6426 30.0379 62.7124 30.0729 62.7473 30.1252C62.7997 30.1776 62.8171 30.2474 62.8521 30.3172C62.8695 30.387 62.887 30.4743 62.887 30.5441C62.887 30.5965 62.887 30.6663 62.8695 30.7186C62.8695 30.771 62.8521 30.8234 62.8346 30.8932L62.6077 32.272Z" fill="#B9B9B9"/>
<path d="M64.9993 30.6488C64.9295 30.5441 64.8422 30.4568 64.7549 30.387C64.6676 30.3347 64.5629 30.2998 64.4582 30.2998C64.3709 30.2998 64.2837 30.3172 64.2139 30.3696C64.144 30.4045 64.0742 30.4743 64.0219 30.5267C63.9695 30.5965 63.9171 30.6663 63.8822 30.7536C63.8473 30.8408 63.8124 30.9281 63.7775 31.0154C63.7601 31.1026 63.7252 31.2073 63.7252 31.2946C63.7077 31.3819 63.7077 31.4692 63.7077 31.539C63.7077 31.5913 63.7077 31.6611 63.7252 31.7135C63.7426 31.7659 63.7426 31.8182 63.7775 31.8706C63.795 31.9229 63.8299 31.9579 63.8822 31.9753C63.9346 32.0102 63.987 32.0102 64.0568 32.0102C64.144 32.0102 64.2313 31.9928 64.3186 31.9404C64.4058 31.888 64.4931 31.8182 64.5804 31.731C64.6502 31.6437 64.72 31.539 64.7898 31.4168C64.8422 31.2946 64.8945 31.1724 64.9295 31.0154L64.9993 30.6488ZM65.0691 32.272C65.0691 32.3069 65.0516 32.3244 65.0167 32.3244C64.9818 32.3418 64.9469 32.3418 64.8771 32.3418C64.8422 32.3418 64.8247 32.3418 64.7898 32.3418C64.7724 32.3418 64.7549 32.3418 64.7375 32.3244C64.72 32.3244 64.72 32.3069 64.7026 32.3069C64.7026 32.2895 64.7026 32.2895 64.7026 32.272L64.7898 31.8531C64.7724 31.9055 64.7375 31.9579 64.6676 32.0277C64.6153 32.0975 64.5455 32.1498 64.4757 32.2022C64.4058 32.2546 64.3186 32.2895 64.2139 32.3244C64.1266 32.3593 64.0219 32.3767 63.9346 32.3767C63.8124 32.3767 63.6902 32.3593 63.603 32.3069C63.5157 32.2546 63.4459 32.2022 63.3935 32.1324C63.3412 32.0626 63.3063 31.9753 63.2888 31.8706C63.2714 31.7833 63.2539 31.6786 63.2539 31.5739C63.2539 31.4866 63.2539 31.3819 63.2714 31.2597C63.2888 31.1375 63.3237 31.0328 63.3586 30.9106C63.3935 30.7885 63.4459 30.6663 63.5157 30.5616C63.5855 30.4394 63.6553 30.3521 63.7426 30.2474C63.8299 30.1601 63.9346 30.0903 64.0393 30.038C64.1615 29.9856 64.2837 29.9507 64.4233 29.9507C64.5629 29.9507 64.6851 29.9856 64.7898 30.038C64.8945 30.0903 64.9818 30.1776 65.0691 30.2823L65.1214 30.0554C65.1214 30.038 65.1389 30.003 65.1738 30.003C65.2087 29.9856 65.2611 29.9856 65.3134 29.9856C65.3483 29.9856 65.3658 29.9856 65.4007 29.9856C65.4182 29.9856 65.4356 29.9856 65.4531 30.003C65.4705 30.003 65.4705 30.0205 65.4705 30.0205C65.4705 30.038 65.4705 30.038 65.4705 30.0554L65.0691 32.272Z" fill="#B9B9B9"/>
<path d="M67.3899 30.0729C67.3899 30.0729 67.3899 30.0903 67.3899 30.1078C67.3899 30.1252 67.3899 30.1427 67.3899 30.1776C67.3899 30.195 67.3899 30.2299 67.3725 30.2474C67.3725 30.2649 67.355 30.2998 67.355 30.3172C67.3375 30.3347 67.3375 30.3521 67.3201 30.3696C67.3026 30.387 67.3026 30.387 67.2852 30.387C67.2677 30.387 67.2503 30.387 67.2503 30.387C67.2328 30.387 67.2154 30.3696 67.1979 30.3696C67.1805 30.3696 67.163 30.3521 67.1281 30.3521C67.1106 30.3521 67.0757 30.3521 67.0408 30.3521C66.9885 30.3521 66.9187 30.3696 66.8488 30.4219C66.779 30.4743 66.7092 30.5441 66.6394 30.6139C66.5696 30.7012 66.4998 30.8059 66.4474 30.9106C66.395 31.0328 66.3427 31.155 66.3252 31.2946L66.1332 32.272C66.1332 32.2895 66.1158 32.2895 66.1158 32.3069C66.1158 32.3244 66.0983 32.3244 66.0809 32.3244C66.0634 32.3244 66.046 32.3418 66.0111 32.3418C65.9762 32.3418 65.9587 32.3418 65.9063 32.3418C65.8714 32.3418 65.8365 32.3418 65.8016 32.3418C65.7842 32.3418 65.7493 32.3418 65.7493 32.3244C65.7318 32.3244 65.7318 32.3069 65.7144 32.3069C65.7144 32.2895 65.7144 32.2895 65.7144 32.272L66.1507 30.0729C66.1507 30.0554 66.1507 30.0554 66.1682 30.038C66.1682 30.0205 66.1856 30.0205 66.2031 30.0205C66.2205 30.0205 66.238 30.003 66.2554 30.003C66.2729 30.003 66.3078 30.003 66.3427 30.003C66.3776 30.003 66.4125 30.003 66.43 30.003C66.4474 30.003 66.4649 30.003 66.4823 30.0205C66.4998 30.0205 66.4998 30.038 66.4998 30.038C66.4998 30.0554 66.4998 30.0554 66.4998 30.0729L66.4125 30.4743C66.4474 30.4045 66.4998 30.3347 66.5521 30.2823C66.6045 30.2125 66.6569 30.1601 66.7267 30.1252C66.779 30.0729 66.8488 30.038 66.9187 30.0205C66.9885 29.9856 67.0408 29.9856 67.1106 29.9856C67.1456 29.9856 67.163 29.9856 67.1979 29.9856C67.2328 29.9856 67.2503 30.003 67.2852 30.003C67.3026 30.003 67.3375 30.0205 67.355 30.0205C67.3725 30.0205 67.3899 30.038 67.3899 30.038C67.3725 30.038 67.3899 30.0554 67.3899 30.0729Z" fill="#B9B9B9"/>
<path d="M69.2229 30.2649C69.2229 30.2998 69.2229 30.3172 69.2229 30.3521C69.2229 30.387 69.2054 30.4045 69.2054 30.4394C69.188 30.4743 69.188 30.4918 69.1705 30.5092C69.1531 30.5267 69.1356 30.5441 69.1182 30.5441C69.1007 30.5441 69.0658 30.5267 69.0483 30.5092C69.0309 30.4918 68.996 30.4569 68.9436 30.4219C68.9087 30.387 68.8564 30.3696 68.7865 30.3347C68.7342 30.3172 68.6469 30.2998 68.5596 30.2998C68.4549 30.2998 68.3677 30.3172 68.2804 30.3696C68.1931 30.4045 68.1233 30.4743 68.0709 30.5441C68.0186 30.6139 67.9662 30.6837 67.9313 30.7885C67.8964 30.8757 67.8615 30.963 67.844 31.0503C67.8266 31.1375 67.8091 31.2248 67.7917 31.3121C67.7742 31.3993 67.7742 31.4692 67.7742 31.539C67.7742 31.7135 67.8091 31.8357 67.879 31.923C67.9488 32.0102 68.0535 32.0451 68.2106 32.0451C68.3153 32.0451 68.4026 32.0277 68.4898 32.0102C68.5596 31.9928 68.6295 31.9579 68.6818 31.923C68.7342 31.888 68.7865 31.8531 68.804 31.8357C68.8389 31.8182 68.8738 31.8008 68.8913 31.8008C68.9087 31.8008 68.9087 31.8008 68.9262 31.8182C68.9262 31.8357 68.9436 31.8531 68.9436 31.8706C68.9436 31.888 68.9436 31.9055 68.9436 31.9404C68.9436 31.9753 68.9262 31.9928 68.9262 32.0277C68.9262 32.0626 68.9087 32.08 68.8913 32.1149C68.8738 32.1324 68.8738 32.1673 68.8389 32.1848C68.8215 32.2022 68.7865 32.2371 68.7342 32.2546C68.6818 32.2895 68.6295 32.3069 68.5596 32.3418C68.4898 32.3593 68.42 32.3768 68.3502 32.3942C68.2804 32.4117 68.1931 32.4117 68.1233 32.4117C67.8615 32.4117 67.6695 32.3418 67.5299 32.2197C67.4077 32.08 67.3379 31.888 67.3379 31.6262C67.3379 31.5215 67.3379 31.4168 67.3553 31.2946C67.3728 31.1725 67.4077 31.0503 67.4426 30.9456C67.4775 30.8234 67.5299 30.7012 67.5997 30.5965C67.6695 30.4918 67.7393 30.387 67.8266 30.2998C67.9139 30.2125 68.0186 30.1427 68.1408 30.0903C68.2629 30.038 68.4026 30.0205 68.5596 30.0205C68.6295 30.0205 68.6818 30.0205 68.7516 30.038C68.804 30.0554 68.8738 30.0554 68.9262 30.0729C68.9785 30.0903 69.0309 30.1078 69.0658 30.1427C69.1007 30.1776 69.1356 30.195 69.1705 30.2125C69.188 30.23 69.2054 30.2474 69.2229 30.2649C69.2229 30.2474 69.2229 30.23 69.2229 30.2649Z" fill="#B9B9B9"/>
<path d="M70.9856 30.6488C70.9158 30.5441 70.8285 30.4568 70.7412 30.387C70.654 30.3347 70.5493 30.2998 70.4445 30.2998C70.3573 30.2998 70.27 30.3172 70.2002 30.3696C70.1304 30.4045 70.0606 30.4743 70.0082 30.5267C69.9558 30.5965 69.9035 30.6663 69.8686 30.7536C69.8337 30.8408 69.7988 30.9281 69.7638 31.0154C69.7464 31.1026 69.7115 31.2073 69.7115 31.2946C69.694 31.3819 69.694 31.4692 69.694 31.539C69.694 31.5913 69.694 31.6611 69.7115 31.7135C69.7289 31.7659 69.7289 31.8182 69.7638 31.8706C69.7813 31.9229 69.8162 31.9579 69.8686 31.9753C69.9209 32.0102 69.9733 32.0102 70.0431 32.0102C70.1304 32.0102 70.2176 31.9928 70.3049 31.9404C70.3922 31.888 70.4794 31.8182 70.5667 31.731C70.6365 31.6437 70.7063 31.539 70.7762 31.4168C70.8285 31.2946 70.8809 31.1724 70.9158 31.0154L70.9856 30.6488ZM71.0554 32.272C71.0554 32.3069 71.038 32.3244 71.0031 32.3244C70.9681 32.3418 70.9332 32.3418 70.8634 32.3418C70.8285 32.3418 70.8111 32.3418 70.7762 32.3418C70.7587 32.3418 70.7412 32.3418 70.7238 32.3244C70.7063 32.3244 70.7063 32.3069 70.6889 32.3069C70.6889 32.2895 70.6889 32.2895 70.6889 32.272L70.7762 31.8531C70.7587 31.9055 70.7238 31.9579 70.654 32.0277C70.6016 32.0975 70.5318 32.1498 70.462 32.2022C70.3922 32.2546 70.3049 32.2895 70.2002 32.3244C70.1129 32.3593 70.0082 32.3767 69.9209 32.3767C69.7987 32.3767 69.6766 32.3593 69.5893 32.3069C69.502 32.2546 69.4322 32.2022 69.3799 32.1324C69.3275 32.0626 69.2926 31.9753 69.2751 31.8706C69.2577 31.7833 69.2402 31.6786 69.2402 31.5739C69.2402 31.4866 69.2402 31.3819 69.2577 31.2597C69.2751 31.1375 69.3101 31.0328 69.345 30.9106C69.3799 30.7885 69.4322 30.6663 69.502 30.5616C69.5719 30.4394 69.6417 30.3521 69.7289 30.2474C69.8162 30.1601 69.9209 30.0903 70.0256 30.038C70.1478 29.9856 70.27 29.9507 70.4096 29.9507C70.5493 29.9507 70.6714 29.9856 70.7762 30.038C70.8809 30.0903 70.9681 30.1776 71.0554 30.2823L71.1078 30.0554C71.1078 30.038 71.1252 30.003 71.1601 30.003C71.195 29.9856 71.2474 29.9856 71.2998 29.9856C71.3347 29.9856 71.3521 29.9856 71.387 29.9856C71.4045 29.9856 71.4219 29.9856 71.4394 30.003C71.4568 30.003 71.4568 30.0205 71.4568 30.0205C71.4568 30.038 71.4568 30.038 71.4568 30.0554L71.0554 32.272Z" fill="#B9B9B9"/>
<path d="M73.3592 30.1949C73.3592 30.2124 73.3592 30.2298 73.3592 30.2647C73.3592 30.2996 73.3418 30.3171 73.3418 30.352C73.3243 30.3869 73.3243 30.4044 73.3069 30.4218C73.2894 30.4393 73.2894 30.4567 73.272 30.4567C73.2545 30.4567 73.2371 30.4567 73.2022 30.4393C73.1673 30.4218 73.1498 30.4044 73.0974 30.3869C73.0625 30.3695 73.0102 30.352 72.9578 30.3346C72.9055 30.3171 72.8356 30.3171 72.7658 30.3171C72.696 30.3171 72.6262 30.3345 72.5738 30.352C72.5215 30.3695 72.4691 30.4044 72.4342 30.4393C72.3993 30.4742 72.3644 30.5091 72.3469 30.5614C72.3295 30.6138 72.312 30.6487 72.312 30.7011C72.312 30.7709 72.3295 30.8233 72.3818 30.8582C72.4168 30.8931 72.4866 30.9454 72.5389 30.9803C72.6087 31.0152 72.6786 31.0502 72.7484 31.0851C72.8182 31.12 72.888 31.1549 72.9578 31.2072C73.0276 31.2596 73.08 31.312 73.1149 31.3818C73.1498 31.4516 73.1847 31.5389 73.1847 31.6436C73.1847 31.7658 73.1673 31.8705 73.1149 31.9577C73.0625 32.0625 73.0102 32.1497 72.9229 32.2195C72.8356 32.2894 72.7309 32.3417 72.6262 32.3941C72.504 32.429 72.3818 32.4464 72.2248 32.4464C72.1549 32.4464 72.0677 32.4464 72.0153 32.429C71.9455 32.4115 71.8931 32.3941 71.8233 32.3766C71.771 32.3592 71.7186 32.3417 71.6837 32.3243C71.6488 32.3068 71.6139 32.2894 71.5964 32.2545C71.579 32.237 71.579 32.2195 71.5615 32.2195C71.5615 32.2021 71.5615 32.1846 71.5615 32.1672C71.5615 32.1497 71.5615 32.1323 71.5615 32.1148C71.5615 32.0974 71.5615 32.0799 71.579 32.0625C71.579 32.045 71.5964 32.0276 71.5964 32.0101C71.5964 31.9926 71.6139 31.9752 71.6139 31.9577C71.6139 31.9403 71.6313 31.9228 71.6313 31.9228C71.6313 31.9054 71.6488 31.9054 71.6662 31.9054C71.6837 31.9054 71.7012 31.9228 71.7361 31.9403C71.771 31.9577 71.8059 31.9926 71.8408 32.0101C71.8931 32.0276 71.9455 32.0625 72.0153 32.0799C72.0851 32.0974 72.1724 32.1148 72.2597 32.1148C72.3469 32.1148 72.4342 32.0974 72.4866 32.0799C72.5564 32.0625 72.6087 32.0276 72.6437 31.9926C72.6786 31.9577 72.7135 31.9054 72.7309 31.8705C72.7484 31.8181 72.7658 31.7658 72.7658 31.7134C72.7658 31.6436 72.7484 31.5912 72.696 31.5389C72.6611 31.5039 72.6087 31.4516 72.5389 31.4167C72.4691 31.3818 72.3993 31.3469 72.3295 31.312C72.2597 31.277 72.1899 31.2421 72.12 31.1898C72.0502 31.1374 71.9979 31.0851 71.963 31.0152C71.9281 30.9454 71.8931 30.8582 71.8931 30.7534C71.8931 30.6487 71.9106 30.544 71.963 30.4567C71.9979 30.3695 72.0677 30.2822 72.1375 30.2124C72.2073 30.1426 72.312 30.0902 72.4168 30.0553C72.5215 30.0204 72.6436 30.0029 72.7833 30.0029C72.8531 30.0029 72.9055 30.0029 72.9578 30.0204C73.0102 30.0378 73.0625 30.0378 73.1149 30.0553C73.1673 30.0727 73.2022 30.0902 73.2371 30.1077C73.272 30.1251 73.3069 30.1426 73.3243 30.16C73.3593 30.1426 73.3592 30.16 73.3592 30.1949Z" fill="#B9B9B9"/>
<path d="M11.3814 23.9291H0.228516C0.228516 23.9291 1.46772 21.1366 4.67919 21.1366C6.33729 21.1366 14.7674 21.1366 15.9193 21.1366C15.9193 21.1191 14.7674 23.9291 11.3814 23.9291Z" fill="#B9B9B9"/>
<path d="M84.966 20.4907C83.9886 20.4907 83.1508 21.0492 82.7319 21.8696C83.0461 21.4856 83.5174 21.2412 84.0584 21.2412C85.0184 21.2412 85.7863 22.0092 85.7863 22.9691C85.7863 23.9291 85.0184 24.6971 84.0584 24.6971C83.5174 24.6971 83.0461 24.4527 82.7319 24.0687C83.1334 24.889 83.9886 25.465 84.966 25.465C86.3448 25.465 87.4619 24.348 87.4619 22.9691C87.4619 21.6078 86.3448 20.4907 84.966 20.4907Z" fill="#B9B9B9"/>
<path d="M98.5622 23.5801C98.5622 23.5801 97.8117 20.613 96.7994 19.0422C95.4554 16.9477 92.7676 16.4241 92.7676 16.4241C92.7676 16.4241 91.2491 9.61719 84.0407 9.61719C81.318 9.61719 76.8149 9.61719 76.8149 9.61719C76.8149 9.61719 77.8971 12.497 81.1085 12.497C83.3251 12.497 83.4299 12.497 84.1804 12.497C88.0725 12.497 89.3467 16.267 89.3467 16.267H80.1311C80.1311 16.267 81.2656 19.0596 84.4073 19.0596C86.0654 19.0596 89.6259 19.0596 90.7779 19.0596C94.6351 19.0596 95.0889 23.5452 95.0889 23.5452L98.5622 23.5801Z" fill="#B9B9B9"/>
<path d="M7.66351 13.3522L5.77852 13.3348C5.77852 13.3348 5.77852 11.6069 5.77852 11.0309C5.77852 10.7516 5.9007 10.5422 6.24977 10.5422C6.6512 10.5422 7.8206 10.5422 7.8206 10.5422C8.58856 10.5422 9.23434 11.1705 9.23434 11.9559C9.23434 12.7239 8.44893 13.3522 7.66351 13.3522ZM9.46124 13.998C9.46124 13.998 10.8575 13.4569 10.8575 11.9385C10.8575 10.3153 9.75795 9.23315 7.66351 9.23315C6.73847 9.23315 5.95305 9.23315 5.34218 9.23315C4.57422 9.23315 4.10297 9.66949 4.10297 10.4549C4.10297 12.5843 4.10297 17.6109 4.10297 17.6109C4.10297 17.6109 4.06806 18.2567 4.62658 18.6407C5.11528 18.9897 5.81343 18.9723 5.81343 18.9723V14.5565C5.81343 14.5565 6.82574 14.5565 7.38426 14.5565C7.94277 14.5565 8.798 15.0627 9.07726 16.5811C9.35652 18.1171 9.32161 18.9374 9.32161 18.9374H11.0146C11.0146 18.9374 11.0146 16.9826 10.5434 15.6212C10.0372 14.2773 9.46124 13.998 9.46124 13.998Z" fill="#B9B9B9"/>
<path d="M22.29 12.3748C20.5097 12.3748 19.061 13.1776 19.061 14.1725V17.6981C19.061 17.6981 19.0959 18.2566 19.5323 18.6232C19.9337 18.9548 20.6319 18.9722 20.6319 18.9722L20.6144 14.5216C20.6144 13.9979 21.3649 13.5965 22.29 13.5965C23.215 13.5965 23.9655 14.0154 23.9655 14.5216V18.9548H25.5189L25.5363 14.1899C25.5189 13.1951 24.0702 12.3748 22.29 12.3748Z" fill="#B9B9B9"/>
<path d="M16.4777 16.9302C16.4777 17.4363 15.7272 17.8552 14.8022 17.8552C13.8771 17.8552 13.1266 17.4363 13.1266 16.9302V14.539C13.1266 14.0154 13.8771 13.614 14.8022 13.614C15.7272 13.614 16.4777 14.0329 16.4777 14.539V16.9302ZM14.8022 12.3748C13.0219 12.3748 11.5732 13.1776 11.5732 14.1725V17.2443C11.5732 18.2392 13.0219 19.042 14.8022 19.042C16.5824 19.042 18.0311 18.2392 18.0311 17.2443V14.1725C18.0311 13.1951 16.5824 12.3748 14.8022 12.3748Z" fill="#B9B9B9"/>
<path d="M52.6071 16.9302C52.6071 17.4363 51.8566 17.8552 50.9316 17.8552C50.0065 17.8552 49.3084 17.4887 49.3084 16.9651C49.3084 16.3891 50.0938 16.1797 51.1236 16.1622C52.1359 16.1447 52.6071 15.9702 52.6071 15.9702V16.9302ZM50.9316 12.3748C49.1513 12.3748 47.7026 13.1776 47.7026 14.1725L49.256 14.5216C49.256 13.9979 50.0065 13.5965 50.9316 13.5965C51.8566 13.5965 52.6071 14.0154 52.6071 14.5216C52.6071 14.7834 52.4675 15.115 51.5424 15.2022C50.5999 15.2895 47.7201 15.2721 47.7201 17.1221C47.7201 18.3788 49.1687 19.0595 50.949 19.0595C52.7293 19.0595 54.1779 18.2566 54.1779 17.2618V14.1899C54.1605 13.1951 52.7118 12.3748 50.9316 12.3748Z" fill="#B9B9B9"/>
<path d="M63.4629 14.5216C63.4629 13.9979 64.2134 13.5965 65.1385 13.5965C66.0635 13.5965 66.7617 13.963 66.7617 14.4866C66.7617 15.0626 65.9762 15.2721 64.9465 15.2895C63.9342 15.307 63.4629 15.4815 63.4629 15.4815V14.5216ZM64.5276 16.232C65.4701 16.1447 68.3499 16.1622 68.3499 14.3121C68.3499 13.0554 66.9013 12.3748 65.121 12.3748C63.3407 12.3748 61.8921 13.1776 61.8921 14.1725V17.2443C61.8921 18.2392 63.3407 19.042 65.121 19.042C66.9013 19.042 68.3499 18.2392 68.3499 17.2443L66.7966 16.8953C66.7966 17.4014 66.0461 17.8203 65.121 17.8203C64.196 17.8203 63.4455 17.4014 63.4455 16.8953C63.4629 16.6684 63.5851 16.3193 64.5276 16.232Z" fill="#B9B9B9"/>
<path d="M35.869 10.5248C36.8639 10.5248 37.6842 10.9786 37.6842 11.5372L39.3772 11.1706C39.3772 10.0885 37.8064 9.21582 35.869 9.21582C33.9317 9.21582 32.3608 10.0885 32.3608 11.1706V17.0001C32.3608 18.0823 33.9317 18.955 35.869 18.955C37.8064 18.955 39.3772 18.0823 39.3772 17.0001L37.6842 16.6336C37.6842 17.1921 36.8639 17.6459 35.869 17.6459C34.8742 17.6459 34.0538 17.1921 34.0538 16.6336V11.5546C34.0538 10.9786 34.8567 10.5248 35.869 10.5248Z" fill="#B9B9B9"/>
<path d="M27.7531 12.7937C27.3168 12.4969 26.6187 12.4795 26.6187 12.4795V18.9373H28.2942V13.8234C28.2942 13.8234 28.2942 13.1602 27.7531 12.7937Z" fill="#B9B9B9"/>
<path d="M27.4736 9.28564C27.0198 9.28564 26.6533 9.65217 26.6533 10.106C26.6533 10.5598 27.0198 10.9263 27.4736 10.9263C27.9274 10.9263 28.294 10.5598 28.294 10.106C28.294 9.65217 27.9274 9.28564 27.4736 9.28564Z" fill="#B9B9B9"/>
<path d="M46.6902 14.2949C46.6902 13.3 45.2416 12.4972 43.4613 12.4972C42.8504 12.4972 42.2745 12.6019 41.7858 12.759V8.81445H40.2324V14.1553C40.2324 14.2076 40.2149 14.26 40.2149 14.2949V17.3667V17.5762C40.2149 17.5762 40.1975 18.2045 40.6687 18.5885C41.14 18.9725 41.8032 18.9201 41.8032 18.9201L41.7858 17.0002V14.993V14.5916C41.8032 14.0855 42.5363 13.6666 43.4613 13.6666C44.3863 13.6666 45.1369 14.0855 45.1369 14.5916V17.0351V18.955H46.7775L46.6902 17.3842V14.2949Z" fill="#B9B9B9"/>
<path d="M58.8381 15.6037C58.4366 16.9651 58.0876 17.4363 58.0178 17.5236C57.9479 17.4363 57.5989 16.9651 57.1974 15.6037C56.7436 14.0503 56.412 12.5144 56.412 12.5144H54.8237C54.8237 12.5144 54.9634 13.9631 55.7488 16.1273C56.5342 18.2916 57.2149 18.9897 57.2149 18.9897H58.0178H58.0527H58.8555C58.8555 18.9897 59.5362 18.2741 60.3216 16.1273C61.107 13.9631 61.2467 12.5144 61.2467 12.5144H59.6584C59.6235 12.5144 59.2919 14.0503 58.8381 15.6037Z" fill="#B9B9B9"/>
<path d="M72.2769 15.2372C71.2297 15.1499 70.7585 14.8532 70.7585 14.539C70.7585 14.0154 71.509 13.614 72.434 13.614C73.359 13.614 74.1096 14.0329 74.1096 14.539L75.6629 14.1899C75.6106 12.9856 74.2492 12.4446 72.4689 12.4446C70.6886 12.4446 69.2051 13.0031 69.2051 14.347C69.2051 15.8655 71.1424 16.0924 72.1722 16.1622C73.202 16.232 74.1096 16.424 74.1096 16.9651C74.1096 17.5061 73.359 17.8727 72.434 17.8727C71.509 17.8727 70.7585 17.4538 70.7585 16.9476L69.2051 17.2967C69.2051 18.2915 70.6537 19.0944 72.434 19.0944C74.2143 19.0944 75.6629 18.4486 75.6629 17.1745C75.6629 15.2895 73.3241 15.3244 72.2769 15.2372Z" fill="#B9B9B9"/>
</svg>
