<svg width="76" height="36" viewBox="0 0 76 36" fill="none" xmlns="http://www.w3.org/2000/svg">
<path d="M60.2174 19.9209C58.5746 19.9209 57.1592 19.8703 55.7438 19.9714C55.4658 19.9967 55.0614 20.5275 55.0108 20.8813C54.379 25.2033 53.7471 29.5252 53.1911 33.8725C53.0647 34.8329 52.7867 35.3384 51.7251 35.2373C50.8911 35.1615 50.057 35.212 48.9702 35.212C49.6779 30.0813 50.3856 25.1022 51.068 20.022C49.3999 20.022 47.7823 20.022 46.4427 20.022C46.3163 21.4879 46.3669 22.9538 46.0383 24.3187C45.6592 25.8604 44.3702 26.6692 43.1065 27.0736C44.446 29.6769 45.7856 32.2549 47.2768 35.1362C45.6845 35.1362 44.3702 35.1868 43.0812 35.1109C42.8284 35.0857 42.5504 34.6307 42.3988 34.3022C41.6405 32.8109 40.8823 31.2945 40.1493 29.778C39.4416 28.2362 38.279 27.6044 36.434 27.9077C36.1054 30.2582 35.7515 32.634 35.3977 35.0857C34.0581 35.0857 32.7691 35.0857 31.4043 35.0857C32.2636 28.9439 33.0977 22.9033 33.9823 16.6857C37.8746 17.2165 42.0702 15.4725 45.4317 18.9352C45.5581 18.2022 45.6845 17.545 45.8361 16.8121C51.0174 16.8121 56.1735 16.8121 61.4559 16.8121C61.4053 17.444 61.3548 18.0253 61.3042 18.7835C63.1493 17.2923 65.0954 16.5088 67.3196 16.5088C70.9591 16.5088 73.8152 18.4802 74.7503 21.9934C75.8624 26.1637 75.1547 29.9802 71.9954 33.1648C69.5185 35.6417 64.7416 35.7428 62.2899 34.5043C59.4592 33.0637 57.7658 29.6263 58.0438 26.1132C58.1954 23.9648 58.8273 21.9176 60.2174 19.9209ZM71.5657 26.0879C71.591 22.8022 70.3526 20.856 68.3053 20.2747C66.2581 19.6681 64.1603 20.6538 62.7449 22.7769C61.6833 24.3692 61.4811 26.1384 61.7339 27.9582C61.9866 29.7022 62.846 31.067 64.5141 31.6989C66.2328 32.356 67.8504 31.9516 69.2152 30.7637C70.8328 29.3483 71.5405 27.5033 71.5657 26.0879ZM37.546 19.9209C37.3186 21.6143 37.1164 23.156 36.8889 24.9253C38.279 24.7989 39.4164 24.8241 40.4779 24.5967C41.6658 24.3439 42.3988 23.1813 42.2977 22.0692C42.1966 20.9571 41.4131 20.2494 40.0735 20.0978C39.29 20.022 38.5065 19.9967 37.546 19.9209Z" fill="#B9B9B9"/>
<path d="M18.2867 11.5043C18.0339 13.0966 17.8317 14.512 17.6043 15.9779C16.5933 15.8263 15.6581 15.6746 14.723 15.5483C9.18782 14.8911 6.28123 18.8845 5.39662 22.979C4.99222 24.7988 4.99222 26.5933 5.85156 28.2867C6.96365 30.5361 9.31419 31.4966 12.0944 30.8142C13.0548 30.5867 14.0153 30.1823 14.9252 29.7779C15.7845 29.3735 16.5933 28.868 17.6801 28.2614C17.4021 30.0812 17.2252 31.6735 16.8966 33.2405C16.846 33.5438 16.3405 33.8471 15.9867 34.024C13.3329 35.3383 10.4768 35.6669 7.62079 35.1361C3.95596 34.4537 1.40322 31.5724 0.872451 27.2757C0.265859 22.2713 1.37794 17.6966 5.27024 14.1834C9.01089 10.8219 13.4087 10.367 18.2867 11.5043Z" fill="#B9B9B9"/>
<path d="M23.2656 24.0658C25.3634 24.0658 27.3349 24.0658 29.5338 24.0658C29.4074 25.1526 29.281 26.1383 29.1294 27.2252C27.0316 27.2252 24.959 27.2252 22.8107 27.2252C22.5832 28.8175 22.381 30.3087 22.1283 31.9768C24.9843 31.9768 27.7898 31.9768 30.7217 31.9768C30.5953 33.0383 30.5195 33.8977 30.3426 34.757C30.3173 34.9592 29.9382 35.2119 29.7107 35.2119C25.7678 35.2372 21.7997 35.2372 17.6294 35.2372C18.4887 29.0197 19.3481 22.979 20.2074 16.8625C24.0492 16.8625 27.7898 16.8625 31.6821 16.8625C31.581 17.7472 31.5557 18.6318 31.3535 19.4406C31.303 19.668 30.7217 19.9208 30.3931 19.9208C28.548 19.9713 26.6777 19.9966 24.8327 19.9208C23.9986 19.8955 23.7206 20.2494 23.6195 20.9823C23.5184 21.968 23.4173 22.9537 23.2656 24.0658Z" fill="#B9B9B9"/>
<path d="M30.6209 9.15376C31.6319 11.1757 32.7187 13.3241 33.9571 15.7757C32.5923 15.7757 31.556 15.8263 30.545 15.7505C30.267 15.7252 29.9637 15.3461 29.8121 15.0428C29.2055 13.8801 28.6747 12.6922 28.0428 11.5549C27.7143 10.9735 27.3099 10.3922 26.8044 10.0131C25.5154 9.05267 24.8077 9.43178 24.5802 10.9735C24.378 12.5406 24.1 14.1076 23.8473 15.7505C22.7099 15.7505 21.6736 15.7505 20.4604 15.7505C20.6626 14.234 20.8396 12.7933 21.0418 11.3779C21.522 8.06695 22.0528 4.7307 22.5077 1.41972C22.6088 0.661481 22.8868 0.332909 23.6956 0.383458C25.3637 0.459282 27.0571 0.358183 28.7505 0.434007C32.1879 0.585655 34.311 3.69444 32.8956 6.70212C32.4406 7.61201 31.3791 8.3197 30.6209 9.15376ZM25.2374 6.87905C26.1978 6.87905 27.0319 6.95487 27.8407 6.85377C28.7505 6.7274 29.6604 6.323 29.6857 5.28674C29.711 4.65487 29.3824 3.66916 28.9527 3.49224C28.0429 3.11312 26.956 3.16367 25.9198 3.06257C25.844 3.06257 25.667 3.39114 25.6418 3.56807C25.5154 4.6296 25.389 5.71641 25.2374 6.87905Z" fill="#B9B9B9"/>
<path d="M45.71 15.6746C46.1902 12.2878 46.6451 9.0779 47.1506 5.89329C47.2012 5.64055 47.5045 5.26142 47.7319 5.23615C48.4396 5.13505 49.1726 5.16033 49.8803 5.21088C50.2089 5.23615 50.5121 5.46362 51.0429 5.71637C53.6968 4.50319 54.7583 4.60428 56.1737 6.44933C57.3616 5.96912 58.4484 5.33725 59.6363 5.0845C61.6077 4.65483 63.1242 5.91857 62.9978 7.91527C62.8462 10.2911 62.4418 12.6669 62.0879 15.0427C62.0374 15.3207 61.6077 15.7251 61.3044 15.7504C60.5715 15.8515 59.8132 15.7757 58.8528 15.7757C59.0803 14.1076 59.3077 12.5911 59.5099 11.0999C59.6363 10.3164 59.8132 9.53284 59.8638 8.72405C59.9396 7.73834 59.4088 7.23285 58.4989 7.51087C57.4374 7.81416 56.5022 8.31966 56.3253 9.65921C56.1484 11.1504 55.8198 12.6416 55.6935 14.1581C55.5924 15.3713 55.2638 16.079 53.8737 15.8262C53.444 15.7504 52.9638 15.801 52.2814 15.801C52.5088 14.1834 52.711 12.7175 52.9385 11.2515C53.0649 10.4175 53.2418 9.58339 53.2924 8.74933C53.3682 7.71307 52.8374 7.2834 51.8012 7.51087C50.6385 7.76362 49.7792 8.79988 49.6023 10.1142C49.3495 11.9339 49.0715 13.779 48.7935 15.6999C47.8078 15.6746 46.8473 15.6746 45.71 15.6746Z" fill="#B9B9B9"/>
<path d="M64.3877 10.7207C64.4888 7.38447 67.1679 4.83173 70.4283 4.93283C73.3855 5.03393 75.3569 7.13173 75.2811 10.0636C75.18 13.4757 72.5009 16.079 69.1899 15.9526C66.1569 15.8768 64.2866 13.8548 64.3877 10.7207ZM67.5976 10.9482C67.6987 11.8581 67.825 12.8438 68.9371 13.2229C69.9228 13.5768 70.9338 13.0713 71.5404 11.9845C72.2228 10.7713 72.2734 9.0526 71.4393 8.31964C70.9591 7.91524 70.0239 7.63722 69.4426 7.83942C68.0525 8.26909 67.7745 9.58337 67.5976 10.9482Z" fill="#B9B9B9"/>
<path d="M38.4813 5.18558C38.1527 7.3592 37.7989 9.30535 37.5967 11.2515C37.5209 11.9339 37.7736 12.6669 37.8747 13.3998C38.6329 13.1724 39.467 13.0713 40.1241 12.6669C40.5538 12.4141 40.8571 11.757 40.9582 11.2262C41.2868 9.63392 41.5395 7.99107 41.6912 6.37349C41.767 5.4636 42.0956 5.08448 43.0055 5.18558C43.6121 5.23613 44.2439 5.18558 45.0022 5.18558C44.5725 8.19327 44.1681 11.024 43.7384 13.8295C43.4099 15.9273 43.3846 15.9273 41.211 15.7757C40.8571 15.7504 40.5538 15.4218 40.1241 15.1691C39.2648 15.3965 38.1527 15.8515 37.0406 15.9273C35.2714 16.0031 34.0835 14.8658 34.2099 13.1218C34.3868 10.6702 34.8417 8.21854 35.2209 5.7669C35.2461 5.5647 35.6505 5.26141 35.9033 5.23613C36.7121 5.13503 37.4956 5.18558 38.4813 5.18558Z" fill="#B9B9B9"/>
</svg>
