<svg width="72" height="32" viewBox="0 0 72 32" fill="none" xmlns="http://www.w3.org/2000/svg">
<path d="M7.18371 9.51495C6.71338 9.11699 6.08026 8.91801 5.32051 8.91801C3.45731 8.91801 2.33577 10.2928 2.33577 11.6314C2.33577 12.771 3.09552 13.1509 3.76483 13.4946C4.32559 13.784 4.81401 14.0373 4.81401 14.6704C4.81401 15.4482 4.1447 16.2984 3.07743 16.2984C2.39004 16.2984 1.90163 16.0814 1.66647 15.9005L1.55793 15.81L1.48557 15.9186L0.979073 16.7326L0.924805 16.823L0.997161 16.8773C1.44939 17.2391 2.26341 17.4742 3.04125 17.4742C5.21197 17.4742 6.38778 15.9367 6.38778 14.4895C6.38778 13.3318 5.59184 12.9519 4.88636 12.6082C4.3075 12.3188 3.801 12.0655 3.801 11.4505C3.801 10.6546 4.4884 10.0215 5.33859 10.0215C5.80892 10.0215 6.27924 10.1662 6.53249 10.4013L6.62294 10.4918L6.69529 10.3832L7.16562 9.65967L7.21988 9.56922L7.18371 9.51495ZM40.3052 9.51495C39.8168 9.11699 39.2018 8.91801 38.442 8.91801C36.5788 8.91801 35.4573 10.2928 35.4573 11.6314C35.4573 12.771 36.217 13.1509 36.8863 13.4946C37.4471 13.784 37.9355 14.0373 37.9355 14.6704C37.9355 15.4482 37.2662 16.2984 36.1989 16.2984C35.5116 16.2984 35.0231 16.0814 34.788 15.9005L34.6794 15.81L34.6071 15.9186L34.1006 16.7326L34.0463 16.823L34.1187 16.8773C34.5709 17.2391 35.3849 17.4742 36.1628 17.4742C38.3335 17.4742 39.5093 15.9367 39.5093 14.4895C39.5093 13.3318 38.7134 12.9519 38.0079 12.6082C37.429 12.3188 36.9225 12.0836 36.9225 11.4505C36.9225 10.6546 37.6099 10.0215 38.4601 10.0215C38.9304 10.0215 39.4008 10.1662 39.654 10.4013L39.7625 10.4918L39.8349 10.3832L40.3052 9.65967L40.3595 9.56922L40.3052 9.51495ZM31.4957 8.91801C30.1571 8.91801 29.0718 9.55113 28.3301 10.745C27.697 11.758 27.2447 13.368 27.2447 14.6523C27.2447 16.4793 28.1673 17.4742 29.8315 17.4742C31.152 17.4742 32.2374 16.8411 32.9971 15.6291C33.6303 14.6161 34.0644 13.0062 34.0644 11.7219C34.0825 9.91292 33.1599 8.91801 31.4957 8.91801ZM29.9581 16.3527C29.1441 16.3527 28.7462 15.8462 28.7462 14.7789C28.7462 13.7659 29.0899 12.2645 29.524 11.3962C29.9762 10.4556 30.6094 9.98528 31.4053 9.98528C32.2193 9.98528 32.5992 10.4918 32.5992 11.5229C32.5992 12.5178 32.2374 14.1096 31.8032 14.9598C31.3329 15.9005 30.736 16.3527 29.9581 16.3527ZM25.7976 9.06272L26.2498 6.94627L26.286 6.76538L26.1051 6.81965L24.6942 7.21761L24.6218 7.2357L24.6037 7.30806L22.9757 15.2131C22.9395 15.3759 22.9033 15.5749 22.9033 15.7919C22.9033 16.823 23.5364 17.42 24.6218 17.42C25.0198 17.42 25.3092 17.3295 25.3996 17.2934L25.4539 17.2753L25.472 17.2029L25.6348 16.3527L25.671 16.1718L25.4901 16.2261C25.3273 16.2804 25.2007 16.2984 25.1102 16.2984C24.658 16.2984 24.4409 16.0814 24.4409 15.6291C24.4409 15.5025 24.459 15.3759 24.4771 15.2493C24.4771 15.2493 25.3996 10.7812 25.5263 10.0938H26.9191L26.9372 10.0034L27.1181 9.20744L27.1543 9.06272H25.7976ZM19.5206 8.91801C18.3991 8.91801 17.3318 9.11699 16.4997 9.49687L16.4454 9.51495L16.4273 9.56922L14.8536 17.1848L14.8174 17.3295H16.355L16.3731 17.2391L17.8383 10.2385C18.2905 10.0757 18.7789 10.0034 19.2854 10.0034C20.1356 10.0034 20.5879 10.3471 20.5879 10.9802C20.5879 11.1249 20.5698 11.2696 20.5517 11.4143L19.3397 17.2029L19.3035 17.3476H20.8411L20.8592 17.2572L22.0531 11.541C22.0893 11.3601 22.1074 11.143 22.1074 10.9259C22.1616 10.1662 21.8179 8.91801 19.5206 8.91801ZM14.7269 9.49687C14.3109 9.20744 13.3883 8.91801 12.3392 8.91801C10.9282 8.91801 9.75239 9.49687 8.8841 10.5822C8.10626 11.5952 7.58167 13.1509 7.58167 14.4895C7.58167 16.3708 8.7032 17.4742 10.5845 17.4742C12.0497 17.4742 12.918 17.0763 13.2255 16.8954L13.2617 16.8773L13.2798 16.823L14.7631 9.62349L14.7812 9.55114L14.7269 9.49687ZM11.8869 16.1718C11.6156 16.2984 11.1814 16.3889 10.7292 16.3889C9.64385 16.3889 9.11926 15.7739 9.11926 14.5257C9.11926 13.4403 9.48105 12.1017 10.0056 11.2696C10.5483 10.4013 11.3081 9.93101 12.1944 9.93101C12.7009 9.93101 12.9904 10.0395 13.1351 10.0938L11.8869 16.1718Z" fill="#B9B9B9"/>
<path d="M31.4595 23.1543L29.6686 31.7829H26.0508L27.8416 22.9915C27.8959 22.8106 27.914 22.6478 27.914 22.485C27.914 21.7795 27.4798 21.2549 26.3221 21.2549C25.7433 21.2549 25.1825 21.3635 24.7303 21.5082L22.5957 31.7829H18.9598L21.438 19.9163C22.7947 19.3556 24.6941 18.9938 26.8467 18.9938C30.2294 18.9938 31.568 20.2781 31.568 22.1594C31.568 22.4669 31.5318 22.7925 31.4595 23.1543ZM47.9027 31.7648H44.2667L46.8716 19.2109H50.4894L47.9027 31.7648ZM49.0604 17.3477C48.1017 17.3477 47.4504 16.7145 47.4504 15.9186C47.4504 14.8513 48.5539 13.8926 49.7478 13.8926C50.7065 13.8926 51.3577 14.4895 51.3577 15.2855C51.3758 16.3889 50.2543 17.3477 49.0604 17.3477ZM71.0751 14.6704C70.9304 14.2544 70.3334 14.0916 69.6098 14.0916C68.9044 14.0916 68.1265 14.2544 67.5657 14.58L65.2865 17.9084H67.3849L71.0751 14.6704ZM66.1005 18.8129C63.966 18.8129 62.0485 19.1928 60.6918 19.7354L58.2136 31.602H61.8495L62.356 29.1961H65.793L65.3046 31.602H68.9224L70.7133 22.9734C70.7856 22.6297 70.8218 22.3041 70.8218 21.9785C70.8218 20.0972 69.4832 18.8129 66.1005 18.8129ZM67.0954 22.8106L66.2271 27.0435H62.7902L63.9841 21.3273C64.4182 21.1826 64.979 21.074 65.5759 21.074C66.7155 21.074 67.1678 21.6167 67.1678 22.3041C67.1678 22.4669 67.1497 22.6297 67.0954 22.8106ZM14.2566 18.9757C12.122 18.9757 10.2046 19.3556 8.84786 19.8982L6.36963 31.7648H10.0056L10.5483 29.1961H13.9852L13.4606 31.7648H17.0785L18.8693 23.1362C18.9417 22.7925 18.9779 22.4669 18.9779 22.1413C18.996 20.26 17.6393 18.9757 14.2566 18.9757ZM11.0005 27.0435L12.1582 21.4901C12.6104 21.3454 13.1531 21.2369 13.7501 21.2369C14.8897 21.2369 15.3419 21.7795 15.3419 22.4669C15.3419 22.6297 15.3238 22.7925 15.2696 22.9734L14.4375 27.0435H11.0005ZM57.9422 21.5806C57.0739 21.2549 56.1514 21.2369 55.5364 21.4901L53.4199 31.7648H49.784L52.2622 19.8982C53.5646 19.3375 55.3916 18.9757 57.6528 18.9757C58.2497 18.9757 58.6477 18.9938 59.1361 19.048L57.9422 21.5806ZM42.5121 31.0593C41.3724 31.602 39.8167 32 37.646 32C34.5889 32 32.4725 30.39 32.4725 27.2968C32.4725 25.4155 33.1961 23.1181 34.3357 21.6348C35.6019 19.9525 37.4109 19.048 39.5273 19.048C40.269 19.048 40.9564 19.1385 41.3363 19.2651L42.5301 13.4946H46.1661L42.5121 31.0593ZM39.9976 21.074C38.7495 21.074 37.8269 21.7434 37.1757 22.9192C36.5245 24.0769 36.0542 25.9401 36.0542 27.2968C36.0542 28.8344 36.633 29.7026 38.0078 29.7026C38.5143 29.7026 38.9304 29.6303 39.2198 29.4856L40.9383 21.2188C40.6489 21.1102 40.3775 21.074 39.9976 21.074Z" fill="#B9B9B9"/>
<path d="M67.5119 5.26399C68.1269 3.49123 68.5068 1.70039 68.6696 0C67.1682 0.795929 59.1184 4.25099 48.5 2.67722C48.4819 2.67722 59.1727 8.82758 67.5119 5.26399Z" fill="#B9B9B9"/>
<path d="M61.9039 14.1819C63.7309 12.4272 65.3589 10.166 66.589 7.52499C64.5811 8.24856 58.5392 9.65952 48.0113 3.6177C38.6048 -1.791 31.7128 1.5917 30.0305 5.20956C30.0305 5.20956 29.922 5.46281 29.8496 5.66179C29.9581 5.53516 30.0848 5.42663 30.2114 5.31809C30.2114 5.31809 36.7959 -1.44731 47.2515 7.03657C50.9598 10.0394 52.407 11.3961 55.4279 13.006C58.901 14.8512 61.9039 14.1819 61.9039 14.1819Z" fill="#B9B9B9"/>
</svg>
