<svg width="112" height="26" viewBox="0 0 112 26" fill="none" xmlns="http://www.w3.org/2000/svg">
<g clip-path="url(#clip0_197_915)">
<path fill-rule="evenodd" clip-rule="evenodd" d="M108.545 0.895752C106.595 0.895752 105.09 2.4093 105.09 4.35C105.09 6.29155 106.595 7.8051 108.545 7.8051C110.495 7.8051 112 6.29155 112 4.35C112 2.4093 110.495 0.895752 108.545 0.895752ZM108.545 1.38766C110.217 1.38766 111.461 2.69688 111.461 4.35C111.461 6.00313 110.217 7.31318 108.545 7.31318C106.874 7.31318 105.629 6.00313 105.629 4.35C105.629 2.69688 106.874 1.38766 108.545 1.38766ZM107.784 4.57283H108.61L109.735 6.34704H110.31L109.122 4.57283C109.66 4.48034 110.124 4.16417 110.124 3.45869C110.124 2.74396 109.724 2.35381 108.824 2.35381H107.292V6.34704H107.784V4.57283ZM107.784 4.15492V2.77171H108.684C109.168 2.77171 109.632 2.90121 109.632 3.45869C109.632 4.13643 109.038 4.15492 108.434 4.15492H107.784Z" fill="#B9B9B9"/>
<path fill-rule="evenodd" clip-rule="evenodd" d="M91.8698 2.32104H98.8138L92.5592 19.5082H107.261L105.242 25.0554H83.5963L91.8698 2.32104ZM65.3753 2.32104H72.0084L69.0859 10.3521H77.3483L80.2707 2.32104H87.0987L78.8247 25.0554H71.9979L75.3999 15.7058H67.1376L63.7344 25.0554H57.1011L65.3753 2.32104ZM45.3089 25.0554H52.2527L60.5261 2.32104H53.5821L45.3089 25.0554ZM29.0938 25.0554H35.9989L42.2532 7.86903H49.4299L51.4488 2.32104H30.2684L28.2495 7.86903H35.3489L29.0938 25.0554ZM28.3681 2.32104H11.8427C9.48238 2.32104 7.91752 3.83291 7.18264 5.85182L4.99471 11.8648C4.02015 14.5421 5.39496 16.5206 8.03273 16.5206H16.6448C16.9938 16.5206 17.2544 16.8696 17.1132 17.2581L16.5624 18.7708C16.4119 19.1854 15.9032 19.5082 15.5576 19.5082H2.0189L0 25.0554H17.4562C19.3818 25.0554 21.0787 24.1632 22.081 21.4086L24.1596 15.6966C25.1451 12.9899 23.7198 11.05 21.3116 11.05H12.6617C12.1824 11.05 12.0125 10.7011 12.1681 10.2748L12.7188 8.76119C12.9022 8.25666 13.2814 7.86903 13.8969 7.86903H26.3492L28.3681 2.32104Z" fill="#B9B9B9"/>
</g>
<defs>
<clipPath id="clip0_197_915">
<rect width="112" height="24.2083" fill="white" transform="translate(0 0.895752)"/>
</clipPath>
</defs>
</svg>
