<svg width="112" height="18" viewBox="0 0 112 18" fill="none" xmlns="http://www.w3.org/2000/svg">
<path d="M52.7005 15.6257C51.3926 15.6257 50.1442 15.6257 48.8661 15.6257C48.8661 12.8613 48.8661 10.097 48.8661 7.30296C48.5688 7.30296 48.2716 7.30296 48.0041 7.30296C47.9149 7.30296 47.8257 7.39213 47.796 7.4813C47.1124 9.02695 46.4584 10.5726 45.8045 12.0885C45.3289 13.218 44.8533 14.3475 44.348 15.4473C44.3183 15.5365 44.1697 15.6257 44.0805 15.6257C43.0105 15.6257 41.9107 15.6257 40.8406 15.6257C40.7217 15.6257 40.5731 15.5068 40.5136 15.4176C39.503 13.3667 38.5221 11.286 37.5115 9.23502C37.2143 8.64054 36.9468 8.01633 36.6792 7.42185C36.6495 7.36241 36.5306 7.30296 36.4712 7.30296C36.2037 7.27323 35.9659 7.30296 35.6686 7.30296C35.6686 10.097 35.6686 12.8613 35.6686 15.6257C34.4202 15.6257 33.2015 15.6257 31.9531 15.6257C31.9531 11.3454 31.9531 7.06516 31.9531 2.75519C32.2801 2.72546 32.6071 2.69574 32.9637 2.69574C34.5986 2.69574 36.2037 2.66602 37.8385 2.66602C37.9871 2.66602 38.1654 2.81464 38.2249 2.96326C39.0869 4.6278 39.8894 6.29234 40.7514 7.98661C41.2865 9.05667 41.8215 10.097 42.3862 11.1671C42.416 11.2265 42.4754 11.286 42.5349 11.4049C42.7727 10.8698 42.9807 10.424 43.1591 9.91867C43.6941 8.61081 44.1994 7.30296 44.7344 6.02483C45.1506 4.95476 45.5964 3.91442 46.0126 2.84436C46.0423 2.75519 46.1909 2.66602 46.2801 2.66602C48.0635 2.66602 49.847 2.66602 51.6304 2.69574C51.9871 2.69574 52.3438 2.72546 52.7005 2.75519C52.7005 7.03544 52.7005 11.3157 52.7005 15.6257Z" fill="#B9B9B9"/>
<path d="M67.0566 8.10565C69.7614 8.10565 72.4663 8.10565 75.1712 8.10565C75.1712 8.22455 75.1712 8.31372 75.1712 8.43262C75.1712 9.82965 75.2009 11.2267 75.1712 12.6237C75.1415 13.2479 75.0226 13.8721 74.8442 14.4666C74.5767 15.2394 73.8931 15.5367 73.15 15.5664C71.4557 15.6258 69.7614 15.6258 68.0672 15.6555C65.9568 15.6555 63.8464 15.6853 61.736 15.6555C61.082 15.6555 60.3984 15.5069 59.8931 15.0016C59.4472 14.526 59.2689 13.9316 59.2689 13.3371C59.2392 10.5727 59.2392 7.80842 59.2689 5.04409C59.2689 4.27126 59.4769 3.52816 60.2498 3.14175C60.5767 2.96341 60.9631 2.84451 61.3496 2.81479C61.944 2.75534 62.5682 2.72561 63.1924 2.72561C66.1351 2.72561 69.1075 2.69589 72.0502 2.72561C72.5852 2.72561 73.15 2.84451 73.685 2.96341C74.547 3.17147 74.9631 3.79568 75.0523 4.62795C75.1415 5.46022 75.1712 6.32222 75.2307 7.21393C73.8336 7.21393 72.5258 7.21393 71.1585 7.21393C71.1585 7.18421 71.1585 7.09504 71.1585 7.00587C71.1585 6.32222 71.1585 6.29249 70.4748 6.26277C69.2859 6.20332 68.1266 6.11415 66.9377 6.14387C65.8973 6.1736 64.857 6.32222 63.8464 6.41139C63.7572 6.41139 63.668 6.41139 63.5491 6.41139C63.4897 6.88697 63.3708 7.39228 63.3411 7.89759C63.2816 8.46234 63.2519 9.05682 63.2816 9.62158C63.3411 10.5133 63.46 11.405 63.5789 12.2967C63.5789 12.3562 63.7275 12.4751 63.8166 12.4751C65.6595 12.5048 67.5321 12.5345 69.375 12.5643C69.8209 12.5643 70.2668 12.5345 70.7126 12.5048C71.0099 12.4751 71.1882 12.3562 71.1882 11.9995C71.1585 11.6725 71.1882 11.3158 71.1882 10.9294C69.8209 10.9294 68.4536 10.9294 67.0863 10.9294C67.0566 9.94854 67.0566 9.0271 67.0566 8.10565Z" fill="#B9B9B9"/>
<path d="M3.18047 6.32176C3.18047 6.79735 3.18047 7.27293 3.18047 7.77824C4.01274 7.77824 4.84501 7.77824 5.64756 7.77824C7.13376 7.77824 8.61996 7.74851 10.1062 7.77824C10.8493 7.77824 11.5626 7.86741 12.3057 7.98631C13.0191 8.1052 13.4352 8.61051 13.5839 9.29416C13.8217 10.4831 13.8811 11.6721 13.7325 12.861C13.673 13.3961 13.5839 13.9014 13.4352 14.4067C13.2569 15.1201 12.6327 15.3876 12.0977 15.4768C9.60085 15.8334 7.10403 15.5659 4.63694 15.6254C3.7155 15.6551 2.82378 15.6254 1.90234 15.6254C0.980892 15.5956 0 14.8525 0 13.9608C0 13.1286 0 12.2963 0 11.4343C1.01062 11.4343 2.05096 11.4343 3.12102 11.4343C3.12102 11.7613 3.12102 12.1179 3.12102 12.4746C5.58811 12.4746 8.0552 12.4746 10.5223 12.4746C10.5223 11.9693 10.5223 11.464 10.5223 10.929C10.1953 10.929 9.83864 10.929 9.51168 10.929C7.04459 10.8993 4.60722 10.8993 2.14013 10.8695C1.57537 10.8695 0.980892 10.7209 0.535032 10.3642C0.356688 10.2156 0.208068 9.97781 0.178344 9.76975C0.0891721 9.38334 0.0297241 8.9672 0.0297241 8.55106C1.12945e-07 7.39183 1.12945e-07 6.23259 0.0297241 5.07336C0.0297241 4.44915 0.208068 3.8844 0.653928 3.40881C1.04034 3.0224 1.51592 2.9035 2.02123 2.84406C2.61571 2.78461 3.21019 2.75488 3.8344 2.75488C6.24204 2.75488 8.61996 2.75488 11.0276 2.78461C11.4735 2.78461 11.9193 2.9035 12.3355 3.0224C13.138 3.26019 13.465 3.8844 13.5541 4.65722C13.6433 5.51921 13.673 6.38121 13.7028 7.27293C12.603 7.27293 11.5032 7.27293 10.3737 7.27293C10.3737 6.97569 10.3737 6.67845 10.3737 6.35149C7.90658 6.32176 5.55839 6.32176 3.18047 6.32176Z" fill="#B9B9B9"/>
<path d="M15.1294 2.6958C16.2589 2.6958 17.3884 2.6958 18.5477 2.6958C18.5477 5.93572 18.5477 9.14591 18.5477 12.3858C21.4012 12.3858 24.2547 12.3858 27.1379 12.3858C27.1379 9.14591 27.1379 5.93572 27.1379 2.6958C28.3863 2.6958 29.605 2.6958 30.8237 2.6958C30.8237 2.8147 30.8237 2.96332 30.8237 3.08221C30.8237 6.23296 30.8237 9.41342 30.8237 12.5642C30.8237 13.0695 30.7345 13.5748 30.6156 14.0504C30.4076 14.9421 29.7239 15.3582 28.8916 15.4771C28.416 15.5366 27.9107 15.596 27.4054 15.596C24.4033 15.596 21.3715 15.596 18.3693 15.596C17.8046 15.596 17.2101 15.5366 16.6751 15.4177C15.8428 15.2393 15.3672 14.6448 15.2186 13.8126C15.1591 13.4559 15.1294 13.0695 15.1294 12.6831C15.1294 9.44315 15.1294 6.17351 15.1294 2.93359C15.0997 2.84442 15.1294 2.78497 15.1294 2.6958Z" fill="#B9B9B9"/>
<path d="M104.391 0.169189C103.915 1.03119 103.44 1.92291 102.964 2.81463C102.607 3.43883 102.251 4.09276 101.924 4.71696C100.675 7.00571 99.427 9.29445 98.1786 11.5832C97.2275 13.3369 96.2763 15.1204 95.2954 16.8741C95.117 17.1713 95.0279 17.6172 94.7604 17.7658C94.4928 17.9144 94.0767 17.8252 93.72 17.8252C92.6797 17.8252 91.6393 17.8252 90.5396 17.8252C91.0449 16.9038 91.5502 16.0121 92.0555 15.1204C93.185 13.1288 94.3442 11.1373 95.4737 9.11611C96.4546 7.36239 97.4355 5.60868 98.4164 3.88469C99.1001 2.69573 99.754 1.50677 100.438 0.317809C100.497 0.228637 100.616 0.169189 100.705 0.169189C101.954 0.169189 103.172 0.169189 104.391 0.169189Z" fill="#B9B9B9"/>
<path d="M98.1782 17.855C101.507 11.9399 104.836 6.08426 108.195 0.169189C109.444 0.169189 110.722 0.169189 112 0.169189C111.851 0.496153 111.673 0.852841 111.465 1.20953C110.93 2.22014 110.365 3.20104 109.83 4.18193C108.671 6.29233 107.512 8.40273 106.352 10.5429C105.52 12.0588 104.717 13.545 103.915 15.0609C103.469 15.8932 102.994 16.7552 102.548 17.5875C102.429 17.7955 102.31 17.8847 102.072 17.855C100.794 17.855 99.4861 17.855 98.1782 17.855Z" fill="#B9B9B9"/>
<path d="M93.3032 0.139404C94.5516 0.139404 95.8297 0.139404 97.1376 0.139404C96.8106 0.733884 96.4836 1.35809 96.1567 1.98229C95.7703 2.69567 95.3839 3.37932 94.9974 4.09269C93.6896 6.50034 92.3817 8.90798 91.0739 11.3156C90.2416 12.8315 89.4391 14.3177 88.6365 15.8337C88.3393 16.3984 88.0123 16.9929 87.7151 17.5577C87.5962 17.7657 87.4773 17.8549 87.2395 17.8549C85.9316 17.8252 84.6535 17.8549 83.3159 17.8549C86.6153 11.9398 89.9444 6.0842 93.3032 0.139404Z" fill="#B9B9B9"/>
<path d="M58.2001 15.6555C56.8922 15.6555 55.6141 15.6555 54.3359 15.6555C54.3359 11.3158 54.3359 7.00578 54.3359 2.6958C55.6141 2.6958 56.8922 2.6958 58.2001 2.6958C58.2001 7.00578 58.2001 11.3158 58.2001 15.6555Z" fill="#B9B9B9"/>
</svg>
