                    <svg
                      width="73"
                      height="22"
                      viewBox="0 0 73 22"
                      fill="none"
                      xmlns="http://www.w3.org/2000/svg"
                    >
                      <path
                        d="M54.6173 0.081761C54.245 0.153381 53.8908 0.355963 53.5473 0.689508C53.2034 1.02305 53.0313 1.26861 52.5486 2.13419L52.2722 2.62734L51.9448 2.68259C51.5297 2.75216 51.1018 2.80127 50.9197 2.80127C50.6475 2.79923 50.3876 2.71533 50.2303 2.57618C50.138 2.49638 50.0359 2.29993 50.0174 2.16693C49.9968 2.03392 49.956 1.99913 49.874 2.04415C49.7941 2.08917 49.7142 2.21604 49.6591 2.38179C49.6203 2.49843 49.6121 2.568 49.6142 2.75012C49.6142 3.0632 49.6982 3.3374 49.8576 3.56044L49.9272 3.65867L49.8658 3.63616C49.7657 3.60137 49.6224 3.49292 49.5569 3.40084C49.5219 3.35377 49.477 3.2576 49.4564 3.18597L49.4177 3.05706L49.4301 3.20849C49.4465 3.42334 49.5017 3.5584 49.6368 3.70369C49.7719 3.84897 49.9906 3.96356 50.2464 4.02291C50.449 4.06793 51.0935 4.07406 51.3575 4.03314C51.4518 4.01881 51.5334 4.01063 51.5375 4.01472C51.5437 4.01881 51.4498 4.22753 51.3312 4.4772C50.9914 5.19336 50.8093 5.63948 50.6191 6.23291C50.4082 6.88157 50.2381 7.61005 50.1627 8.19731L50.1277 8.4695L49.9601 8.67823C49.0862 9.7791 47.9832 10.571 47.267 10.614C47.169 10.6181 47.0562 10.6181 47.0133 10.6099C46.8437 10.5771 46.6534 10.3009 46.6472 10.0799L46.6451 9.97761L46.7514 9.94281C47.7604 9.59496 48.8691 8.51653 49.4811 7.28263C49.6306 6.98388 49.7472 6.68306 49.8065 6.45391L49.8432 6.31067L49.8576 6.39044C49.8802 6.503 49.8555 6.77515 49.8065 6.96547C49.7637 7.1312 49.5997 7.49749 49.5198 7.61005C49.4955 7.64481 49.4811 7.67142 49.4894 7.67142C49.512 7.67142 49.7513 7.28877 49.8291 7.12712C49.872 7.03503 49.9333 6.87951 49.9642 6.77927C50.0153 6.61144 50.0194 6.57054 50.0194 6.22879C50.0215 5.81546 50.005 5.72337 49.8679 5.43075C49.6409 4.93962 49.1986 4.6143 48.6587 4.54062C48.4478 4.51196 48.2431 4.52629 47.9791 4.59383C47.7316 4.6552 47.6006 4.71249 47.3856 4.85371C46.5426 5.40209 45.6402 6.58282 45.1963 7.71236C45.006 8.19731 44.8544 8.83576 44.8544 9.15704C44.8544 9.31462 44.8462 9.31869 44.6477 9.27775C44.5538 9.25935 44.4104 9.21639 44.3285 9.18159C44.2469 9.14884 44.1712 9.12636 44.1588 9.13451C44.1217 9.15704 44.1362 9.25527 44.1996 9.38825C44.2857 9.56835 44.4862 9.76477 44.695 9.86913C44.7828 9.91414 44.8503 9.95302 44.8482 9.95714C44.8441 9.96122 44.7708 9.94487 44.6847 9.9244C44.4965 9.87527 44.3285 9.79549 44.2202 9.70134C44.1201 9.61745 44.116 9.62564 44.2099 9.73816C44.3594 9.91826 44.5661 10.0512 44.8136 10.127L44.924 10.1617L45.0286 10.4666C45.3577 11.4243 45.8877 11.9563 46.6369 12.073C46.8334 12.1037 47.2098 12.0832 47.4227 12.0321C48.0714 11.8745 48.7938 11.4346 49.428 10.8145L49.6529 10.5956L49.4791 10.7429C49.1006 11.0621 48.6607 11.3425 48.2921 11.4959C48.1101 11.5716 47.7641 11.6822 47.711 11.6822C47.6987 11.6822 47.7847 11.631 47.9013 11.5696C48.6072 11.1972 49.3053 10.571 49.9049 9.77502L50.0684 9.55402L50.0828 9.73408C50.138 10.5137 50.2937 11.0662 50.5738 11.4898C50.7702 11.7845 51.0322 11.9871 51.3106 12.0607C51.4844 12.1057 51.5375 12.0976 51.3946 12.0484C51.2023 11.9829 51.0507 11.8602 50.8991 11.6514L50.8398 11.5696L50.9177 11.6269C51.0363 11.7149 51.241 11.8049 51.3802 11.8274C51.6643 11.8724 51.9695 11.7497 52.0593 11.5512C52.1289 11.3977 52.1026 11.3506 51.9226 11.3138C51.7793 11.2831 51.6606 11.1828 51.5704 11.013C51.4683 10.8186 51.4415 10.6958 51.4292 10.3827C51.3925 9.42919 51.8159 7.86787 52.6202 5.98325C52.8822 5.3714 53.1808 4.73501 53.369 4.38713C53.4489 4.23981 53.5144 4.10066 53.5144 4.07406C53.5164 4.00449 53.4386 3.93287 53.2669 3.84897L53.1153 3.77531L53.2973 3.73847C54.0403 3.59114 54.7627 3.41925 55.4562 3.22281C56.8438 2.82788 57.5863 2.75012 57.9854 2.95065C58.2391 3.07957 58.3824 3.24737 58.4253 3.46836C58.4767 3.73847 58.5546 3.70164 58.8408 3.27192C59.0558 2.95065 59.1724 2.68259 59.2724 2.27947L59.2869 2.21808L59.3136 2.29993C59.3688 2.47796 59.326 2.81765 59.2193 3.02432C59.1971 3.07138 59.1827 3.10822 59.1888 3.10822C59.2152 3.10822 59.3853 2.71738 59.4261 2.56595C59.4854 2.33677 59.4854 2.02164 59.4261 1.83747C59.2667 1.33613 58.7795 1.07421 58.0674 1.109C57.4842 1.1356 56.899 1.29316 55.1721 1.89068C54.953 1.96434 54.7709 2.02164 54.7648 2.01755C54.7297 1.98071 55.0633 1.45687 55.2536 1.25633C55.4789 1.01487 55.6263 0.961663 55.747 1.0783C55.8883 1.2154 55.9904 1.1356 55.9476 0.922784C55.894 0.65472 55.616 0.292529 55.3722 0.17589C55.1474 0.067437 54.8648 0.0326502 54.6173 0.081761ZM48.5808 6.50914C48.718 7.01662 48.0693 8.11341 47.2897 8.69663C47.1035 8.83782 46.8251 9.00766 46.8004 8.99741C46.774 8.98925 46.8885 8.71299 47.052 8.38968C47.3346 7.82899 47.8074 7.13325 48.1612 6.75266C48.3189 6.58484 48.503 6.42318 48.5401 6.42318C48.5479 6.42318 48.5664 6.46206 48.5808 6.50914Z"
                        fill="#353A42"
                      />
                      <path
                        d="M45.7549 0.409191C45.2125 0.550384 44.6685 0.990338 44.0976 1.74746C43.5062 2.53528 43.1092 3.34766 41.9651 6.11626C41.4639 7.32973 41.3084 7.68784 40.981 8.39791C40.7088 8.98928 40.6229 9.16527 40.6085 9.16527C40.6045 9.16527 40.496 9.09772 40.3691 9.01383C39.2641 8.29149 38.0671 7.85768 36.7615 7.70831C36.4587 7.67351 35.4785 7.67351 35.1655 7.70831C33.5386 7.88837 32.0592 8.52068 30.8089 9.57246C30.5797 9.7648 30.6104 9.79346 30.5511 9.32893C30.4221 8.29968 30.4487 7.35222 30.6227 6.69335C30.7987 6.02623 31.0831 5.59037 31.5313 5.30187C31.7277 5.17296 31.8955 5.12383 32.1267 5.12383C32.3559 5.12383 32.4173 5.14837 32.5585 5.29981C32.671 5.42057 32.7508 5.43486 32.8224 5.34483C32.8757 5.27732 32.8675 5.2057 32.7815 5.01947C32.6424 4.71251 32.315 4.34827 32.0039 4.15389L31.83 4.04544L31.9282 4.05772C32.0653 4.07409 32.2925 4.15594 32.4275 4.23778C32.4909 4.27464 32.6158 4.37488 32.7058 4.45877L32.8716 4.61227L32.7774 4.4895C32.6669 4.3442 32.4193 4.10478 32.2822 4.01065C32.1431 3.91448 31.8341 3.77328 31.6663 3.73031C31.4494 3.67302 31.0442 3.67916 30.8191 3.7385C30.0027 3.9595 29.264 4.74324 28.9284 5.74794C28.8424 6.00576 28.7626 6.37412 28.7278 6.6688C28.6972 6.95116 28.6972 7.59575 28.7299 7.91703L28.7544 8.17279L28.6787 8.47974C28.3554 9.78119 27.7108 10.9864 26.9108 11.7845C26.6058 12.0873 26.3623 12.2551 26.2252 12.2551C25.906 12.2551 26.2109 10.878 26.8391 9.48243C27.0847 8.93607 27.3486 8.4552 27.6576 7.98248C27.764 7.82288 27.85 7.6817 27.85 7.66943C27.85 7.65917 27.8274 7.61416 27.8009 7.5712C27.5471 7.17216 27.0192 6.80998 26.6836 6.80792C26.434 6.80586 26.303 6.92868 26.0492 7.41157L25.9531 7.59167L25.8999 7.51186C25.7873 7.33995 25.419 7.12101 25.0977 7.03506C24.8767 6.97571 24.4859 6.97163 24.2792 7.02484C23.8884 7.12921 23.518 7.36248 23.1353 7.74513C22.3127 8.5657 21.6231 9.9101 21.4144 11.099C21.3183 11.6474 21.3694 12.4004 21.5372 12.8997C21.75 13.5361 22.1224 13.8615 22.6647 13.8881C23.1435 13.9106 23.5303 13.7326 23.9825 13.2762C24.0787 13.1801 24.2014 13.043 24.2587 12.9693L24.359 12.8383L24.1933 12.9939C24.0234 13.1576 23.8004 13.3172 23.6244 13.4051C23.4239 13.5075 23.4239 13.4911 23.6285 13.2844C24.0214 12.8936 24.4327 12.3083 24.7315 11.721L24.8112 11.5655V12.0178C24.8133 12.4086 24.8194 12.4966 24.8563 12.6582C24.9545 13.0736 25.0998 13.3172 25.3453 13.4809C25.5745 13.6364 25.7239 13.6753 26.0349 13.6609C26.2907 13.6507 26.4503 13.6118 26.655 13.5075C26.8637 13.4011 27.2934 13.0143 27.5021 12.7463C27.5696 12.6582 27.5656 12.6603 27.4305 12.7831C27.144 13.045 26.8514 13.221 26.6304 13.2681C26.5097 13.2926 26.4503 13.2946 26.481 13.2721C27.365 12.601 28.161 11.4919 28.6644 10.2273C28.7708 9.96125 28.9222 9.50492 28.9468 9.38013C28.9529 9.34121 28.9652 9.30851 28.9734 9.30851C28.9816 9.30851 29.0041 9.38013 29.0245 9.46604C29.0655 9.64614 29.2926 10.3521 29.397 10.6242C29.4358 10.7245 29.4665 10.8166 29.4665 10.8309C29.4665 10.8432 29.3888 10.9557 29.2926 11.0785C28.693 11.8479 28.1876 12.7974 27.9625 13.5709C27.7518 14.2953 27.7333 15.0197 27.9134 15.5599C28.071 16.0305 28.3206 16.3088 28.8015 16.5523C29.0839 16.6956 29.2128 16.7242 29.5381 16.7222C29.8308 16.7222 29.9965 16.6915 30.2646 16.5953C30.6063 16.4684 30.8683 16.2945 31.1568 15.9957C31.5456 15.5926 31.8116 15.0811 31.9446 14.4815C31.9937 14.2605 32.0183 13.6323 31.9876 13.4317C31.9691 13.3172 31.9671 13.3274 31.9651 13.5648C31.9589 14.1582 31.785 14.7107 31.4576 15.165C31.3941 15.2529 31.3389 15.3246 31.3348 15.3246C31.3307 15.3246 31.3696 15.2407 31.4228 15.1384C31.6254 14.7332 31.7072 14.3792 31.7052 13.9024C31.7031 13.53 31.6622 13.2865 31.5026 12.7258C31.4003 12.3656 30.8601 10.79 30.8212 10.7409C30.811 10.7286 30.7414 10.8084 30.3362 11.2934C29.884 11.8357 29.841 11.9011 30.1336 11.6167C30.3628 11.3916 30.6493 11.1399 30.7864 11.0417C30.8212 11.0171 30.7434 11.1113 30.6145 11.2525C30.3874 11.5042 30.0948 11.8561 29.9883 12.0096L29.9351 12.0873L29.9801 12.3513C30.0436 12.7094 30.0436 13.2619 29.9822 13.6057C29.8758 14.1909 29.6998 14.6063 29.4379 14.8908C29.2905 15.0483 29.1821 15.1261 29.0409 15.1711C28.9018 15.2161 28.8117 15.1997 28.7074 15.1056C28.4762 14.8969 28.3779 14.3792 28.472 13.8512C28.6235 12.9959 29.352 11.7374 30.2134 10.8452C31.388 9.62769 32.7304 8.82965 34.0645 8.55342C34.3367 8.49815 34.3878 8.50021 34.1873 8.56158C33.422 8.79691 32.6547 9.22255 31.8566 9.85688C31.7338 9.95305 31.6356 10.0349 31.6356 10.0369C31.6356 10.0411 31.7522 9.96738 31.8975 9.87529C32.8184 9.28598 33.6635 8.91354 34.3899 8.7785C34.6232 8.73348 34.9322 8.6946 35.0488 8.6946H35.1184L34.9874 8.79077C34.5495 9.11819 34.1362 9.62769 33.8763 10.1618C33.5755 10.7716 33.4527 11.3895 33.4527 12.2674C33.4548 12.9713 33.5427 13.4829 33.7576 14.0252C34.3306 15.4781 35.6361 16.3579 37.0173 16.2249C37.8931 16.141 38.728 15.7338 39.4524 15.0401L39.6059 14.8928L39.4299 15.0442C38.8528 15.5456 38.2922 15.8382 37.6394 15.9835C37.3611 16.0448 36.7657 16.049 36.5057 15.9917C36.1906 15.9241 35.8018 15.7625 35.5542 15.6008C35.4621 15.5394 35.4662 15.5415 35.7138 15.6417C36.1784 15.8341 36.6817 15.8955 37.2015 15.828C38.4518 15.6602 39.5977 14.8191 40.5656 13.354C40.7825 13.0245 41.0485 12.5785 41.0485 12.5437C41.0485 12.5253 40.5185 12.1037 40.2607 11.9175C40.1707 11.852 40.0888 11.7906 40.0765 11.7784C40.0663 11.7681 40.3057 11.8847 40.6085 12.0382C40.9134 12.1917 41.1467 12.3043 41.1304 12.2899C41.114 12.2735 40.7886 12.028 40.4101 11.7456C39.7307 11.2422 39.7184 11.234 39.6898 11.279C39.6734 11.3036 39.5711 11.4755 39.4585 11.6617C39.0923 12.2756 38.7751 12.6848 38.3454 13.1044C37.8583 13.5791 37.4368 13.8369 36.917 13.9781C36.7881 14.015 36.7002 14.0211 36.3932 14.0231C35.9696 14.0252 35.8121 13.9945 35.5154 13.8512C35.0631 13.6343 34.7009 13.1903 34.5638 12.691C34.4656 12.3288 34.4574 11.8704 34.5413 11.455C34.7112 10.6181 35.3148 9.9367 36.1169 9.67888C37.0501 9.37807 38.2103 9.66043 39.5015 10.5035C40.1297 10.9128 41.2879 11.8357 42.0207 12.5089C44.0585 14.3853 46.0803 15.8668 47.6272 16.6239C48.99 17.289 50.0316 17.4936 50.9916 17.2869C51.91 17.0864 52.6242 16.5114 53.048 15.6315C53.1501 15.4166 53.3078 14.989 53.3037 14.9296C53.3037 14.9153 53.2687 15.0053 53.2238 15.1261C52.8577 16.1513 52.1085 16.8081 51.1061 16.982C50.7807 17.0373 50.5451 17.0496 50.2671 17.025C50.0295 17.0025 49.553 16.9207 49.5691 16.9063C49.5732 16.9023 49.6531 16.9084 49.7474 16.9207C50.0295 16.9554 50.4677 16.9473 50.7375 16.9002C51.6481 16.7447 52.34 16.2454 52.7531 15.4453C53.1522 14.6738 53.265 13.6261 53.0356 12.8383C52.9825 12.6542 52.9046 12.4823 52.8515 12.425C52.7922 12.3615 52.7061 12.3636 52.653 12.4311C52.6163 12.4782 52.6102 12.515 52.6102 12.6828C52.6102 13.1248 52.4462 13.5054 52.1332 13.8042C51.3433 14.5552 49.8944 14.5183 47.9138 13.6978C47.4962 13.5259 46.5918 13.0798 46.1029 12.8076C45.0243 12.206 43.9399 11.496 42.7838 10.6324L42.3193 10.2866L42.3662 10.1822C42.7406 9.33305 44.1689 6.43549 44.6623 5.52287C45.6569 3.67711 46.3155 2.73991 46.6165 2.73991C46.8579 2.73991 46.633 3.19009 45.9044 4.16822C45.6301 4.53653 45.5852 4.61635 45.6446 4.63682C45.673 4.64703 46.1375 4.31759 46.3995 4.10069C47.0399 3.5707 47.4085 3.08164 47.5638 2.55165L47.6148 2.38181V2.53528C47.6169 2.92817 47.4204 3.42542 47.1054 3.82444C47.0135 3.94313 47.0238 3.93494 47.1976 3.75487C47.6313 3.30673 47.8669 2.81972 47.8974 2.29996C47.9402 1.56534 47.6008 0.908483 47.0012 0.572892C46.6573 0.380543 46.1293 0.310969 45.7549 0.409191ZM25.2696 8.17485C25.3596 8.21167 25.5152 8.33856 25.5397 8.39585C25.5561 8.43065 25.5356 8.50841 25.4497 8.75601C24.9791 10.1024 24.314 11.3343 23.7328 11.94C23.5078 12.1733 23.3359 12.249 23.1967 12.1753C23.1108 12.1283 23.0821 12.0362 23.0821 11.807C23.0821 11.2402 23.3809 10.4155 23.8966 9.56427C24.1728 9.10592 24.5289 8.64551 24.7089 8.51043C24.7601 8.47361 24.7969 8.43679 24.7908 8.43267C24.7765 8.41632 24.5514 8.55136 24.4204 8.65573C24.2096 8.82145 24.048 9.00563 23.7513 9.41081C23.6674 9.52539 23.915 9.07931 24.0296 8.90947C24.2035 8.65165 24.5473 8.31195 24.7192 8.22806C24.9361 8.12164 25.0998 8.10529 25.2696 8.17485ZM34.4124 8.50227C34.4063 8.50841 34.3878 8.51043 34.3735 8.50429C34.3572 8.49815 34.3633 8.49202 34.3858 8.49202C34.4083 8.48996 34.4206 8.49609 34.4124 8.50227Z"
                        fill="#353A42"
                      />
                      <path
                        d="M66.6681 0.578764C66.2138 0.674939 65.8188 0.908215 65.4342 1.30724C64.5417 2.23012 64.2859 3.53974 64.6829 5.11744L64.7443 5.35685L64.671 5.59832C64.4354 6.37997 64.0363 7.2026 63.5985 7.81444C63.171 8.41195 62.657 8.89896 62.3667 8.9808C62.2316 9.01968 62.1682 8.83554 62.2069 8.51631C62.3338 7.48702 63.0092 5.83159 63.7744 4.68158C63.8687 4.53834 63.9466 4.40939 63.9466 4.3951C63.9466 4.37871 63.9218 4.32962 63.8914 4.2846C63.6212 3.87738 63.1134 3.53769 62.7781 3.53769C62.5302 3.53769 62.4013 3.66047 62.1455 4.14544L62.0578 4.31322L62.0026 4.23547C61.8737 4.05949 61.5092 3.84464 61.19 3.75869C60.9652 3.69935 60.5842 3.69935 60.3552 3.76074C59.8968 3.88351 59.3936 4.25186 58.929 4.80637C58.6897 5.08878 58.354 5.60647 58.1617 5.98299C57.6214 7.04502 57.4002 7.95768 57.478 8.80481C57.5682 9.77888 57.92 10.405 58.4644 10.5564C58.88 10.671 59.3606 10.5585 59.7617 10.2556C59.9294 10.1267 60.2609 9.79931 60.3836 9.63564C60.4471 9.55174 60.4413 9.55582 60.3124 9.67859C60.1015 9.87912 59.8375 10.0633 59.6493 10.1431C59.588 10.1677 59.604 10.1451 59.772 9.97121C60.1423 9.58856 60.5088 9.06675 60.8157 8.48563L60.9158 8.29733L60.9034 8.60227C60.8853 9.10769 60.9528 9.50261 61.1163 9.83617C61.2003 10.008 61.2885 10.1042 61.4685 10.225C61.6546 10.3477 61.8243 10.3969 62.0739 10.3969C62.4198 10.3989 62.6859 10.3027 62.9968 10.0674C63.1649 9.94255 63.4985 9.61105 63.6191 9.45146C63.6805 9.37164 63.6681 9.37778 63.5331 9.50669C63.2608 9.76249 62.9293 9.961 62.7003 10.004C62.6389 10.0142 62.5858 10.0203 62.5817 10.0162C62.5776 10.0121 62.641 9.95486 62.7225 9.88938C63.6373 9.1527 64.4885 7.84512 64.9346 6.48433C64.9819 6.34315 65.0227 6.24698 65.0268 6.26745C65.0433 6.35134 65.262 6.93246 65.4115 7.29057L65.5672 7.66506L65.3625 7.9597C64.2534 9.55788 63.8259 10.9555 64.0998 12.085C64.2657 12.7705 64.7118 13.3292 65.2315 13.5031C65.8843 13.72 66.7459 13.4335 67.3332 12.8012C67.9263 12.1648 68.2475 11.2092 68.166 10.3273C68.1515 10.1779 68.1268 10.004 68.1108 9.94255L68.0819 9.83003L68.0902 9.92212C68.133 10.3641 68.1165 10.6137 68.0267 10.9862C67.9757 11.1928 67.869 11.4896 67.8344 11.5243C67.8262 11.5346 67.8344 11.4834 67.855 11.4118C67.9571 11.0414 67.9633 10.4644 67.8669 10.0572C67.7973 9.76455 67.6256 9.25295 67.46 8.85802C67.3431 8.57974 66.9625 7.73462 66.9444 7.71621C66.9279 7.6978 66.269 8.64728 66.1462 8.86828C66.0746 8.99513 66.0993 8.97058 66.3571 8.66363C66.5758 8.39968 66.9749 7.97609 66.8377 8.15207C66.5799 8.47945 66.3097 8.86008 66.1483 9.11996C66.0931 9.20591 66.0931 9.20999 66.1174 9.37576C66.1545 9.62538 66.1483 10.2761 66.1071 10.5421C66.0396 10.978 65.9251 11.3381 65.7719 11.5898C65.5894 11.8927 65.2929 12.1075 65.1372 12.0482C64.8732 11.9479 64.7402 11.4302 64.8366 10.8716C64.949 10.2188 65.3666 9.31843 66.0091 8.34853C66.2896 7.92288 66.4716 7.69982 66.797 7.37858C67.9654 6.22244 69.4081 5.6638 70.4455 5.96256C70.7359 6.04847 70.9426 6.16716 71.2108 6.40455C71.4991 6.66031 71.6914 6.7258 71.8471 6.62143C71.9002 6.58667 71.927 6.5478 71.9554 6.45365C71.9904 6.34723 71.9924 6.31448 71.9718 6.17742C71.9002 5.68221 71.4789 5.24837 70.8426 5.01922L70.7095 4.97008L70.8117 4.98034C71.1535 5.01922 71.6181 5.19928 71.8244 5.3732C71.9352 5.46529 71.8878 5.38547 71.7713 5.27703C71.2536 4.80637 70.2899 4.62018 69.3916 4.81865C68.4361 5.02943 67.5601 5.51031 66.8052 6.23673C66.7068 6.33087 66.6228 6.40455 66.619 6.40044C66.6108 6.39022 66.5206 5.90729 66.4757 5.63514C66.3649 4.97008 66.3386 4.18432 66.4102 3.75255C66.5 3.20415 66.6825 2.80103 66.9811 2.47976C67.196 2.25058 67.4699 2.0746 67.7055 2.01321C67.855 1.97433 67.9221 1.97433 68.0613 2.01526C68.1536 2.04186 68.1944 2.07051 68.3072 2.18919C68.4258 2.31197 68.4522 2.33038 68.5177 2.33038C68.6182 2.33038 68.6631 2.26081 68.6445 2.14212C68.5935 1.82904 68.2454 1.33384 67.904 1.09033C67.7586 0.985976 67.5235 0.871383 67.3637 0.826364L67.2512 0.795669L67.4456 0.803856C67.771 0.816133 68.0473 0.93891 68.3212 1.1906C68.4625 1.32156 68.4604 1.31133 68.3072 1.12717C68.1206 0.904121 67.7953 0.693357 67.507 0.611502C67.3105 0.554209 66.8666 0.537838 66.6681 0.578764ZM61.4091 4.91893C61.4602 4.94554 61.5401 5.00694 61.5871 5.05604L61.6752 5.14401L61.5257 5.5533C61.0978 6.71966 60.6007 7.70188 60.1036 8.35668C59.9603 8.54494 59.6695 8.83554 59.5777 8.88257C59.4096 8.97058 59.2708 8.9317 59.2074 8.78233C59.146 8.63703 59.1847 8.2073 59.2931 7.82465C59.555 6.90586 60.3878 5.5267 60.8976 5.16859C60.9261 5.15019 60.8935 5.1604 60.826 5.19314C60.562 5.31999 60.2691 5.586 60.0113 5.93183C59.8272 6.1815 59.8169 6.18969 59.8845 6.05461C60.0748 5.67402 60.382 5.27498 60.6316 5.08264C60.9281 4.85551 61.1777 4.8023 61.4091 4.91893Z"
                        fill="#353A42"
                      />
                      <path
                        d="M23.0515 2.91564C22.6545 2.96475 22.3312 3.11208 21.9731 3.40879C21.6948 3.64003 21.4042 3.98994 21.0707 4.49947C20.0803 6.01372 19.2679 8.31785 19.0632 10.1984C19.0244 10.5544 18.9896 11.0783 18.9896 11.3259V11.5141L18.873 11.6635C18.255 12.4657 17.4876 13.1491 16.8267 13.4847C16.3744 13.7139 15.9243 13.7896 15.7258 13.6668C15.5948 13.585 15.4495 13.3087 15.4495 13.1368C15.4495 13.0877 15.4618 13.0775 15.56 13.0468C15.6214 13.0263 15.779 12.9568 15.914 12.8913C16.8635 12.4227 17.7598 11.4793 18.3143 10.3621C18.4432 10.1002 18.6417 9.57424 18.6417 9.48627C18.6417 9.46786 18.652 9.45146 18.6642 9.45146C18.7011 9.45146 18.6724 9.88325 18.6233 10.0756C18.5988 10.1656 18.5251 10.3498 18.4596 10.4848C18.3327 10.7406 18.3655 10.7263 18.5271 10.4542C18.6499 10.2454 18.7379 10.0388 18.7993 9.80137C18.8422 9.63972 18.8504 9.55583 18.8525 9.32869C18.8546 8.92763 18.7727 8.63295 18.5824 8.34034C18.2857 7.89014 17.8048 7.63027 17.2687 7.63027C17.0763 7.63027 16.7387 7.69373 16.5709 7.76123C15.9611 8.00678 15.1426 8.80894 14.5696 9.7216C14.3957 9.99988 14.0867 10.6158 13.9905 10.8777C13.7613 11.5019 13.6611 12.0155 13.6631 12.572C13.6652 12.9404 13.7061 13.1634 13.8452 13.5686C14.1522 14.4567 14.6208 14.9683 15.2858 15.1422C15.5089 15.2015 15.9079 15.2056 16.1555 15.1524C16.8451 15.003 17.5654 14.5774 18.2529 13.9124L18.4678 13.7057L18.2529 13.8817C17.8007 14.2561 17.2502 14.5733 16.8205 14.7063C16.4931 14.8086 16.4604 14.8025 16.6875 14.6879C17.1397 14.4587 17.547 14.1498 18.0176 13.6791C18.3634 13.3333 18.6438 12.9998 18.8832 12.6478L19.0285 12.4349L19.0387 12.5045C19.0448 12.5414 19.0653 12.6641 19.0817 12.7767C19.1001 12.8893 19.1451 13.1041 19.184 13.2535C19.4889 14.4158 20.1417 15.1115 20.8476 15.0256L20.9847 15.0092L20.821 14.9949C20.731 14.9867 20.6062 14.9621 20.5427 14.9376C20.3258 14.8557 20.0455 14.5692 19.8695 14.2561L19.804 14.1375L19.9882 14.3196C20.2972 14.6245 20.5877 14.735 20.9172 14.6695C21.1443 14.6245 21.3408 14.4894 21.3756 14.3503C21.4042 14.2418 21.2917 14.1375 21.1464 14.1375C20.9336 14.1375 20.7146 13.7957 20.6103 13.2985C20.5427 12.9793 20.5182 12.7173 20.5182 12.2958C20.5182 11.2195 20.7494 10.3396 21.3346 9.18545C21.7357 8.39149 22.1839 7.71828 23.0085 6.66852C23.8127 5.64948 24.0337 5.30163 24.1565 4.87392C24.2281 4.62632 24.2301 4.62632 24.2179 4.84938C24.2015 5.2034 24.1135 5.5267 23.9396 5.87455C23.8843 5.98505 23.8454 6.07512 23.8495 6.07512C23.8556 6.07512 23.9109 5.99938 23.9703 5.90528C24.3324 5.34866 24.4941 4.76754 24.4327 4.24367C24.4061 4.00631 24.3079 3.69732 24.2056 3.52339C24.1155 3.36991 23.8986 3.15506 23.7575 3.07321C23.5651 2.96475 23.2459 2.89313 23.0515 2.91564ZM23.2889 4.96807C23.3298 5.00081 23.338 5.02536 23.3359 5.12766C23.3359 5.33433 23.2131 5.54104 22.6238 6.33908C21.969 7.22513 21.574 7.82058 21.2057 8.47744C21.0073 8.82941 21.0011 8.811 21.1525 8.33828C21.484 7.30289 22.1429 6.00144 22.6852 5.30777C22.8161 5.13792 22.9594 4.99262 23.031 4.95374C23.0985 4.91692 23.2357 4.92507 23.2889 4.96807ZM17.3955 9.59676C17.4467 9.77888 17.3873 10.0981 17.2441 10.4009C16.9863 10.9432 16.5811 11.4425 16.1146 11.7945C15.9509 11.9172 15.6419 12.1116 15.6112 12.1116C15.5743 12.1116 15.7769 11.6533 15.9672 11.3033C16.3438 10.6117 16.931 9.83411 17.2584 9.59063C17.3505 9.52514 17.3771 9.52514 17.3955 9.59676Z"
                        fill="#353A42"
                      />
                      <path
                        d="M10.4463 3.64221C9.5848 3.67904 8.6476 3.82842 7.8475 4.05965C6.00789 4.5917 4.44859 5.41021 3.15126 6.52336C2.87501 6.76281 2.33888 7.29689 2.11788 7.55879C1.12135 8.73132 0.507459 9.99591 0.292599 11.3178C0.268044 11.4693 0.257812 11.6575 0.257812 11.989C0.257812 12.4126 0.261905 12.4699 0.313062 12.7114C0.41333 13.184 0.57294 13.6138 0.78166 13.978C0.83691 14.0783 0.886023 14.1581 0.890117 14.1581C0.894206 14.1581 0.853281 14.0619 0.795984 13.9453C0.675255 13.6895 0.532015 13.2618 0.472672 12.9774C0.296692 12.1281 0.437885 11.146 0.879882 10.1125C1.00062 9.83426 1.18273 9.48435 1.34234 9.22447C1.46717 9.02394 1.50809 8.98095 1.41396 9.14877C1.31165 9.32884 1.11111 9.80357 1.01289 10.0901C0.57294 11.371 0.605681 12.4249 1.1152 13.4398C1.42215 14.0476 1.81708 14.3975 2.31024 14.4978C2.59672 14.555 2.742 14.5018 2.742 14.3422C2.742 14.2215 2.68266 14.1703 2.37777 14.021C2.11993 13.8962 2.0831 13.8716 1.92349 13.7099C1.725 13.5115 1.62882 13.3416 1.55516 13.0633C1.3935 12.4617 1.57562 11.5225 2.02171 10.6487C2.53533 9.64398 3.45206 8.68017 4.65529 7.88209C5.5147 7.31324 6.55627 6.79349 7.62444 6.40264C7.81064 6.33308 7.96821 6.27987 7.97027 6.28395C7.97435 6.28807 7.90684 6.4047 7.82291 6.54589C6.12247 9.36158 4.77193 11.9092 4.10278 13.5647C3.69557 14.5673 3.51755 15.2692 3.54824 15.7358C3.56051 15.9302 3.63828 16.2923 3.6833 16.3619C3.70171 16.3926 3.7058 16.3926 3.69557 16.364C3.66488 16.2596 3.63828 15.9711 3.64851 15.8278C3.6792 15.394 3.87974 14.7372 4.24807 13.8716C4.46905 13.3457 5.01134 12.1855 5.02567 12.1998C5.02975 12.2039 4.94993 12.3921 4.84969 12.6193C4.43631 13.5524 4.08437 14.5121 3.94113 15.0912C3.73445 15.9363 3.80607 16.3046 4.27672 16.7773C4.55295 17.0556 4.94379 17.3012 5.30396 17.4199C5.65592 17.5385 5.88713 17.4403 5.6682 17.2684C5.50041 17.1354 5.43694 16.8837 5.482 16.5256C5.54336 16.0284 5.84418 15.0584 6.25549 14.0251C6.35166 13.7836 6.35574 13.7795 6.44783 13.7345C6.77113 13.579 7.66538 13.3846 8.38974 13.3109C9.65024 13.18 10.6141 13.3211 11.0213 13.6915C11.4162 14.0537 11.2934 14.6655 10.6591 15.48C10.4585 15.7398 9.92243 16.2841 9.62776 16.5297C8.39386 17.5549 6.87755 18.3366 5.34078 18.7397C4.46905 18.9689 3.42137 19.0814 2.63764 19.0303C2.03194 18.9914 1.65542 18.9136 1.33825 18.7622C0.935132 18.5678 0.78166 18.2854 0.869652 17.8925C0.8983 17.7636 0.900347 17.7248 0.877835 17.6756C0.828726 17.5528 0.691626 17.5385 0.597496 17.6449C0.505413 17.7514 0.482904 17.8782 0.497228 18.2486C0.5402 19.4641 1.09679 20.5179 1.92349 20.9497C2.2468 21.1195 2.59058 21.1952 3.05918 21.1993C3.28222 21.2034 3.30473 21.2055 3.20242 21.2178C3.00188 21.2443 2.72563 21.2403 2.49031 21.2075C1.74341 21.1093 1.08656 20.7573 0.669116 20.2356L0.61182 20.1639L0.646607 20.2356C0.828726 20.6121 1.283 21.0233 1.74546 21.2362C2.19565 21.4449 2.49031 21.5063 3.10215 21.5185C3.75491 21.5329 4.24807 21.4899 5.01747 21.3487C7.09447 20.9722 9.03844 20.035 10.6918 18.6149C11.5595 17.87 12.4516 16.7753 12.8854 15.924C12.9653 15.7685 13.0614 15.5598 13.0982 15.4574C13.1576 15.3019 13.1678 15.2835 13.1739 15.3367C13.1821 15.4288 13.1064 15.7869 13.0225 16.0386C12.9305 16.3149 12.7074 16.7712 12.5355 17.027C12.4619 17.1375 12.4066 17.2275 12.4107 17.2275C12.4148 17.2275 12.4844 17.1395 12.5642 17.0331C12.9489 16.5195 13.2374 15.9445 13.3827 15.394C13.4952 14.9664 13.5198 14.4445 13.4441 14.0742C13.4031 13.8757 13.2702 13.4828 13.1617 13.2475C12.824 12.5067 11.983 11.9522 10.9926 11.8171C10.6959 11.7762 10.123 11.7741 9.85489 11.8151C9.6175 11.8498 9.6175 11.8498 9.6175 11.8294C9.6175 11.8192 9.67071 11.7905 9.7362 11.766C10.0472 11.6411 10.7082 11.2626 11.1318 10.97C12.5355 9.99591 13.7326 8.75587 14.3301 7.65088C14.5225 7.29483 14.6862 6.82215 14.7291 6.49473L14.7475 6.37196L14.7639 6.47221C14.7865 6.61545 14.7639 6.949 14.7148 7.19253C14.6596 7.46468 14.5327 7.82686 14.3833 8.14201C14.3179 8.28319 14.2769 8.37936 14.2953 8.35683C14.371 8.25864 14.7189 7.51583 14.7926 7.29072C14.9338 6.86305 14.9665 6.66866 14.9665 6.2594C14.9645 5.93812 14.9604 5.88083 14.9112 5.69669C14.8437 5.44703 14.6555 5.05413 14.5061 4.85772C14.279 4.55484 13.9598 4.29702 13.616 4.13741C13.3888 4.03305 12.7954 3.8366 12.5151 3.77317C11.9134 3.64016 11.3507 3.60333 10.4463 3.64221ZM11.6945 5.72944C12.247 5.78466 12.5826 5.95043 12.7217 6.23486C12.7934 6.38424 12.8097 6.61957 12.7586 6.84258C12.7115 7.05543 12.5417 7.38894 12.3473 7.65294C12.1692 7.89029 11.674 8.39777 11.3773 8.64331C10.743 9.16924 9.89377 9.73195 8.91155 10.2804C8.41021 10.5607 7.70627 10.9126 7.72061 10.8779C7.72674 10.8595 7.86183 10.6262 8.01734 10.3581C9.05273 8.58602 9.76486 7.29072 9.95312 6.84258C10.1762 6.30648 10.1209 6.1653 9.61342 5.98318L9.42723 5.91769L9.56841 5.8931C10.4667 5.73557 11.1993 5.6803 11.6945 5.72944Z"
                        fill="#353A42"
                      />
                      <path
                        d="M57.1615 4.04754C56.7851 4.18259 56.3045 4.69621 55.6187 5.69684C55.5042 5.86462 55.414 5.98538 55.4223 5.96285C55.5862 5.50039 55.5841 5.08705 55.4182 4.7801C55.3547 4.66141 55.1521 4.46907 55.015 4.39338C54.8721 4.31764 54.6303 4.25421 54.4791 4.25421C54.3704 4.25421 54.3482 4.26035 54.3276 4.29717C54.3091 4.33403 54.3132 4.35038 54.3482 4.39539C54.4911 4.57138 54.4894 4.58163 53.9429 5.77258C53.4619 6.82436 53.2555 7.34205 53.02 8.08079C52.8684 8.56166 52.7704 8.93406 52.709 9.27169C52.6477 9.60932 52.6415 10.2498 52.6987 10.4544C52.7951 10.8064 52.9813 11.054 53.2473 11.185C53.4293 11.275 53.4598 11.2689 53.3247 11.1727C53.1901 11.0745 53.1184 10.9844 53.0406 10.8167C52.9261 10.5711 52.9359 10.5609 53.1143 10.7368C53.2102 10.831 53.3206 10.9169 53.3882 10.9496C53.5887 11.0479 53.8774 11.052 53.9734 10.9558C54.0512 10.878 54.0389 10.8003 53.9326 10.6816C53.8387 10.5752 53.7975 10.477 53.7975 10.3521C53.7975 10.2682 54.0105 9.62572 54.176 9.20621C54.6365 8.04187 55.2707 6.88778 55.9441 5.98332C56.1632 5.6907 56.4989 5.29166 56.5149 5.30599C56.519 5.31213 56.4865 5.40216 56.4412 5.50858C56.3432 5.73777 56.2307 6.08768 56.1797 6.32301C56.1509 6.44579 56.1406 6.58083 56.1406 6.80183C56.1406 7.06377 56.1467 7.12925 56.1875 7.2561C56.241 7.43006 56.3699 7.62647 56.4968 7.73084L56.5866 7.80452L56.503 7.67561C56.3778 7.48122 56.3329 7.33184 56.3226 7.06784L56.3144 6.84277L56.3555 6.98601C56.4824 7.41367 56.7114 7.67355 56.9161 7.6224C56.9795 7.60605 56.9733 7.62034 57.1084 7.20087C57.2332 6.8141 57.395 6.4151 57.7406 5.62522C58.0519 4.91927 58.0804 4.83739 58.0824 4.67166C58.0824 4.45272 57.972 4.32377 57.5791 4.08437C57.4317 3.99638 57.3296 3.98615 57.1615 4.04754Z"
                        fill="#353A42"
                      />
                      <path
                        d="M42.0752 4.29525C41.7375 4.53466 41.0969 4.88251 40.6283 5.08304C40.1352 5.29382 39.552 5.46161 39.0486 5.53735C38.7375 5.58236 38.1339 5.58236 37.876 5.53529C37.4116 5.44934 37.0739 5.28768 36.988 5.10351C36.9614 5.04622 36.9409 5.03188 36.8959 5.03188C36.812 5.03188 36.771 5.08921 36.771 5.20787C36.771 5.4432 36.9041 5.71741 37.1271 5.94248C37.3624 6.17987 37.6305 6.33947 38.0397 6.48683C38.2976 6.58093 38.2485 6.58913 37.8802 6.51545C37.5548 6.44795 37.2724 6.33947 37.0493 6.19009C36.8427 6.05298 36.7138 5.91386 36.6135 5.71741C36.5378 5.56803 36.5357 5.60485 36.6115 5.80336C36.7936 6.29239 37.3461 6.68324 38.0664 6.83261C38.5063 6.9247 39.1427 6.93698 39.685 6.86334C39.9919 6.8224 40.614 6.70371 40.8432 6.64436C41.0028 6.6014 41.0191 6.59119 41.0519 6.5257C41.0703 6.48682 41.2176 6.1246 41.3773 5.72354C41.5389 5.32043 41.674 4.99507 41.6761 4.99914C41.6802 5.00326 41.5941 5.31635 41.4879 5.69694C41.3793 6.07757 41.2954 6.39062 41.2995 6.39474C41.3015 6.39881 41.5142 5.90772 41.77 5.30403C42.0237 4.69837 42.2304 4.20316 42.2263 4.19904C42.2243 4.19702 42.1547 4.23998 42.0752 4.29525Z"
                        fill="#353A42"
                      />
                      <path
                        d="M71.982 7.54848C71.8057 7.60375 71.6768 7.81042 71.6361 8.09484C71.5949 8.40179 71.683 8.72102 71.8408 8.82744C71.9305 8.8888 72.078 8.89494 72.1884 8.84379C72.2889 8.79675 72.4342 8.64939 72.5178 8.51027L72.5833 8.39771L72.5734 8.54095C72.559 8.73329 72.5137 8.85812 72.4136 8.96862C72.3074 9.08937 72.342 9.08937 72.4791 8.96862C72.6694 8.79675 72.7575 8.54915 72.7411 8.23194C72.7266 7.93933 72.6039 7.72446 72.377 7.60169C72.2621 7.54033 72.0821 7.51574 71.982 7.54848Z"
                        fill="#353A42"
                      />
                      <path
                        d="M68.061 9.79131C68.061 9.81379 68.0671 9.81993 68.0733 9.80358C68.0795 9.78929 68.0774 9.77088 68.0712 9.76474C68.0651 9.75659 68.0589 9.76882 68.061 9.79131Z"
                        fill="#353A42"
                      />
                      <path
                        d="M53.3285 14.7846C53.3285 14.8071 53.3347 14.8132 53.3409 14.7969C53.3471 14.7826 53.345 14.7642 53.3388 14.758C53.3327 14.7499 53.3265 14.7621 53.3285 14.7846Z"
                        fill="#353A42"
                      />
                      <path
                        d="M53.308 14.8662C53.308 14.8886 53.3142 14.8948 53.3204 14.8784C53.3266 14.8641 53.3245 14.8457 53.3183 14.8396C53.3121 14.8314 53.306 14.8437 53.308 14.8662Z"
                        fill="#353A42"
                      />
                    </svg>