                    <svg
                      xmlns="http://www.w3.org/2000/svg"
                      width="124"
                      height="27"
                      viewBox="0 0 124 27"
                      fill="none"
                    >
                      <path
                        d="M58.7704 0.720703H34.9331L33.0261 6.95191H41.0778L35.145 26.2792H42.8789L48.8117 6.95191H56.8635L58.7704 0.720703Z"
                        fill="#353A42"
                      />
                      <path
                        d="M7.38634 4.73416L5.37341 11.4934C4.41992 14.4506 6.11502 16.6685 9.08144 16.6685H18.7223C19.1461 16.6685 19.4639 17.091 19.252 17.5134L18.7223 19.2032C18.6164 19.6257 17.9807 20.0481 17.6629 20.0481H2.40699L0.5 26.2794H20.0996C22.2185 26.2794 24.1255 25.3288 25.0789 22.1604L27.0919 15.718C28.0454 12.6552 26.2443 10.5429 23.5957 10.5429H13.8489C13.3192 10.5429 13.1073 10.1205 13.2132 9.698L13.743 8.00818C13.9549 7.48012 14.2727 7.05766 15.0143 7.05766H28.9989L30.9059 0.826454H12.3657C9.7171 0.720841 8.022 2.51627 7.38634 4.73416Z"
                        fill="#353A42"
                      />
                      <path
                        d="M106.973 20.048L112.906 0.720703H105.066L97.332 26.2792H121.593L123.5 20.048H106.973Z"
                        fill="#353A42"
                      />
                      <path
                        d="M92.3539 0.720703L89.3874 10.5428H80.0644L83.1368 0.720703H75.6148L67.8809 26.2792H75.2969L78.2633 16.4571H87.5864L84.62 26.2792H92.2479L100.088 0.720703H92.3539Z"
                        fill="#353A42"
                      />
                      <path
                        d="M62.7939 0.720703L54.9541 26.2792H62.7939L70.5278 0.720703H62.7939Z"
                        fill="#353A42"
                      />
                    </svg>