                    <svg
                      width="81"
                      height="12"
                      viewBox="0 0 81 12"
                      fill="none"
                      xmlns="http://www.w3.org/2000/svg"
                    >
                      <path
                        d="M9.69402 8.13158C9.69402 9.05779 8.93464 9.81717 8.00842 9.81717H4.23454C4.66601 9.30517 4.92488 8.64934 4.92488 7.93023C4.92488 7.21112 4.66601 6.55529 4.23454 6.04329H8.00842C8.93464 6.04329 9.69402 6.80267 9.69402 7.72888V8.12583V8.13158ZM2.08872 3.67886V3.28191C2.08872 2.35569 2.8481 1.59632 3.77431 1.59632H7.55395C7.12248 2.10832 6.8636 2.76415 6.8636 3.48326C6.8636 4.20237 7.12248 4.85819 7.55395 5.3702H3.77431C2.8481 5.3702 2.08872 4.61082 2.08872 3.68461M9.51568 0.152344H2.26706C1.20853 0.152344 0.339844 1.02103 0.339844 2.07956V9.32818C0.339844 10.3925 1.20853 11.2554 2.26706 11.2554H9.51568C10.58 11.2554 11.4429 10.3867 11.4429 9.32818V2.07956C11.4429 1.01527 10.5742 0.152344 9.51568 0.152344Z"
                        fill="#353A42"
                      />
                      <path
                        d="M45.6671 2.3269H47.6864C48.6758 2.3269 49.4812 3.1208 49.5043 4.11029C49.487 5.09978 48.6816 5.89368 47.6864 5.89368H45.6671V2.3269ZM48.2559 0.169571H43.8549C43.6651 0.169571 43.5098 0.324899 43.5098 0.514744V11.2956H45.3219C45.5118 11.2956 45.6671 11.1403 45.6671 10.9505V8.0395H46.7832C47.1974 8.0395 47.577 8.26387 47.7726 8.6263L48.8945 10.6973C49.0958 11.0655 49.4755 11.2899 49.8955 11.2899H51.6673L49.7286 7.70584C50.8677 7.15931 51.6616 5.99723 51.6673 4.65106V3.56952C51.6673 1.68833 50.1428 0.163818 48.2559 0.163818"
                        fill="#353A42"
                      />
                      <path
                        d="M67.5918 0.169678H63.1909C63.001 0.169678 62.8457 0.325005 62.8457 0.51485V11.2957H64.6579C64.8477 11.2957 65.003 11.1404 65.003 10.9506V2.32701H67.0223C68.029 2.32701 68.8402 3.13816 68.8402 4.14491V11.29H69.87C70.4913 11.29 70.9918 10.7837 70.9918 10.1682V3.58113C70.9918 1.69994 69.4673 0.175431 67.5803 0.175431"
                        fill="#353A42"
                      />
                      <path
                        d="M55.3312 5.88804V2.32701H57.3504C58.3572 2.32701 59.1683 3.13816 59.1683 4.14491V5.88804H55.3312ZM57.92 0.169678H53.519C53.3292 0.169678 53.1738 0.325005 53.1738 0.51485V11.2957H54.986C55.1758 11.2957 55.3312 11.1404 55.3312 10.9506V8.03961H59.1683V11.2842H60.1981C60.8194 11.2842 61.3199 10.778 61.3199 10.1624V3.58113C61.3199 1.69994 59.7954 0.175431 57.9084 0.175431"
                        fill="#353A42"
                      />
                      <path
                        d="M38.0212 5.88793H36.0019V2.3269H38.0212C39.0107 2.3269 39.8161 3.1208 39.8391 4.11029C39.8219 5.09978 39.0165 5.89368 38.0212 5.89368M38.585 0.169571H34.184C33.9942 0.169571 33.8389 0.324899 33.8389 0.514744V11.2956H35.651C35.8409 11.2956 35.9962 11.1403 35.9962 10.9505V8.0395H38.585C40.4604 8.0395 41.9792 6.5265 41.9907 4.65106V3.56952C41.9907 1.68833 40.4662 0.163818 38.5792 0.163818"
                        fill="#353A42"
                      />
                      <path
                        d="M30.1682 7.32625C30.1682 8.32726 29.3571 9.14416 28.3503 9.14416H28.149C27.148 9.14416 26.3311 8.32726 26.3311 7.32625V2.32701H28.3503C29.3571 2.32701 30.1682 3.13816 30.1682 4.14491V7.32625ZM28.9141 0.169678H24.5131C24.3233 0.169678 24.168 0.325005 24.168 0.51485V7.89004C24.168 9.77123 25.6925 11.2957 27.5794 11.2957H28.9141C30.7953 11.2957 32.3255 9.77123 32.3255 7.89004V3.58113C32.3255 1.69419 30.801 0.169678 28.9141 0.169678Z"
                        fill="#353A42"
                      />
                      <path
                        d="M78.5101 7.32625C78.5101 8.32726 77.699 9.14416 76.6922 9.14416H76.4909C75.4899 9.14416 74.673 8.32726 74.673 7.32625V2.32701H76.6922C77.699 2.32701 78.5101 3.13816 78.5101 4.14491V7.32625ZM77.256 0.169678H72.9643C72.717 0.169678 72.5156 0.371028 72.5156 0.618402V7.89004C72.5156 9.77123 74.0401 11.2957 75.9213 11.2957H77.256C79.1372 11.2957 80.6617 9.77123 80.6617 7.89004V3.58113C80.6617 1.69994 79.1372 0.175431 77.256 0.175431"
                        fill="#353A42"
                      />
                      <path
                        d="M22.3207 6.64159C21.9927 6.03754 21.3427 5.39321 20.1116 4.99051C20.1748 4.99051 18.6906 4.55905 17.3272 4.14484C16.8209 3.98951 16.6311 3.59256 16.6541 3.20712C16.6943 2.56855 17.2064 2.31543 17.937 2.31543H20.6236C21.2449 2.31543 21.7454 1.80917 21.7454 1.19361V0.491763C21.7454 0.307671 21.5958 0.152344 21.406 0.152344H17.5688C15.8602 0.152344 14.4795 1.53879 14.4795 3.24164C14.4795 3.24164 14.4795 3.43724 14.4795 3.44299C14.5543 4.80642 15.1986 5.75564 16.982 6.30217C18.4145 6.73939 18.9207 6.84294 19.7146 7.19386C20.1058 7.36645 20.3014 7.51602 20.405 7.75189C20.5258 8.01077 20.4682 8.43073 20.3417 8.65509C20.2554 8.80467 20.008 9.08081 19.6283 9.13258C19.5823 9.13258 15.8257 9.14409 15.8257 9.14409C15.2044 9.14409 14.7039 9.65034 14.7039 10.2659V11.2957H19.5478C21.2564 11.2957 22.6371 9.91497 22.6371 8.20637C22.6371 8.20637 22.6888 7.32618 22.3092 6.63008"
                        fill="#353A42"
                      />
                    </svg>