<svg width="61" height="35" viewBox="0 0 61 35" fill="none" xmlns="http://www.w3.org/2000/svg">
<path d="M4.23263 31.687H2.17205V29.6168H0.989746V34.9082H2.17205V32.8235H4.23263V34.9082H5.42217V29.6168H4.23263V31.687Z" fill="#353A42"/>
<path d="M10.7989 33.8271C9.93988 33.8271 9.26669 33.1612 9.26669 32.266C9.26669 31.3708 9.94711 30.6904 10.7989 30.6904C11.6506 30.6904 12.3238 31.3419 12.331 32.266C12.3383 33.1612 11.6651 33.8271 10.7989 33.8271ZM10.7989 29.525C9.23773 29.525 8.03613 30.7411 8.03613 32.2732C8.03613 33.8054 9.21119 34.9925 10.7916 34.9925C12.372 34.9925 13.5616 33.7813 13.5616 32.266C13.5616 30.7507 12.36 29.525 10.7989 29.525Z" fill="#353A42"/>
<path d="M18.1902 32.0152H17.353V30.705H18.2699C18.7066 30.705 18.9286 31.0066 18.9286 31.3492C18.9286 31.6919 18.7283 32.0152 18.1902 32.0152ZM20.1447 31.3275C20.1447 30.4179 19.5583 29.6168 18.2771 29.6168H16.1731V34.9058H17.3554V33.0599H17.9345L18.972 34.9058H20.3473L19.124 32.8935C19.8479 32.5918 20.1471 31.9549 20.1471 31.3251" fill="#353A42"/>
<path d="M22.3286 30.7557H23.8246V34.9082H25.0117V30.7557H26.5004V29.6168H22.3286V30.7557Z" fill="#353A42"/>
<path d="M30.1371 29.6168H28.95V34.9058H30.1371V29.6168Z" fill="#353A42"/>
<path d="M33.0452 34.9082H34.2251V32.8886H36.3797V31.7787H34.2251V30.734H36.6741V29.6168H33.0452V34.9082Z" fill="#353A42"/>
<path d="M41.2479 32.0152H40.4106V30.705H41.3275C41.7642 30.705 41.9862 31.0066 41.9862 31.3492C41.9862 31.6919 41.7859 32.0152 41.2479 32.0152ZM43.2023 31.3275C43.2023 30.4179 42.616 29.6168 41.3347 29.6168H39.2307V34.9058H40.4106V33.0599H40.9897L42.0272 34.9058H43.4025L42.1792 32.8935C42.9031 32.5918 43.2023 31.9549 43.2023 31.3251" fill="#353A42"/>
<path d="M48.9139 32.8669C48.9139 33.5401 48.5207 33.8538 47.9898 33.8538C47.459 33.8538 47.0585 33.5473 47.0585 32.8669V29.6168H45.8713V32.9176C45.8713 34.3918 46.8871 34.9999 47.9898 34.9999C49.0925 34.9999 50.1011 34.3918 50.1011 32.9176V29.6168H48.9139V32.8669Z" fill="#353A42"/>
<path d="M52.4915 30.7557H53.9874V34.9082H55.177V30.7557H56.6657V29.6168H52.4915V30.7557Z" fill="#353A42"/>
<path d="M60.2999 29.6168H59.1128V34.9058H60.2999V29.6168Z" fill="#353A42"/>
<path d="M53.5296 16.9447V18.1053C53.3101 19.6085 51.5125 20.7401 49.3361 20.7401C47.6423 20.7401 46.6313 19.9825 46.6313 18.7133C46.6313 17.794 46.9836 16.9447 49.5315 16.9447H53.5296ZM60.6693 23.3242L60.3025 21.0127C60.2157 20.5664 59.7934 20.2623 59.3398 20.3203L59.1878 20.3396C58.6425 20.3854 58.5267 20.3178 58.4157 19.4179C58.3964 19.2634 58.3964 19.0994 58.3964 18.928V17.6492C58.4012 17.6251 58.4036 17.601 58.4036 17.5769V12.826C58.3698 8.75071 55.5709 6.31616 50.9213 6.31616C47.7846 6.31616 45.8543 7.02795 43.579 8.25608C43.164 8.48047 43.0023 9.00165 43.2195 9.42148L44.2739 11.4386C44.3825 11.6461 44.5659 11.7981 44.7927 11.8657C45.0195 11.9332 45.2535 11.9091 45.461 11.7957C47.0391 10.9223 48.5616 10.4783 49.9851 10.4783C51.6018 10.4783 53.532 10.9705 53.532 13.3134V13.4002H48.8511C44.5104 13.434 41.9214 15.5163 41.9214 18.9739C41.9214 22.4315 44.5611 24.7092 48.3372 24.7092C50.8876 24.7092 52.8975 23.8961 54.1522 22.3591C54.5768 23.0781 55.2283 23.6355 56.0873 24.0143C57.5639 24.6658 58.6256 24.6296 59.9623 24.3497C59.9768 24.3473 59.9889 24.3425 60.0033 24.34L60.0757 24.3159C60.4956 24.176 60.7489 23.7513 60.6717 23.3291" fill="#353A42"/>
<path d="M34.7653 15.3474C34.7653 15.3474 34.7653 15.3547 34.7653 15.3571C34.7219 19.4999 31.3125 19.8232 30.2702 19.8232C29.486 19.8232 28.1565 19.6567 27.2131 19.3841V15.3619C27.2131 13.3279 28.4798 11.2673 30.9023 11.2673C32.0364 11.2673 33.0449 11.6678 33.7447 12.3965C34.4589 13.1397 34.8136 14.1603 34.7677 15.3474M32.2391 6.34755C30.0192 6.34755 28.3519 6.99901 27.1841 8.33089V0.8873C27.1841 0.607411 27.0562 0.354063 26.8318 0.187578C26.6074 0.0210922 26.3251 -0.0271652 26.0597 0.0548712L22.8916 1.02724C22.5225 1.14065 22.2764 1.47362 22.2764 1.85967V22.3591C22.2764 22.7138 22.4863 23.0299 22.812 23.165C25.1597 24.1326 27.5147 24.6392 29.8069 24.673C29.9155 24.673 30.0216 24.6754 30.1278 24.6754C33.0474 24.6754 35.4626 23.8334 37.1251 22.2288C38.802 20.6122 39.6779 18.2911 39.7237 15.3329C39.7744 12.3845 38.9806 9.99334 37.4315 8.41535C36.1213 7.08346 34.2779 6.34755 32.2391 6.34755Z" fill="#353A42"/>
<path d="M10.0404 20.4119C7.31866 20.4119 5.48971 18.4527 5.48971 15.538C5.48971 12.6233 7.31866 10.664 10.0404 10.664C12.7621 10.664 14.5259 12.6691 14.5259 15.538C14.5259 18.4068 12.68 20.4119 10.0404 20.4119ZM10.0404 6.33542C4.34361 6.33542 0.514404 10.0078 0.514404 15.4728C0.514404 20.9379 4.34119 24.673 10.0404 24.673C12.791 24.673 15.1532 23.7947 16.8687 22.1298C18.5891 20.4602 19.5012 18.1583 19.5012 15.4704C19.5012 12.7825 18.5915 10.512 16.8687 8.85442C15.1532 7.20404 12.7934 6.33301 10.0404 6.33301" fill="#353A42"/>
<path d="M7.67555 5.60924C6.93481 5.73712 6.20613 5.75401 5.48951 5.49584C4.86699 5.27145 4.36512 4.88056 3.98871 4.35215C3.60265 3.80927 3.26244 3.2326 2.91499 2.66317C2.55306 2.06479 2.2032 1.45675 1.68926 0.971773C1.47934 0.77392 1.23323 0.605022 0.991943 0.404757C1.21151 0.344436 1.43108 0.276875 1.641 0.226206C2.80882 -0.053683 3.97664 -0.116415 5.12999 0.284115C6.57529 0.785985 7.53802 1.79696 8.1147 3.19399C8.38011 3.83581 8.51764 4.50658 8.46214 5.2063C8.45732 5.27144 8.44526 5.33659 8.43319 5.43069C8.43319 5.43069 7.9289 5.56822 7.67555 5.61165" fill="#353A42"/>
<path d="M10.0266 5.38483C10.3885 5.38483 10.7456 5.39931 11.0955 5.42826C11.3006 3.80201 11.9593 2.5208 13.0065 1.71973C13.1874 1.57979 13.2453 1.33609 13.1416 1.14065L12.6928 0.247905C12.6349 0.139327 12.5384 0.0572903 12.4201 0.0210978C12.3043 -0.0150948 12.1789 -0.00303074 12.0727 0.0548773C10.4392 0.940388 9.29308 2.9165 8.93115 5.43067C9.29067 5.40172 9.65501 5.38724 10.0266 5.38724" fill="#353A42"/>
</svg>
