<svg
                      width="81"
                      height="23"
                      viewBox="0 0 81 23"
                      fill="none"
                      xmlns="http://www.w3.org/2000/svg"
                    >
                      <path
                        d="M46.0949 17.8069L45.2435 21.0182H45.2207L44.3531 17.8069H43.5945L43.5938 21.8523H44.0698L44.0703 18.504H44.0878L44.9823 21.8523H45.4472L46.3545 18.504H46.3716L46.3707 21.8523H46.8871L46.8881 17.8069H46.0949Z"
                        fill="#353A42"
                      />
                      <path
                        d="M53.4639 17.8069L52.6884 21.2583H52.677L51.9032 17.8069H51.335L52.3324 21.8523H52.9982L54.0147 17.8069H53.4639Z"
                        fill="#353A42"
                      />
                      <path
                        d="M54.836 17.8069L54.835 21.8523H56.6025V21.3896H55.3346V19.967H56.4651L56.4653 19.5383H55.3349V18.2644H56.5459V17.8069H54.836Z"
                        fill="#353A42"
                      />
                      <path
                        d="M57.6246 17.8069L57.624 21.8523H58.1404L58.1414 17.8069H57.6246Z"
                        fill="#353A42"
                      />
                      <path
                        d="M61.2133 20.6811C61.2133 20.8641 61.1847 21.0288 61.1275 21.1753C61.076 21.3127 60.9969 21.4381 60.895 21.5439C60.7968 21.6436 60.6785 21.7215 60.5479 21.7723C60.4109 21.8263 60.2647 21.8535 60.1174 21.8525C59.9142 21.8533 59.7133 21.8094 59.5292 21.7238C59.3438 21.6385 59.1957 21.5254 59.085 21.3847L59.3888 21.0133C59.4763 21.1273 59.5894 21.2193 59.719 21.2819C59.8425 21.3447 59.9789 21.3779 60.1175 21.3791C60.2898 21.3791 60.4315 21.3219 60.5425 21.2076C60.6536 21.0933 60.7091 20.9276 60.709 20.7104C60.7109 20.6174 60.6933 20.525 60.6574 20.4391C60.6229 20.3602 60.5745 20.288 60.5144 20.2261C60.4512 20.1616 60.381 20.1043 60.3052 20.0551C60.2229 20.0015 60.1376 19.9527 60.0497 19.909C59.941 19.857 59.8364 19.797 59.7368 19.7292C59.6404 19.6634 59.5528 19.5857 59.476 19.498C59.3971 19.4062 59.3359 19.3006 59.2954 19.1867C59.2514 19.0663 59.2294 18.9244 59.2295 18.7608C59.2295 18.5666 59.26 18.3971 59.3211 18.2522C59.3762 18.1165 59.4594 17.9938 59.5653 17.8923C59.6649 17.7982 59.7832 17.7261 59.9126 17.6807C60.0397 17.6357 60.1735 17.6126 60.3084 17.6123C60.5035 17.6123 60.6784 17.6446 60.8332 17.7093C60.9853 17.7719 61.1187 17.8723 61.2208 18.0008L60.9107 18.3665C60.7653 18.1761 60.5703 18.0808 60.3256 18.0806C60.2522 18.0807 60.1794 18.0934 60.1103 18.118C60.0381 18.1437 59.9725 18.1846 59.9178 18.238C59.8579 18.2973 59.8111 18.3682 59.7802 18.4464C59.7456 18.5303 59.7287 18.6313 59.7287 18.7491C59.7264 18.8399 59.7429 18.9302 59.7769 19.0144C59.8091 19.0882 59.8538 19.1558 59.909 19.2144C59.9666 19.2751 60.0312 19.3288 60.1015 19.3743C60.1772 19.4237 60.2557 19.4685 60.3368 19.5084C60.4451 19.5628 60.5503 19.6229 60.6521 19.6884C60.7555 19.7554 60.8501 19.8351 60.9335 19.9256C61.0198 20.0206 61.0888 20.13 61.1374 20.2487C61.1889 20.3722 61.2148 20.5163 61.2144 20.6799"
                        fill="#353A42"
                      />
                      <path
                        d="M28.7656 7.84367C28.2818 7.84367 27.8301 7.91965 27.4103 8.07161C27.0007 8.21733 26.6276 8.44955 26.3166 8.75233C26.007 9.05429 25.7631 9.42888 25.5848 9.87611C25.4065 10.3233 25.3173 10.8446 25.3173 11.4398C25.3173 12.0307 25.3999 12.5434 25.5651 12.9779C25.7302 13.4125 25.9653 13.7721 26.2702 14.0569C26.5748 14.3419 26.9415 14.5528 27.3703 14.6895C27.7992 14.8263 28.2769 14.8946 28.8033 14.8946C28.9472 14.8946 29.0996 14.8872 29.2605 14.8724C29.4214 14.8575 29.5834 14.8363 29.7466 14.8087C29.9095 14.7801 30.069 14.7482 30.2236 14.7121C30.3638 14.6795 30.5022 14.6398 30.6382 14.5931V15.5178C30.3843 15.6161 30.0898 15.6921 29.7548 15.7456C29.4134 15.7996 29.0683 15.8264 28.7226 15.8257C28.0047 15.8257 27.3683 15.7262 26.8134 15.5273C26.2585 15.3283 25.7931 15.0426 25.4171 14.6702C25.0409 14.2978 24.756 13.8428 24.5626 13.3054C24.3691 12.7679 24.2724 12.159 24.2725 11.4786C24.2725 10.8102 24.3746 10.1959 24.5788 9.63564C24.7831 9.07537 25.0776 8.59374 25.4623 8.19074C25.8473 7.78774 26.3138 7.47414 26.8618 7.24994C27.4098 7.02573 28.0257 6.91329 28.7095 6.9126C28.8904 6.9126 29.0684 6.92012 29.2451 6.93501C29.4217 6.9499 29.59 6.97157 29.7512 6.999C29.9023 7.02449 30.0519 7.05786 30.1995 7.09896C30.3206 7.13148 30.4393 7.17217 30.5549 7.22074V8.14577C30.2745 8.05513 29.9884 7.98303 29.6985 7.92992C29.3909 7.8723 29.0786 7.84328 28.7656 7.84323"
                        fill="#353A42"
                      />
                      <path
                        d="M35.469 8.40835C35.0839 9.47816 34.7163 10.4501 34.366 11.3242L34.0434 12.1332H36.9034L36.5763 11.3247C36.2225 10.435 35.8622 9.46292 35.4953 8.40835H35.469ZM31.5088 15.6653L35.024 7.073H35.9327L39.4478 15.6653H38.3064L37.2756 13.0774H33.6683L32.6375 15.6653H31.5088Z"
                        fill="#353A42"
                      />
                      <path
                        d="M41.8209 8.0166V11.1638H42.8594C43.1819 11.1638 43.4571 11.1531 43.6848 11.1315C43.8926 11.114 44.0979 11.0752 44.2977 11.0159C44.6635 10.9047 44.9451 10.7271 45.1426 10.4831C45.34 10.2391 45.4387 9.91998 45.4387 9.52564C45.4341 9.15802 45.3395 8.86162 45.1548 8.63643C44.9702 8.41125 44.7144 8.24965 44.3875 8.15166C44.2326 8.10477 44.0476 8.07086 43.8326 8.04845C43.6176 8.02604 43.3439 8.01631 43.0136 8.01631L41.8209 8.0166ZM41.8209 12.107V15.6653H40.7695V7.073H43.0056C43.3833 7.073 43.7041 7.08691 43.9681 7.11472C44.2131 7.13922 44.4557 7.18305 44.6937 7.2458C45.295 7.40886 45.7546 7.68615 46.0724 8.07764C46.3901 8.46914 46.5491 8.95839 46.5493 9.54539C46.5493 9.89217 46.4935 10.2024 46.3819 10.4762C46.2747 10.7432 46.1144 10.9859 45.9107 11.1896C45.7085 11.3907 45.4666 11.5556 45.1851 11.6841C44.8858 11.8179 44.5704 11.9127 44.2468 11.9662V11.9923L46.8009 15.6653H45.7495L43.0922 12.107H41.8209Z"
                        fill="#353A42"
                      />
                      <path
                        d="M49.6383 8.0166V11.1638H50.6768C50.9993 11.1638 51.2744 11.1531 51.5021 11.1315C51.7098 11.114 51.9152 11.0752 52.115 11.0159C52.4802 10.9045 52.7619 10.7269 52.9599 10.4831C53.158 10.2393 53.2567 9.92018 53.2561 9.52564C53.2519 9.15802 53.1573 8.86162 52.9725 8.63643C52.7877 8.41125 52.5318 8.24965 52.2047 8.15166C52.0498 8.10477 51.8652 8.07086 51.65 8.04845C51.4348 8.02604 51.1613 8.01631 50.8311 8.01631L49.6383 8.0166ZM49.6383 12.107V15.6653H48.5869V7.073H50.823C51.2009 7.073 51.5217 7.08691 51.7855 7.11472C52.0302 7.13922 52.2726 7.18305 52.5104 7.2458C53.1117 7.40886 53.5713 7.68615 53.8891 8.07764C54.207 8.46914 54.3661 8.95839 54.3663 9.54539C54.3663 9.89217 54.3103 10.2024 54.1983 10.4762C54.0912 10.7432 53.931 10.9859 53.7273 11.1896C53.5253 11.3907 53.2834 11.5556 53.0017 11.6841C52.7024 11.8179 52.387 11.9127 52.0633 11.9662V11.9923L54.6174 15.6653H53.566L50.9087 12.107H49.6383Z"
                        fill="#353A42"
                      />
                      <path
                        d="M59.494 8.40835C59.109 9.47816 58.7414 10.4501 58.3911 11.3242L58.0685 12.1332H60.9288L60.6016 11.3247C60.2476 10.435 59.8873 9.46292 59.5206 8.40835H59.494ZM55.5342 15.6653L59.0491 7.073H59.9586L63.4735 15.6653H62.3319L61.3012 13.0774H57.6932L56.6629 15.6653H55.5342Z"
                        fill="#353A42"
                      />
                      <path
                        d="M65.8473 8.0166V11.1638H66.8856C67.2082 11.1638 67.4834 11.1531 67.7113 11.1315C67.9189 11.114 68.1242 11.0752 68.3238 11.0159C68.6891 10.9045 68.9708 10.7269 69.1689 10.4831C69.3671 10.2393 69.4658 9.92018 69.4651 9.52564C69.4609 9.15802 69.3665 8.86162 69.1817 8.63643C68.9968 8.41125 68.741 8.24965 68.414 8.15166C68.2594 8.10477 68.0744 8.07086 67.8594 8.04845C67.6444 8.02604 67.3708 8.01631 67.0404 8.01631L65.8473 8.0166ZM65.8473 12.107V15.6653H64.7959V7.073H67.0319C67.41 7.073 67.7309 7.08691 67.9945 7.11472C68.2395 7.13918 68.4821 7.183 68.7201 7.2458C69.3209 7.40886 69.7803 7.686 70.0981 8.0772C70.416 8.4684 70.575 8.95765 70.5751 9.54495C70.5751 9.89172 70.5191 10.202 70.407 10.4757C70.3001 10.7427 70.1401 10.9854 69.9364 11.1892C69.7341 11.3903 69.4923 11.5551 69.2108 11.6837C68.9115 11.8175 68.5961 11.9123 68.2724 11.9657V11.9918L70.8266 15.6648H69.7752L67.1177 12.1065L65.8473 12.107Z"
                        fill="#353A42"
                      />
                      <path
                        d="M79.2817 11.3759C79.2817 10.7977 79.2056 10.2882 79.0535 9.84751C78.9014 9.40676 78.6916 9.03846 78.4243 8.7426C78.1632 8.45178 77.8403 8.22256 77.4791 8.07161C77.1158 7.91945 76.7258 7.84338 76.3092 7.84338C75.8926 7.84338 75.5024 7.91945 75.1385 8.07161C74.7773 8.22254 74.4544 8.45177 74.1934 8.7426C73.9257 9.03817 73.7159 9.40647 73.5641 9.84751C73.4122 10.2885 73.3362 10.798 73.3359 11.3759C73.3359 11.9534 73.4131 12.4618 73.5675 12.901C73.7219 13.3401 73.9327 13.7071 74.1998 14.002C74.4604 14.2928 74.7836 14.5213 75.1453 14.6702C75.5081 14.82 75.9004 14.8948 76.3221 14.8946C76.7394 14.8946 77.1274 14.8198 77.4862 14.6702C77.8453 14.52 78.1661 14.2917 78.425 14.002C78.6925 13.7064 78.9022 13.3393 79.0542 12.901C79.2063 12.4626 79.2823 11.9542 79.2824 11.3759M80.3274 11.3759C80.3274 12.0264 80.2337 12.6237 80.0461 13.1677C79.8585 13.7116 79.5896 14.1804 79.2395 14.5739C78.8897 14.9677 78.4587 15.2818 77.976 15.4948C77.4832 15.7157 76.9318 15.826 76.3218 15.8257C75.6905 15.8257 75.1255 15.7154 74.6267 15.4948C74.128 15.2743 73.7057 14.9673 73.3597 14.5739C73.0142 14.1796 72.7497 13.7108 72.5662 13.1677C72.3826 12.6245 72.2909 12.0272 72.291 11.3759C72.291 10.7206 72.3859 10.1202 72.5756 9.57445C72.7654 9.02873 73.0341 8.55885 73.3818 8.16479C73.7308 7.76991 74.1621 7.45546 74.6455 7.2433C75.1401 7.02283 75.6944 6.9126 76.3085 6.9126C76.9355 6.9126 77.4974 7.02283 77.9943 7.2433C78.4911 7.46377 78.9124 7.77093 79.258 8.16479C79.6035 8.55865 79.868 9.02853 80.0514 9.57445C80.2348 10.1204 80.3269 10.7208 80.3274 11.3759Z"
                        fill="#353A42"
                      />
                      <path
                        d="M13.8847 13.1638C13.2386 14.1412 12.1421 14.7843 10.8981 14.7843C8.91109 14.7843 7.3004 13.1445 7.3004 11.1214C7.3004 9.09821 8.91109 7.45796 10.8981 7.45796C12.164 7.45796 13.2764 8.12438 13.9175 9.13065L20.851 7.14952C19.2851 3.05044 15.373 0.14502 10.7937 0.14502C4.83586 0.14502 0.00585938 5.06283 0.00585938 11.1292C0.00585938 17.1955 4.83586 22.1133 10.7937 22.1133C15.399 22.1133 19.3293 19.1749 20.877 15.0391L13.8847 13.1638Z"
                        fill="#353A42"
                      />
                      <path
                        d="M49.5109 17.487H49.1259L49.6424 16.6643H50.1244L49.5109 17.487ZM50.182 19.8239C50.1831 19.6075 50.1649 19.3914 50.1275 19.1781C50.0913 18.9764 50.0379 18.8012 49.9673 18.6525C49.8967 18.5038 49.8087 18.3867 49.7033 18.3013C49.6011 18.2166 49.4718 18.1709 49.3388 18.1725C49.2031 18.1704 49.071 18.216 48.9657 18.3013C48.8586 18.3869 48.7697 18.504 48.6991 18.6525C48.6285 18.801 48.5759 18.9762 48.5411 19.1781C48.4722 19.6059 48.4722 20.0419 48.5411 20.4697C48.5755 20.6713 48.628 20.8465 48.6987 20.9953C48.7694 21.1441 48.8582 21.2612 48.9652 21.3467C49.0706 21.4317 49.2026 21.4771 49.3382 21.4751C49.4711 21.4767 49.6002 21.4311 49.7025 21.3467C49.8076 21.2608 49.8955 21.1437 49.9664 20.9953C50.0373 20.8469 50.0909 20.6717 50.1274 20.4697C50.1646 20.2564 50.1828 20.0403 50.1819 19.8239M50.7271 19.8239C50.7271 20.14 50.6954 20.4285 50.632 20.6894C50.5687 20.9502 50.4768 21.1742 50.3566 21.3613C50.2359 21.548 50.0905 21.6927 49.9205 21.7955C49.7505 21.8982 49.5564 21.9495 49.3381 21.9495C49.1201 21.9495 48.925 21.8982 48.7529 21.7955C48.5807 21.6927 48.4344 21.548 48.314 21.3613C48.1935 21.1745 48.1017 20.9506 48.0385 20.6897C47.9753 20.4287 47.9439 20.1402 47.9443 19.8242C47.9443 19.5081 47.9749 19.2195 48.036 18.9584C48.0971 18.6974 48.187 18.4745 48.3058 18.2898C48.4243 18.1052 48.5707 17.9625 48.745 17.8615C48.9194 17.7606 49.1174 17.7101 49.3391 17.7101C49.557 17.7101 49.7511 17.7606 49.9214 17.8615C50.0917 17.9625 50.237 18.1052 50.3572 18.2898C50.4775 18.475 50.5694 18.6979 50.6328 18.9584C50.6962 19.219 50.7276 19.5076 50.7273 19.8242"
                        fill="#353A42"
                      />
                    </svg>