                    <svg
                      xmlns="http://www.w3.org/2000/svg"
                      width="135"
                      height="39"
                      viewBox="0 0 135 39"
                      fill="none"
                    >
                      <path
                        d="M92.5771 27.7975H35.561C35.561 27.7975 37.045 24.4535 40.8906 24.4535C42.8761 24.4535 96.6526 24.4535 98.0112 24.4535C98.0112 24.4326 96.6108 27.7975 92.5771 27.7975Z"
                        fill="#353A42"
                      />
                      <path
                        d="M30.5451 23.6802C29.3747 23.6802 28.3715 24.349 27.8699 25.3313C28.2461 24.8715 28.8104 24.5789 29.4583 24.5789C30.6078 24.5789 31.5274 25.4985 31.5274 26.648C31.5274 27.7975 30.6078 28.7172 29.4583 28.7172C28.8104 28.7172 28.2461 28.4245 27.8699 27.9647C28.3506 28.9471 29.3747 29.6368 30.5451 29.6368C32.1962 29.6368 33.5339 28.2991 33.5339 26.648C33.5339 25.0178 32.1962 23.6802 30.5451 23.6802Z"
                        fill="#353A42"
                      />
                      <path
                        d="M23.7944 23.6802C22.624 23.6802 21.6207 24.349 21.1191 25.3313C21.4953 24.8715 22.0597 24.5789 22.7076 24.5789C23.8571 24.5789 24.7767 25.4985 24.7767 26.648C24.7767 27.7975 23.8571 28.7172 22.7076 28.7172C22.0597 28.7172 21.4953 28.4245 21.1191 27.9647C21.5998 28.9471 22.624 29.6368 23.7944 29.6368C25.4455 29.6368 26.7831 28.2991 26.7831 26.648C26.7831 25.0178 25.4455 23.6802 23.7944 23.6802Z"
                        fill="#353A42"
                      />
                      <path
                        d="M115.4 0C108.984 0 103.299 3.11415 99.7668 7.90032H105.264C107.981 5.53858 111.534 4.07556 115.421 4.07556C123.969 4.07556 130.887 10.9936 130.887 19.5418C130.887 28.09 123.969 35.008 115.421 35.008C111.868 35.008 108.608 33.7958 105.995 31.7894H100.415C103.989 36.1157 109.381 38.8746 115.421 38.8746C126.164 38.8746 134.858 30.18 134.858 19.4373C134.838 8.69453 126.143 0 115.4 0Z"
                        fill="#353A42"
                      />
                      <path
                        d="M9.70744 35.008C9.70744 34.8826 9.68654 34.7781 9.62384 34.6945C9.56114 34.6109 9.47754 34.5482 9.35213 34.5064C9.31033 34.4855 9.24763 34.4855 9.20583 34.4855C9.14313 34.4855 9.08043 34.4855 9.01773 34.4855H8.53702L8.24442 36.0112H8.72512C8.87143 36.0112 8.97593 35.9903 9.08043 35.9694C9.18493 35.9485 9.26853 35.9067 9.33123 35.844C9.39393 35.8022 9.45664 35.7395 9.51934 35.6559C9.56114 35.5932 9.60294 35.5096 9.64474 35.4469C9.66564 35.3842 9.70744 35.3006 9.70744 35.217C9.68654 35.1543 9.70744 35.0916 9.70744 35.008ZM10.2299 34.9662C10.2299 35.0707 10.209 35.1752 10.1881 35.3006C10.1672 35.4051 10.1254 35.5305 10.0627 35.635C10 35.7395 9.93734 35.844 9.85374 35.9485C9.77014 36.053 9.66564 36.1366 9.56114 36.1993C9.43574 36.2829 9.31033 36.3247 9.16403 36.3665C9.01773 36.4083 8.82962 36.4292 8.64152 36.4292H8.11901L7.84731 37.7877C7.84731 37.8086 7.82641 37.8086 7.82641 37.8295C7.82641 37.8504 7.80551 37.8504 7.78461 37.8504C7.76371 37.8504 7.74281 37.8713 7.70101 37.8713C7.65921 37.8713 7.63831 37.8713 7.57561 37.8713C7.53381 37.8713 7.49201 37.8713 7.47111 37.8713C7.45021 37.8713 7.4084 37.8713 7.3875 37.8504C7.3666 37.8504 7.3666 37.8295 7.3457 37.8295C7.3457 37.8086 7.3457 37.8086 7.3457 37.7877L8.03541 34.2974C8.05631 34.2138 8.07721 34.172 8.13992 34.1302C8.18172 34.0884 8.24442 34.0884 8.30712 34.0884H9.05953C9.16403 34.0884 9.24763 34.0884 9.31033 34.0884C9.39394 34.0884 9.45664 34.1093 9.51934 34.1302C9.62384 34.1511 9.72834 34.1929 9.81194 34.2347C9.89554 34.2765 9.95824 34.3392 10.0209 34.4228C10.0836 34.4855 10.1254 34.5691 10.1463 34.6736C10.209 34.7572 10.2299 34.8617 10.2299 34.9662Z"
                        fill="#353A42"
                      />
                      <path
                        d="M12.1737 35.7396C12.1737 35.6351 12.1319 35.5515 12.0483 35.4888C11.9647 35.4261 11.8602 35.4052 11.7139 35.4052C11.5885 35.4052 11.484 35.4261 11.3795 35.4679C11.275 35.5097 11.1914 35.5724 11.1287 35.6351C11.0451 35.7187 10.9824 35.8023 10.9406 35.8859C10.8779 35.9904 10.8361 36.0949 10.8152 36.1994H11.1078C11.3168 36.1994 11.484 36.1785 11.6303 36.1576C11.7766 36.1367 11.8811 36.0949 11.9647 36.0531C12.0483 36.0113 12.111 35.9486 12.1319 35.9068C12.1528 35.865 12.1737 35.8023 12.1737 35.7396ZM12.6753 35.6978C12.6753 35.8232 12.6544 35.9486 12.5917 36.0531C12.529 36.1576 12.4245 36.2621 12.2991 36.3248C12.1737 36.4084 12.0065 36.4502 11.7975 36.492C11.5885 36.5338 11.3377 36.5547 11.0451 36.5547H10.7316C10.7107 36.6174 10.7107 36.6801 10.7107 36.7428C10.7107 36.8055 10.7107 36.8682 10.7107 36.91C10.7107 37.0981 10.7525 37.2444 10.857 37.3489C10.9615 37.4535 11.1078 37.4952 11.3168 37.4952C11.4422 37.4952 11.5467 37.4952 11.6512 37.4743C11.7557 37.4534 11.8393 37.4325 11.902 37.4116C11.9856 37.3907 12.0274 37.3698 12.0901 37.3489C12.1319 37.328 12.1737 37.328 12.1946 37.328C12.2155 37.328 12.2155 37.328 12.2364 37.3489C12.2364 37.3698 12.2573 37.3698 12.2573 37.4116C12.2573 37.4325 12.2573 37.4534 12.2573 37.4743C12.2573 37.4952 12.2573 37.5371 12.2364 37.558C12.2364 37.5789 12.2155 37.6207 12.2155 37.6416C12.1946 37.6625 12.1946 37.6834 12.1737 37.7043C12.1528 37.7252 12.111 37.7461 12.0483 37.767C11.9856 37.7879 11.9229 37.8088 11.8393 37.8297C11.7557 37.8506 11.6721 37.8715 11.5676 37.8715C11.4631 37.8924 11.3795 37.8924 11.275 37.8924C11.1078 37.8924 10.9406 37.8715 10.8152 37.8297C10.6898 37.7879 10.5853 37.7252 10.4808 37.6416C10.3972 37.558 10.3345 37.4534 10.2927 37.328C10.2509 37.2026 10.23 37.0563 10.23 36.91C10.23 36.7846 10.2509 36.6383 10.2718 36.492C10.2927 36.3457 10.3345 36.1994 10.3972 36.0531C10.4599 35.9068 10.5226 35.7814 10.6062 35.6351C10.6898 35.5097 10.7943 35.3843 10.8988 35.2798C11.0242 35.1753 11.1496 35.0917 11.2959 35.0499C11.4422 34.9872 11.6303 34.9663 11.8184 34.9663C11.9856 34.9663 12.1319 34.9872 12.2364 35.029C12.3409 35.0708 12.4454 35.1126 12.5081 35.1962C12.5917 35.2589 12.6335 35.3216 12.6753 35.4052C12.6544 35.5306 12.6753 35.6142 12.6753 35.6978Z"
                        fill="#353A42"
                      />
                      <path
                        d="M13.5529 37.8922C13.3439 37.8504 13.1976 37.7668 13.0722 37.6205C12.9468 37.4742 12.905 37.2443 12.905 36.9726C12.905 36.8472 12.905 36.7218 12.9259 36.5755C12.9468 36.4292 12.9886 36.2829 13.0304 36.1575C13.0722 36.0112 13.1349 35.8649 13.2185 35.7395C13.3021 35.6141 13.3857 35.4887 13.4902 35.3842C13.5947 35.2797 13.7201 35.1961 13.8664 35.1334C14.0127 35.0707 14.1799 35.0498 14.3681 35.0498C14.4517 35.0498 14.5144 35.0498 14.598 35.0707C14.6607 35.0916 14.7443 35.0916 14.807 35.1125C14.8697 35.1334 14.9324 35.1543 14.9742 35.1961C15.016 35.2379 15.0578 35.2588 15.0996 35.2797C15.1205 35.3006 15.1414 35.3215 15.1623 35.3424C15.1623 35.3633 15.1623 35.3842 15.1623 35.4051C15.1623 35.4469 15.1623 35.4678 15.1623 35.5096C15.1623 35.5514 15.1414 35.5723 15.1414 35.6141C15.1205 35.6559 15.1205 35.6768 15.0996 35.6977C15.0787 35.7186 15.0578 35.7395 15.0369 35.7395C15.016 35.7395 14.9742 35.7186 14.9533 35.6977C14.9324 35.6768 14.8906 35.635 14.8279 35.5932C14.7861 35.5514 14.7234 35.5305 14.6398 35.4887C14.5771 35.4678 14.4726 35.4469 14.3681 35.4469C14.2426 35.4469 14.1381 35.4678 14.0336 35.5305C13.9291 35.5723 13.8455 35.6559 13.7828 35.7395C13.7201 35.8231 13.6574 35.9067 13.6156 36.0321C13.5738 36.1366 13.532 36.2411 13.5111 36.3456C13.4902 36.4501 13.4693 36.5546 13.4484 36.6591C13.4275 36.7636 13.4275 36.8472 13.4275 36.9308C13.4275 37.1398 13.4693 37.2861 13.5529 37.3906C13.6365 37.4951 13.7619 37.5369 13.95 37.5369C14.0754 37.5369 14.1799 37.516 14.2844 37.4951C14.368 37.4742 14.4517 37.4324 14.5144 37.3906C14.5771 37.3488 14.6398 37.307 14.6607 37.2861C14.7025 37.2652 14.7443 37.2443 14.7652 37.2443C14.7861 37.2443 14.7861 37.2443 14.807 37.2652C14.807 37.2861 14.8279 37.307 14.8279 37.3279C14.8279 37.3488 14.8279 37.3697 14.8279 37.4115C14.8279 37.4533 14.8279 37.4742 14.807 37.516C14.807 37.5578 14.7861 37.5787 14.7652 37.6205C14.7443 37.6414 14.7443 37.6832 14.7025 37.7041C14.6816 37.725 14.6398 37.7668 14.5771 37.8086C14.5144 37.8504 14.4308 37.8922 14.3263 37.9131C14.2217 37.9549 14.1172 37.9758 13.9918 37.9758L14.0336 38.143C14.0545 38.2057 14.0545 38.2684 14.0754 38.3102C14.0754 38.352 14.0963 38.3939 14.0963 38.4357C14.0963 38.5402 14.0754 38.6238 14.0545 38.6865C14.0336 38.7492 13.9709 38.8119 13.9291 38.8537C13.8664 38.8955 13.8037 38.9373 13.7201 38.9582C13.6365 38.9791 13.5529 39 13.4484 39C13.4066 39 13.3439 39 13.3021 39C13.2603 39 13.1976 39 13.1558 38.9791C13.114 38.9791 13.0722 38.9582 13.0513 38.9582C13.0304 38.9582 13.0095 38.9373 12.9886 38.9373C12.9677 38.9373 12.9677 38.9164 12.9677 38.9164C12.9677 38.9164 12.9677 38.8955 12.9677 38.8746C12.9677 38.8537 12.9677 38.8328 12.9677 38.8119C12.9677 38.791 12.9677 38.7701 12.9886 38.7492C12.9886 38.7283 13.0095 38.7074 13.0304 38.6865C13.0513 38.6656 13.0722 38.6656 13.0931 38.6656H13.4484C13.4902 38.6656 13.5111 38.6656 13.532 38.6656C13.5529 38.6656 13.5947 38.6447 13.6156 38.6238C13.6365 38.6029 13.6574 38.582 13.6783 38.5611C13.6992 38.5402 13.6992 38.4984 13.6992 38.4566C13.6992 38.4357 13.6992 38.4148 13.6992 38.373C13.6992 38.3312 13.6992 38.3103 13.6783 38.2894L13.5529 37.8922Z"
                        fill="#353A42"
                      />
                      <path
                        d="M17.2944 35.8441C17.2108 35.7187 17.1063 35.6142 17.0018 35.5306C16.8973 35.4679 16.7719 35.4261 16.6465 35.4261C16.542 35.4261 16.4375 35.447 16.3539 35.5097C16.2703 35.5515 16.1867 35.6351 16.124 35.6978C16.0613 35.7814 15.9986 35.865 15.9568 35.9695C15.915 36.074 15.8732 36.1785 15.8314 36.283C15.8105 36.3875 15.7687 36.5129 15.7687 36.6174C15.7478 36.7219 15.7478 36.8264 15.7478 36.91C15.7478 36.9727 15.7478 37.0563 15.7687 37.119C15.7896 37.1817 15.7896 37.2444 15.8314 37.3071C15.8523 37.3698 15.8941 37.4116 15.9568 37.4325C16.0195 37.4743 16.0822 37.4743 16.1658 37.4743C16.2703 37.4743 16.3748 37.4534 16.4793 37.3907C16.5838 37.328 16.6883 37.2444 16.7719 37.1399C16.8555 37.0354 16.9391 36.91 17.0227 36.7637C17.0854 36.6174 17.1481 36.4711 17.1899 36.283L17.2944 35.8441ZM17.378 37.7878C17.378 37.8296 17.3571 37.8505 17.3153 37.8505C17.2735 37.8714 17.2317 37.8714 17.1481 37.8714C17.1063 37.8714 17.0854 37.8714 17.0436 37.8714C17.0227 37.8714 17.0018 37.8714 16.9809 37.8505C16.96 37.8505 16.96 37.8296 16.9391 37.8296C16.9391 37.8087 16.9391 37.8087 16.9391 37.7878L17.0436 37.2862C17.0227 37.3489 16.9809 37.4116 16.8973 37.4952C16.8346 37.5788 16.751 37.6415 16.6674 37.7042C16.5838 37.7669 16.4793 37.8087 16.3539 37.8505C16.2494 37.8923 16.124 37.9132 16.0195 37.9132C15.8732 37.9132 15.7269 37.8923 15.6224 37.8296C15.5179 37.7669 15.4342 37.7042 15.3715 37.6206C15.3088 37.537 15.267 37.4325 15.2461 37.3071C15.2252 37.2026 15.2043 37.0772 15.2043 36.9518C15.2043 36.8473 15.2043 36.7219 15.2252 36.5756C15.2461 36.4293 15.2879 36.3039 15.3297 36.1576C15.3715 36.0113 15.4342 35.865 15.5179 35.7396C15.5806 35.5933 15.6851 35.4888 15.7896 35.3634C15.8941 35.2589 16.0195 35.1753 16.1449 35.1126C16.2912 35.0499 16.4375 35.0081 16.6047 35.0081C16.7719 35.0081 16.9182 35.0499 17.0436 35.1126C17.169 35.1753 17.2735 35.2798 17.378 35.4052L17.4407 35.1335C17.4407 35.1126 17.4616 35.0708 17.5034 35.0708C17.5452 35.0499 17.6079 35.0499 17.6706 35.0499C17.7124 35.0499 17.7333 35.0499 17.7751 35.0499C17.796 35.0499 17.8169 35.0499 17.8378 35.0708C17.8587 35.0708 17.8587 35.0917 17.8587 35.0917C17.8587 35.1126 17.8587 35.1126 17.8587 35.1335L17.378 37.7878Z"
                        fill="#353A42"
                      />
                      <path
                        d="M20.1365 35.3005C20.1365 35.3214 20.1365 35.3423 20.1365 35.3841C20.1365 35.4259 20.1156 35.4468 20.1156 35.4886C20.0947 35.5304 20.0947 35.5513 20.0738 35.5722C20.0529 35.5931 20.0529 35.614 20.032 35.614C20.0111 35.614 19.9902 35.614 19.9484 35.5931C19.9066 35.5722 19.8857 35.5513 19.823 35.5304C19.7812 35.5095 19.7185 35.4886 19.6558 35.4677C19.5931 35.4468 19.5095 35.4468 19.4259 35.4468C19.3423 35.4468 19.2587 35.4677 19.196 35.4886C19.1333 35.5095 19.0706 35.5513 19.0288 35.5931C18.987 35.6349 18.9452 35.6767 18.9243 35.7394C18.9034 35.8021 18.8825 35.8439 18.8825 35.9066C18.8825 35.9902 18.9034 36.0529 18.9661 36.0947C19.0079 36.1365 19.0915 36.1992 19.1542 36.241C19.2378 36.2828 19.3214 36.3246 19.405 36.3664C19.4886 36.4082 19.5722 36.45 19.6558 36.5127C19.7394 36.5754 19.8021 36.6381 19.8439 36.7217C19.8857 36.8053 19.9275 36.9098 19.9275 37.0352C19.9275 37.1815 19.9066 37.3069 19.8439 37.4114C19.7812 37.5368 19.7185 37.6413 19.614 37.7249C19.5095 37.8085 19.3841 37.8712 19.2587 37.9339C19.1124 37.9757 18.9661 37.9966 18.7779 37.9966C18.6943 37.9966 18.5898 37.9966 18.5271 37.9757C18.4435 37.9548 18.3808 37.9339 18.3181 37.913C18.2554 37.8921 18.1927 37.8712 18.1509 37.8503C18.1091 37.8294 18.0673 37.8085 18.0464 37.7667C18.0255 37.7458 18.0255 37.7249 18.0046 37.7249C18.0046 37.704 18.0046 37.6831 18.0046 37.6622C18.0046 37.6413 18.0046 37.6204 18.0046 37.5995C18.0046 37.5786 18.0046 37.5577 18.0255 37.5368C18.0255 37.5159 18.0464 37.495 18.0464 37.4741C18.0464 37.4532 18.0673 37.4323 18.0673 37.4114C18.0673 37.3905 18.0882 37.3696 18.0882 37.3696C18.0882 37.3487 18.1091 37.3487 18.13 37.3487C18.1509 37.3487 18.1718 37.3696 18.2136 37.3905C18.2554 37.4114 18.2972 37.4532 18.339 37.4741C18.4017 37.495 18.4644 37.5368 18.548 37.5577C18.6316 37.5786 18.7361 37.5995 18.8407 37.5995C18.9452 37.5995 19.0497 37.5786 19.1124 37.5577C19.196 37.5368 19.2587 37.495 19.3005 37.4532C19.3423 37.4114 19.3841 37.3487 19.405 37.3069C19.4259 37.2442 19.4468 37.1815 19.4468 37.1188C19.4468 37.0352 19.4259 36.9725 19.3632 36.9098C19.3214 36.868 19.2587 36.8053 19.1751 36.7635C19.0915 36.7217 19.0079 36.6799 18.9243 36.6381C18.8407 36.5963 18.757 36.5545 18.6734 36.4918C18.5898 36.4291 18.5271 36.3664 18.4853 36.2828C18.4435 36.1992 18.4017 36.0947 18.4017 35.9693C18.4017 35.8439 18.4226 35.7185 18.4853 35.614C18.5271 35.5095 18.6107 35.405 18.6943 35.3214C18.778 35.2378 18.9034 35.1751 19.0288 35.1333C19.1542 35.0915 19.3005 35.0706 19.4677 35.0706C19.5513 35.0706 19.614 35.0706 19.6767 35.0915C19.7394 35.1124 19.8021 35.1124 19.8648 35.1333C19.9275 35.1542 19.9693 35.1751 20.0111 35.196C20.0529 35.2169 20.0947 35.2378 20.1156 35.2587C20.1156 35.2378 20.1365 35.2587 20.1365 35.3005Z"
                        fill="#353A42"
                      />
                      <path
                        d="M23.7107 36.0111C23.7107 35.9275 23.7107 35.8439 23.6898 35.7812C23.6689 35.7185 23.648 35.6558 23.6271 35.5931C23.5853 35.5513 23.5435 35.5095 23.5017 35.4677C23.4599 35.4468 23.3763 35.4259 23.3136 35.4259C23.2091 35.4259 23.1046 35.4468 23.0001 35.5095C22.8956 35.5722 22.7911 35.6558 22.6866 35.7603C22.6029 35.8648 22.5193 35.9902 22.4357 36.1365C22.373 36.2828 22.3103 36.4291 22.2685 36.5963L22.164 37.077C22.2476 37.2233 22.3521 37.3069 22.4566 37.3905C22.5611 37.4532 22.6865 37.495 22.812 37.495C22.9165 37.495 23.0001 37.4741 23.1046 37.4114C23.1882 37.3696 23.2718 37.3069 23.3345 37.2233C23.3972 37.1397 23.4599 37.0561 23.5017 36.9516C23.5435 36.8471 23.5853 36.7426 23.6271 36.6381C23.6689 36.5336 23.6898 36.4082 23.6898 36.3037C23.7107 36.1992 23.7107 36.0947 23.7107 36.0111ZM24.2123 35.9693C24.2123 36.0738 24.1914 36.2201 24.1705 36.3455C24.1496 36.4918 24.1078 36.6381 24.066 36.7844C24.0242 36.9307 23.9615 37.077 23.8779 37.2024C23.7943 37.3278 23.7107 37.4532 23.6062 37.5577C23.5017 37.6622 23.3763 37.7458 23.2509 37.8085C23.1255 37.8712 22.9583 37.913 22.7911 37.913C22.7075 37.913 22.6238 37.913 22.5611 37.8921C22.4984 37.8712 22.4148 37.8503 22.3521 37.8294C22.2894 37.7876 22.2267 37.7667 22.1849 37.7249C22.1431 37.6831 22.0804 37.6413 22.0386 37.5786L21.7878 38.8536C21.7878 38.8745 21.7878 38.8745 21.7669 38.8954C21.7669 38.9163 21.746 38.9163 21.7251 38.9163C21.7042 38.9163 21.6833 38.9372 21.6415 38.9372C21.5997 38.9372 21.5788 38.9372 21.5161 38.9372C21.4743 38.9372 21.4325 38.9372 21.4116 38.9372C21.3907 38.9372 21.3489 38.9372 21.3489 38.9163C21.328 38.9163 21.328 38.8954 21.3071 38.8954C21.3071 38.8745 21.3071 38.8745 21.3071 38.8536L22.0386 35.1751C22.0386 35.1542 22.0595 35.1124 22.1013 35.1124C22.1431 35.0915 22.1849 35.0915 22.2685 35.0915C22.3103 35.0915 22.3521 35.0915 22.373 35.0915C22.3939 35.0915 22.4148 35.0915 22.4357 35.1124C22.4566 35.1124 22.4566 35.1333 22.4566 35.1333C22.4566 35.1542 22.4566 35.1542 22.4566 35.1751L22.3521 35.6767C22.373 35.614 22.4357 35.5513 22.4984 35.4677C22.5611 35.3841 22.6447 35.3214 22.7284 35.2587C22.812 35.196 22.9165 35.1333 23.021 35.0915C23.1255 35.0497 23.2509 35.0288 23.3554 35.0288C23.5017 35.0288 23.6271 35.0497 23.7316 35.1124C23.8361 35.1542 23.9197 35.2378 23.9824 35.3214C24.0451 35.405 24.0869 35.5095 24.1078 35.614C24.2123 35.7185 24.2123 35.8439 24.2123 35.9693Z"
                        fill="#353A42"
                      />
                      <path
                        d="M26.5949 35.8441C26.5113 35.7187 26.4068 35.6142 26.3023 35.5306C26.1978 35.4679 26.0724 35.4261 25.947 35.4261C25.8425 35.4261 25.738 35.447 25.6544 35.5097C25.5708 35.5515 25.4872 35.6351 25.4245 35.6978C25.3618 35.7814 25.2991 35.865 25.2573 35.9695C25.2155 36.074 25.1737 36.1785 25.1319 36.283C25.111 36.3875 25.0692 36.5129 25.0692 36.6174C25.0483 36.7219 25.0483 36.8264 25.0483 36.91C25.0483 36.9727 25.0483 37.0563 25.0692 37.119C25.0901 37.1817 25.0901 37.2444 25.1319 37.3071C25.1528 37.3698 25.1946 37.4116 25.2573 37.4325C25.32 37.4743 25.3827 37.4743 25.4663 37.4743C25.5708 37.4743 25.6753 37.4534 25.7798 37.3907C25.8843 37.328 25.9888 37.2444 26.0724 37.1399C26.156 37.0354 26.2396 36.91 26.3232 36.7637C26.3859 36.6174 26.4486 36.4711 26.4904 36.283L26.5949 35.8441ZM26.6785 37.7878C26.6785 37.8296 26.6576 37.8505 26.6158 37.8505C26.574 37.8714 26.5322 37.8714 26.4486 37.8714C26.4068 37.8714 26.3859 37.8714 26.3441 37.8714C26.3232 37.8714 26.3023 37.8714 26.2814 37.8505C26.2605 37.8505 26.2605 37.8296 26.2396 37.8296C26.2396 37.8087 26.2396 37.8087 26.2396 37.7878L26.3441 37.2862C26.3232 37.3489 26.2814 37.4116 26.1978 37.4952C26.1351 37.5788 26.0515 37.6415 25.9679 37.7042C25.8843 37.7669 25.7798 37.8087 25.6544 37.8505C25.5499 37.8923 25.4245 37.9132 25.32 37.9132C25.1737 37.9132 25.0274 37.8923 24.9229 37.8296C24.8184 37.7669 24.7348 37.7042 24.6721 37.6206C24.6094 37.537 24.5676 37.4325 24.5467 37.3071C24.5258 37.2026 24.5049 37.0772 24.5049 36.9518C24.5049 36.8473 24.5049 36.7219 24.5258 36.5756C24.5467 36.4293 24.5885 36.3039 24.6303 36.1576C24.6721 36.0113 24.7348 35.865 24.8184 35.7396C24.902 35.5933 24.9856 35.4888 25.0901 35.3634C25.1946 35.2589 25.32 35.1753 25.4454 35.1126C25.5917 35.0499 25.738 35.0081 25.9052 35.0081C26.0724 35.0081 26.2187 35.0499 26.3441 35.1126C26.4695 35.1753 26.574 35.2798 26.6785 35.4052L26.7412 35.1335C26.7412 35.1126 26.7621 35.0708 26.8039 35.0708C26.8457 35.0499 26.9084 35.0499 26.9711 35.0499C27.0129 35.0499 27.0338 35.0499 27.0756 35.0499C27.0965 35.0499 27.1174 35.0499 27.1383 35.0708C27.1592 35.0708 27.1592 35.0917 27.1592 35.0917C27.1592 35.1126 27.1592 35.1126 27.1592 35.1335L26.6785 37.7878Z"
                        fill="#353A42"
                      />
                      <path
                        d="M29.4581 35.1543C29.4581 35.1543 29.4581 35.1752 29.4581 35.1961C29.4581 35.217 29.4581 35.2379 29.4581 35.2797C29.4581 35.3006 29.4581 35.3424 29.4372 35.3633C29.4372 35.3842 29.4163 35.426 29.4163 35.4469C29.3954 35.4678 29.3954 35.4887 29.3745 35.5096C29.3536 35.5305 29.3536 35.5305 29.3327 35.5305C29.3118 35.5305 29.2909 35.5305 29.2909 35.5305C29.27 35.5305 29.2491 35.5096 29.2282 35.5096C29.2073 35.5096 29.1864 35.4887 29.1446 35.4887C29.1237 35.4887 29.0819 35.4887 29.0401 35.4887C28.9774 35.4887 28.8938 35.5096 28.8102 35.5723C28.7266 35.635 28.643 35.7186 28.5594 35.8022C28.4758 35.9067 28.3922 36.0321 28.3295 36.1575C28.2668 36.3038 28.2041 36.4501 28.1832 36.6173L27.9533 37.7877C27.9533 37.8086 27.9324 37.8086 27.9324 37.8295C27.9324 37.8504 27.9115 37.8504 27.8906 37.8504C27.8697 37.8504 27.8488 37.8713 27.807 37.8713C27.7652 37.8713 27.7443 37.8713 27.6816 37.8713C27.6398 37.8713 27.598 37.8713 27.5562 37.8713C27.5353 37.8713 27.4935 37.8713 27.4935 37.8504C27.4726 37.8504 27.4726 37.8295 27.4517 37.8295C27.4517 37.8086 27.4517 37.8086 27.4517 37.7877L27.9742 35.1543C27.9742 35.1334 27.9742 35.1334 27.9951 35.1125C27.9951 35.0916 28.016 35.0916 28.0369 35.0916C28.0578 35.0916 28.0787 35.0707 28.0996 35.0707C28.1205 35.0707 28.1623 35.0707 28.2041 35.0707C28.2459 35.0707 28.2877 35.0707 28.3086 35.0707C28.3295 35.0707 28.3504 35.0707 28.3713 35.0916C28.3922 35.0916 28.3922 35.1125 28.3922 35.1125C28.3922 35.1334 28.3922 35.1334 28.3922 35.1543L28.2877 35.635C28.3295 35.5514 28.3922 35.4678 28.4549 35.4051C28.5176 35.3215 28.5803 35.2588 28.6639 35.217C28.7266 35.1543 28.8102 35.1125 28.8938 35.0916C28.9774 35.0498 29.0401 35.0498 29.1237 35.0498C29.1655 35.0498 29.1864 35.0498 29.2282 35.0498C29.27 35.0498 29.2909 35.0707 29.3327 35.0707C29.3536 35.0707 29.3954 35.0916 29.4163 35.0916C29.4372 35.0916 29.4581 35.1125 29.4581 35.1125C29.4581 35.1125 29.4581 35.1334 29.4581 35.1543Z"
                        fill="#353A42"
                      />
                      <path
                        d="M31.4648 35.8441C31.3812 35.7187 31.2767 35.6142 31.1722 35.5306C31.0677 35.4679 30.9423 35.4261 30.8169 35.4261C30.7124 35.4261 30.6079 35.447 30.5243 35.5097C30.4407 35.5515 30.3571 35.6351 30.2944 35.6978C30.2317 35.7814 30.169 35.865 30.1272 35.9695C30.0854 36.074 30.0436 36.1785 30.0018 36.283C29.9809 36.3875 29.9391 36.5129 29.9391 36.6174C29.9182 36.7219 29.9182 36.8264 29.9182 36.91C29.9182 36.9727 29.9182 37.0563 29.9391 37.119C29.96 37.1817 29.96 37.2444 30.0018 37.3071C30.0227 37.3698 30.0645 37.4116 30.1272 37.4325C30.1899 37.4743 30.2526 37.4743 30.3362 37.4743C30.4407 37.4743 30.5452 37.4534 30.6497 37.3907C30.7542 37.328 30.8587 37.2444 30.9423 37.1399C31.0259 37.0354 31.1095 36.91 31.1931 36.7637C31.2558 36.6174 31.3185 36.4711 31.3603 36.283L31.4648 35.8441ZM31.5484 37.7878C31.5484 37.8296 31.5275 37.8505 31.4857 37.8505C31.4439 37.8714 31.4021 37.8714 31.3185 37.8714C31.2767 37.8714 31.2558 37.8714 31.214 37.8714C31.1931 37.8714 31.1722 37.8714 31.1513 37.8505C31.1304 37.8505 31.1304 37.8296 31.1095 37.8296C31.1095 37.8087 31.1095 37.8087 31.1095 37.7878L31.214 37.2862C31.1931 37.3489 31.1513 37.4116 31.0677 37.4952C31.005 37.5788 30.9214 37.6415 30.8378 37.7042C30.7542 37.7669 30.6497 37.8087 30.5243 37.8505C30.4198 37.8923 30.2944 37.9132 30.1899 37.9132C30.0436 37.9132 29.8973 37.8923 29.7928 37.8296C29.6883 37.7669 29.6047 37.7042 29.542 37.6206C29.4793 37.537 29.4375 37.4325 29.4166 37.3071C29.3957 37.2026 29.3748 37.0772 29.3748 36.9518C29.3748 36.8473 29.3748 36.7219 29.3957 36.5756C29.4166 36.4293 29.4584 36.3039 29.5002 36.1576C29.542 36.0113 29.6047 35.865 29.6883 35.7396C29.751 35.5933 29.8555 35.4888 29.96 35.3634C30.0645 35.2589 30.1899 35.1753 30.3153 35.1126C30.4616 35.0499 30.6079 35.0081 30.7751 35.0081C30.9423 35.0081 31.0886 35.0499 31.214 35.1126C31.3394 35.1753 31.4439 35.2798 31.5484 35.4052L31.6111 35.1335C31.6111 35.1126 31.632 35.0708 31.6738 35.0708C31.7156 35.0499 31.7783 35.0499 31.841 35.0499C31.8828 35.0499 31.9037 35.0499 31.9455 35.0499C31.9664 35.0499 31.9873 35.0499 32.0082 35.0708C32.0291 35.0708 32.0291 35.0917 32.0291 35.0917C32.0291 35.1126 32.0291 35.1126 32.0291 35.1335L31.5484 37.7878Z"
                        fill="#353A42"
                      />
                      <path
                        d="M35.8329 35.3842C35.8329 35.426 35.8329 35.4469 35.8329 35.4887C35.8329 35.5305 35.812 35.5514 35.812 35.5932C35.7911 35.635 35.7911 35.6559 35.7702 35.6768C35.7493 35.6977 35.7284 35.7186 35.7075 35.7186C35.6866 35.7186 35.6448 35.6977 35.6239 35.6768C35.603 35.6559 35.5612 35.6141 35.4985 35.5723C35.4567 35.5305 35.394 35.5096 35.3104 35.4678C35.2477 35.4469 35.1432 35.426 35.0387 35.426C34.9133 35.426 34.8088 35.4469 34.7043 35.5096C34.5998 35.5514 34.5162 35.635 34.4535 35.7186C34.3908 35.8022 34.3281 35.8858 34.2863 36.0112C34.2445 36.1157 34.2027 36.2202 34.1818 36.3247C34.1609 36.4292 34.14 36.5337 34.1191 36.6382C34.0982 36.7427 34.0982 36.8263 34.0982 36.9099C34.0982 37.1189 34.14 37.2652 34.2236 37.3697C34.3072 37.4742 34.4326 37.516 34.6207 37.516C34.7461 37.516 34.8506 37.4951 34.9551 37.4742C35.0387 37.4533 35.1223 37.4115 35.185 37.3697C35.2477 37.3279 35.3104 37.2861 35.3313 37.2652C35.3731 37.2443 35.4149 37.2234 35.4358 37.2234C35.4567 37.2234 35.4567 37.2234 35.4776 37.2443C35.4776 37.2652 35.4985 37.2861 35.4985 37.307C35.4985 37.3279 35.4985 37.3488 35.4985 37.3906C35.4985 37.4324 35.4985 37.4533 35.4776 37.4951C35.4776 37.5369 35.4567 37.5578 35.4358 37.5996C35.4149 37.6205 35.4149 37.6623 35.3731 37.6832C35.3522 37.7041 35.3104 37.7459 35.2477 37.7668C35.185 37.8086 35.1223 37.8295 35.0387 37.8713C34.9551 37.8922 34.8715 37.9131 34.7879 37.934C34.7043 37.9549 34.5998 37.9549 34.5162 37.9549C34.2027 37.9549 33.9728 37.8713 33.8056 37.725C33.6593 37.5578 33.5757 37.3279 33.5757 37.0144C33.5757 36.889 33.5757 36.7636 33.5966 36.6173C33.6175 36.471 33.6593 36.3247 33.7011 36.1993C33.7429 36.053 33.8056 35.9067 33.8892 35.7813C33.9728 35.6559 34.0564 35.5305 34.1609 35.426C34.2654 35.3215 34.3908 35.2379 34.5371 35.1752C34.6834 35.1125 34.8506 35.0916 35.0387 35.0916C35.1223 35.0916 35.185 35.0916 35.2686 35.1125C35.3313 35.1334 35.4149 35.1334 35.4776 35.1543C35.5403 35.1752 35.603 35.1961 35.6448 35.2379C35.6866 35.2797 35.7284 35.3006 35.7702 35.3215C35.7911 35.3424 35.812 35.3633 35.8329 35.3842C35.8329 35.3633 35.8329 35.3424 35.8329 35.3842Z"
                        fill="#353A42"
                      />
                      <path
                        d="M37.9438 35.8441C37.8602 35.7187 37.7557 35.6142 37.6512 35.5306C37.5467 35.4679 37.4213 35.4261 37.2959 35.4261C37.1914 35.4261 37.0869 35.447 37.0033 35.5097C36.9197 35.5515 36.8361 35.6351 36.7734 35.6978C36.7107 35.7814 36.648 35.865 36.6062 35.9695C36.5644 36.074 36.5226 36.1785 36.4808 36.283C36.4599 36.3875 36.4181 36.5129 36.4181 36.6174C36.3972 36.7219 36.3972 36.8264 36.3972 36.91C36.3972 36.9727 36.3972 37.0563 36.4181 37.119C36.439 37.1817 36.439 37.2444 36.4808 37.3071C36.5017 37.3698 36.5435 37.4116 36.6062 37.4325C36.6689 37.4743 36.7316 37.4743 36.8152 37.4743C36.9197 37.4743 37.0242 37.4534 37.1287 37.3907C37.2332 37.328 37.3377 37.2444 37.4213 37.1399C37.5049 37.0354 37.5885 36.91 37.6721 36.7637C37.7348 36.6174 37.7975 36.4711 37.8393 36.283L37.9438 35.8441ZM38.0274 37.7878C38.0274 37.8296 38.0065 37.8505 37.9647 37.8505C37.9229 37.8714 37.8811 37.8714 37.7975 37.8714C37.7557 37.8714 37.7348 37.8714 37.693 37.8714C37.6721 37.8714 37.6512 37.8714 37.6303 37.8505C37.6094 37.8505 37.6094 37.8296 37.5885 37.8296C37.5885 37.8087 37.5885 37.8087 37.5885 37.7878L37.693 37.2862C37.6721 37.3489 37.6303 37.4116 37.5467 37.4952C37.484 37.5788 37.4004 37.6415 37.3168 37.7042C37.2332 37.7669 37.1287 37.8087 37.0033 37.8505C36.8988 37.8923 36.7734 37.9132 36.6689 37.9132C36.5226 37.9132 36.3763 37.8923 36.2718 37.8296C36.1673 37.7669 36.0837 37.7042 36.021 37.6206C35.9583 37.537 35.9165 37.4325 35.8956 37.3071C35.8747 37.2026 35.8538 37.0772 35.8538 36.9518C35.8538 36.8473 35.8538 36.7219 35.8747 36.5756C35.8956 36.4293 35.9374 36.3039 35.9792 36.1576C36.021 36.0113 36.0837 35.865 36.1673 35.7396C36.23 35.5933 36.3345 35.4888 36.439 35.3634C36.5435 35.2589 36.6689 35.1753 36.7943 35.1126C36.9406 35.0499 37.0869 35.0081 37.2541 35.0081C37.4213 35.0081 37.5676 35.0499 37.693 35.1126C37.8184 35.1753 37.9229 35.2798 38.0274 35.4052L38.0901 35.1335C38.0901 35.1126 38.111 35.0708 38.1528 35.0708C38.1946 35.0499 38.2573 35.0499 38.32 35.0499C38.3618 35.0499 38.3827 35.0499 38.4245 35.0499C38.4454 35.0499 38.4663 35.0499 38.4872 35.0708C38.5081 35.0708 38.5081 35.0917 38.5081 35.0917C38.5081 35.1126 38.5081 35.1126 38.5081 35.1335L38.0274 37.7878Z"
                        fill="#353A42"
                      />
                      <path
                        d="M42.6463 37.7878C42.6463 37.8087 42.6463 37.8087 42.6254 37.8296C42.6254 37.8505 42.6045 37.8505 42.5836 37.8505C42.5627 37.8505 42.5418 37.8714 42.5 37.8714C42.4582 37.8714 42.4373 37.8714 42.3746 37.8714C42.3328 37.8714 42.291 37.8714 42.2492 37.8714C42.2283 37.8714 42.1865 37.8714 42.1865 37.8505C42.1656 37.8505 42.1656 37.8296 42.1447 37.8296C42.1447 37.8087 42.1447 37.8087 42.1447 37.7878L42.4791 36.1576C42.4791 36.0949 42.5 36.0531 42.5 35.9904C42.5 35.9486 42.5 35.8859 42.5 35.8441C42.5 35.7187 42.4791 35.6142 42.4373 35.5515C42.3955 35.4679 42.3119 35.447 42.1865 35.447C42.082 35.447 41.9775 35.4679 41.8939 35.5306C41.7894 35.5933 41.6849 35.6769 41.6013 35.7814C41.5177 35.8859 41.4341 36.0113 41.3505 36.1576C41.2878 36.3039 41.2251 36.4502 41.1833 36.6174L40.9534 37.7878C40.9534 37.8087 40.9325 37.8087 40.9325 37.8296C40.9325 37.8505 40.9116 37.8505 40.8907 37.8505C40.8698 37.8505 40.8489 37.8714 40.8071 37.8714C40.7653 37.8714 40.7444 37.8714 40.6817 37.8714C40.619 37.8714 40.5981 37.8714 40.5563 37.8714C40.5354 37.8714 40.4936 37.8714 40.4936 37.8505C40.4727 37.8505 40.4727 37.8296 40.4518 37.8296C40.4518 37.8087 40.4518 37.8087 40.4518 37.7878L40.7862 36.1576C40.8071 36.0949 40.8071 36.0322 40.8071 35.9904C40.8071 35.9277 40.8071 35.8859 40.8071 35.8232C40.8071 35.6978 40.7862 35.6142 40.7235 35.5306C40.6817 35.4679 40.5981 35.4261 40.4727 35.4261C40.3682 35.4261 40.2637 35.447 40.1592 35.5097C40.0547 35.5724 39.9502 35.656 39.8666 35.7605C39.783 35.865 39.6994 35.9904 39.6158 36.1367C39.5531 36.283 39.4904 36.4293 39.4486 36.5965L39.2187 37.7669C39.2187 37.7878 39.1978 37.7878 39.1978 37.8087C39.1978 37.8296 39.1768 37.8296 39.1559 37.8296C39.135 37.8296 39.1141 37.8505 39.0723 37.8505C39.0305 37.8505 39.0096 37.8505 38.9469 37.8505C38.9051 37.8505 38.8633 37.8505 38.8215 37.8505C38.8006 37.8505 38.7588 37.8505 38.7588 37.8296C38.7379 37.8296 38.7379 37.8087 38.717 37.8087C38.717 37.7878 38.717 37.7878 38.717 37.7669L39.2395 35.1335C39.2395 35.1126 39.2396 35.1126 39.2605 35.0917C39.2605 35.0708 39.2814 35.0708 39.3023 35.0708C39.3232 35.0708 39.3441 35.0499 39.365 35.0499C39.3859 35.0499 39.4277 35.0499 39.4695 35.0499C39.5113 35.0499 39.5531 35.0499 39.574 35.0499C39.5949 35.0499 39.6158 35.0499 39.6367 35.0708C39.6576 35.0708 39.6576 35.0917 39.6576 35.0917C39.6576 35.1126 39.6576 35.1126 39.6576 35.1335L39.5531 35.6351C39.574 35.5724 39.6367 35.4888 39.6994 35.4261C39.7621 35.3425 39.8457 35.2798 39.9293 35.2171C40.0129 35.1544 40.1174 35.1126 40.2219 35.0708C40.3264 35.029 40.4309 35.0081 40.5563 35.0081C40.6817 35.0081 40.7653 35.029 40.8489 35.0499C40.9325 35.0917 40.9952 35.1335 41.0579 35.1753C41.1206 35.238 41.1415 35.3007 41.1833 35.3843C41.2042 35.4679 41.2251 35.5515 41.2251 35.6351C41.2669 35.5724 41.3087 35.4888 41.3923 35.4261C41.455 35.3425 41.5386 35.2798 41.6222 35.2171C41.7058 35.1544 41.8103 35.1126 41.9148 35.0708C42.0193 35.029 42.1238 35.0081 42.2283 35.0081C42.3537 35.0081 42.4582 35.029 42.5627 35.0708C42.6463 35.1126 42.7299 35.1544 42.7717 35.2171C42.8344 35.2798 42.8553 35.3634 42.8971 35.447C42.918 35.5306 42.9389 35.6351 42.9389 35.7187C42.9389 35.7814 42.9389 35.865 42.918 35.9277C42.918 35.9904 42.8971 36.0531 42.8762 36.1367L42.6463 37.7878Z"
                        fill="#353A42"
                      />
                      <path
                        d="M44.6319 34.2762C44.6319 34.3389 44.611 34.3807 44.5901 34.4226C44.5692 34.4644 44.5483 34.4852 44.5274 34.5062C44.5065 34.5271 44.4647 34.5479 44.4229 34.5479C44.3811 34.5479 44.3393 34.5688 44.2766 34.5688C44.2139 34.5688 44.1721 34.5688 44.1303 34.5479C44.0885 34.5479 44.0676 34.5271 44.0467 34.5062C44.0258 34.4852 44.0258 34.4644 44.0258 34.4226C44.0258 34.3807 44.0258 34.3389 44.0467 34.2762C44.0676 34.2135 44.0676 34.1717 44.0885 34.1299C44.1094 34.0881 44.1303 34.0672 44.1512 34.0463C44.1721 34.0254 44.2139 34.0045 44.2557 34.0045C44.2975 34.0045 44.3393 33.9836 44.402 33.9836C44.4647 33.9836 44.5065 33.9836 44.5483 34.0045C44.5901 34.0045 44.611 34.0254 44.6319 34.0463C44.6528 34.0672 44.6529 34.109 44.6529 34.1299C44.6529 34.1717 44.6528 34.2135 44.6319 34.2762ZM43.8795 37.7875C43.8795 37.8084 43.8586 37.8084 43.8586 37.8293C43.8586 37.8502 43.8377 37.8502 43.8168 37.8502C43.7959 37.8502 43.775 37.8711 43.7332 37.8711C43.6914 37.8711 43.6705 37.8711 43.6078 37.8711C43.566 37.8711 43.5242 37.8711 43.4824 37.8711C43.4615 37.8711 43.4197 37.8711 43.4197 37.8502C43.3988 37.8502 43.3988 37.8293 43.3779 37.8293C43.3779 37.8084 43.3779 37.8084 43.3779 37.7875L43.9004 35.1541C43.9004 35.1332 43.9004 35.1332 43.9213 35.1123C43.9213 35.0914 43.9422 35.0914 43.9631 35.0914C43.984 35.0914 44.0049 35.0705 44.0467 35.0705C44.0885 35.0705 44.1094 35.0705 44.1721 35.0705C44.2139 35.0705 44.2557 35.0705 44.2975 35.0705C44.3184 35.0705 44.3602 35.0705 44.3602 35.0914C44.3811 35.0914 44.3811 35.1123 44.402 35.1123C44.402 35.1332 44.402 35.1332 44.402 35.1541L43.8795 37.7875Z"
                        fill="#353A42"
                      />
                      <path
                        d="M47.2025 35.7395C47.2025 35.8022 47.2025 35.8858 47.1816 35.9485C47.1816 36.0112 47.1607 36.0739 47.1398 36.1575L46.8054 37.8086C46.8054 37.8295 46.8054 37.8295 46.7845 37.8504C46.7845 37.8713 46.7636 37.8713 46.7427 37.8713C46.7218 37.8713 46.7009 37.8922 46.6591 37.8922C46.6382 37.8922 46.5964 37.8922 46.5337 37.8922C46.4919 37.8922 46.4501 37.8922 46.4083 37.8922C46.3874 37.8922 46.3456 37.8922 46.3456 37.8713C46.3247 37.8713 46.3247 37.8504 46.3038 37.8504C46.3038 37.8295 46.3038 37.8295 46.3038 37.8086L46.6382 36.1784C46.6591 36.1157 46.6591 36.053 46.6591 36.0112C46.6591 35.9485 46.6591 35.9067 46.6591 35.8649C46.6591 35.7395 46.6382 35.6559 46.5755 35.5723C46.5337 35.5096 46.4501 35.4678 46.3247 35.4678C46.2202 35.4678 46.1157 35.4887 46.0112 35.5514C45.9067 35.6141 45.8022 35.6977 45.7186 35.8022C45.635 35.9067 45.5514 36.0321 45.4678 36.1784C45.3842 36.3247 45.3424 36.471 45.3006 36.6382L45.0707 37.8086C45.0707 37.8295 45.0498 37.8295 45.0498 37.8504C45.0498 37.8713 45.0289 37.8713 45.008 37.8713C44.9871 37.8713 44.9662 37.8922 44.9244 37.8922C44.8826 37.8922 44.8617 37.8922 44.799 37.8922C44.7572 37.8922 44.7154 37.8922 44.6736 37.8922C44.6527 37.8922 44.6109 37.8922 44.6109 37.8713C44.59 37.8713 44.59 37.8504 44.5691 37.8504C44.5691 37.8295 44.5691 37.8295 44.5691 37.8086L45.0916 35.1752C45.0916 35.1543 45.0916 35.1543 45.1125 35.1334C45.1125 35.1125 45.1334 35.1125 45.1543 35.1125C45.1752 35.1125 45.1961 35.0916 45.217 35.0916C45.2379 35.0916 45.2797 35.0916 45.3215 35.0916C45.3633 35.0916 45.4051 35.0916 45.426 35.0916C45.4469 35.0916 45.4678 35.0916 45.4887 35.1125C45.5096 35.1125 45.5096 35.1334 45.5096 35.1334C45.5096 35.1543 45.5096 35.1543 45.5096 35.1752L45.4051 35.6768C45.426 35.6141 45.4887 35.5305 45.5514 35.4678C45.6141 35.3842 45.6977 35.3215 45.7813 35.2588C45.8649 35.1961 45.9694 35.1543 46.0739 35.1125C46.1784 35.0707 46.3038 35.0498 46.4083 35.0498C46.5337 35.0498 46.6382 35.0707 46.7427 35.1125C46.8263 35.1543 46.9099 35.1961 46.9517 35.2797C47.0144 35.3424 47.0353 35.426 47.0771 35.5096C47.2025 35.5514 47.2025 35.635 47.2025 35.7395Z"
                        fill="#353A42"
                      />
                      <path
                        d="M49.7732 37.7879C49.7732 37.8088 49.7523 37.8088 49.7523 37.8297C49.7523 37.8506 49.7314 37.8506 49.7105 37.8506C49.6896 37.8506 49.6687 37.8715 49.6269 37.8715C49.606 37.8715 49.5642 37.8715 49.5015 37.8715C49.4597 37.8715 49.4179 37.8715 49.3761 37.8715C49.3552 37.8715 49.3134 37.8715 49.3134 37.8506C49.2925 37.8506 49.2925 37.8297 49.2716 37.8297C49.2716 37.8088 49.2716 37.8088 49.2716 37.7879L49.606 36.1576C49.606 36.1158 49.6269 36.0531 49.6269 35.9904C49.6269 35.9277 49.6269 35.865 49.6269 35.8232C49.6269 35.7605 49.6269 35.7187 49.606 35.6769C49.5851 35.6351 49.5851 35.5933 49.5433 35.5515C49.5224 35.5097 49.4806 35.4888 49.4388 35.4679C49.397 35.447 49.3552 35.447 49.2925 35.447C49.188 35.447 49.0835 35.4679 48.979 35.5306C48.8745 35.5933 48.77 35.6769 48.6864 35.7814C48.6028 35.8859 48.5192 36.0113 48.4356 36.1576C48.352 36.3039 48.3102 36.4502 48.2684 36.6174L48.0385 37.7879C48.0385 37.8088 48.0176 37.8088 48.0176 37.8297C48.0176 37.8506 47.9967 37.8506 47.9758 37.8506C47.9549 37.8506 47.934 37.8715 47.8922 37.8715C47.8504 37.8715 47.8295 37.8715 47.7668 37.8715C47.725 37.8715 47.6832 37.8715 47.6414 37.8715C47.6205 37.8715 47.5787 37.8715 47.5787 37.8506C47.5578 37.8506 47.5578 37.8297 47.5369 37.8297C47.5369 37.8088 47.5369 37.8088 47.5369 37.7879L48.3102 33.8795C48.3102 33.8586 48.3102 33.8586 48.3311 33.8377C48.3311 33.8168 48.352 33.8168 48.3729 33.8168C48.3938 33.8168 48.4147 33.7959 48.4565 33.7959C48.4983 33.7959 48.5192 33.7959 48.5819 33.7959C48.6237 33.7959 48.6655 33.7959 48.7073 33.7959C48.7282 33.7959 48.77 33.7959 48.77 33.8168C48.7909 33.8168 48.7909 33.8377 48.7909 33.8377C48.7909 33.8586 48.7909 33.8586 48.7909 33.8795L48.561 35.0708C48.561 35.1126 48.5401 35.1753 48.5192 35.2171C48.4983 35.2798 48.4983 35.3216 48.4774 35.3843C48.4565 35.4261 48.4565 35.4888 48.4356 35.5306C48.4147 35.5724 48.4147 35.6142 48.3938 35.656C48.4147 35.5933 48.4774 35.5097 48.5401 35.447C48.6028 35.3843 48.6864 35.3007 48.77 35.238C48.8536 35.1753 48.9581 35.1335 49.0626 35.0917C49.1671 35.0499 49.2925 35.029 49.397 35.029C49.5224 35.029 49.6269 35.0499 49.7105 35.0917C49.7941 35.1335 49.8777 35.1753 49.9195 35.238C49.9822 35.3007 50.024 35.3843 50.0449 35.4679C50.0658 35.5515 50.0867 35.656 50.0867 35.7605C50.0867 35.8232 50.0867 35.9068 50.0658 35.9695C50.0658 36.0322 50.0449 36.0949 50.024 36.1785L49.7732 37.7879Z"
                        fill="#353A42"
                      />
                      <path
                        d="M53.2635 33.984C53.2635 34.0049 53.2635 34.0258 53.2635 34.0467C53.2635 34.0885 53.2426 34.1303 53.2426 34.1721C53.2217 34.2139 53.2008 34.2766 53.1799 34.3393C53.159 34.402 53.1172 34.4438 53.0754 34.4856C53.0336 34.5274 52.9709 34.5692 52.9082 34.611C52.8455 34.6319 52.7619 34.6528 52.6574 34.6528C52.5947 34.6528 52.5111 34.6528 52.4693 34.6319C52.4066 34.611 52.3648 34.5901 52.323 34.5692C52.2812 34.5483 52.2394 34.5065 52.1976 34.4856C52.1558 34.4438 52.114 34.4229 52.0931 34.402C52.0513 34.3811 52.0304 34.3393 51.9886 34.3393C51.9468 34.3184 51.905 34.3184 51.8632 34.3184C51.7796 34.3184 51.7378 34.3393 51.696 34.402C51.6542 34.4647 51.6333 34.5274 51.6124 34.6319C51.6124 34.6528 51.6124 34.6528 51.5915 34.6737C51.5915 34.6946 51.5706 34.6946 51.5706 34.6946C51.5497 34.6946 51.5288 34.6946 51.5079 34.7155C51.487 34.7155 51.4452 34.7155 51.4243 34.7155C51.3825 34.7155 51.3616 34.7155 51.3407 34.7155C51.3198 34.7155 51.2989 34.7155 51.2989 34.6946L51.278 34.6737C51.278 34.6528 51.278 34.6528 51.278 34.6319C51.278 34.611 51.278 34.5901 51.278 34.5483C51.278 34.5065 51.2989 34.4647 51.2989 34.4229C51.3198 34.3811 51.3407 34.3184 51.3616 34.2557C51.3825 34.193 51.4243 34.1512 51.4661 34.1094C51.5079 34.0676 51.5706 34.0258 51.6333 34.0049C51.696 33.984 51.7796 33.9631 51.8841 33.9631C51.9468 33.9631 52.0304 33.9631 52.0722 33.984C52.1349 34.0049 52.1767 34.0258 52.2185 34.0467C52.2603 34.0676 52.3021 34.1094 52.3439 34.1303C52.3857 34.1721 52.4275 34.193 52.4484 34.2139C52.4902 34.2348 52.5111 34.2766 52.5529 34.2766C52.5947 34.2975 52.6365 34.2975 52.6783 34.2975C52.741 34.2975 52.8037 34.2766 52.8455 34.2139C52.8873 34.1721 52.9082 34.0885 52.9291 33.984C52.9291 33.9631 52.95 33.9422 52.9709 33.9213C52.9918 33.9004 53.0336 33.9004 53.1172 33.9004C53.1799 33.9004 53.2426 33.9004 53.2635 33.9213C53.2635 33.9213 53.2635 33.9422 53.2635 33.984ZM52.6783 36.0531C52.6783 35.9486 52.6783 35.865 52.6574 35.7814C52.6365 35.6978 52.5947 35.6351 52.5529 35.5933C52.5111 35.5306 52.4484 35.4888 52.3648 35.4679C52.2812 35.447 52.1976 35.4261 52.0931 35.4261C51.9677 35.4261 51.8632 35.447 51.7796 35.4888C51.6751 35.5306 51.5915 35.5933 51.5288 35.656C51.4452 35.7187 51.3825 35.8023 51.3407 35.9068C51.278 36.0113 51.2362 36.0949 51.1944 36.2203C51.1526 36.3248 51.1317 36.4502 51.1108 36.5547C51.0899 36.6592 51.0899 36.7846 51.0899 36.8891C51.0899 36.9936 51.1108 37.0772 51.1317 37.1608C51.1526 37.2444 51.1944 37.3071 51.2362 37.3698C51.278 37.4325 51.3407 37.4743 51.4243 37.4952C51.5079 37.5161 51.5915 37.537 51.696 37.537C51.8214 37.537 51.9259 37.5161 52.0095 37.4743C52.114 37.4325 52.1976 37.3698 52.2603 37.3071C52.3439 37.2444 52.4066 37.1608 52.4484 37.0563C52.5111 36.9518 52.5529 36.8682 52.5947 36.7428C52.6365 36.6383 52.6574 36.5129 52.6783 36.4084C52.6783 36.283 52.6783 36.1576 52.6783 36.0531ZM53.2008 36.0322C53.2008 36.1785 53.1799 36.3248 53.159 36.4711C53.1381 36.6174 53.0963 36.7637 53.0336 36.91C52.9709 37.0563 52.9082 37.1817 52.8246 37.3071C52.741 37.4325 52.6365 37.537 52.532 37.6206C52.4066 37.7042 52.2812 37.7878 52.1349 37.8296C51.9886 37.8923 51.8214 37.9132 51.6333 37.9132C51.4452 37.9132 51.278 37.8923 51.1526 37.8505C51.0272 37.8087 50.9018 37.746 50.8182 37.6624C50.7346 37.5788 50.6719 37.4743 50.6301 37.3489C50.5883 37.2235 50.5674 37.0772 50.5674 36.9309C50.5674 36.7846 50.5883 36.6383 50.6092 36.492C50.6301 36.3457 50.6719 36.1994 50.7346 36.0531C50.7973 35.9068 50.86 35.7814 50.9436 35.656C51.0272 35.5306 51.1317 35.4261 51.2362 35.3425C51.3616 35.2589 51.487 35.1753 51.6333 35.1335C51.7796 35.0708 51.9468 35.0499 52.1349 35.0499C52.323 35.0499 52.4902 35.0708 52.6156 35.1126C52.741 35.1544 52.8664 35.2171 52.95 35.3007C53.0336 35.3843 53.0963 35.4888 53.1381 35.6142C53.1799 35.7396 53.2008 35.865 53.2008 36.0322Z"
                        fill="#353A42"
                      />
                      <path
                        d="M55.4791 35.7396C55.4791 35.6351 55.4373 35.5515 55.3537 35.4888C55.2701 35.4261 55.1656 35.4052 55.0193 35.4052C54.8939 35.4052 54.7894 35.4261 54.6849 35.4679C54.5804 35.5097 54.4968 35.5724 54.4341 35.6351C54.3505 35.7187 54.2878 35.8023 54.246 35.8859C54.1833 35.9904 54.1415 36.0949 54.1206 36.1994H54.4132C54.6222 36.1994 54.7894 36.1785 54.9357 36.1576C55.082 36.1367 55.1865 36.0949 55.2701 36.0531C55.3537 36.0113 55.4164 35.9486 55.4373 35.9068C55.4582 35.865 55.4791 35.8023 55.4791 35.7396ZM55.9807 35.6978C55.9807 35.8232 55.9598 35.9486 55.8971 36.0531C55.8344 36.1576 55.7299 36.2621 55.6045 36.3248C55.4791 36.4084 55.3119 36.4502 55.1029 36.492C54.8939 36.5338 54.6431 36.5547 54.3505 36.5547H54.037C54.0161 36.6174 54.0161 36.6801 54.0161 36.7428C54.0161 36.8055 54.0161 36.8682 54.0161 36.91C54.0161 37.0981 54.0579 37.2444 54.1624 37.3489C54.2669 37.4535 54.4132 37.4952 54.6222 37.4952C54.7476 37.4952 54.8521 37.4952 54.9566 37.4743C55.0611 37.4534 55.1447 37.4325 55.2074 37.4116C55.2701 37.3907 55.3328 37.3698 55.3955 37.3489C55.4373 37.328 55.4791 37.328 55.5 37.328C55.5209 37.328 55.5209 37.328 55.5418 37.3489C55.5418 37.3698 55.5627 37.3698 55.5627 37.4116C55.5627 37.4325 55.5627 37.4534 55.5627 37.4743C55.5627 37.4952 55.5627 37.5371 55.5418 37.558C55.5418 37.5789 55.5209 37.6207 55.5209 37.6416C55.5 37.6625 55.5 37.6834 55.4791 37.7043C55.4582 37.7252 55.4164 37.7461 55.3537 37.767C55.291 37.7879 55.2283 37.8088 55.1447 37.8297C55.0611 37.8506 54.9775 37.8715 54.873 37.8715C54.7685 37.8924 54.6849 37.8924 54.5804 37.8924C54.4132 37.8924 54.246 37.8715 54.1206 37.8297C53.9952 37.7879 53.8907 37.7252 53.7862 37.6416C53.7026 37.558 53.6399 37.4534 53.5981 37.328C53.5563 37.2026 53.5354 37.0563 53.5354 36.91C53.5354 36.7846 53.5563 36.6383 53.5772 36.492C53.5981 36.3457 53.6399 36.1994 53.7026 36.0531C53.7653 35.9068 53.828 35.7814 53.9116 35.6351C53.9952 35.5097 54.0997 35.3843 54.2042 35.2798C54.3296 35.1753 54.455 35.0917 54.6013 35.0499C54.7476 34.9872 54.9357 34.9663 55.1238 34.9663C55.291 34.9663 55.4373 34.9872 55.5418 35.029C55.6463 35.0708 55.7508 35.1126 55.8135 35.1962C55.8971 35.2589 55.9389 35.3216 55.9807 35.4052C55.9598 35.5306 55.9807 35.6142 55.9807 35.6978Z"
                        fill="#353A42"
                      />
                      <path
                        d="M58.1754 35.3005C58.1754 35.3214 58.1754 35.3423 58.1754 35.3841C58.1754 35.4259 58.1545 35.4468 58.1545 35.4886C58.1336 35.5304 58.1336 35.5513 58.1127 35.5722C58.0918 35.5931 58.0918 35.614 58.0709 35.614C58.05 35.614 58.0291 35.614 57.9873 35.5931C57.9455 35.5722 57.9246 35.5513 57.8619 35.5304C57.8201 35.5095 57.7574 35.4886 57.6947 35.4677C57.632 35.4468 57.5484 35.4468 57.4648 35.4468C57.3812 35.4468 57.2976 35.4677 57.2349 35.4886C57.1722 35.5095 57.1095 35.5513 57.0677 35.5931C57.0259 35.6349 56.9841 35.6767 56.9632 35.7394C56.9423 35.8021 56.9214 35.8439 56.9214 35.9066C56.9214 35.9902 56.9423 36.0529 57.005 36.0947C57.0468 36.1365 57.1304 36.1992 57.1931 36.241C57.2767 36.2828 57.3603 36.3246 57.4439 36.3664C57.5275 36.4082 57.6111 36.45 57.6947 36.5127C57.7783 36.5754 57.841 36.6381 57.8828 36.7217C57.9246 36.8053 57.9664 36.9098 57.9664 37.0352C57.9664 37.1815 57.9455 37.3069 57.8828 37.4114C57.8201 37.5368 57.7574 37.6413 57.6529 37.7249C57.5484 37.8085 57.423 37.8712 57.2976 37.9339C57.1513 37.9757 57.005 37.9966 56.8169 37.9966C56.7333 37.9966 56.6288 37.9966 56.5661 37.9757C56.4825 37.9548 56.4198 37.9339 56.3362 37.913C56.2735 37.8921 56.2108 37.8712 56.169 37.8503C56.1272 37.8294 56.0854 37.8085 56.0645 37.7667C56.0436 37.7458 56.0436 37.7249 56.0227 37.7249C56.0227 37.704 56.0227 37.6831 56.0227 37.6622C56.0227 37.6413 56.0227 37.6204 56.0227 37.5995C56.0227 37.5786 56.0227 37.5577 56.0436 37.5368C56.0436 37.5159 56.0645 37.495 56.0645 37.4741C56.0645 37.4532 56.0854 37.4323 56.0854 37.4114C56.0854 37.3905 56.1063 37.3696 56.1063 37.3696C56.1063 37.3487 56.1272 37.3487 56.1481 37.3487C56.169 37.3487 56.1899 37.3696 56.2317 37.3905C56.2735 37.4114 56.3153 37.4532 56.3571 37.4741C56.4198 37.495 56.4825 37.5368 56.5661 37.5577C56.6497 37.5786 56.7542 37.5995 56.8587 37.5995C56.9632 37.5995 57.0677 37.5786 57.1304 37.5577C57.214 37.5368 57.2767 37.495 57.3185 37.4532C57.3603 37.4114 57.4021 37.3487 57.423 37.3069C57.4439 37.2442 57.4648 37.1815 57.4648 37.1188C57.4648 37.0352 57.4439 36.9725 57.3812 36.9098C57.3394 36.868 57.2767 36.8053 57.1931 36.7635C57.1095 36.7217 57.0259 36.6799 56.9423 36.6381C56.8587 36.5963 56.7751 36.5545 56.6915 36.4918C56.6079 36.4291 56.5452 36.3664 56.5034 36.2828C56.4616 36.1992 56.4198 36.0947 56.4198 35.9693C56.4198 35.8439 56.4407 35.7185 56.5034 35.614C56.5452 35.5095 56.6288 35.405 56.7124 35.3214C56.796 35.2378 56.9214 35.1751 57.0468 35.1333C57.1722 35.0915 57.3185 35.0706 57.4857 35.0706C57.5693 35.0706 57.632 35.0706 57.6947 35.0915C57.7574 35.1124 57.8201 35.1124 57.8828 35.1333C57.9455 35.1542 57.9873 35.1751 58.0291 35.196C58.0709 35.2169 58.1127 35.2378 58.1336 35.2587C58.1754 35.2378 58.1754 35.2587 58.1754 35.3005Z"
                        fill="#353A42"
                      />
                      <path
                        d="M63.4631 37.7878C63.4631 37.8087 63.4631 37.8087 63.4422 37.8296C63.4422 37.8505 63.4213 37.8505 63.4004 37.8505C63.3795 37.8505 63.3586 37.8714 63.3168 37.8714C63.275 37.8714 63.2541 37.8714 63.1914 37.8714C63.1496 37.8714 63.1078 37.8714 63.066 37.8714C63.0451 37.8714 63.0033 37.8714 63.0033 37.8505C62.9824 37.8505 62.9824 37.8296 62.9615 37.8296C62.9615 37.8087 62.9615 37.8087 62.9615 37.7878L63.2959 36.1576C63.2959 36.0949 63.3168 36.0531 63.3168 35.9904C63.3168 35.9486 63.3168 35.8859 63.3168 35.8441C63.3168 35.7187 63.2959 35.6142 63.2541 35.5515C63.2123 35.4679 63.1287 35.447 63.0033 35.447C62.8988 35.447 62.7943 35.4679 62.6898 35.5306C62.5853 35.5933 62.4808 35.6769 62.3972 35.7814C62.3136 35.8859 62.23 36.0113 62.1464 36.1576C62.0837 36.3039 62.021 36.4502 61.9792 36.6174L61.7493 37.7878C61.7493 37.8087 61.7284 37.8087 61.7284 37.8296C61.7284 37.8505 61.7075 37.8505 61.6866 37.8505C61.6657 37.8505 61.6448 37.8714 61.603 37.8714C61.5612 37.8714 61.5403 37.8714 61.4776 37.8714C61.4358 37.8714 61.394 37.8714 61.3522 37.8714C61.3313 37.8714 61.2895 37.8714 61.2895 37.8505C61.2686 37.8505 61.2686 37.8296 61.2477 37.8296C61.2477 37.8087 61.2477 37.8087 61.2477 37.7878L61.5821 36.1576C61.603 36.0949 61.603 36.0322 61.603 35.9904C61.603 35.9277 61.603 35.8859 61.603 35.8232C61.603 35.6978 61.5821 35.6142 61.5194 35.5306C61.4776 35.4679 61.394 35.4261 61.2686 35.4261C61.1641 35.4261 61.0596 35.447 60.9551 35.5097C60.8506 35.5724 60.7461 35.656 60.6625 35.7605C60.5789 35.865 60.4953 35.9904 60.4117 36.1367C60.349 36.283 60.2863 36.4293 60.2445 36.5965L60.0146 37.7669C60.0146 37.7878 59.9937 37.7878 59.9937 37.8087C59.9937 37.8296 59.9727 37.8296 59.9518 37.8296C59.9309 37.8296 59.91 37.8505 59.8682 37.8505C59.8264 37.8505 59.8055 37.8505 59.7428 37.8505C59.701 37.8505 59.6592 37.8505 59.6174 37.8505C59.5965 37.8505 59.5547 37.8505 59.5547 37.8296C59.5338 37.8296 59.5338 37.8087 59.5129 37.8087C59.5129 37.7878 59.5129 37.7878 59.5129 37.7669L60.0354 35.1335C60.0354 35.1126 60.0354 35.1126 60.0563 35.0917C60.0563 35.0708 60.0773 35.0708 60.0982 35.0708C60.1191 35.0708 60.14 35.0499 60.1609 35.0499C60.1818 35.0499 60.2236 35.0499 60.2654 35.0499C60.3072 35.0499 60.349 35.0499 60.3699 35.0499C60.3908 35.0499 60.4117 35.0499 60.4326 35.0708C60.4535 35.0708 60.4535 35.0917 60.4535 35.0917C60.4535 35.1126 60.4535 35.1126 60.4535 35.1335L60.349 35.6351C60.3699 35.5724 60.4326 35.4888 60.4953 35.4261C60.558 35.3425 60.6416 35.2798 60.7252 35.2171C60.8088 35.1544 60.9133 35.1126 61.0178 35.0708C61.1223 35.029 61.2268 35.0081 61.3522 35.0081C61.4776 35.0081 61.5612 35.029 61.6448 35.0499C61.7284 35.0917 61.7911 35.1335 61.8538 35.1753C61.9165 35.238 61.9374 35.3007 61.9792 35.3843C62.0001 35.4679 62.021 35.5515 62.021 35.6351C62.0628 35.5724 62.1046 35.4888 62.1882 35.4261C62.2509 35.3425 62.3345 35.2798 62.4181 35.2171C62.5017 35.1544 62.6062 35.1126 62.7107 35.0708C62.8152 35.029 62.9197 35.0081 63.0242 35.0081C63.1496 35.0081 63.2541 35.029 63.3586 35.0708C63.4422 35.1126 63.5258 35.1544 63.5676 35.2171C63.6303 35.2798 63.6512 35.3634 63.693 35.447C63.7139 35.5306 63.7348 35.6351 63.7348 35.7187C63.7348 35.7814 63.7348 35.865 63.7139 35.9277C63.7139 35.9904 63.693 36.0531 63.6721 36.1367L63.4631 37.7878Z"
                        fill="#353A42"
                      />
                      <path
                        d="M66.3891 37.7877C66.3891 37.8086 66.3891 37.8086 66.3682 37.8295C66.3682 37.8504 66.3472 37.8504 66.3263 37.8504C66.3054 37.8504 66.2846 37.8713 66.2637 37.8713C66.2428 37.8713 66.201 37.8713 66.1591 37.8713C66.1173 37.8713 66.0964 37.8713 66.0546 37.8713C66.0337 37.8713 66.0128 37.8713 65.9919 37.8504C65.971 37.8504 65.971 37.8295 65.971 37.8295C65.971 37.8086 65.971 37.8086 65.971 37.7877L66.0755 37.2861C66.0337 37.3488 65.9919 37.4115 65.9292 37.4951C65.8665 37.5787 65.7829 37.6414 65.6993 37.7041C65.6157 37.7668 65.5112 37.8086 65.4067 37.8504C65.3022 37.8922 65.1977 37.9131 65.0723 37.9131C64.9469 37.9131 64.8215 37.8922 64.7379 37.8504C64.6543 37.8086 64.5707 37.7668 64.508 37.7041C64.4453 37.6414 64.4035 37.5578 64.3826 37.4742C64.3617 37.3906 64.3408 37.2861 64.3408 37.1816C64.3408 37.1189 64.3408 37.0562 64.3617 36.9935C64.3617 36.9308 64.3826 36.8681 64.4035 36.7845L64.7379 35.1334C64.7379 35.1125 64.7588 35.1125 64.7588 35.0916C64.7588 35.0707 64.7797 35.0707 64.8006 35.0707C64.8215 35.0707 64.8424 35.0498 64.8842 35.0498C64.926 35.0498 64.9469 35.0498 65.0096 35.0498C65.0514 35.0498 65.0932 35.0498 65.135 35.0498C65.1559 35.0498 65.1977 35.0498 65.1977 35.0707C65.2186 35.0707 65.2186 35.0916 65.2395 35.0916C65.2395 35.1125 65.2395 35.1125 65.2395 35.1334L64.926 36.7636C64.9051 36.8054 64.9051 36.8681 64.9051 36.9308C64.9051 36.9935 64.9051 37.0353 64.9051 37.098C64.9051 37.1607 64.9051 37.2025 64.926 37.2652C64.9469 37.307 64.9469 37.3488 64.9887 37.3906C65.0096 37.4324 65.0514 37.4533 65.0932 37.4742C65.135 37.4951 65.1768 37.4951 65.2395 37.4951C65.344 37.4951 65.4485 37.4742 65.553 37.4115C65.6575 37.3488 65.762 37.2652 65.8456 37.1607C65.9292 37.0562 66.0128 36.9308 66.0964 36.7845C66.18 36.6382 66.2219 36.471 66.2637 36.3038L66.4936 35.1334C66.4936 35.1125 66.4936 35.1125 66.5145 35.0916C66.5354 35.0707 66.5354 35.0707 66.5563 35.0707C66.5772 35.0707 66.5981 35.0498 66.6399 35.0498C66.6817 35.0498 66.7026 35.0498 66.7653 35.0498C66.8071 35.0498 66.8489 35.0498 66.8907 35.0498C66.9116 35.0498 66.9534 35.0498 66.9534 35.0707C66.9743 35.0707 66.9743 35.0916 66.9952 35.0916C66.9952 35.1125 66.9952 35.1125 66.9952 35.1334L66.3891 37.7877Z"
                        fill="#353A42"
                      />
                      <path
                        d="M67.6222 37.7879C67.6222 37.8088 67.6013 37.8088 67.6013 37.8297C67.6013 37.8506 67.5804 37.8506 67.5595 37.8506C67.5386 37.8506 67.5177 37.8715 67.4759 37.8715C67.4341 37.8715 67.4132 37.8715 67.3505 37.8715C67.3087 37.8715 67.2669 37.8715 67.2251 37.8715C67.2042 37.8715 67.1624 37.8715 67.1624 37.8506C67.1415 37.8506 67.1415 37.8297 67.1206 37.8297C67.1206 37.8088 67.1206 37.8088 67.1206 37.7879L67.8939 33.8795C67.8939 33.8586 67.8939 33.8586 67.9148 33.8377C67.9148 33.8168 67.9357 33.8168 67.9566 33.8168C67.9775 33.8168 67.9984 33.7959 68.0402 33.7959C68.082 33.7959 68.1029 33.7959 68.1656 33.7959C68.2074 33.7959 68.2492 33.7959 68.291 33.7959C68.3119 33.7959 68.3537 33.7959 68.3537 33.8168C68.3746 33.8168 68.3746 33.8377 68.3746 33.8377C68.3746 33.8586 68.3746 33.8586 68.3746 33.8795L67.6222 37.7879Z"
                        fill="#353A42"
                      />
                      <path
                        d="M71.5933 34.2762C71.5933 34.3389 71.5724 34.3807 71.5515 34.4226C71.5306 34.4644 71.5097 34.4852 71.4888 34.5062C71.4679 34.5271 71.4261 34.5479 71.3843 34.5479C71.3425 34.5479 71.3007 34.5688 71.238 34.5688C71.1753 34.5688 71.1335 34.5688 71.0917 34.5479C71.0499 34.5479 71.029 34.5271 71.0081 34.5062C70.9872 34.4852 70.9872 34.4644 70.9872 34.4226C70.9872 34.3807 70.9872 34.3389 71.0081 34.2762C71.0081 34.2135 71.029 34.1717 71.0499 34.1299C71.0708 34.0881 71.0917 34.0672 71.1126 34.0463C71.1335 34.0254 71.1753 34.0045 71.2171 34.0045C71.2589 34.0045 71.3007 33.9836 71.3634 33.9836C71.4261 33.9836 71.4679 33.9836 71.5097 34.0045C71.5515 34.0045 71.5724 34.0254 71.5933 34.0463C71.6142 34.0672 71.6142 34.109 71.6142 34.1299C71.6142 34.1717 71.5933 34.2135 71.5933 34.2762ZM70.8409 37.7875C70.8409 37.8084 70.82 37.8084 70.82 37.8293C70.82 37.8502 70.7991 37.8502 70.7782 37.8502C70.7573 37.8502 70.7364 37.8711 70.6946 37.8711C70.6528 37.8711 70.6319 37.8711 70.5692 37.8711C70.5274 37.8711 70.4856 37.8711 70.4438 37.8711C70.4229 37.8711 70.3811 37.8711 70.3811 37.8502C70.3602 37.8502 70.3602 37.8293 70.3393 37.8293C70.3393 37.8084 70.3393 37.8084 70.3393 37.7875L70.7991 35.4676H69.4406L69.148 36.9306C69.148 36.9724 69.127 37.0142 69.127 37.0769C69.127 37.1187 69.127 37.1605 69.127 37.2023C69.127 37.3068 69.148 37.3695 69.1898 37.4113C69.2316 37.4531 69.2943 37.474 69.3988 37.474C69.4615 37.474 69.5033 37.474 69.5451 37.4531C69.5869 37.4531 69.6078 37.4322 69.6496 37.4322C69.6705 37.4322 69.7123 37.4113 69.7332 37.4113C69.7541 37.4113 69.775 37.3904 69.7959 37.3904C69.8168 37.3904 69.8168 37.3904 69.8377 37.4113C69.8377 37.4322 69.8586 37.4322 69.8586 37.474C69.8586 37.4949 69.8586 37.5367 69.8586 37.5576C69.8586 37.5785 69.8377 37.6203 69.8377 37.6412C69.8377 37.6621 69.8168 37.7039 69.8168 37.7248C69.7959 37.7457 69.7959 37.7666 69.775 37.7875C69.7541 37.8084 69.7332 37.8084 69.7123 37.8293C69.6914 37.8502 69.6496 37.8502 69.6078 37.8711C69.566 37.892 69.5242 37.892 69.4824 37.892C69.4406 37.892 69.3988 37.892 69.3361 37.892C69.2316 37.892 69.127 37.8711 69.0434 37.8502C68.9598 37.8293 68.8971 37.7875 68.8344 37.7457C68.7717 37.7039 68.7299 37.6412 68.709 37.5576C68.6881 37.474 68.6672 37.3904 68.6672 37.2859C68.6672 37.265 68.6672 37.2441 68.6672 37.2023C68.6672 37.1814 68.6672 37.1396 68.6672 37.1187C68.6672 37.0978 68.6672 37.056 68.6881 37.0351C68.6881 37.0142 68.6881 36.9724 68.709 36.9515L69.0017 35.4676H68.6254C68.6045 35.4676 68.5836 35.4676 68.5836 35.4467C68.5627 35.4258 68.5627 35.4049 68.5627 35.3631C68.5627 35.3422 68.5627 35.3004 68.5627 35.2586C68.5627 35.2168 68.5836 35.1959 68.5836 35.1541C68.6045 35.1332 68.6045 35.0914 68.6254 35.0705C68.6463 35.0496 68.6672 35.0287 68.6881 35.0287H69.0644L69.1898 34.4016C69.1898 34.3807 69.1898 34.3807 69.2107 34.3598C69.2316 34.3389 69.2316 34.3389 69.2525 34.3389C69.2734 34.3389 69.2943 34.318 69.3361 34.318C69.3779 34.318 69.3988 34.318 69.4615 34.318C69.5033 34.318 69.5451 34.318 69.5869 34.318C69.6078 34.318 69.6496 34.318 69.6496 34.3389C69.6705 34.3389 69.6705 34.3598 69.6914 34.3598C69.6914 34.3807 69.6914 34.3807 69.6914 34.4016L69.566 35.0287H71.2589C71.3216 35.0287 71.3634 35.0496 71.3634 35.0705C71.3843 35.0914 71.3843 35.1332 71.3634 35.1959L70.8409 37.7875Z"
                        fill="#353A42"
                      />
                      <path
                        d="M75.4387 37.7878C75.4387 37.8087 75.4387 37.8087 75.4178 37.8296C75.4178 37.8505 75.3969 37.8505 75.376 37.8505C75.3551 37.8505 75.3342 37.8714 75.2924 37.8714C75.2506 37.8714 75.2297 37.8714 75.167 37.8714C75.1252 37.8714 75.0834 37.8714 75.0416 37.8714C75.0207 37.8714 74.9789 37.8714 74.9789 37.8505C74.958 37.8505 74.958 37.8296 74.9371 37.8296C74.9371 37.8087 74.9371 37.8087 74.9371 37.7878L75.2715 36.1576C75.2715 36.0949 75.2924 36.0531 75.2924 35.9904C75.2924 35.9486 75.3133 35.8859 75.3133 35.8441C75.3133 35.7187 75.2924 35.6142 75.2506 35.5515C75.2088 35.4679 75.1252 35.447 74.9998 35.447C74.8953 35.447 74.8117 35.4679 74.7072 35.5306C74.6027 35.5933 74.4982 35.6769 74.4146 35.7814C74.331 35.8859 74.2474 36.0113 74.1638 36.1576C74.1011 36.3039 74.0384 36.4502 73.9966 36.6174L73.7667 37.7878C73.7667 37.8087 73.7458 37.8087 73.7458 37.8296C73.7458 37.8505 73.7249 37.8505 73.704 37.8505C73.6831 37.8505 73.6622 37.8714 73.6204 37.8714C73.5786 37.8714 73.5577 37.8714 73.495 37.8714C73.4323 37.8714 73.4114 37.8714 73.3696 37.8714C73.3487 37.8714 73.3069 37.8714 73.3069 37.8505C73.286 37.8505 73.286 37.8296 73.2651 37.8296C73.2651 37.8087 73.2651 37.8087 73.2651 37.7878L73.5995 36.1576C73.6204 36.0949 73.6204 36.0322 73.6204 35.9904C73.6204 35.9277 73.6204 35.8859 73.6204 35.8232C73.6204 35.6978 73.5995 35.6142 73.5577 35.5306C73.5159 35.4679 73.4323 35.4261 73.3069 35.4261C73.2024 35.4261 73.0979 35.447 72.9934 35.5097C72.8889 35.5724 72.7844 35.656 72.7008 35.7605C72.6172 35.865 72.5336 35.9904 72.45 36.1367C72.3873 36.283 72.3246 36.4293 72.2828 36.5965L72.0529 37.7669C72.0529 37.7878 72.032 37.7878 72.032 37.8087C72.032 37.8296 72.0111 37.8296 71.9902 37.8296C71.9693 37.8296 71.9484 37.8505 71.9066 37.8505C71.8648 37.8505 71.8439 37.8505 71.7812 37.8505C71.7394 37.8505 71.6976 37.8505 71.6558 37.8505C71.6349 37.8505 71.5931 37.8505 71.5931 37.8296C71.5722 37.8296 71.5722 37.8087 71.5513 37.8087C71.5513 37.7878 71.5513 37.7878 71.5513 37.7669L72.0738 35.1335C72.0738 35.1126 72.0738 35.1126 72.0947 35.0917C72.0947 35.0708 72.1156 35.0708 72.1365 35.0708C72.1574 35.0708 72.1783 35.0499 72.1992 35.0499C72.2201 35.0499 72.2619 35.0499 72.3037 35.0499C72.3455 35.0499 72.3873 35.0499 72.4082 35.0499C72.4291 35.0499 72.45 35.0499 72.4709 35.0708C72.4918 35.0708 72.4918 35.0917 72.4918 35.0917C72.4918 35.1126 72.4918 35.1126 72.4918 35.1335L72.3873 35.6351C72.4082 35.5724 72.4709 35.4888 72.5336 35.4261C72.5963 35.3425 72.6799 35.2798 72.7635 35.2171C72.8471 35.1544 72.9516 35.1126 73.0561 35.0708C73.1606 35.029 73.2651 35.0081 73.3905 35.0081C73.5159 35.0081 73.5995 35.029 73.6831 35.0499C73.7667 35.0917 73.8294 35.1335 73.8921 35.1753C73.9548 35.238 73.9757 35.3007 74.0175 35.3843C74.0384 35.4679 74.0593 35.5515 74.0593 35.6351C74.1011 35.5724 74.1429 35.4888 74.2265 35.4261C74.2892 35.3425 74.3728 35.2798 74.4564 35.2171C74.54 35.1544 74.6445 35.1126 74.749 35.0708C74.8535 35.029 74.958 35.0081 75.0625 35.0081C75.1879 35.0081 75.2924 35.029 75.3969 35.0708C75.4805 35.1126 75.5641 35.1544 75.6059 35.2171C75.6686 35.2798 75.6895 35.3634 75.7313 35.447C75.7522 35.5306 75.7731 35.6351 75.7731 35.7187C75.7731 35.7814 75.7731 35.865 75.7522 35.9277C75.7522 35.9904 75.7313 36.0531 75.7104 36.1367L75.4387 37.7878Z"
                        fill="#353A42"
                      />
                      <path
                        d="M78.3024 35.8441C78.2188 35.7187 78.1143 35.6142 78.0098 35.5306C77.9053 35.4679 77.7799 35.4261 77.6545 35.4261C77.55 35.4261 77.4455 35.447 77.3619 35.5097C77.2783 35.5515 77.1947 35.6351 77.132 35.6978C77.0693 35.7814 77.0066 35.865 76.9648 35.9695C76.923 36.074 76.8812 36.1785 76.8394 36.283C76.8185 36.3875 76.7767 36.5129 76.7767 36.6174C76.7558 36.7219 76.7558 36.8264 76.7558 36.91C76.7558 36.9727 76.7558 37.0563 76.7767 37.119C76.7976 37.1817 76.7976 37.2444 76.8394 37.3071C76.8603 37.3698 76.9021 37.4116 76.9648 37.4325C77.0275 37.4743 77.0902 37.4743 77.1738 37.4743C77.2783 37.4743 77.3828 37.4534 77.4873 37.3907C77.5918 37.328 77.6963 37.2444 77.8008 37.1399C77.8844 37.0354 77.968 36.91 78.0516 36.7637C78.1143 36.6174 78.177 36.4711 78.2188 36.283L78.3024 35.8441ZM78.386 37.7878C78.386 37.8296 78.3651 37.8505 78.3233 37.8505C78.2815 37.8714 78.2397 37.8714 78.1561 37.8714C78.1143 37.8714 78.0934 37.8714 78.0516 37.8714C78.0307 37.8714 78.0098 37.8714 77.9889 37.8505C77.968 37.8505 77.968 37.8296 77.9471 37.8296C77.9471 37.8087 77.9471 37.8087 77.9471 37.7878L78.0516 37.2862C78.0307 37.3489 77.9889 37.4116 77.9053 37.4952C77.8426 37.5788 77.759 37.6415 77.6754 37.7042C77.5918 37.7669 77.4873 37.8087 77.3619 37.8505C77.2574 37.8923 77.132 37.9132 77.0275 37.9132C76.8812 37.9132 76.7349 37.8923 76.6304 37.8296C76.5259 37.7669 76.4423 37.7042 76.3796 37.6206C76.3169 37.537 76.2751 37.4325 76.2542 37.3071C76.2333 37.2026 76.2124 37.0772 76.2124 36.9518C76.2124 36.8473 76.2124 36.7219 76.2333 36.5756C76.2542 36.4293 76.296 36.3039 76.3378 36.1576C76.3796 36.0113 76.4423 35.865 76.5259 35.7396C76.6095 35.5933 76.6931 35.4888 76.7976 35.3634C76.9021 35.2589 77.0275 35.1753 77.1529 35.1126C77.2992 35.0499 77.4455 35.0081 77.6127 35.0081C77.7799 35.0081 77.9262 35.0499 78.0516 35.1126C78.177 35.1753 78.2815 35.2798 78.386 35.4052L78.4487 35.1335C78.4487 35.1126 78.4696 35.0708 78.5114 35.0708C78.5532 35.0499 78.6159 35.0499 78.6786 35.0499C78.7204 35.0499 78.7413 35.0499 78.7831 35.0499C78.804 35.0499 78.8249 35.0499 78.8458 35.0708C78.8667 35.0708 78.8667 35.0917 78.8667 35.0917C78.8667 35.1126 78.8667 35.1126 78.8667 35.1335L78.386 37.7878Z"
                        fill="#353A42"
                      />
                      <path
                        d="M81.1654 35.1543C81.1654 35.1543 81.1654 35.1752 81.1654 35.1961C81.1654 35.217 81.1654 35.2379 81.1654 35.2797C81.1654 35.3006 81.1654 35.3424 81.1445 35.3633C81.1445 35.3842 81.1236 35.426 81.1236 35.4469C81.1027 35.4678 81.1027 35.4887 81.0818 35.5096C81.0609 35.5305 81.0609 35.5305 81.04 35.5305C81.0191 35.5305 80.9982 35.5305 80.9982 35.5305C80.9773 35.5305 80.9564 35.5096 80.9355 35.5096C80.9146 35.5096 80.8937 35.4887 80.8519 35.4887C80.831 35.4887 80.7892 35.4887 80.7474 35.4887C80.6847 35.4887 80.6011 35.5096 80.5175 35.5723C80.4339 35.635 80.3503 35.7186 80.2667 35.8022C80.1831 35.9067 80.0995 36.0321 80.0368 36.1575C79.9741 36.3038 79.9113 36.4501 79.8904 36.6173L79.6605 37.7877C79.6605 37.8086 79.6396 37.8086 79.6396 37.8295C79.6396 37.8504 79.6187 37.8504 79.5978 37.8504C79.5769 37.8504 79.556 37.8713 79.5142 37.8713C79.4724 37.8713 79.4515 37.8713 79.3888 37.8713C79.347 37.8713 79.3052 37.8713 79.2634 37.8713C79.2425 37.8713 79.2007 37.8713 79.2007 37.8504C79.1798 37.8504 79.1798 37.8295 79.1589 37.8295C79.1589 37.8086 79.1589 37.8086 79.1589 37.7877L79.6814 35.1543C79.6814 35.1334 79.6814 35.1334 79.7023 35.1125C79.7023 35.0916 79.7232 35.0916 79.7441 35.0916C79.765 35.0916 79.7859 35.0707 79.8068 35.0707C79.8277 35.0707 79.8695 35.0707 79.9113 35.0707C79.9531 35.0707 79.9949 35.0707 80.0158 35.0707C80.0367 35.0707 80.0577 35.0707 80.0786 35.0916C80.0995 35.0916 80.0994 35.1125 80.0994 35.1125C80.0994 35.1334 80.0994 35.1334 80.0994 35.1543L79.9949 35.635C80.0367 35.5514 80.0995 35.4678 80.1622 35.4051C80.2249 35.3215 80.2876 35.2588 80.3712 35.217C80.4339 35.1543 80.5175 35.1125 80.6011 35.0916C80.6847 35.0498 80.7474 35.0498 80.831 35.0498C80.8728 35.0498 80.8937 35.0498 80.9355 35.0498C80.9773 35.0498 80.9982 35.0707 81.04 35.0707C81.0609 35.0707 81.1027 35.0916 81.1236 35.0916C81.1445 35.0916 81.1654 35.1125 81.1654 35.1125C81.1445 35.1125 81.1654 35.1334 81.1654 35.1543Z"
                        fill="#353A42"
                      />
                      <path
                        d="M83.3603 35.3842C83.3603 35.426 83.3603 35.4469 83.3603 35.4887C83.3603 35.5305 83.3394 35.5514 83.3394 35.5932C83.3185 35.635 83.3185 35.6559 83.2976 35.6768C83.2767 35.6977 83.2558 35.7186 83.2349 35.7186C83.214 35.7186 83.1722 35.6977 83.1513 35.6768C83.1304 35.6559 83.0886 35.6141 83.0259 35.5723C82.9841 35.5305 82.9214 35.5096 82.8378 35.4678C82.775 35.4469 82.6706 35.426 82.566 35.426C82.4406 35.426 82.3361 35.4469 82.2316 35.5096C82.1271 35.5514 82.0435 35.635 81.9808 35.7186C81.9181 35.8022 81.8554 35.8858 81.8136 36.0112C81.7718 36.1157 81.73 36.2202 81.7091 36.3247C81.6882 36.4292 81.6673 36.5337 81.6464 36.6382C81.6255 36.7427 81.6255 36.8263 81.6255 36.9099C81.6255 37.1189 81.6673 37.2652 81.7509 37.3697C81.8345 37.4742 81.9599 37.516 82.148 37.516C82.2734 37.516 82.3779 37.4951 82.4824 37.4742C82.5661 37.4533 82.6496 37.4115 82.7123 37.3697C82.775 37.3279 82.8378 37.2861 82.8587 37.2652C82.9005 37.2443 82.9423 37.2234 82.9632 37.2234C82.9841 37.2234 82.9841 37.2234 83.005 37.2443C83.005 37.2652 83.0259 37.2861 83.0259 37.307C83.0259 37.3279 83.0259 37.3488 83.0259 37.3906C83.0259 37.4324 83.005 37.4533 83.005 37.4951C83.005 37.5369 82.9841 37.5578 82.9632 37.5996C82.9423 37.6205 82.9423 37.6623 82.9005 37.6832C82.8796 37.7041 82.8378 37.7459 82.7751 37.7668C82.7124 37.8086 82.6496 37.8295 82.566 37.8713C82.4824 37.8922 82.3988 37.9131 82.3152 37.934C82.2316 37.9549 82.1271 37.9549 82.0435 37.9549C81.73 37.9549 81.5001 37.8713 81.3329 37.725C81.1866 37.5578 81.103 37.3279 81.103 37.0144C81.103 36.889 81.103 36.7636 81.1239 36.6173C81.1448 36.471 81.1866 36.3247 81.2284 36.1993C81.2702 36.053 81.3329 35.9067 81.4165 35.7813C81.5001 35.6559 81.5837 35.5305 81.6882 35.426C81.7927 35.3215 81.9181 35.2379 82.0644 35.1752C82.2107 35.1125 82.3779 35.0916 82.566 35.0916C82.6496 35.0916 82.7124 35.0916 82.796 35.1125C82.8587 35.1334 82.9423 35.1334 83.005 35.1543C83.0677 35.1752 83.1304 35.1961 83.1722 35.2379C83.214 35.2797 83.2558 35.3006 83.2976 35.3215C83.3185 35.3424 83.3394 35.3633 83.3603 35.3842C83.3603 35.3633 83.3603 35.3424 83.3603 35.3842Z"
                        fill="#353A42"
                      />
                      <path
                        d="M85.4711 35.8441C85.3875 35.7187 85.283 35.6142 85.1785 35.5306C85.074 35.4679 84.9486 35.4261 84.8232 35.4261C84.7187 35.4261 84.6142 35.447 84.5306 35.5097C84.447 35.5515 84.3634 35.6351 84.3007 35.6978C84.238 35.7814 84.1753 35.865 84.1335 35.9695C84.0917 36.074 84.0499 36.1785 84.0081 36.283C83.9872 36.3875 83.9454 36.5129 83.9454 36.6174C83.9245 36.7219 83.9245 36.8264 83.9245 36.91C83.9245 36.9727 83.9245 37.0563 83.9454 37.119C83.9663 37.1817 83.9663 37.2444 84.0081 37.3071C84.029 37.3698 84.0708 37.4116 84.1335 37.4325C84.1962 37.4743 84.2589 37.4743 84.3425 37.4743C84.447 37.4743 84.5515 37.4534 84.656 37.3907C84.7605 37.328 84.865 37.2444 84.9695 37.1399C85.0531 37.0354 85.1367 36.91 85.2203 36.7637C85.283 36.6174 85.3457 36.4711 85.3875 36.283L85.4711 35.8441ZM85.5547 37.7878C85.5547 37.8296 85.5338 37.8505 85.492 37.8505C85.4502 37.8714 85.4084 37.8714 85.3248 37.8714C85.283 37.8714 85.2621 37.8714 85.2203 37.8714C85.1994 37.8714 85.1785 37.8714 85.1576 37.8505C85.1367 37.8505 85.1367 37.8296 85.1158 37.8296C85.1158 37.8087 85.1158 37.8087 85.1158 37.7878L85.2203 37.2862C85.1994 37.3489 85.1576 37.4116 85.074 37.4952C85.0113 37.5788 84.9277 37.6415 84.8441 37.7042C84.7605 37.7669 84.656 37.8087 84.5306 37.8505C84.4261 37.8923 84.3007 37.9132 84.1962 37.9132C84.0499 37.9132 83.9036 37.8923 83.7991 37.8296C83.6946 37.7669 83.611 37.7042 83.5483 37.6206C83.4856 37.537 83.4438 37.4325 83.4229 37.3071C83.402 37.2026 83.3811 37.0772 83.3811 36.9518C83.3811 36.8473 83.3811 36.7219 83.402 36.5756C83.4229 36.4293 83.4647 36.3039 83.5065 36.1576C83.5483 36.0113 83.611 35.865 83.6946 35.7396C83.7782 35.5933 83.8618 35.4888 83.9663 35.3634C84.0708 35.2589 84.1962 35.1753 84.3216 35.1126C84.4679 35.0499 84.6142 35.0081 84.7814 35.0081C84.9486 35.0081 85.0949 35.0499 85.2203 35.1126C85.3457 35.1753 85.4502 35.2798 85.5547 35.4052L85.6174 35.1335C85.6174 35.1126 85.6383 35.0708 85.6801 35.0708C85.7219 35.0499 85.7846 35.0499 85.8473 35.0499C85.8891 35.0499 85.91 35.0499 85.9518 35.0499C85.9727 35.0499 85.9936 35.0499 86.0145 35.0708C86.0354 35.0708 86.0354 35.0917 86.0354 35.0917C86.0354 35.1126 86.0354 35.1126 86.0354 35.1335L85.5547 37.7878Z"
                        fill="#353A42"
                      />
                      <path
                        d="M88.3134 35.3005C88.3134 35.3214 88.3134 35.3423 88.3134 35.3841C88.3134 35.4259 88.2925 35.4468 88.2925 35.4886C88.2716 35.5304 88.2716 35.5513 88.2507 35.5722C88.2298 35.5931 88.2298 35.614 88.2089 35.614C88.188 35.614 88.1671 35.614 88.1253 35.5931C88.0835 35.5722 88.0626 35.5513 87.9999 35.5304C87.9581 35.5095 87.8954 35.4886 87.8327 35.4677C87.77 35.4468 87.6864 35.4468 87.6028 35.4468C87.5192 35.4468 87.4356 35.4677 87.3729 35.4886C87.3102 35.5095 87.2475 35.5513 87.2057 35.5931C87.1639 35.6349 87.1221 35.6767 87.1012 35.7394C87.0803 35.8021 87.0594 35.8439 87.0594 35.9066C87.0594 35.9902 87.0803 36.0529 87.143 36.0947C87.1848 36.1365 87.2684 36.1992 87.3311 36.241C87.4147 36.2828 87.4983 36.3246 87.5819 36.3664C87.6655 36.4082 87.7491 36.45 87.8327 36.5127C87.9163 36.5754 87.979 36.6381 88.0208 36.7217C88.0626 36.8053 88.1044 36.9098 88.1044 37.0352C88.1044 37.1815 88.0835 37.3069 88.0208 37.4114C87.9581 37.5368 87.8954 37.6413 87.7909 37.7249C87.6864 37.8085 87.561 37.8712 87.4356 37.9339C87.2893 37.9757 87.143 37.9966 86.9549 37.9966C86.8713 37.9966 86.7668 37.9966 86.7041 37.9757C86.6205 37.9548 86.5578 37.9339 86.4741 37.913C86.4114 37.8921 86.3487 37.8712 86.3069 37.8503C86.2651 37.8294 86.2233 37.8085 86.2024 37.7667C86.1815 37.7458 86.1815 37.7249 86.1606 37.7249C86.1606 37.704 86.1606 37.6831 86.1606 37.6622C86.1606 37.6413 86.1606 37.6204 86.1606 37.5995C86.1606 37.5786 86.1606 37.5577 86.1815 37.5368C86.1815 37.5159 86.2024 37.495 86.2024 37.4741C86.2024 37.4532 86.2233 37.4323 86.2233 37.4114C86.2233 37.3905 86.2443 37.3696 86.2443 37.3696C86.2443 37.3487 86.2651 37.3487 86.286 37.3487C86.3069 37.3487 86.3278 37.3696 86.3696 37.3905C86.4114 37.4114 86.4533 37.4532 86.4951 37.4741C86.5578 37.495 86.6205 37.5368 86.7041 37.5577C86.7877 37.5786 86.8922 37.5995 86.9967 37.5995C87.1012 37.5995 87.2057 37.5786 87.2684 37.5577C87.352 37.5368 87.4147 37.495 87.4565 37.4532C87.4983 37.4114 87.5401 37.3487 87.561 37.3069C87.5819 37.2442 87.6028 37.1815 87.6028 37.1188C87.6028 37.0352 87.5819 36.9725 87.5192 36.9098C87.4774 36.868 87.4147 36.8053 87.3311 36.7635C87.2475 36.7217 87.1639 36.6799 87.0803 36.6381C86.9967 36.5963 86.9131 36.5545 86.8295 36.4918C86.7459 36.4291 86.6832 36.3664 86.6414 36.2828C86.5996 36.1992 86.5578 36.0947 86.5578 35.9693C86.5578 35.8439 86.5787 35.7185 86.6414 35.614C86.6832 35.5095 86.7668 35.405 86.8504 35.3214C86.934 35.2378 87.0594 35.1751 87.1848 35.1333C87.3102 35.0915 87.4565 35.0706 87.6237 35.0706C87.7073 35.0706 87.77 35.0706 87.8327 35.0915C87.8954 35.1124 87.9581 35.1124 88.0208 35.1333C88.0835 35.1542 88.1253 35.1751 88.1671 35.196C88.2089 35.2169 88.2507 35.2378 88.2716 35.2587C88.3134 35.2378 88.3134 35.2587 88.3134 35.3005Z"
                        fill="#353A42"
                      />
                      <path
                        d="M14.0965 27.7975H0.741211C0.741211 27.7975 2.22513 24.4535 6.07079 24.4535C8.05632 24.4535 18.1512 24.4535 19.5306 24.4535C19.5306 24.4326 18.1512 27.7975 14.0965 27.7975Z"
                        fill="#353A42"
                      />
                      <path
                        d="M102.212 23.6802C101.042 23.6802 100.038 24.349 99.5369 25.3313C99.9131 24.8715 100.477 24.5789 101.125 24.5789C102.275 24.5789 103.194 25.4985 103.194 26.648C103.194 27.7975 102.275 28.7172 101.125 28.7172C100.477 28.7172 99.9131 28.4245 99.5369 27.9647C100.018 28.9471 101.042 29.6368 102.212 29.6368C103.863 29.6368 105.201 28.2991 105.201 26.648C105.201 25.0178 103.863 23.6802 102.212 23.6802Z"
                        fill="#353A42"
                      />
                      <path
                        d="M118.493 27.3794C118.493 27.3794 117.595 23.8264 116.383 21.9453C114.773 19.4373 111.555 18.8103 111.555 18.8103C111.555 18.8103 109.736 10.6592 101.104 10.6592C97.8439 10.6592 92.4517 10.6592 92.4517 10.6592C92.4517 10.6592 93.7475 14.1077 97.5931 14.1077C100.247 14.1077 100.373 14.1077 101.272 14.1077C105.932 14.1077 107.458 18.6222 107.458 18.6222H96.4227C96.4227 18.6222 97.7812 21.9662 101.543 21.9662C103.529 21.9662 107.792 21.9662 109.172 21.9662C113.791 21.9662 114.334 27.3376 114.334 27.3376L118.493 27.3794Z"
                        fill="#353A42"
                      />
                      <path
                        d="M9.64455 15.1319L7.38731 15.111C7.38731 15.111 7.38731 13.0419 7.38731 12.3522C7.38731 12.0178 7.53362 11.767 7.95163 11.767C8.43233 11.767 9.83265 11.767 9.83265 11.767C10.7523 11.767 11.5256 12.5194 11.5256 13.4599C11.5256 14.3795 10.5851 15.1319 9.64455 15.1319ZM11.7973 15.9052C11.7973 15.9052 13.4693 15.2573 13.4693 13.439C13.4693 11.4953 12.1526 10.1995 9.64455 10.1995C8.53683 10.1995 7.59632 10.1995 6.86481 10.1995C5.94519 10.1995 5.38089 10.722 5.38089 11.6625C5.38089 14.2123 5.38089 20.2316 5.38089 20.2316C5.38089 20.2316 5.33909 21.0049 6.0079 21.4647C6.5931 21.8827 7.42912 21.8618 7.42912 21.8618V16.5741C7.42912 16.5741 8.64134 16.5741 9.31015 16.5741C9.97896 16.5741 11.0031 17.1802 11.3375 18.9985C11.6719 20.8377 11.6301 21.82 11.6301 21.82H13.6574C13.6574 21.82 13.6574 19.4792 13.0931 17.849C12.487 16.2397 11.7973 15.9052 11.7973 15.9052Z"
                        fill="#353A42"
                      />
                      <path
                        d="M27.1593 13.9614C25.0275 13.9614 23.2927 14.9228 23.2927 16.1142V20.336C23.2927 20.336 23.3345 21.0048 23.857 21.4437C24.3377 21.8408 25.1738 21.8617 25.1738 21.8617L25.1529 16.5322C25.1529 15.9052 26.0516 15.4244 27.1593 15.4244C28.267 15.4244 29.1657 15.9261 29.1657 16.5322V21.8408H31.0258L31.0467 16.1351C31.0258 14.9437 29.2911 13.9614 27.1593 13.9614Z"
                        fill="#353A42"
                      />
                      <path
                        d="M20.1996 19.4164C20.1996 20.0225 19.3009 20.5241 18.1932 20.5241C17.0855 20.5241 16.1868 20.0225 16.1868 19.4164V16.5531C16.1868 15.9261 17.0855 15.4453 18.1932 15.4453C19.3009 15.4453 20.1996 15.947 20.1996 16.5531V19.4164ZM18.1932 13.9614C16.0614 13.9614 14.3267 14.9228 14.3267 16.1142V19.7926C14.3267 20.9839 16.0614 21.9453 18.1932 21.9453C20.325 21.9453 22.0598 20.9839 22.0598 19.7926V16.1142C22.0598 14.9437 20.325 13.9614 18.1932 13.9614Z"
                        fill="#353A42"
                      />
                      <path
                        d="M63.4631 19.4164C63.4631 20.0225 62.5644 20.5241 61.4566 20.5241C60.3489 20.5241 59.5129 20.0852 59.5129 19.4582C59.5129 18.7685 60.4534 18.5177 61.6865 18.4968C62.8988 18.4759 63.4631 18.2669 63.4631 18.2669V19.4164ZM61.4566 13.9614C59.3248 13.9614 57.5901 14.9228 57.5901 16.1142L59.4502 16.5322C59.4502 15.9052 60.3489 15.4244 61.4566 15.4244C62.5644 15.4244 63.4631 15.9261 63.4631 16.5322C63.4631 16.8457 63.2959 17.2428 62.1882 17.3473C61.0595 17.4518 57.611 17.4309 57.611 19.6463C57.611 21.1511 59.3457 21.9662 61.4775 21.9662C63.6094 21.9662 65.3441 21.0048 65.3441 19.8135V16.1351C65.3232 14.9437 63.5885 13.9614 61.4566 13.9614Z"
                        fill="#353A42"
                      />
                      <path
                        d="M76.4631 16.5322C76.4631 15.9052 77.3618 15.4244 78.4695 15.4244C79.5772 15.4244 80.4132 15.8634 80.4132 16.4904C80.4132 17.1801 79.4727 17.4309 78.2396 17.4518C77.0274 17.4727 76.4631 17.6817 76.4631 17.6817V16.5322ZM77.738 18.5804C78.8666 18.4759 82.3151 18.4968 82.3151 16.2814C82.3151 14.7765 80.5804 13.9614 78.4486 13.9614C76.3168 13.9614 74.582 14.9228 74.582 16.1142V19.7926C74.582 20.9839 76.3168 21.9453 78.4486 21.9453C80.5804 21.9453 82.3151 20.9839 82.3151 19.7926L80.455 19.3746C80.455 19.9807 79.5563 20.4823 78.4486 20.4823C77.3409 20.4823 76.4422 19.9807 76.4422 19.3746C76.4631 19.1029 76.6094 18.6849 77.738 18.5804Z"
                        fill="#353A42"
                      />
                      <path
                        d="M43.4197 11.746C44.611 11.746 45.5933 12.2894 45.5933 12.9582L47.6207 12.5193C47.6207 11.2235 45.7396 10.1785 43.4197 10.1785C41.0998 10.1785 39.2188 11.2235 39.2188 12.5193V19.5C39.2188 20.7958 41.0998 21.8408 43.4197 21.8408C45.7396 21.8408 47.6207 20.7958 47.6207 19.5L45.5933 19.0611C45.5933 19.7299 44.611 20.2733 43.4197 20.2733C42.2284 20.2733 41.2461 19.7299 41.2461 19.0611V12.9791C41.2461 12.2894 42.2075 11.746 43.4197 11.746Z"
                        fill="#353A42"
                      />
                      <path
                        d="M33.7013 14.4631C33.1788 14.1078 32.3428 14.0869 32.3428 14.0869V21.82H34.3492V15.6962C34.3492 15.6962 34.3492 14.902 33.7013 14.4631Z"
                        fill="#353A42"
                      />
                      <path
                        d="M33.3666 10.262C32.8232 10.262 32.3843 10.7009 32.3843 11.2443C32.3843 11.7877 32.8232 12.2266 33.3666 12.2266C33.91 12.2266 34.3489 11.7877 34.3489 11.2443C34.3489 10.7009 33.91 10.262 33.3666 10.262Z"
                        fill="#353A42"
                      />
                      <path
                        d="M56.3776 16.2605C56.3776 15.0691 54.6429 14.1077 52.5111 14.1077C51.7796 14.1077 51.0899 14.2331 50.5047 14.4212V9.69775H48.6445V16.0933C48.6445 16.156 48.6236 16.2186 48.6236 16.2605V19.9389V20.1897C48.6236 20.1897 48.6027 20.9421 49.167 21.4019C49.7313 21.8617 50.5256 21.799 50.5256 21.799L50.5047 19.5V17.0965V16.6158C50.5256 16.0096 51.4034 15.508 52.5111 15.508C53.6188 15.508 54.5175 16.0096 54.5175 16.6158V19.5418V21.8408H56.4821L56.3776 19.9598V16.2605Z"
                        fill="#353A42"
                      />
                      <path
                        d="M70.9243 17.8278C70.4436 19.458 70.0255 20.0223 69.9419 20.1268C69.8583 20.0223 69.4403 19.458 68.9596 17.8278C68.4162 15.9676 68.0191 14.1284 68.0191 14.1284H66.1172C66.1172 14.1284 66.2844 15.8631 67.2249 18.4548C68.1654 21.0464 68.9805 21.8824 68.9805 21.8824H69.9419H69.9837H70.9452C70.9452 21.8824 71.7603 21.0255 72.7008 18.4548C73.6413 15.8631 73.8085 14.1284 73.8085 14.1284H71.9066C71.8648 14.1284 71.4677 15.9676 70.9243 17.8278Z"
                        fill="#353A42"
                      />
                      <path
                        d="M87.0178 17.389C85.7638 17.2845 85.1995 16.9292 85.1995 16.553C85.1995 15.9259 86.0982 15.4452 87.2059 15.4452C88.3136 15.4452 89.2124 15.9468 89.2124 16.553L91.0725 16.135C91.0098 14.6928 89.3795 14.0449 87.2477 14.0449C85.1159 14.0449 83.3394 14.7137 83.3394 16.3231C83.3394 18.1414 85.6593 18.4131 86.8924 18.4967C88.1255 18.5803 89.2124 18.8102 89.2124 19.4581C89.2124 20.106 88.3136 20.5449 87.2059 20.5449C86.0982 20.5449 85.1995 20.0433 85.1995 19.4372L83.3394 19.8552C83.3394 21.0465 85.0741 22.0079 87.2059 22.0079C89.3377 22.0079 91.0725 21.2346 91.0725 19.7089C91.0725 17.4517 88.2718 17.4935 87.0178 17.389Z"
                        fill="#353A42"
                      />
                    </svg>