                    <svg
                      xmlns="http://www.w3.org/2000/svg"
                      width="115"
                      height="25"
                      viewBox="0 0 115 25"
                      fill="none"
                    >
                      <g clip-path="url(#clip0_1727_12298)">
                        <path
                          d="M40.2522 0.5C39.3862 0.5 38.7498 1.16737 38.7498 2.01591C38.7498 2.86445 39.3862 3.53182 40.2522 3.53182C41.1182 3.53182 41.7297 2.86445 41.7297 2.01591C41.7297 1.16737 41.1182 0.5 40.2522 0.5Z"
                          fill="#353A42"
                        />
                        <path
                          d="M41.4978 5.43311H38.9771V19.7207H41.4978V5.43311Z"
                          fill="#353A42"
                        />
                        <path
                          d="M33.6038 0.653564H31.083V14.2738C31.083 17.9753 32.765 19.7205 36.1768 19.7205H37.1701V17.3056H36.4564C34.3925 17.3056 33.6038 16.175 33.6038 13.9642V7.84783H37.1701V5.43292H33.6038V0.653564Z"
                          fill="#353A42"
                        />
                        <path
                          d="M8.10977 5.2793C4.05929 5.2793 0.799805 8.28589 0.799805 12.8611V24.5022H3.32056L3.34556 12.8107C3.34556 9.62521 5.20488 7.72172 8.13477 7.72172C10.8351 7.72172 12.4898 9.59769 12.4898 12.6043C12.4898 15.9457 10.3259 17.308 7.39605 17.308H5.66402V19.7229H7.42105C11.6488 19.7229 15.0106 17.3332 15.0106 12.6043C15.0106 8.21021 12.208 5.28159 8.1075 5.28159L8.10977 5.2793Z"
                          fill="#353A42"
                        />
                        <path
                          d="M23.7479 17.4593C21.2113 17.4593 19.4111 15.8196 19.1474 13.2051C20.5589 13.9069 22.1932 14.1959 23.3661 14.1959C27.4416 14.1959 29.3759 12.3199 29.3759 9.6986C29.3759 7.35937 27.262 5.2793 23.6957 5.2793C19.7225 5.2793 16.6653 8.5932 16.6653 12.68C16.6653 16.9961 19.6702 19.8742 23.7457 19.8742C26.2164 19.8742 28.4326 18.6932 29.7305 17.0465L28.1007 15.5306C26.8779 16.8676 25.7073 17.457 23.7457 17.457L23.7479 17.4593ZM23.8502 7.61623C26.0414 7.61623 26.8551 8.66888 26.8551 9.6986C26.8551 11.0609 26.0914 11.9346 23.2388 11.9346C21.9023 11.9346 20.4976 11.6571 19.2747 11.1044C19.7793 9.00142 21.4318 7.61852 23.8502 7.61852V7.61623Z"
                          fill="#353A42"
                        />
                        <path
                          d="M46.2874 0.653564H43.7666V14.2738C43.7666 17.9753 45.4486 19.7205 48.8604 19.7205H49.8537V17.3056H49.14C47.0761 17.3056 46.2874 16.175 46.2874 13.9642V7.84783H49.8537V5.43292H46.2874V0.653564Z"
                          fill="#353A42"
                        />
                        <path
                          d="M100.052 5.43311H97.5317V19.7207H100.052V5.43311Z"
                          fill="#353A42"
                        />
                        <path
                          d="M98.8047 0.5C97.9387 0.5 97.3022 1.16737 97.3022 2.01591C97.3022 2.86445 97.9387 3.53182 98.8047 3.53182C99.6707 3.53182 100.282 2.86445 100.282 2.01591C100.282 1.16737 99.6707 0.5 98.8047 0.5Z"
                          fill="#353A42"
                        />
                        <path
                          d="M57.2384 17.4593C54.7018 17.4593 52.9015 15.8196 52.6379 13.2051C54.0494 13.9069 55.6837 14.1959 56.8566 14.1959C60.932 14.1959 62.8664 12.3199 62.8664 9.6986C62.8664 7.35937 60.7525 5.2793 57.1862 5.2793C53.2129 5.2793 50.1558 8.5932 50.1558 12.68C50.1558 16.9961 53.1607 19.8742 57.2362 19.8742C59.7069 19.8742 61.9231 18.6932 63.221 17.0465L61.5912 15.5306C60.3684 16.8676 59.1978 17.457 57.2362 17.457L57.2384 17.4593ZM57.3407 7.61623C59.5319 7.61623 60.3456 8.66888 60.3456 9.6986C60.3456 11.0609 59.5819 11.9346 56.7293 11.9346C55.3928 11.9346 53.988 11.6571 52.7652 11.1044C53.2698 9.00142 54.9222 7.61852 57.3407 7.61852V7.61623Z"
                          fill="#353A42"
                        />
                        <path
                          d="M93.2517 14.4022V0.653564H90.731V14.7875C90.731 17.973 92.2857 19.7205 95.3156 19.7205H96.3089V17.3056H95.6725C93.9904 17.3056 93.254 16.175 93.254 14.4022H93.2517Z"
                          fill="#353A42"
                        />
                        <path
                          d="M113.168 15.5329C111.945 16.8699 110.774 17.4593 108.813 17.4593C106.276 17.4593 104.476 15.8196 104.212 13.2051C105.624 13.9069 107.258 14.1959 108.431 14.1959C112.506 14.1959 114.441 12.3199 114.441 9.6986C114.441 7.35937 112.327 5.2793 108.76 5.2793C104.787 5.2793 101.73 8.5932 101.73 12.68C101.73 16.9961 104.735 19.8742 108.81 19.8742C111.281 19.8742 113.497 18.6932 114.795 17.0465L113.165 15.5306L113.168 15.5329ZM108.915 7.61852C111.106 7.61852 111.92 8.67117 111.92 9.70089C111.92 11.0631 111.156 11.9369 108.303 11.9369C106.967 11.9369 105.562 11.6594 104.339 11.1067C104.844 9.00371 106.496 7.62082 108.915 7.62082V7.61852Z"
                          fill="#353A42"
                        />
                        <path
                          d="M70.9422 18.6681C70.9422 20.8789 70.2808 22.0852 68.1919 22.0852H67.1736V24.5001H68.3192C71.6559 24.5001 73.463 22.6746 73.463 18.9754V5.43311H70.9422V18.6681Z"
                          fill="#353A42"
                        />
                        <path
                          d="M82.0959 5.2793C78.2 5.2793 75.1428 8.26066 75.1428 12.5768C75.1428 16.8929 78.2 19.8742 82.0959 19.8742C85.9918 19.8742 89.049 16.8929 89.049 12.5768C89.049 8.26066 85.9918 5.2793 82.0959 5.2793ZM82.0959 17.4593C79.5752 17.4593 77.6636 15.5054 77.6636 12.5768C77.6636 9.64815 79.5729 7.6942 82.0959 7.6942C85.1258 7.6942 86.5283 9.64815 86.5283 12.5768C86.5283 15.5054 84.619 17.4593 82.0959 17.4593Z"
                          fill="#353A42"
                        />
                        <path
                          d="M72.2151 0.5C71.3491 0.5 70.7126 1.16737 70.7126 2.01591C70.7126 2.86445 71.3491 3.53182 72.2151 3.53182C73.0811 3.53182 73.6926 2.86445 73.6926 2.01591C73.6926 1.16737 73.0811 0.5 72.2151 0.5Z"
                          fill="#353A42"
                        />
                      </g>
                      <defs>
                        <clipPath id="clip0_1727_12298">
                          <rect
                            width="114"
                            height="24"
                            fill="white"
                            transform="translate(0.799805 0.5)"
                          />
                        </clipPath>
                      </defs>
                    </svg>