                    <svg
                      width="66"
                      height="27"
                      viewBox="0 0 66 27"
                      fill="none"
                      xmlns="http://www.w3.org/2000/svg"
                    >
                      <path
                        d="M4.83601 21.2249V26.092H4.39845V23.8486H1.33285V26.092H0.90332V21.2249H1.33285V23.4401H4.39845V21.2249H4.83601Z"
                        fill="#353A42"
                      />
                      <path
                        d="M8.6377 23.6595C8.6377 22.2278 9.72959 21.1416 11.168 21.1416C12.6132 21.1416 13.7051 22.2278 13.7051 23.6595C13.7051 25.0913 12.6132 26.1775 11.168 26.1775C9.73093 26.1775 8.6377 25.0913 8.6377 23.6595ZM13.2542 23.6595C13.2542 22.4608 12.359 21.5648 11.168 21.5648C9.98383 21.5648 9.08194 22.4608 9.08194 23.6595C9.08194 24.8582 9.98383 25.7543 11.168 25.7543C12.359 25.7543 13.2542 24.8582 13.2542 23.6595Z"
                        fill="#353A42"
                      />
                      <path
                        d="M22.0032 21.2249V26.092H21.5736V21.9226L19.6561 26.092H19.3109L17.3934 21.9226V26.092H16.9639V21.2249H17.5419L19.4875 25.4719L21.4331 21.2249H22.0032Z"
                        fill="#353A42"
                      />
                      <path
                        d="M29.3437 25.6834V26.0932H26.25V21.2261H29.3089V21.6359H26.6795V23.4413H29.0761V23.8498H26.6795V25.6834H29.3437Z"
                        fill="#353A42"
                      />
                      <path
                        d="M38.0771 24.7593H38.5214C38.5214 25.3378 39.05 25.7825 39.727 25.7825C40.3894 25.7825 40.9046 25.3874 40.9046 24.8369C40.9046 24.3293 40.4536 23.9905 39.6213 23.807C38.7328 23.6168 38.1695 23.1721 38.1695 22.4596C38.1695 21.6908 38.8385 21.1404 39.7137 21.1404C40.5941 21.1404 41.2645 21.7257 41.2645 22.5025H40.8203C40.8203 21.952 40.3412 21.5355 39.7137 21.5355C39.1008 21.5355 38.6218 21.9092 38.6218 22.4315C38.6218 22.911 39.0379 23.2498 39.8194 23.4186C40.736 23.6235 41.3555 24.0467 41.3555 24.8008C41.3555 25.6044 40.6436 26.1763 39.7203 26.1763C38.789 26.1776 38.0771 25.5642 38.0771 24.7593Z"
                        fill="#353A42"
                      />
                      <path
                        d="M49.4571 21.2249V26.092H49.0195V23.8486H45.9539V26.092H45.5244V21.2249H45.9539V23.4401H49.0195V21.2249H49.4571Z"
                        fill="#353A42"
                      />
                      <path
                        d="M52.7266 23.6595C52.7266 22.2278 53.8185 21.1416 55.2569 21.1416C56.7021 21.1416 57.794 22.2278 57.794 23.6595C57.794 25.0913 56.7021 26.1775 55.2569 26.1775C53.8198 26.1775 52.7266 25.0913 52.7266 23.6595ZM57.343 23.6595C57.343 22.4608 56.4478 21.5648 55.2569 21.5648C54.0727 21.5648 53.1708 22.4608 53.1708 23.6595C53.1708 24.8582 54.0727 25.7543 55.2569 25.7543C56.4492 25.7543 57.343 24.8582 57.343 23.6595Z"
                        fill="#353A42"
                      />
                      <path
                        d="M64.7455 22.6926C64.7455 23.5324 64.1045 24.1672 63.2589 24.1672H61.7508V26.0932H61.3213V21.2261H63.2589C64.1045 21.2247 64.7455 21.8596 64.7455 22.6926ZM64.2946 22.6926C64.2946 22.0859 63.8503 21.6346 63.2522 21.6346H61.7508V23.7574H63.2522C63.8503 23.7574 64.2946 23.2994 64.2946 22.6926Z"
                        fill="#353A42"
                      />
                      <path
                        d="M10.9402 12.7132V16.9736H0.488281V0.641846H5.00438V12.7132H10.9402Z"
                        fill="#353A42"
                      />
                      <path
                        d="M48.3978 4.90226H44.4718V16.9736H39.9543V4.90226H36.0283V0.641846H48.3964V4.90226H48.3978Z"
                        fill="#353A42"
                      />
                      <path
                        d="M52.6299 11.9084H57.2651C57.2651 12.6424 58.0224 13.2344 58.9912 13.2344C59.8195 13.2344 60.5046 12.8085 60.5046 12.2406C60.5046 11.4115 59.0621 11.0338 57.8083 10.7258C55.5148 10.1579 52.8654 8.78511 52.8654 5.61357C52.8654 2.46614 55.4426 0.359375 58.848 0.359375C62.3004 0.359375 64.9016 2.56124 64.9016 5.49571H60.2664C60.2664 4.85685 59.6522 4.38273 58.7999 4.38273C58.0907 4.38273 57.4992 4.71354 57.4992 5.25865C57.4992 6.06359 58.7758 6.44262 60.0055 6.74932C62.4181 7.36408 65.1371 8.52394 65.1371 11.7906C65.1371 15.0572 62.4409 17.2577 58.9176 17.2577C55.3021 17.2577 52.6299 14.9152 52.6299 11.9084Z"
                        fill="#353A42"
                      />
                      <path
                        fill-rule="evenodd"
                        clip-rule="evenodd"
                        d="M31.4421 8.81331C31.4421 13.3595 27.7601 17.0448 23.2181 17.0448C18.6761 17.0448 14.9941 13.3595 14.9941 8.81331C14.9941 4.26717 18.6761 0.581787 23.2181 0.581787C27.7601 0.581787 31.4421 4.26717 31.4421 8.81331ZM23.6727 9.25784H25.538V8.36987H23.6727V6.49213H22.7628V8.36987H20.8975V9.25784H22.7628V11.1356H23.6727V9.25784Z"
                        fill="#353A42"
                      />
                    </svg>