<svg
                      width="74"
                      height="30"
                      viewBox="0 0 74 30"
                      fill="none"
                      xmlns="http://www.w3.org/2000/svg"
                    >
                      <path
                        fill-rule="evenodd"
                        clip-rule="evenodd"
                        d="M29.2297 14.7399C29.2297 6.8332 22.8168 0.42041 14.9102 0.42041C7.00352 0.42041 0.59082 6.8332 0.59082 14.7399C0.59082 22.6465 7.00352 29.0593 14.9102 29.0593C22.8168 29.0593 29.2297 22.6465 29.2297 14.7399ZM18.1092 13.9819V13.8288C18.1019 12.8305 17.9852 11.8613 17.4678 10.9431C16.9504 10.0031 16.178 9.15771 15.1797 8.71319C14.4582 8.38526 13.5546 8.2395 12.7603 8.2395H10.2024H7.07617V19.6951H8.83981C8.72321 19.7024 8.79599 19.7242 12.753 19.7242C13.5473 19.7242 14.4509 19.5784 15.1724 19.2505C16.1707 18.7987 16.9358 17.9534 17.4605 17.0207C17.9706 16.0952 18.0873 15.1333 18.1019 14.1349V13.9819H18.1092ZM15.0413 13.9943C15.0412 14.1504 15.0407 14.3065 15.0194 14.4555C14.8518 16.0004 13.5254 17.0353 11.9878 17.0353H10.2024V10.9358H11.9878C13.5254 10.9358 14.8445 11.9779 15.0194 13.5228C15.0339 13.6679 15.0412 13.8274 15.0413 13.9943ZM15.0413 13.9943C15.0413 13.995 15.0413 13.9957 15.0413 13.9964V13.9819C15.0413 13.986 15.0413 13.9901 15.0413 13.9943ZM19.6614 10.688H22.7366H22.7439V15.1333C22.7439 15.1916 22.7402 15.248 22.7366 15.3045C22.7329 15.361 22.7293 15.4175 22.7293 15.4758C22.7001 16.0004 22.5983 17.1883 22.1392 18.4854C21.2938 20.8902 19.6833 22.5517 17.4825 23.1128L16.7246 20.1323C19.6322 19.389 19.6614 15.2426 19.6614 15.1988V10.688Z"
                        fill="#353A42"
                      />
                      <path
                        d="M34.6149 10.3458C34.6367 10.2511 34.7388 10.1782 34.8335 10.1782H35.0303C35.1177 10.1782 35.2125 10.2366 35.2343 10.3094L37.6246 16.8461H37.6828L40.0365 10.3094C40.0584 10.2366 40.1604 10.1782 40.2406 10.1782H40.4301C40.5248 10.1782 40.6196 10.2511 40.6487 10.3458L42.2081 18.3181C42.2445 18.4857 42.1718 18.6023 41.9896 18.6023H41.5086C41.4138 18.6023 41.3119 18.5221 41.2901 18.4346L40.2114 12.3207H40.1605L37.9379 18.5877C37.916 18.6606 37.8067 18.7188 37.7338 18.7188H37.5152C37.4423 18.7188 37.333 18.6606 37.3111 18.5877L35.0667 12.3207H35.0157L33.9664 18.4346C33.9518 18.5148 33.8424 18.6023 33.7477 18.6023H33.2668C33.0846 18.6023 33.0117 18.4857 33.0482 18.3181L34.6076 10.3458H34.6149Z"
                        fill="#353A42"
                      />
                      <path
                        d="M46.8144 10.1781C49.2338 10.1781 51.1576 12.0873 51.1576 14.463C51.1576 16.8386 49.2265 18.726 46.8144 18.726C44.4023 18.726 42.4785 16.8386 42.4785 14.463C42.4785 12.0873 44.395 10.1781 46.8144 10.1781ZM46.8144 17.8952C48.7309 17.8952 50.3196 16.3504 50.3196 14.463C50.3196 12.5756 48.7382 11.0088 46.8144 11.0088C44.8906 11.0088 43.3238 12.5756 43.3238 14.463C43.3238 16.3504 44.8906 17.8952 46.8144 17.8952ZM45.7286 9.05581C45.6776 8.96108 45.7287 8.86639 45.8015 8.82995L47.6161 7.8316C47.6889 7.78059 47.8711 7.75868 47.9294 7.86799L48.148 8.298C48.199 8.39273 48.1698 8.5093 48.0751 8.54574L46.1294 9.34002C45.9618 9.4129 45.9034 9.41287 45.8524 9.31814L45.7286 9.05581Z"
                        fill="#353A42"
                      />
                      <path
                        d="M51.0911 10.608C51.0182 10.455 51.1129 10.302 51.2951 10.302H51.776C51.8853 10.302 51.9582 10.3748 51.9801 10.4331L54.9896 17.0791H55.0407L58.0504 10.4331C58.0723 10.3748 58.1596 10.302 58.2543 10.302H58.7354C58.9176 10.302 59.0123 10.455 58.9394 10.608L55.2666 18.5949C55.2302 18.6678 55.1573 18.726 55.0626 18.726H54.9387C54.8513 18.726 54.7711 18.6678 54.7347 18.5949L51.0911 10.608Z"
                        fill="#353A42"
                      />
                      <path
                        d="M59.5293 10.5208C59.5293 10.4042 59.6241 10.2949 59.7552 10.2949H64.5138C64.645 10.2949 64.7471 10.4042 64.7471 10.5208V10.8633C64.7471 10.9799 64.6523 11.0892 64.5138 11.0892H60.4621V13.9895H63.9235C64.0474 13.9895 64.1495 14.0989 64.1495 14.2155V14.5579C64.1495 14.6891 64.0401 14.7838 63.9235 14.7838H60.4621V17.808H64.5138C64.645 17.808 64.7471 17.9174 64.7471 18.034V18.3764C64.7471 18.493 64.6523 18.6024 64.5138 18.6024H59.7552C59.6241 18.6024 59.5293 18.493 59.5293 18.3764V10.5208Z"
                        fill="#353A42"
                      />
                      <path
                        d="M65.9502 10.5208C65.9502 10.4042 66.0596 10.2949 66.1834 10.2949H66.6643C66.7882 10.2949 66.8903 10.4042 66.8903 10.5208V18.3764C66.8903 18.493 66.7809 18.6024 66.6643 18.6024H66.1834C66.0596 18.6024 65.9502 18.493 65.9502 18.3764V10.5208Z"
                        fill="#353A42"
                      />
                      <path
                        d="M67.8453 17.3559C67.9036 17.283 67.9692 17.2029 68.0275 17.13C68.1513 16.977 68.2824 16.8822 68.45 17.0207C68.5302 17.0936 69.412 17.9243 70.4905 17.9243C71.467 17.9243 72.1082 17.3194 72.1082 16.6198C72.1082 15.7964 71.3868 15.3155 69.995 14.7398C68.6687 14.1714 67.8745 13.6394 67.8745 12.284C67.8745 11.4751 68.5229 10.1707 70.4467 10.1707C71.6272 10.1707 72.509 10.7755 72.509 10.7755C72.5819 10.8119 72.7277 10.9577 72.582 11.1763C72.531 11.2492 72.4873 11.3294 72.4363 11.4022C72.327 11.5699 72.2103 11.6135 72.0136 11.5115C71.9261 11.4678 71.1683 10.9649 70.4323 10.9649C69.1497 10.9649 68.7635 11.7739 68.7635 12.2694C68.7635 13.0637 69.3829 13.5301 70.3958 13.9382C72.0282 14.594 73.0775 15.1989 73.0775 16.5762C73.0775 17.8077 71.8823 18.7113 70.4686 18.7113C69.0549 18.7113 68.0784 17.8951 67.9181 17.7494C67.8233 17.6692 67.6995 17.5672 67.8453 17.3486V17.3559Z"
                        fill="#353A42"
                      />
                    </svg>