                    <svg
                      width="69"
                      height="25"
                      viewBox="0 0 69 25"
                      fill="none"
                      xmlns="http://www.w3.org/2000/svg"
                    >
                      <path
                        d="M20.1203 13.9552C19.94 13.2771 19.5158 12.6895 18.9289 12.3048C18.3875 11.9179 17.671 11.7244 16.7793 11.7244C15.5434 11.7244 14.5846 12.0976 13.9031 12.8442C13.2216 13.5908 12.8809 14.6726 12.8809 16.0897C12.8583 16.881 13.0295 17.6658 13.3795 18.3758C13.6903 18.987 14.1789 19.4897 14.7811 19.8178C15.4318 20.157 16.1578 20.3261 16.8915 20.3092C17.4403 20.3151 17.9882 20.2638 18.5264 20.1561C18.9286 20.0749 19.3222 19.9557 19.7018 19.8C19.7156 19.7939 19.7273 19.7839 19.7355 19.7713C19.7437 19.7586 19.7481 19.7438 19.7481 19.7287L19.7321 18.0785C19.7321 18.065 19.7284 18.0518 19.7214 18.0402C19.7145 18.0287 19.7046 18.0192 19.6928 18.0128C19.6809 18.0064 19.6675 18.0034 19.6541 18.004C19.6406 18.0045 19.6276 18.0088 19.6163 18.0161C19.465 18.1045 19.3051 18.1772 19.139 18.2333C18.8615 18.34 18.5756 18.4234 18.2842 18.4825C17.9639 18.5495 17.6373 18.5823 17.31 18.5805C16.4944 18.5805 15.89 18.3603 15.4971 17.92C15.1931 17.6028 15.013 17.1871 14.9895 16.7485C14.989 16.7431 14.9896 16.7376 14.9914 16.7324C14.9931 16.7273 14.9959 16.7225 14.9996 16.7185C15.0033 16.7145 15.0078 16.7112 15.0128 16.709C15.0178 16.7069 15.0232 16.7057 15.0287 16.7057H20.1934C20.2033 16.7057 20.2132 16.7038 20.2224 16.6999C20.2316 16.696 20.2399 16.6904 20.2469 16.6832C20.2539 16.6761 20.2593 16.6676 20.263 16.6584C20.2666 16.6491 20.2684 16.6392 20.2682 16.6292C20.2984 15.6803 20.2984 14.6709 20.1203 13.9552ZM15.7553 13.5689C16.0454 13.3987 16.3771 13.3123 16.7134 13.3195C17.3154 13.3195 17.7559 13.5047 18.0349 13.875C18.2708 14.2356 18.4106 14.6505 18.4409 15.0803C18.4417 15.0857 18.4413 15.0911 18.4398 15.0963C18.4382 15.1015 18.4356 15.1062 18.4321 15.1103C18.4285 15.1144 18.4241 15.1176 18.4192 15.1198C18.4143 15.122 18.4089 15.1231 18.4035 15.1231H15.0109C15.0054 15.1229 15 15.1215 14.9951 15.1191C14.9902 15.1167 14.9858 15.1133 14.9823 15.1091C14.9788 15.1049 14.9761 15.1 14.9746 15.0947C14.9731 15.0895 14.9727 15.084 14.9735 15.0786C15.0018 14.8467 15.0555 14.6186 15.1337 14.3984C15.2434 14.0587 15.465 13.7663 15.7624 13.5689H15.7553Z"
                        fill="#353A42"
                      />
                      <path
                        d="M21.3799 12.7391C21.3799 12.7165 21.3862 12.6943 21.3982 12.6751C21.4102 12.6559 21.4273 12.6405 21.4476 12.6305C21.6595 12.5344 21.9035 12.4364 22.1849 12.3403C22.5176 12.2273 22.8566 12.1335 23.2 12.0591C23.5651 11.9789 23.932 11.913 24.3024 11.8649C24.6525 11.8186 25.0053 11.7948 25.3585 11.7937C25.9944 11.7737 26.6284 11.8746 27.2267 12.091C27.6959 12.2688 28.0925 12.5976 28.354 13.0257C28.633 13.5353 28.7667 14.1118 28.7405 14.6922V20.0332C28.7407 20.0432 28.7389 20.053 28.7353 20.0623C28.7316 20.0716 28.7262 20.08 28.7192 20.0872C28.7122 20.0943 28.7039 20.1 28.6947 20.1039C28.6855 20.1077 28.6756 20.1097 28.6657 20.1097H26.7868C26.7768 20.1097 26.7669 20.1077 26.7577 20.1039C26.7486 20.1 26.7402 20.0943 26.7333 20.0872C26.7263 20.08 26.7208 20.0716 26.7172 20.0623C26.7135 20.053 26.7118 20.0432 26.712 20.0332V15.0482C26.7127 14.8496 26.6858 14.6518 26.6318 14.4607C26.5786 14.2757 26.4849 14.1048 26.3576 13.9604C26.2099 13.8039 26.0266 13.6855 25.8233 13.615C25.5439 13.5194 25.2494 13.4753 24.9542 13.4851C24.6782 13.4861 24.403 13.5159 24.1332 13.5741C23.9047 13.6192 23.6793 13.6787 23.4582 13.7521C23.4434 13.7572 23.4304 13.7668 23.4212 13.7796C23.4119 13.7923 23.4068 13.8076 23.4066 13.8233V20.0225C23.4068 20.0325 23.4051 20.0423 23.4014 20.0516C23.3978 20.0609 23.3923 20.0693 23.3853 20.0765C23.3784 20.0836 23.37 20.0893 23.3608 20.0932C23.3516 20.097 23.3418 20.099 23.3318 20.099H21.4547C21.4447 20.099 21.4348 20.097 21.4257 20.0932C21.4165 20.0893 21.4081 20.0836 21.4012 20.0765C21.3942 20.0693 21.3887 20.0609 21.3851 20.0516C21.3814 20.0423 21.3797 20.0325 21.3799 20.0225V12.7391Z"
                        fill="#353A42"
                      />
                      <path
                        d="M38.5806 20.3429C37.2484 20.3429 36.2499 19.972 35.585 19.2302C34.9202 18.4884 34.5871 17.4202 34.5859 16.0256C34.5859 14.5337 34.9267 13.4495 35.6082 12.7729C36.2897 12.0964 37.2751 11.7582 38.5645 11.7582C39.344 11.7321 40.1183 11.8952 40.821 12.2335C41.416 12.5444 41.8895 13.046 42.1656 13.6578C42.4835 14.4049 42.6348 15.2123 42.609 16.0239C42.609 17.4197 42.2623 18.4879 41.5689 19.2285C40.8756 19.9691 39.8794 20.3405 38.5806 20.3429ZM38.5806 18.6837C38.9906 18.7024 39.3954 18.586 39.7328 18.3525C40.038 18.12 40.2653 17.8002 40.3846 17.4356C40.5348 16.9811 40.6059 16.5042 40.5948 16.0256C40.6104 15.5177 40.5368 15.0109 40.3775 14.5283C40.2602 14.1775 40.0272 13.8769 39.7168 13.6755C39.3711 13.4798 38.9775 13.3849 38.5806 13.4014C38.1769 13.383 37.7767 13.4839 37.4301 13.6916C37.1236 13.899 36.8983 14.2059 36.7925 14.5604C36.652 15.0357 36.5871 15.5301 36.6002 16.0256C36.6002 16.8849 36.7533 17.5425 37.0596 17.9982C37.366 18.454 37.8729 18.6825 38.5806 18.6837Z"
                        fill="#353A42"
                      />
                      <path
                        d="M10.35 10.3126L8.40878 11.2171C8.3955 11.2232 8.38426 11.2329 8.37637 11.2452C8.36848 11.2575 8.36428 11.2718 8.36426 11.2864V17.9431C8.36426 18.7265 8.5845 19.3247 9.02498 19.7377C9.46547 20.1508 10.0989 20.3578 10.9252 20.359C11.1712 20.3576 11.4167 20.3356 11.659 20.2932C11.8821 20.2577 12.0988 20.1893 12.3019 20.0902C12.3145 20.0836 12.325 20.0736 12.3323 20.0614C12.3395 20.0491 12.3432 20.035 12.3428 20.0208V18.447C12.3428 18.4338 12.3394 18.4209 12.3329 18.4094C12.3264 18.398 12.3171 18.3883 12.3058 18.3815C12.2945 18.3747 12.2817 18.3709 12.2685 18.3706C12.2554 18.3702 12.2423 18.3732 12.2306 18.3793C12.1177 18.4401 11.9982 18.4879 11.8745 18.5217C11.7012 18.5743 11.5213 18.6019 11.3402 18.6036C11.0178 18.6036 10.7934 18.5218 10.6634 18.3615C10.5186 18.143 10.4509 17.8823 10.4711 17.6209V13.6703C10.4711 13.6603 10.4731 13.6505 10.477 13.6413C10.4808 13.6321 10.4865 13.6237 10.4936 13.6168C10.5008 13.6098 10.5092 13.6043 10.5185 13.6007C10.5278 13.597 10.5377 13.5953 10.5477 13.5956H12.2787C12.299 13.5956 12.3185 13.5875 12.3329 13.5731C12.3472 13.5588 12.3553 13.5393 12.3553 13.519V12.0609C12.3553 12.0406 12.3472 12.0211 12.3329 12.0067C12.3185 11.9924 12.299 11.9843 12.2787 11.9843H10.5477C10.5274 11.9843 10.5079 11.9763 10.4935 11.962C10.4792 11.9476 10.4711 11.9281 10.4711 11.9078V10.382C10.4725 10.3673 10.4697 10.3526 10.4629 10.3395C10.4562 10.3264 10.4458 10.3155 10.433 10.3082C10.4202 10.3009 10.4056 10.2974 10.3908 10.2982C10.3761 10.299 10.3619 10.304 10.35 10.3126Z"
                        fill="#353A42"
                      />
                      <path
                        d="M32.066 10.3126L30.1266 11.217C30.1133 11.2232 30.102 11.2329 30.0941 11.2452C30.0863 11.2575 30.082 11.2718 30.082 11.2864V17.9431C30.082 18.7265 30.3023 19.3247 30.7428 19.7377C31.1832 20.1507 31.8166 20.3578 32.643 20.359C32.889 20.3576 33.1344 20.3356 33.3767 20.2932C33.5999 20.2577 33.8166 20.1893 34.0197 20.0902C34.0323 20.0836 34.0428 20.0736 34.05 20.0613C34.0572 20.0491 34.0609 20.035 34.0606 20.0208V18.447C34.061 18.4339 34.0578 18.4208 34.0516 18.4093C34.0453 18.3978 34.0361 18.3881 34.0249 18.3812C34.0137 18.3744 34.001 18.3706 33.9878 18.3703C33.9747 18.3699 33.9617 18.3731 33.9502 18.3793C33.8342 18.4403 33.7117 18.488 33.5851 18.5217C33.4118 18.5743 33.2319 18.6019 33.0508 18.6036C32.7303 18.6036 32.5041 18.5217 32.3741 18.3615C32.2292 18.1429 32.1615 17.8823 32.1817 17.6209V13.6703C32.1817 13.6603 32.1837 13.6505 32.1876 13.6413C32.1915 13.6321 32.1971 13.6237 32.2043 13.6168C32.2114 13.6098 32.2199 13.6043 32.2292 13.6007C32.2384 13.597 32.2484 13.5953 32.2583 13.5956H33.9912C34.0112 13.5951 34.0302 13.5868 34.0442 13.5725C34.0581 13.5582 34.066 13.539 34.066 13.519V12.0609C34.0662 12.0509 34.0644 12.041 34.0608 12.0318C34.0571 12.0225 34.0517 12.014 34.0447 12.0069C34.0377 11.9998 34.0294 11.9941 34.0202 11.9902C34.011 11.9863 34.0011 11.9843 33.9912 11.9843H32.2583C32.238 11.9843 32.2185 11.9763 32.2042 11.962C32.1898 11.9476 32.1817 11.9281 32.1817 11.9078V10.382C32.1824 10.3682 32.1793 10.3545 32.1728 10.3423C32.1662 10.3301 32.1565 10.3198 32.1446 10.3127C32.1328 10.3056 32.1192 10.3018 32.1053 10.3018C32.0915 10.3017 32.0779 10.3055 32.066 10.3126Z"
                        fill="#353A42"
                      />
                      <path
                        d="M4.52929 14.7064L6.96025 12.6323C6.96799 12.6249 6.97419 12.6161 6.97848 12.6063C6.98276 12.5965 6.98503 12.586 6.98518 12.5753V11.338C6.98518 11.3177 6.97712 11.2983 6.96276 11.2839C6.9484 11.2695 6.92891 11.2615 6.9086 11.2615H1.52131C1.51133 11.2615 1.50146 11.2634 1.49226 11.2673C1.48307 11.2712 1.47474 11.2769 1.46777 11.284C1.4608 11.2911 1.45534 11.2996 1.45169 11.3089C1.44803 11.3181 1.44627 11.328 1.44651 11.338V12.8531C1.44627 12.8631 1.44803 12.8729 1.45169 12.8822C1.45534 12.8915 1.4608 12.8999 1.46777 12.9071C1.47474 12.9142 1.48307 12.9199 1.49226 12.9238C1.50146 12.9276 1.51133 12.9296 1.52131 12.9296H4.05912C4.06659 12.9299 4.0738 12.9325 4.0799 12.9368C4.08599 12.9411 4.09072 12.9471 4.09353 12.954C4.09634 12.9609 4.09711 12.9686 4.09575 12.9759C4.09438 12.9833 4.09094 12.99 4.08583 12.9955L2.036 14.8168C2.00656 14.846 1.9899 14.8857 1.98969 14.9272V16.1591C1.98969 16.1692 1.99167 16.1791 1.99552 16.1884C1.99937 16.1977 2.005 16.2062 2.01212 16.2133C2.01923 16.2204 2.02767 16.226 2.03696 16.2299C2.04626 16.2337 2.05621 16.2357 2.06627 16.2357H3.02262C4.30489 16.2357 5.0048 16.8179 5.0048 17.4998C5.0048 18.2315 4.30845 18.6534 3.17935 18.6534C2.43246 18.6541 1.69387 18.4969 1.01196 18.1923C1.0003 18.1869 0.98748 18.1845 0.97467 18.1854C0.96186 18.1863 0.949476 18.1904 0.938658 18.1973C0.92784 18.2042 0.918929 18.2138 0.912755 18.225C0.906582 18.2363 0.903336 18.2489 0.90332 18.2617V20.0029C0.903605 20.0195 0.909078 20.0357 0.918973 20.0491C0.928868 20.0625 0.942692 20.0725 0.958529 20.0777C1.69815 20.2921 2.46446 20.4006 3.23456 20.3999C6.00924 20.3999 7.27726 19.0131 7.27726 17.4998C7.27726 16.1966 6.25501 15.05 4.55066 14.7705C4.54364 14.7697 4.53699 14.7668 4.53151 14.7623C4.52603 14.7579 4.52193 14.7519 4.51969 14.7452C4.51746 14.7385 4.51717 14.7313 4.51887 14.7244C4.52056 14.7176 4.52418 14.7113 4.52929 14.7064Z"
                        fill="#353A42"
                      />
                      <path
                        d="M48.3617 15.9296C48.1134 15.7608 47.8424 15.6283 47.5567 15.5361C47.2717 15.4435 46.9939 15.3581 46.7268 15.2851C46.4596 15.2121 46.2085 15.1356 45.977 15.0608C45.7688 14.9991 45.5783 14.8886 45.4213 14.7385C45.3512 14.6661 45.2965 14.5801 45.2607 14.4858C45.2249 14.3915 45.2086 14.2909 45.213 14.1902C45.2107 14.0678 45.2417 13.9471 45.3025 13.8408C45.3633 13.7345 45.4518 13.6467 45.5585 13.5866C45.857 13.4259 46.1941 13.3508 46.5327 13.3695C46.951 13.3603 47.3661 13.4429 47.749 13.6116C48.0138 13.7302 48.2869 13.865 48.5683 14.0157C48.5798 14.0218 48.5927 14.0248 48.6057 14.0245C48.6187 14.0242 48.6314 14.0206 48.6427 14.014C48.6539 14.0074 48.6633 13.9981 48.6699 13.9868C48.6765 13.9756 48.6801 13.9628 48.6804 13.9498V12.4775C48.6804 12.4633 48.6765 12.4495 48.6693 12.4373C48.6621 12.4251 48.6518 12.415 48.6395 12.4081C48.3615 12.2624 48.072 12.1397 47.774 12.0413C47.2916 11.9019 46.7925 11.8288 46.2904 11.8241C45.9212 11.8255 45.5534 11.8715 45.1952 11.9612C44.8292 12.048 44.4809 12.1973 44.1658 12.4027C43.7006 12.7446 43.3641 13.2333 43.2106 13.7898C43.0571 14.3463 43.0956 14.9383 43.3199 15.4702C43.4423 15.7416 43.625 15.9815 43.8541 16.1717C44.0797 16.354 44.332 16.5006 44.6021 16.6061C44.8721 16.7123 45.1495 16.7985 45.432 16.8642C45.7116 16.9497 45.9806 17.0423 46.237 17.1224C46.4646 17.193 46.6797 17.2987 46.8746 17.4357C46.956 17.4957 47.0214 17.5749 47.0649 17.6662C47.1084 17.7575 47.1287 17.8581 47.1239 17.9591C47.1228 18.0783 47.093 18.1954 47.0368 18.3005C46.9807 18.4056 46.9 18.4955 46.8016 18.5627C46.5152 18.7494 46.1755 18.837 45.8345 18.8119C45.4896 18.8144 45.1459 18.7713 44.8123 18.6838C44.5029 18.5993 44.2041 18.4799 43.9218 18.3277C43.6921 18.2066 43.4695 18.0784 43.2575 17.9431C43.246 17.9363 43.2329 17.9326 43.2195 17.9324C43.2062 17.9321 43.1929 17.9354 43.1812 17.9419C43.1695 17.9484 43.1597 17.9578 43.1528 17.9693C43.1459 17.9808 43.1421 17.9938 43.1418 18.0072V19.6558C43.1418 19.6704 43.146 19.6847 43.1539 19.697C43.1618 19.7093 43.173 19.7192 43.1863 19.7253C43.5537 19.8909 43.9314 20.0324 44.3172 20.149C45.3422 20.4189 46.4226 20.3936 47.4338 20.076C47.9248 19.9235 48.363 19.636 48.6983 19.2463C49.0374 18.8189 49.2147 18.2855 49.1987 17.7401C49.216 17.3486 49.1358 16.959 48.9654 16.6061C48.8196 16.3367 48.6128 16.105 48.3617 15.9296Z"
                        fill="#353A42"
                      />
                      <path
                        d="M68.3938 0.4157C68.4043 0.410467 68.4159 0.40806 68.4276 0.408659C68.4392 0.409258 68.4506 0.412902 68.4604 0.419178C68.4703 0.425453 68.4784 0.434153 68.4838 0.444474C68.4893 0.454796 68.492 0.466344 68.4917 0.478029V4.60131C68.49 5.41752 68.2562 6.21645 67.8176 6.90488C67.379 7.59332 66.7536 8.14287 66.0145 8.48954L55.7385 13.2733C55.2897 13.4834 54.9099 13.8166 54.6435 14.2343C54.377 14.652 54.2349 15.1369 54.2337 15.6323V15.9563C54.2329 15.9885 54.2234 16.02 54.2061 16.0473C54.1889 16.0746 54.1645 16.0966 54.1357 16.1112L52.6468 16.8073C52.6364 16.8125 52.6248 16.8149 52.6131 16.8143C52.6014 16.8137 52.5901 16.8101 52.5802 16.8038C52.5704 16.7975 52.5623 16.7888 52.5568 16.7785C52.5513 16.7682 52.5486 16.7567 52.5489 16.745V15.6323C52.5507 14.8163 52.7846 14.0177 53.2232 13.3296C53.6618 12.6414 54.2871 12.0921 55.0262 11.7458L65.295 6.95843C65.7441 6.74826 66.124 6.41475 66.3905 5.99672C66.657 5.57869 66.799 5.09344 66.7999 4.59775V3.01501L55.7136 8.20649C55.2661 8.41717 54.8876 8.75058 54.6221 9.16786C54.3566 9.58513 54.2151 10.0691 54.214 10.5636V10.8859C54.2131 10.9183 54.2034 10.9499 54.1858 10.9772C54.1682 11.0045 54.1435 11.0265 54.1143 11.0408L52.6273 11.7386C52.6166 11.7434 52.605 11.7455 52.5933 11.7446C52.5817 11.7436 52.5705 11.7398 52.5607 11.7334C52.551 11.727 52.543 11.7183 52.5375 11.708C52.532 11.6978 52.5292 11.6862 52.5293 11.6746V10.5636C52.5314 9.74908 52.7646 8.95188 53.2018 8.26456C53.6391 7.57724 54.2624 7.02808 54.9994 6.68078L68.3938 0.4157ZM52.6344 24.9274C52.6237 24.9322 52.6121 24.9342 52.6004 24.9333C52.5888 24.9324 52.5776 24.9286 52.5678 24.9222C52.5581 24.9158 52.5501 24.9071 52.5446 24.8968C52.5391 24.8865 52.5363 24.875 52.5364 24.8633V20.74C52.5383 19.9243 52.772 19.1259 53.2103 18.4379C53.6485 17.7498 54.2734 17.2003 55.0119 16.8535L65.2825 12.0663C65.7289 11.8553 66.1065 11.5222 66.3715 11.1057C66.6365 10.6892 66.7782 10.2063 66.7803 9.71265V9.3904C66.7807 9.35782 66.79 9.32596 66.8073 9.29834C66.8246 9.27071 66.8491 9.2484 66.8782 9.23375L68.3653 8.53761C68.3759 8.53249 68.3876 8.53011 68.3993 8.53074C68.411 8.53137 68.4224 8.53504 68.4324 8.54126C68.4423 8.54749 68.4506 8.55612 68.4563 8.56638C68.462 8.57665 68.465 8.58819 68.465 8.59994V9.71265C68.4632 10.5286 68.2293 11.3272 67.7907 12.0153C67.3521 12.7035 66.7268 13.2528 65.9878 13.5991L55.7172 18.3865C55.2687 18.5973 54.8893 18.931 54.6232 19.349C54.3571 19.7669 54.2152 20.2518 54.214 20.7472V22.3316L65.3003 17.1402C65.7477 16.9289 66.1261 16.5951 66.3915 16.1776C66.6569 15.7601 66.7985 15.276 66.7999 14.7813V14.459C66.8008 14.4266 66.8106 14.395 66.8281 14.3677C66.8457 14.3404 66.8704 14.3184 66.8996 14.3041L68.3867 13.608C68.3972 13.6033 68.4087 13.6013 68.4202 13.6021C68.4316 13.6029 68.4427 13.6066 68.4524 13.6128C68.4622 13.619 68.4702 13.6274 68.4758 13.6375C68.4814 13.6475 68.4844 13.6588 68.4846 13.6703V14.7813C68.4829 15.5959 68.2499 16.3933 67.8126 17.0807C67.3753 17.7681 66.7517 18.3172 66.0145 18.6641L52.6344 24.9274Z"
                        fill="#353A42"
                      />
                    </svg>