                    <svg
                      xmlns="http://www.w3.org/2000/svg"
                      width="112"
                      height="41"
                      viewBox="0 0 112 41"
                      fill="none"
                    >
                      <path
                        d="M110.475 29.2774C111.204 28.8347 111.801 28.1011 111.901 27.0252C111.783 28.0805 111.204 28.827 110.475 29.2774ZM110.169 18.8914C109.598 20.2865 108.939 21.6301 108.197 22.9351C108.947 21.6301 109.608 20.2762 110.179 18.8811C110.185 18.8734 110.187 18.8605 110.195 18.8528C110.182 18.8605 110.174 18.8759 110.167 18.8914H110.169ZM109.981 25.262C109.757 24.3173 109.425 23.4036 108.993 22.5104L108.983 22.531C109.412 23.419 109.747 24.3328 109.966 25.2723C110.306 26.6854 110.048 28.0033 109.508 28.7472C110.056 28.0059 110.324 26.6854 109.981 25.2594V25.262ZM108.512 29.7948L108.37 29.7793C107.433 29.7021 106.494 29.2182 105.827 28.1809C105.75 28.0599 105.675 27.9338 105.611 27.7974C105.608 27.8025 105.603 27.8051 105.598 27.8128C105.66 27.9467 105.734 28.0754 105.814 28.1963C106.481 29.2336 107.42 29.7124 108.357 29.7948L108.499 29.8051C108.887 29.8257 109.333 29.7587 109.773 29.6043C109.353 29.7484 108.916 29.8076 108.512 29.7922V29.7948ZM107.41 24.2401C107.41 24.2401 107.418 24.2324 107.423 24.2298C107.688 23.8103 107.943 23.383 108.187 22.9531C107.938 23.3881 107.678 23.818 107.412 24.2427L107.41 24.2401ZM105.69 25.1693C105.389 25.6944 105.253 26.3611 105.33 26.9531C105.338 27.02 105.346 27.0792 105.361 27.1384L105.371 27.1281C105.361 27.0664 105.348 27.0097 105.34 26.9454C105.263 26.3611 105.4 25.6996 105.688 25.1745L105.69 25.1693Z"
                        fill="#353A42"
                      />
                      <path
                        d="M111.623 25.0226C111.495 24.6571 110.565 22.2555 110.717 21.2465C110.895 20.0857 111.116 19.5143 110.452 18.8373C110.38 18.7781 110.28 18.7678 110.218 18.8296C110.215 18.8322 110.21 18.8373 110.21 18.8424C110.21 18.8424 110.208 18.8442 110.202 18.8476C110.202 18.8476 110.2 18.8502 110.2 18.8553C110.192 18.863 110.187 18.8759 110.184 18.8836C109.613 20.2787 108.952 21.6326 108.203 22.9377C108.195 22.9428 108.195 22.9505 108.19 22.9531C107.948 23.3855 107.693 23.8102 107.425 24.2298C107.42 24.2349 107.417 24.2401 107.412 24.2401C107.41 24.2401 107.41 24.2452 107.41 24.2452C107.41 24.2478 107.407 24.2478 107.407 24.253C107.405 24.2555 107.399 24.2658 107.394 24.2684C107.32 24.2555 107.235 24.2478 107.132 24.2452C106.704 24.2169 106.331 24.3971 106.038 24.6957C105.904 24.8321 105.788 24.9943 105.693 25.1693C105.402 25.6944 105.266 26.3559 105.345 26.9402C105.353 27.0071 105.366 27.0612 105.376 27.1229L105.366 27.1332C105.255 27.2671 104.813 27.7716 104.72 27.8745C104.578 28.0264 104.442 28.1731 104.306 28.3018C104.221 28.3893 104.136 28.4666 104.053 28.5361C103.976 28.6056 103.901 28.6699 103.827 28.724C103.639 28.8758 103.459 28.9942 103.286 29.0792C103.276 29.0869 103.258 29.092 103.248 29.0998C103.044 29.1976 102.849 29.2439 102.668 29.2285C102.45 29.2182 102.257 29.1126 102.128 28.9633C101.755 28.5129 101.999 27.6506 102.99 25.9415C103.206 25.5734 103.454 25.1693 103.685 24.7497C104.535 23.2105 105.201 21.4267 103.603 20.6314C103.515 20.5876 103.417 20.6185 103.384 20.7009C103.384 20.7034 103.379 20.7086 103.379 20.7086C102.612 22.845 101.472 25.4215 100.638 26.5155C99.451 28.0702 98.2953 29.2902 97.469 29.2259C97.2502 29.2156 97.0546 29.1101 96.9285 28.9556C96.5553 28.5077 96.8024 27.6455 97.7908 25.9389C98.007 25.5708 98.2541 25.1667 98.4832 24.7472C99.33 23.2079 99.9967 21.4242 98.3982 20.6288C98.3107 20.585 98.2181 20.6159 98.1794 20.6983V20.706C97.4793 22.6262 96.1666 24.8321 94.8642 26.5155C93.5875 28.168 92.3133 29.3211 91.6235 29.2233C91.4305 29.195 91.258 29.0946 91.1422 28.9582C90.769 28.5077 91.0161 27.6506 92.007 25.9363C92.2181 25.5708 92.4652 25.1693 92.6969 24.7446C93.5746 23.159 94.2515 21.3083 92.4498 20.5516C90.4626 19.7202 88.5759 22.4563 86.3726 25.3778C86.6866 24.4614 87.2374 23.1796 88.074 21.5039C88.4421 20.7626 88.8668 19.9493 89.2812 19.1385C90.9543 15.8978 92.5373 12.737 90.6145 12.042C87.3404 19.0793 84.8642 24.0007 84.7227 24.204C83.029 26.6416 81.0908 29.3469 79.8681 29.2568C79.6494 29.2413 79.4537 29.1358 79.3276 28.9839C78.957 28.5335 79.1989 27.6763 80.1925 25.9698C80.4035 25.6017 80.6481 25.1976 80.8823 24.7703C81.7549 23.1848 82.437 21.3341 80.63 20.5825C78.6867 19.7717 76.8386 22.3688 74.6893 25.2208C74.7845 25.0638 74.8823 24.899 74.9673 24.7317C75.8167 23.2002 76.4808 21.4139 74.8823 20.6211C74.7974 20.5747 74.7022 20.6056 74.6661 20.688C74.6661 20.688 74.6661 20.6906 74.6636 20.6957C73.7112 23.2543 71.4049 26.6468 69.7086 28.2967C69.0935 28.8964 68.5323 29.2568 68.0716 29.2207C67.8554 29.2104 67.6572 29.1049 67.5311 28.9505C67.1578 28.5026 67.4049 27.6403 68.3959 25.9338C68.607 25.5657 68.8541 25.1616 69.0857 24.742C69.9352 23.2028 70.5992 21.4164 68.9957 20.6236C68.9107 20.5799 68.8129 20.6108 68.7794 20.6906V20.6957C67.5311 23.7176 63.4127 29.5502 62.118 29.2207C61.9584 29.177 61.8194 29.092 61.7216 28.9711C61.3458 28.5232 61.5929 27.6635 62.5864 25.9544C62.7975 25.5889 63.042 25.1822 63.2763 24.76C64.1514 23.1745 64.831 21.3263 63.0266 20.5722C61.0446 19.7459 59.1553 22.4718 56.9494 25.3958C57.2634 24.4795 57.8143 23.1976 58.6508 21.5245C59.0189 20.7807 59.441 19.9647 59.8606 19.159C61.5285 15.9184 63.1115 12.7524 61.1939 12.06C57.3278 20.4924 54.8465 25.28 53.7603 26.4228C52.5531 27.6918 50.759 29.1641 49.3768 29.3031C49.3304 29.3083 49.2867 29.3083 49.2404 29.3083C48.8053 29.3237 48.4218 29.1976 48.2803 28.7986C47.7191 27.1718 51.333 21.0149 53.2094 21.0149H53.2249C53.3973 21.0149 53.5029 21.4216 53.4179 21.4936C52.2545 22.4229 52.7281 23.2337 53.2146 23.4885C53.3124 23.5348 53.4076 23.5657 53.4926 23.5657C53.7783 23.5631 53.8967 23.2079 53.9816 22.845C54.0202 22.6957 54.0485 22.5464 54.0717 22.3997C54.1901 21.6996 54.1669 21.0844 53.351 20.6906C53.109 20.5722 52.795 20.4744 52.3909 20.3997C50.8439 20.1217 49.3459 21.2852 48.2777 22.966C48.1593 23.1461 48.0512 23.3366 47.9456 23.5271C45.2352 28.4949 43.3845 29.5528 42.6252 29.0972C42.548 29.0534 42.4811 28.9994 42.4296 28.9376C42.0564 28.4923 42.3035 27.63 43.2945 25.9209C43.5055 25.5554 43.7526 25.1487 43.9843 24.7266C44.8311 23.1899 45.4978 21.4087 43.8993 20.6133C43.817 20.5696 43.7192 20.6005 43.6831 20.6828V20.6906C42.9109 22.8218 41.7707 25.4087 40.9367 26.4975C39.7527 28.0496 38.5944 29.2671 37.7681 29.2079C37.5493 29.1924 37.3537 29.0895 37.2276 28.9376C36.8518 28.4923 37.0989 27.63 38.0899 25.9183C38.3009 25.5554 38.548 25.1513 38.7823 24.7266C39.6291 23.1899 40.2932 21.4036 38.6973 20.6133C38.615 20.567 38.5146 20.6005 38.4811 20.6803C38.4785 20.6828 38.4785 20.688 38.4785 20.6931C37.7655 22.5979 36.4811 24.8038 35.1864 26.4923C33.9561 28.0985 32.718 29.2336 31.9458 29.2079C31.0655 29.1796 31.6781 26.5078 34.6382 21.1693H36.8672C36.8286 20.7189 36.53 20.5464 36.1903 20.5464H34.9599C36.4219 17.679 37.5957 15.0227 36.0616 14.2736C35.9792 14.2299 35.884 14.2659 35.8454 14.3483C35.4464 15.3444 34.9728 16.3843 34.4657 17.4345C33.9638 18.4847 33.431 19.5374 32.9136 20.5464H31.189C31.2251 20.9943 31.5648 21.1693 31.866 21.1693H32.5918C31.0603 24.0522 29.5829 26.3533 28.3499 27.7484C27.2689 28.9659 26.3757 29.4884 25.7965 29.1049C25.7373 29.0663 25.6833 29.02 25.6369 28.9633C25.2689 28.5155 25.5082 27.6532 26.4992 25.9466C26.7103 25.5786 26.9625 25.1744 27.1916 24.7549C28.041 23.2156 28.7077 21.4293 27.0964 20.6339C27.0089 20.5953 26.9162 20.6211 26.8802 20.7009C24.7927 25.5039 22.8416 27.7304 25.0552 29.4164C25.3538 29.6429 25.7245 29.8642 26.1955 29.8591C26.7824 29.8514 27.5185 29.491 28.839 28.0419C29.1453 27.7047 29.4825 27.3083 29.8531 26.8475C29.8248 27.0406 29.8068 27.2311 29.8171 27.4164C29.8403 27.9183 30.0256 28.4048 30.2444 28.7806C31.2894 30.6055 33.0577 29.8539 34.5893 28.1577C34.9187 27.7896 35.243 27.37 35.503 27.0303C35.5622 26.9531 35.6137 26.881 35.6626 26.8115C35.624 27.0174 35.6085 27.2156 35.6163 27.4138C35.6446 27.9157 35.8273 28.3971 36.0436 28.778C37.0937 30.6004 38.8569 29.8488 40.3884 28.1551C40.5454 27.9827 40.6973 27.8025 40.8389 27.6223C40.8981 28.0496 41.0628 28.4537 41.2507 28.778C42.3009 30.6004 44.0641 29.8488 45.5956 28.1551C45.9251 27.7819 46.2494 27.3675 46.5094 27.0226C46.7127 26.7549 46.8697 26.5284 47.0036 26.3327C46.8697 27.4421 47.0782 28.4949 47.8015 29.2593C48.0872 29.5579 48.4527 29.8153 48.9624 29.8514C49.1219 29.8617 49.3021 29.8565 49.4874 29.8205C50.8208 29.612 52.7049 28.4331 53.8941 27.1024C53.2403 28.6467 53.4565 29.0998 54.674 29.7536C54.7847 29.7536 59.2145 22.8733 61.6958 21.4139C61.7396 21.3933 61.7731 21.3701 61.8168 21.3521C61.8529 21.3315 61.8915 21.3135 61.9301 21.298C62.0073 21.262 62.0871 21.2388 62.1617 21.2234C62.2312 21.2028 62.2982 21.2002 62.3625 21.2079C62.3857 21.2105 62.4166 21.2208 62.4397 21.2311C62.4629 21.2388 62.4861 21.2517 62.5015 21.2697C62.5221 21.2852 62.5375 21.3083 62.553 21.3289C62.5607 21.3521 62.5736 21.3804 62.5813 21.4113C62.5967 21.4705 62.5967 21.54 62.589 21.6146C62.5813 21.6507 62.5736 21.6918 62.5658 21.733C62.5556 21.7716 62.5453 21.8102 62.535 21.8514C62.5195 21.89 62.5041 21.9338 62.4886 21.9724C62.468 22.011 62.4526 22.0496 62.4346 22.0908C61.3767 24.3945 60.0485 25.993 60.118 27.4576C60.1412 27.9595 60.3265 28.446 60.5401 28.8218C61.5903 30.6441 63.3561 29.8951 64.8902 28.1989C65.2222 27.8256 65.5491 27.4112 65.8039 27.0715C65.8657 26.9891 65.9172 26.9196 65.9712 26.845C65.9326 27.0483 65.9172 27.2439 65.9275 27.4447C65.9506 27.9415 66.136 28.428 66.3547 28.8038C67.4024 30.6287 69.1681 29.8771 70.6996 28.1809C70.957 27.8926 71.2118 27.5734 71.4332 27.2851C70.8644 28.7034 71.1089 29.1461 72.2801 29.7767C72.3856 29.7767 76.8206 22.8939 79.3019 21.4344C79.3405 21.4139 79.3791 21.3907 79.4203 21.3727C79.4589 21.3521 79.4975 21.3341 79.5387 21.3135C79.621 21.2774 79.6957 21.2543 79.7703 21.2388C79.8398 21.2234 79.9068 21.2157 79.966 21.226C79.9943 21.226 80.0252 21.2337 80.0483 21.2465C80.0715 21.2543 80.0947 21.2697 80.1101 21.2903C80.1307 21.3057 80.141 21.3263 80.1564 21.3495C80.1719 21.3727 80.1796 21.401 80.1873 21.4267C80.1976 21.4859 80.2028 21.5554 80.195 21.6352C80.1925 21.6713 80.1796 21.7099 80.1719 21.7485C80.1641 21.7871 80.1513 21.8257 80.1358 21.8694C80.123 21.9081 80.1075 21.9467 80.0921 21.9879C80.0766 22.0265 80.056 22.0651 80.038 22.1088C78.9801 24.41 77.6519 26.0058 77.7214 27.4756C77.7498 27.9724 77.9325 28.4588 78.1487 28.8346C79.1989 30.657 80.9621 29.908 82.4936 28.2117C82.751 27.926 83.0058 27.6094 83.2272 27.3211C82.6892 28.6802 82.944 29.1229 84.0998 29.7433C84.2053 29.7433 88.6377 22.8604 91.1216 21.401C91.1602 21.3778 91.1988 21.3572 91.24 21.3392C91.2786 21.316 91.3172 21.3006 91.3584 21.28C91.4356 21.2491 91.5103 21.226 91.5849 21.2054C91.6544 21.1899 91.7265 21.1848 91.7805 21.1925C91.8114 21.1976 91.8397 21.2002 91.8655 21.2131C91.8886 21.226 91.9092 21.2362 91.9272 21.2517C91.9478 21.2723 91.9581 21.2903 91.9736 21.3135C91.9864 21.3366 91.9942 21.365 92.0019 21.3958C92.0173 21.455 92.0173 21.522 92.0096 21.5992C92.007 21.6352 91.9967 21.6738 91.989 21.7176C91.9761 21.7562 91.9684 21.7948 91.9504 21.836C91.9401 21.8746 91.9272 21.9132 91.9067 21.9544C91.8912 21.9981 91.8706 22.0368 91.8552 22.0754C90.7973 24.3791 89.4691 25.9749 89.5386 27.4421C89.5618 27.9389 89.7471 28.4254 89.9659 28.8012C91.0109 30.6261 92.7792 29.8745 94.3108 28.1834C94.6402 27.8102 94.9645 27.3958 95.2194 27.0509C95.2708 26.9839 95.3172 26.9222 95.3635 26.863C95.3249 27.0586 95.312 27.2516 95.3197 27.4395C95.3429 27.9415 95.5308 28.4254 95.747 28.8012C96.7972 30.6261 98.563 29.8745 100.092 28.1783C100.244 28.011 100.401 27.8231 100.542 27.6455C100.602 28.0727 100.766 28.4769 100.949 28.8012C101.58 29.8951 102.465 30.0624 103.405 29.6557C103.93 29.4318 104.47 29.0251 104.99 28.5L105.013 28.4769C105.034 28.4563 105.057 28.4331 105.08 28.4022C105.096 28.3868 105.109 28.3713 105.124 28.3585C105.134 28.343 105.152 28.3276 105.168 28.3121C105.183 28.2915 105.199 28.2761 105.219 28.2606C105.286 28.1834 105.361 28.1011 105.428 28.0264C105.456 27.9981 105.479 27.9672 105.502 27.9492C105.505 27.9415 105.51 27.9363 105.513 27.9337C105.544 27.8951 105.574 27.8617 105.595 27.8437C105.6 27.8359 105.605 27.8282 105.611 27.8231C105.616 27.8153 105.618 27.8102 105.623 27.8076C105.685 27.944 105.76 28.0702 105.84 28.1911C106.506 29.2285 107.446 29.7124 108.383 29.7896L108.524 29.805C108.928 29.8205 109.366 29.7613 109.786 29.6171C109.927 29.5708 110.069 29.5116 110.205 29.4447C110.249 29.4215 110.295 29.3983 110.339 29.3726C110.39 29.3443 110.437 29.3185 110.488 29.2877C111.217 28.8372 111.796 28.0882 111.914 27.0354C111.919 26.9737 111.927 26.9093 111.93 26.8424C111.937 26.7446 111.937 26.6468 111.93 26.5438C111.922 26.0882 111.827 25.5837 111.636 25.0303L111.623 25.0226ZM109.508 28.7497C109.348 28.9736 109.163 29.1409 108.959 29.2465C108.921 29.2696 108.882 29.2851 108.841 29.3005C108.81 29.3134 108.779 29.3288 108.743 29.3366C108.617 29.3752 108.488 29.3906 108.354 29.3803C108.259 29.3778 108.172 29.3572 108.071 29.3211C106.918 28.9144 106.465 27.8411 106.872 26.4975C106.879 26.4589 106.892 26.4228 106.908 26.3842C106.936 26.2941 106.967 26.204 107.006 26.1088C107.006 26.1062 107.008 26.1011 107.008 26.1011C107.07 25.9441 107.145 25.7922 107.227 25.63C107.333 25.4267 107.461 25.2156 107.608 24.9994C107.636 24.9557 107.662 24.917 107.683 24.8784C107.78 24.7137 107.809 24.5799 107.765 24.4795L107.778 24.464L108.977 22.5258C108.977 22.5258 108.982 22.5284 108.982 22.5335L108.993 22.5129C109.425 23.4061 109.757 24.3199 109.981 25.2645C110.321 26.6905 110.056 28.011 109.508 28.7523V28.7497Z"
                        fill="#353A42"
                      />
                      <path
                        d="M70.9211 18.4074C71.6778 18.6545 72.0691 17.8359 72.0665 17.3005C72.0665 17.1744 72.0433 17.0637 71.9944 16.9531C71.7911 16.4872 71.1296 15.9801 70.4835 16.8321C70.4526 16.8733 70.4217 16.917 70.396 16.9634C70.1875 17.3366 70.2982 17.8797 70.5401 18.1603C70.6508 18.289 70.7898 18.3636 70.9211 18.4074Z"
                        fill="#353A42"
                      />
                      <path
                        d="M29.0218 18.4049C29.7785 18.6546 30.1723 17.8361 30.1672 17.2981C30.1672 17.172 30.144 17.0613 30.0951 16.9506C29.8918 16.4847 29.2303 15.9777 28.5842 16.8296C28.5533 16.8708 28.5224 16.9146 28.4967 16.9609C28.2908 17.3341 28.3989 17.8773 28.6408 18.1578C28.7515 18.2865 28.8905 18.3612 29.0218 18.4049Z"
                        fill="#353A42"
                      />
                      <path
                        d="M26.471 12.513C25.166 9.57091 21.9897 7.81546 17.3308 8.38688L17.336 7.96475L17.3977 3.16427C17.4363 3.172 17.4827 3.172 17.5264 3.16427C18.1802 3.12052 18.2755 2.3303 18.1287 1.90302C18.0927 1.79749 18.0515 1.71512 17.9846 1.64048C17.7015 1.33417 17.0528 1.1437 16.7774 2.04459C16.7645 2.08835 16.7491 2.13468 16.7414 2.18101C16.695 2.43841 16.7929 2.72155 16.9499 2.90688L16.8083 3.1025C16.7929 3.12566 16.7388 3.19774 16.6436 3.31099C16.6204 3.34703 16.5844 3.38564 16.5483 3.42425C16.5406 3.42425 16.5355 3.43197 16.5355 3.43197C16.4891 3.4783 16.4505 3.52978 16.399 3.58126C16.363 3.61729 16.3244 3.65848 16.2935 3.70224C16.2086 3.7846 16.1056 3.87469 16.0026 3.97765C15.8353 4.12952 15.65 4.28396 15.4467 4.44097C15.3952 4.47958 15.3334 4.52334 15.2794 4.56709C15.2047 4.61857 15.1198 4.67263 15.04 4.71896C14.9396 4.7936 14.8289 4.86053 14.7079 4.91973C14.4583 5.06387 14.1803 5.18742 13.8894 5.29296H13.8843C13.7324 5.34701 13.5548 5.39592 13.3901 5.42938C13.3669 5.4371 13.3592 5.4371 13.3437 5.4371C13.2819 5.45254 13.2176 5.46026 13.1507 5.47313C13.0245 5.48858 12.8933 5.50917 12.7543 5.51689C12.6925 5.51174 12.6333 5.52461 12.5715 5.52204C12.502 5.52461 12.4351 5.52461 12.363 5.51689C12.3013 5.51174 12.2292 5.51174 12.1623 5.50402C11.6964 5.45769 11.2022 5.31612 10.7002 5.0613C10.6694 5.04585 10.6462 5.03298 10.623 5.01754C10.4866 4.95062 10.3476 4.8734 10.2086 4.77816C10.2215 4.69579 10.2318 4.53878 10.2446 4.33543C10.2446 4.30455 10.2446 4.28138 10.2472 4.25307C10.2627 3.9236 10.2678 3.49374 10.2318 3.04587C10.2189 2.95578 10.2112 2.86569 10.2009 2.76788C10.1957 2.72155 10.188 2.67007 10.188 2.62631C10.1571 2.38693 10.1057 2.15527 10.0387 1.94421C10.0259 1.89788 10.0104 1.84897 9.99497 1.81551C9.9821 1.7769 9.96666 1.73057 9.94864 1.69453C9.9332 1.6482 9.92033 1.60959 9.90231 1.56841C9.8637 1.48604 9.82509 1.41654 9.78905 1.3419C9.76074 1.31101 9.74272 1.27497 9.72213 1.23894C9.69124 1.20033 9.66293 1.15657 9.63204 1.12568L9.596 1.0742C9.596 1.0742 9.56769 1.04589 9.55225 1.03559C9.52393 0.999557 9.49047 0.973817 9.44929 0.937781C9.19189 0.726715 8.65393 0.307156 7.98727 0.60059H7.98212C7.30774 0.876006 7.23824 1.55554 7.20735 1.89015C7.20478 1.94163 7.19963 1.98539 7.20735 2.02657V2.08578L7.21507 2.14755C7.22022 2.18616 7.22794 2.24022 7.23566 2.29169C7.24339 2.32773 7.26398 2.36891 7.26655 2.40495C7.28972 2.48217 7.31803 2.56454 7.34892 2.6469C7.36436 2.68551 7.37723 2.72412 7.4004 2.76531C7.41584 2.80906 7.43643 2.84767 7.4596 2.88371C7.47504 2.92747 7.49821 2.96608 7.5188 3.00984C7.62948 3.20288 7.76076 3.40623 7.91005 3.58641C7.93836 3.62502 7.96925 3.66105 7.99756 3.69966C8.05934 3.76916 8.12369 3.83608 8.18032 3.91588C8.47375 4.25307 8.78777 4.5465 9.02973 4.76529C9.05032 4.78073 9.07349 4.79618 9.0915 4.81934C9.25109 4.95319 9.36692 5.04585 9.43642 5.10506C9.4081 5.26464 9.36177 5.41393 9.31801 5.56837C9.31287 5.59669 9.30514 5.61985 9.29485 5.65074C9.12754 6.1887 8.88301 6.63915 8.58958 7.01495C8.55354 7.06643 8.50206 7.11276 8.46345 7.15909C8.41712 7.21829 8.36564 7.26462 8.32188 7.31096C8.27813 7.35471 8.22665 7.39847 8.18804 7.43966C8.09023 7.53489 7.98469 7.61983 7.88173 7.69448C7.83025 7.73309 7.7762 7.77685 7.72215 7.80773C7.71185 7.8206 7.70155 7.82318 7.68611 7.83605C7.54969 7.92871 7.38753 8.02395 7.24081 8.09345V8.09859C6.96282 8.23502 6.68483 8.34827 6.40169 8.42806C6.27557 8.47182 6.15202 8.50528 6.02847 8.53102C5.9358 8.55161 5.83542 8.57478 5.74533 8.5928C5.67841 8.60567 5.60891 8.61596 5.54199 8.62883C5.28716 8.66487 5.04778 8.69061 4.82384 8.70348C4.6797 8.70605 4.54585 8.71635 4.41973 8.71892C4.36568 8.71378 4.3142 8.7112 4.26272 8.7112C4.18807 8.7112 4.1263 8.70605 4.05937 8.7112C4.05937 8.7112 4.0568 8.70348 4.04393 8.7112C3.99245 8.70605 3.94097 8.70348 3.89979 8.69833C3.75564 8.68289 3.66041 8.67517 3.64239 8.67002L3.40043 8.63913C3.37212 8.39718 3.24085 8.12948 3.01948 7.98019C2.98345 7.95703 2.94226 7.92871 2.89851 7.91069C2.06454 7.48341 1.75051 8.07543 1.77368 8.49499C1.7814 8.60052 1.80971 8.68804 1.85604 8.7807C2.06454 9.18739 2.69516 9.66615 3.18422 9.23115C3.21511 9.20283 3.25114 9.17194 3.27946 9.13591L6.79294 12.4589L7.24081 12.8811C6.11341 13.8257 5.39527 14.6236 5.11213 14.9274C0.955152 19.3958 0.872784 24.1911 0.867636 24.3764C0.756955 27.7921 3.61407 29.5836 3.62952 29.5939C6.68226 31.6222 11.6192 30.4407 14.4737 26.9813C17.4595 23.3649 19.8688 17.0895 22.9318 11.6636C19.8636 11.8283 17.1017 18.6648 14.4505 22.9582C8.63334 32.3764 3.70416 29.8256 2.17522 26.8475C0.0902944 22.7883 4.53041 16.029 8.33733 13.02C13.2279 9.1565 22.9189 6.48471 25.74 12.7421C27.1737 15.9183 23.9331 22.6596 19.3256 21.2877C19.0991 21.2207 18.7619 21.6686 19.6011 21.9389C25.5804 23.3777 28.2239 16.4589 26.4684 12.513H26.471ZM8.0233 2.57741C8.00271 2.54909 8.00014 2.52593 7.98469 2.51048C7.96925 2.46415 7.94608 2.41525 7.93321 2.36891C7.91777 2.33288 7.89718 2.29169 7.8946 2.24794C7.87916 2.20933 7.87401 2.163 7.86629 2.13468C7.86114 2.08063 7.85342 2.02915 7.85857 1.98539C7.86114 1.91075 7.78907 1.42169 8.25753 1.22864V1.22349C8.72857 1.02272 9.02201 1.41654 9.08378 1.46545C9.11467 1.49633 9.14556 1.53237 9.17902 1.57098C9.20218 1.59929 9.23307 1.63276 9.24852 1.67651C9.27683 1.70483 9.29227 1.74601 9.30772 1.78205C9.33088 1.82838 9.35148 1.86699 9.36692 1.92362C9.37464 1.94421 9.38751 1.96223 9.39523 1.99311C9.6063 2.62374 9.65006 3.607 9.596 4.38177C9.00399 3.87984 8.32703 3.16427 8.02588 2.57226L8.0233 2.57741ZM16.7131 8.05484V8.4744C16.1365 8.56963 15.5419 8.69061 14.9216 8.85534C11.7993 9.68674 9.39266 11.1822 7.72472 12.5001L7.30259 12.0883L4.50982 9.38558C4.93967 9.38558 5.49823 9.34183 6.08509 9.21055C6.09796 9.21055 6.11341 9.20541 6.12113 9.19768C6.18033 9.19254 6.22666 9.18224 6.29359 9.16165C6.44288 9.13076 6.59989 9.07928 6.76463 9.0278C6.89075 8.98404 7.01173 8.94543 7.14043 8.89395C7.25883 8.84247 7.38753 8.78842 7.50593 8.7215C7.56771 8.69318 7.63206 8.66744 7.69126 8.63656C7.78907 8.5825 7.88431 8.52588 7.97697 8.47697C8.02073 8.43836 8.07993 8.41005 8.12111 8.37401C8.15972 8.3457 8.19576 8.32253 8.22665 8.30451C8.28585 8.26076 8.34505 8.217 8.40425 8.17581C8.45573 8.12948 8.51493 8.08315 8.56899 8.03167C8.68996 7.92099 8.81866 7.80516 8.93707 7.67131C8.96538 7.63528 8.99884 7.60182 9.04002 7.56063C9.08378 7.49886 9.13269 7.43966 9.18159 7.37531C9.2202 7.32897 9.25881 7.27235 9.29485 7.21829C9.35405 7.14365 9.40038 7.05871 9.44671 6.98406C9.48532 6.91714 9.52393 6.85021 9.56769 6.77557V6.76785C9.59858 6.69835 9.64491 6.61856 9.67837 6.54391C9.71698 6.45897 9.75559 6.3869 9.78133 6.30196C9.7942 6.29423 9.7942 6.28651 9.79677 6.27107C9.90231 6.02139 9.98467 5.75112 10.0516 5.44739C10.3167 5.60698 10.5638 5.73825 10.8238 5.83864C10.8315 5.84636 10.8392 5.85151 10.847 5.85151C10.9319 5.89012 11.0117 5.91329 11.0941 5.94417C11.1713 5.97249 11.2536 5.99565 11.3334 6.02139C11.3334 6.02397 11.3412 6.02397 11.3412 6.02397C11.4184 6.04456 11.4982 6.06772 11.5754 6.08317C11.6578 6.09861 11.753 6.12693 11.8457 6.13465C11.9074 6.14752 11.9744 6.15781 12.0387 6.16296C12.1159 6.17068 12.1957 6.17841 12.2729 6.18613C12.3244 6.19385 12.3708 6.1887 12.4222 6.19385C12.6024 6.20157 12.7697 6.19385 12.9396 6.18613C13.0091 6.17841 13.0837 6.17068 13.1507 6.16554C13.2279 6.14494 13.2948 6.14237 13.3669 6.12693C13.4055 6.1192 13.4493 6.11148 13.493 6.09861C13.5548 6.09346 13.6063 6.07545 13.6706 6.06258C13.7736 6.03169 13.8791 6.00852 13.9795 5.97249C14.0464 5.9519 14.1082 5.92616 14.1751 5.90299C14.3038 5.86438 14.4325 5.81033 14.5509 5.76142C14.677 5.70222 14.7929 5.64044 14.9113 5.58124C15.0606 5.50402 15.2047 5.42423 15.3386 5.33929C15.39 5.30325 15.4286 5.27751 15.4801 5.24662C15.493 5.2389 15.5007 5.23375 15.511 5.22346C16.0129 4.89142 16.4325 4.52591 16.7337 4.22475L16.7208 8.05741L16.7131 8.05484Z"
                        fill="#353A42"
                      />
                      <path
                        d="M15.928 39.1049C15.8328 39.1152 15.7582 39.1306 15.7093 39.1512C15.6603 39.1718 15.6269 39.2079 15.6089 39.2593C15.5909 39.3108 15.5806 39.388 15.5806 39.4936V40.2864C15.3386 40.2864 15.0786 40.3172 14.7981 40.3816C14.5947 40.4253 14.4429 40.4588 14.3425 40.4743C14.2421 40.4923 14.1211 40.5 13.9847 40.5C13.6192 40.5 13.3052 40.4151 13.0452 40.2426C12.7852 40.0727 12.5896 39.8513 12.4583 39.5837C12.327 39.3134 12.2627 39.038 12.2627 38.7548C12.2627 38.4279 12.3399 38.1319 12.4944 37.8642C12.6488 37.5965 12.8573 37.3855 13.1224 37.231C13.3875 37.0766 13.6758 37.002 13.9898 37.002C14.3708 37.002 14.7208 37.1332 15.0349 37.3983C15.0735 37.3263 15.1044 37.2285 15.1275 37.1049H15.3695L15.3952 38.2117H15.1661C15.1301 38.0444 15.0658 37.89 14.9705 37.751C14.8753 37.612 14.7543 37.5013 14.6102 37.4189C14.466 37.3366 14.309 37.298 14.1366 37.298C14.0104 37.298 13.8869 37.3211 13.7659 37.3649C13.6449 37.4086 13.5317 37.4859 13.4261 37.594C13.3206 37.7021 13.2357 37.8514 13.1713 38.0393C13.107 38.2272 13.0761 38.4588 13.0761 38.7342C13.0761 38.971 13.1018 39.1976 13.1507 39.4138C13.1996 39.6326 13.3026 39.8179 13.4544 39.9749C13.6063 40.1319 13.8225 40.2091 14.1031 40.2091C14.3219 40.2091 14.4892 40.1757 14.6024 40.1062C14.7157 40.0367 14.7878 39.9517 14.8238 39.8539C14.8573 39.7535 14.8753 39.6429 14.8753 39.5193C14.8753 39.4035 14.8676 39.3185 14.8495 39.2645C14.8315 39.2104 14.7903 39.1718 14.726 39.1461C14.6616 39.1203 14.5638 39.1075 14.43 39.1075V38.8784H15.9358V39.1075L15.928 39.1049Z"
                        fill="#353A42"
                      />
                      <path
                        d="M21.1559 40.4381H20.2524C20.2189 40.402 20.1777 40.348 20.1288 40.2785C20.0799 40.209 20.0259 40.1266 19.9692 40.0339C19.91 39.9387 19.8637 39.8615 19.8251 39.7997L19.596 39.4213C19.4931 39.2515 19.4158 39.1356 19.3618 39.0739C19.3103 39.0121 19.2485 38.9709 19.1816 38.9555C19.1147 38.9374 18.9989 38.9297 18.8393 38.9297H18.7131V39.8126C18.7131 39.9052 18.7234 39.9799 18.744 40.0365C18.7646 40.0931 18.811 40.1369 18.8856 40.1652C18.9602 40.1961 19.0658 40.209 19.2074 40.209V40.4381H17.5137V40.209C17.7196 40.209 17.8509 40.1781 17.9101 40.1189C17.9693 40.0597 17.9976 39.9567 17.9976 39.81V37.6762C17.9976 37.532 17.9693 37.4291 17.9126 37.3673C17.856 37.3081 17.7222 37.2772 17.5137 37.2772V37.043L18.2962 37.0172C18.3554 37.0147 18.4249 37.0121 18.5021 37.0095C18.5793 37.0095 18.6514 37.0095 18.7183 37.0095C18.7698 37.0095 18.8547 37.0095 18.9757 37.0147C19.143 37.0198 19.3 37.0301 19.4467 37.0456C19.5934 37.061 19.7093 37.079 19.7942 37.1022C19.9178 37.1331 20.0362 37.1846 20.1494 37.2592C20.2627 37.3313 20.3528 37.4291 20.4223 37.5475C20.4918 37.6659 20.5278 37.8049 20.5278 37.9645C20.5278 38.0777 20.5021 38.1858 20.4532 38.2939C20.4043 38.3995 20.3245 38.4947 20.2164 38.5771C20.1082 38.6594 19.9641 38.7264 19.7865 38.7753C19.9075 38.8473 20.0104 38.9349 20.0954 39.0404C20.1803 39.1459 20.3142 39.339 20.4943 39.6221C20.5999 39.7817 20.6848 39.9052 20.7543 39.9876C20.8212 40.07 20.8856 40.1266 20.9422 40.1549C20.9988 40.1832 21.0709 40.2038 21.161 40.2115V40.4406L21.1559 40.4381ZM19.7556 37.9593C19.7556 37.6916 19.6732 37.5114 19.5111 37.4239C19.3463 37.3364 19.1327 37.2927 18.8702 37.2927C18.8341 37.2927 18.8058 37.2927 18.7852 37.2927C18.7646 37.2927 18.7415 37.2927 18.7131 37.2927V38.6517H18.8702C19.1198 38.6517 19.3309 38.6105 19.5008 38.5307C19.6707 38.4484 19.7556 38.2579 19.7556 37.9593Z"
                        fill="#353A42"
                      />
                      <path
                        d="M24.3964 40.4382H22.6821V40.2091C22.8263 40.2091 22.9318 40.1963 23.0064 40.168C23.0785 40.1396 23.1274 40.0985 23.1506 40.0444C23.1738 39.9904 23.1841 39.9106 23.1841 39.8102V37.6866C23.1841 37.5399 23.1532 37.437 23.094 37.3778C23.0322 37.3186 22.8958 37.2877 22.6847 37.2877V37.0586H24.399V37.2877C24.2548 37.2877 24.1467 37.3005 24.0747 37.3289C24.0026 37.3572 23.9537 37.3984 23.9305 37.4524C23.9073 37.5065 23.897 37.5837 23.897 37.6841V39.8076C23.897 39.9054 23.9073 39.9801 23.9305 40.0341C23.9511 40.0882 23.9974 40.1319 24.0695 40.1602C24.139 40.1911 24.2497 40.204 24.399 40.204V40.4331L24.3964 40.4382Z"
                        fill="#353A42"
                      />
                      <path
                        d="M28.839 37.9336H28.6048C28.5636 37.7457 28.507 37.6093 28.4401 37.5218C28.3706 37.4343 28.2933 37.3828 28.2084 37.3622C28.1235 37.3416 28.0025 37.3313 27.8506 37.3313H27.2483V38.5257H27.5649C27.7142 38.5257 27.8146 38.4999 27.8686 38.4484C27.9227 38.397 27.9536 38.2837 27.9639 38.1061H28.193V39.2309H27.9587C27.951 39.1022 27.9356 39.007 27.9124 38.9529C27.8892 38.8963 27.8506 38.8577 27.7991 38.8345C27.7451 38.8139 27.6653 38.8036 27.5572 38.8036H27.2509V39.8075C27.2509 39.9439 27.2766 40.0443 27.3307 40.1086C27.3847 40.173 27.5134 40.2065 27.7168 40.2065H27.7863V40.4355H26.0514V40.2065C26.2573 40.2065 26.3912 40.1756 26.4478 40.1164C26.507 40.0546 26.5353 39.9542 26.5353 39.8075V37.684C26.5353 37.5887 26.525 37.5115 26.5044 37.4574C26.4838 37.4034 26.4401 37.3596 26.368 37.3313C26.2985 37.3004 26.1904 37.285 26.0488 37.285V37.0559H28.8159L28.8416 37.9311L28.839 37.9336Z"
                        fill="#353A42"
                      />
                      <path
                        d="M33.5469 39.3263L33.5186 40.4382H30.5071V40.2091C30.7156 40.2091 30.8494 40.1783 30.9086 40.1191C30.9678 40.0599 30.9987 39.9569 30.9987 39.8102V37.6866C30.9987 37.5914 30.9884 37.5142 30.9704 37.4601C30.9524 37.4061 30.906 37.3623 30.8365 37.334C30.7671 37.3031 30.6564 37.2877 30.5097 37.2877V37.0586H33.3127L33.3565 37.9337H33.1274C33.0759 37.7407 33.0167 37.6017 32.9498 37.5168C32.8829 37.4318 32.8056 37.3803 32.7233 37.3623C32.6383 37.3443 32.5148 37.334 32.3449 37.334H31.7117V38.5283H32.0566C32.175 38.5283 32.2625 38.518 32.3217 38.4975C32.3809 38.4769 32.4195 38.4382 32.4427 38.379C32.4659 38.3224 32.4813 38.2298 32.489 38.1062H32.7284V39.231H32.4993C32.4916 39.1049 32.4762 39.0148 32.4504 38.9556C32.4247 38.8964 32.3809 38.8578 32.3243 38.8372C32.2677 38.8166 32.1802 38.8063 32.0618 38.8063H31.7143V39.6017C31.7143 39.7355 31.7168 39.8308 31.7246 39.8925C31.7297 39.9543 31.7477 40.0058 31.7786 40.047C31.8069 40.0882 31.8558 40.1165 31.9202 40.1345C31.9845 40.1525 32.0798 40.1628 32.2008 40.1628H32.471C32.5869 40.1628 32.695 40.1499 32.7979 40.1191C32.9009 40.0907 33.0038 40.0161 33.1042 39.8951C33.2046 39.7741 33.2741 39.5862 33.3127 39.3288H33.5469V39.3263Z"
                        fill="#353A42"
                      />
                      <path
                        d="M41.0192 37.9567C41.0192 38.2347 40.9342 38.4458 40.7618 38.5899C40.5893 38.734 40.3885 38.8267 40.1569 38.8679C39.9252 38.9091 39.6807 38.9297 39.4259 38.9297H39.2019V39.8125C39.2019 39.9129 39.2122 39.9901 39.2328 40.0442C39.2534 40.0983 39.2998 40.142 39.3718 40.1678C39.4439 40.1961 39.552 40.2115 39.6987 40.2115V40.4406H37.9999V40.2115C38.144 40.2115 38.2521 40.1961 38.3191 40.1678C38.3886 40.1369 38.4323 40.0957 38.4529 40.0416C38.4735 39.9876 38.4838 39.9104 38.4838 39.8151V37.6813C38.4838 37.5835 38.4735 37.5088 38.4529 37.4548C38.4323 37.4007 38.3886 37.357 38.3191 37.3287C38.2496 37.2978 38.1415 37.2823 37.9973 37.2823V37.0481L38.9626 37.0223C39.0115 37.0223 39.0681 37.0198 39.1247 37.0198C39.1839 37.0198 39.2303 37.0198 39.2663 37.0198C39.3023 37.0198 39.3538 37.0198 39.4207 37.0198C39.5057 37.0198 39.5674 37.0198 39.6112 37.0198C39.8094 37.0275 39.9999 37.0481 40.1826 37.0764C40.3654 37.1073 40.5507 37.1922 40.736 37.3287C40.9239 37.4676 41.0166 37.6787 41.0166 37.9619L41.0192 37.9567ZM40.2521 37.9619C40.2521 37.6916 40.1749 37.5114 40.0179 37.4213C39.8609 37.3312 39.655 37.2849 39.3976 37.2849C39.3512 37.2849 39.2869 37.2849 39.2045 37.29V38.6491H39.4336C39.6781 38.6491 39.8763 38.6079 40.0256 38.523C40.1775 38.4406 40.2521 38.2527 40.2521 37.9619Z"
                        fill="#353A42"
                      />
                      <path
                        d="M45.637 40.4381H44.0437V40.209C44.1776 40.209 44.2754 40.1987 44.3372 40.1807C44.3989 40.1627 44.4298 40.1164 44.4298 40.0443C44.4298 39.9954 44.4195 39.9439 44.3989 39.8924L44.2393 39.4935H43.1428L43.0605 39.7123C43.0141 39.8358 42.991 39.9233 42.991 39.9774C42.991 40.0778 43.0296 40.1395 43.1068 40.1679C43.184 40.1936 43.2741 40.2065 43.3771 40.2065V40.4356H42.2136V40.2065C42.3063 40.2065 42.3861 40.1885 42.4504 40.155C42.5148 40.119 42.5766 40.0546 42.6358 39.9568C42.695 39.859 42.7593 39.7226 42.8262 39.545L43.8018 36.9941H44.0386L45.0682 39.6247C45.1428 39.8101 45.1969 39.9362 45.2329 40.0006C45.2664 40.0675 45.3153 40.1164 45.377 40.1524C45.4388 40.1885 45.5238 40.2065 45.637 40.2065V40.4356V40.4381ZM44.1518 39.249L43.6859 38.0701L43.2432 39.249H44.1518Z"
                        fill="#353A42"
                      />
                      <path
                        d="M50.8878 40.4381H49.9843C49.9509 40.402 49.9097 40.348 49.8608 40.2785C49.8119 40.209 49.7578 40.1266 49.7012 40.0339C49.642 39.9387 49.5956 39.8615 49.557 39.7997L49.328 39.4213C49.225 39.2515 49.1478 39.1356 49.0937 39.0739C49.0422 39.0121 48.9805 38.9709 48.9135 38.9555C48.8466 38.9374 48.7308 38.9297 48.5712 38.9297H48.4451V39.8126C48.4451 39.9052 48.4554 39.9799 48.476 40.0365C48.4966 40.0931 48.5429 40.1369 48.6175 40.1652C48.6922 40.1961 48.7977 40.209 48.9393 40.209V40.4381H47.2456V40.209C47.4515 40.209 47.5854 40.1781 47.642 40.1189C47.7012 40.0597 47.7295 39.9567 47.7295 39.81V37.6762C47.7295 37.532 47.7012 37.4291 47.6446 37.3673C47.5879 37.3081 47.4541 37.2772 47.2456 37.2772V37.043L48.0281 37.0172C48.0873 37.0147 48.1568 37.0121 48.234 37.0095C48.3112 37.0095 48.3833 37.0095 48.4502 37.0095C48.5017 37.0095 48.5866 37.0095 48.7076 37.0147C48.8749 37.0198 49.0319 37.0301 49.1787 37.0456C49.3254 37.061 49.4412 37.079 49.5262 37.1022C49.6497 37.1331 49.7681 37.1846 49.8814 37.2592C49.9946 37.3313 50.0847 37.4291 50.1542 37.5475C50.2237 37.6659 50.2597 37.8049 50.2597 37.9645C50.2597 38.0777 50.234 38.1858 50.1851 38.2939C50.1362 38.3995 50.0564 38.4947 49.9483 38.5771C49.8402 38.6594 49.696 38.7264 49.5184 38.7753C49.6394 38.8473 49.7424 38.9349 49.8273 39.0404C49.9122 39.1459 50.0435 39.339 50.2263 39.6221C50.3318 39.7817 50.4167 39.9052 50.4862 39.9876C50.5557 40.07 50.6175 40.1266 50.6741 40.1549C50.7308 40.1832 50.8028 40.2038 50.8929 40.2115V40.4406L50.8878 40.4381ZM49.4875 37.9593C49.4875 37.6916 49.4052 37.5114 49.243 37.4239C49.0809 37.3364 48.8646 37.2927 48.6021 37.2927C48.5661 37.2927 48.5377 37.2927 48.5172 37.2927C48.4966 37.2927 48.4734 37.2927 48.4451 37.2927V38.6517H48.6021C48.8518 38.6517 49.0628 38.6105 49.2327 38.5307C49.4026 38.4484 49.4875 38.2579 49.4875 37.9593Z"
                        fill="#353A42"
                      />
                      <path
                        d="M55.7835 40.4381H54.1902V40.209C54.3241 40.209 54.4219 40.1987 54.4836 40.1807C54.5454 40.1627 54.5763 40.1164 54.5763 40.0443C54.5763 39.9954 54.566 39.9439 54.5454 39.8924L54.3858 39.4935H53.2893L53.2069 39.7123C53.1606 39.8358 53.1375 39.9233 53.1375 39.9774C53.1375 40.0778 53.1761 40.1395 53.2533 40.1679C53.3305 40.1936 53.4206 40.2065 53.5235 40.2065V40.4356H52.3601V40.2065C52.4528 40.2065 52.5326 40.1885 52.5969 40.155C52.6613 40.119 52.723 40.0546 52.7822 39.9568C52.8414 39.859 52.9058 39.7226 52.9727 39.545L53.9483 36.9941H54.1851L55.2147 39.6247C55.2893 39.8101 55.3433 39.9362 55.3794 40.0006C55.4154 40.0675 55.4618 40.1164 55.5235 40.1524C55.5853 40.1885 55.6702 40.2065 55.7835 40.2065V40.4356V40.4381ZM54.2983 39.249L53.8324 38.0701L53.3897 39.249H54.2983Z"
                        fill="#353A42"
                      />
                      <path
                        d="M63.1116 37.9567C63.1116 38.2347 63.0266 38.4458 62.8542 38.5899C62.6843 38.734 62.4809 38.8267 62.2493 38.8679C62.0176 38.9091 61.7731 38.9297 61.5183 38.9297H61.2943V39.8125C61.2943 39.9129 61.3046 39.9901 61.3252 40.0442C61.3458 40.0983 61.3947 40.142 61.4642 40.1678C61.5363 40.1961 61.6444 40.2115 61.7911 40.2115V40.4406H60.0923V40.2115C60.2364 40.2115 60.3445 40.1961 60.414 40.1678C60.4835 40.1369 60.5273 40.0957 60.5479 40.0416C60.5685 39.9876 60.5788 39.9104 60.5788 39.8151V37.6813C60.5788 37.5835 60.5685 37.5088 60.5479 37.4548C60.5273 37.4007 60.4835 37.357 60.414 37.3287C60.3445 37.2978 60.2364 37.2823 60.0923 37.2823V37.0481L61.0575 37.0223C61.1064 37.0223 61.1605 37.0198 61.2197 37.0198C61.2789 37.0198 61.3252 37.0198 61.3613 37.0198C61.3973 37.0198 61.4462 37.0198 61.5157 37.0198C61.6006 37.0198 61.6624 37.0198 61.7062 37.0198C61.9044 37.0275 62.0948 37.0481 62.2776 37.0764C62.4603 37.1073 62.6457 37.1922 62.831 37.3287C63.0189 37.4676 63.1116 37.6787 63.1116 37.9619V37.9567ZM62.3445 37.9619C62.3445 37.6916 62.2673 37.5114 62.1103 37.4213C61.9533 37.3312 61.7474 37.2849 61.49 37.2849C61.4436 37.2849 61.3793 37.2849 61.2969 37.29V38.6491H61.526C61.7705 38.6491 61.9687 38.6079 62.118 38.523C62.2699 38.4406 62.3445 38.2527 62.3445 37.9619Z"
                        fill="#353A42"
                      />
                      <path
                        d="M68.4657 40.4381H67.5622C67.5287 40.402 67.4876 40.348 67.4387 40.2785C67.3898 40.209 67.3357 40.1266 67.2791 40.0339C67.2199 39.9387 67.1735 39.8615 67.1349 39.7997L66.9058 39.4213C66.8029 39.2515 66.7257 39.1356 66.6716 39.0739C66.6201 39.0121 66.5584 38.9709 66.4914 38.9555C66.4245 38.9374 66.3112 38.9297 66.1491 38.9297H66.023V39.8126C66.023 39.9052 66.0333 39.9799 66.0538 40.0365C66.0744 40.0931 66.1208 40.1369 66.1954 40.1652C66.2701 40.1961 66.3782 40.209 66.5172 40.209V40.4381H64.8235V40.209C65.0294 40.209 65.1633 40.1781 65.2199 40.1189C65.2791 40.0597 65.3074 39.9567 65.3074 39.81V37.6762C65.3074 37.532 65.2791 37.4291 65.2225 37.3673C65.1658 37.3081 65.032 37.2772 64.8235 37.2772V37.043L65.606 37.0172C65.6652 37.0147 65.7347 37.0121 65.8119 37.0095C65.8891 37.0095 65.9612 37.0095 66.0281 37.0095C66.0796 37.0095 66.1645 37.0095 66.2855 37.0147C66.4528 37.0198 66.6098 37.0301 66.7565 37.0456C66.9033 37.061 67.0191 37.079 67.1015 37.1022C67.2276 37.1331 67.3434 37.1846 67.4567 37.2592C67.5699 37.3313 67.66 37.4291 67.7321 37.5475C67.8016 37.6659 67.8376 37.8049 67.8376 37.9645C67.8376 38.0777 67.8119 38.1858 67.763 38.2939C67.7141 38.3995 67.6343 38.4947 67.5262 38.5771C67.4181 38.6594 67.2739 38.7264 67.0963 38.7753C67.2173 38.8473 67.3203 38.9349 67.4052 39.0404C67.4901 39.1459 67.6214 39.339 67.8042 39.6221C67.9097 39.7817 67.9946 39.9052 68.0641 39.9876C68.1311 40.07 68.1954 40.1266 68.252 40.1549C68.3087 40.1832 68.3807 40.2038 68.4708 40.2115V40.4406L68.4657 40.4381ZM67.0654 37.9593C67.0654 37.6916 66.9831 37.5114 66.8209 37.4239C66.6587 37.3364 66.4451 37.2927 66.18 37.2927C66.1439 37.2927 66.1156 37.2927 66.095 37.2927C66.0744 37.2927 66.0513 37.2927 66.0255 37.2927V38.6517H66.1825C66.4322 38.6517 66.6433 38.6105 66.8132 38.5307C66.9831 38.4484 67.068 38.2579 67.068 37.9593H67.0654Z"
                        fill="#353A42"
                      />
                      <path
                        d="M71.7062 40.4382H69.9919V40.2091C70.1335 40.2091 70.2416 40.1963 70.3163 40.168C70.3883 40.1396 70.4372 40.0985 70.4604 40.0444C70.4836 39.9904 70.4939 39.9106 70.4939 39.8102V37.6866C70.4939 37.5399 70.463 37.437 70.4038 37.3778C70.3446 37.3186 70.2056 37.2877 69.9945 37.2877V37.0586H71.7088V37.2877C71.5672 37.2877 71.4565 37.3005 71.3845 37.3289C71.3098 37.3572 71.2635 37.3984 71.2403 37.4524C71.2172 37.5065 71.2069 37.5837 71.2069 37.6841V39.8076C71.2069 39.9054 71.2172 39.9801 71.2403 40.0341C71.2609 40.0882 71.3073 40.1319 71.3793 40.1602C71.4488 40.1911 71.5595 40.204 71.7088 40.204V40.4331L71.7062 40.4382Z"
                        fill="#353A42"
                      />
                      <path
                        d="M77.0368 37.2875C76.8746 37.2875 76.7588 37.303 76.6893 37.3364C76.6198 37.3699 76.576 37.4162 76.5606 37.4806C76.5426 37.5449 76.5349 37.6453 76.5349 37.7895V40.469H76.3058L74.0947 37.8435V39.7045C74.0947 39.8461 74.1025 39.949 74.1205 40.0134C74.1385 40.0777 74.1822 40.1266 74.2543 40.1601C74.3264 40.1936 74.4422 40.2116 74.6018 40.2116V40.4407H73.3457V40.2116C73.495 40.2116 73.6031 40.1936 73.67 40.1601C73.737 40.1266 73.7781 40.0777 73.7936 40.0134C73.809 39.949 73.8167 39.8461 73.8167 39.7045V37.9799C73.8167 37.8409 73.8142 37.7354 73.8064 37.6659C73.7987 37.5964 73.7807 37.5346 73.7524 37.4832C73.7241 37.4317 73.6777 37.3879 73.6134 37.357C73.549 37.3236 73.4615 37.303 73.3483 37.2901V37.061H74.3341L76.2569 39.3339V37.792C76.2569 37.6659 76.2492 37.5681 76.2311 37.5012C76.2131 37.4343 76.1694 37.3828 76.1024 37.3467C76.0329 37.3107 75.9248 37.2927 75.7755 37.2927V37.0636H77.0368V37.2927V37.2875Z"
                        fill="#353A42"
                      />
                      <path
                        d="M81.997 40.4022H81.7627C81.7267 40.2606 81.6701 40.1319 81.5903 40.0187C81.4641 40.1499 81.32 40.2632 81.1578 40.3584C80.9957 40.4537 80.7743 40.5 80.4963 40.5C80.1926 40.5 79.9094 40.4253 79.6495 40.2786C79.3895 40.1319 79.181 39.9234 79.0266 39.6609C78.8721 39.3958 78.7949 39.0972 78.7949 38.7651C78.7949 38.5283 78.8361 38.3044 78.921 38.0907C79.006 37.8771 79.1244 37.6892 79.2788 37.5245C79.4333 37.3623 79.6186 37.2336 79.8348 37.1409C80.0484 37.0483 80.2853 37.002 80.5401 37.002C80.9622 37.002 81.3123 37.1409 81.5877 37.4164C81.6237 37.3443 81.6598 37.2413 81.6958 37.1049H81.9197L81.9609 38.3481H81.7215C81.6778 38.1371 81.6006 37.9492 81.4873 37.7844C81.374 37.6197 81.2402 37.4936 81.0858 37.4061C80.9313 37.3186 80.7692 37.2748 80.5993 37.2748C80.4088 37.2748 80.2389 37.3263 80.0896 37.4318C79.9378 37.5348 79.8194 37.6944 79.7344 37.9054C79.6495 38.1191 79.6057 38.3842 79.6057 38.7008C79.6057 39.0174 79.6418 39.2671 79.7138 39.473C79.7859 39.6789 79.8734 39.8333 79.9789 39.9363C80.0845 40.0418 80.19 40.1113 80.2955 40.1499C80.4011 40.1885 80.5015 40.2066 80.5941 40.2066C80.8001 40.2066 80.9828 40.1525 81.1475 40.0418C81.3123 39.9311 81.4461 39.7947 81.5491 39.6274C81.6546 39.4601 81.7241 39.2954 81.7576 39.1306H81.997V40.4073V40.4022Z"
                        fill="#353A42"
                      />
                      <path
                        d="M86.9107 39.3263L86.8824 40.4382H83.8708V40.2091C84.0793 40.2091 84.2132 40.1783 84.2724 40.1191C84.3316 40.0599 84.3625 39.9569 84.3625 39.8102V37.6866C84.3625 37.5914 84.3522 37.5142 84.3342 37.4601C84.3161 37.4061 84.2698 37.3623 84.2003 37.334C84.1308 37.3031 84.0201 37.2877 83.8734 37.2877V37.0586H86.6765L86.7202 37.9337H86.4912C86.4397 37.7407 86.3805 37.6017 86.3136 37.5168C86.2466 37.4318 86.172 37.3803 86.087 37.3623C86.0021 37.3443 85.8786 37.334 85.7087 37.334H85.0755V38.5283H85.4204C85.5388 38.5283 85.6263 38.518 85.6855 38.4975C85.7447 38.4769 85.7833 38.4382 85.8065 38.379C85.8296 38.3224 85.8451 38.2298 85.8528 38.1062H86.0922V39.231H85.8631C85.8554 39.1049 85.8399 39.0148 85.8142 38.9556C85.7885 38.8964 85.7447 38.8578 85.6881 38.8372C85.6315 38.8166 85.5439 38.8063 85.4255 38.8063H85.0755V39.6017C85.0755 39.7355 85.078 39.8308 85.0858 39.8925C85.0935 39.9543 85.1115 40.0058 85.1398 40.047C85.1681 40.0882 85.217 40.1165 85.2814 40.1345C85.3483 40.1525 85.441 40.1628 85.5619 40.1628H85.8322C85.9481 40.1628 86.0562 40.1499 86.1591 40.1191C86.2621 40.0907 86.365 40.0161 86.4654 39.8951C86.5658 39.7741 86.6353 39.5862 86.6739 39.3288H86.9081L86.9107 39.3263Z"
                        fill="#353A42"
                      />
                      <path
                        d="M91.2298 39.4676C91.2298 39.5731 91.2066 39.6838 91.1629 39.7996C91.1191 39.918 91.0496 40.0287 90.9595 40.1368C90.8694 40.2449 90.7536 40.3325 90.6172 40.3994C90.4782 40.4663 90.3186 40.4998 90.1384 40.4998C89.9583 40.4998 89.7807 40.4612 89.603 40.3814C89.4254 40.3041 89.2762 40.1883 89.1526 40.0339C89.0985 40.1574 89.0651 40.2707 89.0496 40.3762H88.8206V39.2205H89.0496C89.0908 39.3852 89.1475 39.5422 89.2221 39.689C89.2942 39.8357 89.3971 39.9618 89.531 40.0648C89.6648 40.1703 89.8296 40.2244 90.0226 40.2244C90.1925 40.2244 90.3289 40.178 90.4293 40.0854C90.5323 39.9927 90.5837 39.8743 90.5837 39.7327C90.5837 39.6529 90.5683 39.5834 90.5374 39.5242C90.5065 39.465 90.4602 39.411 90.401 39.3621C90.3418 39.3157 90.2594 39.2643 90.1565 39.2102C90.0535 39.1561 89.9351 39.0995 89.8012 39.0403C89.5953 38.9425 89.428 38.8473 89.2967 38.7495C89.1655 38.6517 89.0651 38.5564 88.9982 38.4637C88.9312 38.3711 88.8849 38.2836 88.8592 38.2012C88.8334 38.1188 88.8206 38.0339 88.8206 37.949C88.8206 37.7971 88.8617 37.6478 88.9415 37.5011C89.0239 37.3544 89.1423 37.2334 89.2993 37.1382C89.4563 37.0429 89.6391 36.9966 89.845 36.9966C90.002 36.9966 90.1539 37.0326 90.2955 37.1021C90.4396 37.1716 90.5631 37.2694 90.6661 37.393C90.697 37.3235 90.7227 37.2257 90.7485 37.0995H90.9827V38.0416H90.7485C90.5812 37.5294 90.2929 37.272 89.881 37.272C89.7317 37.272 89.6108 37.3106 89.5207 37.3904C89.4306 37.4702 89.3843 37.5706 89.3843 37.6967C89.3843 37.7945 89.4126 37.8795 89.4692 37.9515C89.5258 38.0236 89.6005 38.0854 89.6931 38.1369C89.7858 38.1883 89.9351 38.263 90.141 38.3582C90.3907 38.4766 90.5837 38.577 90.7253 38.6645C90.8643 38.7495 90.9853 38.8601 91.0805 38.9914C91.1783 39.1227 91.2272 39.2823 91.2272 39.4676H91.2298Z"
                        fill="#353A42"
                      />
                      <path
                        d="M96.347 40.4381H94.7537V40.209C94.8875 40.209 94.9853 40.1987 95.0471 40.1807C95.1089 40.1627 95.1398 40.1164 95.1398 40.0443C95.1398 39.9954 95.1295 39.9439 95.1089 39.8924L94.9493 39.4935H93.8528L93.7704 39.7123C93.7241 39.8358 93.7009 39.9233 93.7009 39.9774C93.7009 40.0778 93.7395 40.1395 93.8168 40.1679C93.894 40.1936 93.9841 40.2065 94.087 40.2065V40.4356H92.9236V40.2065C93.0162 40.2065 93.096 40.1885 93.1604 40.155C93.2247 40.119 93.2865 40.0546 93.3457 39.9568C93.4049 39.859 93.4693 39.7226 93.5362 39.545L94.5117 36.9941H94.7485L95.7781 39.6247C95.8528 39.8101 95.9068 39.9362 95.9429 40.0006C95.9789 40.0675 96.0252 40.1164 96.087 40.1524C96.1488 40.1885 96.2337 40.2065 96.347 40.2065V40.4356V40.4381ZM94.8618 39.249L94.3959 38.0701L93.9532 39.249H94.8618Z"
                        fill="#353A42"
                      />
                      <path
                        d="M100.524 39.4676C100.524 39.5731 100.501 39.6838 100.458 39.7996C100.414 39.918 100.344 40.0287 100.254 40.1368C100.164 40.2449 100.048 40.3325 99.9119 40.3994C99.7729 40.4663 99.6159 40.4998 99.4331 40.4998C99.2504 40.4998 99.0753 40.4612 98.8977 40.3814C98.7201 40.3041 98.5708 40.1883 98.4473 40.0339C98.3932 40.1574 98.3598 40.2707 98.3443 40.3762H98.1152V39.2205H98.3443C98.3855 39.3852 98.4421 39.5422 98.5168 39.689C98.5888 39.8357 98.6944 39.9618 98.8282 40.0648C98.9621 40.1703 99.1268 40.2244 99.3199 40.2244C99.4897 40.2244 99.6236 40.178 99.7265 40.0854C99.8295 39.9927 99.881 39.8743 99.881 39.7327C99.881 39.6529 99.8655 39.5834 99.8347 39.5242C99.8038 39.465 99.7574 39.411 99.6982 39.3621C99.639 39.3157 99.5567 39.2643 99.4537 39.2102C99.3507 39.1561 99.2323 39.0995 99.0985 39.0403C98.8952 38.9425 98.7253 38.8473 98.5966 38.7495C98.4653 38.6517 98.3649 38.5564 98.298 38.4637C98.2311 38.3711 98.1847 38.2836 98.159 38.2012C98.1332 38.1188 98.1204 38.0339 98.1204 37.949C98.1204 37.7971 98.1616 37.6478 98.2414 37.5011C98.3237 37.3544 98.4421 37.2334 98.5991 37.1382C98.7562 37.0429 98.9389 36.9966 99.1448 36.9966C99.3018 36.9966 99.4537 37.0326 99.5953 37.1021C99.7394 37.1716 99.863 37.2694 99.9659 37.393C99.9968 37.3235 100.023 37.2257 100.048 37.0995H100.283V38.0416H100.048C99.881 37.5294 99.5927 37.272 99.1809 37.272C99.0316 37.272 98.9106 37.3106 98.8205 37.3904C98.7304 37.4702 98.6841 37.5706 98.6841 37.6967C98.6841 37.7945 98.7124 37.8795 98.769 37.9515C98.8256 38.0236 98.9003 38.0854 98.993 38.1369C99.0856 38.1883 99.2349 38.263 99.4408 38.3582C99.6905 38.4766 99.8836 38.577 100.025 38.6645C100.164 38.7495 100.285 38.8601 100.38 38.9914C100.478 39.1227 100.527 39.2823 100.527 39.4676H100.524Z"
                        fill="#353A42"
                      />
                    </svg>