                    <svg
                      width="54"
                      height="23"
                      viewBox="0 0 54 23"
                      fill="none"
                      xmlns="http://www.w3.org/2000/svg"
                    >
                      <path
                        d="M53.6144 12.4048V12.4338C53.5907 12.9152 53.3434 13.3178 53.0829 13.6598C52.0569 15.0095 50.4862 16.7775 50.4598 16.8065C49.6679 17.7826 48.6524 17.4484 47.6368 16.9354L47.6342 16.9328C47.5394 16.8854 47.5131 16.7617 47.5815 16.6802C48.1419 16.0093 50.2941 13.4335 50.4099 13.2757C50.5493 13.081 50.8966 12.6469 50.8966 12.4311V12.3943C50.8966 12.1917 50.5519 11.755 50.4099 11.5603C50.2967 11.4024 48.1446 8.83193 47.5815 8.1584C47.5131 8.07684 47.5394 7.95318 47.6342 7.90582C48.6497 7.39278 49.6679 7.05601 50.4572 8.03474C50.4835 8.06368 52.0542 9.83171 53.0803 11.1788C53.346 11.5208 53.5934 11.9233 53.6144 12.4048ZM3.70707 12.3969V12.4338C3.70707 12.6469 4.05437 13.0836 4.19381 13.2783C4.30694 13.4388 6.46173 16.0145 7.02213 16.6828C7.09053 16.7644 7.06422 16.888 6.96951 16.9354H6.96688C5.95131 17.4484 4.93049 17.7826 4.14645 16.8065C4.12014 16.7802 2.54681 15.0095 1.52072 13.6598C1.26025 13.3178 1.01031 12.9152 0.989258 12.4338V12.4048C1.01031 11.926 1.25762 11.5208 1.52072 11.1788C2.54944 9.82908 4.12277 8.06368 4.14645 8.03474C4.93049 7.05601 5.95131 7.39278 6.96688 7.90582C7.06159 7.95318 7.0879 8.07683 7.0195 8.16103C6.45646 8.83193 4.30431 11.405 4.19118 11.5629C4.05173 11.7576 3.70707 12.1943 3.70707 12.3969ZM44.8321 11.5524L44.8479 14.6806C44.8479 21.2818 41.3855 22.1079 38.1284 22.4L38.0942 22.4026C37.9074 22.4184 37.7232 22.4289 37.5338 22.4315C37.3443 22.4289 37.1549 22.4184 36.9655 22.4026L36.9365 22.4C33.6794 22.1079 30.2196 21.2818 30.2196 14.6806L30.2354 11.5524V5.06435C30.2354 4.97226 30.3091 4.89859 30.4011 4.89859H32.4875C34.3661 4.91964 35.2764 5.60107 35.2764 7.57958L35.2553 15.291C35.2553 15.9304 35.6473 17.7352 37.2523 17.9825C37.3207 17.9957 37.3891 18.0009 37.4627 18.0062C37.4654 18.0062 37.4706 18.0062 37.4759 18.0062H37.6022C37.6048 18.0062 37.6101 18.0062 37.6153 18.0062C37.6837 18.0009 37.7548 17.9957 37.8205 17.9825C39.4255 17.7352 39.8175 15.933 39.8175 15.291L39.7964 7.57958C39.7964 5.60107 40.7067 4.91701 42.5826 4.89859H44.6717C44.7637 4.89859 44.8374 4.97226 44.8374 5.06435V11.5524H44.8321ZM22.3029 15.1516C21.6426 16.9906 20.6349 17.7431 19.4036 17.7878C18.4643 17.8194 17.725 17.5063 17.1515 16.8696C16.5884 16.254 16.1622 15.32 15.9491 13.9913C15.7518 12.7416 15.7176 11.4235 15.8281 10.0553C15.9359 8.66881 16.1806 7.56116 16.5226 6.74029C16.8305 6.01414 17.2014 5.52477 17.5803 5.22221C17.9565 4.91701 18.4433 4.74074 19.0616 4.71969C20.085 4.68548 20.8506 4.97226 21.4268 5.54319C21.982 6.10622 22.3977 6.97971 22.6108 8.28995C23.0554 11.1209 22.9212 13.4204 22.3029 15.1516ZM25.6285 2.39126C23.9605 0.854755 21.7373 0.0786133 18.9932 0.0786133C17.4724 0.0786133 16.0859 0.375914 14.8783 0.97315C13.6733 1.5546 12.7024 2.40441 11.9842 3.49101C11.0765 4.86176 10.4503 6.36932 10.0925 7.99264C9.73731 9.60281 9.66101 11.3156 9.88465 13.0915C10.2425 16.0724 11.287 18.3956 12.955 20.0215C14.6389 21.6449 16.7989 22.4394 19.543 22.4394C21.2006 22.4394 22.6765 22.079 23.9157 21.3923C25.1681 20.6925 26.2231 19.6322 27.0729 18.2483C27.8044 17.0248 28.3253 15.6252 28.5936 14.0755C28.862 12.5101 28.8778 10.8104 28.6673 9.02399C28.3095 6.16147 27.2966 3.92513 25.6285 2.39126Z"
                        fill="#353A42"
                      />
                    </svg>