                    <svg
                      xmlns="http://www.w3.org/2000/svg"
                      width="96"
                      height="37"
                      viewBox="0 0 96 37"
                      fill="none"
                    >
                      <path
                        d="M93.0473 0.781969C93.5302 0.784556 93.9475 0.963905 94.2907 1.31053C94.6373 1.65457 94.7985 2.07449 94.7959 2.55649C94.7891 3.04797 94.62 3.46186 94.2751 3.80245C93.9268 4.14476 93.5095 4.31894 93.0171 4.31894C92.5256 4.30945 92.1074 4.12838 91.7703 3.78606C91.4306 3.43771 91.2667 3.02124 91.2685 2.53062C91.2771 2.04345 91.4461 1.62612 91.7927 1.2907C92.1411 0.951833 92.5567 0.777658 93.0473 0.781969ZM95.0762 2.55735C95.0805 1.99344 94.8839 1.51144 94.489 1.10963C94.0975 0.711264 93.606 0.507772 93.0473 0.500011C92.4808 0.498287 92.0057 0.694018 91.597 1.08979C91.1926 1.48212 90.99 1.95895 90.9856 2.52545C90.9822 3.09367 91.1779 3.5774 91.5685 3.98093C91.9626 4.38706 92.4394 4.5871 93.0163 4.59313C93.5776 4.59745 94.0682 4.40344 94.4683 4.00163C94.8649 3.60499 95.0745 3.1204 95.0762 2.55735ZM93.5733 2.10381C93.5733 2.27367 93.4896 2.39094 93.3336 2.44784C93.2551 2.4832 93.118 2.49958 92.949 2.49958L92.5843 2.4901L92.592 1.68475L92.9369 1.68647C93.1602 1.69251 93.3258 1.71838 93.4163 1.77787C93.5164 1.82875 93.5733 1.94429 93.5733 2.10381ZM92.2075 1.40538L92.1876 3.66018H92.5799L92.5825 2.77378L92.8938 2.77809C93.1111 2.78067 93.2594 2.80396 93.3474 2.84707C93.4845 2.93416 93.5569 3.10488 93.5517 3.36442V3.54463L93.5646 3.61448C93.5646 3.62224 93.5647 3.63776 93.5681 3.64379C93.5655 3.64983 93.5681 3.65931 93.5681 3.65931L93.9475 3.6688L93.9363 3.63776C93.9216 3.62137 93.9147 3.59033 93.913 3.52135C93.9035 3.46358 93.9035 3.40495 93.9035 3.35494L93.9078 3.19111C93.9078 3.07815 93.8673 2.96089 93.7897 2.84448C93.7138 2.72549 93.5802 2.64789 93.406 2.62116C93.5509 2.59529 93.6604 2.55821 93.7371 2.50993C93.8837 2.42025 93.9578 2.27194 93.963 2.06414C93.963 1.78305 93.8509 1.59249 93.6138 1.48988C93.4845 1.44246 93.281 1.41228 93.0042 1.41055L92.2075 1.40538Z"
                        fill="#353A42"
                      />
                      <path
                        d="M35.2694 1.15186H30.2209V24.882H35.2694V1.15186Z"
                        fill="#353A42"
                      />
                      <path
                        d="M63.0191 14.0046C61.6852 12.2267 59.2545 11.0566 55.9926 10.6246C55.3804 10.5116 53.6594 10.3219 51.9943 10.1357C50.4785 9.96496 48.9101 9.79079 48.3254 9.6899C46.344 9.42605 45.3912 8.78712 45.3351 7.68602C45.3205 7.23075 45.5128 6.79273 45.9077 6.38488C46.9079 5.35362 48.9911 4.71383 51.3468 4.71383H51.4563C54.9157 4.76902 57.7171 5.53728 60.5358 7.21609L60.6643 7.29111L62.663 3.63342L62.5458 3.56186C59.8383 1.80372 56.5626 0.762118 53.0842 0.546554C52.6436 0.51465 52.1892 0.500854 51.7348 0.500854C48.6324 0.500854 45.8206 1.17427 44.0211 2.34608C42.3397 3.32388 40.3953 5.38553 40.4574 7.97315C40.5402 10.3745 41.8973 13.4062 47.9004 14.2107C48.5996 14.3081 50.0991 14.4547 51.4227 14.5866C52.2961 14.6737 53.0472 14.7496 53.4464 14.7962C54.8648 14.9566 59.1855 15.436 59.2037 17.758C59.2114 18.0788 59.0976 20.8958 52.353 21.088C52.1996 21.0924 52.0461 21.0941 51.8952 21.0941C48.3108 21.0941 44.7411 19.8783 41.8482 17.6692L41.7102 17.5623L39.6736 21.4907L39.7771 21.564C43.5684 24.2534 47.3908 25.4562 52.1737 25.4562C52.5427 25.4562 52.9221 25.4485 53.3041 25.4347C59.4132 25.207 63.5304 22.5004 64.0521 18.3754C64.2979 16.713 63.9512 15.242 63.0191 14.0046Z"
                        fill="#353A42"
                      />
                      <path
                        d="M89.531 14.0046C88.1971 12.2267 85.7621 11.0566 82.5019 10.6246C81.8906 10.5116 80.1712 10.3219 78.5053 10.1357C76.9878 9.96496 75.4185 9.79079 74.8373 9.6899C72.8524 9.42605 71.9039 8.78712 71.8427 7.68602C71.8306 7.23075 72.0221 6.79273 72.4187 6.38488C73.4163 5.35362 75.4995 4.71383 77.8587 4.71383H77.9647C81.4267 4.76902 84.2273 5.53728 87.046 7.21609L87.1779 7.29111L89.1697 3.63342L89.0602 3.56186C86.3467 1.80372 83.0744 0.762118 79.5935 0.546554C79.1529 0.51465 78.6976 0.500854 78.2458 0.500854C75.1425 0.500854 72.3299 1.17427 70.5338 2.34608C68.8507 3.32388 66.9063 5.38553 66.9684 7.97315C67.0494 10.3745 68.4127 13.4062 74.4131 14.2107C75.1081 14.3081 76.6084 14.4547 77.9319 14.5866C78.8054 14.6737 79.5573 14.7496 79.9582 14.7962C81.3741 14.9566 85.6957 15.436 85.7147 17.758C85.7233 18.0788 85.6086 20.8958 78.8649 21.088C78.7131 21.0924 78.5571 21.0941 78.4062 21.0941C74.8183 21.0941 71.2521 19.8783 68.3566 17.6692L68.2212 17.5623L66.1829 21.4907L66.2863 21.564C70.0777 24.2534 73.9 25.4562 78.683 25.4562C79.052 25.4562 79.4305 25.4485 79.8117 25.4347C85.9216 25.207 90.0406 22.5004 90.5622 18.3754C90.808 16.713 90.464 15.242 89.531 14.0046Z"
                        fill="#353A42"
                      />
                      <path
                        d="M27.1013 24.8828L18.0916 14.5116C18.9366 13.5399 19.7454 12.5138 20.518 11.4342C23.4858 7.27387 25.2112 3.33164 25.9717 1.3519L26.0476 1.15531H20.9008L20.8629 1.24067C20.0515 3.08244 18.6469 5.88391 16.5619 8.78022C13.5208 13.0096 9.96223 16.2396 5.94671 18.4349V1.15186H1.00513V25.4864L1.18965 25.4373C6.16572 24.0749 10.7538 21.5174 14.7503 17.9236L20.7939 24.8828H27.1013Z"
                        fill="#353A42"
                      />
                      <path
                        d="M0.924316 30.0133H1.71328L6.13492 35.4188H6.15303V30.0133H6.8092V36.3405H6.04697L1.5986 30.9351H1.58049V36.3405H0.924316V30.0133Z"
                        fill="#353A42"
                      />
                      <path
                        d="M13.6693 30.0133H18.7023V30.616H14.3246V32.7605H18.5428V33.3632H14.3246V35.7378H18.773V36.3405H13.6685V30.0133H13.6693Z"
                        fill="#353A42"
                      />
                      <path
                        d="M33.3797 30.0133H34.0884L31.9621 36.3405H31.1999L29.2943 30.9351H29.2762L27.3974 36.3405H26.6351L24.5347 30.0133H25.2702L27.0249 35.4722H27.043L28.9123 30.0133H29.7185L31.5879 35.4722H31.606L33.3797 30.0133Z"
                        fill="#353A42"
                      />
                      <path
                        d="M50.3353 33.6822L47.4907 30.0133H48.3418L50.663 33.026L52.985 30.0133H53.8361L50.9915 33.6822V36.3405H50.3353V33.6822Z"
                        fill="#353A42"
                      />
                      <path
                        d="M63.0623 29.8536C64.861 29.8536 66.5001 30.9435 66.5001 33.1768C66.5001 35.41 64.861 36.4999 63.0623 36.4999C61.2637 36.4999 59.6245 35.41 59.6245 33.1768C59.6245 30.9435 61.2637 29.8536 63.0623 29.8536ZM63.0623 35.8972C64.4531 35.8972 65.7914 35.0823 65.7914 33.1768C65.7914 31.2712 64.4531 30.4564 63.0623 30.4564C61.6706 30.4564 60.3333 31.2712 60.3333 33.1768C60.3333 35.0823 61.6715 35.8972 63.0623 35.8972Z"
                        fill="#353A42"
                      />
                      <path
                        d="M73.1138 30.0133H76.5611C77.6337 30.0133 78.6167 30.3944 78.6167 31.724C78.6167 32.3974 78.2002 33.0709 77.3759 33.2571V33.2752C78.2709 33.4166 78.4572 33.9935 78.5011 35.0299C78.5192 35.4283 78.5718 36.2 78.7227 36.3414H78.014C77.8984 36.2086 77.8544 35.7387 77.8458 35.048C77.8277 33.9314 77.4026 33.5589 76.3127 33.5589H73.7699V36.3414H73.1138V30.0133ZM73.7699 32.9553H76.5438C77.2612 32.9553 77.9088 32.6897 77.9088 31.724C77.9088 30.7936 77.2086 30.616 76.6059 30.616H73.7699V32.9553Z"
                        fill="#353A42"
                      />
                      <path
                        d="M85.2656 30.0133H85.9218V33.4339L90.0063 30.0133H90.9548L87.8179 32.6277L91.1678 36.3405H90.2374L87.304 33.0709L85.9218 34.2047V36.3405H85.2656V30.0133Z"
                        fill="#353A42"
                      />
                    </svg>